%TF.GenerationSoftware,KiCad,Pcbnew,9.0.3*%
%TF.CreationDate,2025-08-21T00:29:16-03:00*%
%TF.ProjectId,PCB_Interfaz,5043425f-496e-4746-9572-66617a2e6b69,rev?*%
%TF.SameCoordinates,Original*%
%TF.FileFunction,Copper,L2,Bot*%
%TF.FilePolarity,Positive*%
%FSLAX46Y46*%
G04 Gerber Fmt 4.6, Leading zero omitted, Abs format (unit mm)*
G04 Created by KiCad (PCBNEW 9.0.3) date 2025-08-21 00:29:16*
%MOMM*%
%LPD*%
G01*
G04 APERTURE LIST*
G04 Aperture macros list*
%AMRoundRect*
0 Rectangle with rounded corners*
0 $1 Rounding radius*
0 $2 $3 $4 $5 $6 $7 $8 $9 X,Y pos of 4 corners*
0 Add a 4 corners polygon primitive as box body*
4,1,4,$2,$3,$4,$5,$6,$7,$8,$9,$2,$3,0*
0 Add four circle primitives for the rounded corners*
1,1,$1+$1,$2,$3*
1,1,$1+$1,$4,$5*
1,1,$1+$1,$6,$7*
1,1,$1+$1,$8,$9*
0 Add four rect primitives between the rounded corners*
20,1,$1+$1,$2,$3,$4,$5,0*
20,1,$1+$1,$4,$5,$6,$7,0*
20,1,$1+$1,$6,$7,$8,$9,0*
20,1,$1+$1,$8,$9,$2,$3,0*%
G04 Aperture macros list end*
%TA.AperFunction,Conductor*%
%ADD10C,0.200000*%
%TD*%
%TA.AperFunction,ComponentPad*%
%ADD11RoundRect,0.250000X0.620000X0.845000X-0.620000X0.845000X-0.620000X-0.845000X0.620000X-0.845000X0*%
%TD*%
%TA.AperFunction,ComponentPad*%
%ADD12O,1.740000X2.190000*%
%TD*%
%TA.AperFunction,ComponentPad*%
%ADD13C,12.700000*%
%TD*%
%TA.AperFunction,ComponentPad*%
%ADD14RoundRect,0.250000X-1.550000X0.650000X-1.550000X-0.650000X1.550000X-0.650000X1.550000X0.650000X0*%
%TD*%
%TA.AperFunction,ComponentPad*%
%ADD15O,3.600000X1.800000*%
%TD*%
%TA.AperFunction,ComponentPad*%
%ADD16R,6.600000X3.300000*%
%TD*%
%TA.AperFunction,ComponentPad*%
%ADD17O,6.600000X3.300000*%
%TD*%
%TA.AperFunction,ComponentPad*%
%ADD18C,1.600000*%
%TD*%
%TA.AperFunction,ComponentPad*%
%ADD19RoundRect,0.250000X-1.050000X1.050000X-1.050000X-1.050000X1.050000X-1.050000X1.050000X1.050000X0*%
%TD*%
%TA.AperFunction,ComponentPad*%
%ADD20C,2.600000*%
%TD*%
%TA.AperFunction,ComponentPad*%
%ADD21R,1.800000X1.800000*%
%TD*%
%TA.AperFunction,ComponentPad*%
%ADD22C,1.800000*%
%TD*%
%TA.AperFunction,Conductor*%
%ADD23C,0.762000*%
%TD*%
%TA.AperFunction,Conductor*%
%ADD24C,3.810000*%
%TD*%
G04 APERTURE END LIST*
D10*
%TO.N,/Interfaz de conexi\u00F3n/12V_Cnv*%
X109728000Y-88392000D02*
X109728000Y-89662000D01*
X109347000Y-90043000D01*
X99060000Y-90043000D01*
X96139000Y-92964000D01*
X96139000Y-102997000D01*
X95504000Y-103632000D01*
X92964000Y-103632000D01*
X92583000Y-103251000D01*
X92583000Y-88519000D01*
X93091000Y-88011000D01*
X109347000Y-88011000D01*
X109728000Y-88392000D01*
%TA.AperFunction,Conductor*%
G36*
X109728000Y-88392000D02*
G01*
X109728000Y-89662000D01*
X109347000Y-90043000D01*
X99060000Y-90043000D01*
X96139000Y-92964000D01*
X96139000Y-102997000D01*
X95504000Y-103632000D01*
X92964000Y-103632000D01*
X92583000Y-103251000D01*
X92583000Y-88519000D01*
X93091000Y-88011000D01*
X109347000Y-88011000D01*
X109728000Y-88392000D01*
G37*
%TD.AperFunction*%
%TO.N,/Interfaz de conexi\u00F3n/Gnd_Cnv*%
X107061000Y-80772000D02*
X107061000Y-82296000D01*
X106680000Y-82677000D01*
X89821000Y-82677000D01*
X89321000Y-83177000D01*
X89321000Y-88358750D01*
X90639000Y-89750000D01*
X90639000Y-103974000D01*
X92329000Y-105664000D01*
X94869000Y-105664000D01*
X95504000Y-106299000D01*
X95504000Y-108331000D01*
X94869000Y-108966000D01*
X84892000Y-108966000D01*
X82344000Y-106418000D01*
X82344000Y-82534000D01*
X84487000Y-80391000D01*
X106680000Y-80391000D01*
X107061000Y-80772000D01*
%TA.AperFunction,Conductor*%
G36*
X107061000Y-80772000D02*
G01*
X107061000Y-82296000D01*
X106680000Y-82677000D01*
X89821000Y-82677000D01*
X89321000Y-83177000D01*
X89321000Y-88358750D01*
X90639000Y-89750000D01*
X90639000Y-103974000D01*
X92329000Y-105664000D01*
X94869000Y-105664000D01*
X95504000Y-106299000D01*
X95504000Y-108331000D01*
X94869000Y-108966000D01*
X84892000Y-108966000D01*
X82344000Y-106418000D01*
X82344000Y-82534000D01*
X84487000Y-80391000D01*
X106680000Y-80391000D01*
X107061000Y-80772000D01*
G37*
%TD.AperFunction*%
%TD*%
D11*
%TO.P,Inv_Pwr1,1,Pin_1*%
%TO.N,/Interfaz de conexi\u00F3n/12V_Cnv*%
X90788000Y-84455000D03*
D12*
%TO.P,Inv_Pwr1,2,Pin_2*%
%TO.N,/Interfaz de conexi\u00F3n/Gnd_Cnv*%
X88248000Y-84455000D03*
%TD*%
D13*
%TO.P,Pw_In-1,1,Pin_1*%
%TO.N,unconnected-(Pw_In-1-Pin_1-Pad1)*%
X127850000Y-124802000D03*
%TO.P,Pw_In-1,2,Pin_2*%
%TO.N,unconnected-(Pw_In-1-Pin_2-Pad2)*%
X145122000Y-124802000D03*
%TD*%
D14*
%TO.P,Motor_Out2,1,Pin_1*%
%TO.N,Net-(Motor_Out2-Pin_1)*%
X118833000Y-84035000D03*
D15*
%TO.P,Motor_Out2,2,Pin_2*%
%TO.N,Net-(Motor_Out2-Pin_2)*%
X118833000Y-89115000D03*
%TO.P,Motor_Out2,3,Pin_3*%
%TO.N,Net-(Motor_Out2-Pin_3)*%
X118833000Y-94195000D03*
%TD*%
D16*
%TO.P,Motor_Pwr1,1,Pin_1*%
%TO.N,Net-(Motor_Out2-Pin_3)*%
X136779000Y-106393000D03*
D17*
%TO.P,Motor_Pwr1,2,Pin_2*%
%TO.N,Net-(Motor_Out2-Pin_2)*%
X136779000Y-96393000D03*
%TO.P,Motor_Pwr1,3,Pin_3*%
%TO.N,Net-(Motor_Out2-Pin_1)*%
X136779000Y-86393000D03*
%TD*%
D18*
%TO.P,R48,1*%
%TO.N,Net-(D11-K)*%
X98386000Y-93179000D03*
%TO.P,R48,2*%
%TO.N,/Interfaz de conexi\u00F3n/Gnd_Cnv*%
X88226000Y-93179000D03*
%TD*%
D11*
%TO.P,Cnv_Pwr1,1,Pin_1*%
%TO.N,/Interfaz de conexi\u00F3n/12V_Cnv*%
X100037000Y-84416000D03*
D12*
%TO.P,Cnv_Pwr1,2,Pin_2*%
%TO.N,/Interfaz de conexi\u00F3n/Gnd_Cnv*%
X97497000Y-84416000D03*
%TD*%
D11*
%TO.P,Cooler1,1,Pin_1*%
%TO.N,/Interfaz de conexi\u00F3n/12V_Cnv*%
X108800000Y-84455000D03*
D12*
%TO.P,Cooler1,2,Pin_2*%
%TO.N,/Interfaz de conexi\u00F3n/Gnd_Cnv*%
X106260000Y-84455000D03*
%TD*%
D19*
%TO.P,12V_Pwr1,1,Pin_1*%
%TO.N,/Interfaz de conexi\u00F3n/12V_Cnv*%
X94061500Y-102402000D03*
D20*
%TO.P,12V_Pwr1,2,Pin_2*%
%TO.N,/Interfaz de conexi\u00F3n/Gnd_Cnv*%
X94061500Y-107402000D03*
%TD*%
D11*
%TO.P,Inv_Pwr2,1,Pin_1*%
%TO.N,/Interfaz de conexi\u00F3n/12V_Cnv*%
X108800000Y-92818000D03*
D12*
%TO.P,Inv_Pwr2,2,Pin_2*%
%TO.N,/Interfaz de conexi\u00F3n/Gnd_Cnv*%
X106260000Y-92818000D03*
%TD*%
D13*
%TO.P,Pw_In+1,1,Pin_1*%
%TO.N,unconnected-(Pw_In+1-Pin_1-Pad1)*%
X93687000Y-124802000D03*
%TO.P,Pw_In+1,2,Pin_2*%
%TO.N,unconnected-(Pw_In+1-Pin_2-Pad2)*%
X110959000Y-124802000D03*
%TD*%
D21*
%TO.P,D11,1,K*%
%TO.N,Net-(D11-K)*%
X93980000Y-112649000D03*
D22*
%TO.P,D11,2,A*%
%TO.N,/Interfaz de conexi\u00F3n/12V_Cnv*%
X91440000Y-112649000D03*
%TD*%
D23*
%TO.N,/Interfaz de conexi\u00F3n/Gnd_Cnv*%
X106260000Y-94703000D02*
X106260000Y-92818000D01*
X97497000Y-84416000D02*
X97497000Y-82081000D01*
X107149000Y-95592000D02*
X106260000Y-94703000D01*
X110070000Y-81749000D02*
X111467000Y-83146000D01*
X111467000Y-83146000D02*
X111467000Y-94703000D01*
X110578000Y-95592000D02*
X107149000Y-95592000D01*
X106260000Y-84455000D02*
X106260000Y-81749000D01*
X106006000Y-81749000D02*
X110070000Y-81749000D01*
X111467000Y-94703000D02*
X110578000Y-95592000D01*
X106260000Y-81749000D02*
X106045000Y-81534000D01*
D24*
%TO.N,Net-(Motor_Out2-Pin_1)*%
X134460000Y-84074000D02*
X136779000Y-86393000D01*
X118833000Y-84035000D02*
X118872000Y-84074000D01*
X118872000Y-84074000D02*
X134460000Y-84074000D01*
%TO.N,Net-(Motor_Out2-Pin_3)*%
X118833000Y-94195000D02*
X118872000Y-94234000D01*
X124620000Y-94234000D02*
X136779000Y-106393000D01*
X118872000Y-94234000D02*
X124620000Y-94234000D01*
%TO.N,Net-(Motor_Out2-Pin_2)*%
X118833000Y-89115000D02*
X118872000Y-89154000D01*
X118872000Y-89154000D02*
X129540000Y-89154000D01*
X129540000Y-89154000D02*
X136779000Y-96393000D01*
D23*
%TO.N,Net-(D11-K)*%
X98386000Y-95846000D02*
X98386000Y-93179000D01*
X93980000Y-112649000D02*
X98933000Y-112649000D01*
X99822000Y-111760000D02*
X99822000Y-97282000D01*
X98933000Y-112649000D02*
X99822000Y-111760000D01*
X99822000Y-97282000D02*
X98386000Y-95846000D01*
%TO.N,/Interfaz de conexi\u00F3n/12V_Cnv*%
X108800000Y-84455000D02*
X108800000Y-88480000D01*
X91440000Y-111379000D02*
X91440000Y-112649000D01*
X97068000Y-102402000D02*
X97917000Y-103251000D01*
X93345000Y-87012000D02*
X93345000Y-89281000D01*
X97917000Y-109601000D02*
X96774000Y-110744000D01*
X93345000Y-89281000D02*
X94488000Y-90424000D01*
X92075000Y-110744000D02*
X91440000Y-111379000D01*
X108253000Y-89027000D02*
X107315000Y-89027000D01*
X97917000Y-103251000D02*
X97917000Y-109601000D01*
X108800000Y-92818000D02*
X108800000Y-89369000D01*
X108800000Y-88480000D02*
X108253000Y-89027000D01*
X100037000Y-84416000D02*
X100037000Y-89242000D01*
X96774000Y-110744000D02*
X92075000Y-110744000D01*
X94061500Y-102402000D02*
X97068000Y-102402000D01*
X90788000Y-84455000D02*
X93345000Y-87012000D01*
%TD*%
M02*
