%TF.GenerationSoftware,KiCad,Pcbnew,9.0.3*%
%TF.CreationDate,2025-08-30T18:08:07-03:00*%
%TF.ProjectId,PCB_Integradora,5043425f-496e-4746-9567-7261646f7261,rev?*%
%TF.SameCoordinates,Original*%
%TF.FileFunction,Copper,L2,Bot*%
%TF.FilePolarity,Positive*%
%FSLAX46Y46*%
G04 Gerber Fmt 4.6, Leading zero omitted, Abs format (unit mm)*
G04 Created by KiCad (PCBNEW 9.0.3) date 2025-08-30 18:08:07*
%MOMM*%
%LPD*%
G01*
G04 APERTURE LIST*
G04 Aperture macros list*
%AMRoundRect*
0 Rectangle with rounded corners*
0 $1 Rounding radius*
0 $2 $3 $4 $5 $6 $7 $8 $9 X,Y pos of 4 corners*
0 Add a 4 corners polygon primitive as box body*
4,1,4,$2,$3,$4,$5,$6,$7,$8,$9,$2,$3,0*
0 Add four circle primitives for the rounded corners*
1,1,$1+$1,$2,$3*
1,1,$1+$1,$4,$5*
1,1,$1+$1,$6,$7*
1,1,$1+$1,$8,$9*
0 Add four rect primitives between the rounded corners*
20,1,$1+$1,$2,$3,$4,$5,0*
20,1,$1+$1,$4,$5,$6,$7,0*
20,1,$1+$1,$6,$7,$8,$9,0*
20,1,$1+$1,$8,$9,$2,$3,0*%
G04 Aperture macros list end*
%TA.AperFunction,Conductor*%
%ADD10C,0.200000*%
%TD*%
%TA.AperFunction,ComponentPad*%
%ADD11C,2.000000*%
%TD*%
%TA.AperFunction,ComponentPad*%
%ADD12RoundRect,0.250000X-0.600000X-0.725000X0.600000X-0.725000X0.600000X0.725000X-0.600000X0.725000X0*%
%TD*%
%TA.AperFunction,ComponentPad*%
%ADD13O,1.700000X1.950000*%
%TD*%
%TA.AperFunction,ComponentPad*%
%ADD14RoundRect,0.250000X0.620000X0.845000X-0.620000X0.845000X-0.620000X-0.845000X0.620000X-0.845000X0*%
%TD*%
%TA.AperFunction,ComponentPad*%
%ADD15O,1.740000X2.190000*%
%TD*%
%TA.AperFunction,ComponentPad*%
%ADD16R,1.700000X1.700000*%
%TD*%
%TA.AperFunction,ComponentPad*%
%ADD17C,1.700000*%
%TD*%
%TA.AperFunction,ComponentPad*%
%ADD18C,12.700000*%
%TD*%
%TA.AperFunction,ComponentPad*%
%ADD19RoundRect,0.250000X-1.550000X0.650000X-1.550000X-0.650000X1.550000X-0.650000X1.550000X0.650000X0*%
%TD*%
%TA.AperFunction,ComponentPad*%
%ADD20O,3.600000X1.800000*%
%TD*%
%TA.AperFunction,ComponentPad*%
%ADD21R,6.600000X3.300000*%
%TD*%
%TA.AperFunction,ComponentPad*%
%ADD22O,6.600000X3.300000*%
%TD*%
%TA.AperFunction,ComponentPad*%
%ADD23C,1.600000*%
%TD*%
%TA.AperFunction,ComponentPad*%
%ADD24RoundRect,0.250000X-1.050000X1.050000X-1.050000X-1.050000X1.050000X-1.050000X1.050000X1.050000X0*%
%TD*%
%TA.AperFunction,ComponentPad*%
%ADD25C,2.600000*%
%TD*%
%TA.AperFunction,ComponentPad*%
%ADD26R,1.800000X1.800000*%
%TD*%
%TA.AperFunction,ComponentPad*%
%ADD27C,1.800000*%
%TD*%
%TA.AperFunction,ViaPad*%
%ADD28C,0.600000*%
%TD*%
%TA.AperFunction,Conductor*%
%ADD29C,0.762000*%
%TD*%
%TA.AperFunction,Conductor*%
%ADD30C,3.810000*%
%TD*%
%TA.AperFunction,Conductor*%
%ADD31C,0.406400*%
%TD*%
%TA.AperFunction,Conductor*%
%ADD32C,0.355600*%
%TD*%
G04 APERTURE END LIST*
D10*
%TO.N,/Interfaz de conexi\u00F3n/12V_Cnv*%
X109728000Y-88392000D02*
X109728000Y-89662000D01*
X109347000Y-90043000D01*
X99060000Y-90043000D01*
X96139000Y-92964000D01*
X96139000Y-102997000D01*
X95504000Y-103632000D01*
X92964000Y-103632000D01*
X92583000Y-103251000D01*
X92583000Y-88519000D01*
X93091000Y-88011000D01*
X109347000Y-88011000D01*
X109728000Y-88392000D01*
%TA.AperFunction,Conductor*%
G36*
X109728000Y-88392000D02*
G01*
X109728000Y-89662000D01*
X109347000Y-90043000D01*
X99060000Y-90043000D01*
X96139000Y-92964000D01*
X96139000Y-102997000D01*
X95504000Y-103632000D01*
X92964000Y-103632000D01*
X92583000Y-103251000D01*
X92583000Y-88519000D01*
X93091000Y-88011000D01*
X109347000Y-88011000D01*
X109728000Y-88392000D01*
G37*
%TD.AperFunction*%
%TO.N,/Interfaz de conexi\u00F3n/Gnd_Cnv*%
X107061000Y-80772000D02*
X107061000Y-82296000D01*
X106680000Y-82677000D01*
X89821000Y-82677000D01*
X89321000Y-83177000D01*
X89321000Y-88358750D01*
X90639000Y-89750000D01*
X90639000Y-103974000D01*
X92329000Y-105664000D01*
X94869000Y-105664000D01*
X95504000Y-106299000D01*
X95504000Y-108331000D01*
X94869000Y-108966000D01*
X84892000Y-108966000D01*
X82344000Y-106418000D01*
X82344000Y-82534000D01*
X84487000Y-80391000D01*
X106680000Y-80391000D01*
X107061000Y-80772000D01*
%TA.AperFunction,Conductor*%
G36*
X107061000Y-80772000D02*
G01*
X107061000Y-82296000D01*
X106680000Y-82677000D01*
X89821000Y-82677000D01*
X89321000Y-83177000D01*
X89321000Y-88358750D01*
X90639000Y-89750000D01*
X90639000Y-103974000D01*
X92329000Y-105664000D01*
X94869000Y-105664000D01*
X95504000Y-106299000D01*
X95504000Y-108331000D01*
X94869000Y-108966000D01*
X84892000Y-108966000D01*
X82344000Y-106418000D01*
X82344000Y-82534000D01*
X84487000Y-80391000D01*
X106680000Y-80391000D01*
X107061000Y-80772000D01*
G37*
%TD.AperFunction*%
%TD*%
D11*
%TO.P,SW6,1,1*%
%TO.N,/Interfaz HMI/Matrix_4*%
X142300000Y-35800000D03*
X148800000Y-35800000D03*
%TO.P,SW6,2,2*%
%TO.N,/Interfaz HMI/Matrix_1*%
X142300000Y-40300000D03*
X148800000Y-40300000D03*
%TD*%
D12*
%TO.P,Micro_Pwr1,1,Pin_1*%
%TO.N,/Interfaz de conexi\u00F3n/Gnd_Cnv*%
X103635800Y-92532200D03*
D13*
%TO.P,Micro_Pwr1,2,Pin_2*%
%TO.N,/Interfaz de conexi\u00F3n/12V_Cnv*%
X106135800Y-92532200D03*
%TO.P,Micro_Pwr1,3,Pin_3*%
%TO.N,/Interfaz de conexi\u00F3n/Gnd_Cnv*%
X108635800Y-92532200D03*
%TD*%
D11*
%TO.P,SW4,1,1*%
%TO.N,/Interfaz HMI/Matrix_4*%
X124814400Y-43318400D03*
X131314400Y-43318400D03*
%TO.P,SW4,2,2*%
%TO.N,/Interfaz HMI/Matrix_2*%
X124814400Y-47818400D03*
X131314400Y-47818400D03*
%TD*%
D14*
%TO.P,Inv_Pwr1,1,Pin_1*%
%TO.N,/Interfaz de conexi\u00F3n/12V_Cnv*%
X90788000Y-84455000D03*
D15*
%TO.P,Inv_Pwr1,2,Pin_2*%
%TO.N,/Interfaz de conexi\u00F3n/Gnd_Cnv*%
X88248000Y-84455000D03*
%TD*%
D16*
%TO.P,J1,1,Pin_1*%
%TO.N,/Interfaz HMI/Matrix_0*%
X136040000Y-52578800D03*
D17*
%TO.P,J1,2,Pin_2*%
%TO.N,/Interfaz HMI/Matrix_1*%
X133500000Y-52578800D03*
%TO.P,J1,3,Pin_3*%
%TO.N,/Interfaz HMI/Matrix_2*%
X130960000Y-52578800D03*
%TO.P,J1,4,Pin_4*%
%TO.N,/Interfaz HMI/Matrix_3*%
X128420000Y-52578800D03*
%TO.P,J1,5,Pin_5*%
%TO.N,/Interfaz HMI/Matrix_4*%
X125880000Y-52578800D03*
%TO.P,J1,6,Pin_6*%
%TO.N,/Interfaz HMI/Matrix_5*%
X123340000Y-52578800D03*
%TD*%
D18*
%TO.P,Pw_In-1,1,Pin_1*%
%TO.N,unconnected-(Pw_In-1-Pin_1-Pad1)*%
X127850000Y-124802000D03*
%TO.P,Pw_In-1,2,Pin_2*%
%TO.N,unconnected-(Pw_In-1-Pin_2-Pad2)*%
X145122000Y-124802000D03*
%TD*%
D19*
%TO.P,Motor_Out1,1,Pin_1*%
%TO.N,Net-(Motor_Out1-Pin_1)*%
X118833000Y-84035000D03*
D20*
%TO.P,Motor_Out1,2,Pin_2*%
%TO.N,Net-(Motor_Out1-Pin_2)*%
X118833000Y-89115000D03*
%TO.P,Motor_Out1,3,Pin_3*%
%TO.N,Net-(Motor_Out1-Pin_3)*%
X118833000Y-94195000D03*
%TD*%
D21*
%TO.P,Motor_Pwr1,1,Pin_1*%
%TO.N,Net-(Motor_Out1-Pin_3)*%
X136779000Y-106393000D03*
D22*
%TO.P,Motor_Pwr1,2,Pin_2*%
%TO.N,Net-(Motor_Out1-Pin_2)*%
X136779000Y-96393000D03*
%TO.P,Motor_Pwr1,3,Pin_3*%
%TO.N,Net-(Motor_Out1-Pin_1)*%
X136779000Y-86393000D03*
%TD*%
D23*
%TO.P,R5,1*%
%TO.N,Net-(D3-K)*%
X98386000Y-93179000D03*
%TO.P,R5,2*%
%TO.N,/Interfaz de conexi\u00F3n/Gnd_Cnv*%
X88226000Y-93179000D03*
%TD*%
D14*
%TO.P,Cnv_Pwr1,1,Pin_1*%
%TO.N,/Interfaz de conexi\u00F3n/12V_Cnv*%
X100037000Y-84416000D03*
D15*
%TO.P,Cnv_Pwr1,2,Pin_2*%
%TO.N,/Interfaz de conexi\u00F3n/Gnd_Cnv*%
X97497000Y-84416000D03*
%TD*%
D14*
%TO.P,Cooler1,1,Pin_1*%
%TO.N,/Interfaz de conexi\u00F3n/12V_Cnv*%
X108800000Y-84455000D03*
D15*
%TO.P,Cooler1,2,Pin_2*%
%TO.N,/Interfaz de conexi\u00F3n/Gnd_Cnv*%
X106260000Y-84455000D03*
%TD*%
D24*
%TO.P,12V_Pwr1,1,Pin_1*%
%TO.N,/Interfaz de conexi\u00F3n/12V_Cnv*%
X94061500Y-102402000D03*
D25*
%TO.P,12V_Pwr1,2,Pin_2*%
%TO.N,/Interfaz de conexi\u00F3n/Gnd_Cnv*%
X94061500Y-107402000D03*
%TD*%
D11*
%TO.P,SW8,1,1*%
%TO.N,/Interfaz HMI/Matrix_4*%
X142300000Y-50851600D03*
X148800000Y-50851600D03*
%TO.P,SW8,2,2*%
%TO.N,/Interfaz HMI/Matrix_0*%
X142300000Y-55351600D03*
X148800000Y-55351600D03*
%TD*%
%TO.P,SW3,1,1*%
%TO.N,/Interfaz HMI/Matrix_5*%
X101300000Y-47818400D03*
X94800000Y-47818400D03*
%TO.P,SW3,2,2*%
%TO.N,/Interfaz HMI/Matrix_2*%
X101300000Y-43318400D03*
X94800000Y-43318400D03*
%TD*%
D18*
%TO.P,Pw_In+1,1,Pin_1*%
%TO.N,unconnected-(Pw_In+1-Pin_1-Pad1)*%
X93687000Y-124802000D03*
%TO.P,Pw_In+1,2,Pin_2*%
%TO.N,unconnected-(Pw_In+1-Pin_2-Pad2)*%
X110959000Y-124802000D03*
%TD*%
D11*
%TO.P,SW7,1,1*%
%TO.N,/Interfaz HMI/Matrix_5*%
X77300000Y-50851600D03*
X83800000Y-50851600D03*
%TO.P,SW7,2,2*%
%TO.N,/Interfaz HMI/Matrix_0*%
X77300000Y-55351600D03*
X83800000Y-55351600D03*
%TD*%
%TO.P,SW2,1,1*%
%TO.N,/Interfaz HMI/Matrix_4*%
X116277600Y-40300000D03*
X109777600Y-40300000D03*
%TO.P,SW2,2,2*%
%TO.N,/Interfaz HMI/Matrix_3*%
X116277600Y-35800000D03*
X109777600Y-35800000D03*
%TD*%
%TO.P,SW1,1,1*%
%TO.N,/Interfaz HMI/Matrix_5*%
X83800000Y-40300000D03*
X77300000Y-40300000D03*
%TO.P,SW1,2,2*%
%TO.N,/Interfaz HMI/Matrix_3*%
X83800000Y-35800000D03*
X77300000Y-35800000D03*
%TD*%
D26*
%TO.P,D3,1,K*%
%TO.N,Net-(D3-K)*%
X93980000Y-112649000D03*
D27*
%TO.P,D3,2,A*%
%TO.N,/Interfaz de conexi\u00F3n/12V_Cnv*%
X91440000Y-112649000D03*
%TD*%
D11*
%TO.P,SW5,1,1*%
%TO.N,/Interfaz HMI/Matrix_5*%
X109676000Y-50836800D03*
X116176000Y-50836800D03*
%TO.P,SW5,2,2*%
%TO.N,/Interfaz HMI/Matrix_1*%
X109676000Y-55336800D03*
X116176000Y-55336800D03*
%TD*%
D28*
%TO.N,GND*%
X89471600Y-76532400D03*
X104813200Y-71960400D03*
X92316400Y-67286800D03*
X80378400Y-75750000D03*
X109842400Y-63426000D03*
X112890400Y-62714800D03*
X80480000Y-67134400D03*
%TD*%
D29*
%TO.N,/Interfaz de conexi\u00F3n/Gnd_Cnv*%
X111467000Y-92506800D02*
X111467000Y-83146000D01*
X104532800Y-95592000D02*
X108661200Y-95592000D01*
X103632000Y-94691200D02*
X104532800Y-95592000D01*
X110070000Y-81749000D02*
X106006000Y-81749000D01*
X97497000Y-84416000D02*
X97497000Y-82081000D01*
X103632000Y-92536000D02*
X103632000Y-94691200D01*
X111467000Y-94703000D02*
X111467000Y-92506800D01*
X111467000Y-92506800D02*
X111441600Y-92532200D01*
X103635800Y-92532200D02*
X103632000Y-92536000D01*
X111441600Y-92532200D02*
X108635800Y-92532200D01*
X108661200Y-95592000D02*
X110578000Y-95592000D01*
X111467000Y-83146000D02*
X110070000Y-81749000D01*
X106260000Y-84455000D02*
X106260000Y-81749000D01*
X108635800Y-95566600D02*
X108661200Y-95592000D01*
X110578000Y-95592000D02*
X111467000Y-94703000D01*
X108635800Y-92532200D02*
X108635800Y-95566600D01*
X106260000Y-81749000D02*
X106045000Y-81534000D01*
D30*
%TO.N,Net-(Motor_Out1-Pin_1)*%
X134460000Y-84074000D02*
X136779000Y-86393000D01*
X118833000Y-84035000D02*
X118872000Y-84074000D01*
X118872000Y-84074000D02*
X134460000Y-84074000D01*
%TO.N,Net-(Motor_Out1-Pin_3)*%
X118833000Y-94195000D02*
X118872000Y-94234000D01*
X124620000Y-94234000D02*
X136779000Y-106393000D01*
X118872000Y-94234000D02*
X124620000Y-94234000D01*
%TO.N,Net-(Motor_Out1-Pin_2)*%
X118833000Y-89115000D02*
X118872000Y-89154000D01*
X118872000Y-89154000D02*
X129540000Y-89154000D01*
X129540000Y-89154000D02*
X136779000Y-96393000D01*
D29*
%TO.N,/Interfaz de conexi\u00F3n/12V_Cnv*%
X108800000Y-84455000D02*
X108800000Y-88480000D01*
X91440000Y-111379000D02*
X91440000Y-112649000D01*
X97068000Y-102402000D02*
X97917000Y-103251000D01*
X93345000Y-87012000D02*
X93345000Y-89281000D01*
X97917000Y-109601000D02*
X96774000Y-110744000D01*
X93345000Y-89281000D02*
X94488000Y-90424000D01*
X92075000Y-110744000D02*
X91440000Y-111379000D01*
X108253000Y-89027000D02*
X107315000Y-89027000D01*
X97917000Y-103251000D02*
X97917000Y-109601000D01*
X108800000Y-88480000D02*
X108253000Y-89027000D01*
X100037000Y-84416000D02*
X100037000Y-89242000D01*
X96774000Y-110744000D02*
X92075000Y-110744000D01*
X106135800Y-92532200D02*
X106135800Y-89168600D01*
X94061500Y-102402000D02*
X97068000Y-102402000D01*
X90788000Y-84455000D02*
X93345000Y-87012000D01*
D31*
%TO.N,/Interfaz HMI/Matrix_0*%
X142300000Y-55351600D02*
X142285200Y-55336800D01*
X83800000Y-55351600D02*
X83865600Y-55286000D01*
X118006000Y-57150800D02*
X119834800Y-55322000D01*
X83865600Y-55286000D02*
X91880000Y-55286000D01*
X77300000Y-55351600D02*
X83800000Y-55351600D01*
X94914400Y-52251600D02*
X101118000Y-52251600D01*
X106017200Y-57150800D02*
X118006000Y-57150800D01*
X136105600Y-55336800D02*
X136040000Y-55271200D01*
X91880000Y-55286000D02*
X94914400Y-52251600D01*
X119834800Y-55322000D02*
X135938400Y-55322000D01*
X148800000Y-55351600D02*
X142300000Y-55351600D01*
X142285200Y-55336800D02*
X136105600Y-55336800D01*
X136040000Y-55271200D02*
X136040000Y-52578800D01*
X136040000Y-55220400D02*
X136040000Y-52578800D01*
X101118000Y-52251600D02*
X106017200Y-57150800D01*
X135938400Y-55322000D02*
X136040000Y-55220400D01*
%TO.N,/Interfaz HMI/Matrix_4*%
X148789600Y-50841200D02*
X148789600Y-47652400D01*
X109777600Y-40300000D02*
X116277600Y-40300000D01*
X140779200Y-35800000D02*
X133260800Y-43318400D01*
X148800000Y-35800000D02*
X142300000Y-35800000D01*
X150452400Y-35800000D02*
X148800000Y-35800000D01*
X148800000Y-50851600D02*
X142300000Y-50851600D01*
X148789600Y-47652400D02*
X151330800Y-45111200D01*
X151330800Y-36678400D02*
X150452400Y-35800000D01*
X142300000Y-35800000D02*
X140779200Y-35800000D01*
X124814400Y-43318400D02*
X131314400Y-43318400D01*
X121344000Y-43318400D02*
X124814400Y-43318400D01*
X133260800Y-43318400D02*
X131314400Y-43318400D01*
X116277600Y-40300000D02*
X118325600Y-40300000D01*
X148800000Y-50851600D02*
X148789600Y-50841200D01*
X151330800Y-45111200D02*
X151330800Y-36678400D01*
X118325600Y-40300000D02*
X121344000Y-43318400D01*
%TO.N,/Interfaz HMI/Matrix_2*%
X130960000Y-52578800D02*
X130960000Y-48172800D01*
X112657200Y-43318400D02*
X101300000Y-43318400D01*
X94860000Y-43351600D02*
X101020000Y-43351600D01*
X131314400Y-47818400D02*
X124814400Y-47818400D01*
X94690000Y-43521600D02*
X94860000Y-43351600D01*
X124814400Y-47818400D02*
X117157200Y-47818400D01*
X130960000Y-48172800D02*
X131314400Y-47818400D01*
X101020000Y-43351600D02*
X101190000Y-43521600D01*
X117157200Y-47818400D02*
X112657200Y-43318400D01*
%TO.N,/Interfaz HMI/Matrix_5*%
X83765600Y-45543000D02*
X83765600Y-50751600D01*
X77300000Y-40300000D02*
X83800000Y-40300000D01*
X94740800Y-47818400D02*
X94800000Y-47818400D01*
X104259200Y-50836800D02*
X101300000Y-47877600D01*
X94800000Y-47818400D02*
X101300000Y-47818400D01*
X109676000Y-50836800D02*
X116176000Y-50836800D01*
X87449800Y-45543000D02*
X89710400Y-47803600D01*
X83765600Y-50751600D02*
X83800000Y-50786000D01*
X94726000Y-47803600D02*
X94740800Y-47818400D01*
X116176000Y-50836800D02*
X121140800Y-50836800D01*
X83800000Y-40300000D02*
X83765600Y-40334400D01*
X109676000Y-50836800D02*
X104259200Y-50836800D01*
X83800000Y-50786000D02*
X83800000Y-50851600D01*
X101300000Y-47877600D02*
X101300000Y-47818400D01*
X83765600Y-45543000D02*
X87449800Y-45543000D01*
X77300000Y-50851600D02*
X83800000Y-50851600D01*
X122882800Y-52578800D02*
X123340000Y-52578800D01*
X89710400Y-47803600D02*
X94726000Y-47803600D01*
X83765600Y-40334400D02*
X83765600Y-45543000D01*
X121140800Y-50836800D02*
X122882800Y-52578800D01*
%TO.N,/Interfaz HMI/Matrix_1*%
X142300000Y-40300000D02*
X148800000Y-40300000D01*
X118746800Y-54204400D02*
X133042800Y-54204400D01*
X133500000Y-52070800D02*
X142289600Y-43281200D01*
X142289600Y-40310400D02*
X142300000Y-40300000D01*
X116176000Y-55336800D02*
X117614400Y-55336800D01*
X133500000Y-52578800D02*
X133500000Y-52070800D01*
X117614400Y-55336800D02*
X118746800Y-54204400D01*
X133042800Y-54204400D02*
X133500000Y-53747200D01*
X142289600Y-43281200D02*
X142289600Y-40310400D01*
X133500000Y-53747200D02*
X133500000Y-52578800D01*
X109676000Y-55336800D02*
X116176000Y-55336800D01*
%TO.N,/Interfaz HMI/Matrix_3*%
X104863600Y-35800000D02*
X109777600Y-35800000D01*
X109777600Y-35800000D02*
X116277600Y-35800000D01*
X93890800Y-38964400D02*
X101699200Y-38964400D01*
X77300000Y-35800000D02*
X83800000Y-35800000D01*
X83800000Y-35800000D02*
X90726400Y-35800000D01*
X101699200Y-38964400D02*
X104863600Y-35800000D01*
X90726400Y-35800000D02*
X93890800Y-38964400D01*
%TO.N,GND*%
X96593600Y-70588800D02*
X95222000Y-69217200D01*
D32*
X92316400Y-67286800D02*
X93291600Y-67286800D01*
D31*
X112179200Y-63426000D02*
X109842400Y-63426000D01*
X95222000Y-69217200D02*
X88689200Y-75750000D01*
X80378400Y-75750000D02*
X88689200Y-75750000D01*
X109842400Y-63426000D02*
X109842400Y-64188000D01*
D32*
X93291600Y-67286800D02*
X95222000Y-69217200D01*
D31*
X80378400Y-67236000D02*
X80378400Y-75750000D01*
X112890400Y-62714800D02*
X112179200Y-63426000D01*
X104813200Y-71960400D02*
X103441600Y-70588800D01*
X103441600Y-70588800D02*
X96593600Y-70588800D01*
X80480000Y-67134400D02*
X80378400Y-67236000D01*
X109842400Y-64188000D02*
X103441600Y-70588800D01*
X88689200Y-75750000D02*
X89471600Y-76532400D01*
D29*
%TO.N,Net-(D3-K)*%
X98386000Y-95846000D02*
X98386000Y-93179000D01*
X93980000Y-112649000D02*
X98933000Y-112649000D01*
X99822000Y-111760000D02*
X99822000Y-97282000D01*
X98933000Y-112649000D02*
X99822000Y-111760000D01*
X99822000Y-97282000D02*
X98386000Y-95846000D01*
%TD*%
%TA.AperFunction,Conductor*%
%TO.N,GND*%
G36*
X96085765Y-33259854D02*
G01*
X96166547Y-33313830D01*
X96220523Y-33394612D01*
X96239477Y-33489900D01*
X96220523Y-33585188D01*
X96166547Y-33665970D01*
X96083225Y-33749291D01*
X96083218Y-33749299D01*
X95894107Y-33986436D01*
X95732741Y-34243248D01*
X95732728Y-34243272D01*
X95601129Y-34516540D01*
X95500955Y-34802825D01*
X95433461Y-35098531D01*
X95433459Y-35098542D01*
X95399500Y-35399928D01*
X95399500Y-35703271D01*
X95433459Y-36004657D01*
X95433460Y-36004663D01*
X95500954Y-36300372D01*
X95500955Y-36300374D01*
X95601129Y-36586659D01*
X95601132Y-36586665D01*
X95732735Y-36859941D01*
X95732739Y-36859947D01*
X95732741Y-36859951D01*
X95894107Y-37116763D01*
X96085252Y-37356451D01*
X96129844Y-37442768D01*
X96138010Y-37539579D01*
X96108507Y-37632146D01*
X96045825Y-37706376D01*
X95959508Y-37750968D01*
X95890576Y-37760700D01*
X94492528Y-37760700D01*
X94397240Y-37741746D01*
X94316458Y-37687770D01*
X93025221Y-36396533D01*
X91510558Y-34881869D01*
X91401768Y-34802828D01*
X91357278Y-34770504D01*
X91354291Y-34768982D01*
X91188460Y-34684488D01*
X91008267Y-34625939D01*
X91008261Y-34625937D01*
X90821143Y-34596301D01*
X90821136Y-34596300D01*
X90821133Y-34596300D01*
X90821129Y-34596300D01*
X85520736Y-34596300D01*
X85425448Y-34577346D01*
X85344666Y-34523370D01*
X85323193Y-34498885D01*
X85307282Y-34478149D01*
X85121851Y-34292718D01*
X85121846Y-34292714D01*
X85121845Y-34292713D01*
X84913812Y-34133082D01*
X84913798Y-34133073D01*
X84730705Y-34027365D01*
X84686697Y-34001957D01*
X84686695Y-34001956D01*
X84686693Y-34001955D01*
X84686689Y-34001953D01*
X84444417Y-33901601D01*
X84334730Y-33872211D01*
X84191116Y-33833730D01*
X84191111Y-33833729D01*
X84191114Y-33833729D01*
X83931120Y-33799500D01*
X83668880Y-33799500D01*
X83408887Y-33833729D01*
X83155582Y-33901601D01*
X82913310Y-34001953D01*
X82913306Y-34001955D01*
X82686201Y-34133073D01*
X82686187Y-34133082D01*
X82478154Y-34292713D01*
X82292718Y-34478149D01*
X82276807Y-34498885D01*
X82203760Y-34562942D01*
X82111761Y-34594170D01*
X82079264Y-34596300D01*
X79020736Y-34596300D01*
X78925448Y-34577346D01*
X78844666Y-34523370D01*
X78823193Y-34498885D01*
X78807282Y-34478149D01*
X78621851Y-34292718D01*
X78621846Y-34292714D01*
X78621845Y-34292713D01*
X78413812Y-34133082D01*
X78413798Y-34133073D01*
X78230705Y-34027365D01*
X78186697Y-34001957D01*
X78186695Y-34001956D01*
X78186693Y-34001955D01*
X78186689Y-34001953D01*
X77944417Y-33901601D01*
X77834730Y-33872211D01*
X77691116Y-33833730D01*
X77691111Y-33833729D01*
X77691114Y-33833729D01*
X77431120Y-33799500D01*
X77168880Y-33799500D01*
X76908887Y-33833729D01*
X76655582Y-33901601D01*
X76413310Y-34001953D01*
X76413306Y-34001955D01*
X76186201Y-34133073D01*
X76186187Y-34133082D01*
X75978154Y-34292713D01*
X75792713Y-34478154D01*
X75633082Y-34686187D01*
X75633073Y-34686201D01*
X75501955Y-34913306D01*
X75501953Y-34913310D01*
X75401601Y-35155582D01*
X75333729Y-35408887D01*
X75299500Y-35668880D01*
X75299500Y-35931119D01*
X75333729Y-36191112D01*
X75401601Y-36444417D01*
X75501953Y-36686689D01*
X75501955Y-36686693D01*
X75501957Y-36686697D01*
X75597935Y-36852937D01*
X75633073Y-36913798D01*
X75633082Y-36913812D01*
X75792713Y-37121845D01*
X75792718Y-37121851D01*
X75978149Y-37307282D01*
X75978153Y-37307285D01*
X75978154Y-37307286D01*
X76186187Y-37466917D01*
X76186192Y-37466920D01*
X76186197Y-37466924D01*
X76413303Y-37598043D01*
X76655581Y-37698398D01*
X76908884Y-37766270D01*
X77168880Y-37800500D01*
X77431120Y-37800500D01*
X77691116Y-37766270D01*
X77944419Y-37698398D01*
X78186697Y-37598043D01*
X78413803Y-37466924D01*
X78621851Y-37307282D01*
X78807282Y-37121851D01*
X78823194Y-37101113D01*
X78896240Y-37037058D01*
X78988239Y-37005830D01*
X79020736Y-37003700D01*
X82079264Y-37003700D01*
X82174552Y-37022654D01*
X82255334Y-37076630D01*
X82276803Y-37101111D01*
X82292718Y-37121851D01*
X82478149Y-37307282D01*
X82478153Y-37307285D01*
X82478154Y-37307286D01*
X82686187Y-37466917D01*
X82686192Y-37466920D01*
X82686197Y-37466924D01*
X82913303Y-37598043D01*
X83155581Y-37698398D01*
X83408884Y-37766270D01*
X83668880Y-37800500D01*
X83931120Y-37800500D01*
X84191116Y-37766270D01*
X84444419Y-37698398D01*
X84686697Y-37598043D01*
X84913803Y-37466924D01*
X85121851Y-37307282D01*
X85307282Y-37121851D01*
X85323194Y-37101113D01*
X85396240Y-37037058D01*
X85488239Y-37005830D01*
X85520736Y-37003700D01*
X90124671Y-37003700D01*
X90219959Y-37022654D01*
X90300741Y-37076630D01*
X91644343Y-38420231D01*
X92972666Y-39748554D01*
X92972669Y-39748558D01*
X93106642Y-39882531D01*
X93181508Y-39936924D01*
X93191820Y-39944416D01*
X93191821Y-39944417D01*
X93259921Y-39993895D01*
X93259923Y-39993896D01*
X93428739Y-40079912D01*
X93472929Y-40094270D01*
X93608933Y-40138461D01*
X93608935Y-40138461D01*
X93608937Y-40138462D01*
X93718786Y-40155859D01*
X93796067Y-40168100D01*
X93796071Y-40168100D01*
X101793929Y-40168100D01*
X101793933Y-40168100D01*
X101981067Y-40138461D01*
X102161260Y-40079912D01*
X102330076Y-39993897D01*
X102483358Y-39882531D01*
X105289258Y-37076629D01*
X105370040Y-37022654D01*
X105465328Y-37003700D01*
X108056864Y-37003700D01*
X108152152Y-37022654D01*
X108232934Y-37076630D01*
X108254403Y-37101111D01*
X108270318Y-37121851D01*
X108455749Y-37307282D01*
X108455753Y-37307285D01*
X108455754Y-37307286D01*
X108663787Y-37466917D01*
X108663792Y-37466920D01*
X108663797Y-37466924D01*
X108890903Y-37598043D01*
X109133181Y-37698398D01*
X109386484Y-37766270D01*
X109646480Y-37800500D01*
X109908720Y-37800500D01*
X110168716Y-37766270D01*
X110422019Y-37698398D01*
X110664297Y-37598043D01*
X110891403Y-37466924D01*
X111099451Y-37307282D01*
X111284882Y-37121851D01*
X111300794Y-37101113D01*
X111373840Y-37037058D01*
X111465839Y-37005830D01*
X111498336Y-37003700D01*
X114556864Y-37003700D01*
X114652152Y-37022654D01*
X114732934Y-37076630D01*
X114754403Y-37101111D01*
X114770318Y-37121851D01*
X114955749Y-37307282D01*
X114955753Y-37307285D01*
X114955754Y-37307286D01*
X115163787Y-37466917D01*
X115163792Y-37466920D01*
X115163797Y-37466924D01*
X115390903Y-37598043D01*
X115633181Y-37698398D01*
X115886484Y-37766270D01*
X116146480Y-37800500D01*
X116408720Y-37800500D01*
X116668716Y-37766270D01*
X116922019Y-37698398D01*
X117164297Y-37598043D01*
X117391403Y-37466924D01*
X117599451Y-37307282D01*
X117784882Y-37121851D01*
X117944524Y-36913803D01*
X118075643Y-36686697D01*
X118175998Y-36444419D01*
X118243870Y-36191116D01*
X118278100Y-35931120D01*
X118278100Y-35668880D01*
X118243870Y-35408884D01*
X118175998Y-35155581D01*
X118075643Y-34913303D01*
X117944524Y-34686197D01*
X117944520Y-34686192D01*
X117944517Y-34686187D01*
X117784886Y-34478154D01*
X117784884Y-34478152D01*
X117784882Y-34478149D01*
X117599451Y-34292718D01*
X117599446Y-34292714D01*
X117599445Y-34292713D01*
X117391412Y-34133082D01*
X117391398Y-34133073D01*
X117208305Y-34027365D01*
X117164297Y-34001957D01*
X117164295Y-34001956D01*
X117164293Y-34001955D01*
X117164289Y-34001953D01*
X116922017Y-33901601D01*
X116812330Y-33872211D01*
X116668716Y-33833730D01*
X116668711Y-33833729D01*
X116668714Y-33833729D01*
X116408720Y-33799500D01*
X116146480Y-33799500D01*
X115886487Y-33833729D01*
X115633182Y-33901601D01*
X115390910Y-34001953D01*
X115390906Y-34001955D01*
X115163801Y-34133073D01*
X115163787Y-34133082D01*
X114955754Y-34292713D01*
X114770318Y-34478149D01*
X114754407Y-34498885D01*
X114681360Y-34562942D01*
X114589361Y-34594170D01*
X114556864Y-34596300D01*
X111498336Y-34596300D01*
X111403048Y-34577346D01*
X111322266Y-34523370D01*
X111300793Y-34498885D01*
X111284882Y-34478149D01*
X111099451Y-34292718D01*
X111099446Y-34292714D01*
X111099445Y-34292713D01*
X110891412Y-34133082D01*
X110891398Y-34133073D01*
X110708305Y-34027365D01*
X110664297Y-34001957D01*
X110664295Y-34001956D01*
X110664293Y-34001955D01*
X110664289Y-34001953D01*
X110422017Y-33901601D01*
X110312330Y-33872211D01*
X110168716Y-33833730D01*
X110168711Y-33833729D01*
X110168714Y-33833729D01*
X109908720Y-33799500D01*
X109646480Y-33799500D01*
X109386487Y-33833729D01*
X109133182Y-33901601D01*
X108890910Y-34001953D01*
X108890906Y-34001955D01*
X108663801Y-34133073D01*
X108663787Y-34133082D01*
X108455754Y-34292713D01*
X108270318Y-34478149D01*
X108254407Y-34498885D01*
X108181360Y-34562942D01*
X108089361Y-34594170D01*
X108056864Y-34596300D01*
X104768867Y-34596300D01*
X104768864Y-34596300D01*
X104768856Y-34596301D01*
X104581745Y-34625936D01*
X104581733Y-34625939D01*
X104445725Y-34670130D01*
X104445724Y-34670129D01*
X104401536Y-34684488D01*
X104401534Y-34684489D01*
X104232731Y-34770498D01*
X104232721Y-34770505D01*
X104192220Y-34799929D01*
X104192221Y-34799930D01*
X104079441Y-34881869D01*
X101273541Y-37687770D01*
X101192759Y-37741746D01*
X101097471Y-37760700D01*
X100309424Y-37760700D01*
X100214136Y-37741746D01*
X100133354Y-37687770D01*
X100079378Y-37606988D01*
X100060424Y-37511700D01*
X100079378Y-37416412D01*
X100114748Y-37356451D01*
X100158145Y-37302033D01*
X100305892Y-37116764D01*
X100467265Y-36859941D01*
X100598868Y-36586665D01*
X100699046Y-36300372D01*
X100766540Y-36004663D01*
X100784855Y-35842107D01*
X100800499Y-35703271D01*
X100800500Y-35703256D01*
X100800500Y-35399943D01*
X100800499Y-35399928D01*
X100772967Y-35155581D01*
X100766540Y-35098537D01*
X100699046Y-34802828D01*
X100619763Y-34576250D01*
X100598870Y-34516540D01*
X100580384Y-34478154D01*
X100467265Y-34243259D01*
X100305892Y-33986436D01*
X100116779Y-33749296D01*
X100033453Y-33665970D01*
X99979477Y-33585188D01*
X99960523Y-33489900D01*
X99979477Y-33394612D01*
X100033453Y-33313830D01*
X100114235Y-33259854D01*
X100209523Y-33240900D01*
X125990477Y-33240900D01*
X126085765Y-33259854D01*
X126166547Y-33313830D01*
X126220523Y-33394612D01*
X126239477Y-33489900D01*
X126220523Y-33585188D01*
X126166547Y-33665970D01*
X126083225Y-33749291D01*
X126083218Y-33749299D01*
X125894107Y-33986436D01*
X125732741Y-34243248D01*
X125732728Y-34243272D01*
X125601129Y-34516540D01*
X125500955Y-34802825D01*
X125433461Y-35098531D01*
X125433459Y-35098542D01*
X125399500Y-35399928D01*
X125399500Y-35703271D01*
X125433459Y-36004657D01*
X125433460Y-36004663D01*
X125500954Y-36300372D01*
X125500955Y-36300374D01*
X125601129Y-36586659D01*
X125601132Y-36586665D01*
X125732735Y-36859941D01*
X125732739Y-36859947D01*
X125732741Y-36859951D01*
X125868390Y-37075835D01*
X125894108Y-37116764D01*
X126083221Y-37353904D01*
X126297696Y-37568379D01*
X126534836Y-37757492D01*
X126791659Y-37918865D01*
X127064935Y-38050468D01*
X127064938Y-38050469D01*
X127064940Y-38050470D01*
X127124650Y-38071363D01*
X127351228Y-38150646D01*
X127646937Y-38218140D01*
X127782400Y-38233402D01*
X127948328Y-38252099D01*
X127948343Y-38252100D01*
X128251657Y-38252100D01*
X128251671Y-38252099D01*
X128390507Y-38236455D01*
X128553063Y-38218140D01*
X128848772Y-38150646D01*
X129135065Y-38050468D01*
X129408341Y-37918865D01*
X129665164Y-37757492D01*
X129902304Y-37568379D01*
X130116779Y-37353904D01*
X130305892Y-37116764D01*
X130467265Y-36859941D01*
X130598868Y-36586665D01*
X130699046Y-36300372D01*
X130766540Y-36004663D01*
X130784855Y-35842107D01*
X130800499Y-35703271D01*
X130800500Y-35703256D01*
X130800500Y-35399943D01*
X130800499Y-35399928D01*
X130772967Y-35155581D01*
X130766540Y-35098537D01*
X130699046Y-34802828D01*
X130619763Y-34576250D01*
X130598870Y-34516540D01*
X130580384Y-34478154D01*
X130467265Y-34243259D01*
X130305892Y-33986436D01*
X130116779Y-33749296D01*
X130033453Y-33665970D01*
X129979477Y-33585188D01*
X129960523Y-33489900D01*
X129979477Y-33394612D01*
X130033453Y-33313830D01*
X130114235Y-33259854D01*
X130209523Y-33240900D01*
X155850200Y-33240900D01*
X155945488Y-33259854D01*
X156026270Y-33313830D01*
X156080246Y-33394612D01*
X156099200Y-33489900D01*
X156099200Y-58324200D01*
X156080246Y-58419488D01*
X156026270Y-58500270D01*
X155945488Y-58554246D01*
X155850200Y-58573200D01*
X118862435Y-58573200D01*
X118767147Y-58554246D01*
X118686365Y-58500270D01*
X118632389Y-58419488D01*
X118613435Y-58324200D01*
X118632389Y-58228912D01*
X118686365Y-58148130D01*
X118716076Y-58122755D01*
X118730765Y-58112082D01*
X118790158Y-58068931D01*
X120260459Y-56598630D01*
X120341241Y-56544654D01*
X120436529Y-56525700D01*
X135843667Y-56525700D01*
X135897824Y-56525700D01*
X135936770Y-56528765D01*
X135936775Y-56528765D01*
X135985279Y-56536447D01*
X136010866Y-56540500D01*
X136010867Y-56540500D01*
X140567908Y-56540500D01*
X140663196Y-56559454D01*
X140743978Y-56613430D01*
X140765452Y-56637918D01*
X140791725Y-56672158D01*
X140792718Y-56673451D01*
X140978149Y-56858882D01*
X140978153Y-56858885D01*
X140978154Y-56858886D01*
X141186187Y-57018517D01*
X141186192Y-57018520D01*
X141186197Y-57018524D01*
X141413303Y-57149643D01*
X141655581Y-57249998D01*
X141908884Y-57317870D01*
X142168880Y-57352100D01*
X142431120Y-57352100D01*
X142691116Y-57317870D01*
X142944419Y-57249998D01*
X143186697Y-57149643D01*
X143413803Y-57018524D01*
X143621851Y-56858882D01*
X143807282Y-56673451D01*
X143823194Y-56652713D01*
X143896240Y-56588658D01*
X143988239Y-56557430D01*
X144020736Y-56555300D01*
X147079264Y-56555300D01*
X147174552Y-56574254D01*
X147255334Y-56628230D01*
X147276803Y-56652711D01*
X147292718Y-56673451D01*
X147478149Y-56858882D01*
X147478153Y-56858885D01*
X147478154Y-56858886D01*
X147686187Y-57018517D01*
X147686192Y-57018520D01*
X147686197Y-57018524D01*
X147913303Y-57149643D01*
X148155581Y-57249998D01*
X148408884Y-57317870D01*
X148668880Y-57352100D01*
X148931120Y-57352100D01*
X149191116Y-57317870D01*
X149444419Y-57249998D01*
X149686697Y-57149643D01*
X149913803Y-57018524D01*
X150121851Y-56858882D01*
X150307282Y-56673451D01*
X150466924Y-56465403D01*
X150598043Y-56238297D01*
X150698398Y-55996019D01*
X150766270Y-55742716D01*
X150800500Y-55482720D01*
X150800500Y-55220480D01*
X150766270Y-54960484D01*
X150698398Y-54707181D01*
X150598043Y-54464903D01*
X150466924Y-54237797D01*
X150466920Y-54237792D01*
X150466917Y-54237787D01*
X150307286Y-54029754D01*
X150307285Y-54029753D01*
X150307282Y-54029749D01*
X150121851Y-53844318D01*
X150121846Y-53844314D01*
X150121845Y-53844313D01*
X149913812Y-53684682D01*
X149913798Y-53684673D01*
X149777907Y-53606217D01*
X149686697Y-53553557D01*
X149686695Y-53553556D01*
X149686693Y-53553555D01*
X149686689Y-53553553D01*
X149444417Y-53453201D01*
X149321410Y-53420242D01*
X149191116Y-53385330D01*
X149191111Y-53385329D01*
X149191114Y-53385329D01*
X148931120Y-53351100D01*
X148668880Y-53351100D01*
X148408887Y-53385329D01*
X148155582Y-53453201D01*
X147913310Y-53553553D01*
X147913306Y-53553555D01*
X147686201Y-53684673D01*
X147686187Y-53684682D01*
X147478154Y-53844313D01*
X147292718Y-54029749D01*
X147276807Y-54050485D01*
X147203760Y-54114542D01*
X147111761Y-54145770D01*
X147079264Y-54147900D01*
X144020736Y-54147900D01*
X143925448Y-54128946D01*
X143844666Y-54074970D01*
X143823193Y-54050485D01*
X143807282Y-54029749D01*
X143621851Y-53844318D01*
X143621846Y-53844314D01*
X143621845Y-53844313D01*
X143413812Y-53684682D01*
X143413798Y-53684673D01*
X143277907Y-53606217D01*
X143186697Y-53553557D01*
X143186695Y-53553556D01*
X143186693Y-53553555D01*
X143186689Y-53553553D01*
X142944417Y-53453201D01*
X142821410Y-53420242D01*
X142691116Y-53385330D01*
X142691111Y-53385329D01*
X142691114Y-53385329D01*
X142431120Y-53351100D01*
X142168880Y-53351100D01*
X141908887Y-53385329D01*
X141655582Y-53453201D01*
X141413310Y-53553553D01*
X141413306Y-53553555D01*
X141186201Y-53684673D01*
X141186187Y-53684682D01*
X140978154Y-53844313D01*
X140792716Y-54029751D01*
X140788165Y-54035683D01*
X140715119Y-54099741D01*
X140623120Y-54130970D01*
X140590621Y-54133100D01*
X138059184Y-54133100D01*
X137963896Y-54114146D01*
X137883114Y-54060170D01*
X137829138Y-53979388D01*
X137810184Y-53884100D01*
X137823502Y-53814866D01*
X137820435Y-53813989D01*
X137838946Y-53749296D01*
X137879886Y-53606218D01*
X137890500Y-53486837D01*
X137890499Y-51670764D01*
X137879886Y-51551382D01*
X137823909Y-51355751D01*
X137729698Y-51175393D01*
X137601109Y-51017691D01*
X137443407Y-50889102D01*
X137443402Y-50889099D01*
X137263053Y-50794893D01*
X137263052Y-50794892D01*
X137263049Y-50794891D01*
X137067418Y-50738914D01*
X137059478Y-50736642D01*
X136973081Y-50692205D01*
X136910265Y-50618089D01*
X136880594Y-50525575D01*
X136888585Y-50428749D01*
X136933022Y-50342352D01*
X136951899Y-50321188D01*
X143207731Y-44065358D01*
X143319097Y-43912076D01*
X143405112Y-43743260D01*
X143463661Y-43563067D01*
X143493300Y-43375933D01*
X143493300Y-43186466D01*
X143493300Y-42028716D01*
X143493407Y-42028173D01*
X143493302Y-42027629D01*
X143502891Y-41980496D01*
X143512254Y-41933428D01*
X143512561Y-41932967D01*
X143512672Y-41932425D01*
X143514565Y-41929968D01*
X143566230Y-41852646D01*
X143567001Y-41851880D01*
X143578207Y-41840771D01*
X143621851Y-41807282D01*
X143807282Y-41621851D01*
X143833455Y-41587741D01*
X143845437Y-41575864D01*
X143872151Y-41558181D01*
X143896240Y-41537058D01*
X143912303Y-41531605D01*
X143926453Y-41522240D01*
X143957906Y-41516126D01*
X143988239Y-41505830D01*
X144020736Y-41503700D01*
X147079264Y-41503700D01*
X147174552Y-41522654D01*
X147255334Y-41576630D01*
X147276803Y-41601111D01*
X147292718Y-41621851D01*
X147478149Y-41807282D01*
X147478153Y-41807285D01*
X147478154Y-41807286D01*
X147686187Y-41966917D01*
X147686192Y-41966920D01*
X147686197Y-41966924D01*
X147913303Y-42098043D01*
X147913308Y-42098045D01*
X147913310Y-42098046D01*
X147948374Y-42112570D01*
X148155581Y-42198398D01*
X148408884Y-42266270D01*
X148668880Y-42300500D01*
X148931120Y-42300500D01*
X149191116Y-42266270D01*
X149444419Y-42198398D01*
X149686697Y-42098043D01*
X149753604Y-42059414D01*
X149845598Y-42028186D01*
X149942545Y-42034540D01*
X150029681Y-42077510D01*
X150093740Y-42150555D01*
X150124970Y-42242554D01*
X150127100Y-42275056D01*
X150127100Y-44509471D01*
X150108146Y-44604759D01*
X150054170Y-44685541D01*
X147871463Y-46868248D01*
X147760105Y-47021520D01*
X147760103Y-47021523D01*
X147698055Y-47143303D01*
X147698054Y-47143304D01*
X147674088Y-47190339D01*
X147674087Y-47190341D01*
X147615537Y-47370538D01*
X147585901Y-47557656D01*
X147585900Y-47557671D01*
X147585900Y-49138844D01*
X147576531Y-49185940D01*
X147567389Y-49233056D01*
X147567079Y-49233461D01*
X147566946Y-49234132D01*
X147513791Y-49314089D01*
X147501894Y-49326097D01*
X147478149Y-49344318D01*
X147292718Y-49529749D01*
X147267228Y-49562967D01*
X147256155Y-49574145D01*
X147228678Y-49592690D01*
X147203760Y-49614542D01*
X147188758Y-49619633D01*
X147175626Y-49628498D01*
X147143146Y-49635116D01*
X147111761Y-49645770D01*
X147080958Y-49647788D01*
X147080428Y-49647897D01*
X147080145Y-49647842D01*
X147079264Y-49647900D01*
X144020736Y-49647900D01*
X143925448Y-49628946D01*
X143844666Y-49574970D01*
X143823193Y-49550485D01*
X143807282Y-49529749D01*
X143621851Y-49344318D01*
X143621846Y-49344314D01*
X143621845Y-49344313D01*
X143413812Y-49184682D01*
X143413798Y-49184673D01*
X143331163Y-49136964D01*
X143186697Y-49053557D01*
X143186695Y-49053556D01*
X143186693Y-49053555D01*
X143186689Y-49053553D01*
X142944417Y-48953201D01*
X142834730Y-48923811D01*
X142691116Y-48885330D01*
X142691111Y-48885329D01*
X142691114Y-48885329D01*
X142431120Y-48851100D01*
X142168880Y-48851100D01*
X141908887Y-48885329D01*
X141655582Y-48953201D01*
X141413310Y-49053553D01*
X141413306Y-49053555D01*
X141186201Y-49184673D01*
X141186187Y-49184682D01*
X140978154Y-49344313D01*
X140792713Y-49529754D01*
X140633082Y-49737787D01*
X140633073Y-49737801D01*
X140501955Y-49964906D01*
X140501953Y-49964910D01*
X140401601Y-50207182D01*
X140333729Y-50460487D01*
X140325160Y-50525575D01*
X140299500Y-50720480D01*
X140299500Y-50982720D01*
X140303395Y-51012304D01*
X140333729Y-51242712D01*
X140401601Y-51496017D01*
X140501953Y-51738289D01*
X140501955Y-51738293D01*
X140501957Y-51738297D01*
X140575859Y-51866299D01*
X140633073Y-51965398D01*
X140633082Y-51965412D01*
X140781361Y-52158651D01*
X140792718Y-52173451D01*
X140978149Y-52358882D01*
X140978153Y-52358885D01*
X140978154Y-52358886D01*
X141186187Y-52518517D01*
X141186192Y-52518520D01*
X141186197Y-52518524D01*
X141413303Y-52649643D01*
X141655581Y-52749998D01*
X141908884Y-52817870D01*
X142168880Y-52852100D01*
X142431120Y-52852100D01*
X142691116Y-52817870D01*
X142944419Y-52749998D01*
X143186697Y-52649643D01*
X143413803Y-52518524D01*
X143621851Y-52358882D01*
X143807282Y-52173451D01*
X143823194Y-52152713D01*
X143896240Y-52088658D01*
X143988239Y-52057430D01*
X144020736Y-52055300D01*
X147079264Y-52055300D01*
X147174552Y-52074254D01*
X147255334Y-52128230D01*
X147276803Y-52152711D01*
X147292718Y-52173451D01*
X147478149Y-52358882D01*
X147478153Y-52358885D01*
X147478154Y-52358886D01*
X147686187Y-52518517D01*
X147686192Y-52518520D01*
X147686197Y-52518524D01*
X147913303Y-52649643D01*
X148155581Y-52749998D01*
X148408884Y-52817870D01*
X148668880Y-52852100D01*
X148931120Y-52852100D01*
X149191116Y-52817870D01*
X149444419Y-52749998D01*
X149686697Y-52649643D01*
X149913803Y-52518524D01*
X150121851Y-52358882D01*
X150307282Y-52173451D01*
X150466924Y-51965403D01*
X150598043Y-51738297D01*
X150698398Y-51496019D01*
X150766270Y-51242716D01*
X150800500Y-50982720D01*
X150800500Y-50720480D01*
X150766270Y-50460484D01*
X150698398Y-50207181D01*
X150598043Y-49964903D01*
X150466924Y-49737797D01*
X150466920Y-49737792D01*
X150466917Y-49737787D01*
X150307286Y-49529754D01*
X150307285Y-49529753D01*
X150307282Y-49529749D01*
X150121851Y-49344318D01*
X150090716Y-49320427D01*
X150026659Y-49247382D01*
X149995430Y-49155383D01*
X149993300Y-49122884D01*
X149993300Y-48254128D01*
X150012254Y-48158840D01*
X150066227Y-48078061D01*
X152248931Y-45895358D01*
X152360297Y-45742076D01*
X152446312Y-45573260D01*
X152504861Y-45393067D01*
X152534500Y-45205933D01*
X152534500Y-45016466D01*
X152534500Y-36583667D01*
X152504861Y-36396533D01*
X152446312Y-36216340D01*
X152385957Y-36097886D01*
X152377796Y-36081868D01*
X152377796Y-36081869D01*
X152377795Y-36081867D01*
X152360296Y-36047523D01*
X152329160Y-36004668D01*
X152248936Y-35894248D01*
X152248933Y-35894245D01*
X152248931Y-35894242D01*
X151236558Y-34881869D01*
X151127768Y-34802828D01*
X151083278Y-34770504D01*
X151080291Y-34768982D01*
X150914460Y-34684488D01*
X150734267Y-34625939D01*
X150734261Y-34625937D01*
X150547143Y-34596301D01*
X150547136Y-34596300D01*
X150547133Y-34596300D01*
X150547129Y-34596300D01*
X150520736Y-34596300D01*
X150425448Y-34577346D01*
X150344666Y-34523370D01*
X150323193Y-34498885D01*
X150307282Y-34478149D01*
X150121851Y-34292718D01*
X150121846Y-34292714D01*
X150121845Y-34292713D01*
X149913812Y-34133082D01*
X149913798Y-34133073D01*
X149730705Y-34027365D01*
X149686697Y-34001957D01*
X149686695Y-34001956D01*
X149686693Y-34001955D01*
X149686689Y-34001953D01*
X149444417Y-33901601D01*
X149334730Y-33872211D01*
X149191116Y-33833730D01*
X149191111Y-33833729D01*
X149191114Y-33833729D01*
X148931120Y-33799500D01*
X148668880Y-33799500D01*
X148408887Y-33833729D01*
X148155582Y-33901601D01*
X147913310Y-34001953D01*
X147913306Y-34001955D01*
X147686201Y-34133073D01*
X147686187Y-34133082D01*
X147478154Y-34292713D01*
X147292718Y-34478149D01*
X147276807Y-34498885D01*
X147203760Y-34562942D01*
X147111761Y-34594170D01*
X147079264Y-34596300D01*
X144020736Y-34596300D01*
X143925448Y-34577346D01*
X143844666Y-34523370D01*
X143823193Y-34498885D01*
X143807282Y-34478149D01*
X143621851Y-34292718D01*
X143621846Y-34292714D01*
X143621845Y-34292713D01*
X143413812Y-34133082D01*
X143413798Y-34133073D01*
X143230705Y-34027365D01*
X143186697Y-34001957D01*
X143186695Y-34001956D01*
X143186693Y-34001955D01*
X143186689Y-34001953D01*
X142944417Y-33901601D01*
X142834730Y-33872211D01*
X142691116Y-33833730D01*
X142691111Y-33833729D01*
X142691114Y-33833729D01*
X142431120Y-33799500D01*
X142168880Y-33799500D01*
X141908887Y-33833729D01*
X141655582Y-33901601D01*
X141413310Y-34001953D01*
X141413306Y-34001955D01*
X141186201Y-34133073D01*
X141186187Y-34133082D01*
X140978154Y-34292713D01*
X140792715Y-34478152D01*
X140764964Y-34514318D01*
X140691919Y-34578376D01*
X140606374Y-34608668D01*
X140497343Y-34625936D01*
X140497333Y-34625939D01*
X140361325Y-34670130D01*
X140361324Y-34670129D01*
X140317136Y-34684488D01*
X140317135Y-34684489D01*
X140148323Y-34770503D01*
X140148319Y-34770506D01*
X139995045Y-34881866D01*
X133027091Y-41849819D01*
X132946309Y-41903795D01*
X132851021Y-41922749D01*
X132755733Y-41903795D01*
X132674954Y-41849821D01*
X132636251Y-41811118D01*
X132636246Y-41811114D01*
X132636245Y-41811113D01*
X132428212Y-41651482D01*
X132428198Y-41651473D01*
X132309709Y-41583064D01*
X132201097Y-41520357D01*
X132201095Y-41520356D01*
X132201093Y-41520355D01*
X132201089Y-41520353D01*
X131958817Y-41420001D01*
X131849130Y-41390611D01*
X131705516Y-41352130D01*
X131705511Y-41352129D01*
X131705514Y-41352129D01*
X131445520Y-41317900D01*
X131183280Y-41317900D01*
X130923287Y-41352129D01*
X130669982Y-41420001D01*
X130427710Y-41520353D01*
X130427706Y-41520355D01*
X130200601Y-41651473D01*
X130200587Y-41651482D01*
X129992554Y-41811113D01*
X129807118Y-41996549D01*
X129791207Y-42017285D01*
X129718160Y-42081342D01*
X129626161Y-42112570D01*
X129593664Y-42114700D01*
X126535136Y-42114700D01*
X126439848Y-42095746D01*
X126359066Y-42041770D01*
X126337593Y-42017285D01*
X126328174Y-42005010D01*
X126321682Y-41996549D01*
X126136251Y-41811118D01*
X126136246Y-41811114D01*
X126136245Y-41811113D01*
X125928212Y-41651482D01*
X125928198Y-41651473D01*
X125809709Y-41583064D01*
X125701097Y-41520357D01*
X125701095Y-41520356D01*
X125701093Y-41520355D01*
X125701089Y-41520353D01*
X125458817Y-41420001D01*
X125349130Y-41390611D01*
X125205516Y-41352130D01*
X125205511Y-41352129D01*
X125205514Y-41352129D01*
X124945520Y-41317900D01*
X124683280Y-41317900D01*
X124423287Y-41352129D01*
X124169982Y-41420001D01*
X123927710Y-41520353D01*
X123927706Y-41520355D01*
X123700601Y-41651473D01*
X123700587Y-41651482D01*
X123492554Y-41811113D01*
X123307118Y-41996549D01*
X123291207Y-42017285D01*
X123218160Y-42081342D01*
X123126161Y-42112570D01*
X123093664Y-42114700D01*
X121945729Y-42114700D01*
X121850441Y-42095746D01*
X121769659Y-42041770D01*
X120672306Y-40944417D01*
X119109758Y-39381869D01*
X119109754Y-39381866D01*
X118956478Y-39270504D01*
X118953491Y-39268982D01*
X118787660Y-39184488D01*
X118607467Y-39125939D01*
X118607461Y-39125937D01*
X118420343Y-39096301D01*
X118420336Y-39096300D01*
X118420333Y-39096300D01*
X118420329Y-39096300D01*
X117998336Y-39096300D01*
X117903048Y-39077346D01*
X117822266Y-39023370D01*
X117800793Y-38998885D01*
X117784882Y-38978149D01*
X117599451Y-38792718D01*
X117599446Y-38792714D01*
X117599445Y-38792713D01*
X117391412Y-38633082D01*
X117391398Y-38633073D01*
X117288981Y-38573943D01*
X117164297Y-38501957D01*
X117164295Y-38501956D01*
X117164293Y-38501955D01*
X117164289Y-38501953D01*
X116922017Y-38401601D01*
X116812330Y-38372211D01*
X116668716Y-38333730D01*
X116668711Y-38333729D01*
X116668714Y-38333729D01*
X116408720Y-38299500D01*
X116146480Y-38299500D01*
X115886487Y-38333729D01*
X115633182Y-38401601D01*
X115390910Y-38501953D01*
X115390906Y-38501955D01*
X115163801Y-38633073D01*
X115163787Y-38633082D01*
X114955754Y-38792713D01*
X114770318Y-38978149D01*
X114754407Y-38998885D01*
X114681360Y-39062942D01*
X114589361Y-39094170D01*
X114556864Y-39096300D01*
X111498336Y-39096300D01*
X111403048Y-39077346D01*
X111322266Y-39023370D01*
X111300793Y-38998885D01*
X111284882Y-38978149D01*
X111099451Y-38792718D01*
X111099446Y-38792714D01*
X111099445Y-38792713D01*
X110891412Y-38633082D01*
X110891398Y-38633073D01*
X110788981Y-38573943D01*
X110664297Y-38501957D01*
X110664295Y-38501956D01*
X110664293Y-38501955D01*
X110664289Y-38501953D01*
X110422017Y-38401601D01*
X110312330Y-38372211D01*
X110168716Y-38333730D01*
X110168711Y-38333729D01*
X110168714Y-38333729D01*
X109908720Y-38299500D01*
X109646480Y-38299500D01*
X109386487Y-38333729D01*
X109133182Y-38401601D01*
X108890910Y-38501953D01*
X108890906Y-38501955D01*
X108663801Y-38633073D01*
X108663787Y-38633082D01*
X108455754Y-38792713D01*
X108270313Y-38978154D01*
X108110682Y-39186187D01*
X108110673Y-39186201D01*
X107979555Y-39413306D01*
X107979553Y-39413310D01*
X107879201Y-39655582D01*
X107811329Y-39908887D01*
X107777100Y-40168880D01*
X107777100Y-40431119D01*
X107811329Y-40691112D01*
X107879201Y-40944417D01*
X107979553Y-41186689D01*
X107979555Y-41186693D01*
X108110673Y-41413798D01*
X108110682Y-41413812D01*
X108270313Y-41621845D01*
X108270318Y-41621851D01*
X108338100Y-41689633D01*
X108392074Y-41770412D01*
X108411028Y-41865700D01*
X108392074Y-41960988D01*
X108338098Y-42041770D01*
X108257316Y-42095746D01*
X108162028Y-42114700D01*
X103020736Y-42114700D01*
X102925448Y-42095746D01*
X102844666Y-42041770D01*
X102823193Y-42017285D01*
X102813774Y-42005010D01*
X102807282Y-41996549D01*
X102621851Y-41811118D01*
X102621846Y-41811114D01*
X102621845Y-41811113D01*
X102413812Y-41651482D01*
X102413798Y-41651473D01*
X102295309Y-41583064D01*
X102186697Y-41520357D01*
X102186695Y-41520356D01*
X102186693Y-41520355D01*
X102186689Y-41520353D01*
X101944417Y-41420001D01*
X101834730Y-41390611D01*
X101691116Y-41352130D01*
X101691111Y-41352129D01*
X101691114Y-41352129D01*
X101431120Y-41317900D01*
X101168880Y-41317900D01*
X100908887Y-41352129D01*
X100655582Y-41420001D01*
X100413310Y-41520353D01*
X100413306Y-41520355D01*
X100186201Y-41651473D01*
X100186187Y-41651482D01*
X99978154Y-41811113D01*
X99792716Y-41996551D01*
X99772227Y-42023252D01*
X99753257Y-42047976D01*
X99751333Y-42050483D01*
X99678288Y-42114541D01*
X99586289Y-42145770D01*
X99553789Y-42147900D01*
X96546211Y-42147900D01*
X96450923Y-42128946D01*
X96370141Y-42074970D01*
X96348667Y-42050483D01*
X96307282Y-41996549D01*
X96121851Y-41811118D01*
X96121846Y-41811114D01*
X96121845Y-41811113D01*
X95913812Y-41651482D01*
X95913798Y-41651473D01*
X95795309Y-41583064D01*
X95686697Y-41520357D01*
X95686695Y-41520356D01*
X95686693Y-41520355D01*
X95686689Y-41520353D01*
X95444417Y-41420001D01*
X95334730Y-41390611D01*
X95191116Y-41352130D01*
X95191111Y-41352129D01*
X95191114Y-41352129D01*
X94931120Y-41317900D01*
X94668880Y-41317900D01*
X94408887Y-41352129D01*
X94155582Y-41420001D01*
X93913310Y-41520353D01*
X93913306Y-41520355D01*
X93686201Y-41651473D01*
X93686187Y-41651482D01*
X93478154Y-41811113D01*
X93292713Y-41996554D01*
X93133082Y-42204587D01*
X93133073Y-42204601D01*
X93001955Y-42431706D01*
X93001953Y-42431710D01*
X92901601Y-42673982D01*
X92833729Y-42927287D01*
X92799500Y-43187280D01*
X92799500Y-43449519D01*
X92833729Y-43709512D01*
X92901601Y-43962817D01*
X93001953Y-44205089D01*
X93001955Y-44205093D01*
X93001957Y-44205097D01*
X93020107Y-44236534D01*
X93133073Y-44432198D01*
X93133082Y-44432212D01*
X93292713Y-44640245D01*
X93292718Y-44640251D01*
X93478149Y-44825682D01*
X93478153Y-44825685D01*
X93478154Y-44825686D01*
X93686187Y-44985317D01*
X93686192Y-44985320D01*
X93686197Y-44985324D01*
X93913303Y-45116443D01*
X94155581Y-45216798D01*
X94408884Y-45284670D01*
X94668880Y-45318900D01*
X94931120Y-45318900D01*
X95191116Y-45284670D01*
X95444419Y-45216798D01*
X95686697Y-45116443D01*
X95913803Y-44985324D01*
X96121851Y-44825682D01*
X96307282Y-44640251D01*
X96307292Y-44640236D01*
X96307390Y-44640127D01*
X96307454Y-44640077D01*
X96313045Y-44634487D01*
X96313780Y-44635222D01*
X96384467Y-44580981D01*
X96478311Y-44555833D01*
X96494602Y-44555300D01*
X99605398Y-44555300D01*
X99700686Y-44574254D01*
X99781468Y-44628230D01*
X99792610Y-44640127D01*
X99792713Y-44640245D01*
X99792718Y-44640251D01*
X99978149Y-44825682D01*
X99978153Y-44825685D01*
X99978154Y-44825686D01*
X100186187Y-44985317D01*
X100186192Y-44985320D01*
X100186197Y-44985324D01*
X100413303Y-45116443D01*
X100655581Y-45216798D01*
X100908884Y-45284670D01*
X101168880Y-45318900D01*
X101431120Y-45318900D01*
X101691116Y-45284670D01*
X101944419Y-45216798D01*
X102186697Y-45116443D01*
X102413803Y-44985324D01*
X102621851Y-44825682D01*
X102807282Y-44640251D01*
X102823194Y-44619513D01*
X102896240Y-44555458D01*
X102988239Y-44524230D01*
X103020736Y-44522100D01*
X112055471Y-44522100D01*
X112150759Y-44541054D01*
X112231541Y-44595030D01*
X116065995Y-48429484D01*
X116119969Y-48510263D01*
X116138923Y-48605551D01*
X116119969Y-48700839D01*
X116065993Y-48781621D01*
X115985211Y-48835597D01*
X115922427Y-48852420D01*
X115784897Y-48870527D01*
X115784889Y-48870529D01*
X115784886Y-48870529D01*
X115784884Y-48870530D01*
X115704595Y-48892043D01*
X115531582Y-48938401D01*
X115289310Y-49038753D01*
X115289306Y-49038755D01*
X115062201Y-49169873D01*
X115062187Y-49169882D01*
X114854154Y-49329513D01*
X114854149Y-49329518D01*
X114668718Y-49514949D01*
X114657362Y-49529749D01*
X114652807Y-49535685D01*
X114579760Y-49599742D01*
X114487761Y-49630970D01*
X114455264Y-49633100D01*
X111396736Y-49633100D01*
X111301448Y-49614146D01*
X111220666Y-49560170D01*
X111199193Y-49535685D01*
X111194642Y-49529754D01*
X111183282Y-49514949D01*
X110997851Y-49329518D01*
X110997846Y-49329514D01*
X110997845Y-49329513D01*
X110789812Y-49169882D01*
X110789798Y-49169873D01*
X110649416Y-49088824D01*
X110562697Y-49038757D01*
X110562695Y-49038756D01*
X110562693Y-49038755D01*
X110562689Y-49038753D01*
X110320417Y-48938401D01*
X110210730Y-48909011D01*
X110067116Y-48870530D01*
X110067111Y-48870529D01*
X110067114Y-48870529D01*
X109807120Y-48836300D01*
X109544880Y-48836300D01*
X109284887Y-48870529D01*
X109031582Y-48938401D01*
X108789310Y-49038753D01*
X108789306Y-49038755D01*
X108562201Y-49169873D01*
X108562187Y-49169882D01*
X108354154Y-49329513D01*
X108354149Y-49329518D01*
X108168718Y-49514949D01*
X108157362Y-49529749D01*
X108152807Y-49535685D01*
X108079760Y-49599742D01*
X107987761Y-49630970D01*
X107955264Y-49633100D01*
X104860929Y-49633100D01*
X104765641Y-49614146D01*
X104684859Y-49560170D01*
X103361001Y-48236312D01*
X103307025Y-48155530D01*
X103288071Y-48060242D01*
X103290202Y-48027738D01*
X103300500Y-47949524D01*
X103300500Y-47687280D01*
X103283436Y-47557671D01*
X103266270Y-47427284D01*
X103198398Y-47173981D01*
X103098043Y-46931703D01*
X102966924Y-46704597D01*
X102966920Y-46704592D01*
X102966917Y-46704587D01*
X102807286Y-46496554D01*
X102807285Y-46496553D01*
X102807282Y-46496549D01*
X102621851Y-46311118D01*
X102621846Y-46311114D01*
X102621845Y-46311113D01*
X102413812Y-46151482D01*
X102413798Y-46151473D01*
X102352937Y-46116335D01*
X102186697Y-46020357D01*
X102186695Y-46020356D01*
X102186693Y-46020355D01*
X102186689Y-46020353D01*
X101944417Y-45920001D01*
X101834730Y-45890611D01*
X101691116Y-45852130D01*
X101691111Y-45852129D01*
X101691114Y-45852129D01*
X101431120Y-45817900D01*
X101168880Y-45817900D01*
X100908887Y-45852129D01*
X100655582Y-45920001D01*
X100413310Y-46020353D01*
X100413306Y-46020355D01*
X100186201Y-46151473D01*
X100186187Y-46151482D01*
X99978154Y-46311113D01*
X99792718Y-46496549D01*
X99776807Y-46517285D01*
X99703760Y-46581342D01*
X99611761Y-46612570D01*
X99579264Y-46614700D01*
X96520736Y-46614700D01*
X96425448Y-46595746D01*
X96344666Y-46541770D01*
X96323193Y-46517285D01*
X96311835Y-46502483D01*
X96307282Y-46496549D01*
X96121851Y-46311118D01*
X96121846Y-46311114D01*
X96121845Y-46311113D01*
X95913812Y-46151482D01*
X95913798Y-46151473D01*
X95852937Y-46116335D01*
X95686697Y-46020357D01*
X95686695Y-46020356D01*
X95686693Y-46020355D01*
X95686689Y-46020353D01*
X95444417Y-45920001D01*
X95334730Y-45890611D01*
X95191116Y-45852130D01*
X95191111Y-45852129D01*
X95191114Y-45852129D01*
X94931120Y-45817900D01*
X94668880Y-45817900D01*
X94408887Y-45852129D01*
X94155582Y-45920001D01*
X93913310Y-46020353D01*
X93913306Y-46020355D01*
X93686201Y-46151473D01*
X93686187Y-46151482D01*
X93478154Y-46311113D01*
X93292716Y-46496551D01*
X93288165Y-46502483D01*
X93215119Y-46566541D01*
X93123120Y-46597770D01*
X93090621Y-46599900D01*
X90312129Y-46599900D01*
X90216841Y-46580946D01*
X90136059Y-46526970D01*
X89351165Y-45742076D01*
X88233958Y-44624869D01*
X88226589Y-44619515D01*
X88080678Y-44513504D01*
X88039378Y-44492461D01*
X87911860Y-44427488D01*
X87731667Y-44368939D01*
X87731661Y-44368937D01*
X87544543Y-44339301D01*
X87544536Y-44339300D01*
X87544533Y-44339300D01*
X87544529Y-44339300D01*
X85218300Y-44339300D01*
X85123012Y-44320346D01*
X85042230Y-44266370D01*
X84988254Y-44185588D01*
X84969300Y-44090300D01*
X84969300Y-42047131D01*
X84988254Y-41951843D01*
X85042230Y-41871061D01*
X85066705Y-41849596D01*
X85121851Y-41807282D01*
X85307282Y-41621851D01*
X85466924Y-41413803D01*
X85598043Y-41186697D01*
X85698398Y-40944419D01*
X85766270Y-40691116D01*
X85800500Y-40431120D01*
X85800500Y-40168880D01*
X85766270Y-39908884D01*
X85698398Y-39655581D01*
X85598043Y-39413303D01*
X85466924Y-39186197D01*
X85466920Y-39186192D01*
X85466917Y-39186187D01*
X85307286Y-38978154D01*
X85307285Y-38978153D01*
X85307282Y-38978149D01*
X85121851Y-38792718D01*
X85121846Y-38792714D01*
X85121845Y-38792713D01*
X84913812Y-38633082D01*
X84913798Y-38633073D01*
X84811381Y-38573943D01*
X84686697Y-38501957D01*
X84686695Y-38501956D01*
X84686693Y-38501955D01*
X84686689Y-38501953D01*
X84444417Y-38401601D01*
X84334730Y-38372211D01*
X84191116Y-38333730D01*
X84191111Y-38333729D01*
X84191114Y-38333729D01*
X83931120Y-38299500D01*
X83668880Y-38299500D01*
X83408887Y-38333729D01*
X83155582Y-38401601D01*
X82913310Y-38501953D01*
X82913306Y-38501955D01*
X82686201Y-38633073D01*
X82686187Y-38633082D01*
X82478154Y-38792713D01*
X82292718Y-38978149D01*
X82276807Y-38998885D01*
X82203760Y-39062942D01*
X82111761Y-39094170D01*
X82079264Y-39096300D01*
X79020736Y-39096300D01*
X78925448Y-39077346D01*
X78844666Y-39023370D01*
X78823193Y-38998885D01*
X78807282Y-38978149D01*
X78621851Y-38792718D01*
X78621846Y-38792714D01*
X78621845Y-38792713D01*
X78413812Y-38633082D01*
X78413798Y-38633073D01*
X78311381Y-38573943D01*
X78186697Y-38501957D01*
X78186695Y-38501956D01*
X78186693Y-38501955D01*
X78186689Y-38501953D01*
X77944417Y-38401601D01*
X77834730Y-38372211D01*
X77691116Y-38333730D01*
X77691111Y-38333729D01*
X77691114Y-38333729D01*
X77431120Y-38299500D01*
X77168880Y-38299500D01*
X76908887Y-38333729D01*
X76655582Y-38401601D01*
X76413310Y-38501953D01*
X76413306Y-38501955D01*
X76186201Y-38633073D01*
X76186187Y-38633082D01*
X75978154Y-38792713D01*
X75792713Y-38978154D01*
X75633082Y-39186187D01*
X75633073Y-39186201D01*
X75501955Y-39413306D01*
X75501953Y-39413310D01*
X75401601Y-39655582D01*
X75333729Y-39908887D01*
X75299500Y-40168880D01*
X75299500Y-40431119D01*
X75333729Y-40691112D01*
X75401601Y-40944417D01*
X75501953Y-41186689D01*
X75501955Y-41186693D01*
X75633073Y-41413798D01*
X75633082Y-41413812D01*
X75792713Y-41621845D01*
X75792718Y-41621851D01*
X75978149Y-41807282D01*
X75978153Y-41807285D01*
X75978154Y-41807286D01*
X76186187Y-41966917D01*
X76186192Y-41966920D01*
X76186197Y-41966924D01*
X76413303Y-42098043D01*
X76413308Y-42098045D01*
X76413310Y-42098046D01*
X76448374Y-42112570D01*
X76655581Y-42198398D01*
X76908884Y-42266270D01*
X77168880Y-42300500D01*
X77431120Y-42300500D01*
X77691116Y-42266270D01*
X77944419Y-42198398D01*
X78186697Y-42098043D01*
X78413803Y-41966924D01*
X78621851Y-41807282D01*
X78807282Y-41621851D01*
X78823194Y-41601113D01*
X78896240Y-41537058D01*
X78988239Y-41505830D01*
X79020736Y-41503700D01*
X82079264Y-41503700D01*
X82081154Y-41504076D01*
X82083049Y-41503729D01*
X82128723Y-41513538D01*
X82174552Y-41522654D01*
X82176153Y-41523724D01*
X82178038Y-41524129D01*
X82185714Y-41530112D01*
X82255334Y-41576630D01*
X82257990Y-41579327D01*
X82268029Y-41589676D01*
X82292718Y-41621851D01*
X82478149Y-41807282D01*
X82481936Y-41810187D01*
X82491626Y-41820177D01*
X82512640Y-41852686D01*
X82536211Y-41883398D01*
X82538845Y-41893226D01*
X82544368Y-41901770D01*
X82551341Y-41939846D01*
X82561365Y-41977240D01*
X82561900Y-41993550D01*
X82561900Y-49158050D01*
X82542946Y-49253338D01*
X82488970Y-49334120D01*
X82479161Y-49343306D01*
X82292718Y-49529749D01*
X82276807Y-49550485D01*
X82203760Y-49614542D01*
X82111761Y-49645770D01*
X82079264Y-49647900D01*
X79020736Y-49647900D01*
X78925448Y-49628946D01*
X78844666Y-49574970D01*
X78823193Y-49550485D01*
X78807282Y-49529749D01*
X78621851Y-49344318D01*
X78621846Y-49344314D01*
X78621845Y-49344313D01*
X78413812Y-49184682D01*
X78413798Y-49184673D01*
X78331163Y-49136964D01*
X78186697Y-49053557D01*
X78186695Y-49053556D01*
X78186693Y-49053555D01*
X78186689Y-49053553D01*
X77944417Y-48953201D01*
X77834730Y-48923811D01*
X77691116Y-48885330D01*
X77691111Y-48885329D01*
X77691114Y-48885329D01*
X77431120Y-48851100D01*
X77168880Y-48851100D01*
X76908887Y-48885329D01*
X76655582Y-48953201D01*
X76413310Y-49053553D01*
X76413306Y-49053555D01*
X76186201Y-49184673D01*
X76186187Y-49184682D01*
X75978154Y-49344313D01*
X75792713Y-49529754D01*
X75633082Y-49737787D01*
X75633073Y-49737801D01*
X75501955Y-49964906D01*
X75501953Y-49964910D01*
X75401601Y-50207182D01*
X75333729Y-50460487D01*
X75325160Y-50525575D01*
X75299500Y-50720480D01*
X75299500Y-50982720D01*
X75303395Y-51012304D01*
X75333729Y-51242712D01*
X75401601Y-51496017D01*
X75501953Y-51738289D01*
X75501955Y-51738293D01*
X75501957Y-51738297D01*
X75575859Y-51866299D01*
X75633073Y-51965398D01*
X75633082Y-51965412D01*
X75781361Y-52158651D01*
X75792718Y-52173451D01*
X75978149Y-52358882D01*
X75978153Y-52358885D01*
X75978154Y-52358886D01*
X76186187Y-52518517D01*
X76186192Y-52518520D01*
X76186197Y-52518524D01*
X76413303Y-52649643D01*
X76655581Y-52749998D01*
X76908884Y-52817870D01*
X77168880Y-52852100D01*
X77431120Y-52852100D01*
X77691116Y-52817870D01*
X77944419Y-52749998D01*
X78186697Y-52649643D01*
X78413803Y-52518524D01*
X78621851Y-52358882D01*
X78807282Y-52173451D01*
X78823194Y-52152713D01*
X78896240Y-52088658D01*
X78988239Y-52057430D01*
X79020736Y-52055300D01*
X82079264Y-52055300D01*
X82174552Y-52074254D01*
X82255334Y-52128230D01*
X82276803Y-52152711D01*
X82292718Y-52173451D01*
X82478149Y-52358882D01*
X82478153Y-52358885D01*
X82478154Y-52358886D01*
X82686187Y-52518517D01*
X82686192Y-52518520D01*
X82686197Y-52518524D01*
X82913303Y-52649643D01*
X83155581Y-52749998D01*
X83408884Y-52817870D01*
X83668880Y-52852100D01*
X83931120Y-52852100D01*
X84191116Y-52817870D01*
X84444419Y-52749998D01*
X84686697Y-52649643D01*
X84913803Y-52518524D01*
X85121851Y-52358882D01*
X85307282Y-52173451D01*
X85466924Y-51965403D01*
X85598043Y-51738297D01*
X85698398Y-51496019D01*
X85766270Y-51242716D01*
X85800500Y-50982720D01*
X85800500Y-50720480D01*
X85766270Y-50460484D01*
X85698398Y-50207181D01*
X85598043Y-49964903D01*
X85466924Y-49737797D01*
X85466920Y-49737792D01*
X85466917Y-49737787D01*
X85307286Y-49529754D01*
X85307285Y-49529753D01*
X85307282Y-49529749D01*
X85121851Y-49344318D01*
X85121846Y-49344314D01*
X85121845Y-49344313D01*
X85066715Y-49302009D01*
X85002658Y-49228963D01*
X84971430Y-49136964D01*
X84969300Y-49104467D01*
X84969300Y-46995700D01*
X84988254Y-46900412D01*
X85042230Y-46819630D01*
X85123012Y-46765654D01*
X85218300Y-46746700D01*
X86848071Y-46746700D01*
X86943359Y-46765654D01*
X87024141Y-46819630D01*
X88926242Y-48721731D01*
X88926245Y-48721733D01*
X88926246Y-48721734D01*
X88926248Y-48721736D01*
X89079519Y-48833093D01*
X89079523Y-48833096D01*
X89152991Y-48870530D01*
X89152992Y-48870530D01*
X89248340Y-48919112D01*
X89428533Y-48977661D01*
X89428536Y-48977661D01*
X89428538Y-48977662D01*
X89512116Y-48990899D01*
X89615667Y-49007300D01*
X93067908Y-49007300D01*
X93163196Y-49026254D01*
X93243978Y-49080230D01*
X93265452Y-49104718D01*
X93290195Y-49136964D01*
X93292718Y-49140251D01*
X93478149Y-49325682D01*
X93478153Y-49325685D01*
X93478154Y-49325686D01*
X93686187Y-49485317D01*
X93686192Y-49485320D01*
X93686197Y-49485324D01*
X93913303Y-49616443D01*
X94155581Y-49716798D01*
X94408884Y-49784670D01*
X94668880Y-49818900D01*
X94931120Y-49818900D01*
X95191116Y-49784670D01*
X95444419Y-49716798D01*
X95686697Y-49616443D01*
X95913803Y-49485324D01*
X96121851Y-49325682D01*
X96307282Y-49140251D01*
X96323194Y-49119513D01*
X96396240Y-49055458D01*
X96488239Y-49024230D01*
X96520736Y-49022100D01*
X99579264Y-49022100D01*
X99674552Y-49041054D01*
X99755334Y-49095030D01*
X99776803Y-49119511D01*
X99792718Y-49140251D01*
X99978149Y-49325682D01*
X99978153Y-49325685D01*
X99978154Y-49325686D01*
X100186187Y-49485317D01*
X100186192Y-49485320D01*
X100186197Y-49485324D01*
X100413303Y-49616443D01*
X100655581Y-49716798D01*
X100908884Y-49784670D01*
X101168880Y-49818900D01*
X101435871Y-49818900D01*
X101531159Y-49837854D01*
X101611941Y-49891830D01*
X103475042Y-51754931D01*
X103475045Y-51754933D01*
X103628326Y-51866299D01*
X103707014Y-51906391D01*
X103744834Y-51925661D01*
X103797140Y-51952312D01*
X103977333Y-52010861D01*
X103977336Y-52010861D01*
X103977338Y-52010862D01*
X104060916Y-52024099D01*
X104164467Y-52040500D01*
X107955264Y-52040500D01*
X108050552Y-52059454D01*
X108131334Y-52113430D01*
X108152803Y-52137911D01*
X108168718Y-52158651D01*
X108354149Y-52344082D01*
X108354153Y-52344085D01*
X108354154Y-52344086D01*
X108562187Y-52503717D01*
X108562192Y-52503720D01*
X108562197Y-52503724D01*
X108789303Y-52634843D01*
X108789308Y-52634845D01*
X108789310Y-52634846D01*
X108836614Y-52654440D01*
X109031581Y-52735198D01*
X109284884Y-52803070D01*
X109544880Y-52837300D01*
X109807120Y-52837300D01*
X110067116Y-52803070D01*
X110320419Y-52735198D01*
X110562697Y-52634843D01*
X110789803Y-52503724D01*
X110997851Y-52344082D01*
X111183282Y-52158651D01*
X111199194Y-52137913D01*
X111272240Y-52073858D01*
X111364239Y-52042630D01*
X111396736Y-52040500D01*
X114455264Y-52040500D01*
X114550552Y-52059454D01*
X114631334Y-52113430D01*
X114652803Y-52137911D01*
X114668718Y-52158651D01*
X114854149Y-52344082D01*
X114854153Y-52344085D01*
X114854154Y-52344086D01*
X115062187Y-52503717D01*
X115062192Y-52503720D01*
X115062197Y-52503724D01*
X115289303Y-52634843D01*
X115289308Y-52634845D01*
X115289310Y-52634846D01*
X115336614Y-52654440D01*
X115531581Y-52735198D01*
X115784884Y-52803070D01*
X116044880Y-52837300D01*
X116307120Y-52837300D01*
X116567116Y-52803070D01*
X116820419Y-52735198D01*
X117062697Y-52634843D01*
X117289803Y-52503724D01*
X117497851Y-52344082D01*
X117683282Y-52158651D01*
X117699194Y-52137913D01*
X117772240Y-52073858D01*
X117864239Y-52042630D01*
X117896736Y-52040500D01*
X120539071Y-52040500D01*
X120634359Y-52059454D01*
X120715141Y-52113430D01*
X121177341Y-52575630D01*
X121231317Y-52656412D01*
X121250271Y-52751700D01*
X121231317Y-52846988D01*
X121177341Y-52927770D01*
X121096559Y-52981746D01*
X121001271Y-53000700D01*
X118841533Y-53000700D01*
X118652066Y-53000700D01*
X118633004Y-53003718D01*
X118626472Y-53004753D01*
X118626471Y-53004752D01*
X118464943Y-53030336D01*
X118464936Y-53030338D01*
X118464933Y-53030339D01*
X118328929Y-53074529D01*
X118328926Y-53074530D01*
X118328925Y-53074529D01*
X118284736Y-53088888D01*
X118284734Y-53088889D01*
X118115925Y-53174902D01*
X118077284Y-53202976D01*
X118077276Y-53202983D01*
X118068064Y-53209676D01*
X117962642Y-53286269D01*
X117828669Y-53420242D01*
X117828666Y-53420245D01*
X117822908Y-53426002D01*
X117822892Y-53426017D01*
X117607680Y-53641229D01*
X117526899Y-53695205D01*
X117431610Y-53714159D01*
X117336322Y-53695205D01*
X117293276Y-53672196D01*
X117289808Y-53669878D01*
X117121438Y-53572671D01*
X117062697Y-53538757D01*
X117062695Y-53538756D01*
X117062693Y-53538755D01*
X117062689Y-53538753D01*
X116820417Y-53438401D01*
X116710730Y-53409011D01*
X116567116Y-53370530D01*
X116567111Y-53370529D01*
X116567114Y-53370529D01*
X116307120Y-53336300D01*
X116044880Y-53336300D01*
X115784887Y-53370529D01*
X115531582Y-53438401D01*
X115289310Y-53538753D01*
X115289306Y-53538755D01*
X115062201Y-53669873D01*
X115062187Y-53669882D01*
X114854154Y-53829513D01*
X114854149Y-53829518D01*
X114668718Y-54014949D01*
X114652809Y-54035683D01*
X114652807Y-54035685D01*
X114579760Y-54099742D01*
X114487761Y-54130970D01*
X114455264Y-54133100D01*
X111396736Y-54133100D01*
X111301448Y-54114146D01*
X111220666Y-54060170D01*
X111199193Y-54035685D01*
X111183282Y-54014949D01*
X110997851Y-53829518D01*
X110997846Y-53829514D01*
X110997845Y-53829513D01*
X110789812Y-53669882D01*
X110789798Y-53669873D01*
X110679549Y-53606221D01*
X110562697Y-53538757D01*
X110562695Y-53538756D01*
X110562693Y-53538755D01*
X110562689Y-53538753D01*
X110320417Y-53438401D01*
X110210730Y-53409011D01*
X110067116Y-53370530D01*
X110067111Y-53370529D01*
X110067114Y-53370529D01*
X109807120Y-53336300D01*
X109544880Y-53336300D01*
X109284887Y-53370529D01*
X109031582Y-53438401D01*
X108789310Y-53538753D01*
X108789306Y-53538755D01*
X108562201Y-53669873D01*
X108562187Y-53669882D01*
X108354154Y-53829513D01*
X108168713Y-54014954D01*
X108009082Y-54222987D01*
X108009073Y-54223001D01*
X107877955Y-54450106D01*
X107877953Y-54450110D01*
X107777601Y-54692382D01*
X107709729Y-54945687D01*
X107707781Y-54960484D01*
X107675500Y-55205680D01*
X107675500Y-55467920D01*
X107701525Y-55665600D01*
X107695172Y-55762545D01*
X107652202Y-55849680D01*
X107579157Y-55913740D01*
X107487158Y-55944970D01*
X107454656Y-55947100D01*
X106618929Y-55947100D01*
X106523641Y-55928146D01*
X106442859Y-55874170D01*
X104174906Y-53606217D01*
X101902158Y-51333469D01*
X101902154Y-51333466D01*
X101748873Y-51222100D01*
X101580070Y-51136092D01*
X101580061Y-51136088D01*
X101580060Y-51136088D01*
X101571998Y-51133468D01*
X101571993Y-51133465D01*
X101571993Y-51133467D01*
X101399864Y-51077538D01*
X101399862Y-51077537D01*
X101212743Y-51047901D01*
X101212736Y-51047900D01*
X101212733Y-51047900D01*
X95009133Y-51047900D01*
X94819667Y-51047900D01*
X94819664Y-51047900D01*
X94819656Y-51047901D01*
X94632538Y-51077537D01*
X94452345Y-51136086D01*
X94452342Y-51136087D01*
X94452340Y-51136088D01*
X94375201Y-51175392D01*
X94283521Y-51222104D01*
X94130245Y-51333466D01*
X91454341Y-54009370D01*
X91373559Y-54063346D01*
X91278271Y-54082300D01*
X85462972Y-54082300D01*
X85367684Y-54063346D01*
X85286905Y-54009372D01*
X85121851Y-53844318D01*
X85121846Y-53844314D01*
X85121845Y-53844313D01*
X84913812Y-53684682D01*
X84913798Y-53684673D01*
X84777907Y-53606217D01*
X84686697Y-53553557D01*
X84686695Y-53553556D01*
X84686693Y-53553555D01*
X84686689Y-53553553D01*
X84444417Y-53453201D01*
X84321410Y-53420242D01*
X84191116Y-53385330D01*
X84191111Y-53385329D01*
X84191114Y-53385329D01*
X83931120Y-53351100D01*
X83668880Y-53351100D01*
X83408887Y-53385329D01*
X83155582Y-53453201D01*
X82913310Y-53553553D01*
X82913306Y-53553555D01*
X82686201Y-53684673D01*
X82686187Y-53684682D01*
X82478154Y-53844313D01*
X82292718Y-54029749D01*
X82276807Y-54050485D01*
X82203760Y-54114542D01*
X82111761Y-54145770D01*
X82079264Y-54147900D01*
X79020736Y-54147900D01*
X78925448Y-54128946D01*
X78844666Y-54074970D01*
X78823193Y-54050485D01*
X78807282Y-54029749D01*
X78621851Y-53844318D01*
X78621846Y-53844314D01*
X78621845Y-53844313D01*
X78413812Y-53684682D01*
X78413798Y-53684673D01*
X78277907Y-53606217D01*
X78186697Y-53553557D01*
X78186695Y-53553556D01*
X78186693Y-53553555D01*
X78186689Y-53553553D01*
X77944417Y-53453201D01*
X77821410Y-53420242D01*
X77691116Y-53385330D01*
X77691111Y-53385329D01*
X77691114Y-53385329D01*
X77431120Y-53351100D01*
X77168880Y-53351100D01*
X76908887Y-53385329D01*
X76655582Y-53453201D01*
X76413310Y-53553553D01*
X76413306Y-53553555D01*
X76186201Y-53684673D01*
X76186187Y-53684682D01*
X75978154Y-53844313D01*
X75792713Y-54029754D01*
X75633082Y-54237787D01*
X75633073Y-54237801D01*
X75501955Y-54464906D01*
X75501953Y-54464910D01*
X75401601Y-54707182D01*
X75333729Y-54960487D01*
X75299500Y-55220480D01*
X75299500Y-55482719D01*
X75333729Y-55742712D01*
X75401601Y-55996017D01*
X75501953Y-56238289D01*
X75501955Y-56238293D01*
X75633073Y-56465398D01*
X75633082Y-56465412D01*
X75792713Y-56673445D01*
X75792718Y-56673451D01*
X75978149Y-56858882D01*
X75978153Y-56858885D01*
X75978154Y-56858886D01*
X76186187Y-57018517D01*
X76186192Y-57018520D01*
X76186197Y-57018524D01*
X76413303Y-57149643D01*
X76655581Y-57249998D01*
X76908884Y-57317870D01*
X77168880Y-57352100D01*
X77431120Y-57352100D01*
X77691116Y-57317870D01*
X77944419Y-57249998D01*
X78186697Y-57149643D01*
X78413803Y-57018524D01*
X78621851Y-56858882D01*
X78807282Y-56673451D01*
X78823194Y-56652713D01*
X78896240Y-56588658D01*
X78988239Y-56557430D01*
X79020736Y-56555300D01*
X82079264Y-56555300D01*
X82174552Y-56574254D01*
X82255334Y-56628230D01*
X82276803Y-56652711D01*
X82292718Y-56673451D01*
X82478149Y-56858882D01*
X82478153Y-56858885D01*
X82478154Y-56858886D01*
X82686187Y-57018517D01*
X82686192Y-57018520D01*
X82686197Y-57018524D01*
X82913303Y-57149643D01*
X83155581Y-57249998D01*
X83408884Y-57317870D01*
X83668880Y-57352100D01*
X83931120Y-57352100D01*
X84191116Y-57317870D01*
X84444419Y-57249998D01*
X84686697Y-57149643D01*
X84913803Y-57018524D01*
X85121851Y-56858882D01*
X85307282Y-56673451D01*
X85365894Y-56597066D01*
X85373529Y-56587117D01*
X85446575Y-56523059D01*
X85538574Y-56491830D01*
X85571073Y-56489700D01*
X91974729Y-56489700D01*
X91974733Y-56489700D01*
X92161867Y-56460061D01*
X92342060Y-56401512D01*
X92510876Y-56315497D01*
X92664158Y-56204131D01*
X95340059Y-53528230D01*
X95420841Y-53474254D01*
X95516129Y-53455300D01*
X95800621Y-53455300D01*
X95895909Y-53474254D01*
X95976691Y-53528230D01*
X96030667Y-53609012D01*
X96049621Y-53704300D01*
X96030667Y-53799588D01*
X95995297Y-53859549D01*
X95894107Y-53986436D01*
X95732741Y-54243248D01*
X95732728Y-54243272D01*
X95601129Y-54516540D01*
X95500955Y-54802825D01*
X95433461Y-55098531D01*
X95433459Y-55098542D01*
X95399500Y-55399928D01*
X95399500Y-55703271D01*
X95432486Y-55996019D01*
X95433460Y-56004663D01*
X95500954Y-56300372D01*
X95525998Y-56371945D01*
X95601129Y-56586659D01*
X95642925Y-56673450D01*
X95732735Y-56859941D01*
X95732739Y-56859947D01*
X95732741Y-56859951D01*
X95894107Y-57116763D01*
X95929312Y-57160908D01*
X96083221Y-57353904D01*
X96297696Y-57568379D01*
X96534836Y-57757492D01*
X96791659Y-57918865D01*
X97064935Y-58050468D01*
X97064938Y-58050469D01*
X97064940Y-58050470D01*
X97175547Y-58089173D01*
X97259228Y-58138534D01*
X97317649Y-58216162D01*
X97341916Y-58310238D01*
X97328335Y-58406439D01*
X97278974Y-58490120D01*
X97201346Y-58548541D01*
X97107270Y-58572808D01*
X97093308Y-58573200D01*
X70349400Y-58573200D01*
X70254112Y-58554246D01*
X70173330Y-58500270D01*
X70119354Y-58419488D01*
X70100400Y-58324200D01*
X70100400Y-33489900D01*
X70119354Y-33394612D01*
X70173330Y-33313830D01*
X70254112Y-33259854D01*
X70349400Y-33240900D01*
X95990477Y-33240900D01*
X96085765Y-33259854D01*
G37*
%TD.AperFunction*%
%TA.AperFunction,Conductor*%
G36*
X100611559Y-53474254D02*
G01*
X100692341Y-53528230D01*
X105233042Y-58068931D01*
X105233045Y-58068933D01*
X105307124Y-58122755D01*
X105373073Y-58194099D01*
X105406700Y-58285249D01*
X105402885Y-58382329D01*
X105362210Y-58470559D01*
X105290866Y-58536508D01*
X105199716Y-58570135D01*
X105160765Y-58573200D01*
X99106692Y-58573200D01*
X99011404Y-58554246D01*
X98930622Y-58500270D01*
X98876646Y-58419488D01*
X98857692Y-58324200D01*
X98876646Y-58228912D01*
X98930622Y-58148130D01*
X99011404Y-58094154D01*
X99024453Y-58089173D01*
X99135059Y-58050470D01*
X99135058Y-58050470D01*
X99135065Y-58050468D01*
X99408341Y-57918865D01*
X99665164Y-57757492D01*
X99902304Y-57568379D01*
X100116779Y-57353904D01*
X100305892Y-57116764D01*
X100467265Y-56859941D01*
X100598868Y-56586665D01*
X100699046Y-56300372D01*
X100766540Y-56004663D01*
X100797722Y-55727916D01*
X100800499Y-55703271D01*
X100800500Y-55703256D01*
X100800500Y-55399943D01*
X100800499Y-55399928D01*
X100781802Y-55234000D01*
X100766540Y-55098537D01*
X100699046Y-54802828D01*
X100598868Y-54516535D01*
X100467265Y-54243259D01*
X100305892Y-53986436D01*
X100204703Y-53859549D01*
X100188702Y-53828577D01*
X100169333Y-53799588D01*
X100166582Y-53785758D01*
X100160111Y-53773232D01*
X100157181Y-53738496D01*
X100150379Y-53704300D01*
X100153130Y-53690469D01*
X100151945Y-53676421D01*
X100162531Y-53643205D01*
X100169333Y-53609012D01*
X100177166Y-53597288D01*
X100181448Y-53583854D01*
X100203939Y-53557218D01*
X100223309Y-53528230D01*
X100235034Y-53520395D01*
X100244130Y-53509624D01*
X100275101Y-53493623D01*
X100304091Y-53474254D01*
X100317920Y-53471503D01*
X100330447Y-53465032D01*
X100399379Y-53455300D01*
X100516271Y-53455300D01*
X100611559Y-53474254D01*
G37*
%TD.AperFunction*%
%TA.AperFunction,Conductor*%
G36*
X123188952Y-49041054D02*
G01*
X123269734Y-49095030D01*
X123291203Y-49119511D01*
X123307118Y-49140251D01*
X123492549Y-49325682D01*
X123492553Y-49325685D01*
X123492554Y-49325686D01*
X123700587Y-49485317D01*
X123700592Y-49485320D01*
X123700597Y-49485324D01*
X123927703Y-49616443D01*
X124169981Y-49716798D01*
X124423284Y-49784670D01*
X124683280Y-49818900D01*
X124945520Y-49818900D01*
X125205516Y-49784670D01*
X125458819Y-49716798D01*
X125701097Y-49616443D01*
X125928203Y-49485324D01*
X126136251Y-49325682D01*
X126321682Y-49140251D01*
X126337594Y-49119513D01*
X126410640Y-49055458D01*
X126502639Y-49024230D01*
X126535136Y-49022100D01*
X129507300Y-49022100D01*
X129602588Y-49041054D01*
X129683370Y-49095030D01*
X129737346Y-49175812D01*
X129756300Y-49271100D01*
X129756300Y-50782258D01*
X129737346Y-50877546D01*
X129683370Y-50958328D01*
X129602588Y-51012304D01*
X129507300Y-51031258D01*
X129412012Y-51012304D01*
X129382801Y-50997899D01*
X129240212Y-50915576D01*
X129240201Y-50915570D01*
X129016105Y-50822748D01*
X129016103Y-50822747D01*
X129016100Y-50822746D01*
X129016096Y-50822745D01*
X129016082Y-50822740D01*
X128781795Y-50759963D01*
X128781790Y-50759962D01*
X128541288Y-50728300D01*
X128298712Y-50728300D01*
X128058209Y-50759962D01*
X128058204Y-50759963D01*
X127823917Y-50822740D01*
X127823894Y-50822748D01*
X127599798Y-50915570D01*
X127599782Y-50915578D01*
X127389720Y-51036858D01*
X127389715Y-51036861D01*
X127389711Y-51036864D01*
X127301578Y-51104490D01*
X127214445Y-51147459D01*
X127117498Y-51153813D01*
X127025499Y-51122583D01*
X126998425Y-51104493D01*
X126910289Y-51036864D01*
X126910279Y-51036858D01*
X126700217Y-50915578D01*
X126700201Y-50915570D01*
X126476105Y-50822748D01*
X126476103Y-50822747D01*
X126476100Y-50822746D01*
X126476096Y-50822745D01*
X126476082Y-50822740D01*
X126241795Y-50759963D01*
X126241790Y-50759962D01*
X126001288Y-50728300D01*
X125758712Y-50728300D01*
X125518209Y-50759962D01*
X125518204Y-50759963D01*
X125283917Y-50822740D01*
X125283894Y-50822748D01*
X125059798Y-50915570D01*
X125059782Y-50915578D01*
X124849720Y-51036858D01*
X124849715Y-51036861D01*
X124849711Y-51036864D01*
X124761578Y-51104490D01*
X124674445Y-51147459D01*
X124577498Y-51153813D01*
X124485499Y-51122583D01*
X124458425Y-51104493D01*
X124370289Y-51036864D01*
X124370279Y-51036858D01*
X124160217Y-50915578D01*
X124160201Y-50915570D01*
X123936105Y-50822748D01*
X123936103Y-50822747D01*
X123936100Y-50822746D01*
X123936096Y-50822745D01*
X123936082Y-50822740D01*
X123701795Y-50759963D01*
X123701790Y-50759962D01*
X123461288Y-50728300D01*
X123218712Y-50728300D01*
X122978210Y-50759962D01*
X122949896Y-50767548D01*
X122852949Y-50773899D01*
X122760951Y-50742666D01*
X122709390Y-50703100D01*
X121924959Y-49918670D01*
X121924958Y-49918669D01*
X121771676Y-49807303D01*
X121771677Y-49807303D01*
X121771675Y-49807302D01*
X121602861Y-49721288D01*
X121589042Y-49716798D01*
X121589041Y-49716797D01*
X121589041Y-49716798D01*
X121422664Y-49662738D01*
X121422662Y-49662737D01*
X121235543Y-49633101D01*
X121235536Y-49633100D01*
X121235533Y-49633100D01*
X121235529Y-49633100D01*
X117896736Y-49633100D01*
X117892282Y-49632214D01*
X117887798Y-49632940D01*
X117844789Y-49622767D01*
X117801448Y-49614146D01*
X117797670Y-49611622D01*
X117793252Y-49610577D01*
X117778357Y-49598717D01*
X117720666Y-49560170D01*
X117714460Y-49553736D01*
X117706394Y-49545069D01*
X117683282Y-49514949D01*
X117612342Y-49444009D01*
X117609296Y-49440736D01*
X117586084Y-49403142D01*
X117561526Y-49366388D01*
X117560639Y-49361933D01*
X117558254Y-49358069D01*
X117551192Y-49314440D01*
X117542572Y-49271100D01*
X117543457Y-49266646D01*
X117542732Y-49262162D01*
X117552904Y-49219153D01*
X117561526Y-49175812D01*
X117564049Y-49172034D01*
X117565095Y-49167616D01*
X117590940Y-49131789D01*
X117615502Y-49095030D01*
X117619280Y-49092505D01*
X117621936Y-49088824D01*
X117659529Y-49065612D01*
X117696284Y-49041054D01*
X117700738Y-49040167D01*
X117704603Y-49037782D01*
X117748231Y-49030720D01*
X117791572Y-49022100D01*
X123093664Y-49022100D01*
X123188952Y-49041054D01*
G37*
%TD.AperFunction*%
%TA.AperFunction,Conductor*%
G36*
X147174552Y-37022654D02*
G01*
X147255334Y-37076630D01*
X147276803Y-37101111D01*
X147292718Y-37121851D01*
X147478149Y-37307282D01*
X147478153Y-37307285D01*
X147478154Y-37307286D01*
X147686187Y-37466917D01*
X147686192Y-37466920D01*
X147686197Y-37466924D01*
X147913303Y-37598043D01*
X148155581Y-37698398D01*
X148408884Y-37766270D01*
X148668880Y-37800500D01*
X148931120Y-37800500D01*
X149191116Y-37766270D01*
X149444419Y-37698398D01*
X149686697Y-37598043D01*
X149753604Y-37559414D01*
X149845598Y-37528186D01*
X149942545Y-37534540D01*
X150029681Y-37577510D01*
X150093740Y-37650555D01*
X150124970Y-37742554D01*
X150127100Y-37775056D01*
X150127100Y-38324943D01*
X150108146Y-38420231D01*
X150054170Y-38501013D01*
X149973388Y-38554989D01*
X149878100Y-38573943D01*
X149782812Y-38554989D01*
X149753601Y-38540584D01*
X149686697Y-38501957D01*
X149686695Y-38501956D01*
X149686693Y-38501955D01*
X149686689Y-38501953D01*
X149444417Y-38401601D01*
X149334730Y-38372211D01*
X149191116Y-38333730D01*
X149191111Y-38333729D01*
X149191114Y-38333729D01*
X148931120Y-38299500D01*
X148668880Y-38299500D01*
X148408887Y-38333729D01*
X148155582Y-38401601D01*
X147913310Y-38501953D01*
X147913306Y-38501955D01*
X147686201Y-38633073D01*
X147686187Y-38633082D01*
X147478154Y-38792713D01*
X147292718Y-38978149D01*
X147276807Y-38998885D01*
X147203760Y-39062942D01*
X147111761Y-39094170D01*
X147079264Y-39096300D01*
X144020736Y-39096300D01*
X143925448Y-39077346D01*
X143844666Y-39023370D01*
X143823193Y-38998885D01*
X143807282Y-38978149D01*
X143621851Y-38792718D01*
X143621846Y-38792714D01*
X143621845Y-38792713D01*
X143413812Y-38633082D01*
X143413798Y-38633073D01*
X143311381Y-38573943D01*
X143186697Y-38501957D01*
X143186695Y-38501956D01*
X143186693Y-38501955D01*
X143186689Y-38501953D01*
X142944417Y-38401601D01*
X142834730Y-38372211D01*
X142691116Y-38333730D01*
X142691111Y-38333729D01*
X142691114Y-38333729D01*
X142431120Y-38299500D01*
X142168880Y-38299500D01*
X141908887Y-38333729D01*
X141655582Y-38401601D01*
X141413310Y-38501953D01*
X141413306Y-38501955D01*
X141186201Y-38633073D01*
X141186187Y-38633082D01*
X140978154Y-38792713D01*
X140792713Y-38978154D01*
X140633082Y-39186187D01*
X140633073Y-39186201D01*
X140501955Y-39413306D01*
X140501953Y-39413310D01*
X140401601Y-39655582D01*
X140333729Y-39908887D01*
X140299500Y-40168880D01*
X140299500Y-40431119D01*
X140333729Y-40691112D01*
X140401601Y-40944417D01*
X140501953Y-41186689D01*
X140501955Y-41186693D01*
X140633073Y-41413798D01*
X140633082Y-41413812D01*
X140792713Y-41621846D01*
X140792719Y-41621852D01*
X140978137Y-41807271D01*
X140978148Y-41807281D01*
X140978149Y-41807282D01*
X140988480Y-41815209D01*
X141052539Y-41888252D01*
X141083769Y-41980251D01*
X141085900Y-42012755D01*
X141085900Y-42679470D01*
X141066946Y-42774758D01*
X141012970Y-42855540D01*
X133144867Y-50723642D01*
X133064085Y-50777618D01*
X133033244Y-50788087D01*
X132903914Y-50822741D01*
X132903894Y-50822748D01*
X132679798Y-50915570D01*
X132679787Y-50915576D01*
X132537199Y-50997899D01*
X132445200Y-51029128D01*
X132348253Y-51022773D01*
X132261118Y-50979802D01*
X132197059Y-50906757D01*
X132165830Y-50814758D01*
X132163700Y-50782258D01*
X132163700Y-49781794D01*
X132182654Y-49686506D01*
X132236630Y-49605724D01*
X132288197Y-49566156D01*
X132428203Y-49485324D01*
X132636251Y-49325682D01*
X132821682Y-49140251D01*
X132981324Y-48932203D01*
X133112443Y-48705097D01*
X133212798Y-48462819D01*
X133280670Y-48209516D01*
X133314900Y-47949520D01*
X133314900Y-47687280D01*
X133280670Y-47427284D01*
X133212798Y-47173981D01*
X133112443Y-46931703D01*
X132981324Y-46704597D01*
X132981320Y-46704592D01*
X132981317Y-46704587D01*
X132821686Y-46496554D01*
X132821685Y-46496553D01*
X132821682Y-46496549D01*
X132636251Y-46311118D01*
X132636246Y-46311114D01*
X132636245Y-46311113D01*
X132428212Y-46151482D01*
X132428198Y-46151473D01*
X132367337Y-46116335D01*
X132201097Y-46020357D01*
X132201095Y-46020356D01*
X132201093Y-46020355D01*
X132201089Y-46020353D01*
X131958817Y-45920001D01*
X131849130Y-45890611D01*
X131705516Y-45852130D01*
X131705511Y-45852129D01*
X131705514Y-45852129D01*
X131445520Y-45817900D01*
X131183280Y-45817900D01*
X130923287Y-45852129D01*
X130669982Y-45920001D01*
X130427710Y-46020353D01*
X130427706Y-46020355D01*
X130200601Y-46151473D01*
X130200587Y-46151482D01*
X129992554Y-46311113D01*
X129807118Y-46496549D01*
X129791207Y-46517285D01*
X129718160Y-46581342D01*
X129626161Y-46612570D01*
X129593664Y-46614700D01*
X126535136Y-46614700D01*
X126439848Y-46595746D01*
X126359066Y-46541770D01*
X126337593Y-46517285D01*
X126326235Y-46502483D01*
X126321682Y-46496549D01*
X126136251Y-46311118D01*
X126136246Y-46311114D01*
X126136245Y-46311113D01*
X125928212Y-46151482D01*
X125928198Y-46151473D01*
X125867337Y-46116335D01*
X125701097Y-46020357D01*
X125701095Y-46020356D01*
X125701093Y-46020355D01*
X125701089Y-46020353D01*
X125458817Y-45920001D01*
X125349130Y-45890611D01*
X125205516Y-45852130D01*
X125205511Y-45852129D01*
X125205514Y-45852129D01*
X124945520Y-45817900D01*
X124683280Y-45817900D01*
X124423287Y-45852129D01*
X124169982Y-45920001D01*
X123927710Y-46020353D01*
X123927706Y-46020355D01*
X123700601Y-46151473D01*
X123700587Y-46151482D01*
X123492554Y-46311113D01*
X123307118Y-46496549D01*
X123291207Y-46517285D01*
X123218160Y-46581342D01*
X123126161Y-46612570D01*
X123093664Y-46614700D01*
X117758929Y-46614700D01*
X117663641Y-46595746D01*
X117582859Y-46541770D01*
X115533550Y-44492461D01*
X113441358Y-42400269D01*
X113288076Y-42288903D01*
X113288077Y-42288903D01*
X113288075Y-42288902D01*
X113119261Y-42202888D01*
X113105442Y-42198398D01*
X113105441Y-42198397D01*
X113105441Y-42198398D01*
X112939064Y-42144338D01*
X112939062Y-42144337D01*
X112751943Y-42114701D01*
X112751936Y-42114700D01*
X112751933Y-42114700D01*
X112751929Y-42114700D01*
X111393172Y-42114700D01*
X111349831Y-42106079D01*
X111306203Y-42099018D01*
X111302338Y-42096632D01*
X111297884Y-42095746D01*
X111261129Y-42071187D01*
X111223536Y-42047976D01*
X111220880Y-42044294D01*
X111217102Y-42041770D01*
X111192540Y-42005010D01*
X111166695Y-41969184D01*
X111165649Y-41964765D01*
X111163126Y-41960988D01*
X111154504Y-41917646D01*
X111144332Y-41874638D01*
X111145057Y-41870153D01*
X111144172Y-41865700D01*
X111152792Y-41822359D01*
X111159854Y-41778731D01*
X111162196Y-41775085D01*
X111163126Y-41770412D01*
X111210896Y-41696064D01*
X111213942Y-41692790D01*
X111284882Y-41621851D01*
X111307994Y-41591730D01*
X111316060Y-41583064D01*
X111346042Y-41561434D01*
X111373840Y-41537058D01*
X111385158Y-41533216D01*
X111394852Y-41526223D01*
X111430832Y-41517712D01*
X111465839Y-41505830D01*
X111486907Y-41504449D01*
X111489398Y-41503860D01*
X111491270Y-41504163D01*
X111498336Y-41503700D01*
X114556864Y-41503700D01*
X114652152Y-41522654D01*
X114732934Y-41576630D01*
X114754403Y-41601111D01*
X114770318Y-41621851D01*
X114955749Y-41807282D01*
X114955753Y-41807285D01*
X114955754Y-41807286D01*
X115163787Y-41966917D01*
X115163792Y-41966920D01*
X115163797Y-41966924D01*
X115390903Y-42098043D01*
X115390908Y-42098045D01*
X115390910Y-42098046D01*
X115425974Y-42112570D01*
X115633181Y-42198398D01*
X115886484Y-42266270D01*
X116146480Y-42300500D01*
X116408720Y-42300500D01*
X116668716Y-42266270D01*
X116922019Y-42198398D01*
X117164297Y-42098043D01*
X117391403Y-41966924D01*
X117599451Y-41807282D01*
X117688956Y-41717776D01*
X117769732Y-41663804D01*
X117865020Y-41644850D01*
X117960308Y-41663803D01*
X118041090Y-41717779D01*
X120559842Y-44236531D01*
X120559845Y-44236533D01*
X120559846Y-44236534D01*
X120559848Y-44236536D01*
X120701293Y-44339301D01*
X120713123Y-44347896D01*
X120869332Y-44427488D01*
X120881933Y-44433909D01*
X120881936Y-44433910D01*
X120881940Y-44433912D01*
X121062133Y-44492461D01*
X121062136Y-44492461D01*
X121062138Y-44492462D01*
X121145716Y-44505699D01*
X121249267Y-44522100D01*
X121438733Y-44522100D01*
X123093664Y-44522100D01*
X123188952Y-44541054D01*
X123269734Y-44595030D01*
X123291203Y-44619511D01*
X123307118Y-44640251D01*
X123492549Y-44825682D01*
X123492553Y-44825685D01*
X123492554Y-44825686D01*
X123700587Y-44985317D01*
X123700592Y-44985320D01*
X123700597Y-44985324D01*
X123927703Y-45116443D01*
X124169981Y-45216798D01*
X124423284Y-45284670D01*
X124683280Y-45318900D01*
X124945520Y-45318900D01*
X125205516Y-45284670D01*
X125458819Y-45216798D01*
X125701097Y-45116443D01*
X125928203Y-44985324D01*
X126136251Y-44825682D01*
X126321682Y-44640251D01*
X126337594Y-44619513D01*
X126410640Y-44555458D01*
X126502639Y-44524230D01*
X126535136Y-44522100D01*
X129593664Y-44522100D01*
X129688952Y-44541054D01*
X129769734Y-44595030D01*
X129791203Y-44619511D01*
X129807118Y-44640251D01*
X129992549Y-44825682D01*
X129992553Y-44825685D01*
X129992554Y-44825686D01*
X130200587Y-44985317D01*
X130200592Y-44985320D01*
X130200597Y-44985324D01*
X130427703Y-45116443D01*
X130669981Y-45216798D01*
X130923284Y-45284670D01*
X131183280Y-45318900D01*
X131445520Y-45318900D01*
X131705516Y-45284670D01*
X131958819Y-45216798D01*
X132201097Y-45116443D01*
X132428203Y-44985324D01*
X132636251Y-44825682D01*
X132821682Y-44640251D01*
X132837594Y-44619513D01*
X132910640Y-44555458D01*
X133002639Y-44524230D01*
X133035136Y-44522100D01*
X133355529Y-44522100D01*
X133355533Y-44522100D01*
X133542667Y-44492461D01*
X133722860Y-44433912D01*
X133735468Y-44427488D01*
X133891676Y-44347897D01*
X134044958Y-44236531D01*
X140821512Y-37459976D01*
X140902291Y-37406003D01*
X140997579Y-37387049D01*
X141092867Y-37406003D01*
X141149159Y-37438504D01*
X141186197Y-37466924D01*
X141413303Y-37598043D01*
X141655581Y-37698398D01*
X141908884Y-37766270D01*
X142168880Y-37800500D01*
X142431120Y-37800500D01*
X142691116Y-37766270D01*
X142944419Y-37698398D01*
X143186697Y-37598043D01*
X143413803Y-37466924D01*
X143621851Y-37307282D01*
X143807282Y-37121851D01*
X143823194Y-37101113D01*
X143896240Y-37037058D01*
X143988239Y-37005830D01*
X144020736Y-37003700D01*
X147079264Y-37003700D01*
X147174552Y-37022654D01*
G37*
%TD.AperFunction*%
%TD*%
%TA.AperFunction,Conductor*%
%TO.N,GND*%
G36*
X121297748Y-59431754D02*
G01*
X121378530Y-59485730D01*
X122266270Y-60373470D01*
X122320246Y-60454252D01*
X122339200Y-60549540D01*
X122339200Y-78258060D01*
X122320246Y-78353348D01*
X122266270Y-78434130D01*
X121650130Y-79050270D01*
X121569348Y-79104246D01*
X121474060Y-79123200D01*
X69989900Y-79123200D01*
X69894612Y-79104246D01*
X69813830Y-79050270D01*
X69759854Y-78969488D01*
X69740900Y-78874200D01*
X69740900Y-73426079D01*
X74649500Y-73426079D01*
X74649500Y-73573920D01*
X74678341Y-73718911D01*
X74678342Y-73718913D01*
X74734916Y-73855495D01*
X74817049Y-73978416D01*
X74921584Y-74082951D01*
X75044505Y-74165084D01*
X75181087Y-74221658D01*
X75326080Y-74250499D01*
X75326081Y-74250500D01*
X75326082Y-74250500D01*
X75473919Y-74250500D01*
X75473919Y-74250499D01*
X75618913Y-74221658D01*
X75755495Y-74165084D01*
X75878416Y-74082951D01*
X75982951Y-73978416D01*
X76065084Y-73855495D01*
X76121658Y-73718913D01*
X76150500Y-73573918D01*
X76150500Y-73426082D01*
X76121658Y-73281087D01*
X76065084Y-73144505D01*
X75982951Y-73021584D01*
X75878416Y-72917049D01*
X75755495Y-72834916D01*
X75618913Y-72778342D01*
X75618911Y-72778341D01*
X75473920Y-72749500D01*
X75473918Y-72749500D01*
X75326082Y-72749500D01*
X75326079Y-72749500D01*
X75181088Y-72778341D01*
X75044507Y-72834915D01*
X75044503Y-72834917D01*
X74921587Y-72917046D01*
X74817046Y-73021587D01*
X74734917Y-73144503D01*
X74734915Y-73144507D01*
X74678341Y-73281088D01*
X74649500Y-73426079D01*
X69740900Y-73426079D01*
X69740900Y-69026079D01*
X74649500Y-69026079D01*
X74649500Y-69173920D01*
X74678341Y-69318911D01*
X74678342Y-69318913D01*
X74734916Y-69455495D01*
X74817049Y-69578416D01*
X74921584Y-69682951D01*
X75044505Y-69765084D01*
X75181087Y-69821658D01*
X75326080Y-69850499D01*
X75326081Y-69850500D01*
X75326082Y-69850500D01*
X75473919Y-69850500D01*
X75473919Y-69850499D01*
X75618913Y-69821658D01*
X75755495Y-69765084D01*
X75878416Y-69682951D01*
X75982951Y-69578416D01*
X76065084Y-69455495D01*
X76121658Y-69318913D01*
X76150500Y-69173918D01*
X76150500Y-69026082D01*
X76121658Y-68881087D01*
X76065084Y-68744505D01*
X75982951Y-68621584D01*
X75878416Y-68517049D01*
X75755495Y-68434916D01*
X75618913Y-68378342D01*
X75618911Y-68378341D01*
X75473920Y-68349500D01*
X75473918Y-68349500D01*
X75326082Y-68349500D01*
X75326079Y-68349500D01*
X75181088Y-68378341D01*
X75044507Y-68434915D01*
X75044503Y-68434917D01*
X74921587Y-68517046D01*
X74817046Y-68621587D01*
X74734917Y-68744503D01*
X74734915Y-68744507D01*
X74678341Y-68881088D01*
X74649500Y-69026079D01*
X69740900Y-69026079D01*
X69740900Y-59661800D01*
X69759854Y-59566512D01*
X69813830Y-59485730D01*
X69894612Y-59431754D01*
X69989900Y-59412800D01*
X121202460Y-59412800D01*
X121297748Y-59431754D01*
G37*
%TD.AperFunction*%
%TD*%
M02*
