%TF.GenerationSoftware,KiCad,Pcbnew,9.0.3*%
%TF.CreationDate,2025-08-30T18:08:08-03:00*%
%TF.ProjectId,PCB_Integradora,5043425f-496e-4746-9567-7261646f7261,rev?*%
%TF.SameCoordinates,Original*%
%TF.FileFunction,Legend,Bot*%
%TF.FilePolarity,Positive*%
%FSLAX46Y46*%
G04 Gerber Fmt 4.6, Leading zero omitted, Abs format (unit mm)*
G04 Created by KiCad (PCBNEW 9.0.3) date 2025-08-30 18:08:08*
%MOMM*%
%LPD*%
G01*
G04 APERTURE LIST*
%ADD10C,0.300000*%
%ADD11C,0.150000*%
%ADD12C,0.000000*%
G04 APERTURE END LIST*
D10*
X70264910Y-63093687D02*
X70264910Y-64593687D01*
X70264910Y-64593687D02*
X70836339Y-64593687D01*
X70836339Y-64593687D02*
X70979196Y-64522258D01*
X70979196Y-64522258D02*
X71050625Y-64450830D01*
X71050625Y-64450830D02*
X71122053Y-64307973D01*
X71122053Y-64307973D02*
X71122053Y-64093687D01*
X71122053Y-64093687D02*
X71050625Y-63950830D01*
X71050625Y-63950830D02*
X70979196Y-63879401D01*
X70979196Y-63879401D02*
X70836339Y-63807973D01*
X70836339Y-63807973D02*
X70264910Y-63807973D01*
X71764910Y-63093687D02*
X71764910Y-64093687D01*
X71764910Y-63807973D02*
X71836339Y-63950830D01*
X71836339Y-63950830D02*
X71907768Y-64022258D01*
X71907768Y-64022258D02*
X72050625Y-64093687D01*
X72050625Y-64093687D02*
X72193482Y-64093687D01*
X72907767Y-63093687D02*
X72764910Y-63165116D01*
X72764910Y-63165116D02*
X72693481Y-63236544D01*
X72693481Y-63236544D02*
X72622053Y-63379401D01*
X72622053Y-63379401D02*
X72622053Y-63807973D01*
X72622053Y-63807973D02*
X72693481Y-63950830D01*
X72693481Y-63950830D02*
X72764910Y-64022258D01*
X72764910Y-64022258D02*
X72907767Y-64093687D01*
X72907767Y-64093687D02*
X73122053Y-64093687D01*
X73122053Y-64093687D02*
X73264910Y-64022258D01*
X73264910Y-64022258D02*
X73336339Y-63950830D01*
X73336339Y-63950830D02*
X73407767Y-63807973D01*
X73407767Y-63807973D02*
X73407767Y-63379401D01*
X73407767Y-63379401D02*
X73336339Y-63236544D01*
X73336339Y-63236544D02*
X73264910Y-63165116D01*
X73264910Y-63165116D02*
X73122053Y-63093687D01*
X73122053Y-63093687D02*
X72907767Y-63093687D01*
X74693482Y-64093687D02*
X74693482Y-62879401D01*
X74693482Y-62879401D02*
X74622053Y-62736544D01*
X74622053Y-62736544D02*
X74550624Y-62665116D01*
X74550624Y-62665116D02*
X74407767Y-62593687D01*
X74407767Y-62593687D02*
X74193482Y-62593687D01*
X74193482Y-62593687D02*
X74050624Y-62665116D01*
X74693482Y-63165116D02*
X74550624Y-63093687D01*
X74550624Y-63093687D02*
X74264910Y-63093687D01*
X74264910Y-63093687D02*
X74122053Y-63165116D01*
X74122053Y-63165116D02*
X74050624Y-63236544D01*
X74050624Y-63236544D02*
X73979196Y-63379401D01*
X73979196Y-63379401D02*
X73979196Y-63807973D01*
X73979196Y-63807973D02*
X74050624Y-63950830D01*
X74050624Y-63950830D02*
X74122053Y-64022258D01*
X74122053Y-64022258D02*
X74264910Y-64093687D01*
X74264910Y-64093687D02*
X74550624Y-64093687D01*
X74550624Y-64093687D02*
X74693482Y-64022258D01*
X75407767Y-63093687D02*
X75407767Y-64093687D01*
X75407767Y-63807973D02*
X75479196Y-63950830D01*
X75479196Y-63950830D02*
X75550625Y-64022258D01*
X75550625Y-64022258D02*
X75693482Y-64093687D01*
X75693482Y-64093687D02*
X75836339Y-64093687D01*
X76979196Y-63093687D02*
X76979196Y-63879401D01*
X76979196Y-63879401D02*
X76907767Y-64022258D01*
X76907767Y-64022258D02*
X76764910Y-64093687D01*
X76764910Y-64093687D02*
X76479196Y-64093687D01*
X76479196Y-64093687D02*
X76336338Y-64022258D01*
X76979196Y-63165116D02*
X76836338Y-63093687D01*
X76836338Y-63093687D02*
X76479196Y-63093687D01*
X76479196Y-63093687D02*
X76336338Y-63165116D01*
X76336338Y-63165116D02*
X76264910Y-63307973D01*
X76264910Y-63307973D02*
X76264910Y-63450830D01*
X76264910Y-63450830D02*
X76336338Y-63593687D01*
X76336338Y-63593687D02*
X76479196Y-63665116D01*
X76479196Y-63665116D02*
X76836338Y-63665116D01*
X76836338Y-63665116D02*
X76979196Y-63736544D01*
X77693481Y-63093687D02*
X77693481Y-64093687D01*
X77693481Y-63950830D02*
X77764910Y-64022258D01*
X77764910Y-64022258D02*
X77907767Y-64093687D01*
X77907767Y-64093687D02*
X78122053Y-64093687D01*
X78122053Y-64093687D02*
X78264910Y-64022258D01*
X78264910Y-64022258D02*
X78336339Y-63879401D01*
X78336339Y-63879401D02*
X78336339Y-63093687D01*
X78336339Y-63879401D02*
X78407767Y-64022258D01*
X78407767Y-64022258D02*
X78550624Y-64093687D01*
X78550624Y-64093687D02*
X78764910Y-64093687D01*
X78764910Y-64093687D02*
X78907767Y-64022258D01*
X78907767Y-64022258D02*
X78979196Y-63879401D01*
X78979196Y-63879401D02*
X78979196Y-63093687D01*
X80336339Y-63093687D02*
X80336339Y-63879401D01*
X80336339Y-63879401D02*
X80264910Y-64022258D01*
X80264910Y-64022258D02*
X80122053Y-64093687D01*
X80122053Y-64093687D02*
X79836339Y-64093687D01*
X79836339Y-64093687D02*
X79693481Y-64022258D01*
X80336339Y-63165116D02*
X80193481Y-63093687D01*
X80193481Y-63093687D02*
X79836339Y-63093687D01*
X79836339Y-63093687D02*
X79693481Y-63165116D01*
X79693481Y-63165116D02*
X79622053Y-63307973D01*
X79622053Y-63307973D02*
X79622053Y-63450830D01*
X79622053Y-63450830D02*
X79693481Y-63593687D01*
X79693481Y-63593687D02*
X79836339Y-63665116D01*
X79836339Y-63665116D02*
X80193481Y-63665116D01*
X80193481Y-63665116D02*
X80336339Y-63736544D01*
X81693482Y-63093687D02*
X81693482Y-64593687D01*
X81693482Y-63165116D02*
X81550624Y-63093687D01*
X81550624Y-63093687D02*
X81264910Y-63093687D01*
X81264910Y-63093687D02*
X81122053Y-63165116D01*
X81122053Y-63165116D02*
X81050624Y-63236544D01*
X81050624Y-63236544D02*
X80979196Y-63379401D01*
X80979196Y-63379401D02*
X80979196Y-63807973D01*
X80979196Y-63807973D02*
X81050624Y-63950830D01*
X81050624Y-63950830D02*
X81122053Y-64022258D01*
X81122053Y-64022258D02*
X81264910Y-64093687D01*
X81264910Y-64093687D02*
X81550624Y-64093687D01*
X81550624Y-64093687D02*
X81693482Y-64022258D01*
X82622053Y-63093687D02*
X82479196Y-63165116D01*
X82479196Y-63165116D02*
X82407767Y-63236544D01*
X82407767Y-63236544D02*
X82336339Y-63379401D01*
X82336339Y-63379401D02*
X82336339Y-63807973D01*
X82336339Y-63807973D02*
X82407767Y-63950830D01*
X82407767Y-63950830D02*
X82479196Y-64022258D01*
X82479196Y-64022258D02*
X82622053Y-64093687D01*
X82622053Y-64093687D02*
X82836339Y-64093687D01*
X82836339Y-64093687D02*
X82979196Y-64022258D01*
X82979196Y-64022258D02*
X83050625Y-63950830D01*
X83050625Y-63950830D02*
X83122053Y-63807973D01*
X83122053Y-63807973D02*
X83122053Y-63379401D01*
X83122053Y-63379401D02*
X83050625Y-63236544D01*
X83050625Y-63236544D02*
X82979196Y-63165116D01*
X82979196Y-63165116D02*
X82836339Y-63093687D01*
X82836339Y-63093687D02*
X82622053Y-63093687D01*
X83764910Y-63093687D02*
X83764910Y-64093687D01*
X83764910Y-63807973D02*
X83836339Y-63950830D01*
X83836339Y-63950830D02*
X83907768Y-64022258D01*
X83907768Y-64022258D02*
X84050625Y-64093687D01*
X84050625Y-64093687D02*
X84193482Y-64093687D01*
X70264910Y-61464485D02*
X70764910Y-61464485D01*
X70979196Y-60678771D02*
X70264910Y-60678771D01*
X70264910Y-60678771D02*
X70264910Y-62178771D01*
X70264910Y-62178771D02*
X70979196Y-62178771D01*
X71550625Y-60750200D02*
X71764911Y-60678771D01*
X71764911Y-60678771D02*
X72122053Y-60678771D01*
X72122053Y-60678771D02*
X72264911Y-60750200D01*
X72264911Y-60750200D02*
X72336339Y-60821628D01*
X72336339Y-60821628D02*
X72407768Y-60964485D01*
X72407768Y-60964485D02*
X72407768Y-61107342D01*
X72407768Y-61107342D02*
X72336339Y-61250200D01*
X72336339Y-61250200D02*
X72264911Y-61321628D01*
X72264911Y-61321628D02*
X72122053Y-61393057D01*
X72122053Y-61393057D02*
X71836339Y-61464485D01*
X71836339Y-61464485D02*
X71693482Y-61535914D01*
X71693482Y-61535914D02*
X71622053Y-61607342D01*
X71622053Y-61607342D02*
X71550625Y-61750200D01*
X71550625Y-61750200D02*
X71550625Y-61893057D01*
X71550625Y-61893057D02*
X71622053Y-62035914D01*
X71622053Y-62035914D02*
X71693482Y-62107342D01*
X71693482Y-62107342D02*
X71836339Y-62178771D01*
X71836339Y-62178771D02*
X72193482Y-62178771D01*
X72193482Y-62178771D02*
X72407768Y-62107342D01*
X73050624Y-60678771D02*
X73050624Y-62178771D01*
X73050624Y-62178771D02*
X73622053Y-62178771D01*
X73622053Y-62178771D02*
X73764910Y-62107342D01*
X73764910Y-62107342D02*
X73836339Y-62035914D01*
X73836339Y-62035914D02*
X73907767Y-61893057D01*
X73907767Y-61893057D02*
X73907767Y-61678771D01*
X73907767Y-61678771D02*
X73836339Y-61535914D01*
X73836339Y-61535914D02*
X73764910Y-61464485D01*
X73764910Y-61464485D02*
X73622053Y-61393057D01*
X73622053Y-61393057D02*
X73050624Y-61393057D01*
D11*
X117036620Y-103701187D02*
X117036620Y-102701187D01*
X117036620Y-102701187D02*
X116655668Y-102701187D01*
X116655668Y-102701187D02*
X116560430Y-102748806D01*
X116560430Y-102748806D02*
X116512811Y-102796425D01*
X116512811Y-102796425D02*
X116465192Y-102891663D01*
X116465192Y-102891663D02*
X116465192Y-103034520D01*
X116465192Y-103034520D02*
X116512811Y-103129758D01*
X116512811Y-103129758D02*
X116560430Y-103177377D01*
X116560430Y-103177377D02*
X116655668Y-103224996D01*
X116655668Y-103224996D02*
X117036620Y-103224996D01*
X116036620Y-103701187D02*
X116036620Y-103034520D01*
X116036620Y-103224996D02*
X115989001Y-103129758D01*
X115989001Y-103129758D02*
X115941382Y-103082139D01*
X115941382Y-103082139D02*
X115846144Y-103034520D01*
X115846144Y-103034520D02*
X115750906Y-103034520D01*
X115274715Y-103701187D02*
X115369953Y-103653568D01*
X115369953Y-103653568D02*
X115417572Y-103605948D01*
X115417572Y-103605948D02*
X115465191Y-103510710D01*
X115465191Y-103510710D02*
X115465191Y-103224996D01*
X115465191Y-103224996D02*
X115417572Y-103129758D01*
X115417572Y-103129758D02*
X115369953Y-103082139D01*
X115369953Y-103082139D02*
X115274715Y-103034520D01*
X115274715Y-103034520D02*
X115131858Y-103034520D01*
X115131858Y-103034520D02*
X115036620Y-103082139D01*
X115036620Y-103082139D02*
X114989001Y-103129758D01*
X114989001Y-103129758D02*
X114941382Y-103224996D01*
X114941382Y-103224996D02*
X114941382Y-103510710D01*
X114941382Y-103510710D02*
X114989001Y-103605948D01*
X114989001Y-103605948D02*
X115036620Y-103653568D01*
X115036620Y-103653568D02*
X115131858Y-103701187D01*
X115131858Y-103701187D02*
X115274715Y-103701187D01*
X114608048Y-103034520D02*
X114369953Y-103701187D01*
X114131858Y-103034520D02*
X114369953Y-103701187D01*
X114369953Y-103701187D02*
X114465191Y-103939282D01*
X114465191Y-103939282D02*
X114512810Y-103986901D01*
X114512810Y-103986901D02*
X114608048Y-104034520D01*
X113369953Y-103653568D02*
X113465191Y-103701187D01*
X113465191Y-103701187D02*
X113655667Y-103701187D01*
X113655667Y-103701187D02*
X113750905Y-103653568D01*
X113750905Y-103653568D02*
X113798524Y-103558329D01*
X113798524Y-103558329D02*
X113798524Y-103177377D01*
X113798524Y-103177377D02*
X113750905Y-103082139D01*
X113750905Y-103082139D02*
X113655667Y-103034520D01*
X113655667Y-103034520D02*
X113465191Y-103034520D01*
X113465191Y-103034520D02*
X113369953Y-103082139D01*
X113369953Y-103082139D02*
X113322334Y-103177377D01*
X113322334Y-103177377D02*
X113322334Y-103272615D01*
X113322334Y-103272615D02*
X113798524Y-103367853D01*
X112465191Y-103653568D02*
X112560429Y-103701187D01*
X112560429Y-103701187D02*
X112750905Y-103701187D01*
X112750905Y-103701187D02*
X112846143Y-103653568D01*
X112846143Y-103653568D02*
X112893762Y-103605948D01*
X112893762Y-103605948D02*
X112941381Y-103510710D01*
X112941381Y-103510710D02*
X112941381Y-103224996D01*
X112941381Y-103224996D02*
X112893762Y-103129758D01*
X112893762Y-103129758D02*
X112846143Y-103082139D01*
X112846143Y-103082139D02*
X112750905Y-103034520D01*
X112750905Y-103034520D02*
X112560429Y-103034520D01*
X112560429Y-103034520D02*
X112465191Y-103082139D01*
X112179476Y-103034520D02*
X111798524Y-103034520D01*
X112036619Y-102701187D02*
X112036619Y-103558329D01*
X112036619Y-103558329D02*
X111989000Y-103653568D01*
X111989000Y-103653568D02*
X111893762Y-103701187D01*
X111893762Y-103701187D02*
X111798524Y-103701187D01*
X111322333Y-103701187D02*
X111417571Y-103653568D01*
X111417571Y-103653568D02*
X111465190Y-103605948D01*
X111465190Y-103605948D02*
X111512809Y-103510710D01*
X111512809Y-103510710D02*
X111512809Y-103224996D01*
X111512809Y-103224996D02*
X111465190Y-103129758D01*
X111465190Y-103129758D02*
X111417571Y-103082139D01*
X111417571Y-103082139D02*
X111322333Y-103034520D01*
X111322333Y-103034520D02*
X111179476Y-103034520D01*
X111179476Y-103034520D02*
X111084238Y-103082139D01*
X111084238Y-103082139D02*
X111036619Y-103129758D01*
X111036619Y-103129758D02*
X110989000Y-103224996D01*
X110989000Y-103224996D02*
X110989000Y-103510710D01*
X110989000Y-103510710D02*
X111036619Y-103605948D01*
X111036619Y-103605948D02*
X111084238Y-103653568D01*
X111084238Y-103653568D02*
X111179476Y-103701187D01*
X111179476Y-103701187D02*
X111322333Y-103701187D01*
X109465190Y-103177377D02*
X109798523Y-103177377D01*
X109798523Y-103701187D02*
X109798523Y-102701187D01*
X109798523Y-102701187D02*
X109322333Y-102701187D01*
X108941380Y-103701187D02*
X108941380Y-103034520D01*
X108941380Y-102701187D02*
X108988999Y-102748806D01*
X108988999Y-102748806D02*
X108941380Y-102796425D01*
X108941380Y-102796425D02*
X108893761Y-102748806D01*
X108893761Y-102748806D02*
X108941380Y-102701187D01*
X108941380Y-102701187D02*
X108941380Y-102796425D01*
X108465190Y-103034520D02*
X108465190Y-103701187D01*
X108465190Y-103129758D02*
X108417571Y-103082139D01*
X108417571Y-103082139D02*
X108322333Y-103034520D01*
X108322333Y-103034520D02*
X108179476Y-103034520D01*
X108179476Y-103034520D02*
X108084238Y-103082139D01*
X108084238Y-103082139D02*
X108036619Y-103177377D01*
X108036619Y-103177377D02*
X108036619Y-103701187D01*
X107131857Y-103701187D02*
X107131857Y-103177377D01*
X107131857Y-103177377D02*
X107179476Y-103082139D01*
X107179476Y-103082139D02*
X107274714Y-103034520D01*
X107274714Y-103034520D02*
X107465190Y-103034520D01*
X107465190Y-103034520D02*
X107560428Y-103082139D01*
X107131857Y-103653568D02*
X107227095Y-103701187D01*
X107227095Y-103701187D02*
X107465190Y-103701187D01*
X107465190Y-103701187D02*
X107560428Y-103653568D01*
X107560428Y-103653568D02*
X107608047Y-103558329D01*
X107608047Y-103558329D02*
X107608047Y-103463091D01*
X107608047Y-103463091D02*
X107560428Y-103367853D01*
X107560428Y-103367853D02*
X107465190Y-103320234D01*
X107465190Y-103320234D02*
X107227095Y-103320234D01*
X107227095Y-103320234D02*
X107131857Y-103272615D01*
X106512809Y-103701187D02*
X106608047Y-103653568D01*
X106608047Y-103653568D02*
X106655666Y-103558329D01*
X106655666Y-103558329D02*
X106655666Y-102701187D01*
X117036620Y-104311131D02*
X117036620Y-105120654D01*
X117036620Y-105120654D02*
X116989001Y-105215892D01*
X116989001Y-105215892D02*
X116941382Y-105263512D01*
X116941382Y-105263512D02*
X116846144Y-105311131D01*
X116846144Y-105311131D02*
X116655668Y-105311131D01*
X116655668Y-105311131D02*
X116560430Y-105263512D01*
X116560430Y-105263512D02*
X116512811Y-105215892D01*
X116512811Y-105215892D02*
X116465192Y-105120654D01*
X116465192Y-105120654D02*
X116465192Y-104311131D01*
X116131858Y-104311131D02*
X115560430Y-104311131D01*
X115846144Y-105311131D02*
X115846144Y-104311131D01*
X115227096Y-105311131D02*
X115227096Y-104311131D01*
X115227096Y-104311131D02*
X114655668Y-105311131D01*
X114655668Y-105311131D02*
X114655668Y-104311131D01*
X113084239Y-104787321D02*
X113417572Y-104787321D01*
X113417572Y-105311131D02*
X113417572Y-104311131D01*
X113417572Y-104311131D02*
X112941382Y-104311131D01*
X111989001Y-105311131D02*
X112322334Y-104834940D01*
X112560429Y-105311131D02*
X112560429Y-104311131D01*
X112560429Y-104311131D02*
X112179477Y-104311131D01*
X112179477Y-104311131D02*
X112084239Y-104358750D01*
X112084239Y-104358750D02*
X112036620Y-104406369D01*
X112036620Y-104406369D02*
X111989001Y-104501607D01*
X111989001Y-104501607D02*
X111989001Y-104644464D01*
X111989001Y-104644464D02*
X112036620Y-104739702D01*
X112036620Y-104739702D02*
X112084239Y-104787321D01*
X112084239Y-104787321D02*
X112179477Y-104834940D01*
X112179477Y-104834940D02*
X112560429Y-104834940D01*
X111227096Y-104787321D02*
X111084239Y-104834940D01*
X111084239Y-104834940D02*
X111036620Y-104882559D01*
X111036620Y-104882559D02*
X110989001Y-104977797D01*
X110989001Y-104977797D02*
X110989001Y-105120654D01*
X110989001Y-105120654D02*
X111036620Y-105215892D01*
X111036620Y-105215892D02*
X111084239Y-105263512D01*
X111084239Y-105263512D02*
X111179477Y-105311131D01*
X111179477Y-105311131D02*
X111560429Y-105311131D01*
X111560429Y-105311131D02*
X111560429Y-104311131D01*
X111560429Y-104311131D02*
X111227096Y-104311131D01*
X111227096Y-104311131D02*
X111131858Y-104358750D01*
X111131858Y-104358750D02*
X111084239Y-104406369D01*
X111084239Y-104406369D02*
X111036620Y-104501607D01*
X111036620Y-104501607D02*
X111036620Y-104596845D01*
X111036620Y-104596845D02*
X111084239Y-104692083D01*
X111084239Y-104692083D02*
X111131858Y-104739702D01*
X111131858Y-104739702D02*
X111227096Y-104787321D01*
X111227096Y-104787321D02*
X111560429Y-104787321D01*
X110608048Y-105025416D02*
X110131858Y-105025416D01*
X110703286Y-105311131D02*
X110369953Y-104311131D01*
X110369953Y-104311131D02*
X110036620Y-105311131D01*
X117084239Y-106635360D02*
X116608049Y-106635360D01*
X117179477Y-106921075D02*
X116846144Y-105921075D01*
X116846144Y-105921075D02*
X116512811Y-106921075D01*
X116179477Y-106254408D02*
X116179477Y-106921075D01*
X116179477Y-106349646D02*
X116131858Y-106302027D01*
X116131858Y-106302027D02*
X116036620Y-106254408D01*
X116036620Y-106254408D02*
X115893763Y-106254408D01*
X115893763Y-106254408D02*
X115798525Y-106302027D01*
X115798525Y-106302027D02*
X115750906Y-106397265D01*
X115750906Y-106397265D02*
X115750906Y-106921075D01*
X114846144Y-106921075D02*
X114846144Y-105921075D01*
X114846144Y-106873456D02*
X114941382Y-106921075D01*
X114941382Y-106921075D02*
X115131858Y-106921075D01*
X115131858Y-106921075D02*
X115227096Y-106873456D01*
X115227096Y-106873456D02*
X115274715Y-106825836D01*
X115274715Y-106825836D02*
X115322334Y-106730598D01*
X115322334Y-106730598D02*
X115322334Y-106444884D01*
X115322334Y-106444884D02*
X115274715Y-106349646D01*
X115274715Y-106349646D02*
X115227096Y-106302027D01*
X115227096Y-106302027D02*
X115131858Y-106254408D01*
X115131858Y-106254408D02*
X114941382Y-106254408D01*
X114941382Y-106254408D02*
X114846144Y-106302027D01*
X114369953Y-106921075D02*
X114369953Y-106254408D01*
X114369953Y-106444884D02*
X114322334Y-106349646D01*
X114322334Y-106349646D02*
X114274715Y-106302027D01*
X114274715Y-106302027D02*
X114179477Y-106254408D01*
X114179477Y-106254408D02*
X114084239Y-106254408D01*
X113369953Y-106873456D02*
X113465191Y-106921075D01*
X113465191Y-106921075D02*
X113655667Y-106921075D01*
X113655667Y-106921075D02*
X113750905Y-106873456D01*
X113750905Y-106873456D02*
X113798524Y-106778217D01*
X113798524Y-106778217D02*
X113798524Y-106397265D01*
X113798524Y-106397265D02*
X113750905Y-106302027D01*
X113750905Y-106302027D02*
X113655667Y-106254408D01*
X113655667Y-106254408D02*
X113465191Y-106254408D01*
X113465191Y-106254408D02*
X113369953Y-106302027D01*
X113369953Y-106302027D02*
X113322334Y-106397265D01*
X113322334Y-106397265D02*
X113322334Y-106492503D01*
X113322334Y-106492503D02*
X113798524Y-106587741D01*
X112893762Y-106254408D02*
X112893762Y-106921075D01*
X112893762Y-106349646D02*
X112846143Y-106302027D01*
X112846143Y-106302027D02*
X112750905Y-106254408D01*
X112750905Y-106254408D02*
X112608048Y-106254408D01*
X112608048Y-106254408D02*
X112512810Y-106302027D01*
X112512810Y-106302027D02*
X112465191Y-106397265D01*
X112465191Y-106397265D02*
X112465191Y-106921075D01*
X111560429Y-106921075D02*
X111560429Y-106397265D01*
X111560429Y-106397265D02*
X111608048Y-106302027D01*
X111608048Y-106302027D02*
X111703286Y-106254408D01*
X111703286Y-106254408D02*
X111893762Y-106254408D01*
X111893762Y-106254408D02*
X111989000Y-106302027D01*
X111560429Y-106873456D02*
X111655667Y-106921075D01*
X111655667Y-106921075D02*
X111893762Y-106921075D01*
X111893762Y-106921075D02*
X111989000Y-106873456D01*
X111989000Y-106873456D02*
X112036619Y-106778217D01*
X112036619Y-106778217D02*
X112036619Y-106682979D01*
X112036619Y-106682979D02*
X111989000Y-106587741D01*
X111989000Y-106587741D02*
X111893762Y-106540122D01*
X111893762Y-106540122D02*
X111655667Y-106540122D01*
X111655667Y-106540122D02*
X111560429Y-106492503D01*
X110655667Y-106873456D02*
X110750905Y-106921075D01*
X110750905Y-106921075D02*
X110941381Y-106921075D01*
X110941381Y-106921075D02*
X111036619Y-106873456D01*
X111036619Y-106873456D02*
X111084238Y-106825836D01*
X111084238Y-106825836D02*
X111131857Y-106730598D01*
X111131857Y-106730598D02*
X111131857Y-106444884D01*
X111131857Y-106444884D02*
X111084238Y-106349646D01*
X111084238Y-106349646D02*
X111036619Y-106302027D01*
X111036619Y-106302027D02*
X110941381Y-106254408D01*
X110941381Y-106254408D02*
X110750905Y-106254408D01*
X110750905Y-106254408D02*
X110655667Y-106302027D01*
X109798524Y-106873456D02*
X109893762Y-106921075D01*
X109893762Y-106921075D02*
X110084238Y-106921075D01*
X110084238Y-106921075D02*
X110179476Y-106873456D01*
X110179476Y-106873456D02*
X110227095Y-106825836D01*
X110227095Y-106825836D02*
X110274714Y-106730598D01*
X110274714Y-106730598D02*
X110274714Y-106444884D01*
X110274714Y-106444884D02*
X110227095Y-106349646D01*
X110227095Y-106349646D02*
X110179476Y-106302027D01*
X110179476Y-106302027D02*
X110084238Y-106254408D01*
X110084238Y-106254408D02*
X109893762Y-106254408D01*
X109893762Y-106254408D02*
X109798524Y-106302027D01*
X109369952Y-106921075D02*
X109369952Y-106254408D01*
X109369952Y-105921075D02*
X109417571Y-105968694D01*
X109417571Y-105968694D02*
X109369952Y-106016313D01*
X109369952Y-106016313D02*
X109322333Y-105968694D01*
X109322333Y-105968694D02*
X109369952Y-105921075D01*
X109369952Y-105921075D02*
X109369952Y-106016313D01*
X108846143Y-106873456D02*
X108846143Y-106921075D01*
X108846143Y-106921075D02*
X108893762Y-107016313D01*
X108893762Y-107016313D02*
X108941381Y-107063932D01*
X107655667Y-106397265D02*
X107322334Y-106397265D01*
X107179477Y-106921075D02*
X107655667Y-106921075D01*
X107655667Y-106921075D02*
X107655667Y-105921075D01*
X107655667Y-105921075D02*
X107179477Y-105921075D01*
X106608048Y-106921075D02*
X106703286Y-106873456D01*
X106703286Y-106873456D02*
X106750905Y-106778217D01*
X106750905Y-106778217D02*
X106750905Y-105921075D01*
X106227095Y-106921075D02*
X106227095Y-106254408D01*
X106227095Y-105921075D02*
X106274714Y-105968694D01*
X106274714Y-105968694D02*
X106227095Y-106016313D01*
X106227095Y-106016313D02*
X106179476Y-105968694D01*
X106179476Y-105968694D02*
X106227095Y-105921075D01*
X106227095Y-105921075D02*
X106227095Y-106016313D01*
X105322334Y-106921075D02*
X105322334Y-106397265D01*
X105322334Y-106397265D02*
X105369953Y-106302027D01*
X105369953Y-106302027D02*
X105465191Y-106254408D01*
X105465191Y-106254408D02*
X105655667Y-106254408D01*
X105655667Y-106254408D02*
X105750905Y-106302027D01*
X105322334Y-106873456D02*
X105417572Y-106921075D01*
X105417572Y-106921075D02*
X105655667Y-106921075D01*
X105655667Y-106921075D02*
X105750905Y-106873456D01*
X105750905Y-106873456D02*
X105798524Y-106778217D01*
X105798524Y-106778217D02*
X105798524Y-106682979D01*
X105798524Y-106682979D02*
X105750905Y-106587741D01*
X105750905Y-106587741D02*
X105655667Y-106540122D01*
X105655667Y-106540122D02*
X105417572Y-106540122D01*
X105417572Y-106540122D02*
X105322334Y-106492503D01*
X104846143Y-106254408D02*
X104846143Y-106921075D01*
X104846143Y-106349646D02*
X104798524Y-106302027D01*
X104798524Y-106302027D02*
X104703286Y-106254408D01*
X104703286Y-106254408D02*
X104560429Y-106254408D01*
X104560429Y-106254408D02*
X104465191Y-106302027D01*
X104465191Y-106302027D02*
X104417572Y-106397265D01*
X104417572Y-106397265D02*
X104417572Y-106921075D01*
X116465192Y-108435780D02*
X116512811Y-108483400D01*
X116512811Y-108483400D02*
X116655668Y-108531019D01*
X116655668Y-108531019D02*
X116750906Y-108531019D01*
X116750906Y-108531019D02*
X116893763Y-108483400D01*
X116893763Y-108483400D02*
X116989001Y-108388161D01*
X116989001Y-108388161D02*
X117036620Y-108292923D01*
X117036620Y-108292923D02*
X117084239Y-108102447D01*
X117084239Y-108102447D02*
X117084239Y-107959590D01*
X117084239Y-107959590D02*
X117036620Y-107769114D01*
X117036620Y-107769114D02*
X116989001Y-107673876D01*
X116989001Y-107673876D02*
X116893763Y-107578638D01*
X116893763Y-107578638D02*
X116750906Y-107531019D01*
X116750906Y-107531019D02*
X116655668Y-107531019D01*
X116655668Y-107531019D02*
X116512811Y-107578638D01*
X116512811Y-107578638D02*
X116465192Y-107626257D01*
X115608049Y-108531019D02*
X115608049Y-108007209D01*
X115608049Y-108007209D02*
X115655668Y-107911971D01*
X115655668Y-107911971D02*
X115750906Y-107864352D01*
X115750906Y-107864352D02*
X115941382Y-107864352D01*
X115941382Y-107864352D02*
X116036620Y-107911971D01*
X115608049Y-108483400D02*
X115703287Y-108531019D01*
X115703287Y-108531019D02*
X115941382Y-108531019D01*
X115941382Y-108531019D02*
X116036620Y-108483400D01*
X116036620Y-108483400D02*
X116084239Y-108388161D01*
X116084239Y-108388161D02*
X116084239Y-108292923D01*
X116084239Y-108292923D02*
X116036620Y-108197685D01*
X116036620Y-108197685D02*
X115941382Y-108150066D01*
X115941382Y-108150066D02*
X115703287Y-108150066D01*
X115703287Y-108150066D02*
X115608049Y-108102447D01*
X115131858Y-108531019D02*
X115131858Y-107864352D01*
X115131858Y-108054828D02*
X115084239Y-107959590D01*
X115084239Y-107959590D02*
X115036620Y-107911971D01*
X115036620Y-107911971D02*
X114941382Y-107864352D01*
X114941382Y-107864352D02*
X114846144Y-107864352D01*
X114512810Y-108531019D02*
X114512810Y-107864352D01*
X114512810Y-108054828D02*
X114465191Y-107959590D01*
X114465191Y-107959590D02*
X114417572Y-107911971D01*
X114417572Y-107911971D02*
X114322334Y-107864352D01*
X114322334Y-107864352D02*
X114227096Y-107864352D01*
X113465191Y-108531019D02*
X113465191Y-108007209D01*
X113465191Y-108007209D02*
X113512810Y-107911971D01*
X113512810Y-107911971D02*
X113608048Y-107864352D01*
X113608048Y-107864352D02*
X113798524Y-107864352D01*
X113798524Y-107864352D02*
X113893762Y-107911971D01*
X113465191Y-108483400D02*
X113560429Y-108531019D01*
X113560429Y-108531019D02*
X113798524Y-108531019D01*
X113798524Y-108531019D02*
X113893762Y-108483400D01*
X113893762Y-108483400D02*
X113941381Y-108388161D01*
X113941381Y-108388161D02*
X113941381Y-108292923D01*
X113941381Y-108292923D02*
X113893762Y-108197685D01*
X113893762Y-108197685D02*
X113798524Y-108150066D01*
X113798524Y-108150066D02*
X113560429Y-108150066D01*
X113560429Y-108150066D02*
X113465191Y-108102447D01*
X112941381Y-108483400D02*
X112941381Y-108531019D01*
X112941381Y-108531019D02*
X112989000Y-108626257D01*
X112989000Y-108626257D02*
X113036619Y-108673876D01*
X111274715Y-108531019D02*
X111750905Y-108531019D01*
X111750905Y-108531019D02*
X111750905Y-107531019D01*
X110512810Y-107864352D02*
X110512810Y-108531019D01*
X110941381Y-107864352D02*
X110941381Y-108388161D01*
X110941381Y-108388161D02*
X110893762Y-108483400D01*
X110893762Y-108483400D02*
X110798524Y-108531019D01*
X110798524Y-108531019D02*
X110655667Y-108531019D01*
X110655667Y-108531019D02*
X110560429Y-108483400D01*
X110560429Y-108483400D02*
X110512810Y-108435780D01*
X109608048Y-108483400D02*
X109703286Y-108531019D01*
X109703286Y-108531019D02*
X109893762Y-108531019D01*
X109893762Y-108531019D02*
X109989000Y-108483400D01*
X109989000Y-108483400D02*
X110036619Y-108435780D01*
X110036619Y-108435780D02*
X110084238Y-108340542D01*
X110084238Y-108340542D02*
X110084238Y-108054828D01*
X110084238Y-108054828D02*
X110036619Y-107959590D01*
X110036619Y-107959590D02*
X109989000Y-107911971D01*
X109989000Y-107911971D02*
X109893762Y-107864352D01*
X109893762Y-107864352D02*
X109703286Y-107864352D01*
X109703286Y-107864352D02*
X109608048Y-107911971D01*
X108750905Y-108531019D02*
X108750905Y-108007209D01*
X108750905Y-108007209D02*
X108798524Y-107911971D01*
X108798524Y-107911971D02*
X108893762Y-107864352D01*
X108893762Y-107864352D02*
X109084238Y-107864352D01*
X109084238Y-107864352D02*
X109179476Y-107911971D01*
X108750905Y-108483400D02*
X108846143Y-108531019D01*
X108846143Y-108531019D02*
X109084238Y-108531019D01*
X109084238Y-108531019D02*
X109179476Y-108483400D01*
X109179476Y-108483400D02*
X109227095Y-108388161D01*
X109227095Y-108388161D02*
X109227095Y-108292923D01*
X109227095Y-108292923D02*
X109179476Y-108197685D01*
X109179476Y-108197685D02*
X109084238Y-108150066D01*
X109084238Y-108150066D02*
X108846143Y-108150066D01*
X108846143Y-108150066D02*
X108750905Y-108102447D01*
X108322333Y-108483400D02*
X108227095Y-108531019D01*
X108227095Y-108531019D02*
X108036619Y-108531019D01*
X108036619Y-108531019D02*
X107941381Y-108483400D01*
X107941381Y-108483400D02*
X107893762Y-108388161D01*
X107893762Y-108388161D02*
X107893762Y-108340542D01*
X107893762Y-108340542D02*
X107941381Y-108245304D01*
X107941381Y-108245304D02*
X108036619Y-108197685D01*
X108036619Y-108197685D02*
X108179476Y-108197685D01*
X108179476Y-108197685D02*
X108274714Y-108150066D01*
X108274714Y-108150066D02*
X108322333Y-108054828D01*
X108322333Y-108054828D02*
X108322333Y-108007209D01*
X108322333Y-108007209D02*
X108274714Y-107911971D01*
X108274714Y-107911971D02*
X108179476Y-107864352D01*
X108179476Y-107864352D02*
X108036619Y-107864352D01*
X108036619Y-107864352D02*
X107941381Y-107911971D01*
D12*
%TO.C,G\u002A\u002A\u002A*%
G36*
X123005509Y-102795900D02*
G01*
X123005653Y-103000437D01*
X123006070Y-103192896D01*
X123006731Y-103369844D01*
X123007612Y-103527846D01*
X123008685Y-103663470D01*
X123009925Y-103773280D01*
X123011304Y-103853844D01*
X123012798Y-103901728D01*
X123014074Y-103914200D01*
X123050119Y-103906149D01*
X123112465Y-103884395D01*
X123192574Y-103852538D01*
X123281909Y-103814176D01*
X123371933Y-103772909D01*
X123454108Y-103732335D01*
X123487233Y-103714726D01*
X123705070Y-103575990D01*
X123912024Y-103406702D01*
X124100394Y-103214403D01*
X124262475Y-103006636D01*
X124346301Y-102873509D01*
X124435613Y-102697281D01*
X124512378Y-102505984D01*
X124573581Y-102309788D01*
X124616207Y-102118859D01*
X124637240Y-101943368D01*
X124638944Y-101886673D01*
X124639200Y-101755394D01*
X125274246Y-101755394D01*
X125909293Y-101755394D01*
X125896293Y-101983013D01*
X125856959Y-102335833D01*
X125780696Y-102681082D01*
X125669165Y-103016078D01*
X125524025Y-103338140D01*
X125346936Y-103644586D01*
X125139559Y-103932733D01*
X124903554Y-104199901D01*
X124640580Y-104443408D01*
X124352299Y-104660571D01*
X124165958Y-104778236D01*
X123926950Y-104905304D01*
X123670634Y-105017144D01*
X123410035Y-105108703D01*
X123158178Y-105174927D01*
X123127063Y-105181351D01*
X123056717Y-105199203D01*
X123014741Y-105218190D01*
X123005509Y-105230878D01*
X123011806Y-105235873D01*
X123032266Y-105240199D01*
X123069241Y-105243899D01*
X123125085Y-105247015D01*
X123202150Y-105249593D01*
X123302790Y-105251673D01*
X123429357Y-105253299D01*
X123584205Y-105254515D01*
X123769685Y-105255364D01*
X123988152Y-105255888D01*
X124241957Y-105256131D01*
X124386366Y-105256160D01*
X125767224Y-105256160D01*
X125767224Y-105868794D01*
X125767224Y-106481428D01*
X124527369Y-106481714D01*
X123287515Y-106482001D01*
X123513433Y-106558025D01*
X123847018Y-106690450D01*
X124166100Y-106857309D01*
X124467296Y-107055924D01*
X124747224Y-107283619D01*
X125002501Y-107537716D01*
X125229745Y-107815539D01*
X125376238Y-108032198D01*
X125527089Y-108303168D01*
X125655702Y-108591264D01*
X125759856Y-108889134D01*
X125837329Y-109189421D01*
X125885899Y-109484770D01*
X125903345Y-109767828D01*
X125903365Y-109777216D01*
X125903365Y-109884950D01*
X125273882Y-109884950D01*
X124644400Y-109884950D01*
X124634011Y-109695325D01*
X124600442Y-109430660D01*
X124530407Y-109169712D01*
X124426335Y-108916583D01*
X124290656Y-108675374D01*
X124125800Y-108450188D01*
X123934196Y-108245126D01*
X123718273Y-108064289D01*
X123632195Y-108004002D01*
X123540281Y-107947456D01*
X123433801Y-107889221D01*
X123322430Y-107833895D01*
X123215843Y-107786082D01*
X123123712Y-107750382D01*
X123061167Y-107732414D01*
X123005509Y-107721283D01*
X123005509Y-108812841D01*
X123005509Y-109904399D01*
X122402599Y-109904399D01*
X121799690Y-109904399D01*
X121799690Y-108813163D01*
X121799690Y-107721928D01*
X121746206Y-107735211D01*
X121665838Y-107760446D01*
X121564444Y-107799897D01*
X121454558Y-107848115D01*
X121348715Y-107899654D01*
X121273841Y-107940509D01*
X121029773Y-108104702D01*
X120813384Y-108296121D01*
X120624401Y-108515061D01*
X120462552Y-108761819D01*
X120388260Y-108902791D01*
X120283526Y-109154163D01*
X120211369Y-109409378D01*
X120173834Y-109660959D01*
X120171467Y-109695325D01*
X120160343Y-109884950D01*
X119531088Y-109884950D01*
X118901834Y-109884950D01*
X118901834Y-109762886D01*
X118906916Y-109636629D01*
X118921153Y-109486002D01*
X118943028Y-109324042D01*
X118971023Y-109163781D01*
X118972273Y-109157467D01*
X119026692Y-108940120D01*
X119104909Y-108706906D01*
X119202270Y-108468477D01*
X119314118Y-108235489D01*
X119435800Y-108018594D01*
X119538188Y-107862286D01*
X119623805Y-107751507D01*
X119733092Y-107625276D01*
X119858413Y-107491229D01*
X119992133Y-107357001D01*
X120126616Y-107230228D01*
X120254227Y-107118545D01*
X120367330Y-107029586D01*
X120379935Y-107020539D01*
X120517817Y-106930512D01*
X120680906Y-106836413D01*
X120857421Y-106744189D01*
X121035576Y-106659783D01*
X121203591Y-106589140D01*
X121313472Y-106549545D01*
X121517683Y-106482725D01*
X120277829Y-106482076D01*
X119037974Y-106481428D01*
X119037974Y-105868794D01*
X119037974Y-105256160D01*
X120418832Y-105256160D01*
X120686358Y-105256086D01*
X120917561Y-105255827D01*
X121115013Y-105255328D01*
X121281289Y-105254536D01*
X121418961Y-105253396D01*
X121530604Y-105251854D01*
X121618791Y-105249855D01*
X121686095Y-105247345D01*
X121735090Y-105244270D01*
X121768349Y-105240575D01*
X121788446Y-105236206D01*
X121797955Y-105231108D01*
X121799690Y-105226987D01*
X121783765Y-105202234D01*
X121765654Y-105197636D01*
X121714475Y-105191124D01*
X121635043Y-105173540D01*
X121535596Y-105147276D01*
X121424374Y-105114724D01*
X121309617Y-105078275D01*
X121199564Y-105040323D01*
X121118985Y-105009905D01*
X120791383Y-104859744D01*
X120483771Y-104678500D01*
X120197958Y-104468649D01*
X119935750Y-104232672D01*
X119698955Y-103973046D01*
X119489380Y-103692250D01*
X119308832Y-103392761D01*
X119159119Y-103077059D01*
X119042047Y-102747622D01*
X118959424Y-102406927D01*
X118913057Y-102057454D01*
X118907789Y-101977553D01*
X118895884Y-101755394D01*
X119530941Y-101755394D01*
X120165999Y-101755394D01*
X120165999Y-101879662D01*
X120173635Y-102005060D01*
X120194753Y-102150742D01*
X120226668Y-102301613D01*
X120265443Y-102438759D01*
X120372343Y-102705543D01*
X120511934Y-102955748D01*
X120681114Y-103186133D01*
X120876780Y-103393460D01*
X121095829Y-103574486D01*
X121335159Y-103725974D01*
X121591667Y-103844683D01*
X121622904Y-103856370D01*
X121695222Y-103882403D01*
X121752527Y-103902354D01*
X121785881Y-103913142D01*
X121790525Y-103914200D01*
X121792201Y-103895323D01*
X121793779Y-103840984D01*
X121795229Y-103754614D01*
X121796523Y-103639648D01*
X121797635Y-103499521D01*
X121798535Y-103337664D01*
X121799195Y-103157514D01*
X121799587Y-102962502D01*
X121799690Y-102795900D01*
X121799690Y-101677600D01*
X122402599Y-101677600D01*
X123005509Y-101677600D01*
X123005509Y-102795900D01*
G37*
%TD*%
M02*
