%TF.GenerationSoftware,KiCad,Pcbnew,9.0.3*%
%TF.CreationDate,2025-08-21T00:29:16-03:00*%
%TF.ProjectId,PCB_Interfaz,5043425f-496e-4746-9572-66617a2e6b69,rev?*%
%TF.SameCoordinates,Original*%
%TF.FileFunction,Legend,Top*%
%TF.FilePolarity,Positive*%
%FSLAX46Y46*%
G04 Gerber Fmt 4.6, Leading zero omitted, Abs format (unit mm)*
G04 Created by KiCad (PCBNEW 9.0.3) date 2025-08-21 00:29:16*
%MOMM*%
%LPD*%
G01*
G04 APERTURE LIST*
%ADD10C,0.100000*%
%ADD11C,0.300000*%
%ADD12C,0.150000*%
%ADD13C,0.120000*%
%ADD14C,0.149860*%
G04 APERTURE END LIST*
D10*
X79336000Y-80352000D02*
X79336000Y-132168000D01*
X160788000Y-80479000D02*
X160788000Y-132041000D01*
D11*
X85123203Y-101623257D02*
X84980346Y-101551828D01*
X84980346Y-101551828D02*
X84766060Y-101551828D01*
X84766060Y-101551828D02*
X84551774Y-101623257D01*
X84551774Y-101623257D02*
X84408917Y-101766114D01*
X84408917Y-101766114D02*
X84337488Y-101908971D01*
X84337488Y-101908971D02*
X84266060Y-102194685D01*
X84266060Y-102194685D02*
X84266060Y-102408971D01*
X84266060Y-102408971D02*
X84337488Y-102694685D01*
X84337488Y-102694685D02*
X84408917Y-102837542D01*
X84408917Y-102837542D02*
X84551774Y-102980400D01*
X84551774Y-102980400D02*
X84766060Y-103051828D01*
X84766060Y-103051828D02*
X84908917Y-103051828D01*
X84908917Y-103051828D02*
X85123203Y-102980400D01*
X85123203Y-102980400D02*
X85194631Y-102908971D01*
X85194631Y-102908971D02*
X85194631Y-102408971D01*
X85194631Y-102408971D02*
X84908917Y-102408971D01*
X85837488Y-102051828D02*
X85837488Y-103051828D01*
X85837488Y-102194685D02*
X85908917Y-102123257D01*
X85908917Y-102123257D02*
X86051774Y-102051828D01*
X86051774Y-102051828D02*
X86266060Y-102051828D01*
X86266060Y-102051828D02*
X86408917Y-102123257D01*
X86408917Y-102123257D02*
X86480346Y-102266114D01*
X86480346Y-102266114D02*
X86480346Y-103051828D01*
X87837489Y-103051828D02*
X87837489Y-101551828D01*
X87837489Y-102980400D02*
X87694631Y-103051828D01*
X87694631Y-103051828D02*
X87408917Y-103051828D01*
X87408917Y-103051828D02*
X87266060Y-102980400D01*
X87266060Y-102980400D02*
X87194631Y-102908971D01*
X87194631Y-102908971D02*
X87123203Y-102766114D01*
X87123203Y-102766114D02*
X87123203Y-102337542D01*
X87123203Y-102337542D02*
X87194631Y-102194685D01*
X87194631Y-102194685D02*
X87266060Y-102123257D01*
X87266060Y-102123257D02*
X87408917Y-102051828D01*
X87408917Y-102051828D02*
X87694631Y-102051828D01*
X87694631Y-102051828D02*
X87837489Y-102123257D01*
X85702633Y-108131828D02*
X84845490Y-108131828D01*
X85274061Y-108131828D02*
X85274061Y-106631828D01*
X85274061Y-106631828D02*
X85131204Y-106846114D01*
X85131204Y-106846114D02*
X84988347Y-106988971D01*
X84988347Y-106988971D02*
X84845490Y-107060400D01*
X86274061Y-106774685D02*
X86345489Y-106703257D01*
X86345489Y-106703257D02*
X86488347Y-106631828D01*
X86488347Y-106631828D02*
X86845489Y-106631828D01*
X86845489Y-106631828D02*
X86988347Y-106703257D01*
X86988347Y-106703257D02*
X87059775Y-106774685D01*
X87059775Y-106774685D02*
X87131204Y-106917542D01*
X87131204Y-106917542D02*
X87131204Y-107060400D01*
X87131204Y-107060400D02*
X87059775Y-107274685D01*
X87059775Y-107274685D02*
X86202632Y-108131828D01*
X86202632Y-108131828D02*
X87131204Y-108131828D01*
X87559775Y-106631828D02*
X88059775Y-108131828D01*
X88059775Y-108131828D02*
X88559775Y-106631828D01*
D12*
X86455190Y-90458819D02*
X86455190Y-89458819D01*
X86931380Y-89792152D02*
X86931380Y-90458819D01*
X86931380Y-89887390D02*
X86978999Y-89839771D01*
X86978999Y-89839771D02*
X87074237Y-89792152D01*
X87074237Y-89792152D02*
X87217094Y-89792152D01*
X87217094Y-89792152D02*
X87312332Y-89839771D01*
X87312332Y-89839771D02*
X87359951Y-89935009D01*
X87359951Y-89935009D02*
X87359951Y-90458819D01*
X87740904Y-89792152D02*
X87978999Y-90458819D01*
X87978999Y-90458819D02*
X88217094Y-89792152D01*
X88359952Y-90554057D02*
X89121856Y-90554057D01*
X89359952Y-90458819D02*
X89359952Y-89458819D01*
X89359952Y-89458819D02*
X89740904Y-89458819D01*
X89740904Y-89458819D02*
X89836142Y-89506438D01*
X89836142Y-89506438D02*
X89883761Y-89554057D01*
X89883761Y-89554057D02*
X89931380Y-89649295D01*
X89931380Y-89649295D02*
X89931380Y-89792152D01*
X89931380Y-89792152D02*
X89883761Y-89887390D01*
X89883761Y-89887390D02*
X89836142Y-89935009D01*
X89836142Y-89935009D02*
X89740904Y-89982628D01*
X89740904Y-89982628D02*
X89359952Y-89982628D01*
X90264714Y-89792152D02*
X90455190Y-90458819D01*
X90455190Y-90458819D02*
X90645666Y-89982628D01*
X90645666Y-89982628D02*
X90836142Y-90458819D01*
X90836142Y-90458819D02*
X91026618Y-89792152D01*
X91407571Y-90458819D02*
X91407571Y-89792152D01*
X91407571Y-89982628D02*
X91455190Y-89887390D01*
X91455190Y-89887390D02*
X91502809Y-89839771D01*
X91502809Y-89839771D02*
X91598047Y-89792152D01*
X91598047Y-89792152D02*
X91693285Y-89792152D01*
X92550428Y-90458819D02*
X91979000Y-90458819D01*
X92264714Y-90458819D02*
X92264714Y-89458819D01*
X92264714Y-89458819D02*
X92169476Y-89601676D01*
X92169476Y-89601676D02*
X92074238Y-89696914D01*
X92074238Y-89696914D02*
X91979000Y-89744533D01*
D10*
X133494619Y-118235419D02*
X133494619Y-117235419D01*
X133494619Y-117235419D02*
X133875571Y-117235419D01*
X133875571Y-117235419D02*
X133970809Y-117283038D01*
X133970809Y-117283038D02*
X134018428Y-117330657D01*
X134018428Y-117330657D02*
X134066047Y-117425895D01*
X134066047Y-117425895D02*
X134066047Y-117568752D01*
X134066047Y-117568752D02*
X134018428Y-117663990D01*
X134018428Y-117663990D02*
X133970809Y-117711609D01*
X133970809Y-117711609D02*
X133875571Y-117759228D01*
X133875571Y-117759228D02*
X133494619Y-117759228D01*
X134399381Y-117568752D02*
X134589857Y-118235419D01*
X134589857Y-118235419D02*
X134780333Y-117759228D01*
X134780333Y-117759228D02*
X134970809Y-118235419D01*
X134970809Y-118235419D02*
X135161285Y-117568752D01*
X135304143Y-118330657D02*
X136066047Y-118330657D01*
X136304143Y-118235419D02*
X136304143Y-117235419D01*
X136780333Y-117568752D02*
X136780333Y-118235419D01*
X136780333Y-117663990D02*
X136827952Y-117616371D01*
X136827952Y-117616371D02*
X136923190Y-117568752D01*
X136923190Y-117568752D02*
X137066047Y-117568752D01*
X137066047Y-117568752D02*
X137161285Y-117616371D01*
X137161285Y-117616371D02*
X137208904Y-117711609D01*
X137208904Y-117711609D02*
X137208904Y-118235419D01*
X137685095Y-117854466D02*
X138447000Y-117854466D01*
X139446999Y-118235419D02*
X138875571Y-118235419D01*
X139161285Y-118235419D02*
X139161285Y-117235419D01*
X139161285Y-117235419D02*
X139066047Y-117378276D01*
X139066047Y-117378276D02*
X138970809Y-117473514D01*
X138970809Y-117473514D02*
X138875571Y-117521133D01*
D12*
X124837819Y-93067381D02*
X123837819Y-93067381D01*
X123837819Y-93067381D02*
X124552104Y-92734048D01*
X124552104Y-92734048D02*
X123837819Y-92400715D01*
X123837819Y-92400715D02*
X124837819Y-92400715D01*
X124837819Y-91781667D02*
X124790200Y-91876905D01*
X124790200Y-91876905D02*
X124742580Y-91924524D01*
X124742580Y-91924524D02*
X124647342Y-91972143D01*
X124647342Y-91972143D02*
X124361628Y-91972143D01*
X124361628Y-91972143D02*
X124266390Y-91924524D01*
X124266390Y-91924524D02*
X124218771Y-91876905D01*
X124218771Y-91876905D02*
X124171152Y-91781667D01*
X124171152Y-91781667D02*
X124171152Y-91638810D01*
X124171152Y-91638810D02*
X124218771Y-91543572D01*
X124218771Y-91543572D02*
X124266390Y-91495953D01*
X124266390Y-91495953D02*
X124361628Y-91448334D01*
X124361628Y-91448334D02*
X124647342Y-91448334D01*
X124647342Y-91448334D02*
X124742580Y-91495953D01*
X124742580Y-91495953D02*
X124790200Y-91543572D01*
X124790200Y-91543572D02*
X124837819Y-91638810D01*
X124837819Y-91638810D02*
X124837819Y-91781667D01*
X124171152Y-91162619D02*
X124171152Y-90781667D01*
X123837819Y-91019762D02*
X124694961Y-91019762D01*
X124694961Y-91019762D02*
X124790200Y-90972143D01*
X124790200Y-90972143D02*
X124837819Y-90876905D01*
X124837819Y-90876905D02*
X124837819Y-90781667D01*
X124837819Y-90305476D02*
X124790200Y-90400714D01*
X124790200Y-90400714D02*
X124742580Y-90448333D01*
X124742580Y-90448333D02*
X124647342Y-90495952D01*
X124647342Y-90495952D02*
X124361628Y-90495952D01*
X124361628Y-90495952D02*
X124266390Y-90448333D01*
X124266390Y-90448333D02*
X124218771Y-90400714D01*
X124218771Y-90400714D02*
X124171152Y-90305476D01*
X124171152Y-90305476D02*
X124171152Y-90162619D01*
X124171152Y-90162619D02*
X124218771Y-90067381D01*
X124218771Y-90067381D02*
X124266390Y-90019762D01*
X124266390Y-90019762D02*
X124361628Y-89972143D01*
X124361628Y-89972143D02*
X124647342Y-89972143D01*
X124647342Y-89972143D02*
X124742580Y-90019762D01*
X124742580Y-90019762D02*
X124790200Y-90067381D01*
X124790200Y-90067381D02*
X124837819Y-90162619D01*
X124837819Y-90162619D02*
X124837819Y-90305476D01*
X124837819Y-89543571D02*
X124171152Y-89543571D01*
X124361628Y-89543571D02*
X124266390Y-89495952D01*
X124266390Y-89495952D02*
X124218771Y-89448333D01*
X124218771Y-89448333D02*
X124171152Y-89353095D01*
X124171152Y-89353095D02*
X124171152Y-89257857D01*
X124933057Y-89162619D02*
X124933057Y-88400714D01*
X123837819Y-87972142D02*
X123837819Y-87781666D01*
X123837819Y-87781666D02*
X123885438Y-87686428D01*
X123885438Y-87686428D02*
X123980676Y-87591190D01*
X123980676Y-87591190D02*
X124171152Y-87543571D01*
X124171152Y-87543571D02*
X124504485Y-87543571D01*
X124504485Y-87543571D02*
X124694961Y-87591190D01*
X124694961Y-87591190D02*
X124790200Y-87686428D01*
X124790200Y-87686428D02*
X124837819Y-87781666D01*
X124837819Y-87781666D02*
X124837819Y-87972142D01*
X124837819Y-87972142D02*
X124790200Y-88067380D01*
X124790200Y-88067380D02*
X124694961Y-88162618D01*
X124694961Y-88162618D02*
X124504485Y-88210237D01*
X124504485Y-88210237D02*
X124171152Y-88210237D01*
X124171152Y-88210237D02*
X123980676Y-88162618D01*
X123980676Y-88162618D02*
X123885438Y-88067380D01*
X123885438Y-88067380D02*
X123837819Y-87972142D01*
X124171152Y-86686428D02*
X124837819Y-86686428D01*
X124171152Y-87114999D02*
X124694961Y-87114999D01*
X124694961Y-87114999D02*
X124790200Y-87067380D01*
X124790200Y-87067380D02*
X124837819Y-86972142D01*
X124837819Y-86972142D02*
X124837819Y-86829285D01*
X124837819Y-86829285D02*
X124790200Y-86734047D01*
X124790200Y-86734047D02*
X124742580Y-86686428D01*
X124171152Y-86353094D02*
X124171152Y-85972142D01*
X123837819Y-86210237D02*
X124694961Y-86210237D01*
X124694961Y-86210237D02*
X124790200Y-86162618D01*
X124790200Y-86162618D02*
X124837819Y-86067380D01*
X124837819Y-86067380D02*
X124837819Y-85972142D01*
X123933057Y-85686427D02*
X123885438Y-85638808D01*
X123885438Y-85638808D02*
X123837819Y-85543570D01*
X123837819Y-85543570D02*
X123837819Y-85305475D01*
X123837819Y-85305475D02*
X123885438Y-85210237D01*
X123885438Y-85210237D02*
X123933057Y-85162618D01*
X123933057Y-85162618D02*
X124028295Y-85114999D01*
X124028295Y-85114999D02*
X124123533Y-85114999D01*
X124123533Y-85114999D02*
X124266390Y-85162618D01*
X124266390Y-85162618D02*
X124837819Y-85734046D01*
X124837819Y-85734046D02*
X124837819Y-85114999D01*
X127288819Y-111045809D02*
X126288819Y-111045809D01*
X126288819Y-111045809D02*
X127003104Y-110712476D01*
X127003104Y-110712476D02*
X126288819Y-110379143D01*
X126288819Y-110379143D02*
X127288819Y-110379143D01*
X127288819Y-109760095D02*
X127241200Y-109855333D01*
X127241200Y-109855333D02*
X127193580Y-109902952D01*
X127193580Y-109902952D02*
X127098342Y-109950571D01*
X127098342Y-109950571D02*
X126812628Y-109950571D01*
X126812628Y-109950571D02*
X126717390Y-109902952D01*
X126717390Y-109902952D02*
X126669771Y-109855333D01*
X126669771Y-109855333D02*
X126622152Y-109760095D01*
X126622152Y-109760095D02*
X126622152Y-109617238D01*
X126622152Y-109617238D02*
X126669771Y-109522000D01*
X126669771Y-109522000D02*
X126717390Y-109474381D01*
X126717390Y-109474381D02*
X126812628Y-109426762D01*
X126812628Y-109426762D02*
X127098342Y-109426762D01*
X127098342Y-109426762D02*
X127193580Y-109474381D01*
X127193580Y-109474381D02*
X127241200Y-109522000D01*
X127241200Y-109522000D02*
X127288819Y-109617238D01*
X127288819Y-109617238D02*
X127288819Y-109760095D01*
X126622152Y-109141047D02*
X126622152Y-108760095D01*
X126288819Y-108998190D02*
X127145961Y-108998190D01*
X127145961Y-108998190D02*
X127241200Y-108950571D01*
X127241200Y-108950571D02*
X127288819Y-108855333D01*
X127288819Y-108855333D02*
X127288819Y-108760095D01*
X127288819Y-108283904D02*
X127241200Y-108379142D01*
X127241200Y-108379142D02*
X127193580Y-108426761D01*
X127193580Y-108426761D02*
X127098342Y-108474380D01*
X127098342Y-108474380D02*
X126812628Y-108474380D01*
X126812628Y-108474380D02*
X126717390Y-108426761D01*
X126717390Y-108426761D02*
X126669771Y-108379142D01*
X126669771Y-108379142D02*
X126622152Y-108283904D01*
X126622152Y-108283904D02*
X126622152Y-108141047D01*
X126622152Y-108141047D02*
X126669771Y-108045809D01*
X126669771Y-108045809D02*
X126717390Y-107998190D01*
X126717390Y-107998190D02*
X126812628Y-107950571D01*
X126812628Y-107950571D02*
X127098342Y-107950571D01*
X127098342Y-107950571D02*
X127193580Y-107998190D01*
X127193580Y-107998190D02*
X127241200Y-108045809D01*
X127241200Y-108045809D02*
X127288819Y-108141047D01*
X127288819Y-108141047D02*
X127288819Y-108283904D01*
X127288819Y-107521999D02*
X126622152Y-107521999D01*
X126812628Y-107521999D02*
X126717390Y-107474380D01*
X126717390Y-107474380D02*
X126669771Y-107426761D01*
X126669771Y-107426761D02*
X126622152Y-107331523D01*
X126622152Y-107331523D02*
X126622152Y-107236285D01*
X127384057Y-107141047D02*
X127384057Y-106379142D01*
X127288819Y-106141046D02*
X126288819Y-106141046D01*
X126288819Y-106141046D02*
X126288819Y-105760094D01*
X126288819Y-105760094D02*
X126336438Y-105664856D01*
X126336438Y-105664856D02*
X126384057Y-105617237D01*
X126384057Y-105617237D02*
X126479295Y-105569618D01*
X126479295Y-105569618D02*
X126622152Y-105569618D01*
X126622152Y-105569618D02*
X126717390Y-105617237D01*
X126717390Y-105617237D02*
X126765009Y-105664856D01*
X126765009Y-105664856D02*
X126812628Y-105760094D01*
X126812628Y-105760094D02*
X126812628Y-106141046D01*
X126622152Y-105236284D02*
X127288819Y-105045808D01*
X127288819Y-105045808D02*
X126812628Y-104855332D01*
X126812628Y-104855332D02*
X127288819Y-104664856D01*
X127288819Y-104664856D02*
X126622152Y-104474380D01*
X127288819Y-104093427D02*
X126622152Y-104093427D01*
X126812628Y-104093427D02*
X126717390Y-104045808D01*
X126717390Y-104045808D02*
X126669771Y-103998189D01*
X126669771Y-103998189D02*
X126622152Y-103902951D01*
X126622152Y-103902951D02*
X126622152Y-103807713D01*
X127288819Y-102950570D02*
X127288819Y-103521998D01*
X127288819Y-103236284D02*
X126288819Y-103236284D01*
X126288819Y-103236284D02*
X126431676Y-103331522D01*
X126431676Y-103331522D02*
X126526914Y-103426760D01*
X126526914Y-103426760D02*
X126574533Y-103521998D01*
X92663142Y-96003819D02*
X92329809Y-95527628D01*
X92091714Y-96003819D02*
X92091714Y-95003819D01*
X92091714Y-95003819D02*
X92472666Y-95003819D01*
X92472666Y-95003819D02*
X92567904Y-95051438D01*
X92567904Y-95051438D02*
X92615523Y-95099057D01*
X92615523Y-95099057D02*
X92663142Y-95194295D01*
X92663142Y-95194295D02*
X92663142Y-95337152D01*
X92663142Y-95337152D02*
X92615523Y-95432390D01*
X92615523Y-95432390D02*
X92567904Y-95480009D01*
X92567904Y-95480009D02*
X92472666Y-95527628D01*
X92472666Y-95527628D02*
X92091714Y-95527628D01*
X93520285Y-95337152D02*
X93520285Y-96003819D01*
X93282190Y-94956200D02*
X93044095Y-95670485D01*
X93044095Y-95670485D02*
X93663142Y-95670485D01*
X94186952Y-95432390D02*
X94091714Y-95384771D01*
X94091714Y-95384771D02*
X94044095Y-95337152D01*
X94044095Y-95337152D02*
X93996476Y-95241914D01*
X93996476Y-95241914D02*
X93996476Y-95194295D01*
X93996476Y-95194295D02*
X94044095Y-95099057D01*
X94044095Y-95099057D02*
X94091714Y-95051438D01*
X94091714Y-95051438D02*
X94186952Y-95003819D01*
X94186952Y-95003819D02*
X94377428Y-95003819D01*
X94377428Y-95003819D02*
X94472666Y-95051438D01*
X94472666Y-95051438D02*
X94520285Y-95099057D01*
X94520285Y-95099057D02*
X94567904Y-95194295D01*
X94567904Y-95194295D02*
X94567904Y-95241914D01*
X94567904Y-95241914D02*
X94520285Y-95337152D01*
X94520285Y-95337152D02*
X94472666Y-95384771D01*
X94472666Y-95384771D02*
X94377428Y-95432390D01*
X94377428Y-95432390D02*
X94186952Y-95432390D01*
X94186952Y-95432390D02*
X94091714Y-95480009D01*
X94091714Y-95480009D02*
X94044095Y-95527628D01*
X94044095Y-95527628D02*
X93996476Y-95622866D01*
X93996476Y-95622866D02*
X93996476Y-95813342D01*
X93996476Y-95813342D02*
X94044095Y-95908580D01*
X94044095Y-95908580D02*
X94091714Y-95956200D01*
X94091714Y-95956200D02*
X94186952Y-96003819D01*
X94186952Y-96003819D02*
X94377428Y-96003819D01*
X94377428Y-96003819D02*
X94472666Y-95956200D01*
X94472666Y-95956200D02*
X94520285Y-95908580D01*
X94520285Y-95908580D02*
X94567904Y-95813342D01*
X94567904Y-95813342D02*
X94567904Y-95622866D01*
X94567904Y-95622866D02*
X94520285Y-95527628D01*
X94520285Y-95527628D02*
X94472666Y-95480009D01*
X94472666Y-95480009D02*
X94377428Y-95432390D01*
X96052713Y-88895580D02*
X96005094Y-88943200D01*
X96005094Y-88943200D02*
X95862237Y-88990819D01*
X95862237Y-88990819D02*
X95766999Y-88990819D01*
X95766999Y-88990819D02*
X95624142Y-88943200D01*
X95624142Y-88943200D02*
X95528904Y-88847961D01*
X95528904Y-88847961D02*
X95481285Y-88752723D01*
X95481285Y-88752723D02*
X95433666Y-88562247D01*
X95433666Y-88562247D02*
X95433666Y-88419390D01*
X95433666Y-88419390D02*
X95481285Y-88228914D01*
X95481285Y-88228914D02*
X95528904Y-88133676D01*
X95528904Y-88133676D02*
X95624142Y-88038438D01*
X95624142Y-88038438D02*
X95766999Y-87990819D01*
X95766999Y-87990819D02*
X95862237Y-87990819D01*
X95862237Y-87990819D02*
X96005094Y-88038438D01*
X96005094Y-88038438D02*
X96052713Y-88086057D01*
X96481285Y-88324152D02*
X96481285Y-88990819D01*
X96481285Y-88419390D02*
X96528904Y-88371771D01*
X96528904Y-88371771D02*
X96624142Y-88324152D01*
X96624142Y-88324152D02*
X96766999Y-88324152D01*
X96766999Y-88324152D02*
X96862237Y-88371771D01*
X96862237Y-88371771D02*
X96909856Y-88467009D01*
X96909856Y-88467009D02*
X96909856Y-88990819D01*
X97290809Y-88324152D02*
X97528904Y-88990819D01*
X97528904Y-88990819D02*
X97766999Y-88324152D01*
X97909857Y-89086057D02*
X98671761Y-89086057D01*
X98909857Y-88990819D02*
X98909857Y-87990819D01*
X98909857Y-87990819D02*
X99290809Y-87990819D01*
X99290809Y-87990819D02*
X99386047Y-88038438D01*
X99386047Y-88038438D02*
X99433666Y-88086057D01*
X99433666Y-88086057D02*
X99481285Y-88181295D01*
X99481285Y-88181295D02*
X99481285Y-88324152D01*
X99481285Y-88324152D02*
X99433666Y-88419390D01*
X99433666Y-88419390D02*
X99386047Y-88467009D01*
X99386047Y-88467009D02*
X99290809Y-88514628D01*
X99290809Y-88514628D02*
X98909857Y-88514628D01*
X99814619Y-88324152D02*
X100005095Y-88990819D01*
X100005095Y-88990819D02*
X100195571Y-88514628D01*
X100195571Y-88514628D02*
X100386047Y-88990819D01*
X100386047Y-88990819D02*
X100576523Y-88324152D01*
X100957476Y-88990819D02*
X100957476Y-88324152D01*
X100957476Y-88514628D02*
X101005095Y-88419390D01*
X101005095Y-88419390D02*
X101052714Y-88371771D01*
X101052714Y-88371771D02*
X101147952Y-88324152D01*
X101147952Y-88324152D02*
X101243190Y-88324152D01*
X102100333Y-88990819D02*
X101528905Y-88990819D01*
X101814619Y-88990819D02*
X101814619Y-87990819D01*
X101814619Y-87990819D02*
X101719381Y-88133676D01*
X101719381Y-88133676D02*
X101624143Y-88228914D01*
X101624143Y-88228914D02*
X101528905Y-88276533D01*
X105458570Y-80750580D02*
X105410951Y-80798200D01*
X105410951Y-80798200D02*
X105268094Y-80845819D01*
X105268094Y-80845819D02*
X105172856Y-80845819D01*
X105172856Y-80845819D02*
X105029999Y-80798200D01*
X105029999Y-80798200D02*
X104934761Y-80702961D01*
X104934761Y-80702961D02*
X104887142Y-80607723D01*
X104887142Y-80607723D02*
X104839523Y-80417247D01*
X104839523Y-80417247D02*
X104839523Y-80274390D01*
X104839523Y-80274390D02*
X104887142Y-80083914D01*
X104887142Y-80083914D02*
X104934761Y-79988676D01*
X104934761Y-79988676D02*
X105029999Y-79893438D01*
X105029999Y-79893438D02*
X105172856Y-79845819D01*
X105172856Y-79845819D02*
X105268094Y-79845819D01*
X105268094Y-79845819D02*
X105410951Y-79893438D01*
X105410951Y-79893438D02*
X105458570Y-79941057D01*
X106029999Y-80845819D02*
X105934761Y-80798200D01*
X105934761Y-80798200D02*
X105887142Y-80750580D01*
X105887142Y-80750580D02*
X105839523Y-80655342D01*
X105839523Y-80655342D02*
X105839523Y-80369628D01*
X105839523Y-80369628D02*
X105887142Y-80274390D01*
X105887142Y-80274390D02*
X105934761Y-80226771D01*
X105934761Y-80226771D02*
X106029999Y-80179152D01*
X106029999Y-80179152D02*
X106172856Y-80179152D01*
X106172856Y-80179152D02*
X106268094Y-80226771D01*
X106268094Y-80226771D02*
X106315713Y-80274390D01*
X106315713Y-80274390D02*
X106363332Y-80369628D01*
X106363332Y-80369628D02*
X106363332Y-80655342D01*
X106363332Y-80655342D02*
X106315713Y-80750580D01*
X106315713Y-80750580D02*
X106268094Y-80798200D01*
X106268094Y-80798200D02*
X106172856Y-80845819D01*
X106172856Y-80845819D02*
X106029999Y-80845819D01*
X106934761Y-80845819D02*
X106839523Y-80798200D01*
X106839523Y-80798200D02*
X106791904Y-80750580D01*
X106791904Y-80750580D02*
X106744285Y-80655342D01*
X106744285Y-80655342D02*
X106744285Y-80369628D01*
X106744285Y-80369628D02*
X106791904Y-80274390D01*
X106791904Y-80274390D02*
X106839523Y-80226771D01*
X106839523Y-80226771D02*
X106934761Y-80179152D01*
X106934761Y-80179152D02*
X107077618Y-80179152D01*
X107077618Y-80179152D02*
X107172856Y-80226771D01*
X107172856Y-80226771D02*
X107220475Y-80274390D01*
X107220475Y-80274390D02*
X107268094Y-80369628D01*
X107268094Y-80369628D02*
X107268094Y-80655342D01*
X107268094Y-80655342D02*
X107220475Y-80750580D01*
X107220475Y-80750580D02*
X107172856Y-80798200D01*
X107172856Y-80798200D02*
X107077618Y-80845819D01*
X107077618Y-80845819D02*
X106934761Y-80845819D01*
X107839523Y-80845819D02*
X107744285Y-80798200D01*
X107744285Y-80798200D02*
X107696666Y-80702961D01*
X107696666Y-80702961D02*
X107696666Y-79845819D01*
X108601428Y-80798200D02*
X108506190Y-80845819D01*
X108506190Y-80845819D02*
X108315714Y-80845819D01*
X108315714Y-80845819D02*
X108220476Y-80798200D01*
X108220476Y-80798200D02*
X108172857Y-80702961D01*
X108172857Y-80702961D02*
X108172857Y-80322009D01*
X108172857Y-80322009D02*
X108220476Y-80226771D01*
X108220476Y-80226771D02*
X108315714Y-80179152D01*
X108315714Y-80179152D02*
X108506190Y-80179152D01*
X108506190Y-80179152D02*
X108601428Y-80226771D01*
X108601428Y-80226771D02*
X108649047Y-80322009D01*
X108649047Y-80322009D02*
X108649047Y-80417247D01*
X108649047Y-80417247D02*
X108172857Y-80512485D01*
X109077619Y-80845819D02*
X109077619Y-80179152D01*
X109077619Y-80369628D02*
X109125238Y-80274390D01*
X109125238Y-80274390D02*
X109172857Y-80226771D01*
X109172857Y-80226771D02*
X109268095Y-80179152D01*
X109268095Y-80179152D02*
X109363333Y-80179152D01*
X110220476Y-80845819D02*
X109649048Y-80845819D01*
X109934762Y-80845819D02*
X109934762Y-79845819D01*
X109934762Y-79845819D02*
X109839524Y-79988676D01*
X109839524Y-79988676D02*
X109744286Y-80083914D01*
X109744286Y-80083914D02*
X109649048Y-80131533D01*
X91297475Y-99006819D02*
X90726047Y-99006819D01*
X91011761Y-99006819D02*
X91011761Y-98006819D01*
X91011761Y-98006819D02*
X90916523Y-98149676D01*
X90916523Y-98149676D02*
X90821285Y-98244914D01*
X90821285Y-98244914D02*
X90726047Y-98292533D01*
X91678428Y-98102057D02*
X91726047Y-98054438D01*
X91726047Y-98054438D02*
X91821285Y-98006819D01*
X91821285Y-98006819D02*
X92059380Y-98006819D01*
X92059380Y-98006819D02*
X92154618Y-98054438D01*
X92154618Y-98054438D02*
X92202237Y-98102057D01*
X92202237Y-98102057D02*
X92249856Y-98197295D01*
X92249856Y-98197295D02*
X92249856Y-98292533D01*
X92249856Y-98292533D02*
X92202237Y-98435390D01*
X92202237Y-98435390D02*
X91630809Y-99006819D01*
X91630809Y-99006819D02*
X92249856Y-99006819D01*
X92535571Y-98006819D02*
X92868904Y-99006819D01*
X92868904Y-99006819D02*
X93202237Y-98006819D01*
X93297476Y-99102057D02*
X94059380Y-99102057D01*
X94297476Y-99006819D02*
X94297476Y-98006819D01*
X94297476Y-98006819D02*
X94678428Y-98006819D01*
X94678428Y-98006819D02*
X94773666Y-98054438D01*
X94773666Y-98054438D02*
X94821285Y-98102057D01*
X94821285Y-98102057D02*
X94868904Y-98197295D01*
X94868904Y-98197295D02*
X94868904Y-98340152D01*
X94868904Y-98340152D02*
X94821285Y-98435390D01*
X94821285Y-98435390D02*
X94773666Y-98483009D01*
X94773666Y-98483009D02*
X94678428Y-98530628D01*
X94678428Y-98530628D02*
X94297476Y-98530628D01*
X95202238Y-98340152D02*
X95392714Y-99006819D01*
X95392714Y-99006819D02*
X95583190Y-98530628D01*
X95583190Y-98530628D02*
X95773666Y-99006819D01*
X95773666Y-99006819D02*
X95964142Y-98340152D01*
X96345095Y-99006819D02*
X96345095Y-98340152D01*
X96345095Y-98530628D02*
X96392714Y-98435390D01*
X96392714Y-98435390D02*
X96440333Y-98387771D01*
X96440333Y-98387771D02*
X96535571Y-98340152D01*
X96535571Y-98340152D02*
X96630809Y-98340152D01*
X97487952Y-99006819D02*
X96916524Y-99006819D01*
X97202238Y-99006819D02*
X97202238Y-98006819D01*
X97202238Y-98006819D02*
X97107000Y-98149676D01*
X97107000Y-98149676D02*
X97011762Y-98244914D01*
X97011762Y-98244914D02*
X96916524Y-98292533D01*
X104506190Y-97392819D02*
X104506190Y-96392819D01*
X104982380Y-96726152D02*
X104982380Y-97392819D01*
X104982380Y-96821390D02*
X105029999Y-96773771D01*
X105029999Y-96773771D02*
X105125237Y-96726152D01*
X105125237Y-96726152D02*
X105268094Y-96726152D01*
X105268094Y-96726152D02*
X105363332Y-96773771D01*
X105363332Y-96773771D02*
X105410951Y-96869009D01*
X105410951Y-96869009D02*
X105410951Y-97392819D01*
X105791904Y-96726152D02*
X106029999Y-97392819D01*
X106029999Y-97392819D02*
X106268094Y-96726152D01*
X106410952Y-97488057D02*
X107172856Y-97488057D01*
X107410952Y-97392819D02*
X107410952Y-96392819D01*
X107410952Y-96392819D02*
X107791904Y-96392819D01*
X107791904Y-96392819D02*
X107887142Y-96440438D01*
X107887142Y-96440438D02*
X107934761Y-96488057D01*
X107934761Y-96488057D02*
X107982380Y-96583295D01*
X107982380Y-96583295D02*
X107982380Y-96726152D01*
X107982380Y-96726152D02*
X107934761Y-96821390D01*
X107934761Y-96821390D02*
X107887142Y-96869009D01*
X107887142Y-96869009D02*
X107791904Y-96916628D01*
X107791904Y-96916628D02*
X107410952Y-96916628D01*
X108315714Y-96726152D02*
X108506190Y-97392819D01*
X108506190Y-97392819D02*
X108696666Y-96916628D01*
X108696666Y-96916628D02*
X108887142Y-97392819D01*
X108887142Y-97392819D02*
X109077618Y-96726152D01*
X109458571Y-97392819D02*
X109458571Y-96726152D01*
X109458571Y-96916628D02*
X109506190Y-96821390D01*
X109506190Y-96821390D02*
X109553809Y-96773771D01*
X109553809Y-96773771D02*
X109649047Y-96726152D01*
X109649047Y-96726152D02*
X109744285Y-96726152D01*
X110030000Y-96488057D02*
X110077619Y-96440438D01*
X110077619Y-96440438D02*
X110172857Y-96392819D01*
X110172857Y-96392819D02*
X110410952Y-96392819D01*
X110410952Y-96392819D02*
X110506190Y-96440438D01*
X110506190Y-96440438D02*
X110553809Y-96488057D01*
X110553809Y-96488057D02*
X110601428Y-96583295D01*
X110601428Y-96583295D02*
X110601428Y-96678533D01*
X110601428Y-96678533D02*
X110553809Y-96821390D01*
X110553809Y-96821390D02*
X109982381Y-97392819D01*
X109982381Y-97392819D02*
X110601428Y-97392819D01*
D10*
X99370619Y-119671419D02*
X99370619Y-118671419D01*
X99370619Y-118671419D02*
X99751571Y-118671419D01*
X99751571Y-118671419D02*
X99846809Y-118719038D01*
X99846809Y-118719038D02*
X99894428Y-118766657D01*
X99894428Y-118766657D02*
X99942047Y-118861895D01*
X99942047Y-118861895D02*
X99942047Y-119004752D01*
X99942047Y-119004752D02*
X99894428Y-119099990D01*
X99894428Y-119099990D02*
X99846809Y-119147609D01*
X99846809Y-119147609D02*
X99751571Y-119195228D01*
X99751571Y-119195228D02*
X99370619Y-119195228D01*
X100275381Y-119004752D02*
X100465857Y-119671419D01*
X100465857Y-119671419D02*
X100656333Y-119195228D01*
X100656333Y-119195228D02*
X100846809Y-119671419D01*
X100846809Y-119671419D02*
X101037285Y-119004752D01*
X101180143Y-119766657D02*
X101942047Y-119766657D01*
X102180143Y-119671419D02*
X102180143Y-118671419D01*
X102656333Y-119004752D02*
X102656333Y-119671419D01*
X102656333Y-119099990D02*
X102703952Y-119052371D01*
X102703952Y-119052371D02*
X102799190Y-119004752D01*
X102799190Y-119004752D02*
X102942047Y-119004752D01*
X102942047Y-119004752D02*
X103037285Y-119052371D01*
X103037285Y-119052371D02*
X103084904Y-119147609D01*
X103084904Y-119147609D02*
X103084904Y-119671419D01*
X103561095Y-119290466D02*
X104323000Y-119290466D01*
X103942047Y-119671419D02*
X103942047Y-118909514D01*
X105322999Y-119671419D02*
X104751571Y-119671419D01*
X105037285Y-119671419D02*
X105037285Y-118671419D01*
X105037285Y-118671419D02*
X104942047Y-118814276D01*
X104942047Y-118814276D02*
X104846809Y-118909514D01*
X104846809Y-118909514D02*
X104751571Y-118957133D01*
D12*
X91495714Y-115163819D02*
X91495714Y-114163819D01*
X91495714Y-114163819D02*
X91733809Y-114163819D01*
X91733809Y-114163819D02*
X91876666Y-114211438D01*
X91876666Y-114211438D02*
X91971904Y-114306676D01*
X91971904Y-114306676D02*
X92019523Y-114401914D01*
X92019523Y-114401914D02*
X92067142Y-114592390D01*
X92067142Y-114592390D02*
X92067142Y-114735247D01*
X92067142Y-114735247D02*
X92019523Y-114925723D01*
X92019523Y-114925723D02*
X91971904Y-115020961D01*
X91971904Y-115020961D02*
X91876666Y-115116200D01*
X91876666Y-115116200D02*
X91733809Y-115163819D01*
X91733809Y-115163819D02*
X91495714Y-115163819D01*
X93019523Y-115163819D02*
X92448095Y-115163819D01*
X92733809Y-115163819D02*
X92733809Y-114163819D01*
X92733809Y-114163819D02*
X92638571Y-114306676D01*
X92638571Y-114306676D02*
X92543333Y-114401914D01*
X92543333Y-114401914D02*
X92448095Y-114449533D01*
X93971904Y-115163819D02*
X93400476Y-115163819D01*
X93686190Y-115163819D02*
X93686190Y-114163819D01*
X93686190Y-114163819D02*
X93590952Y-114306676D01*
X93590952Y-114306676D02*
X93495714Y-114401914D01*
X93495714Y-114401914D02*
X93400476Y-114449533D01*
D13*
%TO.C,Inv_Pwr1*%
X86868000Y-81465000D02*
X86868000Y-87485000D01*
X86868000Y-87485000D02*
X92168000Y-87485000D01*
X87448000Y-86885000D02*
X87448000Y-87485000D01*
X88248000Y-82465000D02*
X88248000Y-81465000D01*
X88498000Y-81465000D02*
X88498000Y-82465000D01*
X88498000Y-82995000D02*
X88248000Y-82465000D01*
X89048000Y-86885000D02*
X87448000Y-86885000D01*
X89048000Y-87485000D02*
X89048000Y-86885000D01*
X89988000Y-86885000D02*
X89988000Y-87485000D01*
X90538000Y-81465000D02*
X90538000Y-82465000D01*
X90538000Y-82995000D02*
X88498000Y-82995000D01*
X90788000Y-81465000D02*
X90788000Y-82465000D01*
X90788000Y-82465000D02*
X88248000Y-82465000D01*
X90788000Y-82465000D02*
X90538000Y-82995000D01*
X91588000Y-86885000D02*
X89988000Y-86885000D01*
X91588000Y-87485000D02*
X91588000Y-86885000D01*
X92168000Y-81465000D02*
X86868000Y-81465000D01*
X92168000Y-87485000D02*
X92168000Y-81465000D01*
X92458000Y-86455000D02*
X92458000Y-82455000D01*
D14*
%TO.C,Pw_In-1*%
X135343000Y-124802000D02*
G75*
G02*
X120357000Y-124802000I-7493000J0D01*
G01*
X120357000Y-124802000D02*
G75*
G02*
X135343000Y-124802000I7493000J0D01*
G01*
X152615000Y-124802000D02*
G75*
G02*
X137629000Y-124802000I-7493000J0D01*
G01*
X137629000Y-124802000D02*
G75*
G02*
X152615000Y-124802000I7493000J0D01*
G01*
D13*
%TO.C,Motor_Out2*%
X115823000Y-81385000D02*
X115823000Y-96845000D01*
X115823000Y-96845000D02*
X123293000Y-96845000D01*
X116683000Y-82535000D02*
X120983000Y-82535000D01*
X116683000Y-83285000D02*
X116683000Y-82535000D01*
X116683000Y-85535000D02*
X116683000Y-84785000D01*
X116683000Y-87615000D02*
X120983000Y-87615000D01*
X116683000Y-88365000D02*
X116683000Y-87615000D01*
X116683000Y-90615000D02*
X116683000Y-89865000D01*
X116683000Y-92695000D02*
X120983000Y-92695000D01*
X116683000Y-93445000D02*
X116683000Y-92695000D01*
X116683000Y-95695000D02*
X116683000Y-94945000D01*
X120983000Y-82535000D02*
X120983000Y-83285000D01*
X120983000Y-83285000D02*
X121333000Y-83285000D01*
X120983000Y-84785000D02*
X120983000Y-85535000D01*
X120983000Y-85535000D02*
X116683000Y-85535000D01*
X120983000Y-87615000D02*
X120983000Y-88365000D01*
X120983000Y-88365000D02*
X121333000Y-88365000D01*
X120983000Y-89865000D02*
X120983000Y-90615000D01*
X120983000Y-90615000D02*
X116683000Y-90615000D01*
X120983000Y-92695000D02*
X120983000Y-93445000D01*
X120983000Y-93445000D02*
X121333000Y-93445000D01*
X120983000Y-94945000D02*
X120983000Y-95695000D01*
X120983000Y-95695000D02*
X116683000Y-95695000D01*
X121333000Y-82785000D02*
X122333000Y-82535000D01*
X121333000Y-83285000D02*
X121333000Y-82785000D01*
X121333000Y-84785000D02*
X120983000Y-84785000D01*
X121333000Y-85285000D02*
X121333000Y-84785000D01*
X121333000Y-87865000D02*
X122333000Y-87615000D01*
X121333000Y-88365000D02*
X121333000Y-87865000D01*
X121333000Y-89865000D02*
X120983000Y-89865000D01*
X121333000Y-90365000D02*
X121333000Y-89865000D01*
X121333000Y-92945000D02*
X122333000Y-92695000D01*
X121333000Y-93445000D02*
X121333000Y-92945000D01*
X121333000Y-94945000D02*
X120983000Y-94945000D01*
X121333000Y-95445000D02*
X121333000Y-94945000D01*
X122333000Y-82535000D02*
X122333000Y-85535000D01*
X122333000Y-85535000D02*
X121333000Y-85285000D01*
X122333000Y-87615000D02*
X122333000Y-90615000D01*
X122333000Y-90615000D02*
X121333000Y-90365000D01*
X122333000Y-92695000D02*
X122333000Y-95695000D01*
X122333000Y-95695000D02*
X121333000Y-95445000D01*
X122433000Y-80995000D02*
X123683000Y-80995000D01*
X123293000Y-81385000D02*
X115823000Y-81385000D01*
X123293000Y-96845000D02*
X123293000Y-81385000D01*
X123683000Y-80995000D02*
X123683000Y-82995000D01*
X116683000Y-83285000D02*
G75*
G02*
X116683156Y-84784647I-1700000J-750000D01*
G01*
X116683000Y-88365000D02*
G75*
G02*
X116683156Y-89864647I-1700000J-750000D01*
G01*
X116683000Y-93445000D02*
G75*
G02*
X116683156Y-94944647I-1700000J-750000D01*
G01*
%TO.C,Motor_Pwr1*%
X128679000Y-112743000D02*
X128679000Y-110243000D01*
X128929000Y-80293000D02*
X144629000Y-80293000D01*
X128929000Y-112493000D02*
X128929000Y-80293000D01*
X131179000Y-112743000D02*
X128679000Y-112743000D01*
X144629000Y-112493000D02*
X128929000Y-112493000D01*
X144629000Y-112493000D02*
X144629000Y-80293000D01*
%TO.C,R48*%
X89266000Y-93179000D02*
X90036000Y-93179000D01*
X97346000Y-93179000D02*
X96576000Y-93179000D01*
X96576000Y-94549000D02*
X90036000Y-94549000D01*
X90036000Y-91809000D01*
X96576000Y-91809000D01*
X96576000Y-94549000D01*
%TO.C,Cnv_Pwr1*%
X96117000Y-81426000D02*
X96117000Y-87446000D01*
X96117000Y-87446000D02*
X101417000Y-87446000D01*
X96697000Y-86846000D02*
X96697000Y-87446000D01*
X97497000Y-82426000D02*
X97497000Y-81426000D01*
X97747000Y-81426000D02*
X97747000Y-82426000D01*
X97747000Y-82956000D02*
X97497000Y-82426000D01*
X98297000Y-86846000D02*
X96697000Y-86846000D01*
X98297000Y-87446000D02*
X98297000Y-86846000D01*
X99237000Y-86846000D02*
X99237000Y-87446000D01*
X99787000Y-81426000D02*
X99787000Y-82426000D01*
X99787000Y-82956000D02*
X97747000Y-82956000D01*
X100037000Y-81426000D02*
X100037000Y-82426000D01*
X100037000Y-82426000D02*
X97497000Y-82426000D01*
X100037000Y-82426000D02*
X99787000Y-82956000D01*
X100837000Y-86846000D02*
X99237000Y-86846000D01*
X100837000Y-87446000D02*
X100837000Y-86846000D01*
X101417000Y-81426000D02*
X96117000Y-81426000D01*
X101417000Y-87446000D02*
X101417000Y-81426000D01*
X101707000Y-86416000D02*
X101707000Y-82416000D01*
%TO.C,Cooler1*%
X104880000Y-81465000D02*
X104880000Y-87485000D01*
X104880000Y-87485000D02*
X110180000Y-87485000D01*
X105460000Y-86885000D02*
X105460000Y-87485000D01*
X106260000Y-82465000D02*
X106260000Y-81465000D01*
X106510000Y-81465000D02*
X106510000Y-82465000D01*
X106510000Y-82995000D02*
X106260000Y-82465000D01*
X107060000Y-86885000D02*
X105460000Y-86885000D01*
X107060000Y-87485000D02*
X107060000Y-86885000D01*
X108000000Y-86885000D02*
X108000000Y-87485000D01*
X108550000Y-81465000D02*
X108550000Y-82465000D01*
X108550000Y-82995000D02*
X106510000Y-82995000D01*
X108800000Y-81465000D02*
X108800000Y-82465000D01*
X108800000Y-82465000D02*
X106260000Y-82465000D01*
X108800000Y-82465000D02*
X108550000Y-82995000D01*
X109600000Y-86885000D02*
X108000000Y-86885000D01*
X109600000Y-87485000D02*
X109600000Y-86885000D01*
X110180000Y-81465000D02*
X104880000Y-81465000D01*
X110180000Y-87485000D02*
X110180000Y-81465000D01*
X110470000Y-86455000D02*
X110470000Y-82455000D01*
%TO.C,12V_Pwr1*%
X89341500Y-99782000D02*
X99381500Y-99782000D01*
X89341500Y-102102000D02*
X89341500Y-99782000D01*
X89341500Y-110022000D02*
X89341500Y-102702000D01*
X89961500Y-99782000D02*
X89961500Y-110022000D01*
X91461500Y-99782000D02*
X91461500Y-110022000D01*
X96361500Y-99782000D02*
X96361500Y-110022000D01*
X99381500Y-99782000D02*
X99381500Y-110022000D01*
X99381500Y-110022000D02*
X89341500Y-110022000D01*
X89341500Y-102402000D02*
X88731500Y-102842000D01*
X88731500Y-101962000D01*
X89341500Y-102402000D01*
G36*
X89341500Y-102402000D02*
G01*
X88731500Y-102842000D01*
X88731500Y-101962000D01*
X89341500Y-102402000D01*
G37*
%TO.C,Inv_Pwr2*%
X104880000Y-89828000D02*
X104880000Y-95848000D01*
X104880000Y-95848000D02*
X110180000Y-95848000D01*
X105460000Y-95248000D02*
X105460000Y-95848000D01*
X106260000Y-90828000D02*
X106260000Y-89828000D01*
X106510000Y-89828000D02*
X106510000Y-90828000D01*
X106510000Y-91358000D02*
X106260000Y-90828000D01*
X107060000Y-95248000D02*
X105460000Y-95248000D01*
X107060000Y-95848000D02*
X107060000Y-95248000D01*
X108000000Y-95248000D02*
X108000000Y-95848000D01*
X108550000Y-89828000D02*
X108550000Y-90828000D01*
X108550000Y-91358000D02*
X106510000Y-91358000D01*
X108800000Y-89828000D02*
X108800000Y-90828000D01*
X108800000Y-90828000D02*
X106260000Y-90828000D01*
X108800000Y-90828000D02*
X108550000Y-91358000D01*
X109600000Y-95248000D02*
X108000000Y-95248000D01*
X109600000Y-95848000D02*
X109600000Y-95248000D01*
X110180000Y-89828000D02*
X104880000Y-89828000D01*
X110180000Y-95848000D02*
X110180000Y-89828000D01*
X110470000Y-94818000D02*
X110470000Y-90818000D01*
D14*
%TO.C,Pw_In+1*%
X101180000Y-124802000D02*
G75*
G02*
X86194000Y-124802000I-7493000J0D01*
G01*
X86194000Y-124802000D02*
G75*
G02*
X101180000Y-124802000I7493000J0D01*
G01*
X118452000Y-124802000D02*
G75*
G02*
X103466000Y-124802000I-7493000J0D01*
G01*
X103466000Y-124802000D02*
G75*
G02*
X118452000Y-124802000I7493000J0D01*
G01*
D13*
%TO.C,D11*%
X90150000Y-111589000D02*
X91233000Y-111589000D01*
X90150000Y-113709000D02*
X90150000Y-111589000D01*
X91233000Y-113709000D02*
X90150000Y-113709000D01*
X91647000Y-111589000D02*
X92900000Y-111589000D01*
X92900000Y-113709000D02*
X91647000Y-113709000D01*
X95060000Y-111589000D02*
X95270000Y-111589000D01*
X95150000Y-113709000D02*
X95150000Y-111589000D01*
X95270000Y-111589000D02*
X95270000Y-113709000D01*
X95270000Y-113709000D02*
X95060000Y-113709000D01*
%TD*%
M02*
