M48
; DRILL file {KiCad 9.0.3} date 2025-08-30T18:08:21-0300
; FORMAT={-:-/ absolute / metric / decimal}
; #@! TF.CreationDate,2025-08-30T18:08:21-03:00
; #@! TF.GenerationSoftware,Kicad,Pcbnew,9.0.3
; #@! TF.FileFunction,Plated,1,2,PTH
FMAT,2
METRIC
; #@! TA.AperFunction,Plated,PTH,ViaDrill
T1C0.300
; #@! TA.AperFunction,Plated,PTH,ComponentDrill
T2C0.800
; #@! TA.AperFunction,Plated,PTH,ComponentDrill
T3C0.900
; #@! TA.AperFunction,Plated,PTH,ComponentDrill
T4C0.950
; #@! TA.AperFunction,Plated,PTH,ComponentDrill
T5C1.000
; #@! TA.AperFunction,Plated,PTH,ComponentDrill
T6C1.100
; #@! TA.AperFunction,Plated,PTH,ComponentDrill
T7C1.190
; #@! TA.AperFunction,Plated,PTH,ComponentDrill
T8C1.200
; #@! TA.AperFunction,Plated,PTH,ComponentDrill
T9C1.300
; #@! TA.AperFunction,Plated,PTH,ComponentDrill
T10C2.200
; #@! TA.AperFunction,Plated,PTH,ComponentDrill
T11C4.064
%
G90
G05
T1
X80.378Y-75.75
X80.48Y-67.134
X89.472Y-76.532
X92.316Y-67.287
X104.813Y-71.96
X109.842Y-63.426
X112.89Y-62.715
T2
X88.226Y-93.179
X98.386Y-93.179
T3
X91.44Y-112.649
X93.98Y-112.649
T4
X103.636Y-92.532
X106.136Y-92.532
X108.636Y-92.532
T5
X123.34Y-52.579
X125.88Y-52.579
X128.42Y-52.579
X130.96Y-52.579
X133.5Y-52.579
X136.04Y-52.579
T6
X77.3Y-35.8
X77.3Y-40.3
X77.3Y-50.852
X77.3Y-55.352
X83.8Y-35.8
X83.8Y-40.3
X83.8Y-50.852
X83.8Y-55.352
X94.8Y-43.318
X94.8Y-47.818
X101.3Y-43.318
X101.3Y-47.818
X109.676Y-50.837
X109.676Y-55.337
X109.778Y-35.8
X109.778Y-40.3
X116.176Y-50.837
X116.176Y-55.337
X116.278Y-35.8
X116.278Y-40.3
X124.814Y-43.318
X124.814Y-47.818
X131.314Y-43.318
X131.314Y-47.818
X142.3Y-35.8
X142.3Y-40.3
X142.3Y-50.852
X142.3Y-55.352
X148.8Y-35.8
X148.8Y-40.3
X148.8Y-50.852
X148.8Y-55.352
T7
X88.248Y-84.455
X90.788Y-84.455
X97.497Y-84.416
X100.037Y-84.416
X106.26Y-84.455
X108.8Y-84.455
T8
X118.833Y-84.035
X118.833Y-89.115
X118.833Y-94.195
T9
X94.061Y-102.402
X94.061Y-107.402
T10
X136.779Y-86.393
X136.779Y-96.393
X136.779Y-106.393
T11
X93.687Y-124.802
X110.959Y-124.802
X127.85Y-124.802
X145.122Y-124.802
M30
