%TF.GenerationSoftware,KiCad,Pcbnew,9.0.3*%
%TF.CreationDate,2025-08-30T18:08:08-03:00*%
%TF.ProjectId,PCB_Integradora,5043425f-496e-4746-9567-7261646f7261,rev?*%
%TF.SameCoordinates,Original*%
%TF.FileFunction,Legend,Top*%
%TF.FilePolarity,Positive*%
%FSLAX46Y46*%
G04 Gerber Fmt 4.6, Leading zero omitted, Abs format (unit mm)*
G04 Created by KiCad (PCBNEW 9.0.3) date 2025-08-30 18:08:08*
%MOMM*%
%LPD*%
G01*
G04 APERTURE LIST*
%ADD10C,0.100000*%
%ADD11C,0.150000*%
%ADD12C,0.300000*%
%ADD13C,0.120000*%
%ADD14C,0.149860*%
%ADD15C,0.000000*%
G04 APERTURE END LIST*
D10*
X79336000Y-80352000D02*
X79336000Y-132168000D01*
X69646800Y-58674000D02*
X168859200Y-58674000D01*
X69600000Y-58651600D02*
X69600000Y-33251600D01*
X160788000Y-80479000D02*
X160788000Y-132041000D01*
X156500000Y-58651600D02*
X156500000Y-33251600D01*
X69850000Y-79705200D02*
X168910000Y-79705200D01*
D11*
X110318779Y-103650387D02*
X110318779Y-102650387D01*
X110318779Y-102650387D02*
X110699731Y-102650387D01*
X110699731Y-102650387D02*
X110794969Y-102698006D01*
X110794969Y-102698006D02*
X110842588Y-102745625D01*
X110842588Y-102745625D02*
X110890207Y-102840863D01*
X110890207Y-102840863D02*
X110890207Y-102983720D01*
X110890207Y-102983720D02*
X110842588Y-103078958D01*
X110842588Y-103078958D02*
X110794969Y-103126577D01*
X110794969Y-103126577D02*
X110699731Y-103174196D01*
X110699731Y-103174196D02*
X110318779Y-103174196D01*
X111318779Y-103650387D02*
X111318779Y-102983720D01*
X111318779Y-103174196D02*
X111366398Y-103078958D01*
X111366398Y-103078958D02*
X111414017Y-103031339D01*
X111414017Y-103031339D02*
X111509255Y-102983720D01*
X111509255Y-102983720D02*
X111604493Y-102983720D01*
X112080684Y-103650387D02*
X111985446Y-103602768D01*
X111985446Y-103602768D02*
X111937827Y-103555148D01*
X111937827Y-103555148D02*
X111890208Y-103459910D01*
X111890208Y-103459910D02*
X111890208Y-103174196D01*
X111890208Y-103174196D02*
X111937827Y-103078958D01*
X111937827Y-103078958D02*
X111985446Y-103031339D01*
X111985446Y-103031339D02*
X112080684Y-102983720D01*
X112080684Y-102983720D02*
X112223541Y-102983720D01*
X112223541Y-102983720D02*
X112318779Y-103031339D01*
X112318779Y-103031339D02*
X112366398Y-103078958D01*
X112366398Y-103078958D02*
X112414017Y-103174196D01*
X112414017Y-103174196D02*
X112414017Y-103459910D01*
X112414017Y-103459910D02*
X112366398Y-103555148D01*
X112366398Y-103555148D02*
X112318779Y-103602768D01*
X112318779Y-103602768D02*
X112223541Y-103650387D01*
X112223541Y-103650387D02*
X112080684Y-103650387D01*
X112747351Y-102983720D02*
X112985446Y-103650387D01*
X113223541Y-102983720D02*
X112985446Y-103650387D01*
X112985446Y-103650387D02*
X112890208Y-103888482D01*
X112890208Y-103888482D02*
X112842589Y-103936101D01*
X112842589Y-103936101D02*
X112747351Y-103983720D01*
X113985446Y-103602768D02*
X113890208Y-103650387D01*
X113890208Y-103650387D02*
X113699732Y-103650387D01*
X113699732Y-103650387D02*
X113604494Y-103602768D01*
X113604494Y-103602768D02*
X113556875Y-103507529D01*
X113556875Y-103507529D02*
X113556875Y-103126577D01*
X113556875Y-103126577D02*
X113604494Y-103031339D01*
X113604494Y-103031339D02*
X113699732Y-102983720D01*
X113699732Y-102983720D02*
X113890208Y-102983720D01*
X113890208Y-102983720D02*
X113985446Y-103031339D01*
X113985446Y-103031339D02*
X114033065Y-103126577D01*
X114033065Y-103126577D02*
X114033065Y-103221815D01*
X114033065Y-103221815D02*
X113556875Y-103317053D01*
X114890208Y-103602768D02*
X114794970Y-103650387D01*
X114794970Y-103650387D02*
X114604494Y-103650387D01*
X114604494Y-103650387D02*
X114509256Y-103602768D01*
X114509256Y-103602768D02*
X114461637Y-103555148D01*
X114461637Y-103555148D02*
X114414018Y-103459910D01*
X114414018Y-103459910D02*
X114414018Y-103174196D01*
X114414018Y-103174196D02*
X114461637Y-103078958D01*
X114461637Y-103078958D02*
X114509256Y-103031339D01*
X114509256Y-103031339D02*
X114604494Y-102983720D01*
X114604494Y-102983720D02*
X114794970Y-102983720D01*
X114794970Y-102983720D02*
X114890208Y-103031339D01*
X115175923Y-102983720D02*
X115556875Y-102983720D01*
X115318780Y-102650387D02*
X115318780Y-103507529D01*
X115318780Y-103507529D02*
X115366399Y-103602768D01*
X115366399Y-103602768D02*
X115461637Y-103650387D01*
X115461637Y-103650387D02*
X115556875Y-103650387D01*
X116033066Y-103650387D02*
X115937828Y-103602768D01*
X115937828Y-103602768D02*
X115890209Y-103555148D01*
X115890209Y-103555148D02*
X115842590Y-103459910D01*
X115842590Y-103459910D02*
X115842590Y-103174196D01*
X115842590Y-103174196D02*
X115890209Y-103078958D01*
X115890209Y-103078958D02*
X115937828Y-103031339D01*
X115937828Y-103031339D02*
X116033066Y-102983720D01*
X116033066Y-102983720D02*
X116175923Y-102983720D01*
X116175923Y-102983720D02*
X116271161Y-103031339D01*
X116271161Y-103031339D02*
X116318780Y-103078958D01*
X116318780Y-103078958D02*
X116366399Y-103174196D01*
X116366399Y-103174196D02*
X116366399Y-103459910D01*
X116366399Y-103459910D02*
X116318780Y-103555148D01*
X116318780Y-103555148D02*
X116271161Y-103602768D01*
X116271161Y-103602768D02*
X116175923Y-103650387D01*
X116175923Y-103650387D02*
X116033066Y-103650387D01*
X117890209Y-103126577D02*
X117556876Y-103126577D01*
X117556876Y-103650387D02*
X117556876Y-102650387D01*
X117556876Y-102650387D02*
X118033066Y-102650387D01*
X118414019Y-103650387D02*
X118414019Y-102983720D01*
X118414019Y-102650387D02*
X118366400Y-102698006D01*
X118366400Y-102698006D02*
X118414019Y-102745625D01*
X118414019Y-102745625D02*
X118461638Y-102698006D01*
X118461638Y-102698006D02*
X118414019Y-102650387D01*
X118414019Y-102650387D02*
X118414019Y-102745625D01*
X118890209Y-102983720D02*
X118890209Y-103650387D01*
X118890209Y-103078958D02*
X118937828Y-103031339D01*
X118937828Y-103031339D02*
X119033066Y-102983720D01*
X119033066Y-102983720D02*
X119175923Y-102983720D01*
X119175923Y-102983720D02*
X119271161Y-103031339D01*
X119271161Y-103031339D02*
X119318780Y-103126577D01*
X119318780Y-103126577D02*
X119318780Y-103650387D01*
X120223542Y-103650387D02*
X120223542Y-103126577D01*
X120223542Y-103126577D02*
X120175923Y-103031339D01*
X120175923Y-103031339D02*
X120080685Y-102983720D01*
X120080685Y-102983720D02*
X119890209Y-102983720D01*
X119890209Y-102983720D02*
X119794971Y-103031339D01*
X120223542Y-103602768D02*
X120128304Y-103650387D01*
X120128304Y-103650387D02*
X119890209Y-103650387D01*
X119890209Y-103650387D02*
X119794971Y-103602768D01*
X119794971Y-103602768D02*
X119747352Y-103507529D01*
X119747352Y-103507529D02*
X119747352Y-103412291D01*
X119747352Y-103412291D02*
X119794971Y-103317053D01*
X119794971Y-103317053D02*
X119890209Y-103269434D01*
X119890209Y-103269434D02*
X120128304Y-103269434D01*
X120128304Y-103269434D02*
X120223542Y-103221815D01*
X120842590Y-103650387D02*
X120747352Y-103602768D01*
X120747352Y-103602768D02*
X120699733Y-103507529D01*
X120699733Y-103507529D02*
X120699733Y-102650387D01*
X110318779Y-104260331D02*
X110318779Y-105069854D01*
X110318779Y-105069854D02*
X110366398Y-105165092D01*
X110366398Y-105165092D02*
X110414017Y-105212712D01*
X110414017Y-105212712D02*
X110509255Y-105260331D01*
X110509255Y-105260331D02*
X110699731Y-105260331D01*
X110699731Y-105260331D02*
X110794969Y-105212712D01*
X110794969Y-105212712D02*
X110842588Y-105165092D01*
X110842588Y-105165092D02*
X110890207Y-105069854D01*
X110890207Y-105069854D02*
X110890207Y-104260331D01*
X111223541Y-104260331D02*
X111794969Y-104260331D01*
X111509255Y-105260331D02*
X111509255Y-104260331D01*
X112128303Y-105260331D02*
X112128303Y-104260331D01*
X112128303Y-104260331D02*
X112699731Y-105260331D01*
X112699731Y-105260331D02*
X112699731Y-104260331D01*
X114271160Y-104736521D02*
X113937827Y-104736521D01*
X113937827Y-105260331D02*
X113937827Y-104260331D01*
X113937827Y-104260331D02*
X114414017Y-104260331D01*
X115366398Y-105260331D02*
X115033065Y-104784140D01*
X114794970Y-105260331D02*
X114794970Y-104260331D01*
X114794970Y-104260331D02*
X115175922Y-104260331D01*
X115175922Y-104260331D02*
X115271160Y-104307950D01*
X115271160Y-104307950D02*
X115318779Y-104355569D01*
X115318779Y-104355569D02*
X115366398Y-104450807D01*
X115366398Y-104450807D02*
X115366398Y-104593664D01*
X115366398Y-104593664D02*
X115318779Y-104688902D01*
X115318779Y-104688902D02*
X115271160Y-104736521D01*
X115271160Y-104736521D02*
X115175922Y-104784140D01*
X115175922Y-104784140D02*
X114794970Y-104784140D01*
X116128303Y-104736521D02*
X116271160Y-104784140D01*
X116271160Y-104784140D02*
X116318779Y-104831759D01*
X116318779Y-104831759D02*
X116366398Y-104926997D01*
X116366398Y-104926997D02*
X116366398Y-105069854D01*
X116366398Y-105069854D02*
X116318779Y-105165092D01*
X116318779Y-105165092D02*
X116271160Y-105212712D01*
X116271160Y-105212712D02*
X116175922Y-105260331D01*
X116175922Y-105260331D02*
X115794970Y-105260331D01*
X115794970Y-105260331D02*
X115794970Y-104260331D01*
X115794970Y-104260331D02*
X116128303Y-104260331D01*
X116128303Y-104260331D02*
X116223541Y-104307950D01*
X116223541Y-104307950D02*
X116271160Y-104355569D01*
X116271160Y-104355569D02*
X116318779Y-104450807D01*
X116318779Y-104450807D02*
X116318779Y-104546045D01*
X116318779Y-104546045D02*
X116271160Y-104641283D01*
X116271160Y-104641283D02*
X116223541Y-104688902D01*
X116223541Y-104688902D02*
X116128303Y-104736521D01*
X116128303Y-104736521D02*
X115794970Y-104736521D01*
X116747351Y-104974616D02*
X117223541Y-104974616D01*
X116652113Y-105260331D02*
X116985446Y-104260331D01*
X116985446Y-104260331D02*
X117318779Y-105260331D01*
X110271160Y-106584560D02*
X110747350Y-106584560D01*
X110175922Y-106870275D02*
X110509255Y-105870275D01*
X110509255Y-105870275D02*
X110842588Y-106870275D01*
X111175922Y-106203608D02*
X111175922Y-106870275D01*
X111175922Y-106298846D02*
X111223541Y-106251227D01*
X111223541Y-106251227D02*
X111318779Y-106203608D01*
X111318779Y-106203608D02*
X111461636Y-106203608D01*
X111461636Y-106203608D02*
X111556874Y-106251227D01*
X111556874Y-106251227D02*
X111604493Y-106346465D01*
X111604493Y-106346465D02*
X111604493Y-106870275D01*
X112509255Y-106870275D02*
X112509255Y-105870275D01*
X112509255Y-106822656D02*
X112414017Y-106870275D01*
X112414017Y-106870275D02*
X112223541Y-106870275D01*
X112223541Y-106870275D02*
X112128303Y-106822656D01*
X112128303Y-106822656D02*
X112080684Y-106775036D01*
X112080684Y-106775036D02*
X112033065Y-106679798D01*
X112033065Y-106679798D02*
X112033065Y-106394084D01*
X112033065Y-106394084D02*
X112080684Y-106298846D01*
X112080684Y-106298846D02*
X112128303Y-106251227D01*
X112128303Y-106251227D02*
X112223541Y-106203608D01*
X112223541Y-106203608D02*
X112414017Y-106203608D01*
X112414017Y-106203608D02*
X112509255Y-106251227D01*
X112985446Y-106870275D02*
X112985446Y-106203608D01*
X112985446Y-106394084D02*
X113033065Y-106298846D01*
X113033065Y-106298846D02*
X113080684Y-106251227D01*
X113080684Y-106251227D02*
X113175922Y-106203608D01*
X113175922Y-106203608D02*
X113271160Y-106203608D01*
X113985446Y-106822656D02*
X113890208Y-106870275D01*
X113890208Y-106870275D02*
X113699732Y-106870275D01*
X113699732Y-106870275D02*
X113604494Y-106822656D01*
X113604494Y-106822656D02*
X113556875Y-106727417D01*
X113556875Y-106727417D02*
X113556875Y-106346465D01*
X113556875Y-106346465D02*
X113604494Y-106251227D01*
X113604494Y-106251227D02*
X113699732Y-106203608D01*
X113699732Y-106203608D02*
X113890208Y-106203608D01*
X113890208Y-106203608D02*
X113985446Y-106251227D01*
X113985446Y-106251227D02*
X114033065Y-106346465D01*
X114033065Y-106346465D02*
X114033065Y-106441703D01*
X114033065Y-106441703D02*
X113556875Y-106536941D01*
X114461637Y-106203608D02*
X114461637Y-106870275D01*
X114461637Y-106298846D02*
X114509256Y-106251227D01*
X114509256Y-106251227D02*
X114604494Y-106203608D01*
X114604494Y-106203608D02*
X114747351Y-106203608D01*
X114747351Y-106203608D02*
X114842589Y-106251227D01*
X114842589Y-106251227D02*
X114890208Y-106346465D01*
X114890208Y-106346465D02*
X114890208Y-106870275D01*
X115794970Y-106870275D02*
X115794970Y-106346465D01*
X115794970Y-106346465D02*
X115747351Y-106251227D01*
X115747351Y-106251227D02*
X115652113Y-106203608D01*
X115652113Y-106203608D02*
X115461637Y-106203608D01*
X115461637Y-106203608D02*
X115366399Y-106251227D01*
X115794970Y-106822656D02*
X115699732Y-106870275D01*
X115699732Y-106870275D02*
X115461637Y-106870275D01*
X115461637Y-106870275D02*
X115366399Y-106822656D01*
X115366399Y-106822656D02*
X115318780Y-106727417D01*
X115318780Y-106727417D02*
X115318780Y-106632179D01*
X115318780Y-106632179D02*
X115366399Y-106536941D01*
X115366399Y-106536941D02*
X115461637Y-106489322D01*
X115461637Y-106489322D02*
X115699732Y-106489322D01*
X115699732Y-106489322D02*
X115794970Y-106441703D01*
X116699732Y-106822656D02*
X116604494Y-106870275D01*
X116604494Y-106870275D02*
X116414018Y-106870275D01*
X116414018Y-106870275D02*
X116318780Y-106822656D01*
X116318780Y-106822656D02*
X116271161Y-106775036D01*
X116271161Y-106775036D02*
X116223542Y-106679798D01*
X116223542Y-106679798D02*
X116223542Y-106394084D01*
X116223542Y-106394084D02*
X116271161Y-106298846D01*
X116271161Y-106298846D02*
X116318780Y-106251227D01*
X116318780Y-106251227D02*
X116414018Y-106203608D01*
X116414018Y-106203608D02*
X116604494Y-106203608D01*
X116604494Y-106203608D02*
X116699732Y-106251227D01*
X117556875Y-106822656D02*
X117461637Y-106870275D01*
X117461637Y-106870275D02*
X117271161Y-106870275D01*
X117271161Y-106870275D02*
X117175923Y-106822656D01*
X117175923Y-106822656D02*
X117128304Y-106775036D01*
X117128304Y-106775036D02*
X117080685Y-106679798D01*
X117080685Y-106679798D02*
X117080685Y-106394084D01*
X117080685Y-106394084D02*
X117128304Y-106298846D01*
X117128304Y-106298846D02*
X117175923Y-106251227D01*
X117175923Y-106251227D02*
X117271161Y-106203608D01*
X117271161Y-106203608D02*
X117461637Y-106203608D01*
X117461637Y-106203608D02*
X117556875Y-106251227D01*
X117985447Y-106870275D02*
X117985447Y-106203608D01*
X117985447Y-105870275D02*
X117937828Y-105917894D01*
X117937828Y-105917894D02*
X117985447Y-105965513D01*
X117985447Y-105965513D02*
X118033066Y-105917894D01*
X118033066Y-105917894D02*
X117985447Y-105870275D01*
X117985447Y-105870275D02*
X117985447Y-105965513D01*
X118509256Y-106822656D02*
X118509256Y-106870275D01*
X118509256Y-106870275D02*
X118461637Y-106965513D01*
X118461637Y-106965513D02*
X118414018Y-107013132D01*
X119699732Y-106346465D02*
X120033065Y-106346465D01*
X120175922Y-106870275D02*
X119699732Y-106870275D01*
X119699732Y-106870275D02*
X119699732Y-105870275D01*
X119699732Y-105870275D02*
X120175922Y-105870275D01*
X120747351Y-106870275D02*
X120652113Y-106822656D01*
X120652113Y-106822656D02*
X120604494Y-106727417D01*
X120604494Y-106727417D02*
X120604494Y-105870275D01*
X121128304Y-106870275D02*
X121128304Y-106203608D01*
X121128304Y-105870275D02*
X121080685Y-105917894D01*
X121080685Y-105917894D02*
X121128304Y-105965513D01*
X121128304Y-105965513D02*
X121175923Y-105917894D01*
X121175923Y-105917894D02*
X121128304Y-105870275D01*
X121128304Y-105870275D02*
X121128304Y-105965513D01*
X122033065Y-106870275D02*
X122033065Y-106346465D01*
X122033065Y-106346465D02*
X121985446Y-106251227D01*
X121985446Y-106251227D02*
X121890208Y-106203608D01*
X121890208Y-106203608D02*
X121699732Y-106203608D01*
X121699732Y-106203608D02*
X121604494Y-106251227D01*
X122033065Y-106822656D02*
X121937827Y-106870275D01*
X121937827Y-106870275D02*
X121699732Y-106870275D01*
X121699732Y-106870275D02*
X121604494Y-106822656D01*
X121604494Y-106822656D02*
X121556875Y-106727417D01*
X121556875Y-106727417D02*
X121556875Y-106632179D01*
X121556875Y-106632179D02*
X121604494Y-106536941D01*
X121604494Y-106536941D02*
X121699732Y-106489322D01*
X121699732Y-106489322D02*
X121937827Y-106489322D01*
X121937827Y-106489322D02*
X122033065Y-106441703D01*
X122509256Y-106203608D02*
X122509256Y-106870275D01*
X122509256Y-106298846D02*
X122556875Y-106251227D01*
X122556875Y-106251227D02*
X122652113Y-106203608D01*
X122652113Y-106203608D02*
X122794970Y-106203608D01*
X122794970Y-106203608D02*
X122890208Y-106251227D01*
X122890208Y-106251227D02*
X122937827Y-106346465D01*
X122937827Y-106346465D02*
X122937827Y-106870275D01*
X110890207Y-108384980D02*
X110842588Y-108432600D01*
X110842588Y-108432600D02*
X110699731Y-108480219D01*
X110699731Y-108480219D02*
X110604493Y-108480219D01*
X110604493Y-108480219D02*
X110461636Y-108432600D01*
X110461636Y-108432600D02*
X110366398Y-108337361D01*
X110366398Y-108337361D02*
X110318779Y-108242123D01*
X110318779Y-108242123D02*
X110271160Y-108051647D01*
X110271160Y-108051647D02*
X110271160Y-107908790D01*
X110271160Y-107908790D02*
X110318779Y-107718314D01*
X110318779Y-107718314D02*
X110366398Y-107623076D01*
X110366398Y-107623076D02*
X110461636Y-107527838D01*
X110461636Y-107527838D02*
X110604493Y-107480219D01*
X110604493Y-107480219D02*
X110699731Y-107480219D01*
X110699731Y-107480219D02*
X110842588Y-107527838D01*
X110842588Y-107527838D02*
X110890207Y-107575457D01*
X111747350Y-108480219D02*
X111747350Y-107956409D01*
X111747350Y-107956409D02*
X111699731Y-107861171D01*
X111699731Y-107861171D02*
X111604493Y-107813552D01*
X111604493Y-107813552D02*
X111414017Y-107813552D01*
X111414017Y-107813552D02*
X111318779Y-107861171D01*
X111747350Y-108432600D02*
X111652112Y-108480219D01*
X111652112Y-108480219D02*
X111414017Y-108480219D01*
X111414017Y-108480219D02*
X111318779Y-108432600D01*
X111318779Y-108432600D02*
X111271160Y-108337361D01*
X111271160Y-108337361D02*
X111271160Y-108242123D01*
X111271160Y-108242123D02*
X111318779Y-108146885D01*
X111318779Y-108146885D02*
X111414017Y-108099266D01*
X111414017Y-108099266D02*
X111652112Y-108099266D01*
X111652112Y-108099266D02*
X111747350Y-108051647D01*
X112223541Y-108480219D02*
X112223541Y-107813552D01*
X112223541Y-108004028D02*
X112271160Y-107908790D01*
X112271160Y-107908790D02*
X112318779Y-107861171D01*
X112318779Y-107861171D02*
X112414017Y-107813552D01*
X112414017Y-107813552D02*
X112509255Y-107813552D01*
X112842589Y-108480219D02*
X112842589Y-107813552D01*
X112842589Y-108004028D02*
X112890208Y-107908790D01*
X112890208Y-107908790D02*
X112937827Y-107861171D01*
X112937827Y-107861171D02*
X113033065Y-107813552D01*
X113033065Y-107813552D02*
X113128303Y-107813552D01*
X113890208Y-108480219D02*
X113890208Y-107956409D01*
X113890208Y-107956409D02*
X113842589Y-107861171D01*
X113842589Y-107861171D02*
X113747351Y-107813552D01*
X113747351Y-107813552D02*
X113556875Y-107813552D01*
X113556875Y-107813552D02*
X113461637Y-107861171D01*
X113890208Y-108432600D02*
X113794970Y-108480219D01*
X113794970Y-108480219D02*
X113556875Y-108480219D01*
X113556875Y-108480219D02*
X113461637Y-108432600D01*
X113461637Y-108432600D02*
X113414018Y-108337361D01*
X113414018Y-108337361D02*
X113414018Y-108242123D01*
X113414018Y-108242123D02*
X113461637Y-108146885D01*
X113461637Y-108146885D02*
X113556875Y-108099266D01*
X113556875Y-108099266D02*
X113794970Y-108099266D01*
X113794970Y-108099266D02*
X113890208Y-108051647D01*
X114414018Y-108432600D02*
X114414018Y-108480219D01*
X114414018Y-108480219D02*
X114366399Y-108575457D01*
X114366399Y-108575457D02*
X114318780Y-108623076D01*
X116080684Y-108480219D02*
X115604494Y-108480219D01*
X115604494Y-108480219D02*
X115604494Y-107480219D01*
X116842589Y-107813552D02*
X116842589Y-108480219D01*
X116414018Y-107813552D02*
X116414018Y-108337361D01*
X116414018Y-108337361D02*
X116461637Y-108432600D01*
X116461637Y-108432600D02*
X116556875Y-108480219D01*
X116556875Y-108480219D02*
X116699732Y-108480219D01*
X116699732Y-108480219D02*
X116794970Y-108432600D01*
X116794970Y-108432600D02*
X116842589Y-108384980D01*
X117747351Y-108432600D02*
X117652113Y-108480219D01*
X117652113Y-108480219D02*
X117461637Y-108480219D01*
X117461637Y-108480219D02*
X117366399Y-108432600D01*
X117366399Y-108432600D02*
X117318780Y-108384980D01*
X117318780Y-108384980D02*
X117271161Y-108289742D01*
X117271161Y-108289742D02*
X117271161Y-108004028D01*
X117271161Y-108004028D02*
X117318780Y-107908790D01*
X117318780Y-107908790D02*
X117366399Y-107861171D01*
X117366399Y-107861171D02*
X117461637Y-107813552D01*
X117461637Y-107813552D02*
X117652113Y-107813552D01*
X117652113Y-107813552D02*
X117747351Y-107861171D01*
X118604494Y-108480219D02*
X118604494Y-107956409D01*
X118604494Y-107956409D02*
X118556875Y-107861171D01*
X118556875Y-107861171D02*
X118461637Y-107813552D01*
X118461637Y-107813552D02*
X118271161Y-107813552D01*
X118271161Y-107813552D02*
X118175923Y-107861171D01*
X118604494Y-108432600D02*
X118509256Y-108480219D01*
X118509256Y-108480219D02*
X118271161Y-108480219D01*
X118271161Y-108480219D02*
X118175923Y-108432600D01*
X118175923Y-108432600D02*
X118128304Y-108337361D01*
X118128304Y-108337361D02*
X118128304Y-108242123D01*
X118128304Y-108242123D02*
X118175923Y-108146885D01*
X118175923Y-108146885D02*
X118271161Y-108099266D01*
X118271161Y-108099266D02*
X118509256Y-108099266D01*
X118509256Y-108099266D02*
X118604494Y-108051647D01*
X119033066Y-108432600D02*
X119128304Y-108480219D01*
X119128304Y-108480219D02*
X119318780Y-108480219D01*
X119318780Y-108480219D02*
X119414018Y-108432600D01*
X119414018Y-108432600D02*
X119461637Y-108337361D01*
X119461637Y-108337361D02*
X119461637Y-108289742D01*
X119461637Y-108289742D02*
X119414018Y-108194504D01*
X119414018Y-108194504D02*
X119318780Y-108146885D01*
X119318780Y-108146885D02*
X119175923Y-108146885D01*
X119175923Y-108146885D02*
X119080685Y-108099266D01*
X119080685Y-108099266D02*
X119033066Y-108004028D01*
X119033066Y-108004028D02*
X119033066Y-107956409D01*
X119033066Y-107956409D02*
X119080685Y-107861171D01*
X119080685Y-107861171D02*
X119175923Y-107813552D01*
X119175923Y-107813552D02*
X119318780Y-107813552D01*
X119318780Y-107813552D02*
X119414018Y-107861171D01*
D12*
X85123203Y-101623257D02*
X84980346Y-101551828D01*
X84980346Y-101551828D02*
X84766060Y-101551828D01*
X84766060Y-101551828D02*
X84551774Y-101623257D01*
X84551774Y-101623257D02*
X84408917Y-101766114D01*
X84408917Y-101766114D02*
X84337488Y-101908971D01*
X84337488Y-101908971D02*
X84266060Y-102194685D01*
X84266060Y-102194685D02*
X84266060Y-102408971D01*
X84266060Y-102408971D02*
X84337488Y-102694685D01*
X84337488Y-102694685D02*
X84408917Y-102837542D01*
X84408917Y-102837542D02*
X84551774Y-102980400D01*
X84551774Y-102980400D02*
X84766060Y-103051828D01*
X84766060Y-103051828D02*
X84908917Y-103051828D01*
X84908917Y-103051828D02*
X85123203Y-102980400D01*
X85123203Y-102980400D02*
X85194631Y-102908971D01*
X85194631Y-102908971D02*
X85194631Y-102408971D01*
X85194631Y-102408971D02*
X84908917Y-102408971D01*
X85837488Y-102051828D02*
X85837488Y-103051828D01*
X85837488Y-102194685D02*
X85908917Y-102123257D01*
X85908917Y-102123257D02*
X86051774Y-102051828D01*
X86051774Y-102051828D02*
X86266060Y-102051828D01*
X86266060Y-102051828D02*
X86408917Y-102123257D01*
X86408917Y-102123257D02*
X86480346Y-102266114D01*
X86480346Y-102266114D02*
X86480346Y-103051828D01*
X87837489Y-103051828D02*
X87837489Y-101551828D01*
X87837489Y-102980400D02*
X87694631Y-103051828D01*
X87694631Y-103051828D02*
X87408917Y-103051828D01*
X87408917Y-103051828D02*
X87266060Y-102980400D01*
X87266060Y-102980400D02*
X87194631Y-102908971D01*
X87194631Y-102908971D02*
X87123203Y-102766114D01*
X87123203Y-102766114D02*
X87123203Y-102337542D01*
X87123203Y-102337542D02*
X87194631Y-102194685D01*
X87194631Y-102194685D02*
X87266060Y-102123257D01*
X87266060Y-102123257D02*
X87408917Y-102051828D01*
X87408917Y-102051828D02*
X87694631Y-102051828D01*
X87694631Y-102051828D02*
X87837489Y-102123257D01*
X85702633Y-108131828D02*
X84845490Y-108131828D01*
X85274061Y-108131828D02*
X85274061Y-106631828D01*
X85274061Y-106631828D02*
X85131204Y-106846114D01*
X85131204Y-106846114D02*
X84988347Y-106988971D01*
X84988347Y-106988971D02*
X84845490Y-107060400D01*
X86274061Y-106774685D02*
X86345489Y-106703257D01*
X86345489Y-106703257D02*
X86488347Y-106631828D01*
X86488347Y-106631828D02*
X86845489Y-106631828D01*
X86845489Y-106631828D02*
X86988347Y-106703257D01*
X86988347Y-106703257D02*
X87059775Y-106774685D01*
X87059775Y-106774685D02*
X87131204Y-106917542D01*
X87131204Y-106917542D02*
X87131204Y-107060400D01*
X87131204Y-107060400D02*
X87059775Y-107274685D01*
X87059775Y-107274685D02*
X86202632Y-108131828D01*
X86202632Y-108131828D02*
X87131204Y-108131828D01*
X87559775Y-106631828D02*
X88059775Y-108131828D01*
X88059775Y-108131828D02*
X88559775Y-106631828D01*
D11*
X95616019Y-69521694D02*
X94616019Y-69521694D01*
X94616019Y-69521694D02*
X94616019Y-69283599D01*
X94616019Y-69283599D02*
X94663638Y-69140742D01*
X94663638Y-69140742D02*
X94758876Y-69045504D01*
X94758876Y-69045504D02*
X94854114Y-68997885D01*
X94854114Y-68997885D02*
X95044590Y-68950266D01*
X95044590Y-68950266D02*
X95187447Y-68950266D01*
X95187447Y-68950266D02*
X95377923Y-68997885D01*
X95377923Y-68997885D02*
X95473161Y-69045504D01*
X95473161Y-69045504D02*
X95568400Y-69140742D01*
X95568400Y-69140742D02*
X95616019Y-69283599D01*
X95616019Y-69283599D02*
X95616019Y-69521694D01*
X94711257Y-68569313D02*
X94663638Y-68521694D01*
X94663638Y-68521694D02*
X94616019Y-68426456D01*
X94616019Y-68426456D02*
X94616019Y-68188361D01*
X94616019Y-68188361D02*
X94663638Y-68093123D01*
X94663638Y-68093123D02*
X94711257Y-68045504D01*
X94711257Y-68045504D02*
X94806495Y-67997885D01*
X94806495Y-67997885D02*
X94901733Y-67997885D01*
X94901733Y-67997885D02*
X95044590Y-68045504D01*
X95044590Y-68045504D02*
X95616019Y-68616932D01*
X95616019Y-68616932D02*
X95616019Y-67997885D01*
X144115067Y-42927600D02*
X144257924Y-42975219D01*
X144257924Y-42975219D02*
X144496019Y-42975219D01*
X144496019Y-42975219D02*
X144591257Y-42927600D01*
X144591257Y-42927600D02*
X144638876Y-42879980D01*
X144638876Y-42879980D02*
X144686495Y-42784742D01*
X144686495Y-42784742D02*
X144686495Y-42689504D01*
X144686495Y-42689504D02*
X144638876Y-42594266D01*
X144638876Y-42594266D02*
X144591257Y-42546647D01*
X144591257Y-42546647D02*
X144496019Y-42499028D01*
X144496019Y-42499028D02*
X144305543Y-42451409D01*
X144305543Y-42451409D02*
X144210305Y-42403790D01*
X144210305Y-42403790D02*
X144162686Y-42356171D01*
X144162686Y-42356171D02*
X144115067Y-42260933D01*
X144115067Y-42260933D02*
X144115067Y-42165695D01*
X144115067Y-42165695D02*
X144162686Y-42070457D01*
X144162686Y-42070457D02*
X144210305Y-42022838D01*
X144210305Y-42022838D02*
X144305543Y-41975219D01*
X144305543Y-41975219D02*
X144543638Y-41975219D01*
X144543638Y-41975219D02*
X144686495Y-42022838D01*
X145019829Y-41975219D02*
X145257924Y-42975219D01*
X145257924Y-42975219D02*
X145448400Y-42260933D01*
X145448400Y-42260933D02*
X145638876Y-42975219D01*
X145638876Y-42975219D02*
X145876972Y-41975219D01*
X146686495Y-41975219D02*
X146496019Y-41975219D01*
X146496019Y-41975219D02*
X146400781Y-42022838D01*
X146400781Y-42022838D02*
X146353162Y-42070457D01*
X146353162Y-42070457D02*
X146257924Y-42213314D01*
X146257924Y-42213314D02*
X146210305Y-42403790D01*
X146210305Y-42403790D02*
X146210305Y-42784742D01*
X146210305Y-42784742D02*
X146257924Y-42879980D01*
X146257924Y-42879980D02*
X146305543Y-42927600D01*
X146305543Y-42927600D02*
X146400781Y-42975219D01*
X146400781Y-42975219D02*
X146591257Y-42975219D01*
X146591257Y-42975219D02*
X146686495Y-42927600D01*
X146686495Y-42927600D02*
X146734114Y-42879980D01*
X146734114Y-42879980D02*
X146781733Y-42784742D01*
X146781733Y-42784742D02*
X146781733Y-42546647D01*
X146781733Y-42546647D02*
X146734114Y-42451409D01*
X146734114Y-42451409D02*
X146686495Y-42403790D01*
X146686495Y-42403790D02*
X146591257Y-42356171D01*
X146591257Y-42356171D02*
X146400781Y-42356171D01*
X146400781Y-42356171D02*
X146305543Y-42403790D01*
X146305543Y-42403790D02*
X146257924Y-42451409D01*
X146257924Y-42451409D02*
X146210305Y-42546647D01*
X85444133Y-67493980D02*
X85396514Y-67541600D01*
X85396514Y-67541600D02*
X85253657Y-67589219D01*
X85253657Y-67589219D02*
X85158419Y-67589219D01*
X85158419Y-67589219D02*
X85015562Y-67541600D01*
X85015562Y-67541600D02*
X84920324Y-67446361D01*
X84920324Y-67446361D02*
X84872705Y-67351123D01*
X84872705Y-67351123D02*
X84825086Y-67160647D01*
X84825086Y-67160647D02*
X84825086Y-67017790D01*
X84825086Y-67017790D02*
X84872705Y-66827314D01*
X84872705Y-66827314D02*
X84920324Y-66732076D01*
X84920324Y-66732076D02*
X85015562Y-66636838D01*
X85015562Y-66636838D02*
X85158419Y-66589219D01*
X85158419Y-66589219D02*
X85253657Y-66589219D01*
X85253657Y-66589219D02*
X85396514Y-66636838D01*
X85396514Y-66636838D02*
X85444133Y-66684457D01*
X86301276Y-66922552D02*
X86301276Y-67589219D01*
X86063181Y-66541600D02*
X85825086Y-67255885D01*
X85825086Y-67255885D02*
X86444133Y-67255885D01*
X102183419Y-89437019D02*
X102183419Y-88437019D01*
X102183419Y-88437019D02*
X102516752Y-89151304D01*
X102516752Y-89151304D02*
X102850085Y-88437019D01*
X102850085Y-88437019D02*
X102850085Y-89437019D01*
X103326276Y-89437019D02*
X103326276Y-88770352D01*
X103326276Y-88437019D02*
X103278657Y-88484638D01*
X103278657Y-88484638D02*
X103326276Y-88532257D01*
X103326276Y-88532257D02*
X103373895Y-88484638D01*
X103373895Y-88484638D02*
X103326276Y-88437019D01*
X103326276Y-88437019D02*
X103326276Y-88532257D01*
X104231037Y-89389400D02*
X104135799Y-89437019D01*
X104135799Y-89437019D02*
X103945323Y-89437019D01*
X103945323Y-89437019D02*
X103850085Y-89389400D01*
X103850085Y-89389400D02*
X103802466Y-89341780D01*
X103802466Y-89341780D02*
X103754847Y-89246542D01*
X103754847Y-89246542D02*
X103754847Y-88960828D01*
X103754847Y-88960828D02*
X103802466Y-88865590D01*
X103802466Y-88865590D02*
X103850085Y-88817971D01*
X103850085Y-88817971D02*
X103945323Y-88770352D01*
X103945323Y-88770352D02*
X104135799Y-88770352D01*
X104135799Y-88770352D02*
X104231037Y-88817971D01*
X104659609Y-89437019D02*
X104659609Y-88770352D01*
X104659609Y-88960828D02*
X104707228Y-88865590D01*
X104707228Y-88865590D02*
X104754847Y-88817971D01*
X104754847Y-88817971D02*
X104850085Y-88770352D01*
X104850085Y-88770352D02*
X104945323Y-88770352D01*
X105421514Y-89437019D02*
X105326276Y-89389400D01*
X105326276Y-89389400D02*
X105278657Y-89341780D01*
X105278657Y-89341780D02*
X105231038Y-89246542D01*
X105231038Y-89246542D02*
X105231038Y-88960828D01*
X105231038Y-88960828D02*
X105278657Y-88865590D01*
X105278657Y-88865590D02*
X105326276Y-88817971D01*
X105326276Y-88817971D02*
X105421514Y-88770352D01*
X105421514Y-88770352D02*
X105564371Y-88770352D01*
X105564371Y-88770352D02*
X105659609Y-88817971D01*
X105659609Y-88817971D02*
X105707228Y-88865590D01*
X105707228Y-88865590D02*
X105754847Y-88960828D01*
X105754847Y-88960828D02*
X105754847Y-89246542D01*
X105754847Y-89246542D02*
X105707228Y-89341780D01*
X105707228Y-89341780D02*
X105659609Y-89389400D01*
X105659609Y-89389400D02*
X105564371Y-89437019D01*
X105564371Y-89437019D02*
X105421514Y-89437019D01*
X105945324Y-89532257D02*
X106707228Y-89532257D01*
X106945324Y-89437019D02*
X106945324Y-88437019D01*
X106945324Y-88437019D02*
X107326276Y-88437019D01*
X107326276Y-88437019D02*
X107421514Y-88484638D01*
X107421514Y-88484638D02*
X107469133Y-88532257D01*
X107469133Y-88532257D02*
X107516752Y-88627495D01*
X107516752Y-88627495D02*
X107516752Y-88770352D01*
X107516752Y-88770352D02*
X107469133Y-88865590D01*
X107469133Y-88865590D02*
X107421514Y-88913209D01*
X107421514Y-88913209D02*
X107326276Y-88960828D01*
X107326276Y-88960828D02*
X106945324Y-88960828D01*
X107850086Y-88770352D02*
X108040562Y-89437019D01*
X108040562Y-89437019D02*
X108231038Y-88960828D01*
X108231038Y-88960828D02*
X108421514Y-89437019D01*
X108421514Y-89437019D02*
X108611990Y-88770352D01*
X108992943Y-89437019D02*
X108992943Y-88770352D01*
X108992943Y-88960828D02*
X109040562Y-88865590D01*
X109040562Y-88865590D02*
X109088181Y-88817971D01*
X109088181Y-88817971D02*
X109183419Y-88770352D01*
X109183419Y-88770352D02*
X109278657Y-88770352D01*
X110135800Y-89437019D02*
X109564372Y-89437019D01*
X109850086Y-89437019D02*
X109850086Y-88437019D01*
X109850086Y-88437019D02*
X109754848Y-88579876D01*
X109754848Y-88579876D02*
X109659610Y-88675114D01*
X109659610Y-88675114D02*
X109564372Y-88722733D01*
X126731067Y-41725600D02*
X126873924Y-41773219D01*
X126873924Y-41773219D02*
X127112019Y-41773219D01*
X127112019Y-41773219D02*
X127207257Y-41725600D01*
X127207257Y-41725600D02*
X127254876Y-41677980D01*
X127254876Y-41677980D02*
X127302495Y-41582742D01*
X127302495Y-41582742D02*
X127302495Y-41487504D01*
X127302495Y-41487504D02*
X127254876Y-41392266D01*
X127254876Y-41392266D02*
X127207257Y-41344647D01*
X127207257Y-41344647D02*
X127112019Y-41297028D01*
X127112019Y-41297028D02*
X126921543Y-41249409D01*
X126921543Y-41249409D02*
X126826305Y-41201790D01*
X126826305Y-41201790D02*
X126778686Y-41154171D01*
X126778686Y-41154171D02*
X126731067Y-41058933D01*
X126731067Y-41058933D02*
X126731067Y-40963695D01*
X126731067Y-40963695D02*
X126778686Y-40868457D01*
X126778686Y-40868457D02*
X126826305Y-40820838D01*
X126826305Y-40820838D02*
X126921543Y-40773219D01*
X126921543Y-40773219D02*
X127159638Y-40773219D01*
X127159638Y-40773219D02*
X127302495Y-40820838D01*
X127635829Y-40773219D02*
X127873924Y-41773219D01*
X127873924Y-41773219D02*
X128064400Y-41058933D01*
X128064400Y-41058933D02*
X128254876Y-41773219D01*
X128254876Y-41773219D02*
X128492972Y-40773219D01*
X129302495Y-41106552D02*
X129302495Y-41773219D01*
X129064400Y-40725600D02*
X128826305Y-41439885D01*
X128826305Y-41439885D02*
X129445352Y-41439885D01*
X94130019Y-87529609D02*
X93130019Y-87529609D01*
X93463352Y-87053419D02*
X94130019Y-87053419D01*
X93558590Y-87053419D02*
X93510971Y-87005800D01*
X93510971Y-87005800D02*
X93463352Y-86910562D01*
X93463352Y-86910562D02*
X93463352Y-86767705D01*
X93463352Y-86767705D02*
X93510971Y-86672467D01*
X93510971Y-86672467D02*
X93606209Y-86624848D01*
X93606209Y-86624848D02*
X94130019Y-86624848D01*
X93463352Y-86243895D02*
X94130019Y-86005800D01*
X94130019Y-86005800D02*
X93463352Y-85767705D01*
X94225257Y-85624848D02*
X94225257Y-84862943D01*
X94130019Y-84624847D02*
X93130019Y-84624847D01*
X93130019Y-84624847D02*
X93130019Y-84243895D01*
X93130019Y-84243895D02*
X93177638Y-84148657D01*
X93177638Y-84148657D02*
X93225257Y-84101038D01*
X93225257Y-84101038D02*
X93320495Y-84053419D01*
X93320495Y-84053419D02*
X93463352Y-84053419D01*
X93463352Y-84053419D02*
X93558590Y-84101038D01*
X93558590Y-84101038D02*
X93606209Y-84148657D01*
X93606209Y-84148657D02*
X93653828Y-84243895D01*
X93653828Y-84243895D02*
X93653828Y-84624847D01*
X93463352Y-83720085D02*
X94130019Y-83529609D01*
X94130019Y-83529609D02*
X93653828Y-83339133D01*
X93653828Y-83339133D02*
X94130019Y-83148657D01*
X94130019Y-83148657D02*
X93463352Y-82958181D01*
X94130019Y-82577228D02*
X93463352Y-82577228D01*
X93653828Y-82577228D02*
X93558590Y-82529609D01*
X93558590Y-82529609D02*
X93510971Y-82481990D01*
X93510971Y-82481990D02*
X93463352Y-82386752D01*
X93463352Y-82386752D02*
X93463352Y-82291514D01*
X94130019Y-81434371D02*
X94130019Y-82005799D01*
X94130019Y-81720085D02*
X93130019Y-81720085D01*
X93130019Y-81720085D02*
X93272876Y-81815323D01*
X93272876Y-81815323D02*
X93368114Y-81910561D01*
X93368114Y-81910561D02*
X93415733Y-82005799D01*
X108659733Y-77349180D02*
X108612114Y-77396800D01*
X108612114Y-77396800D02*
X108469257Y-77444419D01*
X108469257Y-77444419D02*
X108374019Y-77444419D01*
X108374019Y-77444419D02*
X108231162Y-77396800D01*
X108231162Y-77396800D02*
X108135924Y-77301561D01*
X108135924Y-77301561D02*
X108088305Y-77206323D01*
X108088305Y-77206323D02*
X108040686Y-77015847D01*
X108040686Y-77015847D02*
X108040686Y-76872990D01*
X108040686Y-76872990D02*
X108088305Y-76682514D01*
X108088305Y-76682514D02*
X108135924Y-76587276D01*
X108135924Y-76587276D02*
X108231162Y-76492038D01*
X108231162Y-76492038D02*
X108374019Y-76444419D01*
X108374019Y-76444419D02*
X108469257Y-76444419D01*
X108469257Y-76444419D02*
X108612114Y-76492038D01*
X108612114Y-76492038D02*
X108659733Y-76539657D01*
X109564495Y-76444419D02*
X109088305Y-76444419D01*
X109088305Y-76444419D02*
X109040686Y-76920609D01*
X109040686Y-76920609D02*
X109088305Y-76872990D01*
X109088305Y-76872990D02*
X109183543Y-76825371D01*
X109183543Y-76825371D02*
X109421638Y-76825371D01*
X109421638Y-76825371D02*
X109516876Y-76872990D01*
X109516876Y-76872990D02*
X109564495Y-76920609D01*
X109564495Y-76920609D02*
X109612114Y-77015847D01*
X109612114Y-77015847D02*
X109612114Y-77253942D01*
X109612114Y-77253942D02*
X109564495Y-77349180D01*
X109564495Y-77349180D02*
X109516876Y-77396800D01*
X109516876Y-77396800D02*
X109421638Y-77444419D01*
X109421638Y-77444419D02*
X109183543Y-77444419D01*
X109183543Y-77444419D02*
X109088305Y-77396800D01*
X109088305Y-77396800D02*
X109040686Y-77349180D01*
X75015866Y-76596819D02*
X75015866Y-77311104D01*
X75015866Y-77311104D02*
X74968247Y-77453961D01*
X74968247Y-77453961D02*
X74873009Y-77549200D01*
X74873009Y-77549200D02*
X74730152Y-77596819D01*
X74730152Y-77596819D02*
X74634914Y-77596819D01*
X75444438Y-76692057D02*
X75492057Y-76644438D01*
X75492057Y-76644438D02*
X75587295Y-76596819D01*
X75587295Y-76596819D02*
X75825390Y-76596819D01*
X75825390Y-76596819D02*
X75920628Y-76644438D01*
X75920628Y-76644438D02*
X75968247Y-76692057D01*
X75968247Y-76692057D02*
X76015866Y-76787295D01*
X76015866Y-76787295D02*
X76015866Y-76882533D01*
X76015866Y-76882533D02*
X75968247Y-77025390D01*
X75968247Y-77025390D02*
X75396819Y-77596819D01*
X75396819Y-77596819D02*
X76015866Y-77596819D01*
X137764819Y-57297133D02*
X138479104Y-57297133D01*
X138479104Y-57297133D02*
X138621961Y-57344752D01*
X138621961Y-57344752D02*
X138717200Y-57439990D01*
X138717200Y-57439990D02*
X138764819Y-57582847D01*
X138764819Y-57582847D02*
X138764819Y-57678085D01*
X138764819Y-56297133D02*
X138764819Y-56868561D01*
X138764819Y-56582847D02*
X137764819Y-56582847D01*
X137764819Y-56582847D02*
X137907676Y-56678085D01*
X137907676Y-56678085D02*
X138002914Y-56773323D01*
X138002914Y-56773323D02*
X138050533Y-56868561D01*
X97546419Y-77981266D02*
X97070228Y-78314599D01*
X97546419Y-78552694D02*
X96546419Y-78552694D01*
X96546419Y-78552694D02*
X96546419Y-78171742D01*
X96546419Y-78171742D02*
X96594038Y-78076504D01*
X96594038Y-78076504D02*
X96641657Y-78028885D01*
X96641657Y-78028885D02*
X96736895Y-77981266D01*
X96736895Y-77981266D02*
X96879752Y-77981266D01*
X96879752Y-77981266D02*
X96974990Y-78028885D01*
X96974990Y-78028885D02*
X97022609Y-78076504D01*
X97022609Y-78076504D02*
X97070228Y-78171742D01*
X97070228Y-78171742D02*
X97070228Y-78552694D01*
X96546419Y-77647932D02*
X96546419Y-77028885D01*
X96546419Y-77028885D02*
X96927371Y-77362218D01*
X96927371Y-77362218D02*
X96927371Y-77219361D01*
X96927371Y-77219361D02*
X96974990Y-77124123D01*
X96974990Y-77124123D02*
X97022609Y-77076504D01*
X97022609Y-77076504D02*
X97117847Y-77028885D01*
X97117847Y-77028885D02*
X97355942Y-77028885D01*
X97355942Y-77028885D02*
X97451180Y-77076504D01*
X97451180Y-77076504D02*
X97498800Y-77124123D01*
X97498800Y-77124123D02*
X97546419Y-77219361D01*
X97546419Y-77219361D02*
X97546419Y-77505075D01*
X97546419Y-77505075D02*
X97498800Y-77600313D01*
X97498800Y-77600313D02*
X97451180Y-77647932D01*
D10*
X133494619Y-118235419D02*
X133494619Y-117235419D01*
X133494619Y-117235419D02*
X133875571Y-117235419D01*
X133875571Y-117235419D02*
X133970809Y-117283038D01*
X133970809Y-117283038D02*
X134018428Y-117330657D01*
X134018428Y-117330657D02*
X134066047Y-117425895D01*
X134066047Y-117425895D02*
X134066047Y-117568752D01*
X134066047Y-117568752D02*
X134018428Y-117663990D01*
X134018428Y-117663990D02*
X133970809Y-117711609D01*
X133970809Y-117711609D02*
X133875571Y-117759228D01*
X133875571Y-117759228D02*
X133494619Y-117759228D01*
X134399381Y-117568752D02*
X134589857Y-118235419D01*
X134589857Y-118235419D02*
X134780333Y-117759228D01*
X134780333Y-117759228D02*
X134970809Y-118235419D01*
X134970809Y-118235419D02*
X135161285Y-117568752D01*
X135304143Y-118330657D02*
X136066047Y-118330657D01*
X136304143Y-118235419D02*
X136304143Y-117235419D01*
X136780333Y-117568752D02*
X136780333Y-118235419D01*
X136780333Y-117663990D02*
X136827952Y-117616371D01*
X136827952Y-117616371D02*
X136923190Y-117568752D01*
X136923190Y-117568752D02*
X137066047Y-117568752D01*
X137066047Y-117568752D02*
X137161285Y-117616371D01*
X137161285Y-117616371D02*
X137208904Y-117711609D01*
X137208904Y-117711609D02*
X137208904Y-118235419D01*
X137685095Y-117854466D02*
X138447000Y-117854466D01*
X139446999Y-118235419D02*
X138875571Y-118235419D01*
X139161285Y-118235419D02*
X139161285Y-117235419D01*
X139161285Y-117235419D02*
X139066047Y-117378276D01*
X139066047Y-117378276D02*
X138970809Y-117473514D01*
X138970809Y-117473514D02*
X138875571Y-117521133D01*
D11*
X114078076Y-62572400D02*
X114220933Y-62620019D01*
X114220933Y-62620019D02*
X114459028Y-62620019D01*
X114459028Y-62620019D02*
X114554266Y-62572400D01*
X114554266Y-62572400D02*
X114601885Y-62524780D01*
X114601885Y-62524780D02*
X114649504Y-62429542D01*
X114649504Y-62429542D02*
X114649504Y-62334304D01*
X114649504Y-62334304D02*
X114601885Y-62239066D01*
X114601885Y-62239066D02*
X114554266Y-62191447D01*
X114554266Y-62191447D02*
X114459028Y-62143828D01*
X114459028Y-62143828D02*
X114268552Y-62096209D01*
X114268552Y-62096209D02*
X114173314Y-62048590D01*
X114173314Y-62048590D02*
X114125695Y-62000971D01*
X114125695Y-62000971D02*
X114078076Y-61905733D01*
X114078076Y-61905733D02*
X114078076Y-61810495D01*
X114078076Y-61810495D02*
X114125695Y-61715257D01*
X114125695Y-61715257D02*
X114173314Y-61667638D01*
X114173314Y-61667638D02*
X114268552Y-61620019D01*
X114268552Y-61620019D02*
X114506647Y-61620019D01*
X114506647Y-61620019D02*
X114649504Y-61667638D01*
X114982838Y-61620019D02*
X115220933Y-62620019D01*
X115220933Y-62620019D02*
X115411409Y-61905733D01*
X115411409Y-61905733D02*
X115601885Y-62620019D01*
X115601885Y-62620019D02*
X115839981Y-61620019D01*
X116744742Y-62620019D02*
X116173314Y-62620019D01*
X116459028Y-62620019D02*
X116459028Y-61620019D01*
X116459028Y-61620019D02*
X116363790Y-61762876D01*
X116363790Y-61762876D02*
X116268552Y-61858114D01*
X116268552Y-61858114D02*
X116173314Y-61905733D01*
X117363790Y-61620019D02*
X117459028Y-61620019D01*
X117459028Y-61620019D02*
X117554266Y-61667638D01*
X117554266Y-61667638D02*
X117601885Y-61715257D01*
X117601885Y-61715257D02*
X117649504Y-61810495D01*
X117649504Y-61810495D02*
X117697123Y-62000971D01*
X117697123Y-62000971D02*
X117697123Y-62239066D01*
X117697123Y-62239066D02*
X117649504Y-62429542D01*
X117649504Y-62429542D02*
X117601885Y-62524780D01*
X117601885Y-62524780D02*
X117554266Y-62572400D01*
X117554266Y-62572400D02*
X117459028Y-62620019D01*
X117459028Y-62620019D02*
X117363790Y-62620019D01*
X117363790Y-62620019D02*
X117268552Y-62572400D01*
X117268552Y-62572400D02*
X117220933Y-62524780D01*
X117220933Y-62524780D02*
X117173314Y-62429542D01*
X117173314Y-62429542D02*
X117125695Y-62239066D01*
X117125695Y-62239066D02*
X117125695Y-62000971D01*
X117125695Y-62000971D02*
X117173314Y-61810495D01*
X117173314Y-61810495D02*
X117220933Y-61715257D01*
X117220933Y-61715257D02*
X117268552Y-61667638D01*
X117268552Y-61667638D02*
X117363790Y-61620019D01*
X95616019Y-77981266D02*
X95139828Y-78314599D01*
X95616019Y-78552694D02*
X94616019Y-78552694D01*
X94616019Y-78552694D02*
X94616019Y-78171742D01*
X94616019Y-78171742D02*
X94663638Y-78076504D01*
X94663638Y-78076504D02*
X94711257Y-78028885D01*
X94711257Y-78028885D02*
X94806495Y-77981266D01*
X94806495Y-77981266D02*
X94949352Y-77981266D01*
X94949352Y-77981266D02*
X95044590Y-78028885D01*
X95044590Y-78028885D02*
X95092209Y-78076504D01*
X95092209Y-78076504D02*
X95139828Y-78171742D01*
X95139828Y-78171742D02*
X95139828Y-78552694D01*
X94949352Y-77124123D02*
X95616019Y-77124123D01*
X94568400Y-77362218D02*
X95282685Y-77600313D01*
X95282685Y-77600313D02*
X95282685Y-76981266D01*
X100204019Y-72874704D02*
X101013542Y-72874704D01*
X101013542Y-72874704D02*
X101108780Y-72827085D01*
X101108780Y-72827085D02*
X101156400Y-72779466D01*
X101156400Y-72779466D02*
X101204019Y-72684228D01*
X101204019Y-72684228D02*
X101204019Y-72493752D01*
X101204019Y-72493752D02*
X101156400Y-72398514D01*
X101156400Y-72398514D02*
X101108780Y-72350895D01*
X101108780Y-72350895D02*
X101013542Y-72303276D01*
X101013542Y-72303276D02*
X100204019Y-72303276D01*
X100299257Y-71874704D02*
X100251638Y-71827085D01*
X100251638Y-71827085D02*
X100204019Y-71731847D01*
X100204019Y-71731847D02*
X100204019Y-71493752D01*
X100204019Y-71493752D02*
X100251638Y-71398514D01*
X100251638Y-71398514D02*
X100299257Y-71350895D01*
X100299257Y-71350895D02*
X100394495Y-71303276D01*
X100394495Y-71303276D02*
X100489733Y-71303276D01*
X100489733Y-71303276D02*
X100632590Y-71350895D01*
X100632590Y-71350895D02*
X101204019Y-71922323D01*
X101204019Y-71922323D02*
X101204019Y-71303276D01*
X124837819Y-93067381D02*
X123837819Y-93067381D01*
X123837819Y-93067381D02*
X124552104Y-92734048D01*
X124552104Y-92734048D02*
X123837819Y-92400715D01*
X123837819Y-92400715D02*
X124837819Y-92400715D01*
X124837819Y-91781667D02*
X124790200Y-91876905D01*
X124790200Y-91876905D02*
X124742580Y-91924524D01*
X124742580Y-91924524D02*
X124647342Y-91972143D01*
X124647342Y-91972143D02*
X124361628Y-91972143D01*
X124361628Y-91972143D02*
X124266390Y-91924524D01*
X124266390Y-91924524D02*
X124218771Y-91876905D01*
X124218771Y-91876905D02*
X124171152Y-91781667D01*
X124171152Y-91781667D02*
X124171152Y-91638810D01*
X124171152Y-91638810D02*
X124218771Y-91543572D01*
X124218771Y-91543572D02*
X124266390Y-91495953D01*
X124266390Y-91495953D02*
X124361628Y-91448334D01*
X124361628Y-91448334D02*
X124647342Y-91448334D01*
X124647342Y-91448334D02*
X124742580Y-91495953D01*
X124742580Y-91495953D02*
X124790200Y-91543572D01*
X124790200Y-91543572D02*
X124837819Y-91638810D01*
X124837819Y-91638810D02*
X124837819Y-91781667D01*
X124171152Y-91162619D02*
X124171152Y-90781667D01*
X123837819Y-91019762D02*
X124694961Y-91019762D01*
X124694961Y-91019762D02*
X124790200Y-90972143D01*
X124790200Y-90972143D02*
X124837819Y-90876905D01*
X124837819Y-90876905D02*
X124837819Y-90781667D01*
X124837819Y-90305476D02*
X124790200Y-90400714D01*
X124790200Y-90400714D02*
X124742580Y-90448333D01*
X124742580Y-90448333D02*
X124647342Y-90495952D01*
X124647342Y-90495952D02*
X124361628Y-90495952D01*
X124361628Y-90495952D02*
X124266390Y-90448333D01*
X124266390Y-90448333D02*
X124218771Y-90400714D01*
X124218771Y-90400714D02*
X124171152Y-90305476D01*
X124171152Y-90305476D02*
X124171152Y-90162619D01*
X124171152Y-90162619D02*
X124218771Y-90067381D01*
X124218771Y-90067381D02*
X124266390Y-90019762D01*
X124266390Y-90019762D02*
X124361628Y-89972143D01*
X124361628Y-89972143D02*
X124647342Y-89972143D01*
X124647342Y-89972143D02*
X124742580Y-90019762D01*
X124742580Y-90019762D02*
X124790200Y-90067381D01*
X124790200Y-90067381D02*
X124837819Y-90162619D01*
X124837819Y-90162619D02*
X124837819Y-90305476D01*
X124837819Y-89543571D02*
X124171152Y-89543571D01*
X124361628Y-89543571D02*
X124266390Y-89495952D01*
X124266390Y-89495952D02*
X124218771Y-89448333D01*
X124218771Y-89448333D02*
X124171152Y-89353095D01*
X124171152Y-89353095D02*
X124171152Y-89257857D01*
X124933057Y-89162619D02*
X124933057Y-88400714D01*
X123837819Y-87972142D02*
X123837819Y-87781666D01*
X123837819Y-87781666D02*
X123885438Y-87686428D01*
X123885438Y-87686428D02*
X123980676Y-87591190D01*
X123980676Y-87591190D02*
X124171152Y-87543571D01*
X124171152Y-87543571D02*
X124504485Y-87543571D01*
X124504485Y-87543571D02*
X124694961Y-87591190D01*
X124694961Y-87591190D02*
X124790200Y-87686428D01*
X124790200Y-87686428D02*
X124837819Y-87781666D01*
X124837819Y-87781666D02*
X124837819Y-87972142D01*
X124837819Y-87972142D02*
X124790200Y-88067380D01*
X124790200Y-88067380D02*
X124694961Y-88162618D01*
X124694961Y-88162618D02*
X124504485Y-88210237D01*
X124504485Y-88210237D02*
X124171152Y-88210237D01*
X124171152Y-88210237D02*
X123980676Y-88162618D01*
X123980676Y-88162618D02*
X123885438Y-88067380D01*
X123885438Y-88067380D02*
X123837819Y-87972142D01*
X124171152Y-86686428D02*
X124837819Y-86686428D01*
X124171152Y-87114999D02*
X124694961Y-87114999D01*
X124694961Y-87114999D02*
X124790200Y-87067380D01*
X124790200Y-87067380D02*
X124837819Y-86972142D01*
X124837819Y-86972142D02*
X124837819Y-86829285D01*
X124837819Y-86829285D02*
X124790200Y-86734047D01*
X124790200Y-86734047D02*
X124742580Y-86686428D01*
X124171152Y-86353094D02*
X124171152Y-85972142D01*
X123837819Y-86210237D02*
X124694961Y-86210237D01*
X124694961Y-86210237D02*
X124790200Y-86162618D01*
X124790200Y-86162618D02*
X124837819Y-86067380D01*
X124837819Y-86067380D02*
X124837819Y-85972142D01*
X124837819Y-85114999D02*
X124837819Y-85686427D01*
X124837819Y-85400713D02*
X123837819Y-85400713D01*
X123837819Y-85400713D02*
X123980676Y-85495951D01*
X123980676Y-85495951D02*
X124075914Y-85591189D01*
X124075914Y-85591189D02*
X124123533Y-85686427D01*
X81357219Y-72620704D02*
X82166742Y-72620704D01*
X82166742Y-72620704D02*
X82261980Y-72573085D01*
X82261980Y-72573085D02*
X82309600Y-72525466D01*
X82309600Y-72525466D02*
X82357219Y-72430228D01*
X82357219Y-72430228D02*
X82357219Y-72239752D01*
X82357219Y-72239752D02*
X82309600Y-72144514D01*
X82309600Y-72144514D02*
X82261980Y-72096895D01*
X82261980Y-72096895D02*
X82166742Y-72049276D01*
X82166742Y-72049276D02*
X81357219Y-72049276D01*
X82357219Y-71049276D02*
X82357219Y-71620704D01*
X82357219Y-71334990D02*
X81357219Y-71334990D01*
X81357219Y-71334990D02*
X81500076Y-71430228D01*
X81500076Y-71430228D02*
X81595314Y-71525466D01*
X81595314Y-71525466D02*
X81642933Y-71620704D01*
X127288819Y-111045809D02*
X126288819Y-111045809D01*
X126288819Y-111045809D02*
X127003104Y-110712476D01*
X127003104Y-110712476D02*
X126288819Y-110379143D01*
X126288819Y-110379143D02*
X127288819Y-110379143D01*
X127288819Y-109760095D02*
X127241200Y-109855333D01*
X127241200Y-109855333D02*
X127193580Y-109902952D01*
X127193580Y-109902952D02*
X127098342Y-109950571D01*
X127098342Y-109950571D02*
X126812628Y-109950571D01*
X126812628Y-109950571D02*
X126717390Y-109902952D01*
X126717390Y-109902952D02*
X126669771Y-109855333D01*
X126669771Y-109855333D02*
X126622152Y-109760095D01*
X126622152Y-109760095D02*
X126622152Y-109617238D01*
X126622152Y-109617238D02*
X126669771Y-109522000D01*
X126669771Y-109522000D02*
X126717390Y-109474381D01*
X126717390Y-109474381D02*
X126812628Y-109426762D01*
X126812628Y-109426762D02*
X127098342Y-109426762D01*
X127098342Y-109426762D02*
X127193580Y-109474381D01*
X127193580Y-109474381D02*
X127241200Y-109522000D01*
X127241200Y-109522000D02*
X127288819Y-109617238D01*
X127288819Y-109617238D02*
X127288819Y-109760095D01*
X126622152Y-109141047D02*
X126622152Y-108760095D01*
X126288819Y-108998190D02*
X127145961Y-108998190D01*
X127145961Y-108998190D02*
X127241200Y-108950571D01*
X127241200Y-108950571D02*
X127288819Y-108855333D01*
X127288819Y-108855333D02*
X127288819Y-108760095D01*
X127288819Y-108283904D02*
X127241200Y-108379142D01*
X127241200Y-108379142D02*
X127193580Y-108426761D01*
X127193580Y-108426761D02*
X127098342Y-108474380D01*
X127098342Y-108474380D02*
X126812628Y-108474380D01*
X126812628Y-108474380D02*
X126717390Y-108426761D01*
X126717390Y-108426761D02*
X126669771Y-108379142D01*
X126669771Y-108379142D02*
X126622152Y-108283904D01*
X126622152Y-108283904D02*
X126622152Y-108141047D01*
X126622152Y-108141047D02*
X126669771Y-108045809D01*
X126669771Y-108045809D02*
X126717390Y-107998190D01*
X126717390Y-107998190D02*
X126812628Y-107950571D01*
X126812628Y-107950571D02*
X127098342Y-107950571D01*
X127098342Y-107950571D02*
X127193580Y-107998190D01*
X127193580Y-107998190D02*
X127241200Y-108045809D01*
X127241200Y-108045809D02*
X127288819Y-108141047D01*
X127288819Y-108141047D02*
X127288819Y-108283904D01*
X127288819Y-107521999D02*
X126622152Y-107521999D01*
X126812628Y-107521999D02*
X126717390Y-107474380D01*
X126717390Y-107474380D02*
X126669771Y-107426761D01*
X126669771Y-107426761D02*
X126622152Y-107331523D01*
X126622152Y-107331523D02*
X126622152Y-107236285D01*
X127384057Y-107141047D02*
X127384057Y-106379142D01*
X127288819Y-106141046D02*
X126288819Y-106141046D01*
X126288819Y-106141046D02*
X126288819Y-105760094D01*
X126288819Y-105760094D02*
X126336438Y-105664856D01*
X126336438Y-105664856D02*
X126384057Y-105617237D01*
X126384057Y-105617237D02*
X126479295Y-105569618D01*
X126479295Y-105569618D02*
X126622152Y-105569618D01*
X126622152Y-105569618D02*
X126717390Y-105617237D01*
X126717390Y-105617237D02*
X126765009Y-105664856D01*
X126765009Y-105664856D02*
X126812628Y-105760094D01*
X126812628Y-105760094D02*
X126812628Y-106141046D01*
X126622152Y-105236284D02*
X127288819Y-105045808D01*
X127288819Y-105045808D02*
X126812628Y-104855332D01*
X126812628Y-104855332D02*
X127288819Y-104664856D01*
X127288819Y-104664856D02*
X126622152Y-104474380D01*
X127288819Y-104093427D02*
X126622152Y-104093427D01*
X126812628Y-104093427D02*
X126717390Y-104045808D01*
X126717390Y-104045808D02*
X126669771Y-103998189D01*
X126669771Y-103998189D02*
X126622152Y-103902951D01*
X126622152Y-103902951D02*
X126622152Y-103807713D01*
X127288819Y-102950570D02*
X127288819Y-103521998D01*
X127288819Y-103236284D02*
X126288819Y-103236284D01*
X126288819Y-103236284D02*
X126431676Y-103331522D01*
X126431676Y-103331522D02*
X126526914Y-103426760D01*
X126526914Y-103426760D02*
X126574533Y-103521998D01*
X93139333Y-96003819D02*
X92806000Y-95527628D01*
X92567905Y-96003819D02*
X92567905Y-95003819D01*
X92567905Y-95003819D02*
X92948857Y-95003819D01*
X92948857Y-95003819D02*
X93044095Y-95051438D01*
X93044095Y-95051438D02*
X93091714Y-95099057D01*
X93091714Y-95099057D02*
X93139333Y-95194295D01*
X93139333Y-95194295D02*
X93139333Y-95337152D01*
X93139333Y-95337152D02*
X93091714Y-95432390D01*
X93091714Y-95432390D02*
X93044095Y-95480009D01*
X93044095Y-95480009D02*
X92948857Y-95527628D01*
X92948857Y-95527628D02*
X92567905Y-95527628D01*
X94044095Y-95003819D02*
X93567905Y-95003819D01*
X93567905Y-95003819D02*
X93520286Y-95480009D01*
X93520286Y-95480009D02*
X93567905Y-95432390D01*
X93567905Y-95432390D02*
X93663143Y-95384771D01*
X93663143Y-95384771D02*
X93901238Y-95384771D01*
X93901238Y-95384771D02*
X93996476Y-95432390D01*
X93996476Y-95432390D02*
X94044095Y-95480009D01*
X94044095Y-95480009D02*
X94091714Y-95575247D01*
X94091714Y-95575247D02*
X94091714Y-95813342D01*
X94091714Y-95813342D02*
X94044095Y-95908580D01*
X94044095Y-95908580D02*
X93996476Y-95956200D01*
X93996476Y-95956200D02*
X93901238Y-96003819D01*
X93901238Y-96003819D02*
X93663143Y-96003819D01*
X93663143Y-96003819D02*
X93567905Y-95956200D01*
X93567905Y-95956200D02*
X93520286Y-95908580D01*
X103178780Y-87016886D02*
X103226400Y-87064505D01*
X103226400Y-87064505D02*
X103274019Y-87207362D01*
X103274019Y-87207362D02*
X103274019Y-87302600D01*
X103274019Y-87302600D02*
X103226400Y-87445457D01*
X103226400Y-87445457D02*
X103131161Y-87540695D01*
X103131161Y-87540695D02*
X103035923Y-87588314D01*
X103035923Y-87588314D02*
X102845447Y-87635933D01*
X102845447Y-87635933D02*
X102702590Y-87635933D01*
X102702590Y-87635933D02*
X102512114Y-87588314D01*
X102512114Y-87588314D02*
X102416876Y-87540695D01*
X102416876Y-87540695D02*
X102321638Y-87445457D01*
X102321638Y-87445457D02*
X102274019Y-87302600D01*
X102274019Y-87302600D02*
X102274019Y-87207362D01*
X102274019Y-87207362D02*
X102321638Y-87064505D01*
X102321638Y-87064505D02*
X102369257Y-87016886D01*
X102607352Y-86588314D02*
X103274019Y-86588314D01*
X102702590Y-86588314D02*
X102654971Y-86540695D01*
X102654971Y-86540695D02*
X102607352Y-86445457D01*
X102607352Y-86445457D02*
X102607352Y-86302600D01*
X102607352Y-86302600D02*
X102654971Y-86207362D01*
X102654971Y-86207362D02*
X102750209Y-86159743D01*
X102750209Y-86159743D02*
X103274019Y-86159743D01*
X102607352Y-85778790D02*
X103274019Y-85540695D01*
X103274019Y-85540695D02*
X102607352Y-85302600D01*
X103369257Y-85159743D02*
X103369257Y-84397838D01*
X103274019Y-84159742D02*
X102274019Y-84159742D01*
X102274019Y-84159742D02*
X102274019Y-83778790D01*
X102274019Y-83778790D02*
X102321638Y-83683552D01*
X102321638Y-83683552D02*
X102369257Y-83635933D01*
X102369257Y-83635933D02*
X102464495Y-83588314D01*
X102464495Y-83588314D02*
X102607352Y-83588314D01*
X102607352Y-83588314D02*
X102702590Y-83635933D01*
X102702590Y-83635933D02*
X102750209Y-83683552D01*
X102750209Y-83683552D02*
X102797828Y-83778790D01*
X102797828Y-83778790D02*
X102797828Y-84159742D01*
X102607352Y-83254980D02*
X103274019Y-83064504D01*
X103274019Y-83064504D02*
X102797828Y-82874028D01*
X102797828Y-82874028D02*
X103274019Y-82683552D01*
X103274019Y-82683552D02*
X102607352Y-82493076D01*
X103274019Y-82112123D02*
X102607352Y-82112123D01*
X102797828Y-82112123D02*
X102702590Y-82064504D01*
X102702590Y-82064504D02*
X102654971Y-82016885D01*
X102654971Y-82016885D02*
X102607352Y-81921647D01*
X102607352Y-81921647D02*
X102607352Y-81826409D01*
X103274019Y-80969266D02*
X103274019Y-81540694D01*
X103274019Y-81254980D02*
X102274019Y-81254980D01*
X102274019Y-81254980D02*
X102416876Y-81350218D01*
X102416876Y-81350218D02*
X102512114Y-81445456D01*
X102512114Y-81445456D02*
X102559733Y-81540694D01*
X114554267Y-77997200D02*
X114697124Y-78044819D01*
X114697124Y-78044819D02*
X114935219Y-78044819D01*
X114935219Y-78044819D02*
X115030457Y-77997200D01*
X115030457Y-77997200D02*
X115078076Y-77949580D01*
X115078076Y-77949580D02*
X115125695Y-77854342D01*
X115125695Y-77854342D02*
X115125695Y-77759104D01*
X115125695Y-77759104D02*
X115078076Y-77663866D01*
X115078076Y-77663866D02*
X115030457Y-77616247D01*
X115030457Y-77616247D02*
X114935219Y-77568628D01*
X114935219Y-77568628D02*
X114744743Y-77521009D01*
X114744743Y-77521009D02*
X114649505Y-77473390D01*
X114649505Y-77473390D02*
X114601886Y-77425771D01*
X114601886Y-77425771D02*
X114554267Y-77330533D01*
X114554267Y-77330533D02*
X114554267Y-77235295D01*
X114554267Y-77235295D02*
X114601886Y-77140057D01*
X114601886Y-77140057D02*
X114649505Y-77092438D01*
X114649505Y-77092438D02*
X114744743Y-77044819D01*
X114744743Y-77044819D02*
X114982838Y-77044819D01*
X114982838Y-77044819D02*
X115125695Y-77092438D01*
X115459029Y-77044819D02*
X115697124Y-78044819D01*
X115697124Y-78044819D02*
X115887600Y-77330533D01*
X115887600Y-77330533D02*
X116078076Y-78044819D01*
X116078076Y-78044819D02*
X116316172Y-77044819D01*
X116744743Y-78044819D02*
X116935219Y-78044819D01*
X116935219Y-78044819D02*
X117030457Y-77997200D01*
X117030457Y-77997200D02*
X117078076Y-77949580D01*
X117078076Y-77949580D02*
X117173314Y-77806723D01*
X117173314Y-77806723D02*
X117220933Y-77616247D01*
X117220933Y-77616247D02*
X117220933Y-77235295D01*
X117220933Y-77235295D02*
X117173314Y-77140057D01*
X117173314Y-77140057D02*
X117125695Y-77092438D01*
X117125695Y-77092438D02*
X117030457Y-77044819D01*
X117030457Y-77044819D02*
X116839981Y-77044819D01*
X116839981Y-77044819D02*
X116744743Y-77092438D01*
X116744743Y-77092438D02*
X116697124Y-77140057D01*
X116697124Y-77140057D02*
X116649505Y-77235295D01*
X116649505Y-77235295D02*
X116649505Y-77473390D01*
X116649505Y-77473390D02*
X116697124Y-77568628D01*
X116697124Y-77568628D02*
X116744743Y-77616247D01*
X116744743Y-77616247D02*
X116839981Y-77663866D01*
X116839981Y-77663866D02*
X117030457Y-77663866D01*
X117030457Y-77663866D02*
X117125695Y-77616247D01*
X117125695Y-77616247D02*
X117173314Y-77568628D01*
X117173314Y-77568628D02*
X117220933Y-77473390D01*
X111814780Y-86323229D02*
X111862400Y-86370848D01*
X111862400Y-86370848D02*
X111910019Y-86513705D01*
X111910019Y-86513705D02*
X111910019Y-86608943D01*
X111910019Y-86608943D02*
X111862400Y-86751800D01*
X111862400Y-86751800D02*
X111767161Y-86847038D01*
X111767161Y-86847038D02*
X111671923Y-86894657D01*
X111671923Y-86894657D02*
X111481447Y-86942276D01*
X111481447Y-86942276D02*
X111338590Y-86942276D01*
X111338590Y-86942276D02*
X111148114Y-86894657D01*
X111148114Y-86894657D02*
X111052876Y-86847038D01*
X111052876Y-86847038D02*
X110957638Y-86751800D01*
X110957638Y-86751800D02*
X110910019Y-86608943D01*
X110910019Y-86608943D02*
X110910019Y-86513705D01*
X110910019Y-86513705D02*
X110957638Y-86370848D01*
X110957638Y-86370848D02*
X111005257Y-86323229D01*
X111910019Y-85751800D02*
X111862400Y-85847038D01*
X111862400Y-85847038D02*
X111814780Y-85894657D01*
X111814780Y-85894657D02*
X111719542Y-85942276D01*
X111719542Y-85942276D02*
X111433828Y-85942276D01*
X111433828Y-85942276D02*
X111338590Y-85894657D01*
X111338590Y-85894657D02*
X111290971Y-85847038D01*
X111290971Y-85847038D02*
X111243352Y-85751800D01*
X111243352Y-85751800D02*
X111243352Y-85608943D01*
X111243352Y-85608943D02*
X111290971Y-85513705D01*
X111290971Y-85513705D02*
X111338590Y-85466086D01*
X111338590Y-85466086D02*
X111433828Y-85418467D01*
X111433828Y-85418467D02*
X111719542Y-85418467D01*
X111719542Y-85418467D02*
X111814780Y-85466086D01*
X111814780Y-85466086D02*
X111862400Y-85513705D01*
X111862400Y-85513705D02*
X111910019Y-85608943D01*
X111910019Y-85608943D02*
X111910019Y-85751800D01*
X111910019Y-84847038D02*
X111862400Y-84942276D01*
X111862400Y-84942276D02*
X111814780Y-84989895D01*
X111814780Y-84989895D02*
X111719542Y-85037514D01*
X111719542Y-85037514D02*
X111433828Y-85037514D01*
X111433828Y-85037514D02*
X111338590Y-84989895D01*
X111338590Y-84989895D02*
X111290971Y-84942276D01*
X111290971Y-84942276D02*
X111243352Y-84847038D01*
X111243352Y-84847038D02*
X111243352Y-84704181D01*
X111243352Y-84704181D02*
X111290971Y-84608943D01*
X111290971Y-84608943D02*
X111338590Y-84561324D01*
X111338590Y-84561324D02*
X111433828Y-84513705D01*
X111433828Y-84513705D02*
X111719542Y-84513705D01*
X111719542Y-84513705D02*
X111814780Y-84561324D01*
X111814780Y-84561324D02*
X111862400Y-84608943D01*
X111862400Y-84608943D02*
X111910019Y-84704181D01*
X111910019Y-84704181D02*
X111910019Y-84847038D01*
X111910019Y-83942276D02*
X111862400Y-84037514D01*
X111862400Y-84037514D02*
X111767161Y-84085133D01*
X111767161Y-84085133D02*
X110910019Y-84085133D01*
X111862400Y-83180371D02*
X111910019Y-83275609D01*
X111910019Y-83275609D02*
X111910019Y-83466085D01*
X111910019Y-83466085D02*
X111862400Y-83561323D01*
X111862400Y-83561323D02*
X111767161Y-83608942D01*
X111767161Y-83608942D02*
X111386209Y-83608942D01*
X111386209Y-83608942D02*
X111290971Y-83561323D01*
X111290971Y-83561323D02*
X111243352Y-83466085D01*
X111243352Y-83466085D02*
X111243352Y-83275609D01*
X111243352Y-83275609D02*
X111290971Y-83180371D01*
X111290971Y-83180371D02*
X111386209Y-83132752D01*
X111386209Y-83132752D02*
X111481447Y-83132752D01*
X111481447Y-83132752D02*
X111576685Y-83608942D01*
X111910019Y-82704180D02*
X111243352Y-82704180D01*
X111433828Y-82704180D02*
X111338590Y-82656561D01*
X111338590Y-82656561D02*
X111290971Y-82608942D01*
X111290971Y-82608942D02*
X111243352Y-82513704D01*
X111243352Y-82513704D02*
X111243352Y-82418466D01*
X111910019Y-81561323D02*
X111910019Y-82132751D01*
X111910019Y-81847037D02*
X110910019Y-81847037D01*
X110910019Y-81847037D02*
X111052876Y-81942275D01*
X111052876Y-81942275D02*
X111148114Y-82037513D01*
X111148114Y-82037513D02*
X111195733Y-82132751D01*
X91297475Y-99006819D02*
X90726047Y-99006819D01*
X91011761Y-99006819D02*
X91011761Y-98006819D01*
X91011761Y-98006819D02*
X90916523Y-98149676D01*
X90916523Y-98149676D02*
X90821285Y-98244914D01*
X90821285Y-98244914D02*
X90726047Y-98292533D01*
X91678428Y-98102057D02*
X91726047Y-98054438D01*
X91726047Y-98054438D02*
X91821285Y-98006819D01*
X91821285Y-98006819D02*
X92059380Y-98006819D01*
X92059380Y-98006819D02*
X92154618Y-98054438D01*
X92154618Y-98054438D02*
X92202237Y-98102057D01*
X92202237Y-98102057D02*
X92249856Y-98197295D01*
X92249856Y-98197295D02*
X92249856Y-98292533D01*
X92249856Y-98292533D02*
X92202237Y-98435390D01*
X92202237Y-98435390D02*
X91630809Y-99006819D01*
X91630809Y-99006819D02*
X92249856Y-99006819D01*
X92535571Y-98006819D02*
X92868904Y-99006819D01*
X92868904Y-99006819D02*
X93202237Y-98006819D01*
X93297476Y-99102057D02*
X94059380Y-99102057D01*
X94297476Y-99006819D02*
X94297476Y-98006819D01*
X94297476Y-98006819D02*
X94678428Y-98006819D01*
X94678428Y-98006819D02*
X94773666Y-98054438D01*
X94773666Y-98054438D02*
X94821285Y-98102057D01*
X94821285Y-98102057D02*
X94868904Y-98197295D01*
X94868904Y-98197295D02*
X94868904Y-98340152D01*
X94868904Y-98340152D02*
X94821285Y-98435390D01*
X94821285Y-98435390D02*
X94773666Y-98483009D01*
X94773666Y-98483009D02*
X94678428Y-98530628D01*
X94678428Y-98530628D02*
X94297476Y-98530628D01*
X95202238Y-98340152D02*
X95392714Y-99006819D01*
X95392714Y-99006819D02*
X95583190Y-98530628D01*
X95583190Y-98530628D02*
X95773666Y-99006819D01*
X95773666Y-99006819D02*
X95964142Y-98340152D01*
X96345095Y-99006819D02*
X96345095Y-98340152D01*
X96345095Y-98530628D02*
X96392714Y-98435390D01*
X96392714Y-98435390D02*
X96440333Y-98387771D01*
X96440333Y-98387771D02*
X96535571Y-98340152D01*
X96535571Y-98340152D02*
X96630809Y-98340152D01*
X97487952Y-99006819D02*
X96916524Y-99006819D01*
X97202238Y-99006819D02*
X97202238Y-98006819D01*
X97202238Y-98006819D02*
X97107000Y-98149676D01*
X97107000Y-98149676D02*
X97011762Y-98244914D01*
X97011762Y-98244914D02*
X96916524Y-98292533D01*
X111530380Y-70488466D02*
X111578000Y-70536085D01*
X111578000Y-70536085D02*
X111625619Y-70678942D01*
X111625619Y-70678942D02*
X111625619Y-70774180D01*
X111625619Y-70774180D02*
X111578000Y-70917037D01*
X111578000Y-70917037D02*
X111482761Y-71012275D01*
X111482761Y-71012275D02*
X111387523Y-71059894D01*
X111387523Y-71059894D02*
X111197047Y-71107513D01*
X111197047Y-71107513D02*
X111054190Y-71107513D01*
X111054190Y-71107513D02*
X110863714Y-71059894D01*
X110863714Y-71059894D02*
X110768476Y-71012275D01*
X110768476Y-71012275D02*
X110673238Y-70917037D01*
X110673238Y-70917037D02*
X110625619Y-70774180D01*
X110625619Y-70774180D02*
X110625619Y-70678942D01*
X110625619Y-70678942D02*
X110673238Y-70536085D01*
X110673238Y-70536085D02*
X110720857Y-70488466D01*
X110625619Y-69631323D02*
X110625619Y-69821799D01*
X110625619Y-69821799D02*
X110673238Y-69917037D01*
X110673238Y-69917037D02*
X110720857Y-69964656D01*
X110720857Y-69964656D02*
X110863714Y-70059894D01*
X110863714Y-70059894D02*
X111054190Y-70107513D01*
X111054190Y-70107513D02*
X111435142Y-70107513D01*
X111435142Y-70107513D02*
X111530380Y-70059894D01*
X111530380Y-70059894D02*
X111578000Y-70012275D01*
X111578000Y-70012275D02*
X111625619Y-69917037D01*
X111625619Y-69917037D02*
X111625619Y-69726561D01*
X111625619Y-69726561D02*
X111578000Y-69631323D01*
X111578000Y-69631323D02*
X111530380Y-69583704D01*
X111530380Y-69583704D02*
X111435142Y-69536085D01*
X111435142Y-69536085D02*
X111197047Y-69536085D01*
X111197047Y-69536085D02*
X111101809Y-69583704D01*
X111101809Y-69583704D02*
X111054190Y-69631323D01*
X111054190Y-69631323D02*
X111006571Y-69726561D01*
X111006571Y-69726561D02*
X111006571Y-69917037D01*
X111006571Y-69917037D02*
X111054190Y-70012275D01*
X111054190Y-70012275D02*
X111101809Y-70059894D01*
X111101809Y-70059894D02*
X111197047Y-70107513D01*
X144216667Y-49258800D02*
X144359524Y-49306419D01*
X144359524Y-49306419D02*
X144597619Y-49306419D01*
X144597619Y-49306419D02*
X144692857Y-49258800D01*
X144692857Y-49258800D02*
X144740476Y-49211180D01*
X144740476Y-49211180D02*
X144788095Y-49115942D01*
X144788095Y-49115942D02*
X144788095Y-49020704D01*
X144788095Y-49020704D02*
X144740476Y-48925466D01*
X144740476Y-48925466D02*
X144692857Y-48877847D01*
X144692857Y-48877847D02*
X144597619Y-48830228D01*
X144597619Y-48830228D02*
X144407143Y-48782609D01*
X144407143Y-48782609D02*
X144311905Y-48734990D01*
X144311905Y-48734990D02*
X144264286Y-48687371D01*
X144264286Y-48687371D02*
X144216667Y-48592133D01*
X144216667Y-48592133D02*
X144216667Y-48496895D01*
X144216667Y-48496895D02*
X144264286Y-48401657D01*
X144264286Y-48401657D02*
X144311905Y-48354038D01*
X144311905Y-48354038D02*
X144407143Y-48306419D01*
X144407143Y-48306419D02*
X144645238Y-48306419D01*
X144645238Y-48306419D02*
X144788095Y-48354038D01*
X145121429Y-48306419D02*
X145359524Y-49306419D01*
X145359524Y-49306419D02*
X145550000Y-48592133D01*
X145550000Y-48592133D02*
X145740476Y-49306419D01*
X145740476Y-49306419D02*
X145978572Y-48306419D01*
X146502381Y-48734990D02*
X146407143Y-48687371D01*
X146407143Y-48687371D02*
X146359524Y-48639752D01*
X146359524Y-48639752D02*
X146311905Y-48544514D01*
X146311905Y-48544514D02*
X146311905Y-48496895D01*
X146311905Y-48496895D02*
X146359524Y-48401657D01*
X146359524Y-48401657D02*
X146407143Y-48354038D01*
X146407143Y-48354038D02*
X146502381Y-48306419D01*
X146502381Y-48306419D02*
X146692857Y-48306419D01*
X146692857Y-48306419D02*
X146788095Y-48354038D01*
X146788095Y-48354038D02*
X146835714Y-48401657D01*
X146835714Y-48401657D02*
X146883333Y-48496895D01*
X146883333Y-48496895D02*
X146883333Y-48544514D01*
X146883333Y-48544514D02*
X146835714Y-48639752D01*
X146835714Y-48639752D02*
X146788095Y-48687371D01*
X146788095Y-48687371D02*
X146692857Y-48734990D01*
X146692857Y-48734990D02*
X146502381Y-48734990D01*
X146502381Y-48734990D02*
X146407143Y-48782609D01*
X146407143Y-48782609D02*
X146359524Y-48830228D01*
X146359524Y-48830228D02*
X146311905Y-48925466D01*
X146311905Y-48925466D02*
X146311905Y-49115942D01*
X146311905Y-49115942D02*
X146359524Y-49211180D01*
X146359524Y-49211180D02*
X146407143Y-49258800D01*
X146407143Y-49258800D02*
X146502381Y-49306419D01*
X146502381Y-49306419D02*
X146692857Y-49306419D01*
X146692857Y-49306419D02*
X146788095Y-49258800D01*
X146788095Y-49258800D02*
X146835714Y-49211180D01*
X146835714Y-49211180D02*
X146883333Y-49115942D01*
X146883333Y-49115942D02*
X146883333Y-48925466D01*
X146883333Y-48925466D02*
X146835714Y-48830228D01*
X146835714Y-48830228D02*
X146788095Y-48782609D01*
X146788095Y-48782609D02*
X146692857Y-48734990D01*
X96564267Y-41606800D02*
X96707124Y-41654419D01*
X96707124Y-41654419D02*
X96945219Y-41654419D01*
X96945219Y-41654419D02*
X97040457Y-41606800D01*
X97040457Y-41606800D02*
X97088076Y-41559180D01*
X97088076Y-41559180D02*
X97135695Y-41463942D01*
X97135695Y-41463942D02*
X97135695Y-41368704D01*
X97135695Y-41368704D02*
X97088076Y-41273466D01*
X97088076Y-41273466D02*
X97040457Y-41225847D01*
X97040457Y-41225847D02*
X96945219Y-41178228D01*
X96945219Y-41178228D02*
X96754743Y-41130609D01*
X96754743Y-41130609D02*
X96659505Y-41082990D01*
X96659505Y-41082990D02*
X96611886Y-41035371D01*
X96611886Y-41035371D02*
X96564267Y-40940133D01*
X96564267Y-40940133D02*
X96564267Y-40844895D01*
X96564267Y-40844895D02*
X96611886Y-40749657D01*
X96611886Y-40749657D02*
X96659505Y-40702038D01*
X96659505Y-40702038D02*
X96754743Y-40654419D01*
X96754743Y-40654419D02*
X96992838Y-40654419D01*
X96992838Y-40654419D02*
X97135695Y-40702038D01*
X97469029Y-40654419D02*
X97707124Y-41654419D01*
X97707124Y-41654419D02*
X97897600Y-40940133D01*
X97897600Y-40940133D02*
X98088076Y-41654419D01*
X98088076Y-41654419D02*
X98326172Y-40654419D01*
X98611886Y-40654419D02*
X99230933Y-40654419D01*
X99230933Y-40654419D02*
X98897600Y-41035371D01*
X98897600Y-41035371D02*
X99040457Y-41035371D01*
X99040457Y-41035371D02*
X99135695Y-41082990D01*
X99135695Y-41082990D02*
X99183314Y-41130609D01*
X99183314Y-41130609D02*
X99230933Y-41225847D01*
X99230933Y-41225847D02*
X99230933Y-41463942D01*
X99230933Y-41463942D02*
X99183314Y-41559180D01*
X99183314Y-41559180D02*
X99135695Y-41606800D01*
X99135695Y-41606800D02*
X99040457Y-41654419D01*
X99040457Y-41654419D02*
X98754743Y-41654419D01*
X98754743Y-41654419D02*
X98659505Y-41606800D01*
X98659505Y-41606800D02*
X98611886Y-41559180D01*
D10*
X99370619Y-119671419D02*
X99370619Y-118671419D01*
X99370619Y-118671419D02*
X99751571Y-118671419D01*
X99751571Y-118671419D02*
X99846809Y-118719038D01*
X99846809Y-118719038D02*
X99894428Y-118766657D01*
X99894428Y-118766657D02*
X99942047Y-118861895D01*
X99942047Y-118861895D02*
X99942047Y-119004752D01*
X99942047Y-119004752D02*
X99894428Y-119099990D01*
X99894428Y-119099990D02*
X99846809Y-119147609D01*
X99846809Y-119147609D02*
X99751571Y-119195228D01*
X99751571Y-119195228D02*
X99370619Y-119195228D01*
X100275381Y-119004752D02*
X100465857Y-119671419D01*
X100465857Y-119671419D02*
X100656333Y-119195228D01*
X100656333Y-119195228D02*
X100846809Y-119671419D01*
X100846809Y-119671419D02*
X101037285Y-119004752D01*
X101180143Y-119766657D02*
X101942047Y-119766657D01*
X102180143Y-119671419D02*
X102180143Y-118671419D01*
X102656333Y-119004752D02*
X102656333Y-119671419D01*
X102656333Y-119099990D02*
X102703952Y-119052371D01*
X102703952Y-119052371D02*
X102799190Y-119004752D01*
X102799190Y-119004752D02*
X102942047Y-119004752D01*
X102942047Y-119004752D02*
X103037285Y-119052371D01*
X103037285Y-119052371D02*
X103084904Y-119147609D01*
X103084904Y-119147609D02*
X103084904Y-119671419D01*
X103561095Y-119290466D02*
X104323000Y-119290466D01*
X103942047Y-119671419D02*
X103942047Y-118909514D01*
X105322999Y-119671419D02*
X104751571Y-119671419D01*
X105037285Y-119671419D02*
X105037285Y-118671419D01*
X105037285Y-118671419D02*
X104942047Y-118814276D01*
X104942047Y-118814276D02*
X104846809Y-118909514D01*
X104846809Y-118909514D02*
X104751571Y-118957133D01*
D11*
X98448933Y-66014419D02*
X98115600Y-65538228D01*
X97877505Y-66014419D02*
X97877505Y-65014419D01*
X97877505Y-65014419D02*
X98258457Y-65014419D01*
X98258457Y-65014419D02*
X98353695Y-65062038D01*
X98353695Y-65062038D02*
X98401314Y-65109657D01*
X98401314Y-65109657D02*
X98448933Y-65204895D01*
X98448933Y-65204895D02*
X98448933Y-65347752D01*
X98448933Y-65347752D02*
X98401314Y-65442990D01*
X98401314Y-65442990D02*
X98353695Y-65490609D01*
X98353695Y-65490609D02*
X98258457Y-65538228D01*
X98258457Y-65538228D02*
X97877505Y-65538228D01*
X99401314Y-66014419D02*
X98829886Y-66014419D01*
X99115600Y-66014419D02*
X99115600Y-65014419D01*
X99115600Y-65014419D02*
X99020362Y-65157276D01*
X99020362Y-65157276D02*
X98925124Y-65252514D01*
X98925124Y-65252514D02*
X98829886Y-65300133D01*
X79216667Y-49258800D02*
X79359524Y-49306419D01*
X79359524Y-49306419D02*
X79597619Y-49306419D01*
X79597619Y-49306419D02*
X79692857Y-49258800D01*
X79692857Y-49258800D02*
X79740476Y-49211180D01*
X79740476Y-49211180D02*
X79788095Y-49115942D01*
X79788095Y-49115942D02*
X79788095Y-49020704D01*
X79788095Y-49020704D02*
X79740476Y-48925466D01*
X79740476Y-48925466D02*
X79692857Y-48877847D01*
X79692857Y-48877847D02*
X79597619Y-48830228D01*
X79597619Y-48830228D02*
X79407143Y-48782609D01*
X79407143Y-48782609D02*
X79311905Y-48734990D01*
X79311905Y-48734990D02*
X79264286Y-48687371D01*
X79264286Y-48687371D02*
X79216667Y-48592133D01*
X79216667Y-48592133D02*
X79216667Y-48496895D01*
X79216667Y-48496895D02*
X79264286Y-48401657D01*
X79264286Y-48401657D02*
X79311905Y-48354038D01*
X79311905Y-48354038D02*
X79407143Y-48306419D01*
X79407143Y-48306419D02*
X79645238Y-48306419D01*
X79645238Y-48306419D02*
X79788095Y-48354038D01*
X80121429Y-48306419D02*
X80359524Y-49306419D01*
X80359524Y-49306419D02*
X80550000Y-48592133D01*
X80550000Y-48592133D02*
X80740476Y-49306419D01*
X80740476Y-49306419D02*
X80978572Y-48306419D01*
X81264286Y-48306419D02*
X81930952Y-48306419D01*
X81930952Y-48306419D02*
X81502381Y-49306419D01*
X98499733Y-64287219D02*
X98166400Y-63811028D01*
X97928305Y-64287219D02*
X97928305Y-63287219D01*
X97928305Y-63287219D02*
X98309257Y-63287219D01*
X98309257Y-63287219D02*
X98404495Y-63334838D01*
X98404495Y-63334838D02*
X98452114Y-63382457D01*
X98452114Y-63382457D02*
X98499733Y-63477695D01*
X98499733Y-63477695D02*
X98499733Y-63620552D01*
X98499733Y-63620552D02*
X98452114Y-63715790D01*
X98452114Y-63715790D02*
X98404495Y-63763409D01*
X98404495Y-63763409D02*
X98309257Y-63811028D01*
X98309257Y-63811028D02*
X97928305Y-63811028D01*
X98880686Y-63382457D02*
X98928305Y-63334838D01*
X98928305Y-63334838D02*
X99023543Y-63287219D01*
X99023543Y-63287219D02*
X99261638Y-63287219D01*
X99261638Y-63287219D02*
X99356876Y-63334838D01*
X99356876Y-63334838D02*
X99404495Y-63382457D01*
X99404495Y-63382457D02*
X99452114Y-63477695D01*
X99452114Y-63477695D02*
X99452114Y-63572933D01*
X99452114Y-63572933D02*
X99404495Y-63715790D01*
X99404495Y-63715790D02*
X98833067Y-64287219D01*
X98833067Y-64287219D02*
X99452114Y-64287219D01*
X111745067Y-42927600D02*
X111887924Y-42975219D01*
X111887924Y-42975219D02*
X112126019Y-42975219D01*
X112126019Y-42975219D02*
X112221257Y-42927600D01*
X112221257Y-42927600D02*
X112268876Y-42879980D01*
X112268876Y-42879980D02*
X112316495Y-42784742D01*
X112316495Y-42784742D02*
X112316495Y-42689504D01*
X112316495Y-42689504D02*
X112268876Y-42594266D01*
X112268876Y-42594266D02*
X112221257Y-42546647D01*
X112221257Y-42546647D02*
X112126019Y-42499028D01*
X112126019Y-42499028D02*
X111935543Y-42451409D01*
X111935543Y-42451409D02*
X111840305Y-42403790D01*
X111840305Y-42403790D02*
X111792686Y-42356171D01*
X111792686Y-42356171D02*
X111745067Y-42260933D01*
X111745067Y-42260933D02*
X111745067Y-42165695D01*
X111745067Y-42165695D02*
X111792686Y-42070457D01*
X111792686Y-42070457D02*
X111840305Y-42022838D01*
X111840305Y-42022838D02*
X111935543Y-41975219D01*
X111935543Y-41975219D02*
X112173638Y-41975219D01*
X112173638Y-41975219D02*
X112316495Y-42022838D01*
X112649829Y-41975219D02*
X112887924Y-42975219D01*
X112887924Y-42975219D02*
X113078400Y-42260933D01*
X113078400Y-42260933D02*
X113268876Y-42975219D01*
X113268876Y-42975219D02*
X113506972Y-41975219D01*
X113840305Y-42070457D02*
X113887924Y-42022838D01*
X113887924Y-42022838D02*
X113983162Y-41975219D01*
X113983162Y-41975219D02*
X114221257Y-41975219D01*
X114221257Y-41975219D02*
X114316495Y-42022838D01*
X114316495Y-42022838D02*
X114364114Y-42070457D01*
X114364114Y-42070457D02*
X114411733Y-42165695D01*
X114411733Y-42165695D02*
X114411733Y-42260933D01*
X114411733Y-42260933D02*
X114364114Y-42403790D01*
X114364114Y-42403790D02*
X113792686Y-42975219D01*
X113792686Y-42975219D02*
X114411733Y-42975219D01*
X79267467Y-42876800D02*
X79410324Y-42924419D01*
X79410324Y-42924419D02*
X79648419Y-42924419D01*
X79648419Y-42924419D02*
X79743657Y-42876800D01*
X79743657Y-42876800D02*
X79791276Y-42829180D01*
X79791276Y-42829180D02*
X79838895Y-42733942D01*
X79838895Y-42733942D02*
X79838895Y-42638704D01*
X79838895Y-42638704D02*
X79791276Y-42543466D01*
X79791276Y-42543466D02*
X79743657Y-42495847D01*
X79743657Y-42495847D02*
X79648419Y-42448228D01*
X79648419Y-42448228D02*
X79457943Y-42400609D01*
X79457943Y-42400609D02*
X79362705Y-42352990D01*
X79362705Y-42352990D02*
X79315086Y-42305371D01*
X79315086Y-42305371D02*
X79267467Y-42210133D01*
X79267467Y-42210133D02*
X79267467Y-42114895D01*
X79267467Y-42114895D02*
X79315086Y-42019657D01*
X79315086Y-42019657D02*
X79362705Y-41972038D01*
X79362705Y-41972038D02*
X79457943Y-41924419D01*
X79457943Y-41924419D02*
X79696038Y-41924419D01*
X79696038Y-41924419D02*
X79838895Y-41972038D01*
X80172229Y-41924419D02*
X80410324Y-42924419D01*
X80410324Y-42924419D02*
X80600800Y-42210133D01*
X80600800Y-42210133D02*
X80791276Y-42924419D01*
X80791276Y-42924419D02*
X81029372Y-41924419D01*
X81934133Y-42924419D02*
X81362705Y-42924419D01*
X81648419Y-42924419D02*
X81648419Y-41924419D01*
X81648419Y-41924419D02*
X81553181Y-42067276D01*
X81553181Y-42067276D02*
X81457943Y-42162514D01*
X81457943Y-42162514D02*
X81362705Y-42210133D01*
X91374733Y-78271180D02*
X91327114Y-78318800D01*
X91327114Y-78318800D02*
X91184257Y-78366419D01*
X91184257Y-78366419D02*
X91089019Y-78366419D01*
X91089019Y-78366419D02*
X90946162Y-78318800D01*
X90946162Y-78318800D02*
X90850924Y-78223561D01*
X90850924Y-78223561D02*
X90803305Y-78128323D01*
X90803305Y-78128323D02*
X90755686Y-77937847D01*
X90755686Y-77937847D02*
X90755686Y-77794990D01*
X90755686Y-77794990D02*
X90803305Y-77604514D01*
X90803305Y-77604514D02*
X90850924Y-77509276D01*
X90850924Y-77509276D02*
X90946162Y-77414038D01*
X90946162Y-77414038D02*
X91089019Y-77366419D01*
X91089019Y-77366419D02*
X91184257Y-77366419D01*
X91184257Y-77366419D02*
X91327114Y-77414038D01*
X91327114Y-77414038D02*
X91374733Y-77461657D01*
X91755686Y-77461657D02*
X91803305Y-77414038D01*
X91803305Y-77414038D02*
X91898543Y-77366419D01*
X91898543Y-77366419D02*
X92136638Y-77366419D01*
X92136638Y-77366419D02*
X92231876Y-77414038D01*
X92231876Y-77414038D02*
X92279495Y-77461657D01*
X92279495Y-77461657D02*
X92327114Y-77556895D01*
X92327114Y-77556895D02*
X92327114Y-77652133D01*
X92327114Y-77652133D02*
X92279495Y-77794990D01*
X92279495Y-77794990D02*
X91708067Y-78366419D01*
X91708067Y-78366419D02*
X92327114Y-78366419D01*
X91322666Y-60340819D02*
X91322666Y-61055104D01*
X91322666Y-61055104D02*
X91275047Y-61197961D01*
X91275047Y-61197961D02*
X91179809Y-61293200D01*
X91179809Y-61293200D02*
X91036952Y-61340819D01*
X91036952Y-61340819D02*
X90941714Y-61340819D01*
X91703619Y-60340819D02*
X92322666Y-60340819D01*
X92322666Y-60340819D02*
X91989333Y-60721771D01*
X91989333Y-60721771D02*
X92132190Y-60721771D01*
X92132190Y-60721771D02*
X92227428Y-60769390D01*
X92227428Y-60769390D02*
X92275047Y-60817009D01*
X92275047Y-60817009D02*
X92322666Y-60912247D01*
X92322666Y-60912247D02*
X92322666Y-61150342D01*
X92322666Y-61150342D02*
X92275047Y-61245580D01*
X92275047Y-61245580D02*
X92227428Y-61293200D01*
X92227428Y-61293200D02*
X92132190Y-61340819D01*
X92132190Y-61340819D02*
X91846476Y-61340819D01*
X91846476Y-61340819D02*
X91751238Y-61293200D01*
X91751238Y-61293200D02*
X91703619Y-61245580D01*
X91971905Y-115163819D02*
X91971905Y-114163819D01*
X91971905Y-114163819D02*
X92210000Y-114163819D01*
X92210000Y-114163819D02*
X92352857Y-114211438D01*
X92352857Y-114211438D02*
X92448095Y-114306676D01*
X92448095Y-114306676D02*
X92495714Y-114401914D01*
X92495714Y-114401914D02*
X92543333Y-114592390D01*
X92543333Y-114592390D02*
X92543333Y-114735247D01*
X92543333Y-114735247D02*
X92495714Y-114925723D01*
X92495714Y-114925723D02*
X92448095Y-115020961D01*
X92448095Y-115020961D02*
X92352857Y-115116200D01*
X92352857Y-115116200D02*
X92210000Y-115163819D01*
X92210000Y-115163819D02*
X91971905Y-115163819D01*
X92876667Y-114163819D02*
X93495714Y-114163819D01*
X93495714Y-114163819D02*
X93162381Y-114544771D01*
X93162381Y-114544771D02*
X93305238Y-114544771D01*
X93305238Y-114544771D02*
X93400476Y-114592390D01*
X93400476Y-114592390D02*
X93448095Y-114640009D01*
X93448095Y-114640009D02*
X93495714Y-114735247D01*
X93495714Y-114735247D02*
X93495714Y-114973342D01*
X93495714Y-114973342D02*
X93448095Y-115068580D01*
X93448095Y-115068580D02*
X93400476Y-115116200D01*
X93400476Y-115116200D02*
X93305238Y-115163819D01*
X93305238Y-115163819D02*
X93019524Y-115163819D01*
X93019524Y-115163819D02*
X92924286Y-115116200D01*
X92924286Y-115116200D02*
X92876667Y-115068580D01*
X97546419Y-69510294D02*
X96546419Y-69510294D01*
X96546419Y-69510294D02*
X96546419Y-69272199D01*
X96546419Y-69272199D02*
X96594038Y-69129342D01*
X96594038Y-69129342D02*
X96689276Y-69034104D01*
X96689276Y-69034104D02*
X96784514Y-68986485D01*
X96784514Y-68986485D02*
X96974990Y-68938866D01*
X96974990Y-68938866D02*
X97117847Y-68938866D01*
X97117847Y-68938866D02*
X97308323Y-68986485D01*
X97308323Y-68986485D02*
X97403561Y-69034104D01*
X97403561Y-69034104D02*
X97498800Y-69129342D01*
X97498800Y-69129342D02*
X97546419Y-69272199D01*
X97546419Y-69272199D02*
X97546419Y-69510294D01*
X97546419Y-67986485D02*
X97546419Y-68557913D01*
X97546419Y-68272199D02*
X96546419Y-68272199D01*
X96546419Y-68272199D02*
X96689276Y-68367437D01*
X96689276Y-68367437D02*
X96784514Y-68462675D01*
X96784514Y-68462675D02*
X96832133Y-68557913D01*
X108812133Y-61093180D02*
X108764514Y-61140800D01*
X108764514Y-61140800D02*
X108621657Y-61188419D01*
X108621657Y-61188419D02*
X108526419Y-61188419D01*
X108526419Y-61188419D02*
X108383562Y-61140800D01*
X108383562Y-61140800D02*
X108288324Y-61045561D01*
X108288324Y-61045561D02*
X108240705Y-60950323D01*
X108240705Y-60950323D02*
X108193086Y-60759847D01*
X108193086Y-60759847D02*
X108193086Y-60616990D01*
X108193086Y-60616990D02*
X108240705Y-60426514D01*
X108240705Y-60426514D02*
X108288324Y-60331276D01*
X108288324Y-60331276D02*
X108383562Y-60236038D01*
X108383562Y-60236038D02*
X108526419Y-60188419D01*
X108526419Y-60188419D02*
X108621657Y-60188419D01*
X108621657Y-60188419D02*
X108764514Y-60236038D01*
X108764514Y-60236038D02*
X108812133Y-60283657D01*
X109145467Y-60188419D02*
X109764514Y-60188419D01*
X109764514Y-60188419D02*
X109431181Y-60569371D01*
X109431181Y-60569371D02*
X109574038Y-60569371D01*
X109574038Y-60569371D02*
X109669276Y-60616990D01*
X109669276Y-60616990D02*
X109716895Y-60664609D01*
X109716895Y-60664609D02*
X109764514Y-60759847D01*
X109764514Y-60759847D02*
X109764514Y-60997942D01*
X109764514Y-60997942D02*
X109716895Y-61093180D01*
X109716895Y-61093180D02*
X109669276Y-61140800D01*
X109669276Y-61140800D02*
X109574038Y-61188419D01*
X109574038Y-61188419D02*
X109288324Y-61188419D01*
X109288324Y-61188419D02*
X109193086Y-61140800D01*
X109193086Y-61140800D02*
X109145467Y-61093180D01*
X111592667Y-49244000D02*
X111735524Y-49291619D01*
X111735524Y-49291619D02*
X111973619Y-49291619D01*
X111973619Y-49291619D02*
X112068857Y-49244000D01*
X112068857Y-49244000D02*
X112116476Y-49196380D01*
X112116476Y-49196380D02*
X112164095Y-49101142D01*
X112164095Y-49101142D02*
X112164095Y-49005904D01*
X112164095Y-49005904D02*
X112116476Y-48910666D01*
X112116476Y-48910666D02*
X112068857Y-48863047D01*
X112068857Y-48863047D02*
X111973619Y-48815428D01*
X111973619Y-48815428D02*
X111783143Y-48767809D01*
X111783143Y-48767809D02*
X111687905Y-48720190D01*
X111687905Y-48720190D02*
X111640286Y-48672571D01*
X111640286Y-48672571D02*
X111592667Y-48577333D01*
X111592667Y-48577333D02*
X111592667Y-48482095D01*
X111592667Y-48482095D02*
X111640286Y-48386857D01*
X111640286Y-48386857D02*
X111687905Y-48339238D01*
X111687905Y-48339238D02*
X111783143Y-48291619D01*
X111783143Y-48291619D02*
X112021238Y-48291619D01*
X112021238Y-48291619D02*
X112164095Y-48339238D01*
X112497429Y-48291619D02*
X112735524Y-49291619D01*
X112735524Y-49291619D02*
X112926000Y-48577333D01*
X112926000Y-48577333D02*
X113116476Y-49291619D01*
X113116476Y-49291619D02*
X113354572Y-48291619D01*
X114211714Y-48291619D02*
X113735524Y-48291619D01*
X113735524Y-48291619D02*
X113687905Y-48767809D01*
X113687905Y-48767809D02*
X113735524Y-48720190D01*
X113735524Y-48720190D02*
X113830762Y-48672571D01*
X113830762Y-48672571D02*
X114068857Y-48672571D01*
X114068857Y-48672571D02*
X114164095Y-48720190D01*
X114164095Y-48720190D02*
X114211714Y-48767809D01*
X114211714Y-48767809D02*
X114259333Y-48863047D01*
X114259333Y-48863047D02*
X114259333Y-49101142D01*
X114259333Y-49101142D02*
X114211714Y-49196380D01*
X114211714Y-49196380D02*
X114164095Y-49244000D01*
X114164095Y-49244000D02*
X114068857Y-49291619D01*
X114068857Y-49291619D02*
X113830762Y-49291619D01*
X113830762Y-49291619D02*
X113735524Y-49244000D01*
X113735524Y-49244000D02*
X113687905Y-49196380D01*
X111624380Y-65929466D02*
X111672000Y-65977085D01*
X111672000Y-65977085D02*
X111719619Y-66119942D01*
X111719619Y-66119942D02*
X111719619Y-66215180D01*
X111719619Y-66215180D02*
X111672000Y-66358037D01*
X111672000Y-66358037D02*
X111576761Y-66453275D01*
X111576761Y-66453275D02*
X111481523Y-66500894D01*
X111481523Y-66500894D02*
X111291047Y-66548513D01*
X111291047Y-66548513D02*
X111148190Y-66548513D01*
X111148190Y-66548513D02*
X110957714Y-66500894D01*
X110957714Y-66500894D02*
X110862476Y-66453275D01*
X110862476Y-66453275D02*
X110767238Y-66358037D01*
X110767238Y-66358037D02*
X110719619Y-66215180D01*
X110719619Y-66215180D02*
X110719619Y-66119942D01*
X110719619Y-66119942D02*
X110767238Y-65977085D01*
X110767238Y-65977085D02*
X110814857Y-65929466D01*
X111719619Y-64977085D02*
X111719619Y-65548513D01*
X111719619Y-65262799D02*
X110719619Y-65262799D01*
X110719619Y-65262799D02*
X110862476Y-65358037D01*
X110862476Y-65358037D02*
X110957714Y-65453275D01*
X110957714Y-65453275D02*
X111005333Y-65548513D01*
D13*
%TO.C,D2*%
X95896200Y-72354000D02*
X95896200Y-69894000D01*
X95896200Y-69894000D02*
X94426200Y-69894000D01*
X94426200Y-69894000D02*
X94426200Y-72354000D01*
%TO.C,SW6*%
X142050000Y-37300000D02*
X142050000Y-38800000D01*
X143300000Y-41300000D02*
X147800000Y-41300000D01*
X147800000Y-34800000D02*
X143300000Y-34800000D01*
X149050000Y-38800000D02*
X149050000Y-37300000D01*
%TO.C,C4*%
X82917220Y-67644400D02*
X83198380Y-67644400D01*
X82917220Y-66624400D02*
X83198380Y-66624400D01*
%TO.C,Micro_Pwr1*%
X100785800Y-89782200D02*
X100785800Y-91032200D01*
X101075800Y-90072200D02*
X101075800Y-96042200D01*
X101075800Y-96042200D02*
X111195800Y-96042200D01*
X101085800Y-90082200D02*
X101085800Y-90832200D01*
X101085800Y-90832200D02*
X102885800Y-90832200D01*
X101085800Y-92332200D02*
X101835800Y-92332200D01*
X101835800Y-92332200D02*
X101835800Y-95282200D01*
X101835800Y-95282200D02*
X106135800Y-95282200D01*
X102035800Y-89782200D02*
X100785800Y-89782200D01*
X102885800Y-90082200D02*
X101085800Y-90082200D01*
X102885800Y-90832200D02*
X102885800Y-90082200D01*
X104385800Y-90082200D02*
X104385800Y-90832200D01*
X104385800Y-90832200D02*
X107885800Y-90832200D01*
X107885800Y-90082200D02*
X104385800Y-90082200D01*
X107885800Y-90832200D02*
X107885800Y-90082200D01*
X109385800Y-90082200D02*
X109385800Y-90832200D01*
X109385800Y-90832200D02*
X111185800Y-90832200D01*
X110435800Y-92332200D02*
X110435800Y-95282200D01*
X110435800Y-95282200D02*
X106135800Y-95282200D01*
X111185800Y-90082200D02*
X109385800Y-90082200D01*
X111185800Y-90832200D02*
X111185800Y-90082200D01*
X111185800Y-92332200D02*
X110435800Y-92332200D01*
X111195800Y-90072200D02*
X101075800Y-90072200D01*
X111195800Y-96042200D02*
X111195800Y-90072200D01*
%TO.C,SW4*%
X124564400Y-44818400D02*
X124564400Y-46318400D01*
X125814400Y-48818400D02*
X130314400Y-48818400D01*
X130314400Y-42318400D02*
X125814400Y-42318400D01*
X131564400Y-46318400D02*
X131564400Y-44818400D01*
%TO.C,Inv_Pwr1*%
X86868000Y-81465000D02*
X86868000Y-87485000D01*
X86868000Y-87485000D02*
X92168000Y-87485000D01*
X87448000Y-86885000D02*
X87448000Y-87485000D01*
X88248000Y-82465000D02*
X88248000Y-81465000D01*
X88498000Y-81465000D02*
X88498000Y-82465000D01*
X88498000Y-82995000D02*
X88248000Y-82465000D01*
X89048000Y-86885000D02*
X87448000Y-86885000D01*
X89048000Y-87485000D02*
X89048000Y-86885000D01*
X89988000Y-86885000D02*
X89988000Y-87485000D01*
X90538000Y-81465000D02*
X90538000Y-82465000D01*
X90538000Y-82995000D02*
X88498000Y-82995000D01*
X90788000Y-81465000D02*
X90788000Y-82465000D01*
X90788000Y-82465000D02*
X88248000Y-82465000D01*
X90788000Y-82465000D02*
X90538000Y-82995000D01*
X91588000Y-86885000D02*
X89988000Y-86885000D01*
X91588000Y-87485000D02*
X91588000Y-86885000D01*
X92168000Y-81465000D02*
X86868000Y-81465000D01*
X92168000Y-87485000D02*
X92168000Y-81465000D01*
X92458000Y-86455000D02*
X92458000Y-82455000D01*
%TO.C,C5*%
X107530800Y-77268400D02*
X107530800Y-76068400D01*
X107530800Y-72748400D02*
X107530800Y-73948400D01*
X104075237Y-77268400D02*
X107530800Y-77268400D01*
X104075237Y-72748400D02*
X107530800Y-72748400D01*
X103010800Y-76203963D02*
X104075237Y-77268400D01*
X103010800Y-76203963D02*
X103010800Y-76068400D01*
X103010800Y-73812837D02*
X104075237Y-72748400D01*
X103010800Y-73812837D02*
X103010800Y-73948400D01*
X102520800Y-73198400D02*
X102520800Y-73698400D01*
X102270800Y-73448400D02*
X102770800Y-73448400D01*
%TO.C,J2*%
X78810000Y-73410000D02*
X78810000Y-74490000D01*
X78810000Y-69190000D02*
X79240000Y-69190000D01*
X78810000Y-68110000D02*
X78810000Y-69190000D01*
X73660000Y-75210000D02*
X76890000Y-75210000D01*
X73660000Y-67390000D02*
X76890000Y-67390000D01*
X69490000Y-75210000D02*
X71440000Y-75210000D01*
X69490000Y-75210000D02*
X69490000Y-67390000D01*
X69490000Y-67390000D02*
X71440000Y-67390000D01*
%TO.C,J1*%
X121960000Y-53968800D02*
X121960000Y-56728800D01*
X121960000Y-56728800D02*
X137420000Y-56728800D01*
X122910000Y-53656158D02*
X122910000Y-53968800D01*
X122910000Y-62728800D02*
X122910000Y-56728800D01*
X123770000Y-53656158D02*
X123770000Y-53968800D01*
X123770000Y-56728800D02*
X123770000Y-62728800D01*
X123770000Y-62728800D02*
X122910000Y-62728800D01*
X124610000Y-53968800D02*
X124610000Y-56728800D01*
X125450000Y-53656158D02*
X125450000Y-53968800D01*
X125450000Y-62728800D02*
X125450000Y-56728800D01*
X126310000Y-53656158D02*
X126310000Y-53968800D01*
X126310000Y-56728800D02*
X126310000Y-62728800D01*
X126310000Y-62728800D02*
X125450000Y-62728800D01*
X127150000Y-53968800D02*
X127150000Y-56728800D01*
X127990000Y-53656158D02*
X127990000Y-53968800D01*
X127990000Y-62728800D02*
X127990000Y-56728800D01*
X128850000Y-53656158D02*
X128850000Y-53968800D01*
X128850000Y-56728800D02*
X128850000Y-62728800D01*
X128850000Y-62728800D02*
X127990000Y-62728800D01*
X129690000Y-53968800D02*
X129690000Y-56728800D01*
X130530000Y-53656158D02*
X130530000Y-53968800D01*
X130530000Y-62728800D02*
X130530000Y-56728800D01*
X131390000Y-53656158D02*
X131390000Y-53968800D01*
X131390000Y-56728800D02*
X131390000Y-62728800D01*
X131390000Y-62728800D02*
X130530000Y-62728800D01*
X132230000Y-53968800D02*
X132230000Y-56728800D01*
X133070000Y-53656158D02*
X133070000Y-53968800D01*
X133070000Y-62728800D02*
X133070000Y-56728800D01*
X133930000Y-53656158D02*
X133930000Y-53968800D01*
X133930000Y-56728800D02*
X133930000Y-62728800D01*
X133930000Y-62728800D02*
X133070000Y-62728800D01*
X134770000Y-53968800D02*
X134770000Y-56728800D01*
X135610000Y-53738800D02*
X135610000Y-53968800D01*
X136040000Y-51308800D02*
X137310000Y-51308800D01*
X136470000Y-53738800D02*
X136470000Y-53968800D01*
X137310000Y-51308800D02*
X137310000Y-52578800D01*
X137420000Y-53968800D02*
X121960000Y-53968800D01*
X137420000Y-56728800D02*
X137420000Y-53968800D01*
X136470000Y-56728800D02*
X135610000Y-56728800D01*
X135610000Y-62728800D01*
X136470000Y-62728800D01*
X136470000Y-56728800D01*
G36*
X136470000Y-56728800D02*
G01*
X135610000Y-56728800D01*
X135610000Y-62728800D01*
X136470000Y-62728800D01*
X136470000Y-56728800D01*
G37*
%TO.C,R3*%
X97614100Y-75601258D02*
X97614100Y-75126742D01*
X96569100Y-75601258D02*
X96569100Y-75126742D01*
D14*
%TO.C,Pw_In-1*%
X135343000Y-124802000D02*
G75*
G02*
X120357000Y-124802000I-7493000J0D01*
G01*
X120357000Y-124802000D02*
G75*
G02*
X135343000Y-124802000I7493000J0D01*
G01*
X152615000Y-124802000D02*
G75*
G02*
X137629000Y-124802000I-7493000J0D01*
G01*
X137629000Y-124802000D02*
G75*
G02*
X152615000Y-124802000I7493000J0D01*
G01*
D15*
%TO.C,G\u002A\u002A\u002A*%
G36*
X105885909Y-102694300D02*
G01*
X105886053Y-102898837D01*
X105886470Y-103091296D01*
X105887131Y-103268244D01*
X105888012Y-103426246D01*
X105889085Y-103561870D01*
X105890325Y-103671680D01*
X105891704Y-103752244D01*
X105893198Y-103800128D01*
X105894474Y-103812600D01*
X105930519Y-103804549D01*
X105992865Y-103782795D01*
X106072974Y-103750938D01*
X106162309Y-103712576D01*
X106252333Y-103671309D01*
X106334508Y-103630735D01*
X106367633Y-103613126D01*
X106585470Y-103474390D01*
X106792424Y-103305102D01*
X106980794Y-103112803D01*
X107142875Y-102905036D01*
X107226701Y-102771909D01*
X107316013Y-102595681D01*
X107392778Y-102404384D01*
X107453981Y-102208188D01*
X107496607Y-102017259D01*
X107517640Y-101841768D01*
X107519344Y-101785073D01*
X107519600Y-101653794D01*
X108154646Y-101653794D01*
X108789693Y-101653794D01*
X108776693Y-101881413D01*
X108737359Y-102234233D01*
X108661096Y-102579482D01*
X108549565Y-102914478D01*
X108404425Y-103236540D01*
X108227336Y-103542986D01*
X108019959Y-103831133D01*
X107783954Y-104098301D01*
X107520980Y-104341808D01*
X107232699Y-104558971D01*
X107046358Y-104676636D01*
X106807350Y-104803704D01*
X106551034Y-104915544D01*
X106290435Y-105007103D01*
X106038578Y-105073327D01*
X106007463Y-105079751D01*
X105937117Y-105097603D01*
X105895141Y-105116590D01*
X105885909Y-105129278D01*
X105892206Y-105134273D01*
X105912666Y-105138599D01*
X105949641Y-105142299D01*
X106005485Y-105145415D01*
X106082550Y-105147993D01*
X106183190Y-105150073D01*
X106309757Y-105151699D01*
X106464605Y-105152915D01*
X106650085Y-105153764D01*
X106868552Y-105154288D01*
X107122357Y-105154531D01*
X107266766Y-105154560D01*
X108647624Y-105154560D01*
X108647624Y-105767194D01*
X108647624Y-106379828D01*
X107407769Y-106380114D01*
X106167915Y-106380401D01*
X106393833Y-106456425D01*
X106727418Y-106588850D01*
X107046500Y-106755709D01*
X107347696Y-106954324D01*
X107627624Y-107182019D01*
X107882901Y-107436116D01*
X108110145Y-107713939D01*
X108256638Y-107930598D01*
X108407489Y-108201568D01*
X108536102Y-108489664D01*
X108640256Y-108787534D01*
X108717729Y-109087821D01*
X108766299Y-109383170D01*
X108783745Y-109666228D01*
X108783765Y-109675616D01*
X108783765Y-109783350D01*
X108154282Y-109783350D01*
X107524800Y-109783350D01*
X107514411Y-109593725D01*
X107480842Y-109329060D01*
X107410807Y-109068112D01*
X107306735Y-108814983D01*
X107171056Y-108573774D01*
X107006200Y-108348588D01*
X106814596Y-108143526D01*
X106598673Y-107962689D01*
X106512595Y-107902402D01*
X106420681Y-107845856D01*
X106314201Y-107787621D01*
X106202830Y-107732295D01*
X106096243Y-107684482D01*
X106004112Y-107648782D01*
X105941567Y-107630814D01*
X105885909Y-107619683D01*
X105885909Y-108711241D01*
X105885909Y-109802799D01*
X105282999Y-109802799D01*
X104680090Y-109802799D01*
X104680090Y-108711563D01*
X104680090Y-107620328D01*
X104626606Y-107633611D01*
X104546238Y-107658846D01*
X104444844Y-107698297D01*
X104334958Y-107746515D01*
X104229115Y-107798054D01*
X104154241Y-107838909D01*
X103910173Y-108003102D01*
X103693784Y-108194521D01*
X103504801Y-108413461D01*
X103342952Y-108660219D01*
X103268660Y-108801191D01*
X103163926Y-109052563D01*
X103091769Y-109307778D01*
X103054234Y-109559359D01*
X103051867Y-109593725D01*
X103040743Y-109783350D01*
X102411488Y-109783350D01*
X101782234Y-109783350D01*
X101782234Y-109661286D01*
X101787316Y-109535029D01*
X101801553Y-109384402D01*
X101823428Y-109222442D01*
X101851423Y-109062181D01*
X101852673Y-109055867D01*
X101907092Y-108838520D01*
X101985309Y-108605306D01*
X102082670Y-108366877D01*
X102194518Y-108133889D01*
X102316200Y-107916994D01*
X102418588Y-107760686D01*
X102504205Y-107649907D01*
X102613492Y-107523676D01*
X102738813Y-107389629D01*
X102872533Y-107255401D01*
X103007016Y-107128628D01*
X103134627Y-107016945D01*
X103247730Y-106927986D01*
X103260335Y-106918939D01*
X103398217Y-106828912D01*
X103561306Y-106734813D01*
X103737821Y-106642589D01*
X103915976Y-106558183D01*
X104083991Y-106487540D01*
X104193872Y-106447945D01*
X104398083Y-106381125D01*
X103158229Y-106380476D01*
X101918374Y-106379828D01*
X101918374Y-105767194D01*
X101918374Y-105154560D01*
X103299232Y-105154560D01*
X103566758Y-105154486D01*
X103797961Y-105154227D01*
X103995413Y-105153728D01*
X104161689Y-105152936D01*
X104299361Y-105151796D01*
X104411004Y-105150254D01*
X104499191Y-105148255D01*
X104566495Y-105145745D01*
X104615490Y-105142670D01*
X104648749Y-105138975D01*
X104668846Y-105134606D01*
X104678355Y-105129508D01*
X104680090Y-105125387D01*
X104664165Y-105100634D01*
X104646054Y-105096036D01*
X104594875Y-105089524D01*
X104515443Y-105071940D01*
X104415996Y-105045676D01*
X104304774Y-105013124D01*
X104190017Y-104976675D01*
X104079964Y-104938723D01*
X103999385Y-104908305D01*
X103671783Y-104758144D01*
X103364171Y-104576900D01*
X103078358Y-104367049D01*
X102816150Y-104131072D01*
X102579355Y-103871446D01*
X102369780Y-103590650D01*
X102189232Y-103291161D01*
X102039519Y-102975459D01*
X101922447Y-102646022D01*
X101839824Y-102305327D01*
X101793457Y-101955854D01*
X101788189Y-101875953D01*
X101776284Y-101653794D01*
X102411341Y-101653794D01*
X103046399Y-101653794D01*
X103046399Y-101778062D01*
X103054035Y-101903460D01*
X103075153Y-102049142D01*
X103107068Y-102200013D01*
X103145843Y-102337159D01*
X103252743Y-102603943D01*
X103392334Y-102854148D01*
X103561514Y-103084533D01*
X103757180Y-103291860D01*
X103976229Y-103472886D01*
X104215559Y-103624374D01*
X104472067Y-103743083D01*
X104503304Y-103754770D01*
X104575622Y-103780803D01*
X104632927Y-103800754D01*
X104666281Y-103811542D01*
X104670925Y-103812600D01*
X104672601Y-103793723D01*
X104674179Y-103739384D01*
X104675629Y-103653014D01*
X104676923Y-103538048D01*
X104678035Y-103397921D01*
X104678935Y-103236064D01*
X104679595Y-103055914D01*
X104679987Y-102860902D01*
X104680090Y-102694300D01*
X104680090Y-101576000D01*
X105282999Y-101576000D01*
X105885909Y-101576000D01*
X105885909Y-102694300D01*
G37*
D13*
%TO.C,SW10*%
X118637600Y-64915200D02*
X118637600Y-66915200D01*
X117637600Y-68215200D02*
X117187600Y-68665200D01*
X117637600Y-63615200D02*
X117187600Y-63165200D01*
X114587600Y-68665200D02*
X117187600Y-68665200D01*
X114587600Y-63165200D02*
X117187600Y-63165200D01*
X114137600Y-68215200D02*
X114587600Y-68665200D01*
X114137600Y-63615200D02*
X114587600Y-63165200D01*
X113137600Y-64915200D02*
X113137600Y-66915200D01*
%TO.C,R4*%
X95683700Y-75601258D02*
X95683700Y-75126742D01*
X94638700Y-75601258D02*
X94638700Y-75126742D01*
%TO.C,U2*%
X105800000Y-72220800D02*
X102040000Y-72220800D01*
X105800000Y-65400800D02*
X102040000Y-65400800D01*
X102040000Y-72220800D02*
X102040000Y-70960800D01*
X102040000Y-65400800D02*
X102040000Y-66660800D01*
X107320000Y-72450800D02*
X106840000Y-72450800D01*
X107080000Y-72120800D01*
X107320000Y-72450800D01*
G36*
X107320000Y-72450800D02*
G01*
X106840000Y-72450800D01*
X107080000Y-72120800D01*
X107320000Y-72450800D01*
G37*
%TO.C,Motor_Out1*%
X115823000Y-81385000D02*
X115823000Y-96845000D01*
X115823000Y-96845000D02*
X123293000Y-96845000D01*
X116683000Y-82535000D02*
X120983000Y-82535000D01*
X116683000Y-83285000D02*
X116683000Y-82535000D01*
X116683000Y-85535000D02*
X116683000Y-84785000D01*
X116683000Y-87615000D02*
X120983000Y-87615000D01*
X116683000Y-88365000D02*
X116683000Y-87615000D01*
X116683000Y-90615000D02*
X116683000Y-89865000D01*
X116683000Y-92695000D02*
X120983000Y-92695000D01*
X116683000Y-93445000D02*
X116683000Y-92695000D01*
X116683000Y-95695000D02*
X116683000Y-94945000D01*
X120983000Y-82535000D02*
X120983000Y-83285000D01*
X120983000Y-83285000D02*
X121333000Y-83285000D01*
X120983000Y-84785000D02*
X120983000Y-85535000D01*
X120983000Y-85535000D02*
X116683000Y-85535000D01*
X120983000Y-87615000D02*
X120983000Y-88365000D01*
X120983000Y-88365000D02*
X121333000Y-88365000D01*
X120983000Y-89865000D02*
X120983000Y-90615000D01*
X120983000Y-90615000D02*
X116683000Y-90615000D01*
X120983000Y-92695000D02*
X120983000Y-93445000D01*
X120983000Y-93445000D02*
X121333000Y-93445000D01*
X120983000Y-94945000D02*
X120983000Y-95695000D01*
X120983000Y-95695000D02*
X116683000Y-95695000D01*
X121333000Y-82785000D02*
X122333000Y-82535000D01*
X121333000Y-83285000D02*
X121333000Y-82785000D01*
X121333000Y-84785000D02*
X120983000Y-84785000D01*
X121333000Y-85285000D02*
X121333000Y-84785000D01*
X121333000Y-87865000D02*
X122333000Y-87615000D01*
X121333000Y-88365000D02*
X121333000Y-87865000D01*
X121333000Y-89865000D02*
X120983000Y-89865000D01*
X121333000Y-90365000D02*
X121333000Y-89865000D01*
X121333000Y-92945000D02*
X122333000Y-92695000D01*
X121333000Y-93445000D02*
X121333000Y-92945000D01*
X121333000Y-94945000D02*
X120983000Y-94945000D01*
X121333000Y-95445000D02*
X121333000Y-94945000D01*
X122333000Y-82535000D02*
X122333000Y-85535000D01*
X122333000Y-85535000D02*
X121333000Y-85285000D01*
X122333000Y-87615000D02*
X122333000Y-90615000D01*
X122333000Y-90615000D02*
X121333000Y-90365000D01*
X122333000Y-92695000D02*
X122333000Y-95695000D01*
X122333000Y-95695000D02*
X121333000Y-95445000D01*
X122433000Y-80995000D02*
X123683000Y-80995000D01*
X123293000Y-81385000D02*
X115823000Y-81385000D01*
X123293000Y-96845000D02*
X123293000Y-81385000D01*
X123683000Y-80995000D02*
X123683000Y-82995000D01*
X116683000Y-83285000D02*
G75*
G02*
X116683156Y-84784647I-1700000J-750000D01*
G01*
X116683000Y-88365000D02*
G75*
G02*
X116683156Y-89864647I-1700000J-750000D01*
G01*
X116683000Y-93445000D02*
G75*
G02*
X116683156Y-94944647I-1700000J-750000D01*
G01*
%TO.C,U1*%
X92956800Y-71858800D02*
X92956800Y-73808800D01*
X92956800Y-71858800D02*
X92956800Y-69908800D01*
X82836800Y-71858800D02*
X82836800Y-73808800D01*
X82836800Y-71858800D02*
X82836800Y-69908800D01*
X93231800Y-69398800D02*
X92901800Y-69158800D01*
X93231800Y-68918800D01*
X93231800Y-69398800D01*
G36*
X93231800Y-69398800D02*
G01*
X92901800Y-69158800D01*
X93231800Y-68918800D01*
X93231800Y-69398800D01*
G37*
%TO.C,Motor_Pwr1*%
X128679000Y-112743000D02*
X128679000Y-110243000D01*
X128929000Y-80293000D02*
X144629000Y-80293000D01*
X128929000Y-112493000D02*
X128929000Y-80293000D01*
X131179000Y-112743000D02*
X128679000Y-112743000D01*
X144629000Y-112493000D02*
X128929000Y-112493000D01*
X144629000Y-112493000D02*
X144629000Y-80293000D01*
%TO.C,R5*%
X89266000Y-93179000D02*
X90036000Y-93179000D01*
X97346000Y-93179000D02*
X96576000Y-93179000D01*
X96576000Y-94549000D02*
X90036000Y-94549000D01*
X90036000Y-91809000D01*
X96576000Y-91809000D01*
X96576000Y-94549000D01*
%TO.C,Cnv_Pwr1*%
X96117000Y-81426000D02*
X96117000Y-87446000D01*
X96117000Y-87446000D02*
X101417000Y-87446000D01*
X96697000Y-86846000D02*
X96697000Y-87446000D01*
X97497000Y-82426000D02*
X97497000Y-81426000D01*
X97747000Y-81426000D02*
X97747000Y-82426000D01*
X97747000Y-82956000D02*
X97497000Y-82426000D01*
X98297000Y-86846000D02*
X96697000Y-86846000D01*
X98297000Y-87446000D02*
X98297000Y-86846000D01*
X99237000Y-86846000D02*
X99237000Y-87446000D01*
X99787000Y-81426000D02*
X99787000Y-82426000D01*
X99787000Y-82956000D02*
X97747000Y-82956000D01*
X100037000Y-81426000D02*
X100037000Y-82426000D01*
X100037000Y-82426000D02*
X97497000Y-82426000D01*
X100037000Y-82426000D02*
X99787000Y-82956000D01*
X100837000Y-86846000D02*
X99237000Y-86846000D01*
X100837000Y-87446000D02*
X100837000Y-86846000D01*
X101417000Y-81426000D02*
X96117000Y-81426000D01*
X101417000Y-87446000D02*
X101417000Y-81426000D01*
X101707000Y-86416000D02*
X101707000Y-82416000D01*
%TO.C,SW9*%
X118637600Y-74840000D02*
X118637600Y-72840000D01*
X117637600Y-76140000D02*
X117187600Y-76590000D01*
X117637600Y-71540000D02*
X117187600Y-71090000D01*
X117187600Y-76590000D02*
X114587600Y-76590000D01*
X117187600Y-71090000D02*
X114587600Y-71090000D01*
X114137600Y-76140000D02*
X114587600Y-76590000D01*
X114137600Y-71540000D02*
X114587600Y-71090000D01*
X113137600Y-74840000D02*
X113137600Y-72840000D01*
%TO.C,Cooler1*%
X104880000Y-81465000D02*
X104880000Y-87485000D01*
X104880000Y-87485000D02*
X110180000Y-87485000D01*
X105460000Y-86885000D02*
X105460000Y-87485000D01*
X106260000Y-82465000D02*
X106260000Y-81465000D01*
X106510000Y-81465000D02*
X106510000Y-82465000D01*
X106510000Y-82995000D02*
X106260000Y-82465000D01*
X107060000Y-86885000D02*
X105460000Y-86885000D01*
X107060000Y-87485000D02*
X107060000Y-86885000D01*
X108000000Y-86885000D02*
X108000000Y-87485000D01*
X108550000Y-81465000D02*
X108550000Y-82465000D01*
X108550000Y-82995000D02*
X106510000Y-82995000D01*
X108800000Y-81465000D02*
X108800000Y-82465000D01*
X108800000Y-82465000D02*
X106260000Y-82465000D01*
X108800000Y-82465000D02*
X108550000Y-82995000D01*
X109600000Y-86885000D02*
X108000000Y-86885000D01*
X109600000Y-87485000D02*
X109600000Y-86885000D01*
X110180000Y-81465000D02*
X104880000Y-81465000D01*
X110180000Y-87485000D02*
X110180000Y-81465000D01*
X110470000Y-86455000D02*
X110470000Y-82455000D01*
%TO.C,12V_Pwr1*%
X89341500Y-99782000D02*
X99381500Y-99782000D01*
X89341500Y-102102000D02*
X89341500Y-99782000D01*
X89341500Y-110022000D02*
X89341500Y-102702000D01*
X89961500Y-99782000D02*
X89961500Y-110022000D01*
X91461500Y-99782000D02*
X91461500Y-110022000D01*
X96361500Y-99782000D02*
X96361500Y-110022000D01*
X99381500Y-99782000D02*
X99381500Y-110022000D01*
X99381500Y-110022000D02*
X89341500Y-110022000D01*
X89341500Y-102402000D02*
X88731500Y-102842000D01*
X88731500Y-101962000D01*
X89341500Y-102402000D01*
G36*
X89341500Y-102402000D02*
G01*
X88731500Y-102842000D01*
X88731500Y-101962000D01*
X89341500Y-102402000D01*
G37*
%TO.C,C6*%
X110250800Y-70181220D02*
X110250800Y-70462380D01*
X109230800Y-70181220D02*
X109230800Y-70462380D01*
%TO.C,SW8*%
X142050000Y-52351600D02*
X142050000Y-53851600D01*
X143300000Y-56351600D02*
X147800000Y-56351600D01*
X147800000Y-49851600D02*
X143300000Y-49851600D01*
X149050000Y-53851600D02*
X149050000Y-52351600D01*
%TO.C,SW3*%
X94550000Y-44818400D02*
X94550000Y-46318400D01*
X95800000Y-48818400D02*
X100300000Y-48818400D01*
X100300000Y-42318400D02*
X95800000Y-42318400D01*
X101550000Y-46318400D02*
X101550000Y-44818400D01*
D14*
%TO.C,Pw_In+1*%
X101180000Y-124802000D02*
G75*
G02*
X86194000Y-124802000I-7493000J0D01*
G01*
X86194000Y-124802000D02*
G75*
G02*
X101180000Y-124802000I7493000J0D01*
G01*
X118452000Y-124802000D02*
G75*
G02*
X103466000Y-124802000I-7493000J0D01*
G01*
X103466000Y-124802000D02*
G75*
G02*
X118452000Y-124802000I7493000J0D01*
G01*
D13*
%TO.C,R1*%
X95850542Y-66082100D02*
X96325058Y-66082100D01*
X95850542Y-65037100D02*
X96325058Y-65037100D01*
%TO.C,SW7*%
X77050000Y-52351600D02*
X77050000Y-53851600D01*
X78300000Y-56351600D02*
X82800000Y-56351600D01*
X82800000Y-49851600D02*
X78300000Y-49851600D01*
X84050000Y-53851600D02*
X84050000Y-52351600D01*
%TO.C,R2*%
X95850542Y-64354900D02*
X96325058Y-64354900D01*
X95850542Y-63309900D02*
X96325058Y-63309900D01*
%TO.C,SW2*%
X109527600Y-37300000D02*
X109527600Y-38800000D01*
X110777600Y-41300000D02*
X115277600Y-41300000D01*
X115277600Y-34800000D02*
X110777600Y-34800000D01*
X116527600Y-38800000D02*
X116527600Y-37300000D01*
%TO.C,SW1*%
X77050000Y-37300000D02*
X77050000Y-38800000D01*
X78300000Y-41300000D02*
X82800000Y-41300000D01*
X82800000Y-34800000D02*
X78300000Y-34800000D01*
X84050000Y-38800000D02*
X84050000Y-37300000D01*
%TO.C,C2*%
X91681980Y-76991600D02*
X91400820Y-76991600D01*
X91681980Y-75971600D02*
X91400820Y-75971600D01*
%TO.C,J3*%
X92644600Y-64223600D02*
X92269600Y-64223600D01*
X92644600Y-62003600D02*
X92644600Y-64223600D01*
X92644600Y-62003600D02*
X90269600Y-62003600D01*
X92269600Y-64223600D02*
X92269600Y-65403600D01*
X92269600Y-62003600D02*
X90269600Y-62003600D01*
X90799600Y-64223600D02*
X88269600Y-64223600D01*
X88799600Y-62003600D02*
X86269600Y-62003600D01*
X86799600Y-64223600D02*
X84269600Y-64223600D01*
X84799600Y-62003600D02*
X82424600Y-62003600D01*
X82799600Y-62003600D02*
X82424600Y-62003600D01*
X82424600Y-62003600D02*
X82424600Y-64223600D01*
%TO.C,D3*%
X90150000Y-111589000D02*
X91233000Y-111589000D01*
X90150000Y-113709000D02*
X90150000Y-111589000D01*
X91233000Y-113709000D02*
X90150000Y-113709000D01*
X91647000Y-111589000D02*
X92900000Y-111589000D01*
X92900000Y-113709000D02*
X91647000Y-113709000D01*
X95060000Y-111589000D02*
X95270000Y-111589000D01*
X95150000Y-113709000D02*
X95150000Y-111589000D01*
X95270000Y-111589000D02*
X95270000Y-113709000D01*
X95270000Y-113709000D02*
X95060000Y-113709000D01*
%TO.C,D1*%
X97826600Y-72354000D02*
X97826600Y-69894000D01*
X97826600Y-69894000D02*
X96356600Y-69894000D01*
X96356600Y-69894000D02*
X96356600Y-72354000D01*
%TO.C,C3*%
X107581600Y-64873200D02*
X107581600Y-63673200D01*
X107581600Y-60353200D02*
X107581600Y-61553200D01*
X104126037Y-64873200D02*
X107581600Y-64873200D01*
X104126037Y-60353200D02*
X107581600Y-60353200D01*
X103061600Y-63808763D02*
X104126037Y-64873200D01*
X103061600Y-63808763D02*
X103061600Y-63673200D01*
X103061600Y-61417637D02*
X104126037Y-60353200D01*
X103061600Y-61417637D02*
X103061600Y-61553200D01*
X102571600Y-60803200D02*
X102571600Y-61303200D01*
X102321600Y-61053200D02*
X102821600Y-61053200D01*
%TO.C,SW5*%
X109426000Y-52336800D02*
X109426000Y-53836800D01*
X110676000Y-56336800D02*
X115176000Y-56336800D01*
X115176000Y-49836800D02*
X110676000Y-49836800D01*
X116426000Y-53836800D02*
X116426000Y-52336800D01*
%TO.C,C1*%
X110352400Y-65890380D02*
X110352400Y-65609220D01*
X109332400Y-65890380D02*
X109332400Y-65609220D01*
%TD*%
M02*
