M48
; DRILL file {KiCad 9.0.3} date 2025-08-21T00:29:24-0300
; FORMAT={-:-/ absolute / metric / decimal}
; #@! TF.CreationDate,2025-08-21T00:29:24-03:00
; #@! TF.GenerationSoftware,Kicad,Pcbnew,9.0.3
; #@! TF.FileFunction,Plated,1,2,PTH
FMAT,2
METRIC
; #@! TA.AperFunction,Plated,PTH,ComponentDrill
T1C0.800
; #@! TA.AperFunction,Plated,PTH,ComponentDrill
T2C0.900
; #@! TA.AperFunction,Plated,PTH,ComponentDrill
T3C1.190
; #@! TA.AperFunction,Plated,PTH,ComponentDrill
T4C1.200
; #@! TA.AperFunction,Plated,PTH,ComponentDrill
T5C1.300
; #@! TA.AperFunction,Plated,PTH,ComponentDrill
T6C2.200
; #@! TA.AperFunction,Plated,PTH,ComponentDrill
T7C4.064
%
G90
G05
T1
X88.226Y-93.179
X98.386Y-93.179
T2
X91.44Y-112.649
X93.98Y-112.649
T3
X88.248Y-84.455
X90.788Y-84.455
X97.497Y-84.416
X100.037Y-84.416
X106.26Y-84.455
X106.26Y-92.818
X108.8Y-84.455
X108.8Y-92.818
T4
X118.833Y-84.035
X118.833Y-89.115
X118.833Y-94.195
T5
X94.061Y-102.402
X94.061Y-107.402
T6
X136.779Y-86.393
X136.779Y-96.393
X136.779Y-106.393
T7
X93.687Y-124.802
X110.959Y-124.802
X127.85Y-124.802
X145.122Y-124.802
M30
