%TF.GenerationSoftware,KiCad,Pcbnew,9.0.3*%
%TF.CreationDate,2025-08-30T18:08:08-03:00*%
%TF.ProjectId,PCB_Integradora,5043425f-496e-4746-9567-7261646f7261,rev?*%
%TF.SameCoordinates,Original*%
%TF.FileFunction,Soldermask,Bot*%
%TF.FilePolarity,Negative*%
%FSLAX46Y46*%
G04 Gerber Fmt 4.6, Leading zero omitted, Abs format (unit mm)*
G04 Created by KiCad (PCBNEW 9.0.3) date 2025-08-30 18:08:08*
%MOMM*%
%LPD*%
G01*
G04 APERTURE LIST*
G04 Aperture macros list*
%AMRoundRect*
0 Rectangle with rounded corners*
0 $1 Rounding radius*
0 $2 $3 $4 $5 $6 $7 $8 $9 X,Y pos of 4 corners*
0 Add a 4 corners polygon primitive as box body*
4,1,4,$2,$3,$4,$5,$6,$7,$8,$9,$2,$3,0*
0 Add four circle primitives for the rounded corners*
1,1,$1+$1,$2,$3*
1,1,$1+$1,$4,$5*
1,1,$1+$1,$6,$7*
1,1,$1+$1,$8,$9*
0 Add four rect primitives between the rounded corners*
20,1,$1+$1,$2,$3,$4,$5,0*
20,1,$1+$1,$4,$5,$6,$7,0*
20,1,$1+$1,$6,$7,$8,$9,0*
20,1,$1+$1,$8,$9,$2,$3,0*%
G04 Aperture macros list end*
%ADD10C,2.000000*%
%ADD11RoundRect,0.250000X-0.600000X-0.725000X0.600000X-0.725000X0.600000X0.725000X-0.600000X0.725000X0*%
%ADD12O,1.700000X1.950000*%
%ADD13RoundRect,0.250000X0.620000X0.845000X-0.620000X0.845000X-0.620000X-0.845000X0.620000X-0.845000X0*%
%ADD14O,1.740000X2.190000*%
%ADD15C,1.000000*%
%ADD16R,1.700000X1.700000*%
%ADD17C,1.700000*%
%ADD18C,12.700000*%
%ADD19RoundRect,0.250000X-1.550000X0.650000X-1.550000X-0.650000X1.550000X-0.650000X1.550000X0.650000X0*%
%ADD20O,3.600000X1.800000*%
%ADD21R,6.600000X3.300000*%
%ADD22O,6.600000X3.300000*%
%ADD23C,1.600000*%
%ADD24RoundRect,0.250000X-1.050000X1.050000X-1.050000X-1.050000X1.050000X-1.050000X1.050000X1.050000X0*%
%ADD25C,2.600000*%
%ADD26R,1.800000X1.800000*%
%ADD27C,1.800000*%
G04 APERTURE END LIST*
D10*
%TO.C,SW6*%
X142300000Y-35800000D03*
X148800000Y-35800000D03*
X142300000Y-40300000D03*
X148800000Y-40300000D03*
%TD*%
D11*
%TO.C,Micro_Pwr1*%
X103635800Y-92532200D03*
D12*
X106135800Y-92532200D03*
X108635800Y-92532200D03*
%TD*%
D10*
%TO.C,SW4*%
X124814400Y-43318400D03*
X131314400Y-43318400D03*
X124814400Y-47818400D03*
X131314400Y-47818400D03*
%TD*%
D13*
%TO.C,Inv_Pwr1*%
X90788000Y-84455000D03*
D14*
X88248000Y-84455000D03*
%TD*%
D15*
%TO.C,J2*%
X75400000Y-69100000D03*
X75400000Y-73500000D03*
%TD*%
D16*
%TO.C,J1*%
X136040000Y-52578800D03*
D17*
X133500000Y-52578800D03*
X130960000Y-52578800D03*
X128420000Y-52578800D03*
X125880000Y-52578800D03*
X123340000Y-52578800D03*
%TD*%
D18*
%TO.C,Pw_In-1*%
X127850000Y-124802000D03*
X145122000Y-124802000D03*
%TD*%
D19*
%TO.C,Motor_Out1*%
X118833000Y-84035000D03*
D20*
X118833000Y-89115000D03*
X118833000Y-94195000D03*
%TD*%
D21*
%TO.C,Motor_Pwr1*%
X136779000Y-106393000D03*
D22*
X136779000Y-96393000D03*
X136779000Y-86393000D03*
%TD*%
D23*
%TO.C,R5*%
X98386000Y-93179000D03*
X88226000Y-93179000D03*
%TD*%
D13*
%TO.C,Cnv_Pwr1*%
X100037000Y-84416000D03*
D14*
X97497000Y-84416000D03*
%TD*%
D13*
%TO.C,Cooler1*%
X108800000Y-84455000D03*
D14*
X106260000Y-84455000D03*
%TD*%
D24*
%TO.C,12V_Pwr1*%
X94061500Y-102402000D03*
D25*
X94061500Y-107402000D03*
%TD*%
D10*
%TO.C,SW8*%
X142300000Y-50851600D03*
X148800000Y-50851600D03*
X142300000Y-55351600D03*
X148800000Y-55351600D03*
%TD*%
%TO.C,SW3*%
X101300000Y-47818400D03*
X94800000Y-47818400D03*
X101300000Y-43318400D03*
X94800000Y-43318400D03*
%TD*%
D18*
%TO.C,Pw_In+1*%
X93687000Y-124802000D03*
X110959000Y-124802000D03*
%TD*%
D10*
%TO.C,SW7*%
X77300000Y-50851600D03*
X83800000Y-50851600D03*
X77300000Y-55351600D03*
X83800000Y-55351600D03*
%TD*%
%TO.C,SW2*%
X116277600Y-40300000D03*
X109777600Y-40300000D03*
X116277600Y-35800000D03*
X109777600Y-35800000D03*
%TD*%
%TO.C,SW1*%
X83800000Y-40300000D03*
X77300000Y-40300000D03*
X83800000Y-35800000D03*
X77300000Y-35800000D03*
%TD*%
D26*
%TO.C,D3*%
X93980000Y-112649000D03*
D27*
X91440000Y-112649000D03*
%TD*%
D10*
%TO.C,SW5*%
X109676000Y-50836800D03*
X116176000Y-50836800D03*
X109676000Y-55336800D03*
X116176000Y-55336800D03*
%TD*%
M02*
