%TF.GenerationSoftware,KiCad,Pcbnew,9.0.3*%
%TF.CreationDate,2025-08-30T18:08:07-03:00*%
%TF.ProjectId,PCB_Integradora,5043425f-496e-4746-9567-7261646f7261,rev?*%
%TF.SameCoordinates,Original*%
%TF.FileFunction,Paste,Top*%
%TF.FilePolarity,Positive*%
%FSLAX46Y46*%
G04 Gerber Fmt 4.6, Leading zero omitted, Abs format (unit mm)*
G04 Created by KiCad (PCBNEW 9.0.3) date 2025-08-30 18:08:07*
%MOMM*%
%LPD*%
G01*
G04 APERTURE LIST*
G04 Aperture macros list*
%AMRoundRect*
0 Rectangle with rounded corners*
0 $1 Rounding radius*
0 $2 $3 $4 $5 $6 $7 $8 $9 X,Y pos of 4 corners*
0 Add a 4 corners polygon primitive as box body*
4,1,4,$2,$3,$4,$5,$6,$7,$8,$9,$2,$3,0*
0 Add four circle primitives for the rounded corners*
1,1,$1+$1,$2,$3*
1,1,$1+$1,$4,$5*
1,1,$1+$1,$6,$7*
1,1,$1+$1,$8,$9*
0 Add four rect primitives between the rounded corners*
20,1,$1+$1,$2,$3,$4,$5,0*
20,1,$1+$1,$4,$5,$6,$7,0*
20,1,$1+$1,$6,$7,$8,$9,0*
20,1,$1+$1,$8,$9,$2,$3,0*%
G04 Aperture macros list end*
%ADD10RoundRect,0.237500X-0.237500X0.287500X-0.237500X-0.287500X0.237500X-0.287500X0.237500X0.287500X0*%
%ADD11RoundRect,0.225000X-0.225000X-0.250000X0.225000X-0.250000X0.225000X0.250000X-0.225000X0.250000X0*%
%ADD12RoundRect,0.250000X-1.050000X-0.550000X1.050000X-0.550000X1.050000X0.550000X-1.050000X0.550000X0*%
%ADD13R,2.000000X0.500000*%
%ADD14R,1.700000X2.000000*%
%ADD15RoundRect,0.200000X0.275000X-0.200000X0.275000X0.200000X-0.275000X0.200000X-0.275000X-0.200000X0*%
%ADD16R,1.000000X0.750000*%
%ADD17RoundRect,0.375000X0.625000X0.375000X-0.625000X0.375000X-0.625000X-0.375000X0.625000X-0.375000X0*%
%ADD18RoundRect,0.500000X0.500000X1.400000X-0.500000X1.400000X-0.500000X-1.400000X0.500000X-1.400000X0*%
%ADD19RoundRect,0.150000X-0.150000X0.825000X-0.150000X-0.825000X0.150000X-0.825000X0.150000X0.825000X0*%
%ADD20RoundRect,0.225000X-0.250000X0.225000X-0.250000X-0.225000X0.250000X-0.225000X0.250000X0.225000X0*%
%ADD21RoundRect,0.200000X-0.200000X-0.275000X0.200000X-0.275000X0.200000X0.275000X-0.200000X0.275000X0*%
%ADD22RoundRect,0.225000X0.225000X0.250000X-0.225000X0.250000X-0.225000X-0.250000X0.225000X-0.250000X0*%
%ADD23R,0.850000X2.350000*%
%ADD24RoundRect,0.225000X0.250000X-0.225000X0.250000X0.225000X-0.250000X0.225000X-0.250000X-0.225000X0*%
G04 APERTURE END LIST*
D10*
%TO.C,D2*%
X95161200Y-70679000D03*
X95161200Y-72429000D03*
%TD*%
D11*
%TO.C,C4*%
X82282800Y-67134400D03*
X83832800Y-67134400D03*
%TD*%
D12*
%TO.C,C5*%
X103470800Y-75008400D03*
X107070800Y-75008400D03*
%TD*%
D13*
%TO.C,J2*%
X78100000Y-69700000D03*
X78100000Y-70500000D03*
X78100000Y-71300000D03*
X78100000Y-72100000D03*
X78100000Y-72900000D03*
D14*
X78000000Y-66850000D03*
X72550000Y-66850000D03*
X78000000Y-75750000D03*
X72550000Y-75750000D03*
%TD*%
D15*
%TO.C,R3*%
X97091600Y-76189000D03*
X97091600Y-74539000D03*
%TD*%
D16*
%TO.C,SW10*%
X112887600Y-64040200D03*
X118887600Y-64040200D03*
X112887600Y-67790200D03*
X118887600Y-67790200D03*
%TD*%
D15*
%TO.C,R4*%
X95161200Y-76189000D03*
X95161200Y-74539000D03*
%TD*%
D17*
%TO.C,U2*%
X107100000Y-71110800D03*
X107100000Y-68810800D03*
D18*
X100800000Y-68810800D03*
D17*
X107100000Y-66510800D03*
%TD*%
D19*
%TO.C,U1*%
X92341800Y-69383800D03*
X91071800Y-69383800D03*
X89801800Y-69383800D03*
X88531800Y-69383800D03*
X87261800Y-69383800D03*
X85991800Y-69383800D03*
X84721800Y-69383800D03*
X83451800Y-69383800D03*
X83451800Y-74333800D03*
X84721800Y-74333800D03*
X85991800Y-74333800D03*
X87261800Y-74333800D03*
X88531800Y-74333800D03*
X89801800Y-74333800D03*
X91071800Y-74333800D03*
X92341800Y-74333800D03*
%TD*%
D16*
%TO.C,SW9*%
X118887600Y-75715000D03*
X112887600Y-75715000D03*
X118887600Y-71965000D03*
X112887600Y-71965000D03*
%TD*%
D20*
%TO.C,C6*%
X109740800Y-69546800D03*
X109740800Y-71096800D03*
%TD*%
D21*
%TO.C,R1*%
X95262800Y-65559600D03*
X96912800Y-65559600D03*
%TD*%
%TO.C,R2*%
X95262800Y-63832400D03*
X96912800Y-63832400D03*
%TD*%
D22*
%TO.C,C2*%
X92316400Y-76481600D03*
X90766400Y-76481600D03*
%TD*%
D23*
%TO.C,J3*%
X91534600Y-64288600D03*
X89534600Y-61938600D03*
X87534600Y-64288600D03*
X85534600Y-61938600D03*
X83534600Y-64288600D03*
%TD*%
D10*
%TO.C,D1*%
X97091600Y-70679000D03*
X97091600Y-72429000D03*
%TD*%
D12*
%TO.C,C3*%
X103521600Y-62613200D03*
X107121600Y-62613200D03*
%TD*%
D24*
%TO.C,C1*%
X109842400Y-66524800D03*
X109842400Y-64974800D03*
%TD*%
M02*
