%TF.GenerationSoftware,KiCad,Pcbnew,9.0.3*%
%TF.CreationDate,2025-08-30T18:08:08-03:00*%
%TF.ProjectId,PCB_Integradora,5043425f-496e-4746-9567-7261646f7261,rev?*%
%TF.SameCoordinates,Original*%
%TF.FileFunction,Soldermask,Top*%
%TF.FilePolarity,Negative*%
%FSLAX46Y46*%
G04 Gerber Fmt 4.6, Leading zero omitted, Abs format (unit mm)*
G04 Created by KiCad (PCBNEW 9.0.3) date 2025-08-30 18:08:08*
%MOMM*%
%LPD*%
G01*
G04 APERTURE LIST*
G04 Aperture macros list*
%AMRoundRect*
0 Rectangle with rounded corners*
0 $1 Rounding radius*
0 $2 $3 $4 $5 $6 $7 $8 $9 X,Y pos of 4 corners*
0 Add a 4 corners polygon primitive as box body*
4,1,4,$2,$3,$4,$5,$6,$7,$8,$9,$2,$3,0*
0 Add four circle primitives for the rounded corners*
1,1,$1+$1,$2,$3*
1,1,$1+$1,$4,$5*
1,1,$1+$1,$6,$7*
1,1,$1+$1,$8,$9*
0 Add four rect primitives between the rounded corners*
20,1,$1+$1,$2,$3,$4,$5,0*
20,1,$1+$1,$4,$5,$6,$7,0*
20,1,$1+$1,$6,$7,$8,$9,0*
20,1,$1+$1,$8,$9,$2,$3,0*%
G04 Aperture macros list end*
%ADD10RoundRect,0.237500X-0.237500X0.287500X-0.237500X-0.287500X0.237500X-0.287500X0.237500X0.287500X0*%
%ADD11C,2.000000*%
%ADD12RoundRect,0.225000X-0.225000X-0.250000X0.225000X-0.250000X0.225000X0.250000X-0.225000X0.250000X0*%
%ADD13RoundRect,0.250000X-0.600000X-0.725000X0.600000X-0.725000X0.600000X0.725000X-0.600000X0.725000X0*%
%ADD14O,1.700000X1.950000*%
%ADD15RoundRect,0.250000X0.620000X0.845000X-0.620000X0.845000X-0.620000X-0.845000X0.620000X-0.845000X0*%
%ADD16O,1.740000X2.190000*%
%ADD17RoundRect,0.250000X-1.050000X-0.550000X1.050000X-0.550000X1.050000X0.550000X-1.050000X0.550000X0*%
%ADD18C,1.000000*%
%ADD19R,2.000000X0.500000*%
%ADD20R,1.700000X2.000000*%
%ADD21R,1.700000X1.700000*%
%ADD22C,1.700000*%
%ADD23RoundRect,0.200000X0.275000X-0.200000X0.275000X0.200000X-0.275000X0.200000X-0.275000X-0.200000X0*%
%ADD24C,12.700000*%
%ADD25R,1.000000X0.750000*%
%ADD26RoundRect,0.375000X0.625000X0.375000X-0.625000X0.375000X-0.625000X-0.375000X0.625000X-0.375000X0*%
%ADD27RoundRect,0.500000X0.500000X1.400000X-0.500000X1.400000X-0.500000X-1.400000X0.500000X-1.400000X0*%
%ADD28RoundRect,0.250000X-1.550000X0.650000X-1.550000X-0.650000X1.550000X-0.650000X1.550000X0.650000X0*%
%ADD29O,3.600000X1.800000*%
%ADD30RoundRect,0.150000X-0.150000X0.825000X-0.150000X-0.825000X0.150000X-0.825000X0.150000X0.825000X0*%
%ADD31R,6.600000X3.300000*%
%ADD32O,6.600000X3.300000*%
%ADD33C,1.600000*%
%ADD34RoundRect,0.250000X-1.050000X1.050000X-1.050000X-1.050000X1.050000X-1.050000X1.050000X1.050000X0*%
%ADD35C,2.600000*%
%ADD36RoundRect,0.225000X-0.250000X0.225000X-0.250000X-0.225000X0.250000X-0.225000X0.250000X0.225000X0*%
%ADD37RoundRect,0.200000X-0.200000X-0.275000X0.200000X-0.275000X0.200000X0.275000X-0.200000X0.275000X0*%
%ADD38RoundRect,0.225000X0.225000X0.250000X-0.225000X0.250000X-0.225000X-0.250000X0.225000X-0.250000X0*%
%ADD39R,0.850000X2.350000*%
%ADD40R,1.800000X1.800000*%
%ADD41C,1.800000*%
%ADD42RoundRect,0.225000X0.250000X-0.225000X0.250000X0.225000X-0.250000X0.225000X-0.250000X-0.225000X0*%
G04 APERTURE END LIST*
D10*
%TO.C,D2*%
X95161200Y-70679000D03*
X95161200Y-72429000D03*
%TD*%
D11*
%TO.C,SW6*%
X142300000Y-35800000D03*
X148800000Y-35800000D03*
X142300000Y-40300000D03*
X148800000Y-40300000D03*
%TD*%
D12*
%TO.C,C4*%
X82282800Y-67134400D03*
X83832800Y-67134400D03*
%TD*%
D13*
%TO.C,Micro_Pwr1*%
X103635800Y-92532200D03*
D14*
X106135800Y-92532200D03*
X108635800Y-92532200D03*
%TD*%
D11*
%TO.C,SW4*%
X124814400Y-43318400D03*
X131314400Y-43318400D03*
X124814400Y-47818400D03*
X131314400Y-47818400D03*
%TD*%
D15*
%TO.C,Inv_Pwr1*%
X90788000Y-84455000D03*
D16*
X88248000Y-84455000D03*
%TD*%
D17*
%TO.C,C5*%
X103470800Y-75008400D03*
X107070800Y-75008400D03*
%TD*%
D18*
%TO.C,J2*%
X75400000Y-69100000D03*
X75400000Y-73500000D03*
D19*
X78100000Y-69700000D03*
X78100000Y-70500000D03*
X78100000Y-71300000D03*
X78100000Y-72100000D03*
X78100000Y-72900000D03*
D20*
X78000000Y-66850000D03*
X72550000Y-66850000D03*
X78000000Y-75750000D03*
X72550000Y-75750000D03*
%TD*%
D21*
%TO.C,J1*%
X136040000Y-52578800D03*
D22*
X133500000Y-52578800D03*
X130960000Y-52578800D03*
X128420000Y-52578800D03*
X125880000Y-52578800D03*
X123340000Y-52578800D03*
%TD*%
D23*
%TO.C,R3*%
X97091600Y-76189000D03*
X97091600Y-74539000D03*
%TD*%
D24*
%TO.C,Pw_In-1*%
X127850000Y-124802000D03*
X145122000Y-124802000D03*
%TD*%
D25*
%TO.C,SW10*%
X112887600Y-64040200D03*
X118887600Y-64040200D03*
X112887600Y-67790200D03*
X118887600Y-67790200D03*
%TD*%
D23*
%TO.C,R4*%
X95161200Y-76189000D03*
X95161200Y-74539000D03*
%TD*%
D26*
%TO.C,U2*%
X107100000Y-71110800D03*
X107100000Y-68810800D03*
D27*
X100800000Y-68810800D03*
D26*
X107100000Y-66510800D03*
%TD*%
D28*
%TO.C,Motor_Out1*%
X118833000Y-84035000D03*
D29*
X118833000Y-89115000D03*
X118833000Y-94195000D03*
%TD*%
D30*
%TO.C,U1*%
X92341800Y-69383800D03*
X91071800Y-69383800D03*
X89801800Y-69383800D03*
X88531800Y-69383800D03*
X87261800Y-69383800D03*
X85991800Y-69383800D03*
X84721800Y-69383800D03*
X83451800Y-69383800D03*
X83451800Y-74333800D03*
X84721800Y-74333800D03*
X85991800Y-74333800D03*
X87261800Y-74333800D03*
X88531800Y-74333800D03*
X89801800Y-74333800D03*
X91071800Y-74333800D03*
X92341800Y-74333800D03*
%TD*%
D31*
%TO.C,Motor_Pwr1*%
X136779000Y-106393000D03*
D32*
X136779000Y-96393000D03*
X136779000Y-86393000D03*
%TD*%
D33*
%TO.C,R5*%
X98386000Y-93179000D03*
X88226000Y-93179000D03*
%TD*%
D15*
%TO.C,Cnv_Pwr1*%
X100037000Y-84416000D03*
D16*
X97497000Y-84416000D03*
%TD*%
D25*
%TO.C,SW9*%
X118887600Y-75715000D03*
X112887600Y-75715000D03*
X118887600Y-71965000D03*
X112887600Y-71965000D03*
%TD*%
D15*
%TO.C,Cooler1*%
X108800000Y-84455000D03*
D16*
X106260000Y-84455000D03*
%TD*%
D34*
%TO.C,12V_Pwr1*%
X94061500Y-102402000D03*
D35*
X94061500Y-107402000D03*
%TD*%
D36*
%TO.C,C6*%
X109740800Y-69546800D03*
X109740800Y-71096800D03*
%TD*%
D11*
%TO.C,SW8*%
X142300000Y-50851600D03*
X148800000Y-50851600D03*
X142300000Y-55351600D03*
X148800000Y-55351600D03*
%TD*%
%TO.C,SW3*%
X101300000Y-47818400D03*
X94800000Y-47818400D03*
X101300000Y-43318400D03*
X94800000Y-43318400D03*
%TD*%
D24*
%TO.C,Pw_In+1*%
X93687000Y-124802000D03*
X110959000Y-124802000D03*
%TD*%
D37*
%TO.C,R1*%
X95262800Y-65559600D03*
X96912800Y-65559600D03*
%TD*%
D11*
%TO.C,SW7*%
X77300000Y-50851600D03*
X83800000Y-50851600D03*
X77300000Y-55351600D03*
X83800000Y-55351600D03*
%TD*%
D37*
%TO.C,R2*%
X95262800Y-63832400D03*
X96912800Y-63832400D03*
%TD*%
D11*
%TO.C,SW2*%
X116277600Y-40300000D03*
X109777600Y-40300000D03*
X116277600Y-35800000D03*
X109777600Y-35800000D03*
%TD*%
%TO.C,SW1*%
X83800000Y-40300000D03*
X77300000Y-40300000D03*
X83800000Y-35800000D03*
X77300000Y-35800000D03*
%TD*%
D38*
%TO.C,C2*%
X92316400Y-76481600D03*
X90766400Y-76481600D03*
%TD*%
D39*
%TO.C,J3*%
X91534600Y-64288600D03*
X89534600Y-61938600D03*
X87534600Y-64288600D03*
X85534600Y-61938600D03*
X83534600Y-64288600D03*
%TD*%
D40*
%TO.C,D3*%
X93980000Y-112649000D03*
D41*
X91440000Y-112649000D03*
%TD*%
D10*
%TO.C,D1*%
X97091600Y-70679000D03*
X97091600Y-72429000D03*
%TD*%
D17*
%TO.C,C3*%
X103521600Y-62613200D03*
X107121600Y-62613200D03*
%TD*%
D11*
%TO.C,SW5*%
X109676000Y-50836800D03*
X116176000Y-50836800D03*
X109676000Y-55336800D03*
X116176000Y-55336800D03*
%TD*%
D42*
%TO.C,C1*%
X109842400Y-66524800D03*
X109842400Y-64974800D03*
%TD*%
M02*
