%TF.GenerationSoftware,KiCad,Pcbnew,9.0.3*%
%TF.CreationDate,2025-08-30T18:08:07-03:00*%
%TF.ProjectId,PCB_Integradora,5043425f-496e-4746-9567-7261646f7261,rev?*%
%TF.SameCoordinates,Original*%
%TF.FileFunction,Copper,L1,Top*%
%TF.FilePolarity,Positive*%
%FSLAX46Y46*%
G04 Gerber Fmt 4.6, Leading zero omitted, Abs format (unit mm)*
G04 Created by KiCad (PCBNEW 9.0.3) date 2025-08-30 18:08:07*
%MOMM*%
%LPD*%
G01*
G04 APERTURE LIST*
G04 Aperture macros list*
%AMRoundRect*
0 Rectangle with rounded corners*
0 $1 Rounding radius*
0 $2 $3 $4 $5 $6 $7 $8 $9 X,Y pos of 4 corners*
0 Add a 4 corners polygon primitive as box body*
4,1,4,$2,$3,$4,$5,$6,$7,$8,$9,$2,$3,0*
0 Add four circle primitives for the rounded corners*
1,1,$1+$1,$2,$3*
1,1,$1+$1,$4,$5*
1,1,$1+$1,$6,$7*
1,1,$1+$1,$8,$9*
0 Add four rect primitives between the rounded corners*
20,1,$1+$1,$2,$3,$4,$5,0*
20,1,$1+$1,$4,$5,$6,$7,0*
20,1,$1+$1,$6,$7,$8,$9,0*
20,1,$1+$1,$8,$9,$2,$3,0*%
G04 Aperture macros list end*
%TA.AperFunction,SMDPad,CuDef*%
%ADD10RoundRect,0.237500X-0.237500X0.287500X-0.237500X-0.287500X0.237500X-0.287500X0.237500X0.287500X0*%
%TD*%
%TA.AperFunction,ComponentPad*%
%ADD11C,2.000000*%
%TD*%
%TA.AperFunction,SMDPad,CuDef*%
%ADD12RoundRect,0.225000X-0.225000X-0.250000X0.225000X-0.250000X0.225000X0.250000X-0.225000X0.250000X0*%
%TD*%
%TA.AperFunction,ComponentPad*%
%ADD13RoundRect,0.250000X-0.600000X-0.725000X0.600000X-0.725000X0.600000X0.725000X-0.600000X0.725000X0*%
%TD*%
%TA.AperFunction,ComponentPad*%
%ADD14O,1.700000X1.950000*%
%TD*%
%TA.AperFunction,ComponentPad*%
%ADD15RoundRect,0.250000X0.620000X0.845000X-0.620000X0.845000X-0.620000X-0.845000X0.620000X-0.845000X0*%
%TD*%
%TA.AperFunction,ComponentPad*%
%ADD16O,1.740000X2.190000*%
%TD*%
%TA.AperFunction,SMDPad,CuDef*%
%ADD17RoundRect,0.250000X-1.050000X-0.550000X1.050000X-0.550000X1.050000X0.550000X-1.050000X0.550000X0*%
%TD*%
%TA.AperFunction,SMDPad,CuDef*%
%ADD18R,2.000000X0.500000*%
%TD*%
%TA.AperFunction,SMDPad,CuDef*%
%ADD19R,1.700000X2.000000*%
%TD*%
%TA.AperFunction,ComponentPad*%
%ADD20R,1.700000X1.700000*%
%TD*%
%TA.AperFunction,ComponentPad*%
%ADD21C,1.700000*%
%TD*%
%TA.AperFunction,SMDPad,CuDef*%
%ADD22RoundRect,0.200000X0.275000X-0.200000X0.275000X0.200000X-0.275000X0.200000X-0.275000X-0.200000X0*%
%TD*%
%TA.AperFunction,ComponentPad*%
%ADD23C,12.700000*%
%TD*%
%TA.AperFunction,SMDPad,CuDef*%
%ADD24R,1.000000X0.750000*%
%TD*%
%TA.AperFunction,SMDPad,CuDef*%
%ADD25RoundRect,0.375000X0.625000X0.375000X-0.625000X0.375000X-0.625000X-0.375000X0.625000X-0.375000X0*%
%TD*%
%TA.AperFunction,SMDPad,CuDef*%
%ADD26RoundRect,0.500000X0.500000X1.400000X-0.500000X1.400000X-0.500000X-1.400000X0.500000X-1.400000X0*%
%TD*%
%TA.AperFunction,ComponentPad*%
%ADD27RoundRect,0.250000X-1.550000X0.650000X-1.550000X-0.650000X1.550000X-0.650000X1.550000X0.650000X0*%
%TD*%
%TA.AperFunction,ComponentPad*%
%ADD28O,3.600000X1.800000*%
%TD*%
%TA.AperFunction,SMDPad,CuDef*%
%ADD29RoundRect,0.150000X-0.150000X0.825000X-0.150000X-0.825000X0.150000X-0.825000X0.150000X0.825000X0*%
%TD*%
%TA.AperFunction,ComponentPad*%
%ADD30R,6.600000X3.300000*%
%TD*%
%TA.AperFunction,ComponentPad*%
%ADD31O,6.600000X3.300000*%
%TD*%
%TA.AperFunction,ComponentPad*%
%ADD32C,1.600000*%
%TD*%
%TA.AperFunction,ComponentPad*%
%ADD33RoundRect,0.250000X-1.050000X1.050000X-1.050000X-1.050000X1.050000X-1.050000X1.050000X1.050000X0*%
%TD*%
%TA.AperFunction,ComponentPad*%
%ADD34C,2.600000*%
%TD*%
%TA.AperFunction,SMDPad,CuDef*%
%ADD35RoundRect,0.225000X-0.250000X0.225000X-0.250000X-0.225000X0.250000X-0.225000X0.250000X0.225000X0*%
%TD*%
%TA.AperFunction,SMDPad,CuDef*%
%ADD36RoundRect,0.200000X-0.200000X-0.275000X0.200000X-0.275000X0.200000X0.275000X-0.200000X0.275000X0*%
%TD*%
%TA.AperFunction,SMDPad,CuDef*%
%ADD37RoundRect,0.225000X0.225000X0.250000X-0.225000X0.250000X-0.225000X-0.250000X0.225000X-0.250000X0*%
%TD*%
%TA.AperFunction,SMDPad,CuDef*%
%ADD38R,0.850000X2.350000*%
%TD*%
%TA.AperFunction,ComponentPad*%
%ADD39R,1.800000X1.800000*%
%TD*%
%TA.AperFunction,ComponentPad*%
%ADD40C,1.800000*%
%TD*%
%TA.AperFunction,SMDPad,CuDef*%
%ADD41RoundRect,0.225000X0.250000X-0.225000X0.250000X0.225000X-0.250000X0.225000X-0.250000X-0.225000X0*%
%TD*%
%TA.AperFunction,ViaPad*%
%ADD42C,0.600000*%
%TD*%
%TA.AperFunction,Conductor*%
%ADD43C,0.406400*%
%TD*%
%TA.AperFunction,Conductor*%
%ADD44C,0.355600*%
%TD*%
G04 APERTURE END LIST*
D10*
%TO.P,D2,1,K*%
%TO.N,/ESP Programadora/Rx*%
X95161200Y-70679000D03*
%TO.P,D2,2,A*%
%TO.N,Net-(D2-A)*%
X95161200Y-72429000D03*
%TD*%
D11*
%TO.P,SW6,1,1*%
%TO.N,/Interfaz HMI/Matrix_4*%
X142300000Y-35800000D03*
X148800000Y-35800000D03*
%TO.P,SW6,2,2*%
%TO.N,/Interfaz HMI/Matrix_1*%
X142300000Y-40300000D03*
X148800000Y-40300000D03*
%TD*%
D12*
%TO.P,C4,1*%
%TO.N,GND*%
X82282800Y-67134400D03*
%TO.P,C4,2*%
%TO.N,Net-(U1-V3)*%
X83832800Y-67134400D03*
%TD*%
D13*
%TO.P,Micro_Pwr1,1,Pin_1*%
%TO.N,/Interfaz de conexi\u00F3n/Gnd_Cnv*%
X103635800Y-92532200D03*
D14*
%TO.P,Micro_Pwr1,2,Pin_2*%
%TO.N,/Interfaz de conexi\u00F3n/12V_Cnv*%
X106135800Y-92532200D03*
%TO.P,Micro_Pwr1,3,Pin_3*%
%TO.N,/Interfaz de conexi\u00F3n/Gnd_Cnv*%
X108635800Y-92532200D03*
%TD*%
D11*
%TO.P,SW4,1,1*%
%TO.N,/Interfaz HMI/Matrix_4*%
X124814400Y-43318400D03*
X131314400Y-43318400D03*
%TO.P,SW4,2,2*%
%TO.N,/Interfaz HMI/Matrix_2*%
X124814400Y-47818400D03*
X131314400Y-47818400D03*
%TD*%
D15*
%TO.P,Inv_Pwr1,1,Pin_1*%
%TO.N,/Interfaz de conexi\u00F3n/12V_Cnv*%
X90788000Y-84455000D03*
D16*
%TO.P,Inv_Pwr1,2,Pin_2*%
%TO.N,/Interfaz de conexi\u00F3n/Gnd_Cnv*%
X88248000Y-84455000D03*
%TD*%
D17*
%TO.P,C5,1*%
%TO.N,+3.3V*%
X103470800Y-75008400D03*
%TO.P,C5,2*%
%TO.N,GND*%
X107070800Y-75008400D03*
%TD*%
D18*
%TO.P,J2,1,VBUS*%
%TO.N,+5V*%
X78100000Y-69700000D03*
%TO.P,J2,2,D-*%
%TO.N,Net-(J2-D-)*%
X78100000Y-70500000D03*
%TO.P,J2,3,D+*%
%TO.N,Net-(J2-D+)*%
X78100000Y-71300000D03*
%TO.P,J2,4,ID*%
%TO.N,unconnected-(J2-ID-Pad4)*%
X78100000Y-72100000D03*
%TO.P,J2,5,GND*%
%TO.N,GND*%
X78100000Y-72900000D03*
D19*
%TO.P,J2,6,Shield*%
X78000000Y-66850000D03*
X72550000Y-66850000D03*
X78000000Y-75750000D03*
X72550000Y-75750000D03*
%TD*%
D20*
%TO.P,J1,1,Pin_1*%
%TO.N,/Interfaz HMI/Matrix_0*%
X136040000Y-52578800D03*
D21*
%TO.P,J1,2,Pin_2*%
%TO.N,/Interfaz HMI/Matrix_1*%
X133500000Y-52578800D03*
%TO.P,J1,3,Pin_3*%
%TO.N,/Interfaz HMI/Matrix_2*%
X130960000Y-52578800D03*
%TO.P,J1,4,Pin_4*%
%TO.N,/Interfaz HMI/Matrix_3*%
X128420000Y-52578800D03*
%TO.P,J1,5,Pin_5*%
%TO.N,/Interfaz HMI/Matrix_4*%
X125880000Y-52578800D03*
%TO.P,J1,6,Pin_6*%
%TO.N,/Interfaz HMI/Matrix_5*%
X123340000Y-52578800D03*
%TD*%
D22*
%TO.P,R3,1*%
%TO.N,+3.3V*%
X97091600Y-76189000D03*
%TO.P,R3,2*%
%TO.N,Net-(D1-A)*%
X97091600Y-74539000D03*
%TD*%
D23*
%TO.P,Pw_In-1,1,Pin_1*%
%TO.N,unconnected-(Pw_In-1-Pin_1-Pad1)*%
X127850000Y-124802000D03*
%TO.P,Pw_In-1,2,Pin_2*%
%TO.N,unconnected-(Pw_In-1-Pin_2-Pad2)*%
X145122000Y-124802000D03*
%TD*%
D24*
%TO.P,SW10,1,1*%
%TO.N,GND*%
X112887600Y-64040200D03*
%TO.P,SW10,2,2*%
X118887600Y-64040200D03*
%TO.P,SW10,3,K*%
%TO.N,Net-(SW10-A)*%
X112887600Y-67790200D03*
%TO.P,SW10,4,A*%
X118887600Y-67790200D03*
%TD*%
D22*
%TO.P,R4,1*%
%TO.N,+3.3V*%
X95161200Y-76189000D03*
%TO.P,R4,2*%
%TO.N,Net-(D2-A)*%
X95161200Y-74539000D03*
%TD*%
D25*
%TO.P,U2,1,GND*%
%TO.N,GND*%
X107100000Y-71110800D03*
%TO.P,U2,2,VO*%
%TO.N,+3.3V*%
X107100000Y-68810800D03*
D26*
X100800000Y-68810800D03*
D25*
%TO.P,U2,3,VI*%
%TO.N,+5V*%
X107100000Y-66510800D03*
%TD*%
D27*
%TO.P,Motor_Out1,1,Pin_1*%
%TO.N,Net-(Motor_Out1-Pin_1)*%
X118833000Y-84035000D03*
D28*
%TO.P,Motor_Out1,2,Pin_2*%
%TO.N,Net-(Motor_Out1-Pin_2)*%
X118833000Y-89115000D03*
%TO.P,Motor_Out1,3,Pin_3*%
%TO.N,Net-(Motor_Out1-Pin_3)*%
X118833000Y-94195000D03*
%TD*%
D29*
%TO.P,U1,1,GND*%
%TO.N,GND*%
X92341800Y-69383800D03*
%TO.P,U1,2,TXD*%
%TO.N,/ESP Programadora/Tx*%
X91071800Y-69383800D03*
%TO.P,U1,3,RXD*%
%TO.N,/ESP Programadora/Rx*%
X89801800Y-69383800D03*
%TO.P,U1,4,V3*%
%TO.N,Net-(U1-V3)*%
X88531800Y-69383800D03*
%TO.P,U1,5,UD+*%
%TO.N,Net-(J2-D+)*%
X87261800Y-69383800D03*
%TO.P,U1,6,UD-*%
%TO.N,Net-(J2-D-)*%
X85991800Y-69383800D03*
%TO.P,U1,7,NC*%
%TO.N,unconnected-(U1-NC-Pad7)*%
X84721800Y-69383800D03*
%TO.P,U1,8,NC*%
%TO.N,unconnected-(U1-NC-Pad8)*%
X83451800Y-69383800D03*
%TO.P,U1,9,~{CTS}*%
%TO.N,unconnected-(U1-~{CTS}-Pad9)*%
X83451800Y-74333800D03*
%TO.P,U1,10,~{DSR}*%
%TO.N,unconnected-(U1-~{DSR}-Pad10)*%
X84721800Y-74333800D03*
%TO.P,U1,11,~{RI}*%
%TO.N,unconnected-(U1-~{RI}-Pad11)*%
X85991800Y-74333800D03*
%TO.P,U1,12,~{DCD}*%
%TO.N,unconnected-(U1-~{DCD}-Pad12)*%
X87261800Y-74333800D03*
%TO.P,U1,13,~{DTR}*%
%TO.N,unconnected-(U1-~{DTR}-Pad13)*%
X88531800Y-74333800D03*
%TO.P,U1,14,~{RTS}*%
%TO.N,unconnected-(U1-~{RTS}-Pad14)*%
X89801800Y-74333800D03*
%TO.P,U1,15,R232*%
%TO.N,unconnected-(U1-R232-Pad15)*%
X91071800Y-74333800D03*
%TO.P,U1,16,VCC*%
%TO.N,+3.3V*%
X92341800Y-74333800D03*
%TD*%
D30*
%TO.P,Motor_Pwr1,1,Pin_1*%
%TO.N,Net-(Motor_Out1-Pin_3)*%
X136779000Y-106393000D03*
D31*
%TO.P,Motor_Pwr1,2,Pin_2*%
%TO.N,Net-(Motor_Out1-Pin_2)*%
X136779000Y-96393000D03*
%TO.P,Motor_Pwr1,3,Pin_3*%
%TO.N,Net-(Motor_Out1-Pin_1)*%
X136779000Y-86393000D03*
%TD*%
D32*
%TO.P,R5,1*%
%TO.N,Net-(D3-K)*%
X98386000Y-93179000D03*
%TO.P,R5,2*%
%TO.N,/Interfaz de conexi\u00F3n/Gnd_Cnv*%
X88226000Y-93179000D03*
%TD*%
D15*
%TO.P,Cnv_Pwr1,1,Pin_1*%
%TO.N,/Interfaz de conexi\u00F3n/12V_Cnv*%
X100037000Y-84416000D03*
D16*
%TO.P,Cnv_Pwr1,2,Pin_2*%
%TO.N,/Interfaz de conexi\u00F3n/Gnd_Cnv*%
X97497000Y-84416000D03*
%TD*%
D24*
%TO.P,SW9,1,1*%
%TO.N,GND*%
X118887600Y-75715000D03*
%TO.P,SW9,2,2*%
X112887600Y-75715000D03*
%TO.P,SW9,3,K*%
%TO.N,Net-(SW9-A)*%
X118887600Y-71965000D03*
%TO.P,SW9,4,A*%
X112887600Y-71965000D03*
%TD*%
D15*
%TO.P,Cooler1,1,Pin_1*%
%TO.N,/Interfaz de conexi\u00F3n/12V_Cnv*%
X108800000Y-84455000D03*
D16*
%TO.P,Cooler1,2,Pin_2*%
%TO.N,/Interfaz de conexi\u00F3n/Gnd_Cnv*%
X106260000Y-84455000D03*
%TD*%
D33*
%TO.P,12V_Pwr1,1,Pin_1*%
%TO.N,/Interfaz de conexi\u00F3n/12V_Cnv*%
X94061500Y-102402000D03*
D34*
%TO.P,12V_Pwr1,2,Pin_2*%
%TO.N,/Interfaz de conexi\u00F3n/Gnd_Cnv*%
X94061500Y-107402000D03*
%TD*%
D35*
%TO.P,C6,1*%
%TO.N,+3.3V*%
X109740800Y-69546800D03*
%TO.P,C6,2*%
%TO.N,GND*%
X109740800Y-71096800D03*
%TD*%
D11*
%TO.P,SW8,1,1*%
%TO.N,/Interfaz HMI/Matrix_4*%
X142300000Y-50851600D03*
X148800000Y-50851600D03*
%TO.P,SW8,2,2*%
%TO.N,/Interfaz HMI/Matrix_0*%
X142300000Y-55351600D03*
X148800000Y-55351600D03*
%TD*%
%TO.P,SW3,1,1*%
%TO.N,/Interfaz HMI/Matrix_5*%
X101300000Y-47818400D03*
X94800000Y-47818400D03*
%TO.P,SW3,2,2*%
%TO.N,/Interfaz HMI/Matrix_2*%
X101300000Y-43318400D03*
X94800000Y-43318400D03*
%TD*%
D23*
%TO.P,Pw_In+1,1,Pin_1*%
%TO.N,unconnected-(Pw_In+1-Pin_1-Pad1)*%
X93687000Y-124802000D03*
%TO.P,Pw_In+1,2,Pin_2*%
%TO.N,unconnected-(Pw_In+1-Pin_2-Pad2)*%
X110959000Y-124802000D03*
%TD*%
D36*
%TO.P,R1,1*%
%TO.N,/ESP Programadora/ENABLE*%
X95262800Y-65559600D03*
%TO.P,R1,2*%
%TO.N,Net-(SW9-A)*%
X96912800Y-65559600D03*
%TD*%
D11*
%TO.P,SW7,1,1*%
%TO.N,/Interfaz HMI/Matrix_5*%
X77300000Y-50851600D03*
X83800000Y-50851600D03*
%TO.P,SW7,2,2*%
%TO.N,/Interfaz HMI/Matrix_0*%
X77300000Y-55351600D03*
X83800000Y-55351600D03*
%TD*%
D36*
%TO.P,R2,1*%
%TO.N,/ESP Programadora/BOOT_prog*%
X95262800Y-63832400D03*
%TO.P,R2,2*%
%TO.N,Net-(SW10-A)*%
X96912800Y-63832400D03*
%TD*%
D11*
%TO.P,SW2,1,1*%
%TO.N,/Interfaz HMI/Matrix_4*%
X116277600Y-40300000D03*
X109777600Y-40300000D03*
%TO.P,SW2,2,2*%
%TO.N,/Interfaz HMI/Matrix_3*%
X116277600Y-35800000D03*
X109777600Y-35800000D03*
%TD*%
%TO.P,SW1,1,1*%
%TO.N,/Interfaz HMI/Matrix_5*%
X83800000Y-40300000D03*
X77300000Y-40300000D03*
%TO.P,SW1,2,2*%
%TO.N,/Interfaz HMI/Matrix_3*%
X83800000Y-35800000D03*
X77300000Y-35800000D03*
%TD*%
D37*
%TO.P,C2,1*%
%TO.N,+3.3V*%
X92316400Y-76481600D03*
%TO.P,C2,2*%
%TO.N,GND*%
X90766400Y-76481600D03*
%TD*%
D38*
%TO.P,J3,1,Pin_1*%
%TO.N,GND*%
X91534600Y-64288600D03*
%TO.P,J3,2,Pin_2*%
%TO.N,/ESP Programadora/BOOT_prog*%
X89534600Y-61938600D03*
%TO.P,J3,3,Pin_3*%
%TO.N,/ESP Programadora/ENABLE*%
X87534600Y-64288600D03*
%TO.P,J3,4,Pin_4*%
%TO.N,/ESP Programadora/Rx*%
X85534600Y-61938600D03*
%TO.P,J3,5,Pin_5*%
%TO.N,/ESP Programadora/Tx*%
X83534600Y-64288600D03*
%TD*%
D39*
%TO.P,D3,1,K*%
%TO.N,Net-(D3-K)*%
X93980000Y-112649000D03*
D40*
%TO.P,D3,2,A*%
%TO.N,/Interfaz de conexi\u00F3n/12V_Cnv*%
X91440000Y-112649000D03*
%TD*%
D10*
%TO.P,D1,1,K*%
%TO.N,/ESP Programadora/Tx*%
X97091600Y-70679000D03*
%TO.P,D1,2,A*%
%TO.N,Net-(D1-A)*%
X97091600Y-72429000D03*
%TD*%
D17*
%TO.P,C3,1*%
%TO.N,+5V*%
X103521600Y-62613200D03*
%TO.P,C3,2*%
%TO.N,GND*%
X107121600Y-62613200D03*
%TD*%
D11*
%TO.P,SW5,1,1*%
%TO.N,/Interfaz HMI/Matrix_5*%
X109676000Y-50836800D03*
X116176000Y-50836800D03*
%TO.P,SW5,2,2*%
%TO.N,/Interfaz HMI/Matrix_1*%
X109676000Y-55336800D03*
X116176000Y-55336800D03*
%TD*%
D41*
%TO.P,C1,1*%
%TO.N,+5V*%
X109842400Y-66524800D03*
%TO.P,C1,2*%
%TO.N,GND*%
X109842400Y-64974800D03*
%TD*%
D42*
%TO.N,GND*%
X89471600Y-76532400D03*
X104813200Y-71960400D03*
X92316400Y-67286800D03*
X80378400Y-75750000D03*
X109842400Y-63426000D03*
X112890400Y-62714800D03*
X80480000Y-67134400D03*
%TD*%
D43*
%TO.N,/Interfaz HMI/Matrix_4*%
X126730000Y-45234000D02*
X124814400Y-43318400D01*
X125880000Y-52578800D02*
X125880000Y-51664400D01*
X125880000Y-51664400D02*
X126730000Y-50814400D01*
X126730000Y-50814400D02*
X126730000Y-45234000D01*
%TO.N,/Interfaz HMI/Matrix_3*%
X128420000Y-52578800D02*
X128420000Y-42063200D01*
X122156800Y-35800000D02*
X116277600Y-35800000D01*
X128420000Y-42063200D02*
X122156800Y-35800000D01*
%TO.N,+5V*%
X109828400Y-66510800D02*
X109842400Y-66524800D01*
X110756800Y-68642800D02*
X110756800Y-76278400D01*
X109842400Y-66524800D02*
X109842400Y-67728400D01*
X108623200Y-78412000D02*
X78003600Y-78412000D01*
X107100000Y-66510800D02*
X109828400Y-66510800D01*
X76695800Y-69845800D02*
X76841600Y-69700000D01*
X109842400Y-67728400D02*
X110756800Y-68642800D01*
X76695800Y-77104200D02*
X76695800Y-69845800D01*
X76841600Y-69700000D02*
X78100000Y-69700000D01*
X103521600Y-65507310D02*
X104525090Y-66510800D01*
X110756800Y-76278400D02*
X108623200Y-78412000D01*
X103521600Y-62613200D02*
X103521600Y-65507310D01*
X104525090Y-66510800D02*
X107100000Y-66510800D01*
X78003600Y-78412000D02*
X76695800Y-77104200D01*
%TO.N,GND*%
X82105600Y-76481600D02*
X90766400Y-76481600D01*
X118887600Y-75715000D02*
X119600600Y-75715000D01*
X112887600Y-64040200D02*
X112887600Y-62717600D01*
X109842400Y-64974800D02*
X109842400Y-63426000D01*
X107100000Y-74979200D02*
X107070800Y-75008400D01*
X119448200Y-64040200D02*
X118887600Y-64040200D01*
X120002400Y-75313200D02*
X120002400Y-64594400D01*
X78000000Y-75750000D02*
X80378400Y-75750000D01*
X82282800Y-67134400D02*
X80480000Y-67134400D01*
X107070800Y-75008400D02*
X107070800Y-73100400D01*
X105981600Y-72011200D02*
X104864000Y-72011200D01*
D44*
X92341800Y-69383800D02*
X92316400Y-69358400D01*
D43*
X78000000Y-66850000D02*
X72550000Y-66850000D01*
D44*
X91534600Y-66454200D02*
X92316400Y-67236000D01*
D43*
X90766400Y-77166800D02*
X90766400Y-76481600D01*
X107070800Y-73100400D02*
X105981600Y-72011200D01*
X78284400Y-67134400D02*
X78000000Y-66850000D01*
X91148000Y-77548400D02*
X90766400Y-77166800D01*
X112887600Y-62717600D02*
X112890400Y-62714800D01*
X104864000Y-72011200D02*
X104813200Y-71960400D01*
X81374000Y-75750000D02*
X81546800Y-75922800D01*
X112887600Y-64040200D02*
X118887600Y-64040200D01*
D44*
X91534600Y-64288600D02*
X91534600Y-66454200D01*
D43*
X80378400Y-75750000D02*
X81374000Y-75750000D01*
D44*
X92316400Y-69358400D02*
X92316400Y-67286800D01*
D43*
X107070800Y-75008400D02*
X104530800Y-77548400D01*
X78100000Y-75650000D02*
X78000000Y-75750000D01*
X78100000Y-72900000D02*
X78100000Y-75650000D01*
X119600600Y-75715000D02*
X120002400Y-75313200D01*
X81546800Y-75922800D02*
X82105600Y-76481600D01*
X109842400Y-63426000D02*
X109842400Y-63273600D01*
X118887600Y-75715000D02*
X112887600Y-75715000D01*
D44*
X92316400Y-67286800D02*
X92316400Y-67236000D01*
D43*
X107100000Y-71110800D02*
X107100000Y-74979200D01*
X109182000Y-62613200D02*
X107121600Y-62613200D01*
X109740800Y-71096800D02*
X107114000Y-71096800D01*
X104530800Y-77548400D02*
X91148000Y-77548400D01*
X72550000Y-75750000D02*
X72550000Y-66850000D01*
X109842400Y-63273600D02*
X109182000Y-62613200D01*
X120002400Y-64594400D02*
X119448200Y-64040200D01*
X107114000Y-71096800D02*
X107100000Y-71110800D01*
X80480000Y-67134400D02*
X78284400Y-67134400D01*
%TO.N,+3.3V*%
X100800000Y-68810800D02*
X104711600Y-68810800D01*
X98298600Y-76189000D02*
X98869600Y-75618000D01*
X95161200Y-76189000D02*
X94031400Y-76189000D01*
X104711600Y-68810800D02*
X103470800Y-70051600D01*
X99530000Y-68810800D02*
X98869600Y-69471200D01*
X98920400Y-75008400D02*
X98869600Y-75059200D01*
X92316400Y-76481600D02*
X92316400Y-74359200D01*
X103470800Y-75008400D02*
X98920400Y-75008400D01*
D44*
X92316400Y-74359200D02*
X92341800Y-74333800D01*
D43*
X98869600Y-75059200D02*
X98869600Y-75618000D01*
X97091600Y-76189000D02*
X98298600Y-76189000D01*
X108318400Y-68810800D02*
X109054400Y-69546800D01*
X93738800Y-76481600D02*
X92316400Y-76481600D01*
X109054400Y-69546800D02*
X109740800Y-69546800D01*
X97091600Y-76189000D02*
X95161200Y-76189000D01*
X103470800Y-70051600D02*
X103470800Y-75008400D01*
X107100000Y-68810800D02*
X108318400Y-68810800D01*
X107100000Y-68810800D02*
X104711600Y-68810800D01*
X100800000Y-68810800D02*
X99530000Y-68810800D01*
X94031400Y-76189000D02*
X93738800Y-76481600D01*
X98869600Y-69471200D02*
X98869600Y-75059200D01*
D44*
%TO.N,Net-(U1-V3)*%
X88216500Y-67860500D02*
X85574900Y-67860500D01*
X88531800Y-68175800D02*
X88216500Y-67860500D01*
X84848800Y-67134400D02*
X83832800Y-67134400D01*
X88531800Y-69383800D02*
X88531800Y-68175800D01*
X85574900Y-67860500D02*
X84848800Y-67134400D01*
%TO.N,/ESP Programadora/Tx*%
X86474400Y-60682800D02*
X86474400Y-65586000D01*
X96583600Y-69522000D02*
X97091600Y-70030000D01*
X91071800Y-69383800D02*
X91071800Y-70358799D01*
X93930592Y-69522000D02*
X96583600Y-69522000D01*
X89928800Y-66067600D02*
X91046400Y-67185200D01*
X86956000Y-66067600D02*
X89928800Y-66067600D01*
X83534600Y-64288600D02*
X83534600Y-60650800D01*
X83534600Y-60650800D02*
X83959800Y-60225600D01*
X92714992Y-70737600D02*
X93930592Y-69522000D01*
X83959800Y-60225600D02*
X86017200Y-60225600D01*
X91046400Y-67185200D02*
X91046400Y-69358400D01*
X97091600Y-70030000D02*
X97091600Y-70679000D01*
X86474400Y-65586000D02*
X86956000Y-66067600D01*
X91046400Y-69358400D02*
X91071800Y-69383800D01*
X97091600Y-70679000D02*
X97091600Y-70999600D01*
X91450601Y-70737600D02*
X92714992Y-70737600D01*
X97091600Y-70999600D02*
X97080200Y-71011000D01*
X91071800Y-70358799D02*
X91450601Y-70737600D01*
X86017200Y-60225600D02*
X86474400Y-60682800D01*
%TO.N,Net-(D1-A)*%
X97091600Y-74539000D02*
X97091600Y-72429000D01*
%TO.N,/ESP Programadora/Rx*%
X89776400Y-67540800D02*
X89268400Y-67032800D01*
X89268400Y-67032800D02*
X86372800Y-67032800D01*
X85534600Y-66194600D02*
X85534600Y-61938600D01*
X95161200Y-70679000D02*
X94309000Y-70679000D01*
X94309000Y-70679000D02*
X93383200Y-71604800D01*
X89776400Y-69358400D02*
X89776400Y-67540800D01*
X93383200Y-71604800D02*
X90538400Y-71604800D01*
X86372800Y-67032800D02*
X85534600Y-66194600D01*
X90538400Y-71604800D02*
X89801800Y-70868200D01*
X89801800Y-70868200D02*
X89801800Y-69383800D01*
X89801800Y-69383800D02*
X89776400Y-69358400D01*
%TO.N,Net-(D2-A)*%
X95161200Y-74539000D02*
X95161200Y-72429000D01*
%TO.N,Net-(J2-D+)*%
X78100000Y-71300000D02*
X80327600Y-71300000D01*
X81394400Y-72366800D02*
X86474400Y-72366800D01*
X86474400Y-72366800D02*
X87236400Y-71604800D01*
X87236400Y-71604800D02*
X87236400Y-69409200D01*
X80327600Y-71300000D02*
X81394400Y-72366800D01*
X87236400Y-69409200D02*
X87261800Y-69383800D01*
%TO.N,Net-(J2-D-)*%
X85991800Y-70969800D02*
X85991800Y-69383800D01*
X81088200Y-70485800D02*
X82156400Y-71554000D01*
X82156400Y-71554000D02*
X85407600Y-71554000D01*
X78100000Y-70500000D02*
X78114200Y-70485800D01*
X78114200Y-70485800D02*
X81088200Y-70485800D01*
X85407600Y-71554000D02*
X85991800Y-70969800D01*
%TO.N,/ESP Programadora/BOOT_prog*%
X93840400Y-62460800D02*
X93840400Y-63273600D01*
X89534600Y-61938600D02*
X93318200Y-61938600D01*
X94399200Y-63832400D02*
X95262800Y-63832400D01*
X93840400Y-63273600D02*
X94399200Y-63832400D01*
X93318200Y-61938600D02*
X93840400Y-62460800D01*
%TO.N,/ESP Programadora/ENABLE*%
X92824400Y-65000800D02*
X93383200Y-65559600D01*
X92824400Y-63222800D02*
X92824400Y-65000800D01*
X89929800Y-64288600D02*
X90487600Y-63730800D01*
X90487600Y-62938000D02*
X90690800Y-62734800D01*
X92336400Y-62734800D02*
X92824400Y-63222800D01*
X90690800Y-62734800D02*
X92336400Y-62734800D01*
X90487600Y-63730800D02*
X90487600Y-62938000D01*
X93383200Y-65559600D02*
X95262800Y-65559600D01*
X87534600Y-64288600D02*
X89929800Y-64288600D01*
D43*
%TO.N,Net-(SW9-A)*%
X99733200Y-62347010D02*
X100889410Y-61190800D01*
X99733200Y-64543600D02*
X99733200Y-62347010D01*
X111569600Y-70647000D02*
X112887600Y-71965000D01*
X111569600Y-66931200D02*
X111569600Y-70647000D01*
X98717200Y-65559600D02*
X99733200Y-64543600D01*
X110909200Y-63019600D02*
X110909200Y-66270800D01*
X109080400Y-61190800D02*
X110909200Y-63019600D01*
X96912800Y-65559600D02*
X98717200Y-65559600D01*
X110909200Y-66270800D02*
X111569600Y-66931200D01*
X118887600Y-71965000D02*
X112887600Y-71965000D01*
X100889410Y-61190800D02*
X109080400Y-61190800D01*
%TO.N,Net-(SW10-A)*%
X99733200Y-60428800D02*
X109791600Y-60428800D01*
X98463200Y-63222800D02*
X98463200Y-61698800D01*
X112887600Y-67790200D02*
X118887600Y-67790200D01*
X111671200Y-62308400D02*
X111671200Y-65356400D01*
X98463200Y-61698800D02*
X99733200Y-60428800D01*
X111671200Y-65356400D02*
X112887600Y-66572800D01*
X96912800Y-63832400D02*
X97853600Y-63832400D01*
X97853600Y-63832400D02*
X98463200Y-63222800D01*
X112887600Y-66572800D02*
X112887600Y-67790200D01*
X109791600Y-60428800D02*
X111671200Y-62308400D01*
%TD*%
%TA.AperFunction,Conductor*%
%TO.N,GND*%
G36*
X96085765Y-33259854D02*
G01*
X96166547Y-33313830D01*
X96220523Y-33394612D01*
X96239477Y-33489900D01*
X96220523Y-33585188D01*
X96166547Y-33665970D01*
X96083225Y-33749291D01*
X96083218Y-33749299D01*
X95894107Y-33986436D01*
X95732741Y-34243248D01*
X95732728Y-34243272D01*
X95601129Y-34516540D01*
X95500955Y-34802825D01*
X95433461Y-35098531D01*
X95433459Y-35098542D01*
X95399500Y-35399928D01*
X95399500Y-35703271D01*
X95433459Y-36004657D01*
X95433460Y-36004663D01*
X95500954Y-36300372D01*
X95500955Y-36300374D01*
X95601129Y-36586659D01*
X95601132Y-36586665D01*
X95732735Y-36859941D01*
X95732739Y-36859947D01*
X95732741Y-36859951D01*
X95868390Y-37075835D01*
X95894108Y-37116764D01*
X96083221Y-37353904D01*
X96297696Y-37568379D01*
X96534836Y-37757492D01*
X96791659Y-37918865D01*
X97064935Y-38050468D01*
X97064938Y-38050469D01*
X97064940Y-38050470D01*
X97124650Y-38071363D01*
X97351228Y-38150646D01*
X97646937Y-38218140D01*
X97782400Y-38233402D01*
X97948328Y-38252099D01*
X97948343Y-38252100D01*
X98251657Y-38252100D01*
X98251671Y-38252099D01*
X98390507Y-38236455D01*
X98553063Y-38218140D01*
X98848772Y-38150646D01*
X99135065Y-38050468D01*
X99408341Y-37918865D01*
X99665164Y-37757492D01*
X99902304Y-37568379D01*
X100116779Y-37353904D01*
X100305892Y-37116764D01*
X100467265Y-36859941D01*
X100598868Y-36586665D01*
X100699046Y-36300372D01*
X100766540Y-36004663D01*
X100784855Y-35842107D01*
X100800499Y-35703271D01*
X100800500Y-35703256D01*
X100800500Y-35668880D01*
X107777100Y-35668880D01*
X107777100Y-35931119D01*
X107811329Y-36191112D01*
X107879201Y-36444417D01*
X107979553Y-36686689D01*
X107979555Y-36686693D01*
X107979557Y-36686697D01*
X108075535Y-36852937D01*
X108110673Y-36913798D01*
X108110682Y-36913812D01*
X108270313Y-37121845D01*
X108270318Y-37121851D01*
X108455749Y-37307282D01*
X108455753Y-37307285D01*
X108455754Y-37307286D01*
X108663787Y-37466917D01*
X108663792Y-37466920D01*
X108663797Y-37466924D01*
X108890903Y-37598043D01*
X109133181Y-37698398D01*
X109386484Y-37766270D01*
X109646480Y-37800500D01*
X109908720Y-37800500D01*
X110168716Y-37766270D01*
X110422019Y-37698398D01*
X110664297Y-37598043D01*
X110891403Y-37466924D01*
X111099451Y-37307282D01*
X111284882Y-37121851D01*
X111444524Y-36913803D01*
X111575643Y-36686697D01*
X111675998Y-36444419D01*
X111743870Y-36191116D01*
X111778100Y-35931120D01*
X111778100Y-35668880D01*
X111743870Y-35408884D01*
X111675998Y-35155581D01*
X111575643Y-34913303D01*
X111444524Y-34686197D01*
X111444520Y-34686192D01*
X111444517Y-34686187D01*
X111284886Y-34478154D01*
X111284885Y-34478153D01*
X111284882Y-34478149D01*
X111099451Y-34292718D01*
X111099446Y-34292714D01*
X111099445Y-34292713D01*
X110891412Y-34133082D01*
X110891398Y-34133073D01*
X110708305Y-34027365D01*
X110664297Y-34001957D01*
X110664295Y-34001956D01*
X110664293Y-34001955D01*
X110664289Y-34001953D01*
X110422017Y-33901601D01*
X110312330Y-33872211D01*
X110168716Y-33833730D01*
X110168711Y-33833729D01*
X110168714Y-33833729D01*
X109908720Y-33799500D01*
X109646480Y-33799500D01*
X109386487Y-33833729D01*
X109133182Y-33901601D01*
X108890910Y-34001953D01*
X108890906Y-34001955D01*
X108663801Y-34133073D01*
X108663787Y-34133082D01*
X108455754Y-34292713D01*
X108270313Y-34478154D01*
X108110682Y-34686187D01*
X108110673Y-34686201D01*
X107979555Y-34913306D01*
X107979553Y-34913310D01*
X107879201Y-35155582D01*
X107811329Y-35408887D01*
X107777100Y-35668880D01*
X100800500Y-35668880D01*
X100800500Y-35399943D01*
X100800499Y-35399928D01*
X100772967Y-35155581D01*
X100766540Y-35098537D01*
X100699046Y-34802828D01*
X100598868Y-34516535D01*
X100467265Y-34243259D01*
X100305892Y-33986436D01*
X100116779Y-33749296D01*
X100033453Y-33665970D01*
X99979477Y-33585188D01*
X99960523Y-33489900D01*
X99979477Y-33394612D01*
X100033453Y-33313830D01*
X100114235Y-33259854D01*
X100209523Y-33240900D01*
X125990477Y-33240900D01*
X126085765Y-33259854D01*
X126166547Y-33313830D01*
X126220523Y-33394612D01*
X126239477Y-33489900D01*
X126220523Y-33585188D01*
X126166547Y-33665970D01*
X126083225Y-33749291D01*
X126083218Y-33749299D01*
X125894107Y-33986436D01*
X125732741Y-34243248D01*
X125732728Y-34243272D01*
X125601129Y-34516540D01*
X125500955Y-34802825D01*
X125433461Y-35098531D01*
X125433459Y-35098542D01*
X125399500Y-35399928D01*
X125399500Y-35703271D01*
X125433459Y-36004657D01*
X125433460Y-36004663D01*
X125500954Y-36300372D01*
X125500955Y-36300374D01*
X125601129Y-36586659D01*
X125601132Y-36586665D01*
X125732735Y-36859941D01*
X125732739Y-36859947D01*
X125732741Y-36859951D01*
X125894107Y-37116763D01*
X125957862Y-37196709D01*
X126002454Y-37283026D01*
X126010620Y-37379837D01*
X125981117Y-37472404D01*
X125918435Y-37546634D01*
X125832118Y-37591226D01*
X125735307Y-37599392D01*
X125642740Y-37569889D01*
X125587120Y-37528031D01*
X122940958Y-34881869D01*
X122832168Y-34802828D01*
X122787678Y-34770504D01*
X122784691Y-34768982D01*
X122618860Y-34684488D01*
X122438667Y-34625939D01*
X122438661Y-34625937D01*
X122251543Y-34596301D01*
X122251536Y-34596300D01*
X122251533Y-34596300D01*
X122251529Y-34596300D01*
X117998336Y-34596300D01*
X117903048Y-34577346D01*
X117822266Y-34523370D01*
X117800793Y-34498885D01*
X117784882Y-34478149D01*
X117599451Y-34292718D01*
X117599446Y-34292714D01*
X117599445Y-34292713D01*
X117391412Y-34133082D01*
X117391398Y-34133073D01*
X117208305Y-34027365D01*
X117164297Y-34001957D01*
X117164295Y-34001956D01*
X117164293Y-34001955D01*
X117164289Y-34001953D01*
X116922017Y-33901601D01*
X116812330Y-33872211D01*
X116668716Y-33833730D01*
X116668711Y-33833729D01*
X116668714Y-33833729D01*
X116408720Y-33799500D01*
X116146480Y-33799500D01*
X115886487Y-33833729D01*
X115633182Y-33901601D01*
X115390910Y-34001953D01*
X115390906Y-34001955D01*
X115163801Y-34133073D01*
X115163787Y-34133082D01*
X114955754Y-34292713D01*
X114770313Y-34478154D01*
X114610682Y-34686187D01*
X114610673Y-34686201D01*
X114479555Y-34913306D01*
X114479553Y-34913310D01*
X114379201Y-35155582D01*
X114311329Y-35408887D01*
X114277100Y-35668880D01*
X114277100Y-35931119D01*
X114311329Y-36191112D01*
X114379201Y-36444417D01*
X114479553Y-36686689D01*
X114479555Y-36686693D01*
X114479557Y-36686697D01*
X114575535Y-36852937D01*
X114610673Y-36913798D01*
X114610682Y-36913812D01*
X114770313Y-37121845D01*
X114770318Y-37121851D01*
X114955749Y-37307282D01*
X114955753Y-37307285D01*
X114955754Y-37307286D01*
X115163787Y-37466917D01*
X115163792Y-37466920D01*
X115163797Y-37466924D01*
X115390903Y-37598043D01*
X115633181Y-37698398D01*
X115886484Y-37766270D01*
X116146480Y-37800500D01*
X116408720Y-37800500D01*
X116668716Y-37766270D01*
X116922019Y-37698398D01*
X117164297Y-37598043D01*
X117391403Y-37466924D01*
X117599451Y-37307282D01*
X117784882Y-37121851D01*
X117800794Y-37101113D01*
X117873840Y-37037058D01*
X117965839Y-37005830D01*
X117998336Y-37003700D01*
X121555071Y-37003700D01*
X121650359Y-37022654D01*
X121731141Y-37076630D01*
X125642771Y-40988260D01*
X125696747Y-41069042D01*
X125715701Y-41164330D01*
X125696747Y-41259618D01*
X125642771Y-41340400D01*
X125561989Y-41394376D01*
X125466701Y-41413330D01*
X125402256Y-41404846D01*
X125363181Y-41394376D01*
X125205516Y-41352130D01*
X125205513Y-41352129D01*
X125205514Y-41352129D01*
X124945520Y-41317900D01*
X124683280Y-41317900D01*
X124423287Y-41352129D01*
X124169982Y-41420001D01*
X123927710Y-41520353D01*
X123927706Y-41520355D01*
X123700601Y-41651473D01*
X123700587Y-41651482D01*
X123492554Y-41811113D01*
X123307113Y-41996554D01*
X123147482Y-42204587D01*
X123147473Y-42204601D01*
X123016355Y-42431706D01*
X123016353Y-42431710D01*
X122916001Y-42673982D01*
X122848129Y-42927287D01*
X122813900Y-43187280D01*
X122813900Y-43449519D01*
X122848129Y-43709512D01*
X122916001Y-43962817D01*
X123016353Y-44205089D01*
X123016355Y-44205093D01*
X123147473Y-44432198D01*
X123147482Y-44432212D01*
X123307113Y-44640245D01*
X123307118Y-44640251D01*
X123492549Y-44825682D01*
X123492553Y-44825685D01*
X123492554Y-44825686D01*
X123700587Y-44985317D01*
X123700592Y-44985320D01*
X123700597Y-44985324D01*
X123927703Y-45116443D01*
X124169981Y-45216798D01*
X124423284Y-45284670D01*
X124683280Y-45318900D01*
X124945525Y-45318900D01*
X124964886Y-45316350D01*
X124971419Y-45315490D01*
X124987812Y-45316563D01*
X125003929Y-45313358D01*
X125035870Y-45319711D01*
X125068365Y-45321840D01*
X125083101Y-45329106D01*
X125099217Y-45332312D01*
X125126295Y-45350405D01*
X125155503Y-45364807D01*
X125179999Y-45386288D01*
X125193913Y-45400202D01*
X125247889Y-45480984D01*
X125266843Y-45576272D01*
X125247889Y-45671560D01*
X125193913Y-45752342D01*
X125113131Y-45806318D01*
X125017843Y-45825272D01*
X124985345Y-45823142D01*
X124945525Y-45817900D01*
X124945520Y-45817900D01*
X124683280Y-45817900D01*
X124423287Y-45852129D01*
X124169982Y-45920001D01*
X123927710Y-46020353D01*
X123927706Y-46020355D01*
X123700601Y-46151473D01*
X123700587Y-46151482D01*
X123492554Y-46311113D01*
X123307113Y-46496554D01*
X123147482Y-46704587D01*
X123147473Y-46704601D01*
X123016355Y-46931706D01*
X123016353Y-46931710D01*
X122916001Y-47173982D01*
X122848129Y-47427287D01*
X122813900Y-47687280D01*
X122813900Y-47949519D01*
X122848129Y-48209512D01*
X122916001Y-48462817D01*
X123016353Y-48705089D01*
X123016355Y-48705093D01*
X123147473Y-48932198D01*
X123147482Y-48932212D01*
X123307113Y-49140245D01*
X123307118Y-49140251D01*
X123492549Y-49325682D01*
X123492553Y-49325685D01*
X123492554Y-49325686D01*
X123700587Y-49485317D01*
X123700592Y-49485320D01*
X123700597Y-49485324D01*
X123927703Y-49616443D01*
X124169981Y-49716798D01*
X124423284Y-49784670D01*
X124683280Y-49818900D01*
X124945520Y-49818900D01*
X125205516Y-49784670D01*
X125212857Y-49782702D01*
X125245357Y-49780572D01*
X125277300Y-49774219D01*
X125293409Y-49777423D01*
X125309802Y-49776349D01*
X125340646Y-49786819D01*
X125372588Y-49793173D01*
X125386245Y-49802298D01*
X125401801Y-49807579D01*
X125426286Y-49829052D01*
X125453370Y-49847149D01*
X125462497Y-49860809D01*
X125474845Y-49871638D01*
X125489249Y-49900847D01*
X125507346Y-49927931D01*
X125510550Y-49944041D01*
X125517816Y-49958774D01*
X125526300Y-50023219D01*
X125526300Y-50212671D01*
X125507346Y-50307959D01*
X125453370Y-50388741D01*
X125453366Y-50388743D01*
X124961871Y-50880239D01*
X124961866Y-50880245D01*
X124867237Y-51010490D01*
X124817374Y-51061675D01*
X124761580Y-51104487D01*
X124674444Y-51147458D01*
X124577497Y-51153812D01*
X124485498Y-51122582D01*
X124458419Y-51104488D01*
X124371782Y-51038010D01*
X124370289Y-51036864D01*
X124337084Y-51017693D01*
X124160217Y-50915578D01*
X124160201Y-50915570D01*
X123936105Y-50822748D01*
X123936103Y-50822747D01*
X123936100Y-50822746D01*
X123936096Y-50822745D01*
X123936082Y-50822740D01*
X123701795Y-50759963D01*
X123701790Y-50759962D01*
X123461288Y-50728300D01*
X123218712Y-50728300D01*
X122978209Y-50759962D01*
X122978204Y-50759963D01*
X122743917Y-50822740D01*
X122743894Y-50822748D01*
X122519798Y-50915570D01*
X122519782Y-50915578D01*
X122309720Y-51036858D01*
X122309710Y-51036864D01*
X122117268Y-51184529D01*
X122117258Y-51184538D01*
X121945738Y-51356058D01*
X121945729Y-51356068D01*
X121798064Y-51548510D01*
X121798058Y-51548520D01*
X121676778Y-51758582D01*
X121676770Y-51758598D01*
X121583948Y-51982694D01*
X121583940Y-51982717D01*
X121521163Y-52217004D01*
X121521162Y-52217009D01*
X121489500Y-52457512D01*
X121489500Y-52700087D01*
X121521162Y-52940590D01*
X121521163Y-52940595D01*
X121583940Y-53174882D01*
X121583948Y-53174905D01*
X121676770Y-53399001D01*
X121676778Y-53399017D01*
X121798058Y-53609079D01*
X121798064Y-53609089D01*
X121945729Y-53801531D01*
X121945738Y-53801541D01*
X122117258Y-53973061D01*
X122117268Y-53973070D01*
X122197998Y-54035016D01*
X122309711Y-54120736D01*
X122353568Y-54146057D01*
X122519782Y-54242021D01*
X122519798Y-54242029D01*
X122659858Y-54300042D01*
X122743900Y-54334854D01*
X122743911Y-54334857D01*
X122743917Y-54334859D01*
X122847855Y-54362709D01*
X122978211Y-54397638D01*
X123218712Y-54429300D01*
X123461288Y-54429300D01*
X123701789Y-54397638D01*
X123863275Y-54354367D01*
X123936082Y-54334859D01*
X123936084Y-54334858D01*
X123936100Y-54334854D01*
X124129868Y-54254593D01*
X124160201Y-54242029D01*
X124160206Y-54242026D01*
X124160212Y-54242024D01*
X124370289Y-54120736D01*
X124458423Y-54053108D01*
X124545554Y-54010141D01*
X124642501Y-54003786D01*
X124734500Y-54035016D01*
X124761568Y-54053101D01*
X124849711Y-54120736D01*
X124893568Y-54146057D01*
X125059782Y-54242021D01*
X125059798Y-54242029D01*
X125199858Y-54300042D01*
X125283900Y-54334854D01*
X125283911Y-54334857D01*
X125283917Y-54334859D01*
X125387855Y-54362709D01*
X125518211Y-54397638D01*
X125758712Y-54429300D01*
X126001288Y-54429300D01*
X126241789Y-54397638D01*
X126403275Y-54354367D01*
X126476082Y-54334859D01*
X126476084Y-54334858D01*
X126476100Y-54334854D01*
X126669868Y-54254593D01*
X126700201Y-54242029D01*
X126700206Y-54242026D01*
X126700212Y-54242024D01*
X126910289Y-54120736D01*
X126998423Y-54053108D01*
X127085554Y-54010141D01*
X127182501Y-54003786D01*
X127274500Y-54035016D01*
X127301568Y-54053101D01*
X127389711Y-54120736D01*
X127433568Y-54146057D01*
X127599782Y-54242021D01*
X127599798Y-54242029D01*
X127739858Y-54300042D01*
X127823900Y-54334854D01*
X127823911Y-54334857D01*
X127823917Y-54334859D01*
X127927855Y-54362709D01*
X128058211Y-54397638D01*
X128298712Y-54429300D01*
X128541288Y-54429300D01*
X128781789Y-54397638D01*
X128943275Y-54354367D01*
X129016082Y-54334859D01*
X129016084Y-54334858D01*
X129016100Y-54334854D01*
X129209868Y-54254593D01*
X129240201Y-54242029D01*
X129240206Y-54242026D01*
X129240212Y-54242024D01*
X129450289Y-54120736D01*
X129538423Y-54053108D01*
X129625554Y-54010141D01*
X129722501Y-54003786D01*
X129814500Y-54035016D01*
X129841568Y-54053101D01*
X129929711Y-54120736D01*
X129973568Y-54146057D01*
X130139782Y-54242021D01*
X130139798Y-54242029D01*
X130279858Y-54300042D01*
X130363900Y-54334854D01*
X130363911Y-54334857D01*
X130363917Y-54334859D01*
X130467855Y-54362709D01*
X130598211Y-54397638D01*
X130838712Y-54429300D01*
X131081288Y-54429300D01*
X131321789Y-54397638D01*
X131483275Y-54354367D01*
X131556082Y-54334859D01*
X131556084Y-54334858D01*
X131556100Y-54334854D01*
X131749868Y-54254593D01*
X131780201Y-54242029D01*
X131780206Y-54242026D01*
X131780212Y-54242024D01*
X131990289Y-54120736D01*
X132078423Y-54053108D01*
X132165554Y-54010141D01*
X132262501Y-54003786D01*
X132354500Y-54035016D01*
X132381568Y-54053101D01*
X132469711Y-54120736D01*
X132513568Y-54146057D01*
X132679782Y-54242021D01*
X132679798Y-54242029D01*
X132819858Y-54300042D01*
X132903900Y-54334854D01*
X132903911Y-54334857D01*
X132903917Y-54334859D01*
X133007855Y-54362709D01*
X133138211Y-54397638D01*
X133378712Y-54429300D01*
X133621288Y-54429300D01*
X133861789Y-54397638D01*
X134023275Y-54354367D01*
X134096082Y-54334859D01*
X134096084Y-54334858D01*
X134096100Y-54334854D01*
X134289868Y-54254593D01*
X134320201Y-54242029D01*
X134320202Y-54242027D01*
X134320212Y-54242024D01*
X134337687Y-54231934D01*
X134429682Y-54200705D01*
X134526629Y-54207057D01*
X134613765Y-54250026D01*
X134619539Y-54254593D01*
X134636588Y-54268494D01*
X134636593Y-54268498D01*
X134816951Y-54362709D01*
X135012582Y-54418686D01*
X135131963Y-54429300D01*
X136948036Y-54429299D01*
X137067418Y-54418686D01*
X137263049Y-54362709D01*
X137443407Y-54268498D01*
X137601109Y-54139909D01*
X137729698Y-53982207D01*
X137823909Y-53801849D01*
X137879886Y-53606218D01*
X137890500Y-53486837D01*
X137890499Y-51670764D01*
X137879886Y-51551382D01*
X137823909Y-51355751D01*
X137729698Y-51175393D01*
X137601109Y-51017691D01*
X137601103Y-51017686D01*
X137601101Y-51017684D01*
X137463281Y-50905306D01*
X137443412Y-50889105D01*
X137443402Y-50889099D01*
X137263053Y-50794893D01*
X137263052Y-50794892D01*
X137263049Y-50794891D01*
X137067418Y-50738914D01*
X136948037Y-50728300D01*
X136948035Y-50728300D01*
X135131968Y-50728300D01*
X135131956Y-50728301D01*
X135012585Y-50738913D01*
X134816954Y-50794890D01*
X134816946Y-50794893D01*
X134636596Y-50889099D01*
X134636595Y-50889100D01*
X134619536Y-50903010D01*
X134533707Y-50948534D01*
X134436990Y-50957748D01*
X134344109Y-50929248D01*
X134337731Y-50925690D01*
X134320212Y-50915576D01*
X134320205Y-50915573D01*
X134320199Y-50915569D01*
X134096105Y-50822748D01*
X134096103Y-50822747D01*
X134096100Y-50822746D01*
X134096096Y-50822745D01*
X134096082Y-50822740D01*
X133861795Y-50759963D01*
X133861790Y-50759962D01*
X133621288Y-50728300D01*
X133378712Y-50728300D01*
X133138209Y-50759962D01*
X133138204Y-50759963D01*
X132903917Y-50822740D01*
X132903894Y-50822748D01*
X132679798Y-50915570D01*
X132679782Y-50915578D01*
X132469720Y-51036858D01*
X132469715Y-51036861D01*
X132469711Y-51036864D01*
X132381578Y-51104490D01*
X132294445Y-51147459D01*
X132197498Y-51153813D01*
X132105499Y-51122583D01*
X132078425Y-51104493D01*
X131990289Y-51036864D01*
X131957084Y-51017693D01*
X131780217Y-50915578D01*
X131780201Y-50915570D01*
X131556105Y-50822748D01*
X131556103Y-50822747D01*
X131556100Y-50822746D01*
X131556096Y-50822745D01*
X131556082Y-50822740D01*
X131321795Y-50759963D01*
X131321790Y-50759962D01*
X131081288Y-50728300D01*
X130838712Y-50728300D01*
X130598209Y-50759962D01*
X130598204Y-50759963D01*
X130363917Y-50822740D01*
X130363894Y-50822748D01*
X130139798Y-50915570D01*
X130139787Y-50915576D01*
X129997199Y-50997899D01*
X129905200Y-51029128D01*
X129808253Y-51022773D01*
X129721118Y-50979802D01*
X129657059Y-50906757D01*
X129625830Y-50814758D01*
X129623700Y-50782258D01*
X129623700Y-50720480D01*
X140299500Y-50720480D01*
X140299500Y-50982720D01*
X140303156Y-51010490D01*
X140333729Y-51242712D01*
X140401601Y-51496017D01*
X140501953Y-51738289D01*
X140501955Y-51738293D01*
X140501957Y-51738297D01*
X140513672Y-51758588D01*
X140633073Y-51965398D01*
X140633082Y-51965412D01*
X140781361Y-52158651D01*
X140792718Y-52173451D01*
X140978149Y-52358882D01*
X140978153Y-52358885D01*
X140978154Y-52358886D01*
X141186187Y-52518517D01*
X141186192Y-52518520D01*
X141186197Y-52518524D01*
X141413303Y-52649643D01*
X141655581Y-52749998D01*
X141908884Y-52817870D01*
X142168880Y-52852100D01*
X142431120Y-52852100D01*
X142691116Y-52817870D01*
X142944419Y-52749998D01*
X143186697Y-52649643D01*
X143413803Y-52518524D01*
X143621851Y-52358882D01*
X143807282Y-52173451D01*
X143966924Y-51965403D01*
X144098043Y-51738297D01*
X144198398Y-51496019D01*
X144266270Y-51242716D01*
X144300500Y-50982720D01*
X144300500Y-50720480D01*
X146799500Y-50720480D01*
X146799500Y-50982720D01*
X146803156Y-51010490D01*
X146833729Y-51242712D01*
X146901601Y-51496017D01*
X147001953Y-51738289D01*
X147001955Y-51738293D01*
X147001957Y-51738297D01*
X147013672Y-51758588D01*
X147133073Y-51965398D01*
X147133082Y-51965412D01*
X147281361Y-52158651D01*
X147292718Y-52173451D01*
X147478149Y-52358882D01*
X147478153Y-52358885D01*
X147478154Y-52358886D01*
X147686187Y-52518517D01*
X147686192Y-52518520D01*
X147686197Y-52518524D01*
X147913303Y-52649643D01*
X148155581Y-52749998D01*
X148408884Y-52817870D01*
X148668880Y-52852100D01*
X148931120Y-52852100D01*
X149191116Y-52817870D01*
X149444419Y-52749998D01*
X149686697Y-52649643D01*
X149913803Y-52518524D01*
X150121851Y-52358882D01*
X150307282Y-52173451D01*
X150466924Y-51965403D01*
X150598043Y-51738297D01*
X150698398Y-51496019D01*
X150766270Y-51242716D01*
X150800500Y-50982720D01*
X150800500Y-50720480D01*
X150766270Y-50460484D01*
X150698398Y-50207181D01*
X150598043Y-49964903D01*
X150466924Y-49737797D01*
X150466920Y-49737792D01*
X150466917Y-49737787D01*
X150307286Y-49529754D01*
X150307285Y-49529753D01*
X150307282Y-49529749D01*
X150121851Y-49344318D01*
X150121846Y-49344314D01*
X150121845Y-49344313D01*
X149913812Y-49184682D01*
X149913798Y-49184673D01*
X149836846Y-49140245D01*
X149686697Y-49053557D01*
X149686695Y-49053556D01*
X149686693Y-49053555D01*
X149686689Y-49053553D01*
X149444417Y-48953201D01*
X149334730Y-48923811D01*
X149191116Y-48885330D01*
X149191111Y-48885329D01*
X149191114Y-48885329D01*
X148931120Y-48851100D01*
X148668880Y-48851100D01*
X148408887Y-48885329D01*
X148155582Y-48953201D01*
X147913310Y-49053553D01*
X147913306Y-49053555D01*
X147686201Y-49184673D01*
X147686187Y-49184682D01*
X147478154Y-49344313D01*
X147292713Y-49529754D01*
X147133082Y-49737787D01*
X147133073Y-49737801D01*
X147001955Y-49964906D01*
X147001953Y-49964910D01*
X146901601Y-50207182D01*
X146833729Y-50460487D01*
X146799500Y-50720480D01*
X144300500Y-50720480D01*
X144266270Y-50460484D01*
X144198398Y-50207181D01*
X144098043Y-49964903D01*
X143966924Y-49737797D01*
X143966920Y-49737792D01*
X143966917Y-49737787D01*
X143807286Y-49529754D01*
X143807285Y-49529753D01*
X143807282Y-49529749D01*
X143621851Y-49344318D01*
X143621846Y-49344314D01*
X143621845Y-49344313D01*
X143413812Y-49184682D01*
X143413798Y-49184673D01*
X143336846Y-49140245D01*
X143186697Y-49053557D01*
X143186695Y-49053556D01*
X143186693Y-49053555D01*
X143186689Y-49053553D01*
X142944417Y-48953201D01*
X142834730Y-48923811D01*
X142691116Y-48885330D01*
X142691111Y-48885329D01*
X142691114Y-48885329D01*
X142431120Y-48851100D01*
X142168880Y-48851100D01*
X141908887Y-48885329D01*
X141655582Y-48953201D01*
X141413310Y-49053553D01*
X141413306Y-49053555D01*
X141186201Y-49184673D01*
X141186187Y-49184682D01*
X140978154Y-49344313D01*
X140792713Y-49529754D01*
X140633082Y-49737787D01*
X140633073Y-49737801D01*
X140501955Y-49964906D01*
X140501953Y-49964910D01*
X140401601Y-50207182D01*
X140333729Y-50460487D01*
X140299500Y-50720480D01*
X129623700Y-50720480D01*
X129623700Y-49547576D01*
X129642654Y-49452288D01*
X129696630Y-49371506D01*
X129777412Y-49317530D01*
X129872700Y-49298576D01*
X129967988Y-49317530D01*
X130024280Y-49350030D01*
X130052268Y-49371506D01*
X130200587Y-49485317D01*
X130200597Y-49485324D01*
X130427703Y-49616443D01*
X130669981Y-49716798D01*
X130923284Y-49784670D01*
X131183280Y-49818900D01*
X131445520Y-49818900D01*
X131705516Y-49784670D01*
X131958819Y-49716798D01*
X132201097Y-49616443D01*
X132428203Y-49485324D01*
X132636251Y-49325682D01*
X132821682Y-49140251D01*
X132981324Y-48932203D01*
X133112443Y-48705097D01*
X133212798Y-48462819D01*
X133280670Y-48209516D01*
X133314900Y-47949520D01*
X133314900Y-47687280D01*
X133280670Y-47427284D01*
X133212798Y-47173981D01*
X133112443Y-46931703D01*
X132981324Y-46704597D01*
X132981320Y-46704592D01*
X132981317Y-46704587D01*
X132821686Y-46496554D01*
X132821685Y-46496553D01*
X132821682Y-46496549D01*
X132636251Y-46311118D01*
X132636246Y-46311114D01*
X132636245Y-46311113D01*
X132428212Y-46151482D01*
X132428198Y-46151473D01*
X132320377Y-46089223D01*
X132201097Y-46020357D01*
X132201095Y-46020356D01*
X132201093Y-46020355D01*
X132201089Y-46020353D01*
X131958817Y-45920001D01*
X131849130Y-45890611D01*
X131705516Y-45852130D01*
X131705511Y-45852129D01*
X131705514Y-45852129D01*
X131445520Y-45817900D01*
X131183280Y-45817900D01*
X130923287Y-45852129D01*
X130669982Y-45920001D01*
X130427710Y-46020353D01*
X130427706Y-46020355D01*
X130200601Y-46151473D01*
X130200596Y-46151476D01*
X130024282Y-46286768D01*
X129937146Y-46329738D01*
X129840199Y-46336093D01*
X129748200Y-46304864D01*
X129675155Y-46240805D01*
X129632185Y-46153669D01*
X129623700Y-46089223D01*
X129623700Y-45047576D01*
X129642654Y-44952288D01*
X129696630Y-44871506D01*
X129777412Y-44817530D01*
X129872700Y-44798576D01*
X129967988Y-44817530D01*
X130024280Y-44850030D01*
X130052268Y-44871506D01*
X130200587Y-44985317D01*
X130200597Y-44985324D01*
X130427703Y-45116443D01*
X130669981Y-45216798D01*
X130923284Y-45284670D01*
X131183280Y-45318900D01*
X131445520Y-45318900D01*
X131705516Y-45284670D01*
X131958819Y-45216798D01*
X132201097Y-45116443D01*
X132428203Y-44985324D01*
X132636251Y-44825682D01*
X132821682Y-44640251D01*
X132981324Y-44432203D01*
X133112443Y-44205097D01*
X133212798Y-43962819D01*
X133280670Y-43709516D01*
X133314900Y-43449520D01*
X133314900Y-43187280D01*
X133280670Y-42927284D01*
X133212798Y-42673981D01*
X133112443Y-42431703D01*
X132981324Y-42204597D01*
X132981320Y-42204592D01*
X132981317Y-42204587D01*
X132821686Y-41996554D01*
X132821685Y-41996553D01*
X132821682Y-41996549D01*
X132636251Y-41811118D01*
X132636246Y-41811114D01*
X132636245Y-41811113D01*
X132428212Y-41651482D01*
X132428198Y-41651473D01*
X132341016Y-41601139D01*
X132201097Y-41520357D01*
X132201095Y-41520356D01*
X132201093Y-41520355D01*
X132201089Y-41520353D01*
X131958817Y-41420001D01*
X131849130Y-41390611D01*
X131705516Y-41352130D01*
X131705511Y-41352129D01*
X131705514Y-41352129D01*
X131445520Y-41317900D01*
X131183280Y-41317900D01*
X130923287Y-41352129D01*
X130669982Y-41420001D01*
X130427710Y-41520353D01*
X130427706Y-41520355D01*
X130200601Y-41651473D01*
X130200587Y-41651482D01*
X129992553Y-41811113D01*
X129992543Y-41811122D01*
X129986401Y-41817265D01*
X129978176Y-41822759D01*
X129972052Y-41830529D01*
X129938034Y-41849579D01*
X129905618Y-41871238D01*
X129895915Y-41873167D01*
X129887285Y-41878001D01*
X129848569Y-41882583D01*
X129810329Y-41890188D01*
X129800625Y-41888257D01*
X129790803Y-41889420D01*
X129753281Y-41878838D01*
X129715041Y-41871230D01*
X129706816Y-41865733D01*
X129697296Y-41863049D01*
X129666676Y-41838910D01*
X129634262Y-41817250D01*
X129628767Y-41809025D01*
X129620998Y-41802901D01*
X129601947Y-41768883D01*
X129580289Y-41736467D01*
X129573526Y-41718134D01*
X129543624Y-41626106D01*
X129543623Y-41626101D01*
X129535516Y-41601149D01*
X129535513Y-41601144D01*
X129535512Y-41601139D01*
X129449496Y-41432323D01*
X129436040Y-41413803D01*
X129338133Y-41279045D01*
X129338131Y-41279042D01*
X128227969Y-40168880D01*
X140299500Y-40168880D01*
X140299500Y-40431119D01*
X140333729Y-40691112D01*
X140401601Y-40944417D01*
X140501953Y-41186689D01*
X140501955Y-41186693D01*
X140633073Y-41413798D01*
X140633082Y-41413812D01*
X140792713Y-41621845D01*
X140792718Y-41621851D01*
X140978149Y-41807282D01*
X140978153Y-41807285D01*
X140978154Y-41807286D01*
X141186187Y-41966917D01*
X141186192Y-41966920D01*
X141186197Y-41966924D01*
X141413303Y-42098043D01*
X141655581Y-42198398D01*
X141908884Y-42266270D01*
X142168880Y-42300500D01*
X142431120Y-42300500D01*
X142691116Y-42266270D01*
X142944419Y-42198398D01*
X143186697Y-42098043D01*
X143413803Y-41966924D01*
X143621851Y-41807282D01*
X143807282Y-41621851D01*
X143966924Y-41413803D01*
X144098043Y-41186697D01*
X144198398Y-40944419D01*
X144266270Y-40691116D01*
X144300500Y-40431120D01*
X144300500Y-40168880D01*
X146799500Y-40168880D01*
X146799500Y-40431119D01*
X146833729Y-40691112D01*
X146901601Y-40944417D01*
X147001953Y-41186689D01*
X147001955Y-41186693D01*
X147133073Y-41413798D01*
X147133082Y-41413812D01*
X147292713Y-41621845D01*
X147292718Y-41621851D01*
X147478149Y-41807282D01*
X147478153Y-41807285D01*
X147478154Y-41807286D01*
X147686187Y-41966917D01*
X147686192Y-41966920D01*
X147686197Y-41966924D01*
X147913303Y-42098043D01*
X148155581Y-42198398D01*
X148408884Y-42266270D01*
X148668880Y-42300500D01*
X148931120Y-42300500D01*
X149191116Y-42266270D01*
X149444419Y-42198398D01*
X149686697Y-42098043D01*
X149913803Y-41966924D01*
X150121851Y-41807282D01*
X150307282Y-41621851D01*
X150466924Y-41413803D01*
X150598043Y-41186697D01*
X150698398Y-40944419D01*
X150766270Y-40691116D01*
X150800500Y-40431120D01*
X150800500Y-40168880D01*
X150766270Y-39908884D01*
X150698398Y-39655581D01*
X150598043Y-39413303D01*
X150466924Y-39186197D01*
X150466920Y-39186192D01*
X150466917Y-39186187D01*
X150307286Y-38978154D01*
X150307285Y-38978153D01*
X150307282Y-38978149D01*
X150121851Y-38792718D01*
X150121846Y-38792714D01*
X150121845Y-38792713D01*
X149913812Y-38633082D01*
X149913798Y-38633073D01*
X149852937Y-38597935D01*
X149686697Y-38501957D01*
X149686695Y-38501956D01*
X149686693Y-38501955D01*
X149686689Y-38501953D01*
X149444417Y-38401601D01*
X149334730Y-38372211D01*
X149191116Y-38333730D01*
X149191111Y-38333729D01*
X149191114Y-38333729D01*
X148931120Y-38299500D01*
X148668880Y-38299500D01*
X148408887Y-38333729D01*
X148155582Y-38401601D01*
X147913310Y-38501953D01*
X147913306Y-38501955D01*
X147686201Y-38633073D01*
X147686187Y-38633082D01*
X147478154Y-38792713D01*
X147292713Y-38978154D01*
X147133082Y-39186187D01*
X147133073Y-39186201D01*
X147001955Y-39413306D01*
X147001953Y-39413310D01*
X146901601Y-39655582D01*
X146833729Y-39908887D01*
X146799500Y-40168880D01*
X144300500Y-40168880D01*
X144266270Y-39908884D01*
X144198398Y-39655581D01*
X144098043Y-39413303D01*
X143966924Y-39186197D01*
X143966920Y-39186192D01*
X143966917Y-39186187D01*
X143807286Y-38978154D01*
X143807285Y-38978153D01*
X143807282Y-38978149D01*
X143621851Y-38792718D01*
X143621846Y-38792714D01*
X143621845Y-38792713D01*
X143413812Y-38633082D01*
X143413798Y-38633073D01*
X143352937Y-38597935D01*
X143186697Y-38501957D01*
X143186695Y-38501956D01*
X143186693Y-38501955D01*
X143186689Y-38501953D01*
X142944417Y-38401601D01*
X142834730Y-38372211D01*
X142691116Y-38333730D01*
X142691111Y-38333729D01*
X142691114Y-38333729D01*
X142431120Y-38299500D01*
X142168880Y-38299500D01*
X141908887Y-38333729D01*
X141655582Y-38401601D01*
X141413310Y-38501953D01*
X141413306Y-38501955D01*
X141186201Y-38633073D01*
X141186187Y-38633082D01*
X140978154Y-38792713D01*
X140792713Y-38978154D01*
X140633082Y-39186187D01*
X140633073Y-39186201D01*
X140501955Y-39413306D01*
X140501953Y-39413310D01*
X140401601Y-39655582D01*
X140333729Y-39908887D01*
X140299500Y-40168880D01*
X128227969Y-40168880D01*
X126123568Y-38064479D01*
X126069595Y-37983701D01*
X126050641Y-37888413D01*
X126069595Y-37793125D01*
X126123571Y-37712343D01*
X126204353Y-37658367D01*
X126299641Y-37639413D01*
X126394929Y-37658367D01*
X126454886Y-37693734D01*
X126534836Y-37757492D01*
X126791659Y-37918865D01*
X127064935Y-38050468D01*
X127064938Y-38050469D01*
X127064940Y-38050470D01*
X127124650Y-38071363D01*
X127351228Y-38150646D01*
X127646937Y-38218140D01*
X127782400Y-38233402D01*
X127948328Y-38252099D01*
X127948343Y-38252100D01*
X128251657Y-38252100D01*
X128251671Y-38252099D01*
X128390507Y-38236455D01*
X128553063Y-38218140D01*
X128848772Y-38150646D01*
X129135065Y-38050468D01*
X129408341Y-37918865D01*
X129665164Y-37757492D01*
X129902304Y-37568379D01*
X130116779Y-37353904D01*
X130305892Y-37116764D01*
X130467265Y-36859941D01*
X130598868Y-36586665D01*
X130699046Y-36300372D01*
X130766540Y-36004663D01*
X130784855Y-35842107D01*
X130800499Y-35703271D01*
X130800500Y-35703256D01*
X130800500Y-35668880D01*
X140299500Y-35668880D01*
X140299500Y-35931119D01*
X140333729Y-36191112D01*
X140401601Y-36444417D01*
X140501953Y-36686689D01*
X140501955Y-36686693D01*
X140501957Y-36686697D01*
X140597935Y-36852937D01*
X140633073Y-36913798D01*
X140633082Y-36913812D01*
X140792713Y-37121845D01*
X140792718Y-37121851D01*
X140978149Y-37307282D01*
X140978153Y-37307285D01*
X140978154Y-37307286D01*
X141186187Y-37466917D01*
X141186192Y-37466920D01*
X141186197Y-37466924D01*
X141413303Y-37598043D01*
X141655581Y-37698398D01*
X141908884Y-37766270D01*
X142168880Y-37800500D01*
X142431120Y-37800500D01*
X142691116Y-37766270D01*
X142944419Y-37698398D01*
X143186697Y-37598043D01*
X143413803Y-37466924D01*
X143621851Y-37307282D01*
X143807282Y-37121851D01*
X143966924Y-36913803D01*
X144098043Y-36686697D01*
X144198398Y-36444419D01*
X144266270Y-36191116D01*
X144300500Y-35931120D01*
X144300500Y-35668880D01*
X146799500Y-35668880D01*
X146799500Y-35931119D01*
X146833729Y-36191112D01*
X146901601Y-36444417D01*
X147001953Y-36686689D01*
X147001955Y-36686693D01*
X147001957Y-36686697D01*
X147097935Y-36852937D01*
X147133073Y-36913798D01*
X147133082Y-36913812D01*
X147292713Y-37121845D01*
X147292718Y-37121851D01*
X147478149Y-37307282D01*
X147478153Y-37307285D01*
X147478154Y-37307286D01*
X147686187Y-37466917D01*
X147686192Y-37466920D01*
X147686197Y-37466924D01*
X147913303Y-37598043D01*
X148155581Y-37698398D01*
X148408884Y-37766270D01*
X148668880Y-37800500D01*
X148931120Y-37800500D01*
X149191116Y-37766270D01*
X149444419Y-37698398D01*
X149686697Y-37598043D01*
X149913803Y-37466924D01*
X150121851Y-37307282D01*
X150307282Y-37121851D01*
X150466924Y-36913803D01*
X150598043Y-36686697D01*
X150698398Y-36444419D01*
X150766270Y-36191116D01*
X150800500Y-35931120D01*
X150800500Y-35668880D01*
X150766270Y-35408884D01*
X150698398Y-35155581D01*
X150598043Y-34913303D01*
X150466924Y-34686197D01*
X150466920Y-34686192D01*
X150466917Y-34686187D01*
X150307286Y-34478154D01*
X150307285Y-34478153D01*
X150307282Y-34478149D01*
X150121851Y-34292718D01*
X150121846Y-34292714D01*
X150121845Y-34292713D01*
X149913812Y-34133082D01*
X149913798Y-34133073D01*
X149730705Y-34027365D01*
X149686697Y-34001957D01*
X149686695Y-34001956D01*
X149686693Y-34001955D01*
X149686689Y-34001953D01*
X149444417Y-33901601D01*
X149334730Y-33872211D01*
X149191116Y-33833730D01*
X149191111Y-33833729D01*
X149191114Y-33833729D01*
X148931120Y-33799500D01*
X148668880Y-33799500D01*
X148408887Y-33833729D01*
X148155582Y-33901601D01*
X147913310Y-34001953D01*
X147913306Y-34001955D01*
X147686201Y-34133073D01*
X147686187Y-34133082D01*
X147478154Y-34292713D01*
X147292713Y-34478154D01*
X147133082Y-34686187D01*
X147133073Y-34686201D01*
X147001955Y-34913306D01*
X147001953Y-34913310D01*
X146901601Y-35155582D01*
X146833729Y-35408887D01*
X146799500Y-35668880D01*
X144300500Y-35668880D01*
X144266270Y-35408884D01*
X144198398Y-35155581D01*
X144098043Y-34913303D01*
X143966924Y-34686197D01*
X143966920Y-34686192D01*
X143966917Y-34686187D01*
X143807286Y-34478154D01*
X143807285Y-34478153D01*
X143807282Y-34478149D01*
X143621851Y-34292718D01*
X143621846Y-34292714D01*
X143621845Y-34292713D01*
X143413812Y-34133082D01*
X143413798Y-34133073D01*
X143230705Y-34027365D01*
X143186697Y-34001957D01*
X143186695Y-34001956D01*
X143186693Y-34001955D01*
X143186689Y-34001953D01*
X142944417Y-33901601D01*
X142834730Y-33872211D01*
X142691116Y-33833730D01*
X142691111Y-33833729D01*
X142691114Y-33833729D01*
X142431120Y-33799500D01*
X142168880Y-33799500D01*
X141908887Y-33833729D01*
X141655582Y-33901601D01*
X141413310Y-34001953D01*
X141413306Y-34001955D01*
X141186201Y-34133073D01*
X141186187Y-34133082D01*
X140978154Y-34292713D01*
X140792713Y-34478154D01*
X140633082Y-34686187D01*
X140633073Y-34686201D01*
X140501955Y-34913306D01*
X140501953Y-34913310D01*
X140401601Y-35155582D01*
X140333729Y-35408887D01*
X140299500Y-35668880D01*
X130800500Y-35668880D01*
X130800500Y-35399943D01*
X130800499Y-35399928D01*
X130772967Y-35155581D01*
X130766540Y-35098537D01*
X130699046Y-34802828D01*
X130598868Y-34516535D01*
X130467265Y-34243259D01*
X130305892Y-33986436D01*
X130116779Y-33749296D01*
X130033453Y-33665970D01*
X129979477Y-33585188D01*
X129960523Y-33489900D01*
X129979477Y-33394612D01*
X130033453Y-33313830D01*
X130114235Y-33259854D01*
X130209523Y-33240900D01*
X155850200Y-33240900D01*
X155945488Y-33259854D01*
X156026270Y-33313830D01*
X156080246Y-33394612D01*
X156099200Y-33489900D01*
X156099200Y-58324200D01*
X156080246Y-58419488D01*
X156026270Y-58500270D01*
X155945488Y-58554246D01*
X155850200Y-58573200D01*
X99106692Y-58573200D01*
X99011404Y-58554246D01*
X98930622Y-58500270D01*
X98876646Y-58419488D01*
X98857692Y-58324200D01*
X98876646Y-58228912D01*
X98930622Y-58148130D01*
X99011404Y-58094154D01*
X99024453Y-58089173D01*
X99135059Y-58050470D01*
X99135058Y-58050470D01*
X99135065Y-58050468D01*
X99408341Y-57918865D01*
X99665164Y-57757492D01*
X99902304Y-57568379D01*
X100116779Y-57353904D01*
X100305892Y-57116764D01*
X100467265Y-56859941D01*
X100598868Y-56586665D01*
X100699046Y-56300372D01*
X100766540Y-56004663D01*
X100797722Y-55727916D01*
X100800499Y-55703271D01*
X100800500Y-55703256D01*
X100800500Y-55399943D01*
X100800499Y-55399930D01*
X100780835Y-55225408D01*
X100780835Y-55225407D01*
X100778612Y-55205680D01*
X107675500Y-55205680D01*
X107675500Y-55467919D01*
X107709729Y-55727912D01*
X107777601Y-55981217D01*
X107877953Y-56223489D01*
X107877955Y-56223493D01*
X107877957Y-56223497D01*
X107886502Y-56238297D01*
X108009073Y-56450598D01*
X108009082Y-56450612D01*
X108168713Y-56658645D01*
X108168718Y-56658651D01*
X108354149Y-56844082D01*
X108354153Y-56844085D01*
X108354154Y-56844086D01*
X108562187Y-57003717D01*
X108562192Y-57003720D01*
X108562197Y-57003724D01*
X108789303Y-57134843D01*
X108789308Y-57134845D01*
X108789310Y-57134846D01*
X108836614Y-57154440D01*
X109031581Y-57235198D01*
X109284884Y-57303070D01*
X109544880Y-57337300D01*
X109807120Y-57337300D01*
X110067116Y-57303070D01*
X110320419Y-57235198D01*
X110562697Y-57134843D01*
X110789803Y-57003724D01*
X110997851Y-56844082D01*
X111183282Y-56658651D01*
X111342924Y-56450603D01*
X111474043Y-56223497D01*
X111574398Y-55981219D01*
X111642270Y-55727916D01*
X111676500Y-55467920D01*
X111676500Y-55205680D01*
X114175500Y-55205680D01*
X114175500Y-55467919D01*
X114209729Y-55727912D01*
X114277601Y-55981217D01*
X114377953Y-56223489D01*
X114377955Y-56223493D01*
X114377957Y-56223497D01*
X114386502Y-56238297D01*
X114509073Y-56450598D01*
X114509082Y-56450612D01*
X114668713Y-56658645D01*
X114668718Y-56658651D01*
X114854149Y-56844082D01*
X114854153Y-56844085D01*
X114854154Y-56844086D01*
X115062187Y-57003717D01*
X115062192Y-57003720D01*
X115062197Y-57003724D01*
X115289303Y-57134843D01*
X115289308Y-57134845D01*
X115289310Y-57134846D01*
X115336614Y-57154440D01*
X115531581Y-57235198D01*
X115784884Y-57303070D01*
X116044880Y-57337300D01*
X116307120Y-57337300D01*
X116567116Y-57303070D01*
X116820419Y-57235198D01*
X117062697Y-57134843D01*
X117289803Y-57003724D01*
X117497851Y-56844082D01*
X117683282Y-56658651D01*
X117842924Y-56450603D01*
X117974043Y-56223497D01*
X118074398Y-55981219D01*
X118142270Y-55727916D01*
X118176500Y-55467920D01*
X118176500Y-55220480D01*
X140299500Y-55220480D01*
X140299500Y-55482719D01*
X140333729Y-55742712D01*
X140401601Y-55996017D01*
X140501953Y-56238289D01*
X140501955Y-56238293D01*
X140633073Y-56465398D01*
X140633082Y-56465412D01*
X140792713Y-56673445D01*
X140792718Y-56673451D01*
X140978149Y-56858882D01*
X140978153Y-56858885D01*
X140978154Y-56858886D01*
X141186187Y-57018517D01*
X141186192Y-57018520D01*
X141186197Y-57018524D01*
X141413303Y-57149643D01*
X141655581Y-57249998D01*
X141908884Y-57317870D01*
X142168880Y-57352100D01*
X142431120Y-57352100D01*
X142691116Y-57317870D01*
X142944419Y-57249998D01*
X143186697Y-57149643D01*
X143413803Y-57018524D01*
X143621851Y-56858882D01*
X143807282Y-56673451D01*
X143966924Y-56465403D01*
X144098043Y-56238297D01*
X144198398Y-55996019D01*
X144266270Y-55742716D01*
X144300500Y-55482720D01*
X144300500Y-55220480D01*
X146799500Y-55220480D01*
X146799500Y-55482719D01*
X146833729Y-55742712D01*
X146901601Y-55996017D01*
X147001953Y-56238289D01*
X147001955Y-56238293D01*
X147133073Y-56465398D01*
X147133082Y-56465412D01*
X147292713Y-56673445D01*
X147292718Y-56673451D01*
X147478149Y-56858882D01*
X147478153Y-56858885D01*
X147478154Y-56858886D01*
X147686187Y-57018517D01*
X147686192Y-57018520D01*
X147686197Y-57018524D01*
X147913303Y-57149643D01*
X148155581Y-57249998D01*
X148408884Y-57317870D01*
X148668880Y-57352100D01*
X148931120Y-57352100D01*
X149191116Y-57317870D01*
X149444419Y-57249998D01*
X149686697Y-57149643D01*
X149913803Y-57018524D01*
X150121851Y-56858882D01*
X150307282Y-56673451D01*
X150466924Y-56465403D01*
X150598043Y-56238297D01*
X150698398Y-55996019D01*
X150766270Y-55742716D01*
X150800500Y-55482720D01*
X150800500Y-55220480D01*
X150766270Y-54960484D01*
X150698398Y-54707181D01*
X150598043Y-54464903D01*
X150466924Y-54237797D01*
X150466920Y-54237792D01*
X150466917Y-54237787D01*
X150307286Y-54029754D01*
X150307285Y-54029753D01*
X150307282Y-54029749D01*
X150121851Y-53844318D01*
X150121846Y-53844314D01*
X150121845Y-53844313D01*
X149913812Y-53684682D01*
X149913798Y-53684673D01*
X149777907Y-53606217D01*
X149686697Y-53553557D01*
X149686695Y-53553556D01*
X149686693Y-53553555D01*
X149686689Y-53553553D01*
X149444417Y-53453201D01*
X149334730Y-53423811D01*
X149191116Y-53385330D01*
X149191111Y-53385329D01*
X149191114Y-53385329D01*
X148931120Y-53351100D01*
X148668880Y-53351100D01*
X148408887Y-53385329D01*
X148155582Y-53453201D01*
X147913310Y-53553553D01*
X147913306Y-53553555D01*
X147686201Y-53684673D01*
X147686187Y-53684682D01*
X147478154Y-53844313D01*
X147292713Y-54029754D01*
X147133082Y-54237787D01*
X147133073Y-54237801D01*
X147001955Y-54464906D01*
X147001953Y-54464910D01*
X146901601Y-54707182D01*
X146833729Y-54960487D01*
X146799500Y-55220480D01*
X144300500Y-55220480D01*
X144266270Y-54960484D01*
X144198398Y-54707181D01*
X144098043Y-54464903D01*
X143966924Y-54237797D01*
X143966920Y-54237792D01*
X143966917Y-54237787D01*
X143807286Y-54029754D01*
X143807285Y-54029753D01*
X143807282Y-54029749D01*
X143621851Y-53844318D01*
X143621846Y-53844314D01*
X143621845Y-53844313D01*
X143413812Y-53684682D01*
X143413798Y-53684673D01*
X143277907Y-53606217D01*
X143186697Y-53553557D01*
X143186695Y-53553556D01*
X143186693Y-53553555D01*
X143186689Y-53553553D01*
X142944417Y-53453201D01*
X142834730Y-53423811D01*
X142691116Y-53385330D01*
X142691111Y-53385329D01*
X142691114Y-53385329D01*
X142431120Y-53351100D01*
X142168880Y-53351100D01*
X141908887Y-53385329D01*
X141655582Y-53453201D01*
X141413310Y-53553553D01*
X141413306Y-53553555D01*
X141186201Y-53684673D01*
X141186187Y-53684682D01*
X140978154Y-53844313D01*
X140792713Y-54029754D01*
X140633082Y-54237787D01*
X140633073Y-54237801D01*
X140501955Y-54464906D01*
X140501953Y-54464910D01*
X140401601Y-54707182D01*
X140333729Y-54960487D01*
X140299500Y-55220480D01*
X118176500Y-55220480D01*
X118176500Y-55205680D01*
X118142270Y-54945684D01*
X118074398Y-54692381D01*
X117974043Y-54450103D01*
X117842924Y-54222997D01*
X117842920Y-54222992D01*
X117842917Y-54222987D01*
X117683286Y-54014954D01*
X117683285Y-54014953D01*
X117683282Y-54014949D01*
X117497851Y-53829518D01*
X117497846Y-53829514D01*
X117497845Y-53829513D01*
X117289812Y-53669882D01*
X117289798Y-53669873D01*
X117179549Y-53606221D01*
X117062697Y-53538757D01*
X117062695Y-53538756D01*
X117062693Y-53538755D01*
X117062689Y-53538753D01*
X116820417Y-53438401D01*
X116673431Y-53399017D01*
X116567116Y-53370530D01*
X116567111Y-53370529D01*
X116567114Y-53370529D01*
X116307120Y-53336300D01*
X116044880Y-53336300D01*
X115784887Y-53370529D01*
X115531582Y-53438401D01*
X115289310Y-53538753D01*
X115289306Y-53538755D01*
X115062201Y-53669873D01*
X115062187Y-53669882D01*
X114854154Y-53829513D01*
X114668713Y-54014954D01*
X114509082Y-54222987D01*
X114509073Y-54223001D01*
X114377955Y-54450106D01*
X114377953Y-54450110D01*
X114277601Y-54692382D01*
X114209729Y-54945687D01*
X114175500Y-55205680D01*
X111676500Y-55205680D01*
X111642270Y-54945684D01*
X111574398Y-54692381D01*
X111474043Y-54450103D01*
X111342924Y-54222997D01*
X111342920Y-54222992D01*
X111342917Y-54222987D01*
X111183286Y-54014954D01*
X111183285Y-54014953D01*
X111183282Y-54014949D01*
X110997851Y-53829518D01*
X110997846Y-53829514D01*
X110997845Y-53829513D01*
X110789812Y-53669882D01*
X110789798Y-53669873D01*
X110679549Y-53606221D01*
X110562697Y-53538757D01*
X110562695Y-53538756D01*
X110562693Y-53538755D01*
X110562689Y-53538753D01*
X110320417Y-53438401D01*
X110173431Y-53399017D01*
X110067116Y-53370530D01*
X110067111Y-53370529D01*
X110067114Y-53370529D01*
X109807120Y-53336300D01*
X109544880Y-53336300D01*
X109284887Y-53370529D01*
X109031582Y-53438401D01*
X108789310Y-53538753D01*
X108789306Y-53538755D01*
X108562201Y-53669873D01*
X108562187Y-53669882D01*
X108354154Y-53829513D01*
X108168713Y-54014954D01*
X108009082Y-54222987D01*
X108009073Y-54223001D01*
X107877955Y-54450106D01*
X107877953Y-54450110D01*
X107777601Y-54692382D01*
X107709729Y-54945687D01*
X107675500Y-55205680D01*
X100778612Y-55205680D01*
X100775756Y-55180334D01*
X100766540Y-55098537D01*
X100699046Y-54802828D01*
X100598868Y-54516535D01*
X100467265Y-54243259D01*
X100305892Y-53986436D01*
X100116779Y-53749296D01*
X99902304Y-53534821D01*
X99731991Y-53399001D01*
X99665163Y-53345707D01*
X99408351Y-53184341D01*
X99408347Y-53184339D01*
X99408341Y-53184335D01*
X99408331Y-53184330D01*
X99408327Y-53184328D01*
X99135059Y-53052729D01*
X98920345Y-52977598D01*
X98848772Y-52952554D01*
X98614056Y-52898981D01*
X98553068Y-52885061D01*
X98553064Y-52885060D01*
X98553063Y-52885060D01*
X98553061Y-52885059D01*
X98553057Y-52885059D01*
X98251671Y-52851100D01*
X98251657Y-52851100D01*
X97948343Y-52851100D01*
X97948328Y-52851100D01*
X97646942Y-52885059D01*
X97646931Y-52885061D01*
X97487374Y-52921479D01*
X97351228Y-52952554D01*
X97351225Y-52952554D01*
X97351225Y-52952555D01*
X97064940Y-53052729D01*
X96791672Y-53184328D01*
X96791648Y-53184341D01*
X96534836Y-53345707D01*
X96297699Y-53534818D01*
X96297691Y-53534825D01*
X96083225Y-53749291D01*
X96083218Y-53749299D01*
X95894107Y-53986436D01*
X95732741Y-54243248D01*
X95732728Y-54243272D01*
X95601129Y-54516540D01*
X95500955Y-54802825D01*
X95433461Y-55098531D01*
X95433459Y-55098542D01*
X95399500Y-55399928D01*
X95399500Y-55703271D01*
X95432486Y-55996019D01*
X95433460Y-56004663D01*
X95500954Y-56300372D01*
X95500955Y-56300374D01*
X95601129Y-56586659D01*
X95725099Y-56844086D01*
X95732735Y-56859941D01*
X95732739Y-56859947D01*
X95732741Y-56859951D01*
X95894107Y-57116763D01*
X95929312Y-57160908D01*
X96083221Y-57353904D01*
X96297696Y-57568379D01*
X96534836Y-57757492D01*
X96791659Y-57918865D01*
X97064935Y-58050468D01*
X97064938Y-58050469D01*
X97064940Y-58050470D01*
X97175547Y-58089173D01*
X97259228Y-58138534D01*
X97317649Y-58216162D01*
X97341916Y-58310238D01*
X97328335Y-58406439D01*
X97278974Y-58490120D01*
X97201346Y-58548541D01*
X97107270Y-58572808D01*
X97093308Y-58573200D01*
X70349400Y-58573200D01*
X70254112Y-58554246D01*
X70173330Y-58500270D01*
X70119354Y-58419488D01*
X70100400Y-58324200D01*
X70100400Y-55220480D01*
X75299500Y-55220480D01*
X75299500Y-55482719D01*
X75333729Y-55742712D01*
X75401601Y-55996017D01*
X75501953Y-56238289D01*
X75501955Y-56238293D01*
X75633073Y-56465398D01*
X75633082Y-56465412D01*
X75792713Y-56673445D01*
X75792718Y-56673451D01*
X75978149Y-56858882D01*
X75978153Y-56858885D01*
X75978154Y-56858886D01*
X76186187Y-57018517D01*
X76186192Y-57018520D01*
X76186197Y-57018524D01*
X76413303Y-57149643D01*
X76655581Y-57249998D01*
X76908884Y-57317870D01*
X77168880Y-57352100D01*
X77431120Y-57352100D01*
X77691116Y-57317870D01*
X77944419Y-57249998D01*
X78186697Y-57149643D01*
X78413803Y-57018524D01*
X78621851Y-56858882D01*
X78807282Y-56673451D01*
X78966924Y-56465403D01*
X79098043Y-56238297D01*
X79198398Y-55996019D01*
X79266270Y-55742716D01*
X79300500Y-55482720D01*
X79300500Y-55220480D01*
X81799500Y-55220480D01*
X81799500Y-55482719D01*
X81833729Y-55742712D01*
X81901601Y-55996017D01*
X82001953Y-56238289D01*
X82001955Y-56238293D01*
X82133073Y-56465398D01*
X82133082Y-56465412D01*
X82292713Y-56673445D01*
X82292718Y-56673451D01*
X82478149Y-56858882D01*
X82478153Y-56858885D01*
X82478154Y-56858886D01*
X82686187Y-57018517D01*
X82686192Y-57018520D01*
X82686197Y-57018524D01*
X82913303Y-57149643D01*
X83155581Y-57249998D01*
X83408884Y-57317870D01*
X83668880Y-57352100D01*
X83931120Y-57352100D01*
X84191116Y-57317870D01*
X84444419Y-57249998D01*
X84686697Y-57149643D01*
X84913803Y-57018524D01*
X85121851Y-56858882D01*
X85307282Y-56673451D01*
X85466924Y-56465403D01*
X85598043Y-56238297D01*
X85698398Y-55996019D01*
X85766270Y-55742716D01*
X85800500Y-55482720D01*
X85800500Y-55220480D01*
X85766270Y-54960484D01*
X85698398Y-54707181D01*
X85598043Y-54464903D01*
X85466924Y-54237797D01*
X85466920Y-54237792D01*
X85466917Y-54237787D01*
X85307286Y-54029754D01*
X85307285Y-54029753D01*
X85307282Y-54029749D01*
X85121851Y-53844318D01*
X85121846Y-53844314D01*
X85121845Y-53844313D01*
X84913812Y-53684682D01*
X84913798Y-53684673D01*
X84777907Y-53606217D01*
X84686697Y-53553557D01*
X84686695Y-53553556D01*
X84686693Y-53553555D01*
X84686689Y-53553553D01*
X84444417Y-53453201D01*
X84334730Y-53423811D01*
X84191116Y-53385330D01*
X84191111Y-53385329D01*
X84191114Y-53385329D01*
X83931120Y-53351100D01*
X83668880Y-53351100D01*
X83408887Y-53385329D01*
X83155582Y-53453201D01*
X82913310Y-53553553D01*
X82913306Y-53553555D01*
X82686201Y-53684673D01*
X82686187Y-53684682D01*
X82478154Y-53844313D01*
X82292713Y-54029754D01*
X82133082Y-54237787D01*
X82133073Y-54237801D01*
X82001955Y-54464906D01*
X82001953Y-54464910D01*
X81901601Y-54707182D01*
X81833729Y-54960487D01*
X81799500Y-55220480D01*
X79300500Y-55220480D01*
X79266270Y-54960484D01*
X79198398Y-54707181D01*
X79098043Y-54464903D01*
X78966924Y-54237797D01*
X78966920Y-54237792D01*
X78966917Y-54237787D01*
X78807286Y-54029754D01*
X78807285Y-54029753D01*
X78807282Y-54029749D01*
X78621851Y-53844318D01*
X78621846Y-53844314D01*
X78621845Y-53844313D01*
X78413812Y-53684682D01*
X78413798Y-53684673D01*
X78277907Y-53606217D01*
X78186697Y-53553557D01*
X78186695Y-53553556D01*
X78186693Y-53553555D01*
X78186689Y-53553553D01*
X77944417Y-53453201D01*
X77834730Y-53423811D01*
X77691116Y-53385330D01*
X77691111Y-53385329D01*
X77691114Y-53385329D01*
X77431120Y-53351100D01*
X77168880Y-53351100D01*
X76908887Y-53385329D01*
X76655582Y-53453201D01*
X76413310Y-53553553D01*
X76413306Y-53553555D01*
X76186201Y-53684673D01*
X76186187Y-53684682D01*
X75978154Y-53844313D01*
X75792713Y-54029754D01*
X75633082Y-54237787D01*
X75633073Y-54237801D01*
X75501955Y-54464906D01*
X75501953Y-54464910D01*
X75401601Y-54707182D01*
X75333729Y-54960487D01*
X75299500Y-55220480D01*
X70100400Y-55220480D01*
X70100400Y-50720480D01*
X75299500Y-50720480D01*
X75299500Y-50982720D01*
X75303156Y-51010490D01*
X75333729Y-51242712D01*
X75401601Y-51496017D01*
X75501953Y-51738289D01*
X75501955Y-51738293D01*
X75501957Y-51738297D01*
X75513672Y-51758588D01*
X75633073Y-51965398D01*
X75633082Y-51965412D01*
X75781361Y-52158651D01*
X75792718Y-52173451D01*
X75978149Y-52358882D01*
X75978153Y-52358885D01*
X75978154Y-52358886D01*
X76186187Y-52518517D01*
X76186192Y-52518520D01*
X76186197Y-52518524D01*
X76413303Y-52649643D01*
X76655581Y-52749998D01*
X76908884Y-52817870D01*
X77168880Y-52852100D01*
X77431120Y-52852100D01*
X77691116Y-52817870D01*
X77944419Y-52749998D01*
X78186697Y-52649643D01*
X78413803Y-52518524D01*
X78621851Y-52358882D01*
X78807282Y-52173451D01*
X78966924Y-51965403D01*
X79098043Y-51738297D01*
X79198398Y-51496019D01*
X79266270Y-51242716D01*
X79300500Y-50982720D01*
X79300500Y-50720480D01*
X81799500Y-50720480D01*
X81799500Y-50982720D01*
X81803156Y-51010490D01*
X81833729Y-51242712D01*
X81901601Y-51496017D01*
X82001953Y-51738289D01*
X82001955Y-51738293D01*
X82001957Y-51738297D01*
X82013672Y-51758588D01*
X82133073Y-51965398D01*
X82133082Y-51965412D01*
X82281361Y-52158651D01*
X82292718Y-52173451D01*
X82478149Y-52358882D01*
X82478153Y-52358885D01*
X82478154Y-52358886D01*
X82686187Y-52518517D01*
X82686192Y-52518520D01*
X82686197Y-52518524D01*
X82913303Y-52649643D01*
X83155581Y-52749998D01*
X83408884Y-52817870D01*
X83668880Y-52852100D01*
X83931120Y-52852100D01*
X84191116Y-52817870D01*
X84444419Y-52749998D01*
X84686697Y-52649643D01*
X84913803Y-52518524D01*
X85121851Y-52358882D01*
X85307282Y-52173451D01*
X85466924Y-51965403D01*
X85598043Y-51738297D01*
X85698398Y-51496019D01*
X85766270Y-51242716D01*
X85800500Y-50982720D01*
X85800500Y-50720480D01*
X85798551Y-50705680D01*
X107675500Y-50705680D01*
X107675500Y-50967919D01*
X107709729Y-51227912D01*
X107777601Y-51481217D01*
X107877953Y-51723489D01*
X107877955Y-51723493D01*
X107877957Y-51723497D01*
X107973935Y-51889737D01*
X108009073Y-51950598D01*
X108009082Y-51950612D01*
X108168713Y-52158645D01*
X108168718Y-52158651D01*
X108354149Y-52344082D01*
X108354153Y-52344085D01*
X108354154Y-52344086D01*
X108562187Y-52503717D01*
X108562192Y-52503720D01*
X108562197Y-52503724D01*
X108789303Y-52634843D01*
X108789308Y-52634845D01*
X108789310Y-52634846D01*
X108836614Y-52654440D01*
X109031581Y-52735198D01*
X109284884Y-52803070D01*
X109544880Y-52837300D01*
X109807120Y-52837300D01*
X110067116Y-52803070D01*
X110320419Y-52735198D01*
X110562697Y-52634843D01*
X110789803Y-52503724D01*
X110997851Y-52344082D01*
X111183282Y-52158651D01*
X111342924Y-51950603D01*
X111474043Y-51723497D01*
X111574398Y-51481219D01*
X111642270Y-51227916D01*
X111676500Y-50967920D01*
X111676500Y-50705680D01*
X114175500Y-50705680D01*
X114175500Y-50967919D01*
X114209729Y-51227912D01*
X114277601Y-51481217D01*
X114377953Y-51723489D01*
X114377955Y-51723493D01*
X114377957Y-51723497D01*
X114473935Y-51889737D01*
X114509073Y-51950598D01*
X114509082Y-51950612D01*
X114668713Y-52158645D01*
X114668718Y-52158651D01*
X114854149Y-52344082D01*
X114854153Y-52344085D01*
X114854154Y-52344086D01*
X115062187Y-52503717D01*
X115062192Y-52503720D01*
X115062197Y-52503724D01*
X115289303Y-52634843D01*
X115289308Y-52634845D01*
X115289310Y-52634846D01*
X115336614Y-52654440D01*
X115531581Y-52735198D01*
X115784884Y-52803070D01*
X116044880Y-52837300D01*
X116307120Y-52837300D01*
X116567116Y-52803070D01*
X116820419Y-52735198D01*
X117062697Y-52634843D01*
X117289803Y-52503724D01*
X117497851Y-52344082D01*
X117683282Y-52158651D01*
X117842924Y-51950603D01*
X117974043Y-51723497D01*
X118074398Y-51481219D01*
X118142270Y-51227916D01*
X118176500Y-50967920D01*
X118176500Y-50705680D01*
X118142270Y-50445684D01*
X118074398Y-50192381D01*
X117974043Y-49950103D01*
X117842924Y-49722997D01*
X117842920Y-49722992D01*
X117842917Y-49722987D01*
X117683286Y-49514954D01*
X117683285Y-49514953D01*
X117683282Y-49514949D01*
X117497851Y-49329518D01*
X117497846Y-49329514D01*
X117497845Y-49329513D01*
X117289812Y-49169882D01*
X117289798Y-49169873D01*
X117088328Y-49053555D01*
X117062697Y-49038757D01*
X117062695Y-49038756D01*
X117062693Y-49038755D01*
X117062689Y-49038753D01*
X116820417Y-48938401D01*
X116710730Y-48909011D01*
X116567116Y-48870530D01*
X116567111Y-48870529D01*
X116567114Y-48870529D01*
X116307120Y-48836300D01*
X116044880Y-48836300D01*
X115784887Y-48870529D01*
X115531582Y-48938401D01*
X115289310Y-49038753D01*
X115289306Y-49038755D01*
X115062201Y-49169873D01*
X115062187Y-49169882D01*
X114854154Y-49329513D01*
X114668713Y-49514954D01*
X114509082Y-49722987D01*
X114509073Y-49723001D01*
X114377955Y-49950106D01*
X114377953Y-49950110D01*
X114277601Y-50192382D01*
X114209729Y-50445687D01*
X114175500Y-50705680D01*
X111676500Y-50705680D01*
X111642270Y-50445684D01*
X111574398Y-50192381D01*
X111474043Y-49950103D01*
X111342924Y-49722997D01*
X111342920Y-49722992D01*
X111342917Y-49722987D01*
X111183286Y-49514954D01*
X111183285Y-49514953D01*
X111183282Y-49514949D01*
X110997851Y-49329518D01*
X110997846Y-49329514D01*
X110997845Y-49329513D01*
X110789812Y-49169882D01*
X110789798Y-49169873D01*
X110588328Y-49053555D01*
X110562697Y-49038757D01*
X110562695Y-49038756D01*
X110562693Y-49038755D01*
X110562689Y-49038753D01*
X110320417Y-48938401D01*
X110210730Y-48909011D01*
X110067116Y-48870530D01*
X110067111Y-48870529D01*
X110067114Y-48870529D01*
X109807120Y-48836300D01*
X109544880Y-48836300D01*
X109284887Y-48870529D01*
X109031582Y-48938401D01*
X108789310Y-49038753D01*
X108789306Y-49038755D01*
X108562201Y-49169873D01*
X108562187Y-49169882D01*
X108354154Y-49329513D01*
X108168713Y-49514954D01*
X108009082Y-49722987D01*
X108009073Y-49723001D01*
X107877955Y-49950106D01*
X107877953Y-49950110D01*
X107777601Y-50192382D01*
X107709729Y-50445687D01*
X107675500Y-50705680D01*
X85798551Y-50705680D01*
X85766270Y-50460484D01*
X85698398Y-50207181D01*
X85598043Y-49964903D01*
X85466924Y-49737797D01*
X85466920Y-49737792D01*
X85466917Y-49737787D01*
X85307286Y-49529754D01*
X85307285Y-49529753D01*
X85307282Y-49529749D01*
X85121851Y-49344318D01*
X85121846Y-49344314D01*
X85121845Y-49344313D01*
X84913812Y-49184682D01*
X84913798Y-49184673D01*
X84836846Y-49140245D01*
X84686697Y-49053557D01*
X84686695Y-49053556D01*
X84686693Y-49053555D01*
X84686689Y-49053553D01*
X84444417Y-48953201D01*
X84334730Y-48923811D01*
X84191116Y-48885330D01*
X84191111Y-48885329D01*
X84191114Y-48885329D01*
X83931120Y-48851100D01*
X83668880Y-48851100D01*
X83408887Y-48885329D01*
X83155582Y-48953201D01*
X82913310Y-49053553D01*
X82913306Y-49053555D01*
X82686201Y-49184673D01*
X82686187Y-49184682D01*
X82478154Y-49344313D01*
X82292713Y-49529754D01*
X82133082Y-49737787D01*
X82133073Y-49737801D01*
X82001955Y-49964906D01*
X82001953Y-49964910D01*
X81901601Y-50207182D01*
X81833729Y-50460487D01*
X81799500Y-50720480D01*
X79300500Y-50720480D01*
X79266270Y-50460484D01*
X79198398Y-50207181D01*
X79098043Y-49964903D01*
X78966924Y-49737797D01*
X78966920Y-49737792D01*
X78966917Y-49737787D01*
X78807286Y-49529754D01*
X78807285Y-49529753D01*
X78807282Y-49529749D01*
X78621851Y-49344318D01*
X78621846Y-49344314D01*
X78621845Y-49344313D01*
X78413812Y-49184682D01*
X78413798Y-49184673D01*
X78336846Y-49140245D01*
X78186697Y-49053557D01*
X78186695Y-49053556D01*
X78186693Y-49053555D01*
X78186689Y-49053553D01*
X77944417Y-48953201D01*
X77834730Y-48923811D01*
X77691116Y-48885330D01*
X77691111Y-48885329D01*
X77691114Y-48885329D01*
X77431120Y-48851100D01*
X77168880Y-48851100D01*
X76908887Y-48885329D01*
X76655582Y-48953201D01*
X76413310Y-49053553D01*
X76413306Y-49053555D01*
X76186201Y-49184673D01*
X76186187Y-49184682D01*
X75978154Y-49344313D01*
X75792713Y-49529754D01*
X75633082Y-49737787D01*
X75633073Y-49737801D01*
X75501955Y-49964906D01*
X75501953Y-49964910D01*
X75401601Y-50207182D01*
X75333729Y-50460487D01*
X75299500Y-50720480D01*
X70100400Y-50720480D01*
X70100400Y-47687280D01*
X92799500Y-47687280D01*
X92799500Y-47949519D01*
X92833729Y-48209512D01*
X92901601Y-48462817D01*
X93001953Y-48705089D01*
X93001955Y-48705093D01*
X93133073Y-48932198D01*
X93133082Y-48932212D01*
X93292713Y-49140245D01*
X93292718Y-49140251D01*
X93478149Y-49325682D01*
X93478153Y-49325685D01*
X93478154Y-49325686D01*
X93686187Y-49485317D01*
X93686192Y-49485320D01*
X93686197Y-49485324D01*
X93913303Y-49616443D01*
X94155581Y-49716798D01*
X94408884Y-49784670D01*
X94668880Y-49818900D01*
X94931120Y-49818900D01*
X95191116Y-49784670D01*
X95444419Y-49716798D01*
X95686697Y-49616443D01*
X95913803Y-49485324D01*
X96121851Y-49325682D01*
X96307282Y-49140251D01*
X96466924Y-48932203D01*
X96598043Y-48705097D01*
X96698398Y-48462819D01*
X96766270Y-48209516D01*
X96800500Y-47949520D01*
X96800500Y-47687280D01*
X99299500Y-47687280D01*
X99299500Y-47949519D01*
X99333729Y-48209512D01*
X99401601Y-48462817D01*
X99501953Y-48705089D01*
X99501955Y-48705093D01*
X99633073Y-48932198D01*
X99633082Y-48932212D01*
X99792713Y-49140245D01*
X99792718Y-49140251D01*
X99978149Y-49325682D01*
X99978153Y-49325685D01*
X99978154Y-49325686D01*
X100186187Y-49485317D01*
X100186192Y-49485320D01*
X100186197Y-49485324D01*
X100413303Y-49616443D01*
X100655581Y-49716798D01*
X100908884Y-49784670D01*
X101168880Y-49818900D01*
X101431120Y-49818900D01*
X101691116Y-49784670D01*
X101944419Y-49716798D01*
X102186697Y-49616443D01*
X102413803Y-49485324D01*
X102621851Y-49325682D01*
X102807282Y-49140251D01*
X102966924Y-48932203D01*
X103098043Y-48705097D01*
X103198398Y-48462819D01*
X103266270Y-48209516D01*
X103300500Y-47949520D01*
X103300500Y-47687280D01*
X103266270Y-47427284D01*
X103198398Y-47173981D01*
X103098043Y-46931703D01*
X102966924Y-46704597D01*
X102966920Y-46704592D01*
X102966917Y-46704587D01*
X102807286Y-46496554D01*
X102807285Y-46496553D01*
X102807282Y-46496549D01*
X102621851Y-46311118D01*
X102621846Y-46311114D01*
X102621845Y-46311113D01*
X102413812Y-46151482D01*
X102413798Y-46151473D01*
X102305977Y-46089223D01*
X102186697Y-46020357D01*
X102186695Y-46020356D01*
X102186693Y-46020355D01*
X102186689Y-46020353D01*
X101944417Y-45920001D01*
X101834730Y-45890611D01*
X101691116Y-45852130D01*
X101691111Y-45852129D01*
X101691114Y-45852129D01*
X101431120Y-45817900D01*
X101168880Y-45817900D01*
X100908887Y-45852129D01*
X100655582Y-45920001D01*
X100413310Y-46020353D01*
X100413306Y-46020355D01*
X100186201Y-46151473D01*
X100186187Y-46151482D01*
X99978154Y-46311113D01*
X99792713Y-46496554D01*
X99633082Y-46704587D01*
X99633073Y-46704601D01*
X99501955Y-46931706D01*
X99501953Y-46931710D01*
X99401601Y-47173982D01*
X99333729Y-47427287D01*
X99299500Y-47687280D01*
X96800500Y-47687280D01*
X96766270Y-47427284D01*
X96698398Y-47173981D01*
X96598043Y-46931703D01*
X96466924Y-46704597D01*
X96466920Y-46704592D01*
X96466917Y-46704587D01*
X96307286Y-46496554D01*
X96307285Y-46496553D01*
X96307282Y-46496549D01*
X96121851Y-46311118D01*
X96121846Y-46311114D01*
X96121845Y-46311113D01*
X95913812Y-46151482D01*
X95913798Y-46151473D01*
X95805977Y-46089223D01*
X95686697Y-46020357D01*
X95686695Y-46020356D01*
X95686693Y-46020355D01*
X95686689Y-46020353D01*
X95444417Y-45920001D01*
X95334730Y-45890611D01*
X95191116Y-45852130D01*
X95191111Y-45852129D01*
X95191114Y-45852129D01*
X94931120Y-45817900D01*
X94668880Y-45817900D01*
X94408887Y-45852129D01*
X94155582Y-45920001D01*
X93913310Y-46020353D01*
X93913306Y-46020355D01*
X93686201Y-46151473D01*
X93686187Y-46151482D01*
X93478154Y-46311113D01*
X93292713Y-46496554D01*
X93133082Y-46704587D01*
X93133073Y-46704601D01*
X93001955Y-46931706D01*
X93001953Y-46931710D01*
X92901601Y-47173982D01*
X92833729Y-47427287D01*
X92799500Y-47687280D01*
X70100400Y-47687280D01*
X70100400Y-43187280D01*
X92799500Y-43187280D01*
X92799500Y-43449519D01*
X92833729Y-43709512D01*
X92901601Y-43962817D01*
X93001953Y-44205089D01*
X93001955Y-44205093D01*
X93133073Y-44432198D01*
X93133082Y-44432212D01*
X93292713Y-44640245D01*
X93292718Y-44640251D01*
X93478149Y-44825682D01*
X93478153Y-44825685D01*
X93478154Y-44825686D01*
X93686187Y-44985317D01*
X93686192Y-44985320D01*
X93686197Y-44985324D01*
X93913303Y-45116443D01*
X94155581Y-45216798D01*
X94408884Y-45284670D01*
X94668880Y-45318900D01*
X94931120Y-45318900D01*
X95191116Y-45284670D01*
X95444419Y-45216798D01*
X95686697Y-45116443D01*
X95913803Y-44985324D01*
X96121851Y-44825682D01*
X96307282Y-44640251D01*
X96466924Y-44432203D01*
X96598043Y-44205097D01*
X96698398Y-43962819D01*
X96766270Y-43709516D01*
X96800500Y-43449520D01*
X96800500Y-43187280D01*
X99299500Y-43187280D01*
X99299500Y-43449519D01*
X99333729Y-43709512D01*
X99401601Y-43962817D01*
X99501953Y-44205089D01*
X99501955Y-44205093D01*
X99633073Y-44432198D01*
X99633082Y-44432212D01*
X99792713Y-44640245D01*
X99792718Y-44640251D01*
X99978149Y-44825682D01*
X99978153Y-44825685D01*
X99978154Y-44825686D01*
X100186187Y-44985317D01*
X100186192Y-44985320D01*
X100186197Y-44985324D01*
X100413303Y-45116443D01*
X100655581Y-45216798D01*
X100908884Y-45284670D01*
X101168880Y-45318900D01*
X101431120Y-45318900D01*
X101691116Y-45284670D01*
X101944419Y-45216798D01*
X102186697Y-45116443D01*
X102413803Y-44985324D01*
X102621851Y-44825682D01*
X102807282Y-44640251D01*
X102966924Y-44432203D01*
X103098043Y-44205097D01*
X103198398Y-43962819D01*
X103266270Y-43709516D01*
X103300500Y-43449520D01*
X103300500Y-43187280D01*
X103266270Y-42927284D01*
X103198398Y-42673981D01*
X103098043Y-42431703D01*
X102966924Y-42204597D01*
X102966920Y-42204592D01*
X102966917Y-42204587D01*
X102807286Y-41996554D01*
X102807285Y-41996553D01*
X102807282Y-41996549D01*
X102621851Y-41811118D01*
X102621846Y-41811114D01*
X102621845Y-41811113D01*
X102413812Y-41651482D01*
X102413798Y-41651473D01*
X102326616Y-41601139D01*
X102186697Y-41520357D01*
X102186695Y-41520356D01*
X102186693Y-41520355D01*
X102186689Y-41520353D01*
X101944417Y-41420001D01*
X101834730Y-41390611D01*
X101691116Y-41352130D01*
X101691111Y-41352129D01*
X101691114Y-41352129D01*
X101431120Y-41317900D01*
X101168880Y-41317900D01*
X100908887Y-41352129D01*
X100655582Y-41420001D01*
X100413310Y-41520353D01*
X100413306Y-41520355D01*
X100186201Y-41651473D01*
X100186187Y-41651482D01*
X99978154Y-41811113D01*
X99792713Y-41996554D01*
X99633082Y-42204587D01*
X99633073Y-42204601D01*
X99501955Y-42431706D01*
X99501953Y-42431710D01*
X99401601Y-42673982D01*
X99333729Y-42927287D01*
X99299500Y-43187280D01*
X96800500Y-43187280D01*
X96766270Y-42927284D01*
X96698398Y-42673981D01*
X96598043Y-42431703D01*
X96466924Y-42204597D01*
X96466920Y-42204592D01*
X96466917Y-42204587D01*
X96307286Y-41996554D01*
X96307285Y-41996553D01*
X96307282Y-41996549D01*
X96121851Y-41811118D01*
X96121846Y-41811114D01*
X96121845Y-41811113D01*
X95913812Y-41651482D01*
X95913798Y-41651473D01*
X95826616Y-41601139D01*
X95686697Y-41520357D01*
X95686695Y-41520356D01*
X95686693Y-41520355D01*
X95686689Y-41520353D01*
X95444417Y-41420001D01*
X95334730Y-41390611D01*
X95191116Y-41352130D01*
X95191111Y-41352129D01*
X95191114Y-41352129D01*
X94931120Y-41317900D01*
X94668880Y-41317900D01*
X94408887Y-41352129D01*
X94155582Y-41420001D01*
X93913310Y-41520353D01*
X93913306Y-41520355D01*
X93686201Y-41651473D01*
X93686187Y-41651482D01*
X93478154Y-41811113D01*
X93292713Y-41996554D01*
X93133082Y-42204587D01*
X93133073Y-42204601D01*
X93001955Y-42431706D01*
X93001953Y-42431710D01*
X92901601Y-42673982D01*
X92833729Y-42927287D01*
X92799500Y-43187280D01*
X70100400Y-43187280D01*
X70100400Y-40168880D01*
X75299500Y-40168880D01*
X75299500Y-40431119D01*
X75333729Y-40691112D01*
X75401601Y-40944417D01*
X75501953Y-41186689D01*
X75501955Y-41186693D01*
X75633073Y-41413798D01*
X75633082Y-41413812D01*
X75792713Y-41621845D01*
X75792718Y-41621851D01*
X75978149Y-41807282D01*
X75978153Y-41807285D01*
X75978154Y-41807286D01*
X76186187Y-41966917D01*
X76186192Y-41966920D01*
X76186197Y-41966924D01*
X76413303Y-42098043D01*
X76655581Y-42198398D01*
X76908884Y-42266270D01*
X77168880Y-42300500D01*
X77431120Y-42300500D01*
X77691116Y-42266270D01*
X77944419Y-42198398D01*
X78186697Y-42098043D01*
X78413803Y-41966924D01*
X78621851Y-41807282D01*
X78807282Y-41621851D01*
X78966924Y-41413803D01*
X79098043Y-41186697D01*
X79198398Y-40944419D01*
X79266270Y-40691116D01*
X79300500Y-40431120D01*
X79300500Y-40168880D01*
X81799500Y-40168880D01*
X81799500Y-40431119D01*
X81833729Y-40691112D01*
X81901601Y-40944417D01*
X82001953Y-41186689D01*
X82001955Y-41186693D01*
X82133073Y-41413798D01*
X82133082Y-41413812D01*
X82292713Y-41621845D01*
X82292718Y-41621851D01*
X82478149Y-41807282D01*
X82478153Y-41807285D01*
X82478154Y-41807286D01*
X82686187Y-41966917D01*
X82686192Y-41966920D01*
X82686197Y-41966924D01*
X82913303Y-42098043D01*
X83155581Y-42198398D01*
X83408884Y-42266270D01*
X83668880Y-42300500D01*
X83931120Y-42300500D01*
X84191116Y-42266270D01*
X84444419Y-42198398D01*
X84686697Y-42098043D01*
X84913803Y-41966924D01*
X85121851Y-41807282D01*
X85307282Y-41621851D01*
X85466924Y-41413803D01*
X85598043Y-41186697D01*
X85698398Y-40944419D01*
X85766270Y-40691116D01*
X85800500Y-40431120D01*
X85800500Y-40168880D01*
X107777100Y-40168880D01*
X107777100Y-40431119D01*
X107811329Y-40691112D01*
X107879201Y-40944417D01*
X107979553Y-41186689D01*
X107979555Y-41186693D01*
X108110673Y-41413798D01*
X108110682Y-41413812D01*
X108270313Y-41621845D01*
X108270318Y-41621851D01*
X108455749Y-41807282D01*
X108455753Y-41807285D01*
X108455754Y-41807286D01*
X108663787Y-41966917D01*
X108663792Y-41966920D01*
X108663797Y-41966924D01*
X108890903Y-42098043D01*
X109133181Y-42198398D01*
X109386484Y-42266270D01*
X109646480Y-42300500D01*
X109908720Y-42300500D01*
X110168716Y-42266270D01*
X110422019Y-42198398D01*
X110664297Y-42098043D01*
X110891403Y-41966924D01*
X111099451Y-41807282D01*
X111284882Y-41621851D01*
X111444524Y-41413803D01*
X111575643Y-41186697D01*
X111675998Y-40944419D01*
X111743870Y-40691116D01*
X111778100Y-40431120D01*
X111778100Y-40168880D01*
X114277100Y-40168880D01*
X114277100Y-40431119D01*
X114311329Y-40691112D01*
X114379201Y-40944417D01*
X114479553Y-41186689D01*
X114479555Y-41186693D01*
X114610673Y-41413798D01*
X114610682Y-41413812D01*
X114770313Y-41621845D01*
X114770318Y-41621851D01*
X114955749Y-41807282D01*
X114955753Y-41807285D01*
X114955754Y-41807286D01*
X115163787Y-41966917D01*
X115163792Y-41966920D01*
X115163797Y-41966924D01*
X115390903Y-42098043D01*
X115633181Y-42198398D01*
X115886484Y-42266270D01*
X116146480Y-42300500D01*
X116408720Y-42300500D01*
X116668716Y-42266270D01*
X116922019Y-42198398D01*
X117164297Y-42098043D01*
X117391403Y-41966924D01*
X117599451Y-41807282D01*
X117784882Y-41621851D01*
X117944524Y-41413803D01*
X118075643Y-41186697D01*
X118175998Y-40944419D01*
X118243870Y-40691116D01*
X118278100Y-40431120D01*
X118278100Y-40168880D01*
X118243870Y-39908884D01*
X118175998Y-39655581D01*
X118075643Y-39413303D01*
X117944524Y-39186197D01*
X117944520Y-39186192D01*
X117944517Y-39186187D01*
X117784886Y-38978154D01*
X117784885Y-38978153D01*
X117784882Y-38978149D01*
X117599451Y-38792718D01*
X117599446Y-38792714D01*
X117599445Y-38792713D01*
X117391412Y-38633082D01*
X117391398Y-38633073D01*
X117330537Y-38597935D01*
X117164297Y-38501957D01*
X117164295Y-38501956D01*
X117164293Y-38501955D01*
X117164289Y-38501953D01*
X116922017Y-38401601D01*
X116812330Y-38372211D01*
X116668716Y-38333730D01*
X116668711Y-38333729D01*
X116668714Y-38333729D01*
X116408720Y-38299500D01*
X116146480Y-38299500D01*
X115886487Y-38333729D01*
X115633182Y-38401601D01*
X115390910Y-38501953D01*
X115390906Y-38501955D01*
X115163801Y-38633073D01*
X115163787Y-38633082D01*
X114955754Y-38792713D01*
X114770313Y-38978154D01*
X114610682Y-39186187D01*
X114610673Y-39186201D01*
X114479555Y-39413306D01*
X114479553Y-39413310D01*
X114379201Y-39655582D01*
X114311329Y-39908887D01*
X114277100Y-40168880D01*
X111778100Y-40168880D01*
X111743870Y-39908884D01*
X111675998Y-39655581D01*
X111575643Y-39413303D01*
X111444524Y-39186197D01*
X111444520Y-39186192D01*
X111444517Y-39186187D01*
X111284886Y-38978154D01*
X111284885Y-38978153D01*
X111284882Y-38978149D01*
X111099451Y-38792718D01*
X111099446Y-38792714D01*
X111099445Y-38792713D01*
X110891412Y-38633082D01*
X110891398Y-38633073D01*
X110830537Y-38597935D01*
X110664297Y-38501957D01*
X110664295Y-38501956D01*
X110664293Y-38501955D01*
X110664289Y-38501953D01*
X110422017Y-38401601D01*
X110312330Y-38372211D01*
X110168716Y-38333730D01*
X110168711Y-38333729D01*
X110168714Y-38333729D01*
X109908720Y-38299500D01*
X109646480Y-38299500D01*
X109386487Y-38333729D01*
X109133182Y-38401601D01*
X108890910Y-38501953D01*
X108890906Y-38501955D01*
X108663801Y-38633073D01*
X108663787Y-38633082D01*
X108455754Y-38792713D01*
X108270313Y-38978154D01*
X108110682Y-39186187D01*
X108110673Y-39186201D01*
X107979555Y-39413306D01*
X107979553Y-39413310D01*
X107879201Y-39655582D01*
X107811329Y-39908887D01*
X107777100Y-40168880D01*
X85800500Y-40168880D01*
X85766270Y-39908884D01*
X85698398Y-39655581D01*
X85598043Y-39413303D01*
X85466924Y-39186197D01*
X85466920Y-39186192D01*
X85466917Y-39186187D01*
X85307286Y-38978154D01*
X85307285Y-38978153D01*
X85307282Y-38978149D01*
X85121851Y-38792718D01*
X85121846Y-38792714D01*
X85121845Y-38792713D01*
X84913812Y-38633082D01*
X84913798Y-38633073D01*
X84852937Y-38597935D01*
X84686697Y-38501957D01*
X84686695Y-38501956D01*
X84686693Y-38501955D01*
X84686689Y-38501953D01*
X84444417Y-38401601D01*
X84334730Y-38372211D01*
X84191116Y-38333730D01*
X84191111Y-38333729D01*
X84191114Y-38333729D01*
X83931120Y-38299500D01*
X83668880Y-38299500D01*
X83408887Y-38333729D01*
X83155582Y-38401601D01*
X82913310Y-38501953D01*
X82913306Y-38501955D01*
X82686201Y-38633073D01*
X82686187Y-38633082D01*
X82478154Y-38792713D01*
X82292713Y-38978154D01*
X82133082Y-39186187D01*
X82133073Y-39186201D01*
X82001955Y-39413306D01*
X82001953Y-39413310D01*
X81901601Y-39655582D01*
X81833729Y-39908887D01*
X81799500Y-40168880D01*
X79300500Y-40168880D01*
X79266270Y-39908884D01*
X79198398Y-39655581D01*
X79098043Y-39413303D01*
X78966924Y-39186197D01*
X78966920Y-39186192D01*
X78966917Y-39186187D01*
X78807286Y-38978154D01*
X78807285Y-38978153D01*
X78807282Y-38978149D01*
X78621851Y-38792718D01*
X78621846Y-38792714D01*
X78621845Y-38792713D01*
X78413812Y-38633082D01*
X78413798Y-38633073D01*
X78352937Y-38597935D01*
X78186697Y-38501957D01*
X78186695Y-38501956D01*
X78186693Y-38501955D01*
X78186689Y-38501953D01*
X77944417Y-38401601D01*
X77834730Y-38372211D01*
X77691116Y-38333730D01*
X77691111Y-38333729D01*
X77691114Y-38333729D01*
X77431120Y-38299500D01*
X77168880Y-38299500D01*
X76908887Y-38333729D01*
X76655582Y-38401601D01*
X76413310Y-38501953D01*
X76413306Y-38501955D01*
X76186201Y-38633073D01*
X76186187Y-38633082D01*
X75978154Y-38792713D01*
X75792713Y-38978154D01*
X75633082Y-39186187D01*
X75633073Y-39186201D01*
X75501955Y-39413306D01*
X75501953Y-39413310D01*
X75401601Y-39655582D01*
X75333729Y-39908887D01*
X75299500Y-40168880D01*
X70100400Y-40168880D01*
X70100400Y-35668880D01*
X75299500Y-35668880D01*
X75299500Y-35931119D01*
X75333729Y-36191112D01*
X75401601Y-36444417D01*
X75501953Y-36686689D01*
X75501955Y-36686693D01*
X75501957Y-36686697D01*
X75597935Y-36852937D01*
X75633073Y-36913798D01*
X75633082Y-36913812D01*
X75792713Y-37121845D01*
X75792718Y-37121851D01*
X75978149Y-37307282D01*
X75978153Y-37307285D01*
X75978154Y-37307286D01*
X76186187Y-37466917D01*
X76186192Y-37466920D01*
X76186197Y-37466924D01*
X76413303Y-37598043D01*
X76655581Y-37698398D01*
X76908884Y-37766270D01*
X77168880Y-37800500D01*
X77431120Y-37800500D01*
X77691116Y-37766270D01*
X77944419Y-37698398D01*
X78186697Y-37598043D01*
X78413803Y-37466924D01*
X78621851Y-37307282D01*
X78807282Y-37121851D01*
X78966924Y-36913803D01*
X79098043Y-36686697D01*
X79198398Y-36444419D01*
X79266270Y-36191116D01*
X79300500Y-35931120D01*
X79300500Y-35668880D01*
X81799500Y-35668880D01*
X81799500Y-35931119D01*
X81833729Y-36191112D01*
X81901601Y-36444417D01*
X82001953Y-36686689D01*
X82001955Y-36686693D01*
X82001957Y-36686697D01*
X82097935Y-36852937D01*
X82133073Y-36913798D01*
X82133082Y-36913812D01*
X82292713Y-37121845D01*
X82292718Y-37121851D01*
X82478149Y-37307282D01*
X82478153Y-37307285D01*
X82478154Y-37307286D01*
X82686187Y-37466917D01*
X82686192Y-37466920D01*
X82686197Y-37466924D01*
X82913303Y-37598043D01*
X83155581Y-37698398D01*
X83408884Y-37766270D01*
X83668880Y-37800500D01*
X83931120Y-37800500D01*
X84191116Y-37766270D01*
X84444419Y-37698398D01*
X84686697Y-37598043D01*
X84913803Y-37466924D01*
X85121851Y-37307282D01*
X85307282Y-37121851D01*
X85466924Y-36913803D01*
X85598043Y-36686697D01*
X85698398Y-36444419D01*
X85766270Y-36191116D01*
X85800500Y-35931120D01*
X85800500Y-35668880D01*
X85766270Y-35408884D01*
X85698398Y-35155581D01*
X85598043Y-34913303D01*
X85466924Y-34686197D01*
X85466920Y-34686192D01*
X85466917Y-34686187D01*
X85307286Y-34478154D01*
X85307285Y-34478153D01*
X85307282Y-34478149D01*
X85121851Y-34292718D01*
X85121846Y-34292714D01*
X85121845Y-34292713D01*
X84913812Y-34133082D01*
X84913798Y-34133073D01*
X84730705Y-34027365D01*
X84686697Y-34001957D01*
X84686695Y-34001956D01*
X84686693Y-34001955D01*
X84686689Y-34001953D01*
X84444417Y-33901601D01*
X84334730Y-33872211D01*
X84191116Y-33833730D01*
X84191111Y-33833729D01*
X84191114Y-33833729D01*
X83931120Y-33799500D01*
X83668880Y-33799500D01*
X83408887Y-33833729D01*
X83155582Y-33901601D01*
X82913310Y-34001953D01*
X82913306Y-34001955D01*
X82686201Y-34133073D01*
X82686187Y-34133082D01*
X82478154Y-34292713D01*
X82292713Y-34478154D01*
X82133082Y-34686187D01*
X82133073Y-34686201D01*
X82001955Y-34913306D01*
X82001953Y-34913310D01*
X81901601Y-35155582D01*
X81833729Y-35408887D01*
X81799500Y-35668880D01*
X79300500Y-35668880D01*
X79266270Y-35408884D01*
X79198398Y-35155581D01*
X79098043Y-34913303D01*
X78966924Y-34686197D01*
X78966920Y-34686192D01*
X78966917Y-34686187D01*
X78807286Y-34478154D01*
X78807285Y-34478153D01*
X78807282Y-34478149D01*
X78621851Y-34292718D01*
X78621846Y-34292714D01*
X78621845Y-34292713D01*
X78413812Y-34133082D01*
X78413798Y-34133073D01*
X78230705Y-34027365D01*
X78186697Y-34001957D01*
X78186695Y-34001956D01*
X78186693Y-34001955D01*
X78186689Y-34001953D01*
X77944417Y-33901601D01*
X77834730Y-33872211D01*
X77691116Y-33833730D01*
X77691111Y-33833729D01*
X77691114Y-33833729D01*
X77431120Y-33799500D01*
X77168880Y-33799500D01*
X76908887Y-33833729D01*
X76655582Y-33901601D01*
X76413310Y-34001953D01*
X76413306Y-34001955D01*
X76186201Y-34133073D01*
X76186187Y-34133082D01*
X75978154Y-34292713D01*
X75792713Y-34478154D01*
X75633082Y-34686187D01*
X75633073Y-34686201D01*
X75501955Y-34913306D01*
X75501953Y-34913310D01*
X75401601Y-35155582D01*
X75333729Y-35408887D01*
X75299500Y-35668880D01*
X70100400Y-35668880D01*
X70100400Y-33489900D01*
X70119354Y-33394612D01*
X70173330Y-33313830D01*
X70254112Y-33259854D01*
X70349400Y-33240900D01*
X95990477Y-33240900D01*
X96085765Y-33259854D01*
G37*
%TD.AperFunction*%
%TD*%
%TA.AperFunction,Conductor*%
%TO.N,GND*%
G36*
X83307488Y-59431754D02*
G01*
X83388270Y-59485730D01*
X83442246Y-59566512D01*
X83461200Y-59661800D01*
X83442246Y-59757088D01*
X83388272Y-59837866D01*
X83388269Y-59837870D01*
X83102208Y-60123930D01*
X83007732Y-60218406D01*
X83007727Y-60218412D01*
X82932125Y-60331557D01*
X82928817Y-60340804D01*
X82882366Y-60452946D01*
X82856300Y-60583994D01*
X82856300Y-62553376D01*
X82837346Y-62648664D01*
X82783370Y-62729446D01*
X82756527Y-62752705D01*
X82753525Y-62754952D01*
X82752055Y-62756053D01*
X82752053Y-62756055D01*
X82665804Y-62871269D01*
X82615508Y-63006118D01*
X82609100Y-63065723D01*
X82609100Y-65511465D01*
X82609100Y-65511468D01*
X82609101Y-65511472D01*
X82609274Y-65513078D01*
X82615508Y-65571080D01*
X82615509Y-65571084D01*
X82665804Y-65705932D01*
X82707162Y-65761178D01*
X82749094Y-65848818D01*
X82754295Y-65945834D01*
X82721974Y-66037455D01*
X82657051Y-66109733D01*
X82569411Y-66151665D01*
X82536388Y-66155812D01*
X82532800Y-66159401D01*
X82532800Y-68109398D01*
X82600824Y-68177422D01*
X82654800Y-68258204D01*
X82673754Y-68353492D01*
X82663868Y-68422958D01*
X82654203Y-68456224D01*
X82654201Y-68456236D01*
X82651300Y-68493095D01*
X82651300Y-70274504D01*
X82654201Y-70311363D01*
X82654203Y-70311375D01*
X82703526Y-70481144D01*
X82711909Y-70577937D01*
X82682613Y-70670570D01*
X82620099Y-70744940D01*
X82533882Y-70789726D01*
X82437089Y-70798109D01*
X82344456Y-70768813D01*
X82288347Y-70726686D01*
X81520591Y-69958930D01*
X81474047Y-69927830D01*
X81419438Y-69891341D01*
X81409498Y-69884699D01*
X81409496Y-69884698D01*
X81373340Y-69869721D01*
X81326936Y-69850500D01*
X81286056Y-69833567D01*
X81286054Y-69833566D01*
X81286053Y-69833566D01*
X81155007Y-69807500D01*
X81155004Y-69807500D01*
X79849499Y-69807500D01*
X79754211Y-69788546D01*
X79673429Y-69734570D01*
X79619453Y-69653788D01*
X79600499Y-69558500D01*
X79600499Y-69402134D01*
X79600499Y-69402128D01*
X79594091Y-69342517D01*
X79543796Y-69207669D01*
X79457546Y-69092454D01*
X79342331Y-69006204D01*
X79257213Y-68974457D01*
X79207481Y-68955908D01*
X79147873Y-68949500D01*
X77052134Y-68949500D01*
X77052130Y-68949500D01*
X77052128Y-68949501D01*
X77039314Y-68950878D01*
X76992519Y-68955908D01*
X76992514Y-68955909D01*
X76926314Y-68980601D01*
X76901395Y-68988433D01*
X76870846Y-68996300D01*
X76772291Y-68996300D01*
X76672942Y-69016062D01*
X76636338Y-69023343D01*
X76508273Y-69076389D01*
X76475934Y-69097996D01*
X76434915Y-69108560D01*
X76427888Y-69108951D01*
X76421388Y-69111644D01*
X76379620Y-69111642D01*
X76337911Y-69113968D01*
X76331270Y-69111641D01*
X76324233Y-69111641D01*
X76285639Y-69095653D01*
X76246221Y-69081842D01*
X76240976Y-69077151D01*
X76234475Y-69074458D01*
X76204939Y-69044921D01*
X76173804Y-69017074D01*
X76170753Y-69010732D01*
X76165778Y-69005757D01*
X76149788Y-68967151D01*
X76131686Y-68929523D01*
X76131294Y-68922502D01*
X76128604Y-68916006D01*
X76121658Y-68881087D01*
X76065084Y-68744505D01*
X75982951Y-68621584D01*
X75878416Y-68517049D01*
X75855347Y-68501635D01*
X75787500Y-68456301D01*
X75755495Y-68434916D01*
X75618913Y-68378342D01*
X75618911Y-68378341D01*
X75473920Y-68349500D01*
X75473918Y-68349500D01*
X75326082Y-68349500D01*
X75326079Y-68349500D01*
X75181088Y-68378341D01*
X75044507Y-68434915D01*
X75044503Y-68434917D01*
X74921587Y-68517046D01*
X74817046Y-68621587D01*
X74734917Y-68744503D01*
X74734915Y-68744507D01*
X74678341Y-68881088D01*
X74649500Y-69026079D01*
X74649500Y-69173920D01*
X74678341Y-69318911D01*
X74678342Y-69318913D01*
X74734916Y-69455495D01*
X74734917Y-69455496D01*
X74811342Y-69569876D01*
X74817049Y-69578416D01*
X74921584Y-69682951D01*
X75044505Y-69765084D01*
X75181087Y-69821658D01*
X75326080Y-69850499D01*
X75326081Y-69850500D01*
X75326082Y-69850500D01*
X75473919Y-69850500D01*
X75473919Y-69850499D01*
X75582175Y-69828965D01*
X75618909Y-69821659D01*
X75618909Y-69821658D01*
X75618913Y-69821658D01*
X75647813Y-69809687D01*
X75743097Y-69790733D01*
X75838385Y-69809686D01*
X75919167Y-69863661D01*
X75973145Y-69944442D01*
X75992100Y-70039730D01*
X75992100Y-72560266D01*
X75973146Y-72655554D01*
X75919170Y-72736336D01*
X75838388Y-72790312D01*
X75743100Y-72809266D01*
X75647814Y-72790313D01*
X75630774Y-72783255D01*
X75618913Y-72778342D01*
X75618911Y-72778341D01*
X75618910Y-72778341D01*
X75473920Y-72749500D01*
X75473918Y-72749500D01*
X75326082Y-72749500D01*
X75326079Y-72749500D01*
X75181088Y-72778341D01*
X75044507Y-72834915D01*
X75044503Y-72834917D01*
X74921587Y-72917046D01*
X74817046Y-73021587D01*
X74734917Y-73144503D01*
X74734915Y-73144507D01*
X74678341Y-73281088D01*
X74649500Y-73426079D01*
X74649500Y-73573920D01*
X74678341Y-73718911D01*
X74678342Y-73718913D01*
X74734916Y-73855495D01*
X74763985Y-73899000D01*
X74807899Y-73964723D01*
X74817049Y-73978416D01*
X74921584Y-74082951D01*
X75044505Y-74165084D01*
X75181087Y-74221658D01*
X75326080Y-74250499D01*
X75326081Y-74250500D01*
X75326082Y-74250500D01*
X75473919Y-74250500D01*
X75473919Y-74250499D01*
X75582175Y-74228965D01*
X75618909Y-74221659D01*
X75618909Y-74221658D01*
X75618913Y-74221658D01*
X75647813Y-74209687D01*
X75743097Y-74190733D01*
X75838385Y-74209686D01*
X75919167Y-74263661D01*
X75973145Y-74344442D01*
X75992100Y-74439730D01*
X75992100Y-77024593D01*
X75992099Y-77024619D01*
X75992099Y-77173510D01*
X76019142Y-77309459D01*
X76072186Y-77437521D01*
X76072187Y-77437523D01*
X76072189Y-77437527D01*
X76149200Y-77552783D01*
X76247217Y-77650800D01*
X76247220Y-77650802D01*
X77294548Y-78698130D01*
X77348524Y-78778912D01*
X77367478Y-78874200D01*
X77348524Y-78969488D01*
X77294548Y-79050270D01*
X77213766Y-79104246D01*
X77118478Y-79123200D01*
X69989900Y-79123200D01*
X69894612Y-79104246D01*
X69813830Y-79050270D01*
X69759854Y-78969488D01*
X69740900Y-78874200D01*
X69740900Y-76000001D01*
X71200000Y-76000001D01*
X71200000Y-76797832D01*
X71206401Y-76857371D01*
X71206403Y-76857378D01*
X71256646Y-76992087D01*
X71342810Y-77107187D01*
X71342812Y-77107189D01*
X71457912Y-77193353D01*
X71592621Y-77243596D01*
X71592628Y-77243598D01*
X71652167Y-77249999D01*
X71652175Y-77250000D01*
X72299999Y-77250000D01*
X72300000Y-77249999D01*
X72300000Y-76000001D01*
X72800000Y-76000001D01*
X72800000Y-77249999D01*
X72800001Y-77250000D01*
X73447825Y-77250000D01*
X73447832Y-77249999D01*
X73507371Y-77243598D01*
X73507378Y-77243596D01*
X73642087Y-77193353D01*
X73757187Y-77107189D01*
X73757189Y-77107187D01*
X73843353Y-76992087D01*
X73893596Y-76857378D01*
X73893598Y-76857371D01*
X73899999Y-76797832D01*
X73900000Y-76797825D01*
X73900000Y-76000001D01*
X73899999Y-76000000D01*
X72800001Y-76000000D01*
X72800000Y-76000001D01*
X72300000Y-76000001D01*
X72299999Y-76000000D01*
X71200001Y-76000000D01*
X71200000Y-76000001D01*
X69740900Y-76000001D01*
X69740900Y-74702167D01*
X71200000Y-74702167D01*
X71200000Y-75499999D01*
X71200001Y-75500000D01*
X72299999Y-75500000D01*
X72300000Y-75499999D01*
X72300000Y-74250001D01*
X72800000Y-74250001D01*
X72800000Y-75499999D01*
X72800001Y-75500000D01*
X73899999Y-75500000D01*
X73900000Y-75499999D01*
X73900000Y-74702175D01*
X73899999Y-74702167D01*
X73893598Y-74642628D01*
X73893596Y-74642621D01*
X73843353Y-74507912D01*
X73757189Y-74392812D01*
X73757187Y-74392810D01*
X73642087Y-74306646D01*
X73507378Y-74256403D01*
X73507371Y-74256401D01*
X73447832Y-74250000D01*
X72800001Y-74250000D01*
X72800000Y-74250001D01*
X72300000Y-74250001D01*
X72299999Y-74250000D01*
X71652167Y-74250000D01*
X71592628Y-74256401D01*
X71592621Y-74256403D01*
X71457912Y-74306646D01*
X71342812Y-74392810D01*
X71342810Y-74392812D01*
X71256646Y-74507912D01*
X71206403Y-74642621D01*
X71206401Y-74642628D01*
X71200000Y-74702167D01*
X69740900Y-74702167D01*
X69740900Y-67100001D01*
X71200000Y-67100001D01*
X71200000Y-67897832D01*
X71206401Y-67957371D01*
X71206403Y-67957378D01*
X71256646Y-68092087D01*
X71342810Y-68207187D01*
X71342812Y-68207189D01*
X71457912Y-68293353D01*
X71592621Y-68343596D01*
X71592628Y-68343598D01*
X71652167Y-68349999D01*
X71652175Y-68350000D01*
X72299999Y-68350000D01*
X72300000Y-68349999D01*
X72300000Y-67100001D01*
X72800000Y-67100001D01*
X72800000Y-68349999D01*
X72800001Y-68350000D01*
X73447825Y-68350000D01*
X73447832Y-68349999D01*
X73507371Y-68343598D01*
X73507378Y-68343596D01*
X73642087Y-68293353D01*
X73757187Y-68207189D01*
X73757189Y-68207187D01*
X73843353Y-68092087D01*
X73893596Y-67957378D01*
X73893598Y-67957371D01*
X73899999Y-67897832D01*
X73900000Y-67897825D01*
X73900000Y-67100001D01*
X76650000Y-67100001D01*
X76650000Y-67897832D01*
X76656401Y-67957371D01*
X76656403Y-67957378D01*
X76706646Y-68092087D01*
X76792810Y-68207187D01*
X76792812Y-68207189D01*
X76907912Y-68293353D01*
X77042621Y-68343596D01*
X77042628Y-68343598D01*
X77102167Y-68349999D01*
X77102175Y-68350000D01*
X77749999Y-68350000D01*
X77750000Y-68349999D01*
X77750000Y-67100001D01*
X78250000Y-67100001D01*
X78250000Y-68349999D01*
X78250001Y-68350000D01*
X78897825Y-68350000D01*
X78897832Y-68349999D01*
X78957371Y-68343598D01*
X78957378Y-68343596D01*
X79092087Y-68293353D01*
X79207187Y-68207189D01*
X79207189Y-68207187D01*
X79293353Y-68092087D01*
X79343596Y-67957378D01*
X79343598Y-67957371D01*
X79349999Y-67897832D01*
X79350000Y-67897825D01*
X79350000Y-67384401D01*
X81332801Y-67384401D01*
X81332801Y-67432720D01*
X81342944Y-67532009D01*
X81342945Y-67532012D01*
X81396251Y-67692880D01*
X81485225Y-67837129D01*
X81605070Y-67956974D01*
X81749316Y-68045946D01*
X81910196Y-68099255D01*
X82009487Y-68109399D01*
X82009488Y-68109399D01*
X82032800Y-68109398D01*
X82032800Y-67384401D01*
X82032799Y-67384400D01*
X81332802Y-67384400D01*
X81332801Y-67384401D01*
X79350000Y-67384401D01*
X79350000Y-67315511D01*
X79289569Y-67100000D01*
X78250001Y-67100000D01*
X78250000Y-67100001D01*
X77750000Y-67100001D01*
X77749999Y-67100000D01*
X76650001Y-67100000D01*
X76650000Y-67100001D01*
X73900000Y-67100001D01*
X73899999Y-67100000D01*
X72800001Y-67100000D01*
X72800000Y-67100001D01*
X72300000Y-67100001D01*
X72299999Y-67100000D01*
X71200001Y-67100000D01*
X71200000Y-67100001D01*
X69740900Y-67100001D01*
X69740900Y-66836082D01*
X81332800Y-66836082D01*
X81332800Y-66884399D01*
X81332801Y-66884400D01*
X82032799Y-66884400D01*
X82032800Y-66884399D01*
X82032800Y-66159400D01*
X82032799Y-66159399D01*
X82009488Y-66159400D01*
X81910189Y-66169544D01*
X81910187Y-66169545D01*
X81749319Y-66222851D01*
X81605070Y-66311825D01*
X81485225Y-66431670D01*
X81396253Y-66575916D01*
X81342944Y-66736796D01*
X81332800Y-66836082D01*
X69740900Y-66836082D01*
X69740900Y-65802167D01*
X71200000Y-65802167D01*
X71200000Y-66599999D01*
X71200001Y-66600000D01*
X72299999Y-66600000D01*
X72300000Y-66599999D01*
X72300000Y-65350001D01*
X72800000Y-65350001D01*
X72800000Y-66599999D01*
X72800001Y-66600000D01*
X73899999Y-66600000D01*
X73900000Y-66599999D01*
X73900000Y-65802175D01*
X73899999Y-65802167D01*
X76650000Y-65802167D01*
X76650000Y-66599999D01*
X76650001Y-66600000D01*
X77749999Y-66600000D01*
X77750000Y-66599999D01*
X77750000Y-65350001D01*
X78250000Y-65350001D01*
X78250000Y-66599999D01*
X78250001Y-66600000D01*
X79349999Y-66600000D01*
X79350000Y-66599999D01*
X79350000Y-65802175D01*
X79349999Y-65802167D01*
X79343598Y-65742628D01*
X79343596Y-65742621D01*
X79293353Y-65607912D01*
X79207189Y-65492812D01*
X79207187Y-65492810D01*
X79092087Y-65406646D01*
X78957378Y-65356403D01*
X78957371Y-65356401D01*
X78897832Y-65350000D01*
X78250001Y-65350000D01*
X78250000Y-65350001D01*
X77750000Y-65350001D01*
X77749999Y-65350000D01*
X77102167Y-65350000D01*
X77042628Y-65356401D01*
X77042621Y-65356403D01*
X76907912Y-65406646D01*
X76792812Y-65492810D01*
X76792810Y-65492812D01*
X76706646Y-65607912D01*
X76656403Y-65742621D01*
X76656401Y-65742628D01*
X76650000Y-65802167D01*
X73899999Y-65802167D01*
X73893598Y-65742628D01*
X73893596Y-65742621D01*
X73843353Y-65607912D01*
X73757189Y-65492812D01*
X73757187Y-65492810D01*
X73642087Y-65406646D01*
X73507378Y-65356403D01*
X73507371Y-65356401D01*
X73447832Y-65350000D01*
X72800001Y-65350000D01*
X72800000Y-65350001D01*
X72300000Y-65350001D01*
X72299999Y-65350000D01*
X71652167Y-65350000D01*
X71592628Y-65356401D01*
X71592621Y-65356403D01*
X71457912Y-65406646D01*
X71342812Y-65492810D01*
X71342810Y-65492812D01*
X71256646Y-65607912D01*
X71206403Y-65742621D01*
X71206401Y-65742628D01*
X71200000Y-65802167D01*
X69740900Y-65802167D01*
X69740900Y-59661800D01*
X69759854Y-59566512D01*
X69813830Y-59485730D01*
X69894612Y-59431754D01*
X69989900Y-59412800D01*
X83212200Y-59412800D01*
X83307488Y-59431754D01*
G37*
%TD.AperFunction*%
%TA.AperFunction,Conductor*%
G36*
X121297748Y-59431754D02*
G01*
X121378530Y-59485730D01*
X122266270Y-60373470D01*
X122320246Y-60454252D01*
X122339200Y-60549540D01*
X122339200Y-78258060D01*
X122320246Y-78353348D01*
X122266270Y-78434130D01*
X121650130Y-79050270D01*
X121569348Y-79104246D01*
X121474060Y-79123200D01*
X109508321Y-79123200D01*
X109413033Y-79104246D01*
X109332251Y-79050270D01*
X109278275Y-78969488D01*
X109259321Y-78874200D01*
X109278275Y-78778912D01*
X109332251Y-78698130D01*
X109772321Y-78258060D01*
X111205379Y-76825002D01*
X111205383Y-76825000D01*
X111303400Y-76726983D01*
X111380411Y-76611727D01*
X111433457Y-76483662D01*
X111444620Y-76427543D01*
X111459708Y-76351694D01*
X111465778Y-76337042D01*
X111477375Y-76309044D01*
X111496888Y-76261936D01*
X111496889Y-76261934D01*
X111496890Y-76261933D01*
X111535901Y-76222924D01*
X111565588Y-76193238D01*
X111565589Y-76193237D01*
X111565591Y-76193236D01*
X111651111Y-76157814D01*
X111655348Y-76156059D01*
X111655351Y-76156058D01*
X111703930Y-76156059D01*
X111752503Y-76156060D01*
X111752505Y-76156060D01*
X111752506Y-76156061D01*
X111765315Y-76161367D01*
X111842262Y-76193240D01*
X111842263Y-76193241D01*
X111842265Y-76193242D01*
X111871945Y-76222924D01*
X111910960Y-76261940D01*
X111937224Y-76313259D01*
X111944246Y-76332087D01*
X112030410Y-76447187D01*
X112030412Y-76447189D01*
X112145512Y-76533353D01*
X112280221Y-76583596D01*
X112280228Y-76583598D01*
X112339767Y-76589999D01*
X112339775Y-76590000D01*
X112637599Y-76590000D01*
X112637600Y-76589999D01*
X112637600Y-75965001D01*
X113137600Y-75965001D01*
X113137600Y-76589999D01*
X113137601Y-76590000D01*
X113435425Y-76590000D01*
X113435432Y-76589999D01*
X113494971Y-76583598D01*
X113494978Y-76583596D01*
X113629687Y-76533353D01*
X113744787Y-76447189D01*
X113744789Y-76447187D01*
X113830953Y-76332087D01*
X113881196Y-76197378D01*
X113881198Y-76197371D01*
X113887599Y-76137832D01*
X113887600Y-76137825D01*
X113887600Y-75965001D01*
X117887600Y-75965001D01*
X117887600Y-76137832D01*
X117894001Y-76197371D01*
X117894003Y-76197378D01*
X117944246Y-76332087D01*
X118030410Y-76447187D01*
X118030412Y-76447189D01*
X118145512Y-76533353D01*
X118280221Y-76583596D01*
X118280228Y-76583598D01*
X118339767Y-76589999D01*
X118339775Y-76590000D01*
X118637599Y-76590000D01*
X118637600Y-76589999D01*
X118637600Y-75965001D01*
X119137600Y-75965001D01*
X119137600Y-76589999D01*
X119137601Y-76590000D01*
X119435425Y-76590000D01*
X119435432Y-76589999D01*
X119494971Y-76583598D01*
X119494978Y-76583596D01*
X119629687Y-76533353D01*
X119744787Y-76447189D01*
X119744789Y-76447187D01*
X119830953Y-76332087D01*
X119881196Y-76197378D01*
X119881198Y-76197371D01*
X119887599Y-76137832D01*
X119887600Y-76137825D01*
X119887600Y-75965001D01*
X119887599Y-75965000D01*
X119137601Y-75965000D01*
X119137600Y-75965001D01*
X118637600Y-75965001D01*
X118637599Y-75965000D01*
X117887601Y-75965000D01*
X117887600Y-75965001D01*
X113887600Y-75965001D01*
X113887599Y-75965000D01*
X113137601Y-75965000D01*
X113137600Y-75965001D01*
X112637600Y-75965001D01*
X112637600Y-74840001D01*
X113137600Y-74840001D01*
X113137600Y-75464999D01*
X113137601Y-75465000D01*
X113887599Y-75465000D01*
X113887600Y-75464999D01*
X113887600Y-75292175D01*
X113887599Y-75292167D01*
X117887600Y-75292167D01*
X117887600Y-75464999D01*
X117887601Y-75465000D01*
X118637599Y-75465000D01*
X118637600Y-75464999D01*
X118637600Y-74840001D01*
X119137600Y-74840001D01*
X119137600Y-75464999D01*
X119137601Y-75465000D01*
X119887599Y-75465000D01*
X119887600Y-75464999D01*
X119887600Y-75292175D01*
X119887599Y-75292167D01*
X119881198Y-75232628D01*
X119881196Y-75232621D01*
X119830953Y-75097912D01*
X119744789Y-74982812D01*
X119744787Y-74982810D01*
X119629687Y-74896646D01*
X119494978Y-74846403D01*
X119494971Y-74846401D01*
X119435432Y-74840000D01*
X119137601Y-74840000D01*
X119137600Y-74840001D01*
X118637600Y-74840001D01*
X118637599Y-74840000D01*
X118339767Y-74840000D01*
X118280228Y-74846401D01*
X118280221Y-74846403D01*
X118145512Y-74896646D01*
X118030412Y-74982810D01*
X118030410Y-74982812D01*
X117944246Y-75097912D01*
X117894003Y-75232621D01*
X117894001Y-75232628D01*
X117887600Y-75292167D01*
X113887599Y-75292167D01*
X113881198Y-75232628D01*
X113881196Y-75232621D01*
X113830953Y-75097912D01*
X113744789Y-74982812D01*
X113744787Y-74982810D01*
X113629687Y-74896646D01*
X113494978Y-74846403D01*
X113494971Y-74846401D01*
X113435432Y-74840000D01*
X113137601Y-74840000D01*
X113137600Y-74840001D01*
X112637600Y-74840001D01*
X112637599Y-74840000D01*
X112339767Y-74840000D01*
X112280228Y-74846401D01*
X112280221Y-74846403D01*
X112145512Y-74896646D01*
X112030412Y-74982810D01*
X112030410Y-74982812D01*
X111944245Y-75097914D01*
X111942800Y-75101789D01*
X111937014Y-75111155D01*
X111935711Y-75113542D01*
X111935583Y-75113472D01*
X111891742Y-75184445D01*
X111812938Y-75241270D01*
X111718387Y-75263613D01*
X111622483Y-75248072D01*
X111539827Y-75197014D01*
X111483002Y-75118210D01*
X111460659Y-75023659D01*
X111460500Y-75014772D01*
X111460500Y-72666656D01*
X111479454Y-72571368D01*
X111533430Y-72490586D01*
X111614212Y-72436610D01*
X111709500Y-72417656D01*
X111804788Y-72436610D01*
X111885570Y-72490586D01*
X111939546Y-72571368D01*
X111942801Y-72579642D01*
X111943804Y-72582331D01*
X112030054Y-72697546D01*
X112145269Y-72783796D01*
X112280117Y-72834091D01*
X112339727Y-72840500D01*
X113435472Y-72840499D01*
X113495083Y-72834091D01*
X113629931Y-72783796D01*
X113673992Y-72750812D01*
X113717335Y-72718366D01*
X113804976Y-72676435D01*
X113866556Y-72668700D01*
X117908644Y-72668700D01*
X118003932Y-72687654D01*
X118057865Y-72718366D01*
X118133635Y-72775087D01*
X118145269Y-72783796D01*
X118280117Y-72834091D01*
X118339727Y-72840500D01*
X119435472Y-72840499D01*
X119495083Y-72834091D01*
X119629931Y-72783796D01*
X119745146Y-72697546D01*
X119831396Y-72582331D01*
X119881691Y-72447483D01*
X119888100Y-72387873D01*
X119888099Y-71542128D01*
X119881691Y-71482517D01*
X119831396Y-71347669D01*
X119745146Y-71232454D01*
X119629931Y-71146204D01*
X119548290Y-71115754D01*
X119495081Y-71095908D01*
X119435473Y-71089500D01*
X118339734Y-71089500D01*
X118339730Y-71089500D01*
X118339728Y-71089501D01*
X118326914Y-71090878D01*
X118280119Y-71095908D01*
X118280115Y-71095909D01*
X118145267Y-71146204D01*
X118057865Y-71211634D01*
X117970224Y-71253565D01*
X117908644Y-71261300D01*
X113866556Y-71261300D01*
X113771268Y-71242346D01*
X113717335Y-71211634D01*
X113629933Y-71146205D01*
X113629931Y-71146204D01*
X113548290Y-71115754D01*
X113495081Y-71095908D01*
X113435476Y-71089500D01*
X113435473Y-71089500D01*
X113110422Y-71089500D01*
X113015134Y-71070546D01*
X112934352Y-71016570D01*
X112346230Y-70428448D01*
X112292254Y-70347666D01*
X112273300Y-70252378D01*
X112273300Y-68914699D01*
X112292254Y-68819411D01*
X112346230Y-68738629D01*
X112427012Y-68684653D01*
X112522295Y-68665699D01*
X113435472Y-68665699D01*
X113495083Y-68659291D01*
X113629931Y-68608996D01*
X113653699Y-68591202D01*
X113717335Y-68543566D01*
X113804976Y-68501635D01*
X113866556Y-68493900D01*
X117908644Y-68493900D01*
X118003932Y-68512854D01*
X118057865Y-68543566D01*
X118141869Y-68606451D01*
X118145269Y-68608996D01*
X118280117Y-68659291D01*
X118339727Y-68665700D01*
X119435472Y-68665699D01*
X119495083Y-68659291D01*
X119629931Y-68608996D01*
X119745146Y-68522746D01*
X119831396Y-68407531D01*
X119881691Y-68272683D01*
X119888100Y-68213073D01*
X119888099Y-67367328D01*
X119881691Y-67307717D01*
X119831396Y-67172869D01*
X119745146Y-67057654D01*
X119629931Y-66971404D01*
X119549717Y-66941486D01*
X119495081Y-66921108D01*
X119435473Y-66914700D01*
X118339734Y-66914700D01*
X118339730Y-66914700D01*
X118339728Y-66914701D01*
X118326914Y-66916078D01*
X118280119Y-66921108D01*
X118280115Y-66921109D01*
X118145267Y-66971404D01*
X118057865Y-67036834D01*
X117970224Y-67078765D01*
X117908644Y-67086500D01*
X113866556Y-67086500D01*
X113836042Y-67080430D01*
X113804977Y-67078765D01*
X113788828Y-67071038D01*
X113771268Y-67067546D01*
X113717336Y-67036835D01*
X113691080Y-67017180D01*
X113626156Y-66944902D01*
X113593834Y-66853281D01*
X113591300Y-66817845D01*
X113591300Y-66503491D01*
X113589278Y-66493327D01*
X113578967Y-66441492D01*
X113564257Y-66367538D01*
X113511211Y-66239473D01*
X113492743Y-66211834D01*
X113434200Y-66124217D01*
X113434198Y-66124214D01*
X113329935Y-66019952D01*
X113329934Y-66019952D01*
X112607460Y-65297478D01*
X112553484Y-65216696D01*
X112534530Y-65121408D01*
X112553484Y-65026120D01*
X112607460Y-64945338D01*
X112607461Y-64945338D01*
X112637600Y-64915199D01*
X112637600Y-64290201D01*
X113137600Y-64290201D01*
X113137600Y-64915199D01*
X113137601Y-64915200D01*
X113435425Y-64915200D01*
X113435432Y-64915199D01*
X113494971Y-64908798D01*
X113494978Y-64908796D01*
X113629687Y-64858553D01*
X113744787Y-64772389D01*
X113744789Y-64772387D01*
X113830953Y-64657287D01*
X113881196Y-64522578D01*
X113881198Y-64522571D01*
X113887599Y-64463032D01*
X113887600Y-64463025D01*
X113887600Y-64290201D01*
X117887600Y-64290201D01*
X117887600Y-64463032D01*
X117894001Y-64522571D01*
X117894003Y-64522578D01*
X117944246Y-64657287D01*
X118030410Y-64772387D01*
X118030412Y-64772389D01*
X118145512Y-64858553D01*
X118280221Y-64908796D01*
X118280228Y-64908798D01*
X118339767Y-64915199D01*
X118339775Y-64915200D01*
X118637599Y-64915200D01*
X118637600Y-64915199D01*
X118637600Y-64290201D01*
X119137600Y-64290201D01*
X119137600Y-64915199D01*
X119137601Y-64915200D01*
X119435425Y-64915200D01*
X119435432Y-64915199D01*
X119494971Y-64908798D01*
X119494978Y-64908796D01*
X119629687Y-64858553D01*
X119744787Y-64772389D01*
X119744789Y-64772387D01*
X119830953Y-64657287D01*
X119881196Y-64522578D01*
X119881198Y-64522571D01*
X119887599Y-64463032D01*
X119887600Y-64463025D01*
X119887600Y-64290201D01*
X119887599Y-64290200D01*
X119137601Y-64290200D01*
X119137600Y-64290201D01*
X118637600Y-64290201D01*
X118637599Y-64290200D01*
X117887601Y-64290200D01*
X117887600Y-64290201D01*
X113887600Y-64290201D01*
X113887599Y-64290200D01*
X113137601Y-64290200D01*
X113137600Y-64290201D01*
X112637600Y-64290201D01*
X112637600Y-63165201D01*
X113137600Y-63165201D01*
X113137600Y-63790199D01*
X113137601Y-63790200D01*
X113887599Y-63790200D01*
X113887600Y-63790199D01*
X113887600Y-63617375D01*
X113887599Y-63617367D01*
X117887600Y-63617367D01*
X117887600Y-63790199D01*
X117887601Y-63790200D01*
X118637599Y-63790200D01*
X118637600Y-63790199D01*
X118637600Y-63165201D01*
X119137600Y-63165201D01*
X119137600Y-63790199D01*
X119137601Y-63790200D01*
X119887599Y-63790200D01*
X119887600Y-63790199D01*
X119887600Y-63617375D01*
X119887599Y-63617367D01*
X119881198Y-63557828D01*
X119881196Y-63557821D01*
X119830953Y-63423112D01*
X119744789Y-63308012D01*
X119744787Y-63308010D01*
X119629687Y-63221846D01*
X119494978Y-63171603D01*
X119494971Y-63171601D01*
X119435432Y-63165200D01*
X119137601Y-63165200D01*
X119137600Y-63165201D01*
X118637600Y-63165201D01*
X118637599Y-63165200D01*
X118339767Y-63165200D01*
X118280228Y-63171601D01*
X118280221Y-63171603D01*
X118145512Y-63221846D01*
X118030412Y-63308010D01*
X118030410Y-63308012D01*
X117944246Y-63423112D01*
X117894003Y-63557821D01*
X117894001Y-63557828D01*
X117887600Y-63617367D01*
X113887599Y-63617367D01*
X113881198Y-63557828D01*
X113881196Y-63557821D01*
X113830953Y-63423112D01*
X113744789Y-63308012D01*
X113744787Y-63308010D01*
X113629687Y-63221846D01*
X113494978Y-63171603D01*
X113494971Y-63171601D01*
X113435432Y-63165200D01*
X113137601Y-63165200D01*
X113137600Y-63165201D01*
X112637600Y-63165201D01*
X112637599Y-63165200D01*
X112623900Y-63165200D01*
X112528612Y-63146246D01*
X112447830Y-63092270D01*
X112393854Y-63011488D01*
X112374900Y-62916200D01*
X112374900Y-62406790D01*
X112374900Y-62377714D01*
X112374901Y-62377709D01*
X112374901Y-62239092D01*
X112347857Y-62103138D01*
X112339336Y-62082566D01*
X112294811Y-61975073D01*
X112217800Y-61859817D01*
X112119783Y-61761800D01*
X112119779Y-61761797D01*
X110338202Y-59980220D01*
X110338200Y-59980217D01*
X110240183Y-59882200D01*
X110220178Y-59868833D01*
X110151483Y-59800138D01*
X110114303Y-59710379D01*
X110114302Y-59613224D01*
X110151481Y-59523464D01*
X110220180Y-59454765D01*
X110309939Y-59417585D01*
X110358518Y-59412800D01*
X121202460Y-59412800D01*
X121297748Y-59431754D01*
G37*
%TD.AperFunction*%
%TA.AperFunction,Conductor*%
G36*
X80038787Y-71997254D02*
G01*
X80119569Y-72051230D01*
X80867530Y-72799191D01*
X80867529Y-72799191D01*
X80918838Y-72850499D01*
X80962009Y-72893670D01*
X81073104Y-72967902D01*
X81085243Y-72972930D01*
X81109258Y-72982878D01*
X81141633Y-72996288D01*
X81196547Y-73019034D01*
X81327593Y-73045100D01*
X81461207Y-73045100D01*
X82427483Y-73045100D01*
X82522771Y-73064054D01*
X82603553Y-73118030D01*
X82657529Y-73198812D01*
X82676483Y-73294100D01*
X82666596Y-73363568D01*
X82654204Y-73406221D01*
X82654201Y-73406236D01*
X82651300Y-73443095D01*
X82651300Y-75224504D01*
X82654201Y-75261363D01*
X82654201Y-75261366D01*
X82654202Y-75261369D01*
X82700056Y-75419198D01*
X82783719Y-75560665D01*
X82899935Y-75676881D01*
X83041402Y-75760544D01*
X83199231Y-75806398D01*
X83236106Y-75809300D01*
X83236108Y-75809300D01*
X83667492Y-75809300D01*
X83667494Y-75809300D01*
X83704369Y-75806398D01*
X83862198Y-75760544D01*
X83960051Y-75702673D01*
X84051715Y-75670483D01*
X84148723Y-75675822D01*
X84213546Y-75702672D01*
X84311402Y-75760544D01*
X84469231Y-75806398D01*
X84506106Y-75809300D01*
X84506108Y-75809300D01*
X84937492Y-75809300D01*
X84937494Y-75809300D01*
X84974369Y-75806398D01*
X85132198Y-75760544D01*
X85230051Y-75702673D01*
X85321715Y-75670483D01*
X85418723Y-75675822D01*
X85483546Y-75702672D01*
X85581402Y-75760544D01*
X85739231Y-75806398D01*
X85776106Y-75809300D01*
X85776108Y-75809300D01*
X86207492Y-75809300D01*
X86207494Y-75809300D01*
X86244369Y-75806398D01*
X86402198Y-75760544D01*
X86500051Y-75702673D01*
X86591715Y-75670483D01*
X86688723Y-75675822D01*
X86753546Y-75702672D01*
X86851402Y-75760544D01*
X87009231Y-75806398D01*
X87046106Y-75809300D01*
X87046108Y-75809300D01*
X87477492Y-75809300D01*
X87477494Y-75809300D01*
X87514369Y-75806398D01*
X87672198Y-75760544D01*
X87770051Y-75702673D01*
X87861715Y-75670483D01*
X87958723Y-75675822D01*
X88023546Y-75702672D01*
X88121402Y-75760544D01*
X88279231Y-75806398D01*
X88316106Y-75809300D01*
X88316108Y-75809300D01*
X88747492Y-75809300D01*
X88747494Y-75809300D01*
X88784369Y-75806398D01*
X88942198Y-75760544D01*
X89040051Y-75702673D01*
X89131715Y-75670483D01*
X89228723Y-75675822D01*
X89247518Y-75681445D01*
X89271614Y-75689702D01*
X89391402Y-75760544D01*
X89549231Y-75806398D01*
X89586106Y-75809300D01*
X89620630Y-75809300D01*
X89659600Y-75822654D01*
X89670672Y-75829089D01*
X89683122Y-75832078D01*
X89712353Y-75853314D01*
X89743598Y-75871474D01*
X89751364Y-75881655D01*
X89761724Y-75889182D01*
X89780603Y-75919988D01*
X89802520Y-75948722D01*
X89805799Y-75961102D01*
X89812489Y-75972019D01*
X89818141Y-76007703D01*
X89827395Y-76042639D01*
X89825686Y-76055331D01*
X89827690Y-76067977D01*
X89826593Y-76083515D01*
X89816400Y-76183281D01*
X89816400Y-76231599D01*
X89816401Y-76231600D01*
X90517400Y-76231600D01*
X90612688Y-76250554D01*
X90693470Y-76304530D01*
X90747446Y-76385312D01*
X90766400Y-76480600D01*
X90766400Y-76482600D01*
X90747446Y-76577888D01*
X90693470Y-76658670D01*
X90612688Y-76712646D01*
X90517400Y-76731600D01*
X89816402Y-76731600D01*
X89816401Y-76731601D01*
X89816401Y-76779920D01*
X89826544Y-76879209D01*
X89826545Y-76879212D01*
X89879851Y-77040080D01*
X89968825Y-77184329D01*
X90067726Y-77283230D01*
X90121702Y-77364012D01*
X90140656Y-77459300D01*
X90121702Y-77554588D01*
X90067726Y-77635370D01*
X89986944Y-77689346D01*
X89891656Y-77708300D01*
X79091577Y-77708300D01*
X78996289Y-77689346D01*
X78915507Y-77635370D01*
X78861531Y-77554588D01*
X78842577Y-77459300D01*
X78861531Y-77364012D01*
X78915507Y-77283230D01*
X78996289Y-77229254D01*
X79004561Y-77225999D01*
X79092087Y-77193353D01*
X79207187Y-77107189D01*
X79207189Y-77107187D01*
X79293353Y-76992087D01*
X79343596Y-76857378D01*
X79343598Y-76857371D01*
X79349999Y-76797832D01*
X79350000Y-76797825D01*
X79350000Y-76000001D01*
X79349999Y-76000000D01*
X78249000Y-76000000D01*
X78153712Y-75981046D01*
X78072930Y-75927070D01*
X78018954Y-75846288D01*
X78000000Y-75751000D01*
X78000000Y-75750000D01*
X77999000Y-75750000D01*
X77903712Y-75731046D01*
X77822930Y-75677070D01*
X77768954Y-75596288D01*
X77750000Y-75501000D01*
X77750000Y-74250001D01*
X78250000Y-74250001D01*
X78250000Y-75500000D01*
X79349999Y-75500000D01*
X79350000Y-75499999D01*
X79350000Y-74702175D01*
X79349999Y-74702167D01*
X79343598Y-74642628D01*
X79343596Y-74642621D01*
X79293353Y-74507912D01*
X79207189Y-74392812D01*
X79207187Y-74392810D01*
X79092087Y-74306646D01*
X78957378Y-74256403D01*
X78957371Y-74256401D01*
X78897832Y-74250000D01*
X78250001Y-74250000D01*
X78250000Y-74250001D01*
X77750000Y-74250001D01*
X77749999Y-74250000D01*
X77648500Y-74250000D01*
X77553212Y-74231046D01*
X77472430Y-74177070D01*
X77418454Y-74096288D01*
X77399500Y-74001000D01*
X77399500Y-73899000D01*
X77418454Y-73803712D01*
X77472430Y-73722930D01*
X77553212Y-73668954D01*
X77648500Y-73650000D01*
X77849999Y-73650000D01*
X77850000Y-73649999D01*
X77850000Y-73149000D01*
X77868954Y-73053712D01*
X77922930Y-72972930D01*
X78003712Y-72918954D01*
X78099000Y-72900000D01*
X78101000Y-72900000D01*
X78196288Y-72918954D01*
X78277070Y-72972930D01*
X78331046Y-73053712D01*
X78350000Y-73149000D01*
X78350000Y-73649999D01*
X78350001Y-73650000D01*
X79147825Y-73650000D01*
X79147832Y-73649999D01*
X79207371Y-73643598D01*
X79207378Y-73643596D01*
X79342087Y-73593353D01*
X79457187Y-73507189D01*
X79457189Y-73507187D01*
X79543353Y-73392087D01*
X79593596Y-73257378D01*
X79593598Y-73257371D01*
X79599999Y-73197832D01*
X79600000Y-73197825D01*
X79600000Y-73150001D01*
X79596538Y-73146539D01*
X79579216Y-73147470D01*
X79549861Y-73137118D01*
X79519334Y-73131046D01*
X79504460Y-73121107D01*
X79487591Y-73115159D01*
X79464434Y-73094364D01*
X79438552Y-73077070D01*
X79428613Y-73062195D01*
X79415306Y-73050245D01*
X79401869Y-73022169D01*
X79384576Y-72996288D01*
X79381086Y-72978744D01*
X79373364Y-72962609D01*
X79371694Y-72931526D01*
X79365622Y-72901000D01*
X79369111Y-72883456D01*
X79368152Y-72865594D01*
X79378503Y-72836239D01*
X79384576Y-72805712D01*
X79394514Y-72790838D01*
X79400463Y-72773969D01*
X79421257Y-72750812D01*
X79438552Y-72724930D01*
X79465377Y-72701684D01*
X79468048Y-72699684D01*
X79555684Y-72657742D01*
X79597513Y-72652485D01*
X79600000Y-72649999D01*
X79600000Y-72602175D01*
X79599999Y-72602169D01*
X79592018Y-72527931D01*
X79590754Y-72492314D01*
X79591790Y-72463650D01*
X79594091Y-72457483D01*
X79600500Y-72397873D01*
X79600499Y-72222819D01*
X79600663Y-72218301D01*
X79610837Y-72175329D01*
X79619454Y-72132012D01*
X79621994Y-72128210D01*
X79623048Y-72123760D01*
X79648895Y-72087948D01*
X79673430Y-72051230D01*
X79677231Y-72048689D01*
X79679908Y-72044982D01*
X79717489Y-72021790D01*
X79754212Y-71997254D01*
X79758697Y-71996361D01*
X79762588Y-71993961D01*
X79806175Y-71986917D01*
X79849500Y-71978300D01*
X79943499Y-71978300D01*
X80038787Y-71997254D01*
G37*
%TD.AperFunction*%
%TA.AperFunction,Conductor*%
G36*
X105523388Y-69517896D02*
G01*
X105540773Y-69516896D01*
X105570612Y-69527290D01*
X105601600Y-69533454D01*
X105616076Y-69543126D01*
X105632521Y-69548855D01*
X105656110Y-69569876D01*
X105682382Y-69587430D01*
X105694071Y-69603704D01*
X105705055Y-69613492D01*
X105719057Y-69632043D01*
X105732970Y-69660096D01*
X105851986Y-69808159D01*
X105854274Y-69811190D01*
X105873793Y-69851576D01*
X105894531Y-69891341D01*
X105894870Y-69895187D01*
X105896551Y-69898665D01*
X105899129Y-69943452D01*
X105903071Y-69988120D01*
X105901912Y-69991802D01*
X105902135Y-69995659D01*
X105887377Y-70038026D01*
X105873926Y-70080800D01*
X105871446Y-70083759D01*
X105870176Y-70087407D01*
X105849605Y-70117199D01*
X105733394Y-70261772D01*
X105733392Y-70261774D01*
X105648829Y-70432279D01*
X105602897Y-70616978D01*
X105600000Y-70659700D01*
X105600000Y-70860799D01*
X105600001Y-70860800D01*
X108557556Y-70860800D01*
X108627939Y-70846800D01*
X109491800Y-70846800D01*
X109587088Y-70865754D01*
X109667870Y-70919730D01*
X109721846Y-71000512D01*
X109740800Y-71095800D01*
X109740800Y-71096800D01*
X109741800Y-71096800D01*
X109837088Y-71115754D01*
X109917870Y-71169730D01*
X109971846Y-71250512D01*
X109990800Y-71345800D01*
X109990800Y-72052077D01*
X110034146Y-72116950D01*
X110053100Y-72212238D01*
X110053100Y-75883778D01*
X110034146Y-75979066D01*
X109980170Y-76059848D01*
X108404648Y-77635370D01*
X108323866Y-77689346D01*
X108228578Y-77708300D01*
X93191851Y-77708300D01*
X93096563Y-77689346D01*
X93015781Y-77635370D01*
X92961805Y-77554588D01*
X92942851Y-77459300D01*
X92961805Y-77364012D01*
X93015778Y-77283233D01*
X93040784Y-77258227D01*
X93121563Y-77204254D01*
X93216851Y-77185300D01*
X93657184Y-77185300D01*
X93657204Y-77185301D01*
X93669492Y-77185301D01*
X93808109Y-77185301D01*
X93808109Y-77185300D01*
X93944062Y-77158257D01*
X94072127Y-77105211D01*
X94095640Y-77089500D01*
X94187383Y-77028200D01*
X94214043Y-77001539D01*
X94228920Y-76990533D01*
X94256426Y-76977561D01*
X94281720Y-76960660D01*
X94299969Y-76957029D01*
X94316795Y-76949095D01*
X94347175Y-76947637D01*
X94377008Y-76941702D01*
X94395254Y-76945330D01*
X94413838Y-76944439D01*
X94442466Y-76954719D01*
X94472297Y-76960652D01*
X94504902Y-76977140D01*
X94505276Y-76977275D01*
X94505412Y-76977398D01*
X94505838Y-76977614D01*
X94596590Y-77032476D01*
X94596591Y-77032476D01*
X94596594Y-77032478D01*
X94759004Y-77083086D01*
X94759008Y-77083086D01*
X94759011Y-77083087D01*
X94829569Y-77089499D01*
X94829577Y-77089499D01*
X94829584Y-77089500D01*
X94829590Y-77089500D01*
X95492810Y-77089500D01*
X95492816Y-77089500D01*
X95492823Y-77089499D01*
X95492830Y-77089499D01*
X95563388Y-77083087D01*
X95563389Y-77083086D01*
X95563396Y-77083086D01*
X95725806Y-77032478D01*
X95725810Y-77032476D01*
X95854434Y-76954719D01*
X95871385Y-76944472D01*
X95871385Y-76944471D01*
X95884274Y-76936680D01*
X95885064Y-76937986D01*
X95899989Y-76930438D01*
X95928103Y-76911654D01*
X95942984Y-76908693D01*
X95956523Y-76901847D01*
X96023391Y-76892700D01*
X96229409Y-76892700D01*
X96324697Y-76911654D01*
X96368269Y-76937104D01*
X96368526Y-76936680D01*
X96381414Y-76944471D01*
X96381415Y-76944472D01*
X96398366Y-76954719D01*
X96526991Y-77032477D01*
X96526993Y-77032477D01*
X96526994Y-77032478D01*
X96689404Y-77083086D01*
X96689408Y-77083086D01*
X96689411Y-77083087D01*
X96759969Y-77089499D01*
X96759977Y-77089499D01*
X96759984Y-77089500D01*
X96759990Y-77089500D01*
X97423210Y-77089500D01*
X97423216Y-77089500D01*
X97423223Y-77089499D01*
X97423230Y-77089499D01*
X97493788Y-77083087D01*
X97493789Y-77083086D01*
X97493796Y-77083086D01*
X97656206Y-77032478D01*
X97656210Y-77032476D01*
X97784834Y-76954719D01*
X97801785Y-76944472D01*
X97801785Y-76944471D01*
X97814674Y-76936680D01*
X97815464Y-76937986D01*
X97830389Y-76930438D01*
X97858503Y-76911654D01*
X97873384Y-76908693D01*
X97886923Y-76901847D01*
X97953791Y-76892700D01*
X98216984Y-76892700D01*
X98217004Y-76892701D01*
X98229292Y-76892701D01*
X98367909Y-76892701D01*
X98367909Y-76892700D01*
X98503862Y-76865657D01*
X98631927Y-76812611D01*
X98747183Y-76735600D01*
X98845200Y-76637583D01*
X98845202Y-76637579D01*
X99318179Y-76164602D01*
X99318183Y-76164600D01*
X99416200Y-76066583D01*
X99493211Y-75951327D01*
X99539305Y-75840045D01*
X99555418Y-75817274D01*
X99570819Y-75802675D01*
X99582610Y-75785030D01*
X99605740Y-75769574D01*
X99625930Y-75750438D01*
X99645747Y-75742843D01*
X99663392Y-75731054D01*
X99690673Y-75725627D01*
X99716652Y-75715672D01*
X99737867Y-75716239D01*
X99758679Y-75712100D01*
X101501296Y-75712100D01*
X101596584Y-75731054D01*
X101677366Y-75785030D01*
X101731342Y-75865812D01*
X101734963Y-75875541D01*
X101735985Y-75877733D01*
X101799709Y-75981046D01*
X101828088Y-76027056D01*
X101952144Y-76151112D01*
X102101466Y-76243214D01*
X102101469Y-76243215D01*
X102101467Y-76243215D01*
X102265110Y-76297440D01*
X102268003Y-76298399D01*
X102370791Y-76308900D01*
X104570808Y-76308899D01*
X104673597Y-76298399D01*
X104840134Y-76243214D01*
X104989456Y-76151112D01*
X105095086Y-76045481D01*
X105175865Y-75991508D01*
X105271153Y-75972554D01*
X105366441Y-75991508D01*
X105447223Y-76045484D01*
X105552454Y-76150715D01*
X105552458Y-76150718D01*
X105701678Y-76242758D01*
X105701679Y-76242759D01*
X105868098Y-76297904D01*
X105868105Y-76297905D01*
X105970823Y-76308399D01*
X106820798Y-76308399D01*
X106820800Y-76308398D01*
X106820800Y-75258401D01*
X107320800Y-75258401D01*
X107320800Y-76308398D01*
X107320801Y-76308399D01*
X108170768Y-76308399D01*
X108170784Y-76308398D01*
X108273499Y-76297905D01*
X108273502Y-76297904D01*
X108439919Y-76242759D01*
X108439921Y-76242758D01*
X108589141Y-76150718D01*
X108589145Y-76150715D01*
X108713115Y-76026745D01*
X108713118Y-76026741D01*
X108805158Y-75877521D01*
X108805159Y-75877520D01*
X108860304Y-75711101D01*
X108860305Y-75711094D01*
X108870799Y-75608381D01*
X108870800Y-75608371D01*
X108870800Y-75258401D01*
X108870799Y-75258400D01*
X107320801Y-75258400D01*
X107320800Y-75258401D01*
X106820800Y-75258401D01*
X106820800Y-73708401D01*
X107320800Y-73708401D01*
X107320800Y-74758399D01*
X107320801Y-74758400D01*
X108870798Y-74758400D01*
X108870799Y-74758399D01*
X108870799Y-74408432D01*
X108870798Y-74408415D01*
X108860305Y-74305700D01*
X108860304Y-74305697D01*
X108805159Y-74139280D01*
X108805158Y-74139278D01*
X108713118Y-73990058D01*
X108713115Y-73990054D01*
X108589145Y-73866084D01*
X108589141Y-73866081D01*
X108439921Y-73774041D01*
X108439920Y-73774040D01*
X108273501Y-73718895D01*
X108273494Y-73718894D01*
X108170781Y-73708400D01*
X107320801Y-73708400D01*
X107320800Y-73708401D01*
X106820800Y-73708401D01*
X106820799Y-73708400D01*
X105970823Y-73708400D01*
X105868100Y-73718894D01*
X105868097Y-73718895D01*
X105701680Y-73774040D01*
X105701678Y-73774041D01*
X105552458Y-73866081D01*
X105552454Y-73866084D01*
X105447223Y-73971316D01*
X105366441Y-74025292D01*
X105271153Y-74044246D01*
X105175865Y-74025292D01*
X105095086Y-73971318D01*
X104989456Y-73865688D01*
X104972930Y-73855495D01*
X104888976Y-73803712D01*
X104840134Y-73773586D01*
X104840132Y-73773585D01*
X104840130Y-73773584D01*
X104840132Y-73773584D01*
X104673602Y-73718402D01*
X104673598Y-73718401D01*
X104673597Y-73718401D01*
X104622203Y-73713150D01*
X104570811Y-73707900D01*
X104570809Y-73707900D01*
X104423500Y-73707900D01*
X104328212Y-73688946D01*
X104247430Y-73634970D01*
X104193454Y-73554188D01*
X104174500Y-73458900D01*
X104174500Y-71360801D01*
X105600000Y-71360801D01*
X105600000Y-71561899D01*
X105602897Y-71604621D01*
X105648829Y-71789320D01*
X105733392Y-71959825D01*
X105733393Y-71959827D01*
X105852629Y-72108162D01*
X105852637Y-72108170D01*
X106000972Y-72227406D01*
X106000974Y-72227407D01*
X106171479Y-72311970D01*
X106356178Y-72357902D01*
X106398900Y-72360799D01*
X106398907Y-72360800D01*
X106849999Y-72360800D01*
X106850000Y-72360799D01*
X106850000Y-71360801D01*
X107350000Y-71360801D01*
X107350000Y-72360799D01*
X107350001Y-72360800D01*
X107801093Y-72360800D01*
X107801099Y-72360799D01*
X107843821Y-72357902D01*
X108028520Y-72311970D01*
X108199025Y-72227407D01*
X108199027Y-72227406D01*
X108347362Y-72108170D01*
X108347370Y-72108162D01*
X108466606Y-71959827D01*
X108466607Y-71959825D01*
X108523742Y-71844624D01*
X108583060Y-71767680D01*
X108667308Y-71719292D01*
X108763660Y-71706829D01*
X108857448Y-71732186D01*
X108922884Y-71779188D01*
X109038070Y-71894374D01*
X109182316Y-71983346D01*
X109343196Y-72036655D01*
X109442487Y-72046799D01*
X109490800Y-72046798D01*
X109490800Y-71346800D01*
X108808244Y-71346800D01*
X108737861Y-71360800D01*
X107350001Y-71360800D01*
X107350000Y-71360801D01*
X106850000Y-71360801D01*
X106849999Y-71360800D01*
X105600001Y-71360800D01*
X105600000Y-71360801D01*
X104174500Y-71360801D01*
X104174500Y-70446222D01*
X104193454Y-70350934D01*
X104247430Y-70270152D01*
X104930152Y-69587430D01*
X105010934Y-69533454D01*
X105106222Y-69514500D01*
X105506312Y-69514500D01*
X105523388Y-69517896D01*
G37*
%TD.AperFunction*%
%TA.AperFunction,Conductor*%
G36*
X101567388Y-61913454D02*
G01*
X101648170Y-61967430D01*
X101702146Y-62048212D01*
X101721100Y-62143500D01*
X101721100Y-63213206D01*
X101731601Y-63316000D01*
X101767095Y-63423112D01*
X101786786Y-63482534D01*
X101878888Y-63631856D01*
X102002944Y-63755912D01*
X102152266Y-63848014D01*
X102152269Y-63848015D01*
X102152267Y-63848015D01*
X102294546Y-63895161D01*
X102318803Y-63903199D01*
X102421591Y-63913700D01*
X102568901Y-63913699D01*
X102664187Y-63932652D01*
X102744968Y-63986628D01*
X102798945Y-64067409D01*
X102817900Y-64162697D01*
X102817900Y-65437996D01*
X102817899Y-65438002D01*
X102817899Y-65576618D01*
X102834785Y-65661504D01*
X102837696Y-65676142D01*
X102837697Y-65676146D01*
X102844942Y-65712569D01*
X102844943Y-65712572D01*
X102889915Y-65821146D01*
X102897989Y-65840637D01*
X102975000Y-65955893D01*
X103073017Y-66053910D01*
X103073020Y-66053912D01*
X103978487Y-66959379D01*
X103978490Y-66959383D01*
X104076507Y-67057400D01*
X104152848Y-67108409D01*
X104191763Y-67134411D01*
X104319828Y-67187457D01*
X104319829Y-67187457D01*
X104319831Y-67187458D01*
X104387804Y-67200979D01*
X104455778Y-67214500D01*
X104455779Y-67214501D01*
X104455781Y-67214501D01*
X104606672Y-67214501D01*
X104606706Y-67214500D01*
X105506312Y-67214500D01*
X105601600Y-67233454D01*
X105682382Y-67287430D01*
X105729383Y-67352865D01*
X105732966Y-67360090D01*
X105732970Y-67360097D01*
X105849285Y-67504799D01*
X105857715Y-67520964D01*
X105869848Y-67534577D01*
X105879977Y-67563650D01*
X105894211Y-67590943D01*
X105895813Y-67609103D01*
X105901813Y-67626323D01*
X105900045Y-67657060D01*
X105902751Y-67687722D01*
X105897281Y-67705113D01*
X105896235Y-67723318D01*
X105883722Y-67748231D01*
X105873606Y-67780402D01*
X105853963Y-67810795D01*
X105851657Y-67813850D01*
X105732970Y-67961504D01*
X105719062Y-67989546D01*
X105705064Y-68008095D01*
X105685810Y-68025254D01*
X105670065Y-68045679D01*
X105649899Y-68057260D01*
X105632535Y-68072737D01*
X105608176Y-68081223D01*
X105585816Y-68094066D01*
X105558430Y-68098555D01*
X105540789Y-68104702D01*
X105526093Y-68103856D01*
X105506312Y-68107100D01*
X104793216Y-68107100D01*
X104793196Y-68107099D01*
X104780908Y-68107099D01*
X104642291Y-68107099D01*
X104630003Y-68107099D01*
X104629983Y-68107100D01*
X102549499Y-68107100D01*
X102454211Y-68088146D01*
X102373429Y-68034170D01*
X102319453Y-67953388D01*
X102300499Y-67858100D01*
X102300499Y-67352768D01*
X102300498Y-67352756D01*
X102296494Y-67307719D01*
X102289886Y-67233382D01*
X102233909Y-67037751D01*
X102139698Y-66857393D01*
X102011109Y-66699691D01*
X101853407Y-66571102D01*
X101853402Y-66571099D01*
X101673053Y-66476893D01*
X101673052Y-66476892D01*
X101673049Y-66476891D01*
X101477418Y-66420914D01*
X101358037Y-66410300D01*
X101358035Y-66410300D01*
X100241968Y-66410300D01*
X100241956Y-66410301D01*
X100122585Y-66420913D01*
X99926954Y-66476890D01*
X99926946Y-66476893D01*
X99746597Y-66571099D01*
X99746592Y-66571102D01*
X99588893Y-66699689D01*
X99588889Y-66699693D01*
X99460302Y-66857392D01*
X99460299Y-66857397D01*
X99366093Y-67037746D01*
X99366090Y-67037754D01*
X99310115Y-67233378D01*
X99310114Y-67233382D01*
X99299500Y-67352763D01*
X99299500Y-67985389D01*
X99280546Y-68080677D01*
X99226570Y-68161459D01*
X99188837Y-68192425D01*
X99081415Y-68264201D01*
X99081414Y-68264202D01*
X98983399Y-68362216D01*
X98983400Y-68362217D01*
X98322998Y-69022618D01*
X98276338Y-69092452D01*
X98276337Y-69092454D01*
X98245990Y-69137871D01*
X98245988Y-69137874D01*
X98192942Y-69265940D01*
X98165899Y-69401889D01*
X98165899Y-69552806D01*
X98165900Y-69552816D01*
X98165900Y-69594407D01*
X98146946Y-69689695D01*
X98092970Y-69770477D01*
X98012188Y-69824453D01*
X97982537Y-69830350D01*
X97981275Y-69831002D01*
X97977802Y-69831292D01*
X97916900Y-69843407D01*
X97892076Y-69838469D01*
X97884459Y-69839107D01*
X97866595Y-69833400D01*
X97821612Y-69824453D01*
X97793362Y-69810007D01*
X97791911Y-69809544D01*
X97791077Y-69808839D01*
X97786182Y-69806336D01*
X97781777Y-69803619D01*
X97750417Y-69774461D01*
X97717721Y-69746816D01*
X97714989Y-69741519D01*
X97710626Y-69737463D01*
X97692898Y-69709070D01*
X97692702Y-69708705D01*
X97692702Y-69708704D01*
X97618470Y-69597609D01*
X97573667Y-69552806D01*
X97523992Y-69503130D01*
X97015991Y-68995130D01*
X96957293Y-68955909D01*
X96917804Y-68929523D01*
X96904898Y-68920899D01*
X96904896Y-68920898D01*
X96868740Y-68905921D01*
X96868738Y-68905920D01*
X96781456Y-68869767D01*
X96781454Y-68869766D01*
X96781453Y-68869766D01*
X96650407Y-68843700D01*
X93997399Y-68843700D01*
X93863785Y-68843700D01*
X93764817Y-68863385D01*
X93732733Y-68869767D01*
X93732732Y-68869768D01*
X93645456Y-68905918D01*
X93645451Y-68905921D01*
X93613917Y-68918983D01*
X93609291Y-68920900D01*
X93556898Y-68955909D01*
X93556896Y-68955910D01*
X93529135Y-68974459D01*
X93439376Y-69011638D01*
X93342221Y-69011637D01*
X93252461Y-68974457D01*
X93183763Y-68905757D01*
X93146584Y-68815998D01*
X93141800Y-68767422D01*
X93141800Y-68493160D01*
X93141799Y-68493149D01*
X93138900Y-68456313D01*
X93138898Y-68456301D01*
X93093083Y-68298604D01*
X93009484Y-68157246D01*
X92893353Y-68041115D01*
X92751994Y-67957516D01*
X92594297Y-67911701D01*
X92594286Y-67911699D01*
X92591800Y-67911502D01*
X92591800Y-69134800D01*
X92572846Y-69230088D01*
X92518870Y-69310870D01*
X92438088Y-69364846D01*
X92342800Y-69383800D01*
X92340800Y-69383800D01*
X92245512Y-69364846D01*
X92164730Y-69310870D01*
X92110754Y-69230088D01*
X92091800Y-69134800D01*
X92091800Y-67911502D01*
X92091799Y-67911502D01*
X92089313Y-67911699D01*
X92089302Y-67911701D01*
X92043165Y-67925105D01*
X91946373Y-67933487D01*
X91853740Y-67904190D01*
X91779371Y-67841674D01*
X91734586Y-67755456D01*
X91724700Y-67685991D01*
X91724700Y-67118396D01*
X91724700Y-67118393D01*
X91718356Y-67086500D01*
X91698634Y-66987347D01*
X91660138Y-66894411D01*
X91647502Y-66863904D01*
X91573270Y-66752809D01*
X91557153Y-66736692D01*
X91478791Y-66658329D01*
X91478791Y-66658330D01*
X91209131Y-66388670D01*
X91155155Y-66307888D01*
X91136201Y-66212600D01*
X91155155Y-66117312D01*
X91209131Y-66036530D01*
X91216779Y-66031419D01*
X91284600Y-65963599D01*
X91284600Y-64537600D01*
X91303554Y-64442312D01*
X91357530Y-64361530D01*
X91438312Y-64307554D01*
X91533600Y-64288600D01*
X91535600Y-64288600D01*
X91630888Y-64307554D01*
X91711670Y-64361530D01*
X91765646Y-64442312D01*
X91784600Y-64537600D01*
X91784600Y-65963599D01*
X91784601Y-65963600D01*
X92007425Y-65963600D01*
X92007432Y-65963599D01*
X92066971Y-65957198D01*
X92066978Y-65957196D01*
X92201687Y-65906953D01*
X92316789Y-65820788D01*
X92324883Y-65812694D01*
X92405663Y-65758715D01*
X92500951Y-65739759D01*
X92596240Y-65758711D01*
X92677022Y-65812685D01*
X92677027Y-65812689D01*
X92950807Y-66086469D01*
X92950807Y-66086470D01*
X93007286Y-66124208D01*
X93007285Y-66124208D01*
X93061901Y-66160701D01*
X93061903Y-66160702D01*
X93078278Y-66167484D01*
X93113036Y-66181881D01*
X93185348Y-66211834D01*
X93290327Y-66232715D01*
X93316393Y-66237900D01*
X93316394Y-66237900D01*
X93450007Y-66237900D01*
X94372304Y-66237900D01*
X94467592Y-66256854D01*
X94548370Y-66310827D01*
X94627615Y-66390072D01*
X94661076Y-66410300D01*
X94773191Y-66478077D01*
X94773193Y-66478077D01*
X94773194Y-66478078D01*
X94935604Y-66528686D01*
X94935608Y-66528686D01*
X94935611Y-66528687D01*
X95006169Y-66535099D01*
X95006177Y-66535099D01*
X95006184Y-66535100D01*
X95006190Y-66535100D01*
X95519410Y-66535100D01*
X95519416Y-66535100D01*
X95519423Y-66535099D01*
X95519430Y-66535099D01*
X95589988Y-66528687D01*
X95589989Y-66528686D01*
X95589996Y-66528686D01*
X95752406Y-66478078D01*
X95754367Y-66476893D01*
X95812926Y-66441492D01*
X95897985Y-66390072D01*
X95911733Y-66376323D01*
X95992512Y-66322350D01*
X96087800Y-66303396D01*
X96183088Y-66322350D01*
X96263866Y-66376323D01*
X96277615Y-66390072D01*
X96311076Y-66410300D01*
X96423191Y-66478077D01*
X96423193Y-66478077D01*
X96423194Y-66478078D01*
X96585604Y-66528686D01*
X96585608Y-66528686D01*
X96585611Y-66528687D01*
X96656169Y-66535099D01*
X96656177Y-66535099D01*
X96656184Y-66535100D01*
X96656190Y-66535100D01*
X97169410Y-66535100D01*
X97169416Y-66535100D01*
X97169423Y-66535099D01*
X97169430Y-66535099D01*
X97239988Y-66528687D01*
X97239989Y-66528686D01*
X97239996Y-66528686D01*
X97402406Y-66478078D01*
X97404367Y-66476893D01*
X97462926Y-66441492D01*
X97547985Y-66390072D01*
X97601829Y-66336227D01*
X97682608Y-66282254D01*
X97777896Y-66263300D01*
X98635584Y-66263300D01*
X98635604Y-66263301D01*
X98647892Y-66263301D01*
X98786509Y-66263301D01*
X98786509Y-66263300D01*
X98922462Y-66236257D01*
X99050527Y-66183211D01*
X99165783Y-66106200D01*
X99263800Y-66008183D01*
X99263802Y-66008179D01*
X100181779Y-65090202D01*
X100181783Y-65090200D01*
X100279800Y-64992183D01*
X100356811Y-64876927D01*
X100409857Y-64748862D01*
X100423606Y-64679743D01*
X100436901Y-64612908D01*
X100436901Y-64474292D01*
X100436900Y-64474286D01*
X100436900Y-62741632D01*
X100455854Y-62646344D01*
X100509830Y-62565562D01*
X101107962Y-61967430D01*
X101188744Y-61913454D01*
X101284032Y-61894500D01*
X101472100Y-61894500D01*
X101567388Y-61913454D01*
G37*
%TD.AperFunction*%
%TA.AperFunction,Conductor*%
G36*
X109184896Y-62317284D02*
G01*
X109265678Y-62371260D01*
X110132570Y-63238152D01*
X110186546Y-63318934D01*
X110205500Y-63414222D01*
X110205500Y-63808561D01*
X110186546Y-63903849D01*
X110132570Y-63984631D01*
X110092400Y-64024801D01*
X110092400Y-64725800D01*
X110073446Y-64821088D01*
X110019470Y-64901870D01*
X109938688Y-64955846D01*
X109843400Y-64974800D01*
X109842400Y-64974800D01*
X109842400Y-64975800D01*
X109823446Y-65071088D01*
X109769470Y-65151870D01*
X109688688Y-65205846D01*
X109593400Y-65224800D01*
X108867402Y-65224800D01*
X108867401Y-65224801D01*
X108867401Y-65248120D01*
X108877544Y-65347408D01*
X108909124Y-65442711D01*
X108921104Y-65539125D01*
X108895276Y-65632784D01*
X108835572Y-65709430D01*
X108751083Y-65757394D01*
X108654669Y-65769374D01*
X108561010Y-65743546D01*
X108484364Y-65683842D01*
X108475529Y-65671992D01*
X108475488Y-65672026D01*
X108396934Y-65574301D01*
X108347722Y-65513078D01*
X108199296Y-65393770D01*
X108199293Y-65393768D01*
X108199291Y-65393767D01*
X108028693Y-65309158D01*
X107843887Y-65263199D01*
X107843876Y-65263198D01*
X107801152Y-65260301D01*
X107801126Y-65260300D01*
X107801123Y-65260300D01*
X107801119Y-65260300D01*
X106398888Y-65260300D01*
X106398869Y-65260301D01*
X106356109Y-65263200D01*
X106356107Y-65263200D01*
X106171305Y-65309159D01*
X106000708Y-65393767D01*
X106000704Y-65393770D01*
X105852281Y-65513075D01*
X105852274Y-65513082D01*
X105732970Y-65661502D01*
X105732966Y-65661509D01*
X105729383Y-65668735D01*
X105670065Y-65745679D01*
X105585816Y-65794066D01*
X105506312Y-65807100D01*
X104919712Y-65807100D01*
X104824424Y-65788146D01*
X104743642Y-65734170D01*
X104298230Y-65288758D01*
X104244254Y-65207976D01*
X104225300Y-65112688D01*
X104225300Y-64701482D01*
X108867400Y-64701482D01*
X108867400Y-64724799D01*
X108867401Y-64724800D01*
X109592400Y-64724800D01*
X109592400Y-64024799D01*
X109544088Y-64024800D01*
X109444790Y-64034944D01*
X109444787Y-64034945D01*
X109283919Y-64088251D01*
X109139670Y-64177225D01*
X109019825Y-64297070D01*
X108930853Y-64441316D01*
X108877544Y-64602196D01*
X108867400Y-64701482D01*
X104225300Y-64701482D01*
X104225300Y-64162699D01*
X104244254Y-64067411D01*
X104298230Y-63986629D01*
X104379012Y-63932653D01*
X104474300Y-63913699D01*
X104621606Y-63913699D01*
X104621608Y-63913699D01*
X104724397Y-63903199D01*
X104890934Y-63848014D01*
X105040256Y-63755912D01*
X105145886Y-63650281D01*
X105226665Y-63596308D01*
X105321953Y-63577354D01*
X105417241Y-63596308D01*
X105498023Y-63650284D01*
X105603254Y-63755515D01*
X105603258Y-63755518D01*
X105752478Y-63847558D01*
X105752479Y-63847559D01*
X105918898Y-63902704D01*
X105918905Y-63902705D01*
X106021623Y-63913199D01*
X106871598Y-63913199D01*
X106871600Y-63913198D01*
X107371600Y-63913198D01*
X107371601Y-63913199D01*
X108221568Y-63913199D01*
X108221584Y-63913198D01*
X108324299Y-63902705D01*
X108324302Y-63902704D01*
X108490719Y-63847559D01*
X108490721Y-63847558D01*
X108639941Y-63755518D01*
X108639945Y-63755515D01*
X108763915Y-63631545D01*
X108763918Y-63631541D01*
X108855958Y-63482321D01*
X108855959Y-63482320D01*
X108911104Y-63315901D01*
X108911105Y-63315894D01*
X108921599Y-63213181D01*
X108921600Y-63213171D01*
X108921600Y-62863201D01*
X108921599Y-62863200D01*
X107371600Y-62863200D01*
X107371600Y-63913198D01*
X106871600Y-63913198D01*
X106871600Y-62862200D01*
X106890554Y-62766912D01*
X106944530Y-62686130D01*
X107025312Y-62632154D01*
X107120600Y-62613200D01*
X107121600Y-62613200D01*
X107121600Y-62612200D01*
X107140554Y-62516912D01*
X107194530Y-62436130D01*
X107275312Y-62382154D01*
X107370600Y-62363200D01*
X108925601Y-62363200D01*
X108994320Y-62317284D01*
X109089608Y-62298330D01*
X109184896Y-62317284D01*
G37*
%TD.AperFunction*%
%TA.AperFunction,Conductor*%
G36*
X99261570Y-59431754D02*
G01*
X99342352Y-59485730D01*
X99396328Y-59566512D01*
X99415282Y-59661800D01*
X99396328Y-59757088D01*
X99342352Y-59837870D01*
X99304625Y-59868830D01*
X99284617Y-59882200D01*
X99284613Y-59882203D01*
X99186599Y-59980216D01*
X99186600Y-59980217D01*
X97916601Y-61250215D01*
X97916600Y-61250217D01*
X97859928Y-61335034D01*
X97839590Y-61365470D01*
X97839583Y-61365483D01*
X97786543Y-61493536D01*
X97786542Y-61493539D01*
X97759499Y-61629489D01*
X97759499Y-61780395D01*
X97759500Y-61780416D01*
X97759500Y-62689514D01*
X97740546Y-62784802D01*
X97686570Y-62865584D01*
X97605788Y-62919560D01*
X97510500Y-62938514D01*
X97415212Y-62919560D01*
X97408316Y-62916581D01*
X97402411Y-62913923D01*
X97239996Y-62863314D01*
X97239988Y-62863312D01*
X97169430Y-62856900D01*
X97169416Y-62856900D01*
X96656184Y-62856900D01*
X96656169Y-62856900D01*
X96585611Y-62863312D01*
X96585603Y-62863314D01*
X96423191Y-62913922D01*
X96277613Y-63001929D01*
X96263866Y-63015676D01*
X96183083Y-63069651D01*
X96087795Y-63088603D01*
X95992507Y-63069647D01*
X95911734Y-63015676D01*
X95897986Y-63001929D01*
X95897985Y-63001928D01*
X95862104Y-62980237D01*
X95752408Y-62913922D01*
X95589996Y-62863314D01*
X95589988Y-62863312D01*
X95519430Y-62856900D01*
X95519416Y-62856900D01*
X95006184Y-62856900D01*
X95006169Y-62856900D01*
X94935611Y-62863312D01*
X94935600Y-62863315D01*
X94841776Y-62892551D01*
X94745163Y-62902803D01*
X94651982Y-62875302D01*
X94576417Y-62814236D01*
X94529974Y-62728901D01*
X94518700Y-62654825D01*
X94518700Y-62393997D01*
X94518700Y-62393993D01*
X94514125Y-62370991D01*
X94492634Y-62262947D01*
X94492633Y-62262944D01*
X94471453Y-62211814D01*
X94471453Y-62211813D01*
X94471451Y-62211810D01*
X94441502Y-62139504D01*
X94367270Y-62028409D01*
X94352052Y-62013191D01*
X94272792Y-61933930D01*
X93750593Y-61411732D01*
X93750591Y-61411730D01*
X93727142Y-61396062D01*
X93668845Y-61357108D01*
X93639498Y-61337499D01*
X93639496Y-61337498D01*
X93603340Y-61322521D01*
X93603338Y-61322520D01*
X93516056Y-61286367D01*
X93516054Y-61286366D01*
X93516053Y-61286366D01*
X93385007Y-61260300D01*
X93385004Y-61260300D01*
X90709099Y-61260300D01*
X90613811Y-61241346D01*
X90533029Y-61187370D01*
X90479053Y-61106588D01*
X90460099Y-61011300D01*
X90460099Y-60715734D01*
X90460099Y-60715728D01*
X90453691Y-60656117D01*
X90403396Y-60521269D01*
X90317146Y-60406054D01*
X90201931Y-60319804D01*
X90121717Y-60289886D01*
X90067081Y-60269508D01*
X90007473Y-60263100D01*
X89061734Y-60263100D01*
X89061730Y-60263100D01*
X89061728Y-60263101D01*
X89048914Y-60264478D01*
X89002119Y-60269508D01*
X89002115Y-60269509D01*
X88867270Y-60319803D01*
X88752055Y-60406053D01*
X88752053Y-60406055D01*
X88665804Y-60521269D01*
X88615508Y-60656118D01*
X88609100Y-60715723D01*
X88609100Y-62477168D01*
X88590146Y-62572456D01*
X88536170Y-62653238D01*
X88455388Y-62707214D01*
X88360100Y-62726168D01*
X88264812Y-62707214D01*
X88210880Y-62676503D01*
X88201932Y-62669805D01*
X88201931Y-62669804D01*
X88100986Y-62632154D01*
X88067081Y-62619508D01*
X88007476Y-62613100D01*
X88007473Y-62613100D01*
X87401700Y-62613100D01*
X87306412Y-62594146D01*
X87225630Y-62540170D01*
X87171654Y-62459388D01*
X87152700Y-62364100D01*
X87152700Y-60615994D01*
X87152700Y-60615993D01*
X87146335Y-60583993D01*
X87126634Y-60484947D01*
X87126630Y-60484937D01*
X87101162Y-60423453D01*
X87101160Y-60423449D01*
X87080458Y-60373470D01*
X87075502Y-60361504D01*
X87001270Y-60250409D01*
X86969267Y-60218406D01*
X86906792Y-60155930D01*
X86588731Y-59837870D01*
X86534754Y-59757089D01*
X86515800Y-59661800D01*
X86534754Y-59566512D01*
X86588730Y-59485731D01*
X86669511Y-59431754D01*
X86764800Y-59412800D01*
X99166282Y-59412800D01*
X99261570Y-59431754D01*
G37*
%TD.AperFunction*%
%TD*%
M02*
