%TF.GenerationSoftware,KiCad,Pcbnew,9.0.3*%
%TF.CreationDate,2025-08-21T00:43:34-03:00*%
%TF.ProjectId,PCB_Conversor,5043425f-436f-46e7-9665-72736f722e6b,rev?*%
%TF.SameCoordinates,Original*%
%TF.FileFunction,Profile,NP*%
%FSLAX46Y46*%
G04 Gerber Fmt 4.6, Leading zero omitted, Abs format (unit mm)*
G04 Created by KiCad (PCBNEW 9.0.3) date 2025-08-21 00:43:34*
%MOMM*%
%LPD*%
G01*
G04 APERTURE LIST*
%TA.AperFunction,Profile*%
%ADD10C,0.050000*%
%TD*%
%TA.AperFunction,Profile*%
%ADD11C,0.100000*%
%TD*%
%TA.AperFunction,Profile*%
%ADD12C,0.200000*%
%TD*%
G04 APERTURE END LIST*
D10*
X59097000Y-67785246D02*
G75*
G02*
X54697000Y-67785246I-2200000J0D01*
G01*
X54697000Y-67785246D02*
G75*
G02*
X59097000Y-67785246I2200000J0D01*
G01*
D11*
X67043000Y-95548246D02*
G75*
G02*
X62643000Y-95548246I-2200000J0D01*
G01*
X62643000Y-95548246D02*
G75*
G02*
X67043000Y-95548246I2200000J0D01*
G01*
D10*
X59097000Y-98285246D02*
G75*
G02*
X54697000Y-98285246I-2200000J0D01*
G01*
X54697000Y-98285246D02*
G75*
G02*
X59097000Y-98285246I2200000J0D01*
G01*
X151097000Y-67785246D02*
G75*
G02*
X146697000Y-67785246I-2200000J0D01*
G01*
X146697000Y-67785246D02*
G75*
G02*
X151097000Y-67785246I2200000J0D01*
G01*
X151097000Y-128785246D02*
G75*
G02*
X146697000Y-128785246I-2200000J0D01*
G01*
X146697000Y-128785246D02*
G75*
G02*
X151097000Y-128785246I2200000J0D01*
G01*
D12*
X52857000Y-48215246D02*
X152857000Y-48215246D01*
X152857000Y-148215246D01*
X52857000Y-148215246D01*
X52857000Y-48215246D01*
D11*
X93754000Y-134974246D02*
G75*
G02*
X89354000Y-134974246I-2200000J0D01*
G01*
X89354000Y-134974246D02*
G75*
G02*
X93754000Y-134974246I2200000J0D01*
G01*
X139982000Y-90976246D02*
G75*
G02*
X135582000Y-90976246I-2200000J0D01*
G01*
X135582000Y-90976246D02*
G75*
G02*
X139982000Y-90976246I2200000J0D01*
G01*
D10*
X59097000Y-128785246D02*
G75*
G02*
X54697000Y-128785246I-2200000J0D01*
G01*
X54697000Y-128785246D02*
G75*
G02*
X59097000Y-128785246I2200000J0D01*
G01*
X151097000Y-98285246D02*
G75*
G02*
X146697000Y-98285246I-2200000J0D01*
G01*
X146697000Y-98285246D02*
G75*
G02*
X151097000Y-98285246I2200000J0D01*
G01*
M02*
