M48
; DRILL file {KiCad 9.0.3} date 2025-08-21T00:43:37-0300
; FORMAT={-:-/ absolute / metric / decimal}
; #@! TF.CreationDate,2025-08-21T00:43:37-03:00
; #@! TF.GenerationSoftware,Kicad,Pcbnew,9.0.3
; #@! TF.FileFunction,Plated,1,2,PTH
FMAT,2
METRIC
; #@! TA.AperFunction,Plated,PTH,ViaDrill
T1C0.300
; #@! TA.AperFunction,Plated,PTH,ComponentDrill
T2C1.100
; #@! TA.AperFunction,Plated,PTH,ComponentDrill
T3C1.190
; #@! TA.AperFunction,Plated,PTH,ComponentDrill
T4C1.200
; #@! TA.AperFunction,Plated,PTH,ComponentDrill
T5C1.400
; #@! TA.AperFunction,Plated,PTH,ComponentDrill
T6C1.500
; #@! TA.AperFunction,Plated,PTH,ComponentDrill
T7C1.600
; #@! TA.AperFunction,Plated,PTH,ComponentDrill
T8C2.000
; #@! TA.AperFunction,Plated,PTH,ComponentDrill
T9C2.692
; #@! TA.AperFunction,Plated,PTH,ComponentDrill
T10C4.013
; #@! TA.AperFunction,Plated,PTH,ComponentDrill
T11C4.978
%
G90
G05
T1
X70.916Y-105.294
X70.916Y-106.183
X70.916Y-107.072
X71.361Y-97.199
X71.361Y-98.469
X71.805Y-105.294
X71.805Y-106.183
X71.805Y-107.072
X72.694Y-105.294
X72.694Y-106.183
X72.714Y-107.091
X72.758Y-95.929
X72.758Y-97.199
X72.758Y-98.469
X73.583Y-105.294
X73.583Y-106.183
X73.583Y-107.072
X74.028Y-94.659
X74.028Y-95.929
X74.028Y-97.199
X74.028Y-98.469
X75.298Y-94.659
X75.298Y-95.929
X75.298Y-97.199
X75.298Y-98.469
X76.568Y-94.659
X76.568Y-95.929
X76.568Y-97.199
X76.568Y-98.469
X77.266Y-111.009
X77.266Y-111.898
X77.266Y-112.787
X77.266Y-113.676
X77.266Y-114.565
X77.838Y-94.659
X77.838Y-95.929
X77.838Y-97.199
X77.838Y-98.469
X78.155Y-111.009
X78.155Y-111.898
X78.155Y-112.787
X78.155Y-113.676
X78.155Y-114.565
X79.044Y-111.009
X79.044Y-111.898
X79.044Y-112.787
X79.044Y-113.676
X79.044Y-114.565
X79.108Y-94.659
X79.108Y-95.929
X79.108Y-97.199
X79.108Y-98.469
X79.597Y-107.252
X79.616Y-105.454
X79.616Y-106.343
X79.616Y-108.121
X79.616Y-109.01
X79.933Y-111.009
X79.933Y-111.898
X79.933Y-112.787
X79.933Y-113.676
X79.933Y-114.565
X80.378Y-94.659
X80.378Y-95.929
X80.378Y-97.199
X80.505Y-105.454
X80.505Y-106.343
X80.505Y-107.232
X80.505Y-108.121
X80.505Y-109.01
X81.394Y-105.454
X81.394Y-106.343
X81.394Y-107.232
X81.394Y-108.121
X81.394Y-109.01
X81.648Y-94.659
X81.648Y-95.929
X82.283Y-105.454
X82.283Y-106.343
X82.283Y-107.232
X82.283Y-108.121
X82.283Y-109.01
X83.934Y-145.553
X85.331Y-102.787
X86.22Y-101.898
X86.22Y-102.787
X86.22Y-103.676
X87.109Y-102.787
X87.109Y-103.676
X87.109Y-104.565
X87.998Y-100.12
X87.998Y-103.676
X87.998Y-104.565
X87.998Y-105.454
X88.887Y-99.231
X88.887Y-100.12
X88.887Y-101.009
X89.776Y-98.342
X89.776Y-99.231
X89.776Y-100.12
X89.776Y-101.009
X89.776Y-101.898
X90.665Y-99.231
X90.665Y-100.12
X90.665Y-101.009
X90.665Y-101.898
X91.554Y-100.12
X91.554Y-101.009
X91.554Y-101.898
X92.189Y-139.49
X92.443Y-101.009
X92.443Y-101.898
X92.57Y-95.548
X93.459Y-94.659
X93.459Y-95.548
X93.459Y-96.437
X94.329Y-95.548
X94.348Y-93.77
X94.348Y-94.659
X94.348Y-96.437
X94.348Y-97.326
X95.237Y-93.77
X95.237Y-94.659
X95.237Y-95.548
X95.237Y-96.437
X95.237Y-97.326
X95.237Y-98.215
X96.126Y-94.659
X96.126Y-95.548
X96.126Y-96.437
X96.126Y-97.326
X96.126Y-98.215
X96.126Y-99.104
X96.761Y-124.471
X97.015Y-95.548
X97.015Y-96.437
X97.015Y-97.326
X97.015Y-98.215
X97.904Y-96.437
X97.904Y-97.326
X102.603Y-129.17
X118.16Y-114.565
X118.16Y-115.327
X118.16Y-116.089
X118.16Y-116.851
X118.414Y-104.913
X118.414Y-105.675
X118.414Y-106.437
X118.922Y-114.565
X118.922Y-115.327
X118.922Y-116.089
X118.922Y-116.851
X119.176Y-104.913
X119.176Y-105.675
X119.176Y-106.437
X119.684Y-114.565
X119.684Y-115.327
X119.684Y-116.089
X119.684Y-116.851
X119.938Y-104.913
X119.938Y-105.675
X119.938Y-106.437
X132.511Y-121.677
X132.511Y-122.439
X132.511Y-123.201
X133.273Y-121.677
X133.273Y-122.439
X133.273Y-123.201
X134.035Y-121.677
X134.035Y-122.439
X134.035Y-123.201
T2
X76.545Y-51.543
X76.545Y-54.083
X76.545Y-56.623
X76.568Y-73.323
X76.568Y-75.863
X76.568Y-78.403
X85.966Y-62.401
X85.966Y-64.941
X85.966Y-67.481
X85.989Y-84.245
X85.989Y-86.785
X85.989Y-89.325
X116.067Y-127.9
X121.147Y-127.9
X142.417Y-96.785
X142.417Y-99.325
X142.417Y-101.865
X142.417Y-110.247
X142.417Y-115.327
X142.417Y-121.042
X142.417Y-126.122
T3
X89.649Y-144.283
X92.189Y-144.283
X98.031Y-144.41
X100.571Y-144.41
X103.111Y-144.41
X105.651Y-144.41
X108.191Y-144.41
T4
X69.723Y-102.659
X69.723Y-110.159
X85.839Y-106.353
X85.839Y-113.853
T5
X112.128Y-99.579
X117.208Y-99.579
T6
X117.335Y-54.146
X117.335Y-59.226
X117.335Y-64.306
X117.335Y-69.386
X117.335Y-74.466
X117.335Y-79.546
X117.335Y-84.626
X130.735Y-106.056
X139.115Y-106.056
X139.941Y-54.146
X139.941Y-59.226
X139.941Y-64.306
X139.941Y-69.386
X139.941Y-74.466
X139.941Y-79.546
X139.941Y-84.626
T7
X63.995Y-74.974
X65.011Y-89.579
X71.742Y-80.435
X72.758Y-55.035
X89.014Y-127.933
X94.856Y-128.314
X114.795Y-107.961
X123.494Y-145.299
X124.002Y-106.056
T8
X128.003Y-136.028
X138.003Y-136.028
T9
X65.836Y-119.01
X65.836Y-124.09
X65.836Y-128.281
X65.836Y-133.361
X73.329Y-119.01
X73.329Y-124.09
X73.329Y-128.281
X73.329Y-133.361
T10
X108.191Y-54.146
X108.191Y-64.306
X108.191Y-74.466
X108.191Y-84.626
T11
X67.551Y-141.616
X77.33Y-141.616
X82.41Y-123.201
X82.41Y-132.599
M30
