%TF.GenerationSoftware,KiCad,Pcbnew,9.0.3*%
%TF.CreationDate,2025-08-21T00:43:34-03:00*%
%TF.ProjectId,PCB_Conversor,5043425f-436f-46e7-9665-72736f722e6b,rev?*%
%TF.SameCoordinates,Original*%
%TF.FileFunction,Legend,Top*%
%TF.FilePolarity,Positive*%
%FSLAX46Y46*%
G04 Gerber Fmt 4.6, Leading zero omitted, Abs format (unit mm)*
G04 Created by KiCad (PCBNEW 9.0.3) date 2025-08-21 00:43:34*
%MOMM*%
%LPD*%
G01*
G04 APERTURE LIST*
%ADD10C,0.100000*%
%ADD11C,0.150000*%
%ADD12C,0.149860*%
%ADD13C,0.120000*%
G04 APERTURE END LIST*
D10*
X144767000Y-147745246D02*
X144767000Y-48685246D01*
X60947000Y-48685246D02*
X60947000Y-147745246D01*
X75139524Y-147694665D02*
X75139524Y-146694665D01*
X75139524Y-146694665D02*
X75520476Y-146694665D01*
X75520476Y-146694665D02*
X75615714Y-146742284D01*
X75615714Y-146742284D02*
X75663333Y-146789903D01*
X75663333Y-146789903D02*
X75710952Y-146885141D01*
X75710952Y-146885141D02*
X75710952Y-147027998D01*
X75710952Y-147027998D02*
X75663333Y-147123236D01*
X75663333Y-147123236D02*
X75615714Y-147170855D01*
X75615714Y-147170855D02*
X75520476Y-147218474D01*
X75520476Y-147218474D02*
X75139524Y-147218474D01*
X76044286Y-147027998D02*
X76234762Y-147694665D01*
X76234762Y-147694665D02*
X76425238Y-147218474D01*
X76425238Y-147218474D02*
X76615714Y-147694665D01*
X76615714Y-147694665D02*
X76806190Y-147027998D01*
X77187143Y-147694665D02*
X77187143Y-147027998D01*
X77187143Y-147218474D02*
X77234762Y-147123236D01*
X77234762Y-147123236D02*
X77282381Y-147075617D01*
X77282381Y-147075617D02*
X77377619Y-147027998D01*
X77377619Y-147027998D02*
X77472857Y-147027998D01*
X77806191Y-147313712D02*
X78568096Y-147313712D01*
X78187143Y-147694665D02*
X78187143Y-146932760D01*
X78996667Y-146789903D02*
X79044286Y-146742284D01*
X79044286Y-146742284D02*
X79139524Y-146694665D01*
X79139524Y-146694665D02*
X79377619Y-146694665D01*
X79377619Y-146694665D02*
X79472857Y-146742284D01*
X79472857Y-146742284D02*
X79520476Y-146789903D01*
X79520476Y-146789903D02*
X79568095Y-146885141D01*
X79568095Y-146885141D02*
X79568095Y-146980379D01*
X79568095Y-146980379D02*
X79520476Y-147123236D01*
X79520476Y-147123236D02*
X78949048Y-147694665D01*
X78949048Y-147694665D02*
X79568095Y-147694665D01*
D11*
X111550142Y-121243065D02*
X111216809Y-120766874D01*
X110978714Y-121243065D02*
X110978714Y-120243065D01*
X110978714Y-120243065D02*
X111359666Y-120243065D01*
X111359666Y-120243065D02*
X111454904Y-120290684D01*
X111454904Y-120290684D02*
X111502523Y-120338303D01*
X111502523Y-120338303D02*
X111550142Y-120433541D01*
X111550142Y-120433541D02*
X111550142Y-120576398D01*
X111550142Y-120576398D02*
X111502523Y-120671636D01*
X111502523Y-120671636D02*
X111454904Y-120719255D01*
X111454904Y-120719255D02*
X111359666Y-120766874D01*
X111359666Y-120766874D02*
X110978714Y-120766874D01*
X111883476Y-120243065D02*
X112502523Y-120243065D01*
X112502523Y-120243065D02*
X112169190Y-120624017D01*
X112169190Y-120624017D02*
X112312047Y-120624017D01*
X112312047Y-120624017D02*
X112407285Y-120671636D01*
X112407285Y-120671636D02*
X112454904Y-120719255D01*
X112454904Y-120719255D02*
X112502523Y-120814493D01*
X112502523Y-120814493D02*
X112502523Y-121052588D01*
X112502523Y-121052588D02*
X112454904Y-121147826D01*
X112454904Y-121147826D02*
X112407285Y-121195446D01*
X112407285Y-121195446D02*
X112312047Y-121243065D01*
X112312047Y-121243065D02*
X112026333Y-121243065D01*
X112026333Y-121243065D02*
X111931095Y-121195446D01*
X111931095Y-121195446D02*
X111883476Y-121147826D01*
X113454904Y-121243065D02*
X112883476Y-121243065D01*
X113169190Y-121243065D02*
X113169190Y-120243065D01*
X113169190Y-120243065D02*
X113073952Y-120385922D01*
X113073952Y-120385922D02*
X112978714Y-120481160D01*
X112978714Y-120481160D02*
X112883476Y-120528779D01*
X97944333Y-140801065D02*
X97944333Y-139801065D01*
X97944333Y-140277255D02*
X98515761Y-140277255D01*
X98515761Y-140801065D02*
X98515761Y-139801065D01*
X98991952Y-140801065D02*
X98991952Y-139801065D01*
X98991952Y-139801065D02*
X99325285Y-140515350D01*
X99325285Y-140515350D02*
X99658618Y-139801065D01*
X99658618Y-139801065D02*
X99658618Y-140801065D01*
X100134809Y-140801065D02*
X100134809Y-139801065D01*
X100372904Y-140896303D02*
X101134808Y-140896303D01*
X101325285Y-140753446D02*
X101468142Y-140801065D01*
X101468142Y-140801065D02*
X101706237Y-140801065D01*
X101706237Y-140801065D02*
X101801475Y-140753446D01*
X101801475Y-140753446D02*
X101849094Y-140705826D01*
X101849094Y-140705826D02*
X101896713Y-140610588D01*
X101896713Y-140610588D02*
X101896713Y-140515350D01*
X101896713Y-140515350D02*
X101849094Y-140420112D01*
X101849094Y-140420112D02*
X101801475Y-140372493D01*
X101801475Y-140372493D02*
X101706237Y-140324874D01*
X101706237Y-140324874D02*
X101515761Y-140277255D01*
X101515761Y-140277255D02*
X101420523Y-140229636D01*
X101420523Y-140229636D02*
X101372904Y-140182017D01*
X101372904Y-140182017D02*
X101325285Y-140086779D01*
X101325285Y-140086779D02*
X101325285Y-139991541D01*
X101325285Y-139991541D02*
X101372904Y-139896303D01*
X101372904Y-139896303D02*
X101420523Y-139848684D01*
X101420523Y-139848684D02*
X101515761Y-139801065D01*
X101515761Y-139801065D02*
X101753856Y-139801065D01*
X101753856Y-139801065D02*
X101896713Y-139848684D01*
X102325285Y-140801065D02*
X102325285Y-140134398D01*
X102325285Y-139801065D02*
X102277666Y-139848684D01*
X102277666Y-139848684D02*
X102325285Y-139896303D01*
X102325285Y-139896303D02*
X102372904Y-139848684D01*
X102372904Y-139848684D02*
X102325285Y-139801065D01*
X102325285Y-139801065D02*
X102325285Y-139896303D01*
X103230046Y-140134398D02*
X103230046Y-140943922D01*
X103230046Y-140943922D02*
X103182427Y-141039160D01*
X103182427Y-141039160D02*
X103134808Y-141086779D01*
X103134808Y-141086779D02*
X103039570Y-141134398D01*
X103039570Y-141134398D02*
X102896713Y-141134398D01*
X102896713Y-141134398D02*
X102801475Y-141086779D01*
X103230046Y-140753446D02*
X103134808Y-140801065D01*
X103134808Y-140801065D02*
X102944332Y-140801065D01*
X102944332Y-140801065D02*
X102849094Y-140753446D01*
X102849094Y-140753446D02*
X102801475Y-140705826D01*
X102801475Y-140705826D02*
X102753856Y-140610588D01*
X102753856Y-140610588D02*
X102753856Y-140324874D01*
X102753856Y-140324874D02*
X102801475Y-140229636D01*
X102801475Y-140229636D02*
X102849094Y-140182017D01*
X102849094Y-140182017D02*
X102944332Y-140134398D01*
X102944332Y-140134398D02*
X103134808Y-140134398D01*
X103134808Y-140134398D02*
X103230046Y-140182017D01*
X103706237Y-140134398D02*
X103706237Y-140801065D01*
X103706237Y-140229636D02*
X103753856Y-140182017D01*
X103753856Y-140182017D02*
X103849094Y-140134398D01*
X103849094Y-140134398D02*
X103991951Y-140134398D01*
X103991951Y-140134398D02*
X104087189Y-140182017D01*
X104087189Y-140182017D02*
X104134808Y-140277255D01*
X104134808Y-140277255D02*
X104134808Y-140801065D01*
X105039570Y-140801065D02*
X105039570Y-140277255D01*
X105039570Y-140277255D02*
X104991951Y-140182017D01*
X104991951Y-140182017D02*
X104896713Y-140134398D01*
X104896713Y-140134398D02*
X104706237Y-140134398D01*
X104706237Y-140134398D02*
X104610999Y-140182017D01*
X105039570Y-140753446D02*
X104944332Y-140801065D01*
X104944332Y-140801065D02*
X104706237Y-140801065D01*
X104706237Y-140801065D02*
X104610999Y-140753446D01*
X104610999Y-140753446D02*
X104563380Y-140658207D01*
X104563380Y-140658207D02*
X104563380Y-140562969D01*
X104563380Y-140562969D02*
X104610999Y-140467731D01*
X104610999Y-140467731D02*
X104706237Y-140420112D01*
X104706237Y-140420112D02*
X104944332Y-140420112D01*
X104944332Y-140420112D02*
X105039570Y-140372493D01*
X105658618Y-140801065D02*
X105563380Y-140753446D01*
X105563380Y-140753446D02*
X105515761Y-140658207D01*
X105515761Y-140658207D02*
X105515761Y-139801065D01*
X105801476Y-140896303D02*
X106563380Y-140896303D01*
X107134809Y-140277255D02*
X107277666Y-140324874D01*
X107277666Y-140324874D02*
X107325285Y-140372493D01*
X107325285Y-140372493D02*
X107372904Y-140467731D01*
X107372904Y-140467731D02*
X107372904Y-140610588D01*
X107372904Y-140610588D02*
X107325285Y-140705826D01*
X107325285Y-140705826D02*
X107277666Y-140753446D01*
X107277666Y-140753446D02*
X107182428Y-140801065D01*
X107182428Y-140801065D02*
X106801476Y-140801065D01*
X106801476Y-140801065D02*
X106801476Y-139801065D01*
X106801476Y-139801065D02*
X107134809Y-139801065D01*
X107134809Y-139801065D02*
X107230047Y-139848684D01*
X107230047Y-139848684D02*
X107277666Y-139896303D01*
X107277666Y-139896303D02*
X107325285Y-139991541D01*
X107325285Y-139991541D02*
X107325285Y-140086779D01*
X107325285Y-140086779D02*
X107277666Y-140182017D01*
X107277666Y-140182017D02*
X107230047Y-140229636D01*
X107230047Y-140229636D02*
X107134809Y-140277255D01*
X107134809Y-140277255D02*
X106801476Y-140277255D01*
X108325285Y-140801065D02*
X107753857Y-140801065D01*
X108039571Y-140801065D02*
X108039571Y-139801065D01*
X108039571Y-139801065D02*
X107944333Y-139943922D01*
X107944333Y-139943922D02*
X107849095Y-140039160D01*
X107849095Y-140039160D02*
X107753857Y-140086779D01*
X77576142Y-91304065D02*
X77242809Y-90827874D01*
X77004714Y-91304065D02*
X77004714Y-90304065D01*
X77004714Y-90304065D02*
X77385666Y-90304065D01*
X77385666Y-90304065D02*
X77480904Y-90351684D01*
X77480904Y-90351684D02*
X77528523Y-90399303D01*
X77528523Y-90399303D02*
X77576142Y-90494541D01*
X77576142Y-90494541D02*
X77576142Y-90637398D01*
X77576142Y-90637398D02*
X77528523Y-90732636D01*
X77528523Y-90732636D02*
X77480904Y-90780255D01*
X77480904Y-90780255D02*
X77385666Y-90827874D01*
X77385666Y-90827874D02*
X77004714Y-90827874D01*
X77957095Y-90399303D02*
X78004714Y-90351684D01*
X78004714Y-90351684D02*
X78099952Y-90304065D01*
X78099952Y-90304065D02*
X78338047Y-90304065D01*
X78338047Y-90304065D02*
X78433285Y-90351684D01*
X78433285Y-90351684D02*
X78480904Y-90399303D01*
X78480904Y-90399303D02*
X78528523Y-90494541D01*
X78528523Y-90494541D02*
X78528523Y-90589779D01*
X78528523Y-90589779D02*
X78480904Y-90732636D01*
X78480904Y-90732636D02*
X77909476Y-91304065D01*
X77909476Y-91304065D02*
X78528523Y-91304065D01*
X79433285Y-90304065D02*
X78957095Y-90304065D01*
X78957095Y-90304065D02*
X78909476Y-90780255D01*
X78909476Y-90780255D02*
X78957095Y-90732636D01*
X78957095Y-90732636D02*
X79052333Y-90685017D01*
X79052333Y-90685017D02*
X79290428Y-90685017D01*
X79290428Y-90685017D02*
X79385666Y-90732636D01*
X79385666Y-90732636D02*
X79433285Y-90780255D01*
X79433285Y-90780255D02*
X79480904Y-90875493D01*
X79480904Y-90875493D02*
X79480904Y-91113588D01*
X79480904Y-91113588D02*
X79433285Y-91208826D01*
X79433285Y-91208826D02*
X79385666Y-91256446D01*
X79385666Y-91256446D02*
X79290428Y-91304065D01*
X79290428Y-91304065D02*
X79052333Y-91304065D01*
X79052333Y-91304065D02*
X78957095Y-91256446D01*
X78957095Y-91256446D02*
X78909476Y-91208826D01*
X105581142Y-111089826D02*
X105533523Y-111137446D01*
X105533523Y-111137446D02*
X105390666Y-111185065D01*
X105390666Y-111185065D02*
X105295428Y-111185065D01*
X105295428Y-111185065D02*
X105152571Y-111137446D01*
X105152571Y-111137446D02*
X105057333Y-111042207D01*
X105057333Y-111042207D02*
X105009714Y-110946969D01*
X105009714Y-110946969D02*
X104962095Y-110756493D01*
X104962095Y-110756493D02*
X104962095Y-110613636D01*
X104962095Y-110613636D02*
X105009714Y-110423160D01*
X105009714Y-110423160D02*
X105057333Y-110327922D01*
X105057333Y-110327922D02*
X105152571Y-110232684D01*
X105152571Y-110232684D02*
X105295428Y-110185065D01*
X105295428Y-110185065D02*
X105390666Y-110185065D01*
X105390666Y-110185065D02*
X105533523Y-110232684D01*
X105533523Y-110232684D02*
X105581142Y-110280303D01*
X106533523Y-111185065D02*
X105962095Y-111185065D01*
X106247809Y-111185065D02*
X106247809Y-110185065D01*
X106247809Y-110185065D02*
X106152571Y-110327922D01*
X106152571Y-110327922D02*
X106057333Y-110423160D01*
X106057333Y-110423160D02*
X105962095Y-110470779D01*
X107390666Y-110185065D02*
X107200190Y-110185065D01*
X107200190Y-110185065D02*
X107104952Y-110232684D01*
X107104952Y-110232684D02*
X107057333Y-110280303D01*
X107057333Y-110280303D02*
X106962095Y-110423160D01*
X106962095Y-110423160D02*
X106914476Y-110613636D01*
X106914476Y-110613636D02*
X106914476Y-110994588D01*
X106914476Y-110994588D02*
X106962095Y-111089826D01*
X106962095Y-111089826D02*
X107009714Y-111137446D01*
X107009714Y-111137446D02*
X107104952Y-111185065D01*
X107104952Y-111185065D02*
X107295428Y-111185065D01*
X107295428Y-111185065D02*
X107390666Y-111137446D01*
X107390666Y-111137446D02*
X107438285Y-111089826D01*
X107438285Y-111089826D02*
X107485904Y-110994588D01*
X107485904Y-110994588D02*
X107485904Y-110756493D01*
X107485904Y-110756493D02*
X107438285Y-110661255D01*
X107438285Y-110661255D02*
X107390666Y-110613636D01*
X107390666Y-110613636D02*
X107295428Y-110566017D01*
X107295428Y-110566017D02*
X107104952Y-110566017D01*
X107104952Y-110566017D02*
X107009714Y-110613636D01*
X107009714Y-110613636D02*
X106962095Y-110661255D01*
X106962095Y-110661255D02*
X106914476Y-110756493D01*
X66296642Y-70222065D02*
X65963309Y-69745874D01*
X65725214Y-70222065D02*
X65725214Y-69222065D01*
X65725214Y-69222065D02*
X66106166Y-69222065D01*
X66106166Y-69222065D02*
X66201404Y-69269684D01*
X66201404Y-69269684D02*
X66249023Y-69317303D01*
X66249023Y-69317303D02*
X66296642Y-69412541D01*
X66296642Y-69412541D02*
X66296642Y-69555398D01*
X66296642Y-69555398D02*
X66249023Y-69650636D01*
X66249023Y-69650636D02*
X66201404Y-69698255D01*
X66201404Y-69698255D02*
X66106166Y-69745874D01*
X66106166Y-69745874D02*
X65725214Y-69745874D01*
X66677595Y-69317303D02*
X66725214Y-69269684D01*
X66725214Y-69269684D02*
X66820452Y-69222065D01*
X66820452Y-69222065D02*
X67058547Y-69222065D01*
X67058547Y-69222065D02*
X67153785Y-69269684D01*
X67153785Y-69269684D02*
X67201404Y-69317303D01*
X67201404Y-69317303D02*
X67249023Y-69412541D01*
X67249023Y-69412541D02*
X67249023Y-69507779D01*
X67249023Y-69507779D02*
X67201404Y-69650636D01*
X67201404Y-69650636D02*
X66629976Y-70222065D01*
X66629976Y-70222065D02*
X67249023Y-70222065D01*
X67629976Y-69317303D02*
X67677595Y-69269684D01*
X67677595Y-69269684D02*
X67772833Y-69222065D01*
X67772833Y-69222065D02*
X68010928Y-69222065D01*
X68010928Y-69222065D02*
X68106166Y-69269684D01*
X68106166Y-69269684D02*
X68153785Y-69317303D01*
X68153785Y-69317303D02*
X68201404Y-69412541D01*
X68201404Y-69412541D02*
X68201404Y-69507779D01*
X68201404Y-69507779D02*
X68153785Y-69650636D01*
X68153785Y-69650636D02*
X67582357Y-70222065D01*
X67582357Y-70222065D02*
X68201404Y-70222065D01*
X70607095Y-77477065D02*
X71178523Y-77477065D01*
X70892809Y-78477065D02*
X70892809Y-77477065D01*
X71511857Y-78477065D02*
X71511857Y-77477065D01*
X71511857Y-77477065D02*
X71892809Y-77477065D01*
X71892809Y-77477065D02*
X71988047Y-77524684D01*
X71988047Y-77524684D02*
X72035666Y-77572303D01*
X72035666Y-77572303D02*
X72083285Y-77667541D01*
X72083285Y-77667541D02*
X72083285Y-77810398D01*
X72083285Y-77810398D02*
X72035666Y-77905636D01*
X72035666Y-77905636D02*
X71988047Y-77953255D01*
X71988047Y-77953255D02*
X71892809Y-78000874D01*
X71892809Y-78000874D02*
X71511857Y-78000874D01*
X72464238Y-77572303D02*
X72511857Y-77524684D01*
X72511857Y-77524684D02*
X72607095Y-77477065D01*
X72607095Y-77477065D02*
X72845190Y-77477065D01*
X72845190Y-77477065D02*
X72940428Y-77524684D01*
X72940428Y-77524684D02*
X72988047Y-77572303D01*
X72988047Y-77572303D02*
X73035666Y-77667541D01*
X73035666Y-77667541D02*
X73035666Y-77762779D01*
X73035666Y-77762779D02*
X72988047Y-77905636D01*
X72988047Y-77905636D02*
X72416619Y-78477065D01*
X72416619Y-78477065D02*
X73035666Y-78477065D01*
X72496142Y-50554865D02*
X72162809Y-50078674D01*
X71924714Y-50554865D02*
X71924714Y-49554865D01*
X71924714Y-49554865D02*
X72305666Y-49554865D01*
X72305666Y-49554865D02*
X72400904Y-49602484D01*
X72400904Y-49602484D02*
X72448523Y-49650103D01*
X72448523Y-49650103D02*
X72496142Y-49745341D01*
X72496142Y-49745341D02*
X72496142Y-49888198D01*
X72496142Y-49888198D02*
X72448523Y-49983436D01*
X72448523Y-49983436D02*
X72400904Y-50031055D01*
X72400904Y-50031055D02*
X72305666Y-50078674D01*
X72305666Y-50078674D02*
X71924714Y-50078674D01*
X72877095Y-49650103D02*
X72924714Y-49602484D01*
X72924714Y-49602484D02*
X73019952Y-49554865D01*
X73019952Y-49554865D02*
X73258047Y-49554865D01*
X73258047Y-49554865D02*
X73353285Y-49602484D01*
X73353285Y-49602484D02*
X73400904Y-49650103D01*
X73400904Y-49650103D02*
X73448523Y-49745341D01*
X73448523Y-49745341D02*
X73448523Y-49840579D01*
X73448523Y-49840579D02*
X73400904Y-49983436D01*
X73400904Y-49983436D02*
X72829476Y-50554865D01*
X72829476Y-50554865D02*
X73448523Y-50554865D01*
X73781857Y-49554865D02*
X74400904Y-49554865D01*
X74400904Y-49554865D02*
X74067571Y-49935817D01*
X74067571Y-49935817D02*
X74210428Y-49935817D01*
X74210428Y-49935817D02*
X74305666Y-49983436D01*
X74305666Y-49983436D02*
X74353285Y-50031055D01*
X74353285Y-50031055D02*
X74400904Y-50126293D01*
X74400904Y-50126293D02*
X74400904Y-50364388D01*
X74400904Y-50364388D02*
X74353285Y-50459626D01*
X74353285Y-50459626D02*
X74305666Y-50507246D01*
X74305666Y-50507246D02*
X74210428Y-50554865D01*
X74210428Y-50554865D02*
X73924714Y-50554865D01*
X73924714Y-50554865D02*
X73829476Y-50507246D01*
X73829476Y-50507246D02*
X73781857Y-50459626D01*
X84719333Y-141436065D02*
X84386000Y-140959874D01*
X84147905Y-141436065D02*
X84147905Y-140436065D01*
X84147905Y-140436065D02*
X84528857Y-140436065D01*
X84528857Y-140436065D02*
X84624095Y-140483684D01*
X84624095Y-140483684D02*
X84671714Y-140531303D01*
X84671714Y-140531303D02*
X84719333Y-140626541D01*
X84719333Y-140626541D02*
X84719333Y-140769398D01*
X84719333Y-140769398D02*
X84671714Y-140864636D01*
X84671714Y-140864636D02*
X84624095Y-140912255D01*
X84624095Y-140912255D02*
X84528857Y-140959874D01*
X84528857Y-140959874D02*
X84147905Y-140959874D01*
X85100286Y-140531303D02*
X85147905Y-140483684D01*
X85147905Y-140483684D02*
X85243143Y-140436065D01*
X85243143Y-140436065D02*
X85481238Y-140436065D01*
X85481238Y-140436065D02*
X85576476Y-140483684D01*
X85576476Y-140483684D02*
X85624095Y-140531303D01*
X85624095Y-140531303D02*
X85671714Y-140626541D01*
X85671714Y-140626541D02*
X85671714Y-140721779D01*
X85671714Y-140721779D02*
X85624095Y-140864636D01*
X85624095Y-140864636D02*
X85052667Y-141436065D01*
X85052667Y-141436065D02*
X85671714Y-141436065D01*
X68146333Y-97811826D02*
X68098714Y-97859446D01*
X68098714Y-97859446D02*
X67955857Y-97907065D01*
X67955857Y-97907065D02*
X67860619Y-97907065D01*
X67860619Y-97907065D02*
X67717762Y-97859446D01*
X67717762Y-97859446D02*
X67622524Y-97764207D01*
X67622524Y-97764207D02*
X67574905Y-97668969D01*
X67574905Y-97668969D02*
X67527286Y-97478493D01*
X67527286Y-97478493D02*
X67527286Y-97335636D01*
X67527286Y-97335636D02*
X67574905Y-97145160D01*
X67574905Y-97145160D02*
X67622524Y-97049922D01*
X67622524Y-97049922D02*
X67717762Y-96954684D01*
X67717762Y-96954684D02*
X67860619Y-96907065D01*
X67860619Y-96907065D02*
X67955857Y-96907065D01*
X67955857Y-96907065D02*
X68098714Y-96954684D01*
X68098714Y-96954684D02*
X68146333Y-97002303D01*
X68479667Y-96907065D02*
X69098714Y-96907065D01*
X69098714Y-96907065D02*
X68765381Y-97288017D01*
X68765381Y-97288017D02*
X68908238Y-97288017D01*
X68908238Y-97288017D02*
X69003476Y-97335636D01*
X69003476Y-97335636D02*
X69051095Y-97383255D01*
X69051095Y-97383255D02*
X69098714Y-97478493D01*
X69098714Y-97478493D02*
X69098714Y-97716588D01*
X69098714Y-97716588D02*
X69051095Y-97811826D01*
X69051095Y-97811826D02*
X69003476Y-97859446D01*
X69003476Y-97859446D02*
X68908238Y-97907065D01*
X68908238Y-97907065D02*
X68622524Y-97907065D01*
X68622524Y-97907065D02*
X68527286Y-97859446D01*
X68527286Y-97859446D02*
X68479667Y-97811826D01*
X98658142Y-114418065D02*
X98324809Y-113941874D01*
X98086714Y-114418065D02*
X98086714Y-113418065D01*
X98086714Y-113418065D02*
X98467666Y-113418065D01*
X98467666Y-113418065D02*
X98562904Y-113465684D01*
X98562904Y-113465684D02*
X98610523Y-113513303D01*
X98610523Y-113513303D02*
X98658142Y-113608541D01*
X98658142Y-113608541D02*
X98658142Y-113751398D01*
X98658142Y-113751398D02*
X98610523Y-113846636D01*
X98610523Y-113846636D02*
X98562904Y-113894255D01*
X98562904Y-113894255D02*
X98467666Y-113941874D01*
X98467666Y-113941874D02*
X98086714Y-113941874D01*
X98991476Y-113418065D02*
X99610523Y-113418065D01*
X99610523Y-113418065D02*
X99277190Y-113799017D01*
X99277190Y-113799017D02*
X99420047Y-113799017D01*
X99420047Y-113799017D02*
X99515285Y-113846636D01*
X99515285Y-113846636D02*
X99562904Y-113894255D01*
X99562904Y-113894255D02*
X99610523Y-113989493D01*
X99610523Y-113989493D02*
X99610523Y-114227588D01*
X99610523Y-114227588D02*
X99562904Y-114322826D01*
X99562904Y-114322826D02*
X99515285Y-114370446D01*
X99515285Y-114370446D02*
X99420047Y-114418065D01*
X99420047Y-114418065D02*
X99134333Y-114418065D01*
X99134333Y-114418065D02*
X99039095Y-114370446D01*
X99039095Y-114370446D02*
X98991476Y-114322826D01*
X99991476Y-113513303D02*
X100039095Y-113465684D01*
X100039095Y-113465684D02*
X100134333Y-113418065D01*
X100134333Y-113418065D02*
X100372428Y-113418065D01*
X100372428Y-113418065D02*
X100467666Y-113465684D01*
X100467666Y-113465684D02*
X100515285Y-113513303D01*
X100515285Y-113513303D02*
X100562904Y-113608541D01*
X100562904Y-113608541D02*
X100562904Y-113703779D01*
X100562904Y-113703779D02*
X100515285Y-113846636D01*
X100515285Y-113846636D02*
X99943857Y-114418065D01*
X99943857Y-114418065D02*
X100562904Y-114418065D01*
X70258819Y-90984103D02*
X69782628Y-91317436D01*
X70258819Y-91555531D02*
X69258819Y-91555531D01*
X69258819Y-91555531D02*
X69258819Y-91174579D01*
X69258819Y-91174579D02*
X69306438Y-91079341D01*
X69306438Y-91079341D02*
X69354057Y-91031722D01*
X69354057Y-91031722D02*
X69449295Y-90984103D01*
X69449295Y-90984103D02*
X69592152Y-90984103D01*
X69592152Y-90984103D02*
X69687390Y-91031722D01*
X69687390Y-91031722D02*
X69735009Y-91079341D01*
X69735009Y-91079341D02*
X69782628Y-91174579D01*
X69782628Y-91174579D02*
X69782628Y-91555531D01*
X69354057Y-90603150D02*
X69306438Y-90555531D01*
X69306438Y-90555531D02*
X69258819Y-90460293D01*
X69258819Y-90460293D02*
X69258819Y-90222198D01*
X69258819Y-90222198D02*
X69306438Y-90126960D01*
X69306438Y-90126960D02*
X69354057Y-90079341D01*
X69354057Y-90079341D02*
X69449295Y-90031722D01*
X69449295Y-90031722D02*
X69544533Y-90031722D01*
X69544533Y-90031722D02*
X69687390Y-90079341D01*
X69687390Y-90079341D02*
X70258819Y-90650769D01*
X70258819Y-90650769D02*
X70258819Y-90031722D01*
X69592152Y-89174579D02*
X70258819Y-89174579D01*
X69211200Y-89412674D02*
X69925485Y-89650769D01*
X69925485Y-89650769D02*
X69925485Y-89031722D01*
X85481333Y-101335826D02*
X85433714Y-101383446D01*
X85433714Y-101383446D02*
X85290857Y-101431065D01*
X85290857Y-101431065D02*
X85195619Y-101431065D01*
X85195619Y-101431065D02*
X85052762Y-101383446D01*
X85052762Y-101383446D02*
X84957524Y-101288207D01*
X84957524Y-101288207D02*
X84909905Y-101192969D01*
X84909905Y-101192969D02*
X84862286Y-101002493D01*
X84862286Y-101002493D02*
X84862286Y-100859636D01*
X84862286Y-100859636D02*
X84909905Y-100669160D01*
X84909905Y-100669160D02*
X84957524Y-100573922D01*
X84957524Y-100573922D02*
X85052762Y-100478684D01*
X85052762Y-100478684D02*
X85195619Y-100431065D01*
X85195619Y-100431065D02*
X85290857Y-100431065D01*
X85290857Y-100431065D02*
X85433714Y-100478684D01*
X85433714Y-100478684D02*
X85481333Y-100526303D01*
X86338476Y-100764398D02*
X86338476Y-101431065D01*
X86100381Y-100383446D02*
X85862286Y-101097731D01*
X85862286Y-101097731D02*
X86481333Y-101097731D01*
X120009095Y-142341065D02*
X120580523Y-142341065D01*
X120294809Y-143341065D02*
X120294809Y-142341065D01*
X120913857Y-143341065D02*
X120913857Y-142341065D01*
X120913857Y-142341065D02*
X121294809Y-142341065D01*
X121294809Y-142341065D02*
X121390047Y-142388684D01*
X121390047Y-142388684D02*
X121437666Y-142436303D01*
X121437666Y-142436303D02*
X121485285Y-142531541D01*
X121485285Y-142531541D02*
X121485285Y-142674398D01*
X121485285Y-142674398D02*
X121437666Y-142769636D01*
X121437666Y-142769636D02*
X121390047Y-142817255D01*
X121390047Y-142817255D02*
X121294809Y-142864874D01*
X121294809Y-142864874D02*
X120913857Y-142864874D01*
X122390047Y-142341065D02*
X121913857Y-142341065D01*
X121913857Y-142341065D02*
X121866238Y-142817255D01*
X121866238Y-142817255D02*
X121913857Y-142769636D01*
X121913857Y-142769636D02*
X122009095Y-142722017D01*
X122009095Y-142722017D02*
X122247190Y-142722017D01*
X122247190Y-142722017D02*
X122342428Y-142769636D01*
X122342428Y-142769636D02*
X122390047Y-142817255D01*
X122390047Y-142817255D02*
X122437666Y-142912493D01*
X122437666Y-142912493D02*
X122437666Y-143150588D01*
X122437666Y-143150588D02*
X122390047Y-143245826D01*
X122390047Y-143245826D02*
X122342428Y-143293446D01*
X122342428Y-143293446D02*
X122247190Y-143341065D01*
X122247190Y-143341065D02*
X122009095Y-143341065D01*
X122009095Y-143341065D02*
X121913857Y-143293446D01*
X121913857Y-143293446D02*
X121866238Y-143245826D01*
X132836333Y-124137826D02*
X132788714Y-124185446D01*
X132788714Y-124185446D02*
X132645857Y-124233065D01*
X132645857Y-124233065D02*
X132550619Y-124233065D01*
X132550619Y-124233065D02*
X132407762Y-124185446D01*
X132407762Y-124185446D02*
X132312524Y-124090207D01*
X132312524Y-124090207D02*
X132264905Y-123994969D01*
X132264905Y-123994969D02*
X132217286Y-123804493D01*
X132217286Y-123804493D02*
X132217286Y-123661636D01*
X132217286Y-123661636D02*
X132264905Y-123471160D01*
X132264905Y-123471160D02*
X132312524Y-123375922D01*
X132312524Y-123375922D02*
X132407762Y-123280684D01*
X132407762Y-123280684D02*
X132550619Y-123233065D01*
X132550619Y-123233065D02*
X132645857Y-123233065D01*
X132645857Y-123233065D02*
X132788714Y-123280684D01*
X132788714Y-123280684D02*
X132836333Y-123328303D01*
X133741095Y-123233065D02*
X133264905Y-123233065D01*
X133264905Y-123233065D02*
X133217286Y-123709255D01*
X133217286Y-123709255D02*
X133264905Y-123661636D01*
X133264905Y-123661636D02*
X133360143Y-123614017D01*
X133360143Y-123614017D02*
X133598238Y-123614017D01*
X133598238Y-123614017D02*
X133693476Y-123661636D01*
X133693476Y-123661636D02*
X133741095Y-123709255D01*
X133741095Y-123709255D02*
X133788714Y-123804493D01*
X133788714Y-123804493D02*
X133788714Y-124042588D01*
X133788714Y-124042588D02*
X133741095Y-124137826D01*
X133741095Y-124137826D02*
X133693476Y-124185446D01*
X133693476Y-124185446D02*
X133598238Y-124233065D01*
X133598238Y-124233065D02*
X133360143Y-124233065D01*
X133360143Y-124233065D02*
X133264905Y-124185446D01*
X133264905Y-124185446D02*
X133217286Y-124137826D01*
X109707142Y-133148065D02*
X109373809Y-132671874D01*
X109135714Y-133148065D02*
X109135714Y-132148065D01*
X109135714Y-132148065D02*
X109516666Y-132148065D01*
X109516666Y-132148065D02*
X109611904Y-132195684D01*
X109611904Y-132195684D02*
X109659523Y-132243303D01*
X109659523Y-132243303D02*
X109707142Y-132338541D01*
X109707142Y-132338541D02*
X109707142Y-132481398D01*
X109707142Y-132481398D02*
X109659523Y-132576636D01*
X109659523Y-132576636D02*
X109611904Y-132624255D01*
X109611904Y-132624255D02*
X109516666Y-132671874D01*
X109516666Y-132671874D02*
X109135714Y-132671874D01*
X110088095Y-132243303D02*
X110135714Y-132195684D01*
X110135714Y-132195684D02*
X110230952Y-132148065D01*
X110230952Y-132148065D02*
X110469047Y-132148065D01*
X110469047Y-132148065D02*
X110564285Y-132195684D01*
X110564285Y-132195684D02*
X110611904Y-132243303D01*
X110611904Y-132243303D02*
X110659523Y-132338541D01*
X110659523Y-132338541D02*
X110659523Y-132433779D01*
X110659523Y-132433779D02*
X110611904Y-132576636D01*
X110611904Y-132576636D02*
X110040476Y-133148065D01*
X110040476Y-133148065D02*
X110659523Y-133148065D01*
X111135714Y-133148065D02*
X111326190Y-133148065D01*
X111326190Y-133148065D02*
X111421428Y-133100446D01*
X111421428Y-133100446D02*
X111469047Y-133052826D01*
X111469047Y-133052826D02*
X111564285Y-132909969D01*
X111564285Y-132909969D02*
X111611904Y-132719493D01*
X111611904Y-132719493D02*
X111611904Y-132338541D01*
X111611904Y-132338541D02*
X111564285Y-132243303D01*
X111564285Y-132243303D02*
X111516666Y-132195684D01*
X111516666Y-132195684D02*
X111421428Y-132148065D01*
X111421428Y-132148065D02*
X111230952Y-132148065D01*
X111230952Y-132148065D02*
X111135714Y-132195684D01*
X111135714Y-132195684D02*
X111088095Y-132243303D01*
X111088095Y-132243303D02*
X111040476Y-132338541D01*
X111040476Y-132338541D02*
X111040476Y-132576636D01*
X111040476Y-132576636D02*
X111088095Y-132671874D01*
X111088095Y-132671874D02*
X111135714Y-132719493D01*
X111135714Y-132719493D02*
X111230952Y-132767112D01*
X111230952Y-132767112D02*
X111421428Y-132767112D01*
X111421428Y-132767112D02*
X111516666Y-132719493D01*
X111516666Y-132719493D02*
X111564285Y-132671874D01*
X111564285Y-132671874D02*
X111611904Y-132576636D01*
X72165057Y-62972674D02*
X72117438Y-63067912D01*
X72117438Y-63067912D02*
X72022200Y-63163150D01*
X72022200Y-63163150D02*
X71879342Y-63306007D01*
X71879342Y-63306007D02*
X71831723Y-63401245D01*
X71831723Y-63401245D02*
X71831723Y-63496483D01*
X72069819Y-63448864D02*
X72022200Y-63544102D01*
X72022200Y-63544102D02*
X71926961Y-63639340D01*
X71926961Y-63639340D02*
X71736485Y-63686959D01*
X71736485Y-63686959D02*
X71403152Y-63686959D01*
X71403152Y-63686959D02*
X71212676Y-63639340D01*
X71212676Y-63639340D02*
X71117438Y-63544102D01*
X71117438Y-63544102D02*
X71069819Y-63448864D01*
X71069819Y-63448864D02*
X71069819Y-63258388D01*
X71069819Y-63258388D02*
X71117438Y-63163150D01*
X71117438Y-63163150D02*
X71212676Y-63067912D01*
X71212676Y-63067912D02*
X71403152Y-63020293D01*
X71403152Y-63020293D02*
X71736485Y-63020293D01*
X71736485Y-63020293D02*
X71926961Y-63067912D01*
X71926961Y-63067912D02*
X72022200Y-63163150D01*
X72022200Y-63163150D02*
X72069819Y-63258388D01*
X72069819Y-63258388D02*
X72069819Y-63448864D01*
X72069819Y-62067912D02*
X72069819Y-62639340D01*
X72069819Y-62353626D02*
X71069819Y-62353626D01*
X71069819Y-62353626D02*
X71212676Y-62448864D01*
X71212676Y-62448864D02*
X71307914Y-62544102D01*
X71307914Y-62544102D02*
X71355533Y-62639340D01*
X71403152Y-61210769D02*
X72069819Y-61210769D01*
X71022200Y-61448864D02*
X71736485Y-61686959D01*
X71736485Y-61686959D02*
X71736485Y-61067912D01*
X98832761Y-138601065D02*
X98499428Y-138124874D01*
X98261333Y-138601065D02*
X98261333Y-137601065D01*
X98261333Y-137601065D02*
X98642285Y-137601065D01*
X98642285Y-137601065D02*
X98737523Y-137648684D01*
X98737523Y-137648684D02*
X98785142Y-137696303D01*
X98785142Y-137696303D02*
X98832761Y-137791541D01*
X98832761Y-137791541D02*
X98832761Y-137934398D01*
X98832761Y-137934398D02*
X98785142Y-138029636D01*
X98785142Y-138029636D02*
X98737523Y-138077255D01*
X98737523Y-138077255D02*
X98642285Y-138124874D01*
X98642285Y-138124874D02*
X98261333Y-138124874D01*
X99118476Y-137601065D02*
X99451809Y-138601065D01*
X99451809Y-138601065D02*
X99785142Y-137601065D01*
X100070857Y-137696303D02*
X100118476Y-137648684D01*
X100118476Y-137648684D02*
X100213714Y-137601065D01*
X100213714Y-137601065D02*
X100451809Y-137601065D01*
X100451809Y-137601065D02*
X100547047Y-137648684D01*
X100547047Y-137648684D02*
X100594666Y-137696303D01*
X100594666Y-137696303D02*
X100642285Y-137791541D01*
X100642285Y-137791541D02*
X100642285Y-137886779D01*
X100642285Y-137886779D02*
X100594666Y-138029636D01*
X100594666Y-138029636D02*
X100023238Y-138601065D01*
X100023238Y-138601065D02*
X100642285Y-138601065D01*
D10*
X62835666Y-137612855D02*
X62502333Y-137612855D01*
X62502333Y-138136665D02*
X62502333Y-137136665D01*
X62502333Y-137136665D02*
X62978523Y-137136665D01*
X63883285Y-138136665D02*
X63311857Y-138136665D01*
X63597571Y-138136665D02*
X63597571Y-137136665D01*
X63597571Y-137136665D02*
X63502333Y-137279522D01*
X63502333Y-137279522D02*
X63407095Y-137374760D01*
X63407095Y-137374760D02*
X63311857Y-137422379D01*
D11*
X77576142Y-69460065D02*
X77242809Y-68983874D01*
X77004714Y-69460065D02*
X77004714Y-68460065D01*
X77004714Y-68460065D02*
X77385666Y-68460065D01*
X77385666Y-68460065D02*
X77480904Y-68507684D01*
X77480904Y-68507684D02*
X77528523Y-68555303D01*
X77528523Y-68555303D02*
X77576142Y-68650541D01*
X77576142Y-68650541D02*
X77576142Y-68793398D01*
X77576142Y-68793398D02*
X77528523Y-68888636D01*
X77528523Y-68888636D02*
X77480904Y-68936255D01*
X77480904Y-68936255D02*
X77385666Y-68983874D01*
X77385666Y-68983874D02*
X77004714Y-68983874D01*
X77957095Y-68555303D02*
X78004714Y-68507684D01*
X78004714Y-68507684D02*
X78099952Y-68460065D01*
X78099952Y-68460065D02*
X78338047Y-68460065D01*
X78338047Y-68460065D02*
X78433285Y-68507684D01*
X78433285Y-68507684D02*
X78480904Y-68555303D01*
X78480904Y-68555303D02*
X78528523Y-68650541D01*
X78528523Y-68650541D02*
X78528523Y-68745779D01*
X78528523Y-68745779D02*
X78480904Y-68888636D01*
X78480904Y-68888636D02*
X77909476Y-69460065D01*
X77909476Y-69460065D02*
X78528523Y-69460065D01*
X79480904Y-69460065D02*
X78909476Y-69460065D01*
X79195190Y-69460065D02*
X79195190Y-68460065D01*
X79195190Y-68460065D02*
X79099952Y-68602922D01*
X79099952Y-68602922D02*
X79004714Y-68698160D01*
X79004714Y-68698160D02*
X78909476Y-68745779D01*
X108246142Y-129625065D02*
X107912809Y-129148874D01*
X107674714Y-129625065D02*
X107674714Y-128625065D01*
X107674714Y-128625065D02*
X108055666Y-128625065D01*
X108055666Y-128625065D02*
X108150904Y-128672684D01*
X108150904Y-128672684D02*
X108198523Y-128720303D01*
X108198523Y-128720303D02*
X108246142Y-128815541D01*
X108246142Y-128815541D02*
X108246142Y-128958398D01*
X108246142Y-128958398D02*
X108198523Y-129053636D01*
X108198523Y-129053636D02*
X108150904Y-129101255D01*
X108150904Y-129101255D02*
X108055666Y-129148874D01*
X108055666Y-129148874D02*
X107674714Y-129148874D01*
X109103285Y-128958398D02*
X109103285Y-129625065D01*
X108865190Y-128577446D02*
X108627095Y-129291731D01*
X108627095Y-129291731D02*
X109246142Y-129291731D01*
X109817571Y-128625065D02*
X109912809Y-128625065D01*
X109912809Y-128625065D02*
X110008047Y-128672684D01*
X110008047Y-128672684D02*
X110055666Y-128720303D01*
X110055666Y-128720303D02*
X110103285Y-128815541D01*
X110103285Y-128815541D02*
X110150904Y-129006017D01*
X110150904Y-129006017D02*
X110150904Y-129244112D01*
X110150904Y-129244112D02*
X110103285Y-129434588D01*
X110103285Y-129434588D02*
X110055666Y-129529826D01*
X110055666Y-129529826D02*
X110008047Y-129577446D01*
X110008047Y-129577446D02*
X109912809Y-129625065D01*
X109912809Y-129625065D02*
X109817571Y-129625065D01*
X109817571Y-129625065D02*
X109722333Y-129577446D01*
X109722333Y-129577446D02*
X109674714Y-129529826D01*
X109674714Y-129529826D02*
X109627095Y-129434588D01*
X109627095Y-129434588D02*
X109579476Y-129244112D01*
X109579476Y-129244112D02*
X109579476Y-129006017D01*
X109579476Y-129006017D02*
X109627095Y-128815541D01*
X109627095Y-128815541D02*
X109674714Y-128720303D01*
X109674714Y-128720303D02*
X109722333Y-128672684D01*
X109722333Y-128672684D02*
X109817571Y-128625065D01*
X63749095Y-91828065D02*
X64320523Y-91828065D01*
X64034809Y-92828065D02*
X64034809Y-91828065D01*
X64653857Y-92828065D02*
X64653857Y-91828065D01*
X64653857Y-91828065D02*
X65034809Y-91828065D01*
X65034809Y-91828065D02*
X65130047Y-91875684D01*
X65130047Y-91875684D02*
X65177666Y-91923303D01*
X65177666Y-91923303D02*
X65225285Y-92018541D01*
X65225285Y-92018541D02*
X65225285Y-92161398D01*
X65225285Y-92161398D02*
X65177666Y-92256636D01*
X65177666Y-92256636D02*
X65130047Y-92304255D01*
X65130047Y-92304255D02*
X65034809Y-92351874D01*
X65034809Y-92351874D02*
X64653857Y-92351874D01*
X66082428Y-91828065D02*
X65891952Y-91828065D01*
X65891952Y-91828065D02*
X65796714Y-91875684D01*
X65796714Y-91875684D02*
X65749095Y-91923303D01*
X65749095Y-91923303D02*
X65653857Y-92066160D01*
X65653857Y-92066160D02*
X65606238Y-92256636D01*
X65606238Y-92256636D02*
X65606238Y-92637588D01*
X65606238Y-92637588D02*
X65653857Y-92732826D01*
X65653857Y-92732826D02*
X65701476Y-92780446D01*
X65701476Y-92780446D02*
X65796714Y-92828065D01*
X65796714Y-92828065D02*
X65987190Y-92828065D01*
X65987190Y-92828065D02*
X66082428Y-92780446D01*
X66082428Y-92780446D02*
X66130047Y-92732826D01*
X66130047Y-92732826D02*
X66177666Y-92637588D01*
X66177666Y-92637588D02*
X66177666Y-92399493D01*
X66177666Y-92399493D02*
X66130047Y-92304255D01*
X66130047Y-92304255D02*
X66082428Y-92256636D01*
X66082428Y-92256636D02*
X65987190Y-92209017D01*
X65987190Y-92209017D02*
X65796714Y-92209017D01*
X65796714Y-92209017D02*
X65701476Y-92256636D01*
X65701476Y-92256636D02*
X65653857Y-92304255D01*
X65653857Y-92304255D02*
X65606238Y-92399493D01*
X84070905Y-146262065D02*
X84070905Y-145262065D01*
X84070905Y-145262065D02*
X84309000Y-145262065D01*
X84309000Y-145262065D02*
X84451857Y-145309684D01*
X84451857Y-145309684D02*
X84547095Y-145404922D01*
X84547095Y-145404922D02*
X84594714Y-145500160D01*
X84594714Y-145500160D02*
X84642333Y-145690636D01*
X84642333Y-145690636D02*
X84642333Y-145833493D01*
X84642333Y-145833493D02*
X84594714Y-146023969D01*
X84594714Y-146023969D02*
X84547095Y-146119207D01*
X84547095Y-146119207D02*
X84451857Y-146214446D01*
X84451857Y-146214446D02*
X84309000Y-146262065D01*
X84309000Y-146262065D02*
X84070905Y-146262065D01*
X85499476Y-145262065D02*
X85309000Y-145262065D01*
X85309000Y-145262065D02*
X85213762Y-145309684D01*
X85213762Y-145309684D02*
X85166143Y-145357303D01*
X85166143Y-145357303D02*
X85070905Y-145500160D01*
X85070905Y-145500160D02*
X85023286Y-145690636D01*
X85023286Y-145690636D02*
X85023286Y-146071588D01*
X85023286Y-146071588D02*
X85070905Y-146166826D01*
X85070905Y-146166826D02*
X85118524Y-146214446D01*
X85118524Y-146214446D02*
X85213762Y-146262065D01*
X85213762Y-146262065D02*
X85404238Y-146262065D01*
X85404238Y-146262065D02*
X85499476Y-146214446D01*
X85499476Y-146214446D02*
X85547095Y-146166826D01*
X85547095Y-146166826D02*
X85594714Y-146071588D01*
X85594714Y-146071588D02*
X85594714Y-145833493D01*
X85594714Y-145833493D02*
X85547095Y-145738255D01*
X85547095Y-145738255D02*
X85499476Y-145690636D01*
X85499476Y-145690636D02*
X85404238Y-145643017D01*
X85404238Y-145643017D02*
X85213762Y-145643017D01*
X85213762Y-145643017D02*
X85118524Y-145690636D01*
X85118524Y-145690636D02*
X85070905Y-145738255D01*
X85070905Y-145738255D02*
X85023286Y-145833493D01*
X66638057Y-78179674D02*
X66590438Y-78274912D01*
X66590438Y-78274912D02*
X66495200Y-78370150D01*
X66495200Y-78370150D02*
X66352342Y-78513007D01*
X66352342Y-78513007D02*
X66304723Y-78608245D01*
X66304723Y-78608245D02*
X66304723Y-78703483D01*
X66542819Y-78655864D02*
X66495200Y-78751102D01*
X66495200Y-78751102D02*
X66399961Y-78846340D01*
X66399961Y-78846340D02*
X66209485Y-78893959D01*
X66209485Y-78893959D02*
X65876152Y-78893959D01*
X65876152Y-78893959D02*
X65685676Y-78846340D01*
X65685676Y-78846340D02*
X65590438Y-78751102D01*
X65590438Y-78751102D02*
X65542819Y-78655864D01*
X65542819Y-78655864D02*
X65542819Y-78465388D01*
X65542819Y-78465388D02*
X65590438Y-78370150D01*
X65590438Y-78370150D02*
X65685676Y-78274912D01*
X65685676Y-78274912D02*
X65876152Y-78227293D01*
X65876152Y-78227293D02*
X66209485Y-78227293D01*
X66209485Y-78227293D02*
X66399961Y-78274912D01*
X66399961Y-78274912D02*
X66495200Y-78370150D01*
X66495200Y-78370150D02*
X66542819Y-78465388D01*
X66542819Y-78465388D02*
X66542819Y-78655864D01*
X65638057Y-77846340D02*
X65590438Y-77798721D01*
X65590438Y-77798721D02*
X65542819Y-77703483D01*
X65542819Y-77703483D02*
X65542819Y-77465388D01*
X65542819Y-77465388D02*
X65590438Y-77370150D01*
X65590438Y-77370150D02*
X65638057Y-77322531D01*
X65638057Y-77322531D02*
X65733295Y-77274912D01*
X65733295Y-77274912D02*
X65828533Y-77274912D01*
X65828533Y-77274912D02*
X65971390Y-77322531D01*
X65971390Y-77322531D02*
X66542819Y-77893959D01*
X66542819Y-77893959D02*
X66542819Y-77274912D01*
X65542819Y-76941578D02*
X65542819Y-76322531D01*
X65542819Y-76322531D02*
X65923771Y-76655864D01*
X65923771Y-76655864D02*
X65923771Y-76513007D01*
X65923771Y-76513007D02*
X65971390Y-76417769D01*
X65971390Y-76417769D02*
X66019009Y-76370150D01*
X66019009Y-76370150D02*
X66114247Y-76322531D01*
X66114247Y-76322531D02*
X66352342Y-76322531D01*
X66352342Y-76322531D02*
X66447580Y-76370150D01*
X66447580Y-76370150D02*
X66495200Y-76417769D01*
X66495200Y-76417769D02*
X66542819Y-76513007D01*
X66542819Y-76513007D02*
X66542819Y-76798721D01*
X66542819Y-76798721D02*
X66495200Y-76893959D01*
X66495200Y-76893959D02*
X66447580Y-76941578D01*
D10*
X65360524Y-147694665D02*
X65360524Y-146694665D01*
X65360524Y-146694665D02*
X65741476Y-146694665D01*
X65741476Y-146694665D02*
X65836714Y-146742284D01*
X65836714Y-146742284D02*
X65884333Y-146789903D01*
X65884333Y-146789903D02*
X65931952Y-146885141D01*
X65931952Y-146885141D02*
X65931952Y-147027998D01*
X65931952Y-147027998D02*
X65884333Y-147123236D01*
X65884333Y-147123236D02*
X65836714Y-147170855D01*
X65836714Y-147170855D02*
X65741476Y-147218474D01*
X65741476Y-147218474D02*
X65360524Y-147218474D01*
X66265286Y-147027998D02*
X66455762Y-147694665D01*
X66455762Y-147694665D02*
X66646238Y-147218474D01*
X66646238Y-147218474D02*
X66836714Y-147694665D01*
X66836714Y-147694665D02*
X67027190Y-147027998D01*
X67408143Y-147694665D02*
X67408143Y-147027998D01*
X67408143Y-147218474D02*
X67455762Y-147123236D01*
X67455762Y-147123236D02*
X67503381Y-147075617D01*
X67503381Y-147075617D02*
X67598619Y-147027998D01*
X67598619Y-147027998D02*
X67693857Y-147027998D01*
X68027191Y-147313712D02*
X68789096Y-147313712D01*
X68408143Y-147694665D02*
X68408143Y-146932760D01*
X69789095Y-147694665D02*
X69217667Y-147694665D01*
X69503381Y-147694665D02*
X69503381Y-146694665D01*
X69503381Y-146694665D02*
X69408143Y-146837522D01*
X69408143Y-146837522D02*
X69312905Y-146932760D01*
X69312905Y-146932760D02*
X69217667Y-146980379D01*
D11*
X104928761Y-138601065D02*
X104595428Y-138124874D01*
X104357333Y-138601065D02*
X104357333Y-137601065D01*
X104357333Y-137601065D02*
X104738285Y-137601065D01*
X104738285Y-137601065D02*
X104833523Y-137648684D01*
X104833523Y-137648684D02*
X104881142Y-137696303D01*
X104881142Y-137696303D02*
X104928761Y-137791541D01*
X104928761Y-137791541D02*
X104928761Y-137934398D01*
X104928761Y-137934398D02*
X104881142Y-138029636D01*
X104881142Y-138029636D02*
X104833523Y-138077255D01*
X104833523Y-138077255D02*
X104738285Y-138124874D01*
X104738285Y-138124874D02*
X104357333Y-138124874D01*
X105214476Y-137601065D02*
X105547809Y-138601065D01*
X105547809Y-138601065D02*
X105881142Y-137601065D01*
X106738285Y-138601065D02*
X106166857Y-138601065D01*
X106452571Y-138601065D02*
X106452571Y-137601065D01*
X106452571Y-137601065D02*
X106357333Y-137743922D01*
X106357333Y-137743922D02*
X106262095Y-137839160D01*
X106262095Y-137839160D02*
X106166857Y-137886779D01*
X113596095Y-110083065D02*
X114167523Y-110083065D01*
X113881809Y-111083065D02*
X113881809Y-110083065D01*
X114500857Y-111083065D02*
X114500857Y-110083065D01*
X114500857Y-110083065D02*
X114881809Y-110083065D01*
X114881809Y-110083065D02*
X114977047Y-110130684D01*
X114977047Y-110130684D02*
X115024666Y-110178303D01*
X115024666Y-110178303D02*
X115072285Y-110273541D01*
X115072285Y-110273541D02*
X115072285Y-110416398D01*
X115072285Y-110416398D02*
X115024666Y-110511636D01*
X115024666Y-110511636D02*
X114977047Y-110559255D01*
X114977047Y-110559255D02*
X114881809Y-110606874D01*
X114881809Y-110606874D02*
X114500857Y-110606874D01*
X115643714Y-110511636D02*
X115548476Y-110464017D01*
X115548476Y-110464017D02*
X115500857Y-110416398D01*
X115500857Y-110416398D02*
X115453238Y-110321160D01*
X115453238Y-110321160D02*
X115453238Y-110273541D01*
X115453238Y-110273541D02*
X115500857Y-110178303D01*
X115500857Y-110178303D02*
X115548476Y-110130684D01*
X115548476Y-110130684D02*
X115643714Y-110083065D01*
X115643714Y-110083065D02*
X115834190Y-110083065D01*
X115834190Y-110083065D02*
X115929428Y-110130684D01*
X115929428Y-110130684D02*
X115977047Y-110178303D01*
X115977047Y-110178303D02*
X116024666Y-110273541D01*
X116024666Y-110273541D02*
X116024666Y-110321160D01*
X116024666Y-110321160D02*
X115977047Y-110416398D01*
X115977047Y-110416398D02*
X115929428Y-110464017D01*
X115929428Y-110464017D02*
X115834190Y-110511636D01*
X115834190Y-110511636D02*
X115643714Y-110511636D01*
X115643714Y-110511636D02*
X115548476Y-110559255D01*
X115548476Y-110559255D02*
X115500857Y-110606874D01*
X115500857Y-110606874D02*
X115453238Y-110702112D01*
X115453238Y-110702112D02*
X115453238Y-110892588D01*
X115453238Y-110892588D02*
X115500857Y-110987826D01*
X115500857Y-110987826D02*
X115548476Y-111035446D01*
X115548476Y-111035446D02*
X115643714Y-111083065D01*
X115643714Y-111083065D02*
X115834190Y-111083065D01*
X115834190Y-111083065D02*
X115929428Y-111035446D01*
X115929428Y-111035446D02*
X115977047Y-110987826D01*
X115977047Y-110987826D02*
X116024666Y-110892588D01*
X116024666Y-110892588D02*
X116024666Y-110702112D01*
X116024666Y-110702112D02*
X115977047Y-110606874D01*
X115977047Y-110606874D02*
X115929428Y-110559255D01*
X115929428Y-110559255D02*
X115834190Y-110511636D01*
X62606095Y-77350065D02*
X63177523Y-77350065D01*
X62891809Y-78350065D02*
X62891809Y-77350065D01*
X63510857Y-78350065D02*
X63510857Y-77350065D01*
X63510857Y-77350065D02*
X63891809Y-77350065D01*
X63891809Y-77350065D02*
X63987047Y-77397684D01*
X63987047Y-77397684D02*
X64034666Y-77445303D01*
X64034666Y-77445303D02*
X64082285Y-77540541D01*
X64082285Y-77540541D02*
X64082285Y-77683398D01*
X64082285Y-77683398D02*
X64034666Y-77778636D01*
X64034666Y-77778636D02*
X63987047Y-77826255D01*
X63987047Y-77826255D02*
X63891809Y-77873874D01*
X63891809Y-77873874D02*
X63510857Y-77873874D01*
X64415619Y-77350065D02*
X65082285Y-77350065D01*
X65082285Y-77350065D02*
X64653714Y-78350065D01*
X93657095Y-130563065D02*
X94228523Y-130563065D01*
X93942809Y-131563065D02*
X93942809Y-130563065D01*
X94561857Y-131563065D02*
X94561857Y-130563065D01*
X94561857Y-130563065D02*
X94942809Y-130563065D01*
X94942809Y-130563065D02*
X95038047Y-130610684D01*
X95038047Y-130610684D02*
X95085666Y-130658303D01*
X95085666Y-130658303D02*
X95133285Y-130753541D01*
X95133285Y-130753541D02*
X95133285Y-130896398D01*
X95133285Y-130896398D02*
X95085666Y-130991636D01*
X95085666Y-130991636D02*
X95038047Y-131039255D01*
X95038047Y-131039255D02*
X94942809Y-131086874D01*
X94942809Y-131086874D02*
X94561857Y-131086874D01*
X95609476Y-131563065D02*
X95799952Y-131563065D01*
X95799952Y-131563065D02*
X95895190Y-131515446D01*
X95895190Y-131515446D02*
X95942809Y-131467826D01*
X95942809Y-131467826D02*
X96038047Y-131324969D01*
X96038047Y-131324969D02*
X96085666Y-131134493D01*
X96085666Y-131134493D02*
X96085666Y-130753541D01*
X96085666Y-130753541D02*
X96038047Y-130658303D01*
X96038047Y-130658303D02*
X95990428Y-130610684D01*
X95990428Y-130610684D02*
X95895190Y-130563065D01*
X95895190Y-130563065D02*
X95704714Y-130563065D01*
X95704714Y-130563065D02*
X95609476Y-130610684D01*
X95609476Y-130610684D02*
X95561857Y-130658303D01*
X95561857Y-130658303D02*
X95514238Y-130753541D01*
X95514238Y-130753541D02*
X95514238Y-130991636D01*
X95514238Y-130991636D02*
X95561857Y-131086874D01*
X95561857Y-131086874D02*
X95609476Y-131134493D01*
X95609476Y-131134493D02*
X95704714Y-131182112D01*
X95704714Y-131182112D02*
X95895190Y-131182112D01*
X95895190Y-131182112D02*
X95990428Y-131134493D01*
X95990428Y-131134493D02*
X96038047Y-131086874D01*
X96038047Y-131086874D02*
X96085666Y-130991636D01*
X110315857Y-105368065D02*
X110315857Y-104368065D01*
X110315857Y-104844255D02*
X110887285Y-104844255D01*
X110887285Y-105368065D02*
X110887285Y-104368065D01*
X111220619Y-104368065D02*
X111553952Y-105368065D01*
X111553952Y-105368065D02*
X111887285Y-104368065D01*
X112220619Y-105368065D02*
X112220619Y-104368065D01*
X112220619Y-104368065D02*
X112458714Y-104368065D01*
X112458714Y-104368065D02*
X112601571Y-104415684D01*
X112601571Y-104415684D02*
X112696809Y-104510922D01*
X112696809Y-104510922D02*
X112744428Y-104606160D01*
X112744428Y-104606160D02*
X112792047Y-104796636D01*
X112792047Y-104796636D02*
X112792047Y-104939493D01*
X112792047Y-104939493D02*
X112744428Y-105129969D01*
X112744428Y-105129969D02*
X112696809Y-105225207D01*
X112696809Y-105225207D02*
X112601571Y-105320446D01*
X112601571Y-105320446D02*
X112458714Y-105368065D01*
X112458714Y-105368065D02*
X112220619Y-105368065D01*
X113792047Y-105272826D02*
X113744428Y-105320446D01*
X113744428Y-105320446D02*
X113601571Y-105368065D01*
X113601571Y-105368065D02*
X113506333Y-105368065D01*
X113506333Y-105368065D02*
X113363476Y-105320446D01*
X113363476Y-105320446D02*
X113268238Y-105225207D01*
X113268238Y-105225207D02*
X113220619Y-105129969D01*
X113220619Y-105129969D02*
X113173000Y-104939493D01*
X113173000Y-104939493D02*
X113173000Y-104796636D01*
X113173000Y-104796636D02*
X113220619Y-104606160D01*
X113220619Y-104606160D02*
X113268238Y-104510922D01*
X113268238Y-104510922D02*
X113363476Y-104415684D01*
X113363476Y-104415684D02*
X113506333Y-104368065D01*
X113506333Y-104368065D02*
X113601571Y-104368065D01*
X113601571Y-104368065D02*
X113744428Y-104415684D01*
X113744428Y-104415684D02*
X113792047Y-104463303D01*
X114553952Y-104844255D02*
X114696809Y-104891874D01*
X114696809Y-104891874D02*
X114744428Y-104939493D01*
X114744428Y-104939493D02*
X114792047Y-105034731D01*
X114792047Y-105034731D02*
X114792047Y-105177588D01*
X114792047Y-105177588D02*
X114744428Y-105272826D01*
X114744428Y-105272826D02*
X114696809Y-105320446D01*
X114696809Y-105320446D02*
X114601571Y-105368065D01*
X114601571Y-105368065D02*
X114220619Y-105368065D01*
X114220619Y-105368065D02*
X114220619Y-104368065D01*
X114220619Y-104368065D02*
X114553952Y-104368065D01*
X114553952Y-104368065D02*
X114649190Y-104415684D01*
X114649190Y-104415684D02*
X114696809Y-104463303D01*
X114696809Y-104463303D02*
X114744428Y-104558541D01*
X114744428Y-104558541D02*
X114744428Y-104653779D01*
X114744428Y-104653779D02*
X114696809Y-104749017D01*
X114696809Y-104749017D02*
X114649190Y-104796636D01*
X114649190Y-104796636D02*
X114553952Y-104844255D01*
X114553952Y-104844255D02*
X114220619Y-104844255D01*
X115649190Y-104701398D02*
X115649190Y-105368065D01*
X115220619Y-104701398D02*
X115220619Y-105225207D01*
X115220619Y-105225207D02*
X115268238Y-105320446D01*
X115268238Y-105320446D02*
X115363476Y-105368065D01*
X115363476Y-105368065D02*
X115506333Y-105368065D01*
X115506333Y-105368065D02*
X115601571Y-105320446D01*
X115601571Y-105320446D02*
X115649190Y-105272826D01*
X116077762Y-105320446D02*
X116173000Y-105368065D01*
X116173000Y-105368065D02*
X116363476Y-105368065D01*
X116363476Y-105368065D02*
X116458714Y-105320446D01*
X116458714Y-105320446D02*
X116506333Y-105225207D01*
X116506333Y-105225207D02*
X116506333Y-105177588D01*
X116506333Y-105177588D02*
X116458714Y-105082350D01*
X116458714Y-105082350D02*
X116363476Y-105034731D01*
X116363476Y-105034731D02*
X116220619Y-105034731D01*
X116220619Y-105034731D02*
X116125381Y-104987112D01*
X116125381Y-104987112D02*
X116077762Y-104891874D01*
X116077762Y-104891874D02*
X116077762Y-104844255D01*
X116077762Y-104844255D02*
X116125381Y-104749017D01*
X116125381Y-104749017D02*
X116220619Y-104701398D01*
X116220619Y-104701398D02*
X116363476Y-104701398D01*
X116363476Y-104701398D02*
X116458714Y-104749017D01*
X116696810Y-105463303D02*
X117458714Y-105463303D01*
X117649191Y-105082350D02*
X118125381Y-105082350D01*
X117553953Y-105368065D02*
X117887286Y-104368065D01*
X117887286Y-104368065D02*
X118220619Y-105368065D01*
X119077762Y-105368065D02*
X118506334Y-105368065D01*
X118792048Y-105368065D02*
X118792048Y-104368065D01*
X118792048Y-104368065D02*
X118696810Y-104510922D01*
X118696810Y-104510922D02*
X118601572Y-104606160D01*
X118601572Y-104606160D02*
X118506334Y-104653779D01*
X123440095Y-108011065D02*
X124011523Y-108011065D01*
X123725809Y-109011065D02*
X123725809Y-108011065D01*
X124344857Y-109011065D02*
X124344857Y-108011065D01*
X124344857Y-108011065D02*
X124725809Y-108011065D01*
X124725809Y-108011065D02*
X124821047Y-108058684D01*
X124821047Y-108058684D02*
X124868666Y-108106303D01*
X124868666Y-108106303D02*
X124916285Y-108201541D01*
X124916285Y-108201541D02*
X124916285Y-108344398D01*
X124916285Y-108344398D02*
X124868666Y-108439636D01*
X124868666Y-108439636D02*
X124821047Y-108487255D01*
X124821047Y-108487255D02*
X124725809Y-108534874D01*
X124725809Y-108534874D02*
X124344857Y-108534874D01*
X125773428Y-108344398D02*
X125773428Y-109011065D01*
X125535333Y-107963446D02*
X125297238Y-108677731D01*
X125297238Y-108677731D02*
X125916285Y-108677731D01*
X109707142Y-137913065D02*
X109373809Y-137436874D01*
X109135714Y-137913065D02*
X109135714Y-136913065D01*
X109135714Y-136913065D02*
X109516666Y-136913065D01*
X109516666Y-136913065D02*
X109611904Y-136960684D01*
X109611904Y-136960684D02*
X109659523Y-137008303D01*
X109659523Y-137008303D02*
X109707142Y-137103541D01*
X109707142Y-137103541D02*
X109707142Y-137246398D01*
X109707142Y-137246398D02*
X109659523Y-137341636D01*
X109659523Y-137341636D02*
X109611904Y-137389255D01*
X109611904Y-137389255D02*
X109516666Y-137436874D01*
X109516666Y-137436874D02*
X109135714Y-137436874D01*
X110088095Y-137008303D02*
X110135714Y-136960684D01*
X110135714Y-136960684D02*
X110230952Y-136913065D01*
X110230952Y-136913065D02*
X110469047Y-136913065D01*
X110469047Y-136913065D02*
X110564285Y-136960684D01*
X110564285Y-136960684D02*
X110611904Y-137008303D01*
X110611904Y-137008303D02*
X110659523Y-137103541D01*
X110659523Y-137103541D02*
X110659523Y-137198779D01*
X110659523Y-137198779D02*
X110611904Y-137341636D01*
X110611904Y-137341636D02*
X110040476Y-137913065D01*
X110040476Y-137913065D02*
X110659523Y-137913065D01*
X111230952Y-137341636D02*
X111135714Y-137294017D01*
X111135714Y-137294017D02*
X111088095Y-137246398D01*
X111088095Y-137246398D02*
X111040476Y-137151160D01*
X111040476Y-137151160D02*
X111040476Y-137103541D01*
X111040476Y-137103541D02*
X111088095Y-137008303D01*
X111088095Y-137008303D02*
X111135714Y-136960684D01*
X111135714Y-136960684D02*
X111230952Y-136913065D01*
X111230952Y-136913065D02*
X111421428Y-136913065D01*
X111421428Y-136913065D02*
X111516666Y-136960684D01*
X111516666Y-136960684D02*
X111564285Y-137008303D01*
X111564285Y-137008303D02*
X111611904Y-137103541D01*
X111611904Y-137103541D02*
X111611904Y-137151160D01*
X111611904Y-137151160D02*
X111564285Y-137246398D01*
X111564285Y-137246398D02*
X111516666Y-137294017D01*
X111516666Y-137294017D02*
X111421428Y-137341636D01*
X111421428Y-137341636D02*
X111230952Y-137341636D01*
X111230952Y-137341636D02*
X111135714Y-137389255D01*
X111135714Y-137389255D02*
X111088095Y-137436874D01*
X111088095Y-137436874D02*
X111040476Y-137532112D01*
X111040476Y-137532112D02*
X111040476Y-137722588D01*
X111040476Y-137722588D02*
X111088095Y-137817826D01*
X111088095Y-137817826D02*
X111135714Y-137865446D01*
X111135714Y-137865446D02*
X111230952Y-137913065D01*
X111230952Y-137913065D02*
X111421428Y-137913065D01*
X111421428Y-137913065D02*
X111516666Y-137865446D01*
X111516666Y-137865446D02*
X111564285Y-137817826D01*
X111564285Y-137817826D02*
X111611904Y-137722588D01*
X111611904Y-137722588D02*
X111611904Y-137532112D01*
X111611904Y-137532112D02*
X111564285Y-137436874D01*
X111564285Y-137436874D02*
X111516666Y-137389255D01*
X111516666Y-137389255D02*
X111421428Y-137341636D01*
X86776142Y-140166065D02*
X86204714Y-140166065D01*
X86490428Y-140166065D02*
X86490428Y-139166065D01*
X86490428Y-139166065D02*
X86395190Y-139308922D01*
X86395190Y-139308922D02*
X86299952Y-139404160D01*
X86299952Y-139404160D02*
X86204714Y-139451779D01*
X87157095Y-139261303D02*
X87204714Y-139213684D01*
X87204714Y-139213684D02*
X87299952Y-139166065D01*
X87299952Y-139166065D02*
X87538047Y-139166065D01*
X87538047Y-139166065D02*
X87633285Y-139213684D01*
X87633285Y-139213684D02*
X87680904Y-139261303D01*
X87680904Y-139261303D02*
X87728523Y-139356541D01*
X87728523Y-139356541D02*
X87728523Y-139451779D01*
X87728523Y-139451779D02*
X87680904Y-139594636D01*
X87680904Y-139594636D02*
X87109476Y-140166065D01*
X87109476Y-140166065D02*
X87728523Y-140166065D01*
X88014238Y-139166065D02*
X88347571Y-140166065D01*
X88347571Y-140166065D02*
X88680904Y-139166065D01*
X88776143Y-140261303D02*
X89538047Y-140261303D01*
X89776143Y-140166065D02*
X89776143Y-139166065D01*
X89776143Y-139166065D02*
X90157095Y-139166065D01*
X90157095Y-139166065D02*
X90252333Y-139213684D01*
X90252333Y-139213684D02*
X90299952Y-139261303D01*
X90299952Y-139261303D02*
X90347571Y-139356541D01*
X90347571Y-139356541D02*
X90347571Y-139499398D01*
X90347571Y-139499398D02*
X90299952Y-139594636D01*
X90299952Y-139594636D02*
X90252333Y-139642255D01*
X90252333Y-139642255D02*
X90157095Y-139689874D01*
X90157095Y-139689874D02*
X89776143Y-139689874D01*
X90680905Y-139499398D02*
X90871381Y-140166065D01*
X90871381Y-140166065D02*
X91061857Y-139689874D01*
X91061857Y-139689874D02*
X91252333Y-140166065D01*
X91252333Y-140166065D02*
X91442809Y-139499398D01*
X91823762Y-140166065D02*
X91823762Y-139499398D01*
X91823762Y-139689874D02*
X91871381Y-139594636D01*
X91871381Y-139594636D02*
X91919000Y-139547017D01*
X91919000Y-139547017D02*
X92014238Y-139499398D01*
X92014238Y-139499398D02*
X92109476Y-139499398D01*
X93014238Y-140070826D02*
X92966619Y-140118446D01*
X92966619Y-140118446D02*
X92823762Y-140166065D01*
X92823762Y-140166065D02*
X92728524Y-140166065D01*
X92728524Y-140166065D02*
X92585667Y-140118446D01*
X92585667Y-140118446D02*
X92490429Y-140023207D01*
X92490429Y-140023207D02*
X92442810Y-139927969D01*
X92442810Y-139927969D02*
X92395191Y-139737493D01*
X92395191Y-139737493D02*
X92395191Y-139594636D01*
X92395191Y-139594636D02*
X92442810Y-139404160D01*
X92442810Y-139404160D02*
X92490429Y-139308922D01*
X92490429Y-139308922D02*
X92585667Y-139213684D01*
X92585667Y-139213684D02*
X92728524Y-139166065D01*
X92728524Y-139166065D02*
X92823762Y-139166065D01*
X92823762Y-139166065D02*
X92966619Y-139213684D01*
X92966619Y-139213684D02*
X93014238Y-139261303D01*
X93442810Y-139499398D02*
X93442810Y-140166065D01*
X93442810Y-139594636D02*
X93490429Y-139547017D01*
X93490429Y-139547017D02*
X93585667Y-139499398D01*
X93585667Y-139499398D02*
X93728524Y-139499398D01*
X93728524Y-139499398D02*
X93823762Y-139547017D01*
X93823762Y-139547017D02*
X93871381Y-139642255D01*
X93871381Y-139642255D02*
X93871381Y-140166065D01*
X94252334Y-139499398D02*
X94490429Y-140166065D01*
X94490429Y-140166065D02*
X94728524Y-139499398D01*
X95633286Y-140166065D02*
X95061858Y-140166065D01*
X95347572Y-140166065D02*
X95347572Y-139166065D01*
X95347572Y-139166065D02*
X95252334Y-139308922D01*
X95252334Y-139308922D02*
X95157096Y-139404160D01*
X95157096Y-139404160D02*
X95061858Y-139451779D01*
X98658142Y-111243065D02*
X98324809Y-110766874D01*
X98086714Y-111243065D02*
X98086714Y-110243065D01*
X98086714Y-110243065D02*
X98467666Y-110243065D01*
X98467666Y-110243065D02*
X98562904Y-110290684D01*
X98562904Y-110290684D02*
X98610523Y-110338303D01*
X98610523Y-110338303D02*
X98658142Y-110433541D01*
X98658142Y-110433541D02*
X98658142Y-110576398D01*
X98658142Y-110576398D02*
X98610523Y-110671636D01*
X98610523Y-110671636D02*
X98562904Y-110719255D01*
X98562904Y-110719255D02*
X98467666Y-110766874D01*
X98467666Y-110766874D02*
X98086714Y-110766874D01*
X98991476Y-110243065D02*
X99610523Y-110243065D01*
X99610523Y-110243065D02*
X99277190Y-110624017D01*
X99277190Y-110624017D02*
X99420047Y-110624017D01*
X99420047Y-110624017D02*
X99515285Y-110671636D01*
X99515285Y-110671636D02*
X99562904Y-110719255D01*
X99562904Y-110719255D02*
X99610523Y-110814493D01*
X99610523Y-110814493D02*
X99610523Y-111052588D01*
X99610523Y-111052588D02*
X99562904Y-111147826D01*
X99562904Y-111147826D02*
X99515285Y-111195446D01*
X99515285Y-111195446D02*
X99420047Y-111243065D01*
X99420047Y-111243065D02*
X99134333Y-111243065D01*
X99134333Y-111243065D02*
X99039095Y-111195446D01*
X99039095Y-111195446D02*
X98991476Y-111147826D01*
X99943857Y-110243065D02*
X100562904Y-110243065D01*
X100562904Y-110243065D02*
X100229571Y-110624017D01*
X100229571Y-110624017D02*
X100372428Y-110624017D01*
X100372428Y-110624017D02*
X100467666Y-110671636D01*
X100467666Y-110671636D02*
X100515285Y-110719255D01*
X100515285Y-110719255D02*
X100562904Y-110814493D01*
X100562904Y-110814493D02*
X100562904Y-111052588D01*
X100562904Y-111052588D02*
X100515285Y-111147826D01*
X100515285Y-111147826D02*
X100467666Y-111195446D01*
X100467666Y-111195446D02*
X100372428Y-111243065D01*
X100372428Y-111243065D02*
X100086714Y-111243065D01*
X100086714Y-111243065D02*
X99991476Y-111195446D01*
X99991476Y-111195446D02*
X99943857Y-111147826D01*
D10*
X88074419Y-124154721D02*
X87074419Y-124154721D01*
X87074419Y-124154721D02*
X87074419Y-123773769D01*
X87074419Y-123773769D02*
X87122038Y-123678531D01*
X87122038Y-123678531D02*
X87169657Y-123630912D01*
X87169657Y-123630912D02*
X87264895Y-123583293D01*
X87264895Y-123583293D02*
X87407752Y-123583293D01*
X87407752Y-123583293D02*
X87502990Y-123630912D01*
X87502990Y-123630912D02*
X87550609Y-123678531D01*
X87550609Y-123678531D02*
X87598228Y-123773769D01*
X87598228Y-123773769D02*
X87598228Y-124154721D01*
X87407752Y-123249959D02*
X88074419Y-123059483D01*
X88074419Y-123059483D02*
X87598228Y-122869007D01*
X87598228Y-122869007D02*
X88074419Y-122678531D01*
X88074419Y-122678531D02*
X87407752Y-122488055D01*
X88074419Y-122107102D02*
X87407752Y-122107102D01*
X87598228Y-122107102D02*
X87502990Y-122059483D01*
X87502990Y-122059483D02*
X87455371Y-122011864D01*
X87455371Y-122011864D02*
X87407752Y-121916626D01*
X87407752Y-121916626D02*
X87407752Y-121821388D01*
X87693466Y-121488054D02*
X87693466Y-120726150D01*
X88074419Y-119726150D02*
X88074419Y-120297578D01*
X88074419Y-120011864D02*
X87074419Y-120011864D01*
X87074419Y-120011864D02*
X87217276Y-120107102D01*
X87217276Y-120107102D02*
X87312514Y-120202340D01*
X87312514Y-120202340D02*
X87360133Y-120297578D01*
D11*
X111548142Y-124195826D02*
X111500523Y-124243446D01*
X111500523Y-124243446D02*
X111357666Y-124291065D01*
X111357666Y-124291065D02*
X111262428Y-124291065D01*
X111262428Y-124291065D02*
X111119571Y-124243446D01*
X111119571Y-124243446D02*
X111024333Y-124148207D01*
X111024333Y-124148207D02*
X110976714Y-124052969D01*
X110976714Y-124052969D02*
X110929095Y-123862493D01*
X110929095Y-123862493D02*
X110929095Y-123719636D01*
X110929095Y-123719636D02*
X110976714Y-123529160D01*
X110976714Y-123529160D02*
X111024333Y-123433922D01*
X111024333Y-123433922D02*
X111119571Y-123338684D01*
X111119571Y-123338684D02*
X111262428Y-123291065D01*
X111262428Y-123291065D02*
X111357666Y-123291065D01*
X111357666Y-123291065D02*
X111500523Y-123338684D01*
X111500523Y-123338684D02*
X111548142Y-123386303D01*
X112500523Y-124291065D02*
X111929095Y-124291065D01*
X112214809Y-124291065D02*
X112214809Y-123291065D01*
X112214809Y-123291065D02*
X112119571Y-123433922D01*
X112119571Y-123433922D02*
X112024333Y-123529160D01*
X112024333Y-123529160D02*
X111929095Y-123576779D01*
X113357666Y-123624398D02*
X113357666Y-124291065D01*
X113119571Y-123243446D02*
X112881476Y-123957731D01*
X112881476Y-123957731D02*
X113500523Y-123957731D01*
X71496095Y-57157065D02*
X72067523Y-57157065D01*
X71781809Y-58157065D02*
X71781809Y-57157065D01*
X72400857Y-58157065D02*
X72400857Y-57157065D01*
X72400857Y-57157065D02*
X72781809Y-57157065D01*
X72781809Y-57157065D02*
X72877047Y-57204684D01*
X72877047Y-57204684D02*
X72924666Y-57252303D01*
X72924666Y-57252303D02*
X72972285Y-57347541D01*
X72972285Y-57347541D02*
X72972285Y-57490398D01*
X72972285Y-57490398D02*
X72924666Y-57585636D01*
X72924666Y-57585636D02*
X72877047Y-57633255D01*
X72877047Y-57633255D02*
X72781809Y-57680874D01*
X72781809Y-57680874D02*
X72400857Y-57680874D01*
X73305619Y-57157065D02*
X73924666Y-57157065D01*
X73924666Y-57157065D02*
X73591333Y-57538017D01*
X73591333Y-57538017D02*
X73734190Y-57538017D01*
X73734190Y-57538017D02*
X73829428Y-57585636D01*
X73829428Y-57585636D02*
X73877047Y-57633255D01*
X73877047Y-57633255D02*
X73924666Y-57728493D01*
X73924666Y-57728493D02*
X73924666Y-57966588D01*
X73924666Y-57966588D02*
X73877047Y-58061826D01*
X73877047Y-58061826D02*
X73829428Y-58109446D01*
X73829428Y-58109446D02*
X73734190Y-58157065D01*
X73734190Y-58157065D02*
X73448476Y-58157065D01*
X73448476Y-58157065D02*
X73353238Y-58109446D01*
X73353238Y-58109446D02*
X73305619Y-58061826D01*
X66577057Y-72751674D02*
X66529438Y-72846912D01*
X66529438Y-72846912D02*
X66434200Y-72942150D01*
X66434200Y-72942150D02*
X66291342Y-73085007D01*
X66291342Y-73085007D02*
X66243723Y-73180245D01*
X66243723Y-73180245D02*
X66243723Y-73275483D01*
X66481819Y-73227864D02*
X66434200Y-73323102D01*
X66434200Y-73323102D02*
X66338961Y-73418340D01*
X66338961Y-73418340D02*
X66148485Y-73465959D01*
X66148485Y-73465959D02*
X65815152Y-73465959D01*
X65815152Y-73465959D02*
X65624676Y-73418340D01*
X65624676Y-73418340D02*
X65529438Y-73323102D01*
X65529438Y-73323102D02*
X65481819Y-73227864D01*
X65481819Y-73227864D02*
X65481819Y-73037388D01*
X65481819Y-73037388D02*
X65529438Y-72942150D01*
X65529438Y-72942150D02*
X65624676Y-72846912D01*
X65624676Y-72846912D02*
X65815152Y-72799293D01*
X65815152Y-72799293D02*
X66148485Y-72799293D01*
X66148485Y-72799293D02*
X66338961Y-72846912D01*
X66338961Y-72846912D02*
X66434200Y-72942150D01*
X66434200Y-72942150D02*
X66481819Y-73037388D01*
X66481819Y-73037388D02*
X66481819Y-73227864D01*
X65577057Y-72418340D02*
X65529438Y-72370721D01*
X65529438Y-72370721D02*
X65481819Y-72275483D01*
X65481819Y-72275483D02*
X65481819Y-72037388D01*
X65481819Y-72037388D02*
X65529438Y-71942150D01*
X65529438Y-71942150D02*
X65577057Y-71894531D01*
X65577057Y-71894531D02*
X65672295Y-71846912D01*
X65672295Y-71846912D02*
X65767533Y-71846912D01*
X65767533Y-71846912D02*
X65910390Y-71894531D01*
X65910390Y-71894531D02*
X66481819Y-72465959D01*
X66481819Y-72465959D02*
X66481819Y-71846912D01*
X65577057Y-71465959D02*
X65529438Y-71418340D01*
X65529438Y-71418340D02*
X65481819Y-71323102D01*
X65481819Y-71323102D02*
X65481819Y-71085007D01*
X65481819Y-71085007D02*
X65529438Y-70989769D01*
X65529438Y-70989769D02*
X65577057Y-70942150D01*
X65577057Y-70942150D02*
X65672295Y-70894531D01*
X65672295Y-70894531D02*
X65767533Y-70894531D01*
X65767533Y-70894531D02*
X65910390Y-70942150D01*
X65910390Y-70942150D02*
X66481819Y-71513578D01*
X66481819Y-71513578D02*
X66481819Y-70894531D01*
X66643057Y-52876674D02*
X66595438Y-52971912D01*
X66595438Y-52971912D02*
X66500200Y-53067150D01*
X66500200Y-53067150D02*
X66357342Y-53210007D01*
X66357342Y-53210007D02*
X66309723Y-53305245D01*
X66309723Y-53305245D02*
X66309723Y-53400483D01*
X66547819Y-53352864D02*
X66500200Y-53448102D01*
X66500200Y-53448102D02*
X66404961Y-53543340D01*
X66404961Y-53543340D02*
X66214485Y-53590959D01*
X66214485Y-53590959D02*
X65881152Y-53590959D01*
X65881152Y-53590959D02*
X65690676Y-53543340D01*
X65690676Y-53543340D02*
X65595438Y-53448102D01*
X65595438Y-53448102D02*
X65547819Y-53352864D01*
X65547819Y-53352864D02*
X65547819Y-53162388D01*
X65547819Y-53162388D02*
X65595438Y-53067150D01*
X65595438Y-53067150D02*
X65690676Y-52971912D01*
X65690676Y-52971912D02*
X65881152Y-52924293D01*
X65881152Y-52924293D02*
X66214485Y-52924293D01*
X66214485Y-52924293D02*
X66404961Y-52971912D01*
X66404961Y-52971912D02*
X66500200Y-53067150D01*
X66500200Y-53067150D02*
X66547819Y-53162388D01*
X66547819Y-53162388D02*
X66547819Y-53352864D01*
X66547819Y-51971912D02*
X66547819Y-52543340D01*
X66547819Y-52257626D02*
X65547819Y-52257626D01*
X65547819Y-52257626D02*
X65690676Y-52352864D01*
X65690676Y-52352864D02*
X65785914Y-52448102D01*
X65785914Y-52448102D02*
X65833533Y-52543340D01*
X65547819Y-51114769D02*
X65547819Y-51305245D01*
X65547819Y-51305245D02*
X65595438Y-51400483D01*
X65595438Y-51400483D02*
X65643057Y-51448102D01*
X65643057Y-51448102D02*
X65785914Y-51543340D01*
X65785914Y-51543340D02*
X65976390Y-51590959D01*
X65976390Y-51590959D02*
X66357342Y-51590959D01*
X66357342Y-51590959D02*
X66452580Y-51543340D01*
X66452580Y-51543340D02*
X66500200Y-51495721D01*
X66500200Y-51495721D02*
X66547819Y-51400483D01*
X66547819Y-51400483D02*
X66547819Y-51210007D01*
X66547819Y-51210007D02*
X66500200Y-51114769D01*
X66500200Y-51114769D02*
X66452580Y-51067150D01*
X66452580Y-51067150D02*
X66357342Y-51019531D01*
X66357342Y-51019531D02*
X66119247Y-51019531D01*
X66119247Y-51019531D02*
X66024009Y-51067150D01*
X66024009Y-51067150D02*
X65976390Y-51114769D01*
X65976390Y-51114769D02*
X65928771Y-51210007D01*
X65928771Y-51210007D02*
X65928771Y-51400483D01*
X65928771Y-51400483D02*
X65976390Y-51495721D01*
X65976390Y-51495721D02*
X66024009Y-51543340D01*
X66024009Y-51543340D02*
X66119247Y-51590959D01*
X71734142Y-72348065D02*
X71400809Y-71871874D01*
X71162714Y-72348065D02*
X71162714Y-71348065D01*
X71162714Y-71348065D02*
X71543666Y-71348065D01*
X71543666Y-71348065D02*
X71638904Y-71395684D01*
X71638904Y-71395684D02*
X71686523Y-71443303D01*
X71686523Y-71443303D02*
X71734142Y-71538541D01*
X71734142Y-71538541D02*
X71734142Y-71681398D01*
X71734142Y-71681398D02*
X71686523Y-71776636D01*
X71686523Y-71776636D02*
X71638904Y-71824255D01*
X71638904Y-71824255D02*
X71543666Y-71871874D01*
X71543666Y-71871874D02*
X71162714Y-71871874D01*
X72115095Y-71443303D02*
X72162714Y-71395684D01*
X72162714Y-71395684D02*
X72257952Y-71348065D01*
X72257952Y-71348065D02*
X72496047Y-71348065D01*
X72496047Y-71348065D02*
X72591285Y-71395684D01*
X72591285Y-71395684D02*
X72638904Y-71443303D01*
X72638904Y-71443303D02*
X72686523Y-71538541D01*
X72686523Y-71538541D02*
X72686523Y-71633779D01*
X72686523Y-71633779D02*
X72638904Y-71776636D01*
X72638904Y-71776636D02*
X72067476Y-72348065D01*
X72067476Y-72348065D02*
X72686523Y-72348065D01*
X73543666Y-71348065D02*
X73353190Y-71348065D01*
X73353190Y-71348065D02*
X73257952Y-71395684D01*
X73257952Y-71395684D02*
X73210333Y-71443303D01*
X73210333Y-71443303D02*
X73115095Y-71586160D01*
X73115095Y-71586160D02*
X73067476Y-71776636D01*
X73067476Y-71776636D02*
X73067476Y-72157588D01*
X73067476Y-72157588D02*
X73115095Y-72252826D01*
X73115095Y-72252826D02*
X73162714Y-72300446D01*
X73162714Y-72300446D02*
X73257952Y-72348065D01*
X73257952Y-72348065D02*
X73448428Y-72348065D01*
X73448428Y-72348065D02*
X73543666Y-72300446D01*
X73543666Y-72300446D02*
X73591285Y-72252826D01*
X73591285Y-72252826D02*
X73638904Y-72157588D01*
X73638904Y-72157588D02*
X73638904Y-71919493D01*
X73638904Y-71919493D02*
X73591285Y-71824255D01*
X73591285Y-71824255D02*
X73543666Y-71776636D01*
X73543666Y-71776636D02*
X73448428Y-71729017D01*
X73448428Y-71729017D02*
X73257952Y-71729017D01*
X73257952Y-71729017D02*
X73162714Y-71776636D01*
X73162714Y-71776636D02*
X73115095Y-71824255D01*
X73115095Y-71824255D02*
X73067476Y-71919493D01*
D10*
X129299580Y-68124341D02*
X129299580Y-68695769D01*
X128299580Y-68410055D02*
X129299580Y-68410055D01*
X128299580Y-69600531D02*
X128775771Y-69267198D01*
X128299580Y-69029103D02*
X129299580Y-69029103D01*
X129299580Y-69029103D02*
X129299580Y-69410055D01*
X129299580Y-69410055D02*
X129251961Y-69505293D01*
X129251961Y-69505293D02*
X129204342Y-69552912D01*
X129204342Y-69552912D02*
X129109104Y-69600531D01*
X129109104Y-69600531D02*
X128966247Y-69600531D01*
X128966247Y-69600531D02*
X128871009Y-69552912D01*
X128871009Y-69552912D02*
X128823390Y-69505293D01*
X128823390Y-69505293D02*
X128775771Y-69410055D01*
X128775771Y-69410055D02*
X128775771Y-69029103D01*
X128299580Y-70552912D02*
X128299580Y-69981484D01*
X128299580Y-70267198D02*
X129299580Y-70267198D01*
X129299580Y-70267198D02*
X129156723Y-70171960D01*
X129156723Y-70171960D02*
X129061485Y-70076722D01*
X129061485Y-70076722D02*
X129013866Y-69981484D01*
X88201419Y-134822721D02*
X87201419Y-134822721D01*
X87201419Y-134822721D02*
X87201419Y-134441769D01*
X87201419Y-134441769D02*
X87249038Y-134346531D01*
X87249038Y-134346531D02*
X87296657Y-134298912D01*
X87296657Y-134298912D02*
X87391895Y-134251293D01*
X87391895Y-134251293D02*
X87534752Y-134251293D01*
X87534752Y-134251293D02*
X87629990Y-134298912D01*
X87629990Y-134298912D02*
X87677609Y-134346531D01*
X87677609Y-134346531D02*
X87725228Y-134441769D01*
X87725228Y-134441769D02*
X87725228Y-134822721D01*
X87534752Y-133917959D02*
X88201419Y-133727483D01*
X88201419Y-133727483D02*
X87725228Y-133537007D01*
X87725228Y-133537007D02*
X88201419Y-133346531D01*
X88201419Y-133346531D02*
X87534752Y-133156055D01*
X88201419Y-132775102D02*
X87534752Y-132775102D01*
X87725228Y-132775102D02*
X87629990Y-132727483D01*
X87629990Y-132727483D02*
X87582371Y-132679864D01*
X87582371Y-132679864D02*
X87534752Y-132584626D01*
X87534752Y-132584626D02*
X87534752Y-132489388D01*
X87820466Y-132156054D02*
X87820466Y-131394150D01*
X87296657Y-130965578D02*
X87249038Y-130917959D01*
X87249038Y-130917959D02*
X87201419Y-130822721D01*
X87201419Y-130822721D02*
X87201419Y-130584626D01*
X87201419Y-130584626D02*
X87249038Y-130489388D01*
X87249038Y-130489388D02*
X87296657Y-130441769D01*
X87296657Y-130441769D02*
X87391895Y-130394150D01*
X87391895Y-130394150D02*
X87487133Y-130394150D01*
X87487133Y-130394150D02*
X87629990Y-130441769D01*
X87629990Y-130441769D02*
X88201419Y-131013197D01*
X88201419Y-131013197D02*
X88201419Y-130394150D01*
D11*
X111548142Y-125815065D02*
X111214809Y-125338874D01*
X110976714Y-125815065D02*
X110976714Y-124815065D01*
X110976714Y-124815065D02*
X111357666Y-124815065D01*
X111357666Y-124815065D02*
X111452904Y-124862684D01*
X111452904Y-124862684D02*
X111500523Y-124910303D01*
X111500523Y-124910303D02*
X111548142Y-125005541D01*
X111548142Y-125005541D02*
X111548142Y-125148398D01*
X111548142Y-125148398D02*
X111500523Y-125243636D01*
X111500523Y-125243636D02*
X111452904Y-125291255D01*
X111452904Y-125291255D02*
X111357666Y-125338874D01*
X111357666Y-125338874D02*
X110976714Y-125338874D01*
X111881476Y-124815065D02*
X112500523Y-124815065D01*
X112500523Y-124815065D02*
X112167190Y-125196017D01*
X112167190Y-125196017D02*
X112310047Y-125196017D01*
X112310047Y-125196017D02*
X112405285Y-125243636D01*
X112405285Y-125243636D02*
X112452904Y-125291255D01*
X112452904Y-125291255D02*
X112500523Y-125386493D01*
X112500523Y-125386493D02*
X112500523Y-125624588D01*
X112500523Y-125624588D02*
X112452904Y-125719826D01*
X112452904Y-125719826D02*
X112405285Y-125767446D01*
X112405285Y-125767446D02*
X112310047Y-125815065D01*
X112310047Y-125815065D02*
X112024333Y-125815065D01*
X112024333Y-125815065D02*
X111929095Y-125767446D01*
X111929095Y-125767446D02*
X111881476Y-125719826D01*
X113119571Y-124815065D02*
X113214809Y-124815065D01*
X113214809Y-124815065D02*
X113310047Y-124862684D01*
X113310047Y-124862684D02*
X113357666Y-124910303D01*
X113357666Y-124910303D02*
X113405285Y-125005541D01*
X113405285Y-125005541D02*
X113452904Y-125196017D01*
X113452904Y-125196017D02*
X113452904Y-125434112D01*
X113452904Y-125434112D02*
X113405285Y-125624588D01*
X113405285Y-125624588D02*
X113357666Y-125719826D01*
X113357666Y-125719826D02*
X113310047Y-125767446D01*
X113310047Y-125767446D02*
X113214809Y-125815065D01*
X113214809Y-125815065D02*
X113119571Y-125815065D01*
X113119571Y-125815065D02*
X113024333Y-125767446D01*
X113024333Y-125767446D02*
X112976714Y-125719826D01*
X112976714Y-125719826D02*
X112929095Y-125624588D01*
X112929095Y-125624588D02*
X112881476Y-125434112D01*
X112881476Y-125434112D02*
X112881476Y-125196017D01*
X112881476Y-125196017D02*
X112929095Y-125005541D01*
X112929095Y-125005541D02*
X112976714Y-124910303D01*
X112976714Y-124910303D02*
X113024333Y-124862684D01*
X113024333Y-124862684D02*
X113119571Y-124815065D01*
D10*
X71344666Y-137485855D02*
X71011333Y-137485855D01*
X71011333Y-138009665D02*
X71011333Y-137009665D01*
X71011333Y-137009665D02*
X71487523Y-137009665D01*
X71820857Y-137104903D02*
X71868476Y-137057284D01*
X71868476Y-137057284D02*
X71963714Y-137009665D01*
X71963714Y-137009665D02*
X72201809Y-137009665D01*
X72201809Y-137009665D02*
X72297047Y-137057284D01*
X72297047Y-137057284D02*
X72344666Y-137104903D01*
X72344666Y-137104903D02*
X72392285Y-137200141D01*
X72392285Y-137200141D02*
X72392285Y-137295379D01*
X72392285Y-137295379D02*
X72344666Y-137438236D01*
X72344666Y-137438236D02*
X71773238Y-138009665D01*
X71773238Y-138009665D02*
X72392285Y-138009665D01*
D11*
X135011333Y-106511065D02*
X134535143Y-106511065D01*
X134535143Y-106511065D02*
X134535143Y-105511065D01*
X135868476Y-106511065D02*
X135297048Y-106511065D01*
X135582762Y-106511065D02*
X135582762Y-105511065D01*
X135582762Y-105511065D02*
X135487524Y-105653922D01*
X135487524Y-105653922D02*
X135392286Y-105749160D01*
X135392286Y-105749160D02*
X135297048Y-105796779D01*
X66643057Y-57194674D02*
X66595438Y-57289912D01*
X66595438Y-57289912D02*
X66500200Y-57385150D01*
X66500200Y-57385150D02*
X66357342Y-57528007D01*
X66357342Y-57528007D02*
X66309723Y-57623245D01*
X66309723Y-57623245D02*
X66309723Y-57718483D01*
X66547819Y-57670864D02*
X66500200Y-57766102D01*
X66500200Y-57766102D02*
X66404961Y-57861340D01*
X66404961Y-57861340D02*
X66214485Y-57908959D01*
X66214485Y-57908959D02*
X65881152Y-57908959D01*
X65881152Y-57908959D02*
X65690676Y-57861340D01*
X65690676Y-57861340D02*
X65595438Y-57766102D01*
X65595438Y-57766102D02*
X65547819Y-57670864D01*
X65547819Y-57670864D02*
X65547819Y-57480388D01*
X65547819Y-57480388D02*
X65595438Y-57385150D01*
X65595438Y-57385150D02*
X65690676Y-57289912D01*
X65690676Y-57289912D02*
X65881152Y-57242293D01*
X65881152Y-57242293D02*
X66214485Y-57242293D01*
X66214485Y-57242293D02*
X66404961Y-57289912D01*
X66404961Y-57289912D02*
X66500200Y-57385150D01*
X66500200Y-57385150D02*
X66547819Y-57480388D01*
X66547819Y-57480388D02*
X66547819Y-57670864D01*
X66547819Y-56289912D02*
X66547819Y-56861340D01*
X66547819Y-56575626D02*
X65547819Y-56575626D01*
X65547819Y-56575626D02*
X65690676Y-56670864D01*
X65690676Y-56670864D02*
X65785914Y-56766102D01*
X65785914Y-56766102D02*
X65833533Y-56861340D01*
X65547819Y-55956578D02*
X65547819Y-55289912D01*
X65547819Y-55289912D02*
X66547819Y-55718483D01*
X72226057Y-85086174D02*
X72178438Y-85181412D01*
X72178438Y-85181412D02*
X72083200Y-85276650D01*
X72083200Y-85276650D02*
X71940342Y-85419507D01*
X71940342Y-85419507D02*
X71892723Y-85514745D01*
X71892723Y-85514745D02*
X71892723Y-85609983D01*
X72130819Y-85562364D02*
X72083200Y-85657602D01*
X72083200Y-85657602D02*
X71987961Y-85752840D01*
X71987961Y-85752840D02*
X71797485Y-85800459D01*
X71797485Y-85800459D02*
X71464152Y-85800459D01*
X71464152Y-85800459D02*
X71273676Y-85752840D01*
X71273676Y-85752840D02*
X71178438Y-85657602D01*
X71178438Y-85657602D02*
X71130819Y-85562364D01*
X71130819Y-85562364D02*
X71130819Y-85371888D01*
X71130819Y-85371888D02*
X71178438Y-85276650D01*
X71178438Y-85276650D02*
X71273676Y-85181412D01*
X71273676Y-85181412D02*
X71464152Y-85133793D01*
X71464152Y-85133793D02*
X71797485Y-85133793D01*
X71797485Y-85133793D02*
X71987961Y-85181412D01*
X71987961Y-85181412D02*
X72083200Y-85276650D01*
X72083200Y-85276650D02*
X72130819Y-85371888D01*
X72130819Y-85371888D02*
X72130819Y-85562364D01*
X71226057Y-84752840D02*
X71178438Y-84705221D01*
X71178438Y-84705221D02*
X71130819Y-84609983D01*
X71130819Y-84609983D02*
X71130819Y-84371888D01*
X71130819Y-84371888D02*
X71178438Y-84276650D01*
X71178438Y-84276650D02*
X71226057Y-84229031D01*
X71226057Y-84229031D02*
X71321295Y-84181412D01*
X71321295Y-84181412D02*
X71416533Y-84181412D01*
X71416533Y-84181412D02*
X71559390Y-84229031D01*
X71559390Y-84229031D02*
X72130819Y-84800459D01*
X72130819Y-84800459D02*
X72130819Y-84181412D01*
X71130819Y-83562364D02*
X71130819Y-83467126D01*
X71130819Y-83467126D02*
X71178438Y-83371888D01*
X71178438Y-83371888D02*
X71226057Y-83324269D01*
X71226057Y-83324269D02*
X71321295Y-83276650D01*
X71321295Y-83276650D02*
X71511771Y-83229031D01*
X71511771Y-83229031D02*
X71749866Y-83229031D01*
X71749866Y-83229031D02*
X71940342Y-83276650D01*
X71940342Y-83276650D02*
X72035580Y-83324269D01*
X72035580Y-83324269D02*
X72083200Y-83371888D01*
X72083200Y-83371888D02*
X72130819Y-83467126D01*
X72130819Y-83467126D02*
X72130819Y-83562364D01*
X72130819Y-83562364D02*
X72083200Y-83657602D01*
X72083200Y-83657602D02*
X72035580Y-83705221D01*
X72035580Y-83705221D02*
X71940342Y-83752840D01*
X71940342Y-83752840D02*
X71749866Y-83800459D01*
X71749866Y-83800459D02*
X71511771Y-83800459D01*
X71511771Y-83800459D02*
X71321295Y-83752840D01*
X71321295Y-83752840D02*
X71226057Y-83705221D01*
X71226057Y-83705221D02*
X71178438Y-83657602D01*
X71178438Y-83657602D02*
X71130819Y-83562364D01*
X111552342Y-122671826D02*
X111504723Y-122719446D01*
X111504723Y-122719446D02*
X111361866Y-122767065D01*
X111361866Y-122767065D02*
X111266628Y-122767065D01*
X111266628Y-122767065D02*
X111123771Y-122719446D01*
X111123771Y-122719446D02*
X111028533Y-122624207D01*
X111028533Y-122624207D02*
X110980914Y-122528969D01*
X110980914Y-122528969D02*
X110933295Y-122338493D01*
X110933295Y-122338493D02*
X110933295Y-122195636D01*
X110933295Y-122195636D02*
X110980914Y-122005160D01*
X110980914Y-122005160D02*
X111028533Y-121909922D01*
X111028533Y-121909922D02*
X111123771Y-121814684D01*
X111123771Y-121814684D02*
X111266628Y-121767065D01*
X111266628Y-121767065D02*
X111361866Y-121767065D01*
X111361866Y-121767065D02*
X111504723Y-121814684D01*
X111504723Y-121814684D02*
X111552342Y-121862303D01*
X112504723Y-122767065D02*
X111933295Y-122767065D01*
X112219009Y-122767065D02*
X112219009Y-121767065D01*
X112219009Y-121767065D02*
X112123771Y-121909922D01*
X112123771Y-121909922D02*
X112028533Y-122005160D01*
X112028533Y-122005160D02*
X111933295Y-122052779D01*
X113409485Y-121767065D02*
X112933295Y-121767065D01*
X112933295Y-121767065D02*
X112885676Y-122243255D01*
X112885676Y-122243255D02*
X112933295Y-122195636D01*
X112933295Y-122195636D02*
X113028533Y-122148017D01*
X113028533Y-122148017D02*
X113266628Y-122148017D01*
X113266628Y-122148017D02*
X113361866Y-122195636D01*
X113361866Y-122195636D02*
X113409485Y-122243255D01*
X113409485Y-122243255D02*
X113457104Y-122338493D01*
X113457104Y-122338493D02*
X113457104Y-122576588D01*
X113457104Y-122576588D02*
X113409485Y-122671826D01*
X113409485Y-122671826D02*
X113361866Y-122719446D01*
X113361866Y-122719446D02*
X113266628Y-122767065D01*
X113266628Y-122767065D02*
X113028533Y-122767065D01*
X113028533Y-122767065D02*
X112933295Y-122719446D01*
X112933295Y-122719446D02*
X112885676Y-122671826D01*
X101556905Y-122021065D02*
X101556905Y-122830588D01*
X101556905Y-122830588D02*
X101604524Y-122925826D01*
X101604524Y-122925826D02*
X101652143Y-122973446D01*
X101652143Y-122973446D02*
X101747381Y-123021065D01*
X101747381Y-123021065D02*
X101937857Y-123021065D01*
X101937857Y-123021065D02*
X102033095Y-122973446D01*
X102033095Y-122973446D02*
X102080714Y-122925826D01*
X102080714Y-122925826D02*
X102128333Y-122830588D01*
X102128333Y-122830588D02*
X102128333Y-122021065D01*
X103128333Y-123021065D02*
X102556905Y-123021065D01*
X102842619Y-123021065D02*
X102842619Y-122021065D01*
X102842619Y-122021065D02*
X102747381Y-122163922D01*
X102747381Y-122163922D02*
X102652143Y-122259160D01*
X102652143Y-122259160D02*
X102556905Y-122306779D01*
X103509286Y-122116303D02*
X103556905Y-122068684D01*
X103556905Y-122068684D02*
X103652143Y-122021065D01*
X103652143Y-122021065D02*
X103890238Y-122021065D01*
X103890238Y-122021065D02*
X103985476Y-122068684D01*
X103985476Y-122068684D02*
X104033095Y-122116303D01*
X104033095Y-122116303D02*
X104080714Y-122211541D01*
X104080714Y-122211541D02*
X104080714Y-122306779D01*
X104080714Y-122306779D02*
X104033095Y-122449636D01*
X104033095Y-122449636D02*
X103461667Y-123021065D01*
X103461667Y-123021065D02*
X104080714Y-123021065D01*
X88895095Y-130182065D02*
X89466523Y-130182065D01*
X89180809Y-131182065D02*
X89180809Y-130182065D01*
X89799857Y-131182065D02*
X89799857Y-130182065D01*
X89799857Y-130182065D02*
X90180809Y-130182065D01*
X90180809Y-130182065D02*
X90276047Y-130229684D01*
X90276047Y-130229684D02*
X90323666Y-130277303D01*
X90323666Y-130277303D02*
X90371285Y-130372541D01*
X90371285Y-130372541D02*
X90371285Y-130515398D01*
X90371285Y-130515398D02*
X90323666Y-130610636D01*
X90323666Y-130610636D02*
X90276047Y-130658255D01*
X90276047Y-130658255D02*
X90180809Y-130705874D01*
X90180809Y-130705874D02*
X89799857Y-130705874D01*
X91323666Y-131182065D02*
X90752238Y-131182065D01*
X91037952Y-131182065D02*
X91037952Y-130182065D01*
X91037952Y-130182065D02*
X90942714Y-130324922D01*
X90942714Y-130324922D02*
X90847476Y-130420160D01*
X90847476Y-130420160D02*
X90752238Y-130467779D01*
X73583571Y-91653303D02*
X73488333Y-91605684D01*
X73488333Y-91605684D02*
X73393095Y-91510446D01*
X73393095Y-91510446D02*
X73250238Y-91367588D01*
X73250238Y-91367588D02*
X73155000Y-91319969D01*
X73155000Y-91319969D02*
X73059762Y-91319969D01*
X73107381Y-91558065D02*
X73012143Y-91510446D01*
X73012143Y-91510446D02*
X72916905Y-91415207D01*
X72916905Y-91415207D02*
X72869286Y-91224731D01*
X72869286Y-91224731D02*
X72869286Y-90891398D01*
X72869286Y-90891398D02*
X72916905Y-90700922D01*
X72916905Y-90700922D02*
X73012143Y-90605684D01*
X73012143Y-90605684D02*
X73107381Y-90558065D01*
X73107381Y-90558065D02*
X73297857Y-90558065D01*
X73297857Y-90558065D02*
X73393095Y-90605684D01*
X73393095Y-90605684D02*
X73488333Y-90700922D01*
X73488333Y-90700922D02*
X73535952Y-90891398D01*
X73535952Y-90891398D02*
X73535952Y-91224731D01*
X73535952Y-91224731D02*
X73488333Y-91415207D01*
X73488333Y-91415207D02*
X73393095Y-91510446D01*
X73393095Y-91510446D02*
X73297857Y-91558065D01*
X73297857Y-91558065D02*
X73107381Y-91558065D01*
X74488333Y-91558065D02*
X73916905Y-91558065D01*
X74202619Y-91558065D02*
X74202619Y-90558065D01*
X74202619Y-90558065D02*
X74107381Y-90700922D01*
X74107381Y-90700922D02*
X74012143Y-90796160D01*
X74012143Y-90796160D02*
X73916905Y-90843779D01*
X74964524Y-91558065D02*
X75155000Y-91558065D01*
X75155000Y-91558065D02*
X75250238Y-91510446D01*
X75250238Y-91510446D02*
X75297857Y-91462826D01*
X75297857Y-91462826D02*
X75393095Y-91319969D01*
X75393095Y-91319969D02*
X75440714Y-91129493D01*
X75440714Y-91129493D02*
X75440714Y-90748541D01*
X75440714Y-90748541D02*
X75393095Y-90653303D01*
X75393095Y-90653303D02*
X75345476Y-90605684D01*
X75345476Y-90605684D02*
X75250238Y-90558065D01*
X75250238Y-90558065D02*
X75059762Y-90558065D01*
X75059762Y-90558065D02*
X74964524Y-90605684D01*
X74964524Y-90605684D02*
X74916905Y-90653303D01*
X74916905Y-90653303D02*
X74869286Y-90748541D01*
X74869286Y-90748541D02*
X74869286Y-90986636D01*
X74869286Y-90986636D02*
X74916905Y-91081874D01*
X74916905Y-91081874D02*
X74964524Y-91129493D01*
X74964524Y-91129493D02*
X75059762Y-91177112D01*
X75059762Y-91177112D02*
X75250238Y-91177112D01*
X75250238Y-91177112D02*
X75345476Y-91129493D01*
X75345476Y-91129493D02*
X75393095Y-91081874D01*
X75393095Y-91081874D02*
X75440714Y-90986636D01*
X72231057Y-67925674D02*
X72183438Y-68020912D01*
X72183438Y-68020912D02*
X72088200Y-68116150D01*
X72088200Y-68116150D02*
X71945342Y-68259007D01*
X71945342Y-68259007D02*
X71897723Y-68354245D01*
X71897723Y-68354245D02*
X71897723Y-68449483D01*
X72135819Y-68401864D02*
X72088200Y-68497102D01*
X72088200Y-68497102D02*
X71992961Y-68592340D01*
X71992961Y-68592340D02*
X71802485Y-68639959D01*
X71802485Y-68639959D02*
X71469152Y-68639959D01*
X71469152Y-68639959D02*
X71278676Y-68592340D01*
X71278676Y-68592340D02*
X71183438Y-68497102D01*
X71183438Y-68497102D02*
X71135819Y-68401864D01*
X71135819Y-68401864D02*
X71135819Y-68211388D01*
X71135819Y-68211388D02*
X71183438Y-68116150D01*
X71183438Y-68116150D02*
X71278676Y-68020912D01*
X71278676Y-68020912D02*
X71469152Y-67973293D01*
X71469152Y-67973293D02*
X71802485Y-67973293D01*
X71802485Y-67973293D02*
X71992961Y-68020912D01*
X71992961Y-68020912D02*
X72088200Y-68116150D01*
X72088200Y-68116150D02*
X72135819Y-68211388D01*
X72135819Y-68211388D02*
X72135819Y-68401864D01*
X72135819Y-67020912D02*
X72135819Y-67592340D01*
X72135819Y-67306626D02*
X71135819Y-67306626D01*
X71135819Y-67306626D02*
X71278676Y-67401864D01*
X71278676Y-67401864D02*
X71373914Y-67497102D01*
X71373914Y-67497102D02*
X71421533Y-67592340D01*
X71135819Y-66687578D02*
X71135819Y-66068531D01*
X71135819Y-66068531D02*
X71516771Y-66401864D01*
X71516771Y-66401864D02*
X71516771Y-66259007D01*
X71516771Y-66259007D02*
X71564390Y-66163769D01*
X71564390Y-66163769D02*
X71612009Y-66116150D01*
X71612009Y-66116150D02*
X71707247Y-66068531D01*
X71707247Y-66068531D02*
X71945342Y-66068531D01*
X71945342Y-66068531D02*
X72040580Y-66116150D01*
X72040580Y-66116150D02*
X72088200Y-66163769D01*
X72088200Y-66163769D02*
X72135819Y-66259007D01*
X72135819Y-66259007D02*
X72135819Y-66544721D01*
X72135819Y-66544721D02*
X72088200Y-66639959D01*
X72088200Y-66639959D02*
X72040580Y-66687578D01*
X141093819Y-124320340D02*
X140093819Y-124320340D01*
X140093819Y-124320340D02*
X140093819Y-124082245D01*
X140093819Y-124082245D02*
X140141438Y-123939388D01*
X140141438Y-123939388D02*
X140236676Y-123844150D01*
X140236676Y-123844150D02*
X140331914Y-123796531D01*
X140331914Y-123796531D02*
X140522390Y-123748912D01*
X140522390Y-123748912D02*
X140665247Y-123748912D01*
X140665247Y-123748912D02*
X140855723Y-123796531D01*
X140855723Y-123796531D02*
X140950961Y-123844150D01*
X140950961Y-123844150D02*
X141046200Y-123939388D01*
X141046200Y-123939388D02*
X141093819Y-124082245D01*
X141093819Y-124082245D02*
X141093819Y-124320340D01*
X140427152Y-122891769D02*
X141093819Y-122891769D01*
X140046200Y-123129864D02*
X140760485Y-123367959D01*
X140760485Y-123367959D02*
X140760485Y-122748912D01*
X117993905Y-130674065D02*
X117993905Y-129674065D01*
X117993905Y-129674065D02*
X118232000Y-129674065D01*
X118232000Y-129674065D02*
X118374857Y-129721684D01*
X118374857Y-129721684D02*
X118470095Y-129816922D01*
X118470095Y-129816922D02*
X118517714Y-129912160D01*
X118517714Y-129912160D02*
X118565333Y-130102636D01*
X118565333Y-130102636D02*
X118565333Y-130245493D01*
X118565333Y-130245493D02*
X118517714Y-130435969D01*
X118517714Y-130435969D02*
X118470095Y-130531207D01*
X118470095Y-130531207D02*
X118374857Y-130626446D01*
X118374857Y-130626446D02*
X118232000Y-130674065D01*
X118232000Y-130674065D02*
X117993905Y-130674065D01*
X119470095Y-129674065D02*
X118993905Y-129674065D01*
X118993905Y-129674065D02*
X118946286Y-130150255D01*
X118946286Y-130150255D02*
X118993905Y-130102636D01*
X118993905Y-130102636D02*
X119089143Y-130055017D01*
X119089143Y-130055017D02*
X119327238Y-130055017D01*
X119327238Y-130055017D02*
X119422476Y-130102636D01*
X119422476Y-130102636D02*
X119470095Y-130150255D01*
X119470095Y-130150255D02*
X119517714Y-130245493D01*
X119517714Y-130245493D02*
X119517714Y-130483588D01*
X119517714Y-130483588D02*
X119470095Y-130578826D01*
X119470095Y-130578826D02*
X119422476Y-130626446D01*
X119422476Y-130626446D02*
X119327238Y-130674065D01*
X119327238Y-130674065D02*
X119089143Y-130674065D01*
X119089143Y-130674065D02*
X118993905Y-130626446D01*
X118993905Y-130626446D02*
X118946286Y-130578826D01*
X140966819Y-99936340D02*
X139966819Y-99936340D01*
X139966819Y-99936340D02*
X139966819Y-99698245D01*
X139966819Y-99698245D02*
X140014438Y-99555388D01*
X140014438Y-99555388D02*
X140109676Y-99460150D01*
X140109676Y-99460150D02*
X140204914Y-99412531D01*
X140204914Y-99412531D02*
X140395390Y-99364912D01*
X140395390Y-99364912D02*
X140538247Y-99364912D01*
X140538247Y-99364912D02*
X140728723Y-99412531D01*
X140728723Y-99412531D02*
X140823961Y-99460150D01*
X140823961Y-99460150D02*
X140919200Y-99555388D01*
X140919200Y-99555388D02*
X140966819Y-99698245D01*
X140966819Y-99698245D02*
X140966819Y-99936340D01*
X139966819Y-99031578D02*
X139966819Y-98412531D01*
X139966819Y-98412531D02*
X140347771Y-98745864D01*
X140347771Y-98745864D02*
X140347771Y-98603007D01*
X140347771Y-98603007D02*
X140395390Y-98507769D01*
X140395390Y-98507769D02*
X140443009Y-98460150D01*
X140443009Y-98460150D02*
X140538247Y-98412531D01*
X140538247Y-98412531D02*
X140776342Y-98412531D01*
X140776342Y-98412531D02*
X140871580Y-98460150D01*
X140871580Y-98460150D02*
X140919200Y-98507769D01*
X140919200Y-98507769D02*
X140966819Y-98603007D01*
X140966819Y-98603007D02*
X140966819Y-98888721D01*
X140966819Y-98888721D02*
X140919200Y-98983959D01*
X140919200Y-98983959D02*
X140871580Y-99031578D01*
X140712819Y-113144340D02*
X139712819Y-113144340D01*
X139712819Y-113144340D02*
X139712819Y-112906245D01*
X139712819Y-112906245D02*
X139760438Y-112763388D01*
X139760438Y-112763388D02*
X139855676Y-112668150D01*
X139855676Y-112668150D02*
X139950914Y-112620531D01*
X139950914Y-112620531D02*
X140141390Y-112572912D01*
X140141390Y-112572912D02*
X140284247Y-112572912D01*
X140284247Y-112572912D02*
X140474723Y-112620531D01*
X140474723Y-112620531D02*
X140569961Y-112668150D01*
X140569961Y-112668150D02*
X140665200Y-112763388D01*
X140665200Y-112763388D02*
X140712819Y-112906245D01*
X140712819Y-112906245D02*
X140712819Y-113144340D01*
X139808057Y-112191959D02*
X139760438Y-112144340D01*
X139760438Y-112144340D02*
X139712819Y-112049102D01*
X139712819Y-112049102D02*
X139712819Y-111811007D01*
X139712819Y-111811007D02*
X139760438Y-111715769D01*
X139760438Y-111715769D02*
X139808057Y-111668150D01*
X139808057Y-111668150D02*
X139903295Y-111620531D01*
X139903295Y-111620531D02*
X139998533Y-111620531D01*
X139998533Y-111620531D02*
X140141390Y-111668150D01*
X140141390Y-111668150D02*
X140712819Y-112239578D01*
X140712819Y-112239578D02*
X140712819Y-111620531D01*
X79221057Y-54668674D02*
X79173438Y-54763912D01*
X79173438Y-54763912D02*
X79078200Y-54859150D01*
X79078200Y-54859150D02*
X78935342Y-55002007D01*
X78935342Y-55002007D02*
X78887723Y-55097245D01*
X78887723Y-55097245D02*
X78887723Y-55192483D01*
X79125819Y-55144864D02*
X79078200Y-55240102D01*
X79078200Y-55240102D02*
X78982961Y-55335340D01*
X78982961Y-55335340D02*
X78792485Y-55382959D01*
X78792485Y-55382959D02*
X78459152Y-55382959D01*
X78459152Y-55382959D02*
X78268676Y-55335340D01*
X78268676Y-55335340D02*
X78173438Y-55240102D01*
X78173438Y-55240102D02*
X78125819Y-55144864D01*
X78125819Y-55144864D02*
X78125819Y-54954388D01*
X78125819Y-54954388D02*
X78173438Y-54859150D01*
X78173438Y-54859150D02*
X78268676Y-54763912D01*
X78268676Y-54763912D02*
X78459152Y-54716293D01*
X78459152Y-54716293D02*
X78792485Y-54716293D01*
X78792485Y-54716293D02*
X78982961Y-54763912D01*
X78982961Y-54763912D02*
X79078200Y-54859150D01*
X79078200Y-54859150D02*
X79125819Y-54954388D01*
X79125819Y-54954388D02*
X79125819Y-55144864D01*
X79125819Y-53763912D02*
X79125819Y-54335340D01*
X79125819Y-54049626D02*
X78125819Y-54049626D01*
X78125819Y-54049626D02*
X78268676Y-54144864D01*
X78268676Y-54144864D02*
X78363914Y-54240102D01*
X78363914Y-54240102D02*
X78411533Y-54335340D01*
X78554390Y-53192483D02*
X78506771Y-53287721D01*
X78506771Y-53287721D02*
X78459152Y-53335340D01*
X78459152Y-53335340D02*
X78363914Y-53382959D01*
X78363914Y-53382959D02*
X78316295Y-53382959D01*
X78316295Y-53382959D02*
X78221057Y-53335340D01*
X78221057Y-53335340D02*
X78173438Y-53287721D01*
X78173438Y-53287721D02*
X78125819Y-53192483D01*
X78125819Y-53192483D02*
X78125819Y-53002007D01*
X78125819Y-53002007D02*
X78173438Y-52906769D01*
X78173438Y-52906769D02*
X78221057Y-52859150D01*
X78221057Y-52859150D02*
X78316295Y-52811531D01*
X78316295Y-52811531D02*
X78363914Y-52811531D01*
X78363914Y-52811531D02*
X78459152Y-52859150D01*
X78459152Y-52859150D02*
X78506771Y-52906769D01*
X78506771Y-52906769D02*
X78554390Y-53002007D01*
X78554390Y-53002007D02*
X78554390Y-53192483D01*
X78554390Y-53192483D02*
X78602009Y-53287721D01*
X78602009Y-53287721D02*
X78649628Y-53335340D01*
X78649628Y-53335340D02*
X78744866Y-53382959D01*
X78744866Y-53382959D02*
X78935342Y-53382959D01*
X78935342Y-53382959D02*
X79030580Y-53335340D01*
X79030580Y-53335340D02*
X79078200Y-53287721D01*
X79078200Y-53287721D02*
X79125819Y-53192483D01*
X79125819Y-53192483D02*
X79125819Y-53002007D01*
X79125819Y-53002007D02*
X79078200Y-52906769D01*
X79078200Y-52906769D02*
X79030580Y-52859150D01*
X79030580Y-52859150D02*
X78935342Y-52811531D01*
X78935342Y-52811531D02*
X78744866Y-52811531D01*
X78744866Y-52811531D02*
X78649628Y-52859150D01*
X78649628Y-52859150D02*
X78602009Y-52906769D01*
X78602009Y-52906769D02*
X78554390Y-53002007D01*
X84601057Y-87420674D02*
X84553438Y-87515912D01*
X84553438Y-87515912D02*
X84458200Y-87611150D01*
X84458200Y-87611150D02*
X84315342Y-87754007D01*
X84315342Y-87754007D02*
X84267723Y-87849245D01*
X84267723Y-87849245D02*
X84267723Y-87944483D01*
X84505819Y-87896864D02*
X84458200Y-87992102D01*
X84458200Y-87992102D02*
X84362961Y-88087340D01*
X84362961Y-88087340D02*
X84172485Y-88134959D01*
X84172485Y-88134959D02*
X83839152Y-88134959D01*
X83839152Y-88134959D02*
X83648676Y-88087340D01*
X83648676Y-88087340D02*
X83553438Y-87992102D01*
X83553438Y-87992102D02*
X83505819Y-87896864D01*
X83505819Y-87896864D02*
X83505819Y-87706388D01*
X83505819Y-87706388D02*
X83553438Y-87611150D01*
X83553438Y-87611150D02*
X83648676Y-87515912D01*
X83648676Y-87515912D02*
X83839152Y-87468293D01*
X83839152Y-87468293D02*
X84172485Y-87468293D01*
X84172485Y-87468293D02*
X84362961Y-87515912D01*
X84362961Y-87515912D02*
X84458200Y-87611150D01*
X84458200Y-87611150D02*
X84505819Y-87706388D01*
X84505819Y-87706388D02*
X84505819Y-87896864D01*
X83601057Y-87087340D02*
X83553438Y-87039721D01*
X83553438Y-87039721D02*
X83505819Y-86944483D01*
X83505819Y-86944483D02*
X83505819Y-86706388D01*
X83505819Y-86706388D02*
X83553438Y-86611150D01*
X83553438Y-86611150D02*
X83601057Y-86563531D01*
X83601057Y-86563531D02*
X83696295Y-86515912D01*
X83696295Y-86515912D02*
X83791533Y-86515912D01*
X83791533Y-86515912D02*
X83934390Y-86563531D01*
X83934390Y-86563531D02*
X84505819Y-87134959D01*
X84505819Y-87134959D02*
X84505819Y-86515912D01*
X84505819Y-85563531D02*
X84505819Y-86134959D01*
X84505819Y-85849245D02*
X83505819Y-85849245D01*
X83505819Y-85849245D02*
X83648676Y-85944483D01*
X83648676Y-85944483D02*
X83743914Y-86039721D01*
X83743914Y-86039721D02*
X83791533Y-86134959D01*
X84263057Y-65498174D02*
X84215438Y-65593412D01*
X84215438Y-65593412D02*
X84120200Y-65688650D01*
X84120200Y-65688650D02*
X83977342Y-65831507D01*
X83977342Y-65831507D02*
X83929723Y-65926745D01*
X83929723Y-65926745D02*
X83929723Y-66021983D01*
X84167819Y-65974364D02*
X84120200Y-66069602D01*
X84120200Y-66069602D02*
X84024961Y-66164840D01*
X84024961Y-66164840D02*
X83834485Y-66212459D01*
X83834485Y-66212459D02*
X83501152Y-66212459D01*
X83501152Y-66212459D02*
X83310676Y-66164840D01*
X83310676Y-66164840D02*
X83215438Y-66069602D01*
X83215438Y-66069602D02*
X83167819Y-65974364D01*
X83167819Y-65974364D02*
X83167819Y-65783888D01*
X83167819Y-65783888D02*
X83215438Y-65688650D01*
X83215438Y-65688650D02*
X83310676Y-65593412D01*
X83310676Y-65593412D02*
X83501152Y-65545793D01*
X83501152Y-65545793D02*
X83834485Y-65545793D01*
X83834485Y-65545793D02*
X84024961Y-65593412D01*
X84024961Y-65593412D02*
X84120200Y-65688650D01*
X84120200Y-65688650D02*
X84167819Y-65783888D01*
X84167819Y-65783888D02*
X84167819Y-65974364D01*
X84167819Y-64593412D02*
X84167819Y-65164840D01*
X84167819Y-64879126D02*
X83167819Y-64879126D01*
X83167819Y-64879126D02*
X83310676Y-64974364D01*
X83310676Y-64974364D02*
X83405914Y-65069602D01*
X83405914Y-65069602D02*
X83453533Y-65164840D01*
X83167819Y-63688650D02*
X83167819Y-64164840D01*
X83167819Y-64164840D02*
X83644009Y-64212459D01*
X83644009Y-64212459D02*
X83596390Y-64164840D01*
X83596390Y-64164840D02*
X83548771Y-64069602D01*
X83548771Y-64069602D02*
X83548771Y-63831507D01*
X83548771Y-63831507D02*
X83596390Y-63736269D01*
X83596390Y-63736269D02*
X83644009Y-63688650D01*
X83644009Y-63688650D02*
X83739247Y-63641031D01*
X83739247Y-63641031D02*
X83977342Y-63641031D01*
X83977342Y-63641031D02*
X84072580Y-63688650D01*
X84072580Y-63688650D02*
X84120200Y-63736269D01*
X84120200Y-63736269D02*
X84167819Y-63831507D01*
X84167819Y-63831507D02*
X84167819Y-64069602D01*
X84167819Y-64069602D02*
X84120200Y-64164840D01*
X84120200Y-64164840D02*
X84072580Y-64212459D01*
X79183057Y-76497674D02*
X79135438Y-76592912D01*
X79135438Y-76592912D02*
X79040200Y-76688150D01*
X79040200Y-76688150D02*
X78897342Y-76831007D01*
X78897342Y-76831007D02*
X78849723Y-76926245D01*
X78849723Y-76926245D02*
X78849723Y-77021483D01*
X79087819Y-76973864D02*
X79040200Y-77069102D01*
X79040200Y-77069102D02*
X78944961Y-77164340D01*
X78944961Y-77164340D02*
X78754485Y-77211959D01*
X78754485Y-77211959D02*
X78421152Y-77211959D01*
X78421152Y-77211959D02*
X78230676Y-77164340D01*
X78230676Y-77164340D02*
X78135438Y-77069102D01*
X78135438Y-77069102D02*
X78087819Y-76973864D01*
X78087819Y-76973864D02*
X78087819Y-76783388D01*
X78087819Y-76783388D02*
X78135438Y-76688150D01*
X78135438Y-76688150D02*
X78230676Y-76592912D01*
X78230676Y-76592912D02*
X78421152Y-76545293D01*
X78421152Y-76545293D02*
X78754485Y-76545293D01*
X78754485Y-76545293D02*
X78944961Y-76592912D01*
X78944961Y-76592912D02*
X79040200Y-76688150D01*
X79040200Y-76688150D02*
X79087819Y-76783388D01*
X79087819Y-76783388D02*
X79087819Y-76973864D01*
X78183057Y-76164340D02*
X78135438Y-76116721D01*
X78135438Y-76116721D02*
X78087819Y-76021483D01*
X78087819Y-76021483D02*
X78087819Y-75783388D01*
X78087819Y-75783388D02*
X78135438Y-75688150D01*
X78135438Y-75688150D02*
X78183057Y-75640531D01*
X78183057Y-75640531D02*
X78278295Y-75592912D01*
X78278295Y-75592912D02*
X78373533Y-75592912D01*
X78373533Y-75592912D02*
X78516390Y-75640531D01*
X78516390Y-75640531D02*
X79087819Y-76211959D01*
X79087819Y-76211959D02*
X79087819Y-75592912D01*
X78421152Y-74735769D02*
X79087819Y-74735769D01*
X78040200Y-74973864D02*
X78754485Y-75211959D01*
X78754485Y-75211959D02*
X78754485Y-74592912D01*
D12*
%TO.C,Pwr+2*%
X81902000Y-141616246D02*
G75*
G02*
X72758000Y-141616246I-4572000J0D01*
G01*
X72758000Y-141616246D02*
G75*
G02*
X81902000Y-141616246I4572000J0D01*
G01*
D13*
%TO.C,R31*%
X108739776Y-120265746D02*
X109249224Y-120265746D01*
X108739776Y-121310746D02*
X109249224Y-121310746D01*
%TO.C,HMI_Signal_B1*%
X96651000Y-141420246D02*
X96651000Y-147440246D01*
X96651000Y-147440246D02*
X109571000Y-147440246D01*
X97231000Y-146840246D02*
X97231000Y-147440246D01*
X98031000Y-142420246D02*
X98031000Y-141420246D01*
X98281000Y-141420246D02*
X98281000Y-142420246D01*
X98281000Y-142950246D02*
X98031000Y-142420246D01*
X98831000Y-146840246D02*
X97231000Y-146840246D01*
X98831000Y-147440246D02*
X98831000Y-146840246D01*
X99771000Y-146840246D02*
X99771000Y-147440246D01*
X101371000Y-146840246D02*
X99771000Y-146840246D01*
X101371000Y-147440246D02*
X101371000Y-146840246D01*
X102311000Y-146840246D02*
X102311000Y-147440246D01*
X103911000Y-146840246D02*
X102311000Y-146840246D01*
X103911000Y-147440246D02*
X103911000Y-146840246D01*
X104851000Y-146840246D02*
X104851000Y-147440246D01*
X106451000Y-146840246D02*
X104851000Y-146840246D01*
X106451000Y-147440246D02*
X106451000Y-146840246D01*
X107391000Y-146840246D02*
X107391000Y-147440246D01*
X107941000Y-141420246D02*
X107941000Y-142420246D01*
X107941000Y-142950246D02*
X98281000Y-142950246D01*
X108191000Y-141420246D02*
X108191000Y-142420246D01*
X108191000Y-142420246D02*
X98031000Y-142420246D01*
X108191000Y-142420246D02*
X107941000Y-142950246D01*
X108991000Y-146840246D02*
X107391000Y-146840246D01*
X108991000Y-147440246D02*
X108991000Y-146840246D01*
X109571000Y-141420246D02*
X96651000Y-141420246D01*
X109571000Y-147440246D02*
X109571000Y-141420246D01*
X109861000Y-146410246D02*
X109861000Y-142410246D01*
%TO.C,R25*%
X77964276Y-88802746D02*
X78473724Y-88802746D01*
X77964276Y-89847746D02*
X78473724Y-89847746D01*
%TO.C,C16*%
X103224000Y-112370246D02*
X103724000Y-112370246D01*
X103474000Y-112120246D02*
X103474000Y-112620246D01*
X103964000Y-112734683D02*
X103964000Y-112870246D01*
X103964000Y-112734683D02*
X105028437Y-111670246D01*
X103964000Y-115125809D02*
X103964000Y-114990246D01*
X103964000Y-115125809D02*
X105028437Y-116190246D01*
X105028437Y-111670246D02*
X108484000Y-111670246D01*
X105028437Y-116190246D02*
X108484000Y-116190246D01*
X108484000Y-111670246D02*
X108484000Y-112870246D01*
X108484000Y-116190246D02*
X108484000Y-114990246D01*
%TO.C,R22*%
X66684776Y-67720746D02*
X67194224Y-67720746D01*
X66684776Y-68765746D02*
X67194224Y-68765746D01*
%TO.C,TP2*%
X73442000Y-80435246D02*
G75*
G02*
X70042000Y-80435246I-1700000J0D01*
G01*
X70042000Y-80435246D02*
G75*
G02*
X73442000Y-80435246I1700000J0D01*
G01*
%TO.C,R23*%
X72884276Y-51007546D02*
X73393724Y-51007546D01*
X72884276Y-52052546D02*
X73393724Y-52052546D01*
%TO.C,R2*%
X85054224Y-141855746D02*
X84544776Y-141855746D01*
X85054224Y-142900746D02*
X84544776Y-142900746D01*
%TO.C,C3*%
X68283000Y-108729246D02*
X61981000Y-108729246D01*
X68283000Y-108769246D02*
X61994000Y-108769246D01*
X68283000Y-108809246D02*
X62006000Y-108809246D01*
X68283000Y-108849246D02*
X62018000Y-108849246D01*
X68283000Y-108889246D02*
X62031000Y-108889246D01*
X68283000Y-108929246D02*
X62044000Y-108929246D01*
X68283000Y-108969246D02*
X62057000Y-108969246D01*
X68283000Y-109009246D02*
X62071000Y-109009246D01*
X68283000Y-109049246D02*
X62084000Y-109049246D01*
X68283000Y-109089246D02*
X62098000Y-109089246D01*
X68283000Y-109129246D02*
X62112000Y-109129246D01*
X68283000Y-109169246D02*
X62126000Y-109169246D01*
X68283000Y-109209246D02*
X62141000Y-109209246D01*
X68283000Y-109249246D02*
X62156000Y-109249246D01*
X68283000Y-109289246D02*
X62171000Y-109289246D01*
X68283000Y-109329246D02*
X62186000Y-109329246D01*
X68283000Y-109369246D02*
X62202000Y-109369246D01*
X68283000Y-109409246D02*
X62218000Y-109409246D01*
X68283000Y-109449246D02*
X62234000Y-109449246D01*
X68283000Y-109489246D02*
X62250000Y-109489246D01*
X68283000Y-109529246D02*
X62266000Y-109529246D01*
X68283000Y-109569246D02*
X62283000Y-109569246D01*
X68283000Y-109609246D02*
X62300000Y-109609246D01*
X68283000Y-109649246D02*
X62317000Y-109649246D01*
X68283000Y-109689246D02*
X62335000Y-109689246D01*
X68283000Y-109729246D02*
X62353000Y-109729246D01*
X68283000Y-109769246D02*
X62371000Y-109769246D01*
X68283000Y-109809246D02*
X62389000Y-109809246D01*
X68283000Y-109849246D02*
X62408000Y-109849246D01*
X68283000Y-109889246D02*
X62427000Y-109889246D01*
X68283000Y-109929246D02*
X62446000Y-109929246D01*
X68283000Y-109969246D02*
X62465000Y-109969246D01*
X68283000Y-110009246D02*
X62485000Y-110009246D01*
X68283000Y-110049246D02*
X62505000Y-110049246D01*
X68283000Y-110089246D02*
X62525000Y-110089246D01*
X68283000Y-110129246D02*
X62545000Y-110129246D01*
X68283000Y-110169246D02*
X62566000Y-110169246D01*
X68283000Y-110209246D02*
X62587000Y-110209246D01*
X68283000Y-110249246D02*
X62608000Y-110249246D01*
X68283000Y-110289246D02*
X62630000Y-110289246D01*
X68283000Y-110329246D02*
X62652000Y-110329246D01*
X68283000Y-110369246D02*
X62674000Y-110369246D01*
X68283000Y-110409246D02*
X62697000Y-110409246D01*
X68283000Y-110449246D02*
X62719000Y-110449246D01*
X68283000Y-110489246D02*
X62742000Y-110489246D01*
X68283000Y-110529246D02*
X62766000Y-110529246D01*
X68283000Y-110569246D02*
X62790000Y-110569246D01*
X68283000Y-110609246D02*
X62814000Y-110609246D01*
X68283000Y-110649246D02*
X62838000Y-110649246D01*
X68283000Y-110689246D02*
X62863000Y-110689246D01*
X68283000Y-110729246D02*
X62888000Y-110729246D01*
X68283000Y-110769246D02*
X62913000Y-110769246D01*
X68283000Y-110809246D02*
X62938000Y-110809246D01*
X68283000Y-110849246D02*
X62964000Y-110849246D01*
X68283000Y-110889246D02*
X62991000Y-110889246D01*
X68283000Y-110929246D02*
X63017000Y-110929246D01*
X68283000Y-110969246D02*
X63044000Y-110969246D01*
X68283000Y-111009246D02*
X63072000Y-111009246D01*
X68283000Y-111049246D02*
X63099000Y-111049246D01*
X68283000Y-111089246D02*
X63127000Y-111089246D01*
X68283000Y-111129246D02*
X63156000Y-111129246D01*
X68283000Y-111169246D02*
X63184000Y-111169246D01*
X68283000Y-111209246D02*
X63214000Y-111209246D01*
X68283000Y-111249246D02*
X63243000Y-111249246D01*
X68283000Y-111289246D02*
X63273000Y-111289246D01*
X68283000Y-111329246D02*
X63303000Y-111329246D01*
X68283000Y-111369246D02*
X63334000Y-111369246D01*
X68283000Y-111409246D02*
X63365000Y-111409246D01*
X68283000Y-111449246D02*
X63396000Y-111449246D01*
X68283000Y-111489246D02*
X63428000Y-111489246D01*
X68283000Y-111529246D02*
X63461000Y-111529246D01*
X68283000Y-111569246D02*
X63493000Y-111569246D01*
X70488000Y-114489246D02*
X68958000Y-114489246D01*
X70820000Y-114449246D02*
X68626000Y-114449246D01*
X71074000Y-114409246D02*
X68372000Y-114409246D01*
X71287000Y-114369246D02*
X68159000Y-114369246D01*
X71474000Y-114329246D02*
X67972000Y-114329246D01*
X71643000Y-114289246D02*
X67803000Y-114289246D01*
X71797000Y-114249246D02*
X67649000Y-114249246D01*
X71940000Y-114209246D02*
X67506000Y-114209246D01*
X72074000Y-114169246D02*
X67372000Y-114169246D01*
X72200000Y-114129246D02*
X67246000Y-114129246D01*
X72320000Y-114089246D02*
X67126000Y-114089246D01*
X72433000Y-114049246D02*
X67013000Y-114049246D01*
X72542000Y-114009246D02*
X66904000Y-114009246D01*
X72646000Y-113969246D02*
X66800000Y-113969246D01*
X72746000Y-113929246D02*
X66700000Y-113929246D01*
X72843000Y-113889246D02*
X66603000Y-113889246D01*
X72936000Y-113849246D02*
X66510000Y-113849246D01*
X73026000Y-113809246D02*
X66420000Y-113809246D01*
X73113000Y-113769246D02*
X66333000Y-113769246D01*
X73198000Y-113729246D02*
X66248000Y-113729246D01*
X73280000Y-113689246D02*
X66166000Y-113689246D01*
X73360000Y-113649246D02*
X66086000Y-113649246D01*
X73437000Y-113609246D02*
X66009000Y-113609246D01*
X73513000Y-113569246D02*
X65933000Y-113569246D01*
X73587000Y-113529246D02*
X65859000Y-113529246D01*
X73659000Y-113489246D02*
X65787000Y-113489246D01*
X73729000Y-113449246D02*
X65717000Y-113449246D01*
X73798000Y-113409246D02*
X65648000Y-113409246D01*
X73865000Y-113369246D02*
X65581000Y-113369246D01*
X73931000Y-113329246D02*
X65515000Y-113329246D01*
X73996000Y-113289246D02*
X65450000Y-113289246D01*
X74059000Y-113249246D02*
X65387000Y-113249246D01*
X74121000Y-113209246D02*
X65325000Y-113209246D01*
X74182000Y-113169246D02*
X65264000Y-113169246D01*
X74241000Y-113129246D02*
X65205000Y-113129246D01*
X74278000Y-97719755D02*
X74278000Y-99319755D01*
X74299000Y-113089246D02*
X65147000Y-113089246D01*
X74357000Y-113049246D02*
X65089000Y-113049246D01*
X74413000Y-113009246D02*
X65033000Y-113009246D01*
X74468000Y-112969246D02*
X64978000Y-112969246D01*
X74523000Y-112929246D02*
X64923000Y-112929246D01*
X74576000Y-112889246D02*
X64870000Y-112889246D01*
X74629000Y-112849246D02*
X64817000Y-112849246D01*
X74680000Y-112809246D02*
X64766000Y-112809246D01*
X74731000Y-112769246D02*
X64715000Y-112769246D01*
X74781000Y-112729246D02*
X64665000Y-112729246D01*
X74830000Y-112689246D02*
X64616000Y-112689246D01*
X74879000Y-112649246D02*
X64567000Y-112649246D01*
X74927000Y-112609246D02*
X64519000Y-112609246D01*
X74973000Y-112569246D02*
X64473000Y-112569246D01*
X75020000Y-112529246D02*
X64426000Y-112529246D01*
X75065000Y-112489246D02*
X64381000Y-112489246D01*
X75078000Y-98519755D02*
X73478000Y-98519755D01*
X75110000Y-112449246D02*
X64336000Y-112449246D01*
X75154000Y-112409246D02*
X64292000Y-112409246D01*
X75198000Y-112369246D02*
X64248000Y-112369246D01*
X75241000Y-112329246D02*
X64205000Y-112329246D01*
X75283000Y-112289246D02*
X64163000Y-112289246D01*
X75325000Y-112249246D02*
X64121000Y-112249246D01*
X75366000Y-112209246D02*
X64080000Y-112209246D01*
X75406000Y-112169246D02*
X64040000Y-112169246D01*
X75446000Y-112129246D02*
X64000000Y-112129246D01*
X75486000Y-112089246D02*
X63960000Y-112089246D01*
X75525000Y-112049246D02*
X63921000Y-112049246D01*
X75563000Y-112009246D02*
X63883000Y-112009246D01*
X75601000Y-111969246D02*
X63845000Y-111969246D01*
X75638000Y-111929246D02*
X63808000Y-111929246D01*
X75675000Y-111889246D02*
X63771000Y-111889246D01*
X75711000Y-111849246D02*
X63735000Y-111849246D01*
X75747000Y-111809246D02*
X63699000Y-111809246D01*
X75783000Y-111769246D02*
X63663000Y-111769246D01*
X75817000Y-111729246D02*
X63629000Y-111729246D01*
X75852000Y-111689246D02*
X63594000Y-111689246D01*
X75886000Y-111649246D02*
X63560000Y-111649246D01*
X75920000Y-111609246D02*
X63526000Y-111609246D01*
X75953000Y-111569246D02*
X71163000Y-111569246D01*
X75985000Y-111529246D02*
X71163000Y-111529246D01*
X76018000Y-111489246D02*
X71163000Y-111489246D01*
X76050000Y-111449246D02*
X71163000Y-111449246D01*
X76081000Y-111409246D02*
X71163000Y-111409246D01*
X76112000Y-111369246D02*
X71163000Y-111369246D01*
X76143000Y-111329246D02*
X71163000Y-111329246D01*
X76173000Y-111289246D02*
X71163000Y-111289246D01*
X76203000Y-111249246D02*
X71163000Y-111249246D01*
X76232000Y-111209246D02*
X71163000Y-111209246D01*
X76262000Y-111169246D02*
X71163000Y-111169246D01*
X76290000Y-111129246D02*
X71163000Y-111129246D01*
X76319000Y-111089246D02*
X71163000Y-111089246D01*
X76347000Y-111049246D02*
X71163000Y-111049246D01*
X76374000Y-111009246D02*
X71163000Y-111009246D01*
X76402000Y-110969246D02*
X71163000Y-110969246D01*
X76429000Y-110929246D02*
X71163000Y-110929246D01*
X76455000Y-110889246D02*
X71163000Y-110889246D01*
X76482000Y-110849246D02*
X71163000Y-110849246D01*
X76508000Y-110809246D02*
X71163000Y-110809246D01*
X76533000Y-110769246D02*
X71163000Y-110769246D01*
X76558000Y-110729246D02*
X71163000Y-110729246D01*
X76583000Y-110689246D02*
X71163000Y-110689246D01*
X76608000Y-110649246D02*
X71163000Y-110649246D01*
X76632000Y-110609246D02*
X71163000Y-110609246D01*
X76656000Y-110569246D02*
X71163000Y-110569246D01*
X76680000Y-110529246D02*
X71163000Y-110529246D01*
X76704000Y-110489246D02*
X71163000Y-110489246D01*
X76727000Y-110449246D02*
X71163000Y-110449246D01*
X76749000Y-110409246D02*
X71163000Y-110409246D01*
X76772000Y-110369246D02*
X71163000Y-110369246D01*
X76794000Y-110329246D02*
X71163000Y-110329246D01*
X76816000Y-110289246D02*
X71163000Y-110289246D01*
X76838000Y-110249246D02*
X71163000Y-110249246D01*
X76859000Y-110209246D02*
X71163000Y-110209246D01*
X76880000Y-110169246D02*
X71163000Y-110169246D01*
X76901000Y-110129246D02*
X71163000Y-110129246D01*
X76921000Y-110089246D02*
X71163000Y-110089246D01*
X76941000Y-110049246D02*
X71163000Y-110049246D01*
X76961000Y-110009246D02*
X71163000Y-110009246D01*
X76981000Y-109969246D02*
X71163000Y-109969246D01*
X77000000Y-109929246D02*
X71163000Y-109929246D01*
X77019000Y-109889246D02*
X71163000Y-109889246D01*
X77038000Y-109849246D02*
X71163000Y-109849246D01*
X77057000Y-109809246D02*
X71163000Y-109809246D01*
X77075000Y-109769246D02*
X71163000Y-109769246D01*
X77093000Y-109729246D02*
X71163000Y-109729246D01*
X77111000Y-109689246D02*
X71163000Y-109689246D01*
X77129000Y-109649246D02*
X71163000Y-109649246D01*
X77146000Y-109609246D02*
X71163000Y-109609246D01*
X77163000Y-109569246D02*
X71163000Y-109569246D01*
X77180000Y-109529246D02*
X71163000Y-109529246D01*
X77196000Y-109489246D02*
X71163000Y-109489246D01*
X77212000Y-109449246D02*
X71163000Y-109449246D01*
X77228000Y-109409246D02*
X71163000Y-109409246D01*
X77244000Y-109369246D02*
X71163000Y-109369246D01*
X77260000Y-109329246D02*
X71163000Y-109329246D01*
X77275000Y-109289246D02*
X71163000Y-109289246D01*
X77290000Y-109249246D02*
X71163000Y-109249246D01*
X77305000Y-109209246D02*
X71163000Y-109209246D01*
X77320000Y-109169246D02*
X71163000Y-109169246D01*
X77334000Y-109129246D02*
X71163000Y-109129246D01*
X77348000Y-109089246D02*
X71163000Y-109089246D01*
X77362000Y-109049246D02*
X71163000Y-109049246D01*
X77375000Y-109009246D02*
X71163000Y-109009246D01*
X77389000Y-108969246D02*
X71163000Y-108969246D01*
X77402000Y-108929246D02*
X71163000Y-108929246D01*
X77415000Y-108889246D02*
X71163000Y-108889246D01*
X77428000Y-108849246D02*
X71163000Y-108849246D01*
X77440000Y-108809246D02*
X71163000Y-108809246D01*
X77452000Y-108769246D02*
X71163000Y-108769246D01*
X77465000Y-108729246D02*
X71163000Y-108729246D01*
X77476000Y-108689246D02*
X61970000Y-108689246D01*
X77488000Y-108649246D02*
X61958000Y-108649246D01*
X77499000Y-108609246D02*
X61947000Y-108609246D01*
X77510000Y-108569246D02*
X61936000Y-108569246D01*
X77521000Y-108529246D02*
X61925000Y-108529246D01*
X77532000Y-108489246D02*
X61914000Y-108489246D01*
X77543000Y-108449246D02*
X61903000Y-108449246D01*
X77553000Y-108409246D02*
X61893000Y-108409246D01*
X77563000Y-108369246D02*
X61883000Y-108369246D01*
X77573000Y-108329246D02*
X61873000Y-108329246D01*
X77582000Y-108289246D02*
X61864000Y-108289246D01*
X77592000Y-108249246D02*
X61854000Y-108249246D01*
X77601000Y-108209246D02*
X61845000Y-108209246D01*
X77610000Y-108169246D02*
X61836000Y-108169246D01*
X77619000Y-108129246D02*
X61827000Y-108129246D01*
X77627000Y-108089246D02*
X61819000Y-108089246D01*
X77636000Y-108049246D02*
X61810000Y-108049246D01*
X77644000Y-108009246D02*
X61802000Y-108009246D01*
X77652000Y-107969246D02*
X61794000Y-107969246D01*
X77659000Y-107929246D02*
X61787000Y-107929246D01*
X77667000Y-107889246D02*
X61779000Y-107889246D01*
X77674000Y-107849246D02*
X61772000Y-107849246D01*
X77681000Y-107809246D02*
X61765000Y-107809246D01*
X77688000Y-107769246D02*
X61758000Y-107769246D01*
X77695000Y-107729246D02*
X61751000Y-107729246D01*
X77701000Y-107689246D02*
X61745000Y-107689246D01*
X77708000Y-107649246D02*
X61738000Y-107649246D01*
X77714000Y-107609246D02*
X61732000Y-107609246D01*
X77720000Y-107569246D02*
X61726000Y-107569246D01*
X77725000Y-107529246D02*
X61721000Y-107529246D01*
X77731000Y-107489246D02*
X61715000Y-107489246D01*
X77736000Y-107449246D02*
X61710000Y-107449246D01*
X77741000Y-107409246D02*
X61705000Y-107409246D01*
X77746000Y-107369246D02*
X61700000Y-107369246D01*
X77751000Y-107329246D02*
X61695000Y-107329246D01*
X77755000Y-107289246D02*
X61691000Y-107289246D01*
X77759000Y-107249246D02*
X61687000Y-107249246D01*
X77763000Y-107209246D02*
X61683000Y-107209246D01*
X77767000Y-107169246D02*
X61679000Y-107169246D01*
X77771000Y-107129246D02*
X61675000Y-107129246D01*
X77774000Y-107089246D02*
X61672000Y-107089246D01*
X77778000Y-107049246D02*
X61668000Y-107049246D01*
X77781000Y-107009246D02*
X61665000Y-107009246D01*
X77784000Y-106969246D02*
X61662000Y-106969246D01*
X77786000Y-106929246D02*
X61660000Y-106929246D01*
X77789000Y-106889246D02*
X61657000Y-106889246D01*
X77791000Y-106849246D02*
X61655000Y-106849246D01*
X77793000Y-106809246D02*
X61653000Y-106809246D01*
X77795000Y-106769246D02*
X61651000Y-106769246D01*
X77797000Y-106729246D02*
X61649000Y-106729246D01*
X77798000Y-106689246D02*
X61648000Y-106689246D01*
X77799000Y-106649246D02*
X61647000Y-106649246D01*
X77801000Y-106569246D02*
X61645000Y-106569246D01*
X77801000Y-106609246D02*
X61645000Y-106609246D01*
X77802000Y-106529246D02*
X61644000Y-106529246D01*
X77803000Y-106409246D02*
X61643000Y-106409246D01*
X77803000Y-106449246D02*
X61643000Y-106449246D01*
X77803000Y-106489246D02*
X61643000Y-106489246D01*
X77843000Y-106409246D02*
G75*
G02*
X61603000Y-106409246I-8120000J0D01*
G01*
X61603000Y-106409246D02*
G75*
G02*
X77843000Y-106409246I8120000J0D01*
G01*
%TO.C,R32*%
X99555724Y-111916746D02*
X99046276Y-111916746D01*
X99555724Y-112961746D02*
X99046276Y-112961746D01*
%TO.C,R24*%
X70711500Y-90699470D02*
X70711500Y-90190022D01*
X71756500Y-90699470D02*
X71756500Y-90190022D01*
%TO.C,C4*%
X84399000Y-112423492D02*
X78097000Y-112423492D01*
X84399000Y-112463492D02*
X78110000Y-112463492D01*
X84399000Y-112503492D02*
X78122000Y-112503492D01*
X84399000Y-112543492D02*
X78134000Y-112543492D01*
X84399000Y-112583492D02*
X78147000Y-112583492D01*
X84399000Y-112623492D02*
X78160000Y-112623492D01*
X84399000Y-112663492D02*
X78173000Y-112663492D01*
X84399000Y-112703492D02*
X78187000Y-112703492D01*
X84399000Y-112743492D02*
X78200000Y-112743492D01*
X84399000Y-112783492D02*
X78214000Y-112783492D01*
X84399000Y-112823492D02*
X78228000Y-112823492D01*
X84399000Y-112863492D02*
X78242000Y-112863492D01*
X84399000Y-112903492D02*
X78257000Y-112903492D01*
X84399000Y-112943492D02*
X78272000Y-112943492D01*
X84399000Y-112983492D02*
X78287000Y-112983492D01*
X84399000Y-113023492D02*
X78302000Y-113023492D01*
X84399000Y-113063492D02*
X78318000Y-113063492D01*
X84399000Y-113103492D02*
X78334000Y-113103492D01*
X84399000Y-113143492D02*
X78350000Y-113143492D01*
X84399000Y-113183492D02*
X78366000Y-113183492D01*
X84399000Y-113223492D02*
X78382000Y-113223492D01*
X84399000Y-113263492D02*
X78399000Y-113263492D01*
X84399000Y-113303492D02*
X78416000Y-113303492D01*
X84399000Y-113343492D02*
X78433000Y-113343492D01*
X84399000Y-113383492D02*
X78451000Y-113383492D01*
X84399000Y-113423492D02*
X78469000Y-113423492D01*
X84399000Y-113463492D02*
X78487000Y-113463492D01*
X84399000Y-113503492D02*
X78505000Y-113503492D01*
X84399000Y-113543492D02*
X78524000Y-113543492D01*
X84399000Y-113583492D02*
X78543000Y-113583492D01*
X84399000Y-113623492D02*
X78562000Y-113623492D01*
X84399000Y-113663492D02*
X78581000Y-113663492D01*
X84399000Y-113703492D02*
X78601000Y-113703492D01*
X84399000Y-113743492D02*
X78621000Y-113743492D01*
X84399000Y-113783492D02*
X78641000Y-113783492D01*
X84399000Y-113823492D02*
X78661000Y-113823492D01*
X84399000Y-113863492D02*
X78682000Y-113863492D01*
X84399000Y-113903492D02*
X78703000Y-113903492D01*
X84399000Y-113943492D02*
X78724000Y-113943492D01*
X84399000Y-113983492D02*
X78746000Y-113983492D01*
X84399000Y-114023492D02*
X78768000Y-114023492D01*
X84399000Y-114063492D02*
X78790000Y-114063492D01*
X84399000Y-114103492D02*
X78813000Y-114103492D01*
X84399000Y-114143492D02*
X78835000Y-114143492D01*
X84399000Y-114183492D02*
X78858000Y-114183492D01*
X84399000Y-114223492D02*
X78882000Y-114223492D01*
X84399000Y-114263492D02*
X78906000Y-114263492D01*
X84399000Y-114303492D02*
X78930000Y-114303492D01*
X84399000Y-114343492D02*
X78954000Y-114343492D01*
X84399000Y-114383492D02*
X78979000Y-114383492D01*
X84399000Y-114423492D02*
X79004000Y-114423492D01*
X84399000Y-114463492D02*
X79029000Y-114463492D01*
X84399000Y-114503492D02*
X79054000Y-114503492D01*
X84399000Y-114543492D02*
X79080000Y-114543492D01*
X84399000Y-114583492D02*
X79107000Y-114583492D01*
X84399000Y-114623492D02*
X79133000Y-114623492D01*
X84399000Y-114663492D02*
X79160000Y-114663492D01*
X84399000Y-114703492D02*
X79188000Y-114703492D01*
X84399000Y-114743492D02*
X79215000Y-114743492D01*
X84399000Y-114783492D02*
X79243000Y-114783492D01*
X84399000Y-114823492D02*
X79272000Y-114823492D01*
X84399000Y-114863492D02*
X79300000Y-114863492D01*
X84399000Y-114903492D02*
X79330000Y-114903492D01*
X84399000Y-114943492D02*
X79359000Y-114943492D01*
X84399000Y-114983492D02*
X79389000Y-114983492D01*
X84399000Y-115023492D02*
X79419000Y-115023492D01*
X84399000Y-115063492D02*
X79450000Y-115063492D01*
X84399000Y-115103492D02*
X79481000Y-115103492D01*
X84399000Y-115143492D02*
X79512000Y-115143492D01*
X84399000Y-115183492D02*
X79544000Y-115183492D01*
X84399000Y-115223492D02*
X79577000Y-115223492D01*
X84399000Y-115263492D02*
X79609000Y-115263492D01*
X86604000Y-118183492D02*
X85074000Y-118183492D01*
X86936000Y-118143492D02*
X84742000Y-118143492D01*
X87190000Y-118103492D02*
X84488000Y-118103492D01*
X87403000Y-118063492D02*
X84275000Y-118063492D01*
X87590000Y-118023492D02*
X84088000Y-118023492D01*
X87759000Y-117983492D02*
X83919000Y-117983492D01*
X87913000Y-117943492D02*
X83765000Y-117943492D01*
X88056000Y-117903492D02*
X83622000Y-117903492D01*
X88190000Y-117863492D02*
X83488000Y-117863492D01*
X88316000Y-117823492D02*
X83362000Y-117823492D01*
X88436000Y-117783492D02*
X83242000Y-117783492D01*
X88549000Y-117743492D02*
X83129000Y-117743492D01*
X88658000Y-117703492D02*
X83020000Y-117703492D01*
X88762000Y-117663492D02*
X82916000Y-117663492D01*
X88862000Y-117623492D02*
X82816000Y-117623492D01*
X88959000Y-117583492D02*
X82719000Y-117583492D01*
X89052000Y-117543492D02*
X82626000Y-117543492D01*
X89142000Y-117503492D02*
X82536000Y-117503492D01*
X89229000Y-117463492D02*
X82449000Y-117463492D01*
X89314000Y-117423492D02*
X82364000Y-117423492D01*
X89396000Y-117383492D02*
X82282000Y-117383492D01*
X89476000Y-117343492D02*
X82202000Y-117343492D01*
X89553000Y-117303492D02*
X82125000Y-117303492D01*
X89629000Y-117263492D02*
X82049000Y-117263492D01*
X89703000Y-117223492D02*
X81975000Y-117223492D01*
X89775000Y-117183492D02*
X81903000Y-117183492D01*
X89845000Y-117143492D02*
X81833000Y-117143492D01*
X89914000Y-117103492D02*
X81764000Y-117103492D01*
X89981000Y-117063492D02*
X81697000Y-117063492D01*
X90047000Y-117023492D02*
X81631000Y-117023492D01*
X90112000Y-116983492D02*
X81566000Y-116983492D01*
X90175000Y-116943492D02*
X81503000Y-116943492D01*
X90237000Y-116903492D02*
X81441000Y-116903492D01*
X90298000Y-116863492D02*
X81380000Y-116863492D01*
X90357000Y-116823492D02*
X81321000Y-116823492D01*
X90394000Y-101414001D02*
X90394000Y-103014001D01*
X90415000Y-116783492D02*
X81263000Y-116783492D01*
X90473000Y-116743492D02*
X81205000Y-116743492D01*
X90529000Y-116703492D02*
X81149000Y-116703492D01*
X90584000Y-116663492D02*
X81094000Y-116663492D01*
X90639000Y-116623492D02*
X81039000Y-116623492D01*
X90692000Y-116583492D02*
X80986000Y-116583492D01*
X90745000Y-116543492D02*
X80933000Y-116543492D01*
X90796000Y-116503492D02*
X80882000Y-116503492D01*
X90847000Y-116463492D02*
X80831000Y-116463492D01*
X90897000Y-116423492D02*
X80781000Y-116423492D01*
X90946000Y-116383492D02*
X80732000Y-116383492D01*
X90995000Y-116343492D02*
X80683000Y-116343492D01*
X91043000Y-116303492D02*
X80635000Y-116303492D01*
X91089000Y-116263492D02*
X80589000Y-116263492D01*
X91136000Y-116223492D02*
X80542000Y-116223492D01*
X91181000Y-116183492D02*
X80497000Y-116183492D01*
X91194000Y-102214001D02*
X89594000Y-102214001D01*
X91226000Y-116143492D02*
X80452000Y-116143492D01*
X91270000Y-116103492D02*
X80408000Y-116103492D01*
X91314000Y-116063492D02*
X80364000Y-116063492D01*
X91357000Y-116023492D02*
X80321000Y-116023492D01*
X91399000Y-115983492D02*
X80279000Y-115983492D01*
X91441000Y-115943492D02*
X80237000Y-115943492D01*
X91482000Y-115903492D02*
X80196000Y-115903492D01*
X91522000Y-115863492D02*
X80156000Y-115863492D01*
X91562000Y-115823492D02*
X80116000Y-115823492D01*
X91602000Y-115783492D02*
X80076000Y-115783492D01*
X91641000Y-115743492D02*
X80037000Y-115743492D01*
X91679000Y-115703492D02*
X79999000Y-115703492D01*
X91717000Y-115663492D02*
X79961000Y-115663492D01*
X91754000Y-115623492D02*
X79924000Y-115623492D01*
X91791000Y-115583492D02*
X79887000Y-115583492D01*
X91827000Y-115543492D02*
X79851000Y-115543492D01*
X91863000Y-115503492D02*
X79815000Y-115503492D01*
X91899000Y-115463492D02*
X79779000Y-115463492D01*
X91933000Y-115423492D02*
X79745000Y-115423492D01*
X91968000Y-115383492D02*
X79710000Y-115383492D01*
X92002000Y-115343492D02*
X79676000Y-115343492D01*
X92036000Y-115303492D02*
X79642000Y-115303492D01*
X92069000Y-115263492D02*
X87279000Y-115263492D01*
X92101000Y-115223492D02*
X87279000Y-115223492D01*
X92134000Y-115183492D02*
X87279000Y-115183492D01*
X92166000Y-115143492D02*
X87279000Y-115143492D01*
X92197000Y-115103492D02*
X87279000Y-115103492D01*
X92228000Y-115063492D02*
X87279000Y-115063492D01*
X92259000Y-115023492D02*
X87279000Y-115023492D01*
X92289000Y-114983492D02*
X87279000Y-114983492D01*
X92319000Y-114943492D02*
X87279000Y-114943492D01*
X92348000Y-114903492D02*
X87279000Y-114903492D01*
X92378000Y-114863492D02*
X87279000Y-114863492D01*
X92406000Y-114823492D02*
X87279000Y-114823492D01*
X92435000Y-114783492D02*
X87279000Y-114783492D01*
X92463000Y-114743492D02*
X87279000Y-114743492D01*
X92490000Y-114703492D02*
X87279000Y-114703492D01*
X92518000Y-114663492D02*
X87279000Y-114663492D01*
X92545000Y-114623492D02*
X87279000Y-114623492D01*
X92571000Y-114583492D02*
X87279000Y-114583492D01*
X92598000Y-114543492D02*
X87279000Y-114543492D01*
X92624000Y-114503492D02*
X87279000Y-114503492D01*
X92649000Y-114463492D02*
X87279000Y-114463492D01*
X92674000Y-114423492D02*
X87279000Y-114423492D01*
X92699000Y-114383492D02*
X87279000Y-114383492D01*
X92724000Y-114343492D02*
X87279000Y-114343492D01*
X92748000Y-114303492D02*
X87279000Y-114303492D01*
X92772000Y-114263492D02*
X87279000Y-114263492D01*
X92796000Y-114223492D02*
X87279000Y-114223492D01*
X92820000Y-114183492D02*
X87279000Y-114183492D01*
X92843000Y-114143492D02*
X87279000Y-114143492D01*
X92865000Y-114103492D02*
X87279000Y-114103492D01*
X92888000Y-114063492D02*
X87279000Y-114063492D01*
X92910000Y-114023492D02*
X87279000Y-114023492D01*
X92932000Y-113983492D02*
X87279000Y-113983492D01*
X92954000Y-113943492D02*
X87279000Y-113943492D01*
X92975000Y-113903492D02*
X87279000Y-113903492D01*
X92996000Y-113863492D02*
X87279000Y-113863492D01*
X93017000Y-113823492D02*
X87279000Y-113823492D01*
X93037000Y-113783492D02*
X87279000Y-113783492D01*
X93057000Y-113743492D02*
X87279000Y-113743492D01*
X93077000Y-113703492D02*
X87279000Y-113703492D01*
X93097000Y-113663492D02*
X87279000Y-113663492D01*
X93116000Y-113623492D02*
X87279000Y-113623492D01*
X93135000Y-113583492D02*
X87279000Y-113583492D01*
X93154000Y-113543492D02*
X87279000Y-113543492D01*
X93173000Y-113503492D02*
X87279000Y-113503492D01*
X93191000Y-113463492D02*
X87279000Y-113463492D01*
X93209000Y-113423492D02*
X87279000Y-113423492D01*
X93227000Y-113383492D02*
X87279000Y-113383492D01*
X93245000Y-113343492D02*
X87279000Y-113343492D01*
X93262000Y-113303492D02*
X87279000Y-113303492D01*
X93279000Y-113263492D02*
X87279000Y-113263492D01*
X93296000Y-113223492D02*
X87279000Y-113223492D01*
X93312000Y-113183492D02*
X87279000Y-113183492D01*
X93328000Y-113143492D02*
X87279000Y-113143492D01*
X93344000Y-113103492D02*
X87279000Y-113103492D01*
X93360000Y-113063492D02*
X87279000Y-113063492D01*
X93376000Y-113023492D02*
X87279000Y-113023492D01*
X93391000Y-112983492D02*
X87279000Y-112983492D01*
X93406000Y-112943492D02*
X87279000Y-112943492D01*
X93421000Y-112903492D02*
X87279000Y-112903492D01*
X93436000Y-112863492D02*
X87279000Y-112863492D01*
X93450000Y-112823492D02*
X87279000Y-112823492D01*
X93464000Y-112783492D02*
X87279000Y-112783492D01*
X93478000Y-112743492D02*
X87279000Y-112743492D01*
X93491000Y-112703492D02*
X87279000Y-112703492D01*
X93505000Y-112663492D02*
X87279000Y-112663492D01*
X93518000Y-112623492D02*
X87279000Y-112623492D01*
X93531000Y-112583492D02*
X87279000Y-112583492D01*
X93544000Y-112543492D02*
X87279000Y-112543492D01*
X93556000Y-112503492D02*
X87279000Y-112503492D01*
X93568000Y-112463492D02*
X87279000Y-112463492D01*
X93581000Y-112423492D02*
X87279000Y-112423492D01*
X93592000Y-112383492D02*
X78086000Y-112383492D01*
X93604000Y-112343492D02*
X78074000Y-112343492D01*
X93615000Y-112303492D02*
X78063000Y-112303492D01*
X93626000Y-112263492D02*
X78052000Y-112263492D01*
X93637000Y-112223492D02*
X78041000Y-112223492D01*
X93648000Y-112183492D02*
X78030000Y-112183492D01*
X93659000Y-112143492D02*
X78019000Y-112143492D01*
X93669000Y-112103492D02*
X78009000Y-112103492D01*
X93679000Y-112063492D02*
X77999000Y-112063492D01*
X93689000Y-112023492D02*
X77989000Y-112023492D01*
X93698000Y-111983492D02*
X77980000Y-111983492D01*
X93708000Y-111943492D02*
X77970000Y-111943492D01*
X93717000Y-111903492D02*
X77961000Y-111903492D01*
X93726000Y-111863492D02*
X77952000Y-111863492D01*
X93735000Y-111823492D02*
X77943000Y-111823492D01*
X93743000Y-111783492D02*
X77935000Y-111783492D01*
X93752000Y-111743492D02*
X77926000Y-111743492D01*
X93760000Y-111703492D02*
X77918000Y-111703492D01*
X93768000Y-111663492D02*
X77910000Y-111663492D01*
X93775000Y-111623492D02*
X77903000Y-111623492D01*
X93783000Y-111583492D02*
X77895000Y-111583492D01*
X93790000Y-111543492D02*
X77888000Y-111543492D01*
X93797000Y-111503492D02*
X77881000Y-111503492D01*
X93804000Y-111463492D02*
X77874000Y-111463492D01*
X93811000Y-111423492D02*
X77867000Y-111423492D01*
X93817000Y-111383492D02*
X77861000Y-111383492D01*
X93824000Y-111343492D02*
X77854000Y-111343492D01*
X93830000Y-111303492D02*
X77848000Y-111303492D01*
X93836000Y-111263492D02*
X77842000Y-111263492D01*
X93841000Y-111223492D02*
X77837000Y-111223492D01*
X93847000Y-111183492D02*
X77831000Y-111183492D01*
X93852000Y-111143492D02*
X77826000Y-111143492D01*
X93857000Y-111103492D02*
X77821000Y-111103492D01*
X93862000Y-111063492D02*
X77816000Y-111063492D01*
X93867000Y-111023492D02*
X77811000Y-111023492D01*
X93871000Y-110983492D02*
X77807000Y-110983492D01*
X93875000Y-110943492D02*
X77803000Y-110943492D01*
X93879000Y-110903492D02*
X77799000Y-110903492D01*
X93883000Y-110863492D02*
X77795000Y-110863492D01*
X93887000Y-110823492D02*
X77791000Y-110823492D01*
X93890000Y-110783492D02*
X77788000Y-110783492D01*
X93894000Y-110743492D02*
X77784000Y-110743492D01*
X93897000Y-110703492D02*
X77781000Y-110703492D01*
X93900000Y-110663492D02*
X77778000Y-110663492D01*
X93902000Y-110623492D02*
X77776000Y-110623492D01*
X93905000Y-110583492D02*
X77773000Y-110583492D01*
X93907000Y-110543492D02*
X77771000Y-110543492D01*
X93909000Y-110503492D02*
X77769000Y-110503492D01*
X93911000Y-110463492D02*
X77767000Y-110463492D01*
X93913000Y-110423492D02*
X77765000Y-110423492D01*
X93914000Y-110383492D02*
X77764000Y-110383492D01*
X93915000Y-110343492D02*
X77763000Y-110343492D01*
X93917000Y-110263492D02*
X77761000Y-110263492D01*
X93917000Y-110303492D02*
X77761000Y-110303492D01*
X93918000Y-110223492D02*
X77760000Y-110223492D01*
X93919000Y-110103492D02*
X77759000Y-110103492D01*
X93919000Y-110143492D02*
X77759000Y-110143492D01*
X93919000Y-110183492D02*
X77759000Y-110183492D01*
X93959000Y-110103492D02*
G75*
G02*
X77719000Y-110103492I-8120000J0D01*
G01*
X77719000Y-110103492D02*
G75*
G02*
X93959000Y-110103492I8120000J0D01*
G01*
%TO.C,TP5*%
X125194000Y-145299246D02*
G75*
G02*
X121794000Y-145299246I-1700000J0D01*
G01*
X121794000Y-145299246D02*
G75*
G02*
X125194000Y-145299246I1700000J0D01*
G01*
%TO.C,C5*%
X121103663Y-129793246D02*
X123303663Y-129793246D01*
X122203663Y-128693246D02*
X122203663Y-130893246D01*
X133003000Y-124948246D02*
X133003000Y-147108246D01*
X133043000Y-124948246D02*
X133043000Y-147108246D01*
X133083000Y-124948246D02*
X133083000Y-147108246D01*
X133123000Y-124949246D02*
X133123000Y-147107246D01*
X133163000Y-124949246D02*
X133163000Y-147107246D01*
X133203000Y-124950246D02*
X133203000Y-147106246D01*
X133243000Y-124951246D02*
X133243000Y-147105246D01*
X133283000Y-124952246D02*
X133283000Y-147104246D01*
X133323000Y-124953246D02*
X133323000Y-147103246D01*
X133363000Y-124954246D02*
X133363000Y-147102246D01*
X133403000Y-124955246D02*
X133403000Y-147101246D01*
X133443000Y-124957246D02*
X133443000Y-147099246D01*
X133483000Y-124958246D02*
X133483000Y-147098246D01*
X133523000Y-124960246D02*
X133523000Y-147096246D01*
X133563000Y-124962246D02*
X133563000Y-147094246D01*
X133603000Y-124964246D02*
X133603000Y-147092246D01*
X133643000Y-124966246D02*
X133643000Y-147090246D01*
X133683000Y-124969246D02*
X133683000Y-147087246D01*
X133723000Y-124971246D02*
X133723000Y-147085246D01*
X133763000Y-124974246D02*
X133763000Y-147082246D01*
X133803000Y-124977246D02*
X133803000Y-147079246D01*
X133843000Y-124980246D02*
X133843000Y-147076246D01*
X133883000Y-124983246D02*
X133883000Y-147073246D01*
X133923000Y-124986246D02*
X133923000Y-147070246D01*
X133963000Y-124990246D02*
X133963000Y-147066246D01*
X134003000Y-124993246D02*
X134003000Y-147063246D01*
X134043000Y-124997246D02*
X134043000Y-147059246D01*
X134083000Y-125001246D02*
X134083000Y-147055246D01*
X134123000Y-125005246D02*
X134123000Y-147051246D01*
X134163000Y-125009246D02*
X134163000Y-147047246D01*
X134203000Y-125013246D02*
X134203000Y-147043246D01*
X134243000Y-125017246D02*
X134243000Y-147039246D01*
X134283000Y-125022246D02*
X134283000Y-147034246D01*
X134323000Y-125027246D02*
X134323000Y-147029246D01*
X134363000Y-125031246D02*
X134363000Y-147025246D01*
X134403000Y-125036246D02*
X134403000Y-147020246D01*
X134443000Y-125042246D02*
X134443000Y-147014246D01*
X134483000Y-125047246D02*
X134483000Y-147009246D01*
X134523000Y-125052246D02*
X134523000Y-147004246D01*
X134563000Y-125058246D02*
X134563000Y-146998246D01*
X134603000Y-125064246D02*
X134603000Y-146992246D01*
X134643000Y-125070246D02*
X134643000Y-146986246D01*
X134683000Y-125076246D02*
X134683000Y-146980246D01*
X134723000Y-125082246D02*
X134723000Y-146974246D01*
X134763000Y-125088246D02*
X134763000Y-146968246D01*
X134803000Y-125095246D02*
X134803000Y-146961246D01*
X134843000Y-125101246D02*
X134843000Y-146955246D01*
X134883000Y-125108246D02*
X134883000Y-146948246D01*
X134923000Y-125115246D02*
X134923000Y-146941246D01*
X134963000Y-125122246D02*
X134963000Y-146934246D01*
X135003000Y-125129246D02*
X135003000Y-146927246D01*
X135043000Y-125137246D02*
X135043000Y-146919246D01*
X135083000Y-125144246D02*
X135083000Y-146912246D01*
X135123000Y-125152246D02*
X135123000Y-146904246D01*
X135163000Y-125160246D02*
X135163000Y-146896246D01*
X135203000Y-125168246D02*
X135203000Y-146888246D01*
X135243000Y-125176246D02*
X135243000Y-146880246D01*
X135283000Y-125184246D02*
X135283000Y-146872246D01*
X135323000Y-125193246D02*
X135323000Y-146863246D01*
X135363000Y-125201246D02*
X135363000Y-146855246D01*
X135403000Y-125210246D02*
X135403000Y-146846246D01*
X135443000Y-125219246D02*
X135443000Y-146837246D01*
X135483000Y-125228246D02*
X135483000Y-146828246D01*
X135523000Y-125237246D02*
X135523000Y-146819246D01*
X135563000Y-125247246D02*
X135563000Y-146809246D01*
X135603000Y-125256246D02*
X135603000Y-146800246D01*
X135643000Y-125266246D02*
X135643000Y-146790246D01*
X135683000Y-125276246D02*
X135683000Y-146780246D01*
X135723000Y-125286246D02*
X135723000Y-146770246D01*
X135763000Y-125296246D02*
X135763000Y-146760246D01*
X135803000Y-125306246D02*
X135803000Y-133788246D01*
X135803000Y-138268246D02*
X135803000Y-146750246D01*
X135843000Y-125317246D02*
X135843000Y-133788246D01*
X135843000Y-138268246D02*
X135843000Y-146739246D01*
X135883000Y-125327246D02*
X135883000Y-133788246D01*
X135883000Y-138268246D02*
X135883000Y-146729246D01*
X135923000Y-125338246D02*
X135923000Y-133788246D01*
X135923000Y-138268246D02*
X135923000Y-146718246D01*
X135963000Y-125349246D02*
X135963000Y-133788246D01*
X135963000Y-138268246D02*
X135963000Y-146707246D01*
X136003000Y-125360246D02*
X136003000Y-133788246D01*
X136003000Y-138268246D02*
X136003000Y-146696246D01*
X136043000Y-125372246D02*
X136043000Y-133788246D01*
X136043000Y-138268246D02*
X136043000Y-146684246D01*
X136083000Y-125383246D02*
X136083000Y-133788246D01*
X136083000Y-138268246D02*
X136083000Y-146673246D01*
X136123000Y-125395246D02*
X136123000Y-133788246D01*
X136123000Y-138268246D02*
X136123000Y-146661246D01*
X136163000Y-125406246D02*
X136163000Y-133788246D01*
X136163000Y-138268246D02*
X136163000Y-146650246D01*
X136203000Y-125418246D02*
X136203000Y-133788246D01*
X136203000Y-138268246D02*
X136203000Y-146638246D01*
X136243000Y-125430246D02*
X136243000Y-133788246D01*
X136243000Y-138268246D02*
X136243000Y-146626246D01*
X136283000Y-125443246D02*
X136283000Y-133788246D01*
X136283000Y-138268246D02*
X136283000Y-146613246D01*
X136323000Y-125455246D02*
X136323000Y-133788246D01*
X136323000Y-138268246D02*
X136323000Y-146601246D01*
X136363000Y-125468246D02*
X136363000Y-133788246D01*
X136363000Y-138268246D02*
X136363000Y-146588246D01*
X136403000Y-125481246D02*
X136403000Y-133788246D01*
X136403000Y-138268246D02*
X136403000Y-146575246D01*
X136443000Y-125493246D02*
X136443000Y-133788246D01*
X136443000Y-138268246D02*
X136443000Y-146563246D01*
X136483000Y-125507246D02*
X136483000Y-133788246D01*
X136483000Y-138268246D02*
X136483000Y-146549246D01*
X136523000Y-125520246D02*
X136523000Y-133788246D01*
X136523000Y-138268246D02*
X136523000Y-146536246D01*
X136563000Y-125533246D02*
X136563000Y-133788246D01*
X136563000Y-138268246D02*
X136563000Y-146523246D01*
X136603000Y-125547246D02*
X136603000Y-133788246D01*
X136603000Y-138268246D02*
X136603000Y-146509246D01*
X136643000Y-125561246D02*
X136643000Y-133788246D01*
X136643000Y-138268246D02*
X136643000Y-146495246D01*
X136683000Y-125575246D02*
X136683000Y-133788246D01*
X136683000Y-138268246D02*
X136683000Y-146481246D01*
X136723000Y-125589246D02*
X136723000Y-133788246D01*
X136723000Y-138268246D02*
X136723000Y-146467246D01*
X136763000Y-125603246D02*
X136763000Y-133788246D01*
X136763000Y-138268246D02*
X136763000Y-146453246D01*
X136803000Y-125617246D02*
X136803000Y-133788246D01*
X136803000Y-138268246D02*
X136803000Y-146439246D01*
X136843000Y-125632246D02*
X136843000Y-133788246D01*
X136843000Y-138268246D02*
X136843000Y-146424246D01*
X136883000Y-125647246D02*
X136883000Y-133788246D01*
X136883000Y-138268246D02*
X136883000Y-146409246D01*
X136923000Y-125662246D02*
X136923000Y-133788246D01*
X136923000Y-138268246D02*
X136923000Y-146394246D01*
X136963000Y-125677246D02*
X136963000Y-133788246D01*
X136963000Y-138268246D02*
X136963000Y-146379246D01*
X137003000Y-125692246D02*
X137003000Y-133788246D01*
X137003000Y-138268246D02*
X137003000Y-146364246D01*
X137043000Y-125708246D02*
X137043000Y-133788246D01*
X137043000Y-138268246D02*
X137043000Y-146348246D01*
X137083000Y-125724246D02*
X137083000Y-133788246D01*
X137083000Y-138268246D02*
X137083000Y-146332246D01*
X137123000Y-125739246D02*
X137123000Y-133788246D01*
X137123000Y-138268246D02*
X137123000Y-146317246D01*
X137163000Y-125755246D02*
X137163000Y-133788246D01*
X137163000Y-138268246D02*
X137163000Y-146301246D01*
X137203000Y-125772246D02*
X137203000Y-133788246D01*
X137203000Y-138268246D02*
X137203000Y-146284246D01*
X137243000Y-125788246D02*
X137243000Y-133788246D01*
X137243000Y-138268246D02*
X137243000Y-146268246D01*
X137283000Y-125805246D02*
X137283000Y-133788246D01*
X137283000Y-138268246D02*
X137283000Y-146251246D01*
X137323000Y-125821246D02*
X137323000Y-133788246D01*
X137323000Y-138268246D02*
X137323000Y-146235246D01*
X137363000Y-125838246D02*
X137363000Y-133788246D01*
X137363000Y-138268246D02*
X137363000Y-146218246D01*
X137403000Y-125856246D02*
X137403000Y-133788246D01*
X137403000Y-138268246D02*
X137403000Y-146200246D01*
X137443000Y-125873246D02*
X137443000Y-133788246D01*
X137443000Y-138268246D02*
X137443000Y-146183246D01*
X137483000Y-125890246D02*
X137483000Y-133788246D01*
X137483000Y-138268246D02*
X137483000Y-146166246D01*
X137523000Y-125908246D02*
X137523000Y-133788246D01*
X137523000Y-138268246D02*
X137523000Y-146148246D01*
X137563000Y-125926246D02*
X137563000Y-133788246D01*
X137563000Y-138268246D02*
X137563000Y-146130246D01*
X137603000Y-125944246D02*
X137603000Y-133788246D01*
X137603000Y-138268246D02*
X137603000Y-146112246D01*
X137643000Y-125962246D02*
X137643000Y-133788246D01*
X137643000Y-138268246D02*
X137643000Y-146094246D01*
X137683000Y-125981246D02*
X137683000Y-133788246D01*
X137683000Y-138268246D02*
X137683000Y-146075246D01*
X137723000Y-125999246D02*
X137723000Y-133788246D01*
X137723000Y-138268246D02*
X137723000Y-146057246D01*
X137763000Y-126018246D02*
X137763000Y-133788246D01*
X137763000Y-138268246D02*
X137763000Y-146038246D01*
X137803000Y-126037246D02*
X137803000Y-133788246D01*
X137803000Y-138268246D02*
X137803000Y-146019246D01*
X137843000Y-126057246D02*
X137843000Y-133788246D01*
X137843000Y-138268246D02*
X137843000Y-145999246D01*
X137883000Y-126076246D02*
X137883000Y-133788246D01*
X137883000Y-138268246D02*
X137883000Y-145980246D01*
X137923000Y-126096246D02*
X137923000Y-133788246D01*
X137923000Y-138268246D02*
X137923000Y-145960246D01*
X137963000Y-126115246D02*
X137963000Y-133788246D01*
X137963000Y-138268246D02*
X137963000Y-145941246D01*
X138003000Y-126136246D02*
X138003000Y-133788246D01*
X138003000Y-138268246D02*
X138003000Y-145920246D01*
X138043000Y-126156246D02*
X138043000Y-133788246D01*
X138043000Y-138268246D02*
X138043000Y-145900246D01*
X138083000Y-126176246D02*
X138083000Y-133788246D01*
X138083000Y-138268246D02*
X138083000Y-145880246D01*
X138123000Y-126197246D02*
X138123000Y-133788246D01*
X138123000Y-138268246D02*
X138123000Y-145859246D01*
X138163000Y-126218246D02*
X138163000Y-133788246D01*
X138163000Y-138268246D02*
X138163000Y-145838246D01*
X138203000Y-126239246D02*
X138203000Y-133788246D01*
X138203000Y-138268246D02*
X138203000Y-145817246D01*
X138243000Y-126260246D02*
X138243000Y-133788246D01*
X138243000Y-138268246D02*
X138243000Y-145796246D01*
X138283000Y-126281246D02*
X138283000Y-133788246D01*
X138283000Y-138268246D02*
X138283000Y-145775246D01*
X138323000Y-126303246D02*
X138323000Y-133788246D01*
X138323000Y-138268246D02*
X138323000Y-145753246D01*
X138363000Y-126325246D02*
X138363000Y-133788246D01*
X138363000Y-138268246D02*
X138363000Y-145731246D01*
X138403000Y-126347246D02*
X138403000Y-133788246D01*
X138403000Y-138268246D02*
X138403000Y-145709246D01*
X138443000Y-126370246D02*
X138443000Y-133788246D01*
X138443000Y-138268246D02*
X138443000Y-145686246D01*
X138483000Y-126392246D02*
X138483000Y-133788246D01*
X138483000Y-138268246D02*
X138483000Y-145664246D01*
X138523000Y-126415246D02*
X138523000Y-133788246D01*
X138523000Y-138268246D02*
X138523000Y-145641246D01*
X138563000Y-126438246D02*
X138563000Y-133788246D01*
X138563000Y-138268246D02*
X138563000Y-145618246D01*
X138603000Y-126461246D02*
X138603000Y-133788246D01*
X138603000Y-138268246D02*
X138603000Y-145595246D01*
X138643000Y-126484246D02*
X138643000Y-133788246D01*
X138643000Y-138268246D02*
X138643000Y-145572246D01*
X138683000Y-126508246D02*
X138683000Y-133788246D01*
X138683000Y-138268246D02*
X138683000Y-145548246D01*
X138723000Y-126532246D02*
X138723000Y-133788246D01*
X138723000Y-138268246D02*
X138723000Y-145524246D01*
X138763000Y-126556246D02*
X138763000Y-133788246D01*
X138763000Y-138268246D02*
X138763000Y-145500246D01*
X138803000Y-126580246D02*
X138803000Y-133788246D01*
X138803000Y-138268246D02*
X138803000Y-145476246D01*
X138843000Y-126605246D02*
X138843000Y-133788246D01*
X138843000Y-138268246D02*
X138843000Y-145451246D01*
X138883000Y-126630246D02*
X138883000Y-133788246D01*
X138883000Y-138268246D02*
X138883000Y-145426246D01*
X138923000Y-126655246D02*
X138923000Y-133788246D01*
X138923000Y-138268246D02*
X138923000Y-145401246D01*
X138963000Y-126680246D02*
X138963000Y-133788246D01*
X138963000Y-138268246D02*
X138963000Y-145376246D01*
X139003000Y-126706246D02*
X139003000Y-133788246D01*
X139003000Y-138268246D02*
X139003000Y-145350246D01*
X139043000Y-126731246D02*
X139043000Y-133788246D01*
X139043000Y-138268246D02*
X139043000Y-145325246D01*
X139083000Y-126757246D02*
X139083000Y-133788246D01*
X139083000Y-138268246D02*
X139083000Y-145299246D01*
X139123000Y-126784246D02*
X139123000Y-133788246D01*
X139123000Y-138268246D02*
X139123000Y-145272246D01*
X139163000Y-126810246D02*
X139163000Y-133788246D01*
X139163000Y-138268246D02*
X139163000Y-145246246D01*
X139203000Y-126837246D02*
X139203000Y-133788246D01*
X139203000Y-138268246D02*
X139203000Y-145219246D01*
X139243000Y-126864246D02*
X139243000Y-133788246D01*
X139243000Y-138268246D02*
X139243000Y-145192246D01*
X139283000Y-126891246D02*
X139283000Y-133788246D01*
X139283000Y-138268246D02*
X139283000Y-145165246D01*
X139323000Y-126919246D02*
X139323000Y-133788246D01*
X139323000Y-138268246D02*
X139323000Y-145137246D01*
X139363000Y-126946246D02*
X139363000Y-133788246D01*
X139363000Y-138268246D02*
X139363000Y-145110246D01*
X139403000Y-126974246D02*
X139403000Y-133788246D01*
X139403000Y-138268246D02*
X139403000Y-145082246D01*
X139443000Y-127003246D02*
X139443000Y-133788246D01*
X139443000Y-138268246D02*
X139443000Y-145053246D01*
X139483000Y-127031246D02*
X139483000Y-133788246D01*
X139483000Y-138268246D02*
X139483000Y-145025246D01*
X139523000Y-127060246D02*
X139523000Y-133788246D01*
X139523000Y-138268246D02*
X139523000Y-144996246D01*
X139563000Y-127089246D02*
X139563000Y-133788246D01*
X139563000Y-138268246D02*
X139563000Y-144967246D01*
X139603000Y-127118246D02*
X139603000Y-133788246D01*
X139603000Y-138268246D02*
X139603000Y-144938246D01*
X139643000Y-127148246D02*
X139643000Y-133788246D01*
X139643000Y-138268246D02*
X139643000Y-144908246D01*
X139683000Y-127178246D02*
X139683000Y-133788246D01*
X139683000Y-138268246D02*
X139683000Y-144878246D01*
X139723000Y-127208246D02*
X139723000Y-133788246D01*
X139723000Y-138268246D02*
X139723000Y-144848246D01*
X139763000Y-127239246D02*
X139763000Y-133788246D01*
X139763000Y-138268246D02*
X139763000Y-144817246D01*
X139803000Y-127269246D02*
X139803000Y-133788246D01*
X139803000Y-138268246D02*
X139803000Y-144787246D01*
X139843000Y-127301246D02*
X139843000Y-133788246D01*
X139843000Y-138268246D02*
X139843000Y-144755246D01*
X139883000Y-127332246D02*
X139883000Y-133788246D01*
X139883000Y-138268246D02*
X139883000Y-144724246D01*
X139923000Y-127364246D02*
X139923000Y-133788246D01*
X139923000Y-138268246D02*
X139923000Y-144692246D01*
X139963000Y-127395246D02*
X139963000Y-133788246D01*
X139963000Y-138268246D02*
X139963000Y-144661246D01*
X140003000Y-127428246D02*
X140003000Y-133788246D01*
X140003000Y-138268246D02*
X140003000Y-144628246D01*
X140043000Y-127460246D02*
X140043000Y-133788246D01*
X140043000Y-138268246D02*
X140043000Y-144596246D01*
X140083000Y-127493246D02*
X140083000Y-133788246D01*
X140083000Y-138268246D02*
X140083000Y-144563246D01*
X140123000Y-127526246D02*
X140123000Y-133788246D01*
X140123000Y-138268246D02*
X140123000Y-144530246D01*
X140163000Y-127560246D02*
X140163000Y-133788246D01*
X140163000Y-138268246D02*
X140163000Y-144496246D01*
X140203000Y-127594246D02*
X140203000Y-133788246D01*
X140203000Y-138268246D02*
X140203000Y-144462246D01*
X140243000Y-127628246D02*
X140243000Y-144428246D01*
X140283000Y-127662246D02*
X140283000Y-144394246D01*
X140323000Y-127697246D02*
X140323000Y-144359246D01*
X140363000Y-127732246D02*
X140363000Y-144324246D01*
X140403000Y-127768246D02*
X140403000Y-144288246D01*
X140443000Y-127804246D02*
X140443000Y-144252246D01*
X140483000Y-127840246D02*
X140483000Y-144216246D01*
X140523000Y-127876246D02*
X140523000Y-144180246D01*
X140563000Y-127913246D02*
X140563000Y-144143246D01*
X140603000Y-127950246D02*
X140603000Y-144106246D01*
X140643000Y-127988246D02*
X140643000Y-144068246D01*
X140683000Y-128026246D02*
X140683000Y-144030246D01*
X140723000Y-128065246D02*
X140723000Y-143991246D01*
X140763000Y-128103246D02*
X140763000Y-143953246D01*
X140803000Y-128142246D02*
X140803000Y-143914246D01*
X140843000Y-128182246D02*
X140843000Y-143874246D01*
X140883000Y-128222246D02*
X140883000Y-143834246D01*
X140923000Y-128262246D02*
X140923000Y-143794246D01*
X140963000Y-128303246D02*
X140963000Y-143753246D01*
X141003000Y-128344246D02*
X141003000Y-143712246D01*
X141043000Y-128386246D02*
X141043000Y-143670246D01*
X141083000Y-128428246D02*
X141083000Y-143628246D01*
X141123000Y-128471246D02*
X141123000Y-143585246D01*
X141163000Y-128514246D02*
X141163000Y-143542246D01*
X141203000Y-128557246D02*
X141203000Y-143499246D01*
X141243000Y-128601246D02*
X141243000Y-143455246D01*
X141283000Y-128645246D02*
X141283000Y-143411246D01*
X141323000Y-128690246D02*
X141323000Y-143366246D01*
X141363000Y-128736246D02*
X141363000Y-143320246D01*
X141403000Y-128781246D02*
X141403000Y-143275246D01*
X141443000Y-128828246D02*
X141443000Y-143228246D01*
X141483000Y-128875246D02*
X141483000Y-143181246D01*
X141523000Y-128922246D02*
X141523000Y-143134246D01*
X141563000Y-128970246D02*
X141563000Y-143086246D01*
X141603000Y-129019246D02*
X141603000Y-143037246D01*
X141643000Y-129068246D02*
X141643000Y-142988246D01*
X141683000Y-129117246D02*
X141683000Y-142939246D01*
X141723000Y-129168246D02*
X141723000Y-142888246D01*
X141763000Y-129218246D02*
X141763000Y-142838246D01*
X141803000Y-129270246D02*
X141803000Y-142786246D01*
X141843000Y-129322246D02*
X141843000Y-142734246D01*
X141883000Y-129375246D02*
X141883000Y-142681246D01*
X141923000Y-129428246D02*
X141923000Y-142628246D01*
X141963000Y-129482246D02*
X141963000Y-142574246D01*
X142003000Y-129537246D02*
X142003000Y-142519246D01*
X142043000Y-129592246D02*
X142043000Y-142464246D01*
X142083000Y-129649246D02*
X142083000Y-142407246D01*
X142123000Y-129706246D02*
X142123000Y-142350246D01*
X142163000Y-129763246D02*
X142163000Y-142293246D01*
X142203000Y-129822246D02*
X142203000Y-142234246D01*
X142243000Y-129881246D02*
X142243000Y-142175246D01*
X142283000Y-129941246D02*
X142283000Y-142115246D01*
X142323000Y-130002246D02*
X142323000Y-142054246D01*
X142363000Y-130064246D02*
X142363000Y-141992246D01*
X142403000Y-130127246D02*
X142403000Y-141929246D01*
X142443000Y-130191246D02*
X142443000Y-141865246D01*
X142483000Y-130256246D02*
X142483000Y-141800246D01*
X142523000Y-130321246D02*
X142523000Y-141735246D01*
X142563000Y-130388246D02*
X142563000Y-141668246D01*
X142603000Y-130456246D02*
X142603000Y-141600246D01*
X142643000Y-130525246D02*
X142643000Y-141531246D01*
X142683000Y-130595246D02*
X142683000Y-141461246D01*
X142723000Y-130667246D02*
X142723000Y-141389246D01*
X142763000Y-130739246D02*
X142763000Y-141317246D01*
X142803000Y-130813246D02*
X142803000Y-141243246D01*
X142843000Y-130888246D02*
X142843000Y-141168246D01*
X142883000Y-130965246D02*
X142883000Y-141091246D01*
X142923000Y-131043246D02*
X142923000Y-141013246D01*
X142963000Y-131123246D02*
X142963000Y-140933246D01*
X143003000Y-131204246D02*
X143003000Y-140852246D01*
X143043000Y-131288246D02*
X143043000Y-140768246D01*
X143083000Y-131372246D02*
X143083000Y-140684246D01*
X143123000Y-131459246D02*
X143123000Y-140597246D01*
X143163000Y-131548246D02*
X143163000Y-140508246D01*
X143203000Y-131639246D02*
X143203000Y-140417246D01*
X143243000Y-131732246D02*
X143243000Y-140324246D01*
X143283000Y-131828246D02*
X143283000Y-140228246D01*
X143323000Y-131927246D02*
X143323000Y-140129246D01*
X143363000Y-132028246D02*
X143363000Y-140028246D01*
X143403000Y-132132246D02*
X143403000Y-139924246D01*
X143443000Y-132239246D02*
X143443000Y-139817246D01*
X143483000Y-132350246D02*
X143483000Y-139706246D01*
X143523000Y-132465246D02*
X143523000Y-139591246D01*
X143563000Y-132584246D02*
X143563000Y-139472246D01*
X143603000Y-132707246D02*
X143603000Y-139349246D01*
X143643000Y-132836246D02*
X143643000Y-139220246D01*
X143683000Y-132971246D02*
X143683000Y-139085246D01*
X143723000Y-133112246D02*
X143723000Y-138944246D01*
X143763000Y-133261246D02*
X143763000Y-138795246D01*
X143803000Y-133420246D02*
X143803000Y-138636246D01*
X143843000Y-133588246D02*
X143843000Y-138468246D01*
X143883000Y-133770246D02*
X143883000Y-138286246D01*
X143923000Y-133968246D02*
X143923000Y-138088246D01*
X143963000Y-134188246D02*
X143963000Y-137868246D01*
X144003000Y-134439246D02*
X144003000Y-137617246D01*
X144043000Y-134737246D02*
X144043000Y-137319246D01*
X144083000Y-135126246D02*
X144083000Y-136930246D01*
X144123000Y-136068246D02*
X144123000Y-135988246D01*
X144123000Y-136028246D02*
G75*
G02*
X121883000Y-136028246I-11120000J0D01*
G01*
X121883000Y-136028246D02*
G75*
G02*
X144123000Y-136028246I11120000J0D01*
G01*
%TO.C,R29*%
X110095276Y-133600746D02*
X110604724Y-133600746D01*
X110095276Y-134645746D02*
X110604724Y-134645746D01*
%TO.C,Q14*%
X72661000Y-62352746D02*
X72661000Y-61702746D01*
X72661000Y-62352746D02*
X72661000Y-63002746D01*
X75781000Y-62352746D02*
X75781000Y-61702746D01*
X75781000Y-62352746D02*
X75781000Y-63002746D01*
X72711000Y-63515246D02*
X72381000Y-63755246D01*
X72381000Y-63275246D01*
X72711000Y-63515246D01*
G36*
X72711000Y-63515246D02*
G01*
X72381000Y-63755246D01*
X72381000Y-63275246D01*
X72711000Y-63515246D01*
G37*
%TO.C,RV2*%
X96803000Y-136366246D02*
X96803000Y-131626246D01*
X97418000Y-136366246D02*
X96803000Y-136366246D01*
X98368000Y-131626246D02*
X96803000Y-131626246D01*
X99718000Y-136366246D02*
X99138000Y-136366246D01*
X102053000Y-131626246D02*
X100488000Y-131626246D01*
X102053000Y-136366246D02*
X101438000Y-136366246D01*
X102053000Y-136366246D02*
X102053000Y-131626246D01*
%TO.C,F1*%
D12*
X62661000Y-136345746D02*
X69011000Y-136345746D01*
X69011000Y-116025746D01*
X62661000Y-116025746D01*
X62661000Y-136345746D01*
D13*
%TO.C,R21*%
X77964276Y-66958746D02*
X78473724Y-66958746D01*
X77964276Y-68003746D02*
X78473724Y-68003746D01*
%TO.C,R40*%
X105419776Y-128647746D02*
X105929224Y-128647746D01*
X105419776Y-129692746D02*
X105929224Y-129692746D01*
%TO.C,TP6*%
X66711000Y-89579246D02*
G75*
G02*
X63311000Y-89579246I-1700000J0D01*
G01*
X63311000Y-89579246D02*
G75*
G02*
X66711000Y-89579246I1700000J0D01*
G01*
%TO.C,D6*%
X84009000Y-145018246D02*
X86469000Y-145018246D01*
X86469000Y-143548246D02*
X84009000Y-143548246D01*
X86469000Y-145018246D02*
X86469000Y-143548246D01*
%TO.C,Q23*%
X67068000Y-76957746D02*
X67068000Y-76307746D01*
X67068000Y-76957746D02*
X67068000Y-77607746D01*
X70188000Y-76957746D02*
X70188000Y-76307746D01*
X70188000Y-76957746D02*
X70188000Y-77607746D01*
X67118000Y-78120246D02*
X66788000Y-78360246D01*
X66788000Y-77880246D01*
X67118000Y-78120246D01*
G36*
X67118000Y-78120246D02*
G01*
X66788000Y-78360246D01*
X66788000Y-77880246D01*
X67118000Y-78120246D01*
G37*
D12*
%TO.C,Pwr+1*%
X72123000Y-141616246D02*
G75*
G02*
X62979000Y-141616246I-4572000J0D01*
G01*
X62979000Y-141616246D02*
G75*
G02*
X72123000Y-141616246I4572000J0D01*
G01*
D13*
%TO.C,RV1*%
X102899000Y-136366246D02*
X102899000Y-131626246D01*
X103514000Y-136366246D02*
X102899000Y-136366246D01*
X104464000Y-131626246D02*
X102899000Y-131626246D01*
X105814000Y-136366246D02*
X105234000Y-136366246D01*
X108149000Y-131626246D02*
X106584000Y-131626246D01*
X108149000Y-136366246D02*
X107534000Y-136366246D01*
X108149000Y-136366246D02*
X108149000Y-131626246D01*
%TO.C,TP8*%
X116495000Y-107961246D02*
G75*
G02*
X113095000Y-107961246I-1700000J0D01*
G01*
X113095000Y-107961246D02*
G75*
G02*
X116495000Y-107961246I1700000J0D01*
G01*
%TO.C,TP7*%
X65695000Y-74974246D02*
G75*
G02*
X62295000Y-74974246I-1700000J0D01*
G01*
X62295000Y-74974246D02*
G75*
G02*
X65695000Y-74974246I1700000J0D01*
G01*
%TO.C,TP9*%
X96556000Y-128314246D02*
G75*
G02*
X93156000Y-128314246I-1700000J0D01*
G01*
X93156000Y-128314246D02*
G75*
G02*
X96556000Y-128314246I1700000J0D01*
G01*
%TO.C,HVDCBus_A1*%
X108478000Y-94669246D02*
X108478000Y-103489246D01*
X108478000Y-95479246D02*
X111018000Y-95479246D01*
X108478000Y-103489246D02*
X120858000Y-103489246D01*
X109388000Y-96479246D02*
X119948000Y-96479246D01*
X109388000Y-101779246D02*
X109388000Y-96479246D01*
X110128000Y-101779246D02*
X109388000Y-101779246D01*
X111128000Y-94669246D02*
X113128000Y-94669246D01*
X111128000Y-96479246D02*
X111128000Y-94669246D01*
X111828000Y-93869246D02*
X112428000Y-93869246D01*
X112128000Y-94469246D02*
X111828000Y-93869246D01*
X112428000Y-93869246D02*
X112128000Y-94469246D01*
X113128000Y-94669246D02*
X113128000Y-96479246D01*
X113128000Y-95479246D02*
X116208000Y-95479246D01*
X113128000Y-96479246D02*
X111128000Y-96479246D01*
X114128000Y-101779246D02*
X115208000Y-101779246D01*
X116208000Y-94669246D02*
X118208000Y-94669246D01*
X116208000Y-96479246D02*
X116208000Y-94669246D01*
X118208000Y-94669246D02*
X118208000Y-96479246D01*
X118208000Y-96479246D02*
X116208000Y-96479246D01*
X119948000Y-96479246D02*
X119948000Y-101779246D01*
X119948000Y-101779246D02*
X119208000Y-101779246D01*
X120858000Y-94669246D02*
X108478000Y-94669246D01*
X120858000Y-95479246D02*
X118318000Y-95479246D01*
X120858000Y-103489246D02*
X120858000Y-94669246D01*
X114114842Y-101795067D02*
G75*
G02*
X110128000Y-101779246I-1986842J1665821D01*
G01*
X119194842Y-101795067D02*
G75*
G02*
X115208000Y-101779246I-1986842J1665821D01*
G01*
%TO.C,TP4*%
X125702000Y-106056246D02*
G75*
G02*
X122302000Y-106056246I-1700000J0D01*
G01*
X122302000Y-106056246D02*
G75*
G02*
X125702000Y-106056246I1700000J0D01*
G01*
%TO.C,R28*%
X110604724Y-135505746D02*
X110095276Y-135505746D01*
X110604724Y-136550746D02*
X110095276Y-136550746D01*
%TO.C,12V_PwrCnv1*%
X87979000Y-142283246D02*
X87979000Y-146283246D01*
X88269000Y-141253246D02*
X88269000Y-147273246D01*
X88269000Y-147273246D02*
X93569000Y-147273246D01*
X88849000Y-141253246D02*
X88849000Y-141853246D01*
X88849000Y-141853246D02*
X90449000Y-141853246D01*
X89649000Y-146273246D02*
X89899000Y-145743246D01*
X89649000Y-146273246D02*
X92189000Y-146273246D01*
X89649000Y-147273246D02*
X89649000Y-146273246D01*
X89899000Y-145743246D02*
X91939000Y-145743246D01*
X89899000Y-147273246D02*
X89899000Y-146273246D01*
X90449000Y-141853246D02*
X90449000Y-141253246D01*
X91389000Y-141253246D02*
X91389000Y-141853246D01*
X91389000Y-141853246D02*
X92989000Y-141853246D01*
X91939000Y-145743246D02*
X92189000Y-146273246D01*
X91939000Y-147273246D02*
X91939000Y-146273246D01*
X92189000Y-146273246D02*
X92189000Y-147273246D01*
X92989000Y-141853246D02*
X92989000Y-141253246D01*
X93569000Y-141253246D02*
X88269000Y-141253246D01*
X93569000Y-147273246D02*
X93569000Y-141253246D01*
%TO.C,R33*%
X99590840Y-108796752D02*
X99081392Y-108796752D01*
X99590840Y-109841752D02*
X99081392Y-109841752D01*
D12*
%TO.C,Pwr-1*%
X86982000Y-123201246D02*
G75*
G02*
X77838000Y-123201246I-4572000J0D01*
G01*
X77838000Y-123201246D02*
G75*
G02*
X86982000Y-123201246I4572000J0D01*
G01*
D13*
%TO.C,C14*%
X108847433Y-123326246D02*
X109139967Y-123326246D01*
X108847433Y-124346246D02*
X109139967Y-124346246D01*
%TO.C,TP3*%
X74458000Y-55035246D02*
G75*
G02*
X71058000Y-55035246I-1700000J0D01*
G01*
X71058000Y-55035246D02*
G75*
G02*
X74458000Y-55035246I1700000J0D01*
G01*
%TO.C,Q22*%
X67068000Y-72385746D02*
X67068000Y-71735746D01*
X67068000Y-72385746D02*
X67068000Y-73035746D01*
X70188000Y-72385746D02*
X70188000Y-71735746D01*
X70188000Y-72385746D02*
X70188000Y-73035746D01*
X67118000Y-73548246D02*
X66788000Y-73788246D01*
X66788000Y-73308246D01*
X67118000Y-73548246D01*
G36*
X67118000Y-73548246D02*
G01*
X66788000Y-73788246D01*
X66788000Y-73308246D01*
X67118000Y-73548246D01*
G37*
%TO.C,Q16*%
X67073000Y-51781746D02*
X67073000Y-51131746D01*
X67073000Y-51781746D02*
X67073000Y-52431746D01*
X70193000Y-51781746D02*
X70193000Y-51131746D01*
X70193000Y-51781746D02*
X70193000Y-52431746D01*
X67123000Y-52944246D02*
X66793000Y-53184246D01*
X66793000Y-52704246D01*
X67123000Y-52944246D01*
G36*
X67123000Y-52944246D02*
G01*
X66793000Y-53184246D01*
X66793000Y-52704246D01*
X67123000Y-52944246D01*
G37*
%TO.C,R26*%
X72122276Y-72800746D02*
X72631724Y-72800746D01*
X72122276Y-73845746D02*
X72631724Y-73845746D01*
%TO.C,TR1*%
D12*
X133757000Y-51386246D02*
X122757000Y-51386246D01*
X122757000Y-87386246D01*
X133757000Y-87386246D01*
X133757000Y-51386246D01*
X142765000Y-51386246D02*
X114765000Y-51386246D01*
X114765000Y-87386246D01*
X142765000Y-87386246D01*
X142765000Y-51386246D01*
X140757000Y-69386246D02*
G75*
G02*
X115757000Y-69386246I-12500000J0D01*
G01*
X115757000Y-69386246D02*
G75*
G02*
X140757000Y-69386246I12500000J0D01*
G01*
%TO.C,Pwr-2*%
X86982000Y-132599246D02*
G75*
G02*
X77838000Y-132599246I-4572000J0D01*
G01*
X77838000Y-132599246D02*
G75*
G02*
X86982000Y-132599246I4572000J0D01*
G01*
D13*
%TO.C,R30*%
X108739776Y-124837746D02*
X109249224Y-124837746D01*
X108739776Y-125882746D02*
X109249224Y-125882746D01*
%TO.C,F2*%
D12*
X70154000Y-136345746D02*
X76504000Y-136345746D01*
X76504000Y-116025746D01*
X70154000Y-116025746D01*
X70154000Y-136345746D01*
D13*
%TO.C,L1*%
X130615000Y-95141246D02*
X139235000Y-95141246D01*
X130615000Y-104320246D02*
X130615000Y-95141246D01*
X130615000Y-116971246D02*
X130615000Y-107792246D01*
X139235000Y-95141246D02*
X139235000Y-104320246D01*
X139235000Y-107792246D02*
X139235000Y-116971246D01*
X139235000Y-116971246D02*
X130615000Y-116971246D01*
%TO.C,Q17*%
X67073000Y-56129746D02*
X67073000Y-55479746D01*
X67073000Y-56129746D02*
X67073000Y-56779746D01*
X70193000Y-56129746D02*
X70193000Y-55479746D01*
X70193000Y-56129746D02*
X70193000Y-56779746D01*
X67123000Y-57292246D02*
X66793000Y-57532246D01*
X66793000Y-57052246D01*
X67123000Y-57292246D01*
G36*
X67123000Y-57292246D02*
G01*
X66793000Y-57532246D01*
X66793000Y-57052246D01*
X67123000Y-57292246D01*
G37*
%TO.C,Q20*%
X72656000Y-84069746D02*
X72656000Y-83419746D01*
X72656000Y-84069746D02*
X72656000Y-84719746D01*
X75776000Y-84069746D02*
X75776000Y-83419746D01*
X75776000Y-84069746D02*
X75776000Y-84719746D01*
X72706000Y-85232246D02*
X72376000Y-85472246D01*
X72376000Y-84992246D01*
X72706000Y-85232246D01*
G36*
X72706000Y-85232246D02*
G01*
X72376000Y-85472246D01*
X72376000Y-84992246D01*
X72706000Y-85232246D01*
G37*
%TO.C,C15*%
X109139967Y-121802246D02*
X108847433Y-121802246D01*
X109139967Y-122822246D02*
X108847433Y-122822246D01*
%TO.C,U12*%
X102795000Y-117506246D02*
X100845000Y-117506246D01*
X102795000Y-117506246D02*
X104745000Y-117506246D01*
X102795000Y-127626246D02*
X100845000Y-127626246D01*
X102795000Y-127626246D02*
X104745000Y-127626246D01*
X105735000Y-127901246D02*
X105255000Y-127901246D01*
X105495000Y-127571246D01*
X105735000Y-127901246D01*
G36*
X105735000Y-127901246D02*
G01*
X105255000Y-127901246D01*
X105495000Y-127571246D01*
X105735000Y-127901246D01*
G37*
%TO.C,TP1*%
X90714000Y-127933246D02*
G75*
G02*
X87314000Y-127933246I-1700000J0D01*
G01*
X87314000Y-127933246D02*
G75*
G02*
X90714000Y-127933246I1700000J0D01*
G01*
%TO.C,Q19*%
X72656000Y-88387746D02*
X72656000Y-87737746D01*
X72656000Y-88387746D02*
X72656000Y-89037746D01*
X75776000Y-88387746D02*
X75776000Y-87737746D01*
X75776000Y-88387746D02*
X75776000Y-89037746D01*
X72706000Y-89550246D02*
X72376000Y-89790246D01*
X72376000Y-89310246D01*
X72706000Y-89550246D01*
G36*
X72706000Y-89550246D02*
G01*
X72376000Y-89790246D01*
X72376000Y-89310246D01*
X72706000Y-89550246D01*
G37*
%TO.C,Q13*%
X72661000Y-66543746D02*
X72661000Y-65893746D01*
X72661000Y-66543746D02*
X72661000Y-67193746D01*
X75781000Y-66543746D02*
X75781000Y-65893746D01*
X75781000Y-66543746D02*
X75781000Y-67193746D01*
X72711000Y-67706246D02*
X72381000Y-67946246D01*
X72381000Y-67466246D01*
X72711000Y-67706246D01*
G36*
X72711000Y-67706246D02*
G01*
X72381000Y-67946246D01*
X72381000Y-67466246D01*
X72711000Y-67706246D01*
G37*
%TD*%
M02*
