%TF.GenerationSoftware,KiCad,Pcbnew,9.0.3*%
%TF.CreationDate,2025-08-21T00:43:34-03:00*%
%TF.ProjectId,PCB_Conversor,5043425f-436f-46e7-9665-72736f722e6b,rev?*%
%TF.SameCoordinates,Original*%
%TF.FileFunction,Copper,L2,Bot*%
%TF.FilePolarity,Positive*%
%FSLAX46Y46*%
G04 Gerber Fmt 4.6, Leading zero omitted, Abs format (unit mm)*
G04 Created by KiCad (PCBNEW 9.0.3) date 2025-08-21 00:43:34*
%MOMM*%
%LPD*%
G01*
G04 APERTURE LIST*
G04 Aperture macros list*
%AMRoundRect*
0 Rectangle with rounded corners*
0 $1 Rounding radius*
0 $2 $3 $4 $5 $6 $7 $8 $9 X,Y pos of 4 corners*
0 Add a 4 corners polygon primitive as box body*
4,1,4,$2,$3,$4,$5,$6,$7,$8,$9,$2,$3,0*
0 Add four circle primitives for the rounded corners*
1,1,$1+$1,$2,$3*
1,1,$1+$1,$4,$5*
1,1,$1+$1,$6,$7*
1,1,$1+$1,$8,$9*
0 Add four rect primitives between the rounded corners*
20,1,$1+$1,$2,$3,$4,$5,0*
20,1,$1+$1,$4,$5,$6,$7,0*
20,1,$1+$1,$6,$7,$8,$9,0*
20,1,$1+$1,$8,$9,$2,$3,0*%
%AMFreePoly0*
4,1,9,5.362500,-0.866500,1.237500,-0.866500,1.237500,-0.450000,-1.237500,-0.450000,-1.237500,0.450000,1.237500,0.450000,1.237500,0.866500,5.362500,0.866500,5.362500,-0.866500,5.362500,-0.866500,$1*%
G04 Aperture macros list end*
%TA.AperFunction,Conductor*%
%ADD10C,0.200000*%
%TD*%
%TA.AperFunction,ComponentPad*%
%ADD11C,8.636000*%
%TD*%
%TA.AperFunction,ComponentPad*%
%ADD12RoundRect,0.250000X0.620000X0.845000X-0.620000X0.845000X-0.620000X-0.845000X0.620000X-0.845000X0*%
%TD*%
%TA.AperFunction,ComponentPad*%
%ADD13O,1.740000X2.190000*%
%TD*%
%TA.AperFunction,ComponentPad*%
%ADD14C,3.000000*%
%TD*%
%TA.AperFunction,ComponentPad*%
%ADD15RoundRect,0.250001X-0.949999X0.949999X-0.949999X-0.949999X0.949999X-0.949999X0.949999X0.949999X0*%
%TD*%
%TA.AperFunction,ComponentPad*%
%ADD16C,2.400000*%
%TD*%
%TA.AperFunction,ComponentPad*%
%ADD17RoundRect,0.250000X-1.750000X-1.750000X1.750000X-1.750000X1.750000X1.750000X-1.750000X1.750000X0*%
%TD*%
%TA.AperFunction,ComponentPad*%
%ADD18C,4.000000*%
%TD*%
%TA.AperFunction,ComponentPad*%
%ADD19C,3.810000*%
%TD*%
%TA.AperFunction,ComponentPad*%
%ADD20RoundRect,0.249999X-0.790001X-1.550001X0.790001X-1.550001X0.790001X1.550001X-0.790001X1.550001X0*%
%TD*%
%TA.AperFunction,ComponentPad*%
%ADD21O,2.080000X3.600000*%
%TD*%
%TA.AperFunction,ComponentPad*%
%ADD22RoundRect,0.250000X-0.620000X-0.845000X0.620000X-0.845000X0.620000X0.845000X-0.620000X0.845000X0*%
%TD*%
%TA.AperFunction,ComponentPad*%
%ADD23RoundRect,1.143000X-3.937000X2.667000X-3.937000X-2.667000X3.937000X-2.667000X3.937000X2.667000X0*%
%TD*%
%TA.AperFunction,ComponentPad*%
%ADD24RoundRect,0.330000X-1.170000X-0.770000X1.170000X-0.770000X1.170000X0.770000X-1.170000X0.770000X0*%
%TD*%
%TA.AperFunction,ComponentPad*%
%ADD25R,2.000000X2.000000*%
%TD*%
%TA.AperFunction,ComponentPad*%
%ADD26C,2.000000*%
%TD*%
%TA.AperFunction,SMDPad,CuDef*%
%ADD27RoundRect,0.237500X-0.237500X0.300000X-0.237500X-0.300000X0.237500X-0.300000X0.237500X0.300000X0*%
%TD*%
%TA.AperFunction,SMDPad,CuDef*%
%ADD28RoundRect,0.237500X-0.250000X-0.237500X0.250000X-0.237500X0.250000X0.237500X-0.250000X0.237500X0*%
%TD*%
%TA.AperFunction,SMDPad,CuDef*%
%ADD29RoundRect,0.237500X0.250000X0.237500X-0.250000X0.237500X-0.250000X-0.237500X0.250000X-0.237500X0*%
%TD*%
%TA.AperFunction,SMDPad,CuDef*%
%ADD30RoundRect,0.150000X-0.150000X0.825000X-0.150000X-0.825000X0.150000X-0.825000X0.150000X0.825000X0*%
%TD*%
%TA.AperFunction,ComponentPad*%
%ADD31R,2.000000X1.905000*%
%TD*%
%TA.AperFunction,ComponentPad*%
%ADD32O,2.000000X1.905000*%
%TD*%
%TA.AperFunction,SMDPad,CuDef*%
%ADD33RoundRect,0.250000X0.550000X0.550000X-0.550000X0.550000X-0.550000X-0.550000X0.550000X-0.550000X0*%
%TD*%
%TA.AperFunction,SMDPad,CuDef*%
%ADD34RoundRect,0.225000X0.925000X0.225000X-0.925000X0.225000X-0.925000X-0.225000X0.925000X-0.225000X0*%
%TD*%
%TA.AperFunction,SMDPad,CuDef*%
%ADD35FreePoly0,180.000000*%
%TD*%
%TA.AperFunction,SMDPad,CuDef*%
%ADD36RoundRect,0.237500X-0.237500X0.250000X-0.237500X-0.250000X0.237500X-0.250000X0.237500X0.250000X0*%
%TD*%
%TA.AperFunction,SMDPad,CuDef*%
%ADD37RoundRect,0.237500X0.300000X0.237500X-0.300000X0.237500X-0.300000X-0.237500X0.300000X-0.237500X0*%
%TD*%
%TA.AperFunction,SMDPad,CuDef*%
%ADD38RoundRect,0.250000X0.600000X-1.400000X0.600000X1.400000X-0.600000X1.400000X-0.600000X-1.400000X0*%
%TD*%
%TA.AperFunction,SMDPad,CuDef*%
%ADD39RoundRect,0.237500X0.237500X-0.300000X0.237500X0.300000X-0.237500X0.300000X-0.237500X-0.300000X0*%
%TD*%
%TA.AperFunction,ViaPad*%
%ADD40C,0.600000*%
%TD*%
%TA.AperFunction,Conductor*%
%ADD41C,1.270000*%
%TD*%
%TA.AperFunction,Conductor*%
%ADD42C,0.406400*%
%TD*%
%TA.AperFunction,Conductor*%
%ADD43C,2.286000*%
%TD*%
G04 APERTURE END LIST*
D10*
%TO.N,Net-(D3-K)*%
X140258000Y-98690246D02*
X140258000Y-107326246D01*
X137464000Y-107326246D01*
X137337000Y-107199246D01*
X137337000Y-106437246D01*
X137337000Y-98436246D01*
X140004000Y-98436246D01*
X140258000Y-98690246D01*
%TA.AperFunction,Conductor*%
G36*
X140258000Y-98690246D02*
G01*
X140258000Y-107326246D01*
X137464000Y-107326246D01*
X137337000Y-107199246D01*
X137337000Y-106437246D01*
X137337000Y-98436246D01*
X140004000Y-98436246D01*
X140258000Y-98690246D01*
G37*
%TD.AperFunction*%
%TO.N,V_HVBus*%
X114541000Y-117232246D02*
X112128000Y-117232246D01*
X112128000Y-114311246D01*
X112636000Y-113803246D01*
X114541000Y-113803246D01*
X114541000Y-117232246D01*
%TA.AperFunction,Conductor*%
G36*
X114541000Y-117232246D02*
G01*
X112128000Y-117232246D01*
X112128000Y-114311246D01*
X112636000Y-113803246D01*
X114541000Y-113803246D01*
X114541000Y-117232246D01*
G37*
%TD.AperFunction*%
%TO.N,/Conversor/Medici\u00F3n corriente/Current_In*%
X120002000Y-113168246D02*
X120002000Y-117232246D01*
X115303000Y-117232246D01*
X115303000Y-115073246D01*
X117335000Y-113041246D01*
X119875000Y-113041246D01*
X120002000Y-113168246D01*
%TA.AperFunction,Conductor*%
G36*
X120002000Y-113168246D02*
G01*
X120002000Y-117232246D01*
X115303000Y-117232246D01*
X115303000Y-115073246D01*
X117335000Y-113041246D01*
X119875000Y-113041246D01*
X120002000Y-113168246D01*
G37*
%TD.AperFunction*%
%TO.N,Net-(C3-Pad1)*%
X113397710Y-71544995D02*
X113396465Y-77545745D01*
X112382000Y-78403246D01*
X102202001Y-78403246D01*
X101269000Y-79307757D01*
X101269000Y-84466246D01*
X81838000Y-103897246D01*
X68376000Y-103897246D01*
X64820000Y-107453246D01*
X64820000Y-113168246D01*
X69138000Y-117486246D01*
X69138000Y-124852246D01*
X68122000Y-125868246D01*
X64058000Y-125868246D01*
X62407000Y-124217246D01*
X62407000Y-100722246D01*
X63296000Y-99833246D01*
X79679848Y-99833246D01*
X88887000Y-90595246D01*
X88887000Y-80145218D01*
X90191370Y-78762362D01*
X94873860Y-78760087D01*
X95808000Y-77937300D01*
X95808000Y-74134009D01*
X99301000Y-70529246D01*
X112178812Y-70529246D01*
X113397710Y-71544995D01*
%TA.AperFunction,Conductor*%
G36*
X113397710Y-71544995D02*
G01*
X113396465Y-77545745D01*
X112382000Y-78403246D01*
X102202001Y-78403246D01*
X101269000Y-79307757D01*
X101269000Y-84466246D01*
X81838000Y-103897246D01*
X68376000Y-103897246D01*
X64820000Y-107453246D01*
X64820000Y-113168246D01*
X69138000Y-117486246D01*
X69138000Y-124852246D01*
X68122000Y-125868246D01*
X64058000Y-125868246D01*
X62407000Y-124217246D01*
X62407000Y-100722246D01*
X63296000Y-99833246D01*
X79679848Y-99833246D01*
X88887000Y-90595246D01*
X88887000Y-80145218D01*
X90191370Y-78762362D01*
X94873860Y-78760087D01*
X95808000Y-77937300D01*
X95808000Y-74134009D01*
X99301000Y-70529246D01*
X112178812Y-70529246D01*
X113397710Y-71544995D01*
G37*
%TD.AperFunction*%
%TO.N,Net-(Pwr+1-Pin_1)*%
X69265000Y-127646246D02*
X69265000Y-134631246D01*
X71932000Y-137298246D01*
X71932000Y-143902246D01*
X69900000Y-145934246D01*
X64820000Y-145934246D01*
X62788000Y-143902246D01*
X62788000Y-127773246D01*
X64058000Y-126503246D01*
X68122000Y-126503246D01*
X69265000Y-127646246D01*
%TA.AperFunction,Conductor*%
G36*
X69265000Y-127646246D02*
G01*
X69265000Y-134631246D01*
X71932000Y-137298246D01*
X71932000Y-143902246D01*
X69900000Y-145934246D01*
X64820000Y-145934246D01*
X62788000Y-143902246D01*
X62788000Y-127773246D01*
X64058000Y-126503246D01*
X68122000Y-126503246D01*
X69265000Y-127646246D01*
G37*
%TD.AperFunction*%
%TO.N,Net-(Pwr+2-Pin_1)*%
X76631000Y-127773246D02*
X76631000Y-133996246D01*
X81711000Y-139076246D01*
X81711000Y-143648246D01*
X79425000Y-145934246D01*
X74980000Y-145934246D01*
X72948000Y-143902246D01*
X72948000Y-136830651D01*
X70154000Y-134163651D01*
X70154000Y-127773246D01*
X71424000Y-126503246D01*
X75361000Y-126503246D01*
X76631000Y-127773246D01*
%TA.AperFunction,Conductor*%
G36*
X76631000Y-127773246D02*
G01*
X76631000Y-133996246D01*
X81711000Y-139076246D01*
X81711000Y-143648246D01*
X79425000Y-145934246D01*
X74980000Y-145934246D01*
X72948000Y-143902246D01*
X72948000Y-136830651D01*
X70154000Y-134163651D01*
X70154000Y-127773246D01*
X71424000Y-126503246D01*
X75361000Y-126503246D01*
X76631000Y-127773246D01*
G37*
%TD.AperFunction*%
%TO.N,Net-(C4-Pad1)*%
X113398000Y-81197246D02*
X113398000Y-87293246D01*
X103050335Y-97801246D01*
X99618000Y-97801246D01*
X94919000Y-102500246D01*
X89585000Y-102500246D01*
X88950000Y-103135246D01*
X88950000Y-106310246D01*
X85587000Y-109673246D01*
X78216000Y-109673246D01*
X76377000Y-107834246D01*
X69138000Y-107834246D01*
X67995000Y-108977246D01*
X67995000Y-111263246D01*
X69265000Y-112533246D01*
X72186000Y-112533246D01*
X76504000Y-116851246D01*
X76504000Y-124725246D01*
X75361000Y-125868246D01*
X71424000Y-125868246D01*
X70027000Y-124471246D01*
X70027000Y-116978246D01*
X65328000Y-112279246D01*
X65328000Y-108088246D01*
X68630000Y-104786246D01*
X82537000Y-104786246D01*
X102476000Y-84957738D01*
X102476000Y-81070246D01*
X103111000Y-80435246D01*
X112636000Y-80435246D01*
X113398000Y-81197246D01*
%TA.AperFunction,Conductor*%
G36*
X113398000Y-81197246D02*
G01*
X113398000Y-87293246D01*
X103050335Y-97801246D01*
X99618000Y-97801246D01*
X94919000Y-102500246D01*
X89585000Y-102500246D01*
X88950000Y-103135246D01*
X88950000Y-106310246D01*
X85587000Y-109673246D01*
X78216000Y-109673246D01*
X76377000Y-107834246D01*
X69138000Y-107834246D01*
X67995000Y-108977246D01*
X67995000Y-111263246D01*
X69265000Y-112533246D01*
X72186000Y-112533246D01*
X76504000Y-116851246D01*
X76504000Y-124725246D01*
X75361000Y-125868246D01*
X71424000Y-125868246D01*
X70027000Y-124471246D01*
X70027000Y-116978246D01*
X65328000Y-112279246D01*
X65328000Y-108088246D01*
X68630000Y-104786246D01*
X82537000Y-104786246D01*
X102476000Y-84957738D01*
X102476000Y-81070246D01*
X103111000Y-80435246D01*
X112636000Y-80435246D01*
X113398000Y-81197246D01*
G37*
%TD.AperFunction*%
%TO.N,GND_Cnv*%
X76885000Y-110374246D02*
X84759000Y-110374246D01*
X86791000Y-112406246D01*
X86791000Y-135520246D01*
X85013000Y-137298246D01*
X80949000Y-137298246D01*
X77520000Y-133869246D01*
X77520000Y-116089246D01*
X72821000Y-111390246D01*
X69773000Y-111390246D01*
X69011000Y-110628246D01*
X69011000Y-109612246D01*
X69900000Y-108723246D01*
X75234000Y-108723246D01*
X76885000Y-110374246D01*
%TA.AperFunction,Conductor*%
G36*
X76885000Y-110374246D02*
G01*
X84759000Y-110374246D01*
X86791000Y-112406246D01*
X86791000Y-135520246D01*
X85013000Y-137298246D01*
X80949000Y-137298246D01*
X77520000Y-133869246D01*
X77520000Y-116089246D01*
X72821000Y-111390246D01*
X69773000Y-111390246D01*
X69011000Y-110628246D01*
X69011000Y-109612246D01*
X69900000Y-108723246D01*
X75234000Y-108723246D01*
X76885000Y-110374246D01*
G37*
%TD.AperFunction*%
X83426000Y-56813246D02*
X83426000Y-89706246D01*
X85204000Y-91484246D01*
X85204000Y-93008246D01*
X79108000Y-99104246D01*
X68313000Y-99104246D01*
X68313000Y-91484246D01*
X78219000Y-81578246D01*
X78219000Y-56559246D01*
X79362000Y-55416246D01*
X82029000Y-55416246D01*
X83426000Y-56813246D01*
%TA.AperFunction,Conductor*%
G36*
X83426000Y-56813246D02*
G01*
X83426000Y-89706246D01*
X85204000Y-91484246D01*
X85204000Y-93008246D01*
X79108000Y-99104246D01*
X68313000Y-99104246D01*
X68313000Y-91484246D01*
X78219000Y-81578246D01*
X78219000Y-56559246D01*
X79362000Y-55416246D01*
X82029000Y-55416246D01*
X83426000Y-56813246D01*
G37*
%TD.AperFunction*%
%TD*%
D11*
%TO.P,Pwr+2,1,Pin_1*%
%TO.N,Net-(Pwr+2-Pin_1)*%
X77330000Y-141616246D03*
%TD*%
D12*
%TO.P,HMI_Signal_B1,1,Pin_1*%
%TO.N,5V_HMI*%
X108191000Y-144410246D03*
D13*
%TO.P,HMI_Signal_B1,2,Pin_2*%
%TO.N,GND_HMI*%
X105651000Y-144410246D03*
%TO.P,HMI_Signal_B1,3,Pin_3*%
%TO.N,VSens_Corriente*%
X103111000Y-144410246D03*
%TO.P,HMI_Signal_B1,4,Pin_4*%
%TO.N,Vsens_HV_HMI*%
X100571000Y-144410246D03*
%TO.P,HMI_Signal_B1,5,Pin_5*%
%TO.N,3V3_HMI*%
X98031000Y-144410246D03*
%TD*%
D14*
%TO.P,TP2,1,1*%
%TO.N,/Conversor/Modulo conmutador pushpull1/Load*%
X71742000Y-80435246D03*
%TD*%
D15*
%TO.P,C3,1*%
%TO.N,Net-(C3-Pad1)*%
X69723000Y-102659246D03*
D16*
%TO.P,C3,2*%
%TO.N,GND_Cnv*%
X69723000Y-110159246D03*
%TD*%
D15*
%TO.P,C4,1*%
%TO.N,Net-(C4-Pad1)*%
X85839000Y-106353492D03*
D16*
%TO.P,C4,2*%
%TO.N,GND_Cnv*%
X85839000Y-113853492D03*
%TD*%
D14*
%TO.P,TP5,1,1*%
%TO.N,/Conversor/Gnd_Inv*%
X123494000Y-145299246D03*
%TD*%
D17*
%TO.P,C5,1*%
%TO.N,Net-(D5-A)*%
X128003000Y-136028246D03*
D18*
%TO.P,C5,2*%
%TO.N,/Conversor/Gnd_Inv*%
X138003000Y-136028246D03*
%TD*%
D19*
%TO.P,F1,1*%
%TO.N,Net-(Pwr+1-Pin_1)*%
X65836000Y-133361246D03*
X65836000Y-128281246D03*
%TO.P,F1,2*%
%TO.N,Net-(C3-Pad1)*%
X65836000Y-124090246D03*
X65836000Y-119010246D03*
%TD*%
D14*
%TO.P,TP6,1,1*%
%TO.N,Gate_Input_A*%
X65011000Y-89579246D03*
%TD*%
D11*
%TO.P,Pwr+1,1,Pin_1*%
%TO.N,Net-(Pwr+1-Pin_1)*%
X67551000Y-141616246D03*
%TD*%
D14*
%TO.P,TP8,1,1*%
%TO.N,V_HVBus*%
X114795000Y-107961246D03*
%TD*%
%TO.P,TP7,1,1*%
%TO.N,Gate_Input_B*%
X63995000Y-74974246D03*
%TD*%
%TO.P,TP9,1,1*%
%TO.N,VSens_Corriente*%
X94856000Y-128314246D03*
%TD*%
D20*
%TO.P,HVDCBus_A1,1,Pin_1*%
%TO.N,V_HVBus*%
X112128000Y-99579246D03*
D21*
%TO.P,HVDCBus_A1,2,Pin_2*%
%TO.N,/Conversor/Gnd_Inv*%
X117208000Y-99579246D03*
%TD*%
D14*
%TO.P,TP4,1,1*%
%TO.N,Net-(D5-A)*%
X124002000Y-106056246D03*
%TD*%
D22*
%TO.P,12V_PwrCnv1,1,Pin_1*%
%TO.N,GND_Cnv*%
X89649000Y-144283246D03*
D13*
%TO.P,12V_PwrCnv1,2,Pin_2*%
%TO.N,12V_Cnv*%
X92189000Y-144283246D03*
%TD*%
D11*
%TO.P,Pwr-1,1,Pin_1*%
%TO.N,GND_Cnv*%
X82410000Y-123201246D03*
%TD*%
D14*
%TO.P,TP3,1,1*%
%TO.N,/Conversor/Modulo conmutador pushpull/Load*%
X72758000Y-55035246D03*
%TD*%
D23*
%TO.P,TR1,1*%
%TO.N,/Conversor/Modulo conmutador pushpull/Load*%
X108191000Y-54146246D03*
%TO.P,TR1,2*%
%TO.N,/Conversor/Modulo conmutador pushpull1/Load*%
X108191000Y-64306246D03*
%TO.P,TR1,3*%
%TO.N,Net-(C3-Pad1)*%
X108191000Y-74466246D03*
%TO.P,TR1,4*%
%TO.N,Net-(C4-Pad1)*%
X108191000Y-84626246D03*
D24*
%TO.P,TR1,5*%
%TO.N,Net-(D2-K)*%
X139941000Y-54146246D03*
%TO.P,TR1,6*%
%TO.N,Net-(D3-A2)*%
X139941000Y-74466246D03*
%TO.P,TR1,7*%
%TO.N,N/C*%
X117335000Y-54146246D03*
X139941000Y-59226246D03*
X117335000Y-59226246D03*
X139941000Y-64306246D03*
X117335000Y-64306246D03*
X139941000Y-69386246D03*
X117335000Y-69386246D03*
X117335000Y-74466246D03*
X139941000Y-79546246D03*
X117335000Y-79546246D03*
X139941000Y-84626246D03*
X117335000Y-84626246D03*
%TD*%
D11*
%TO.P,Pwr-2,1,Pin_1*%
%TO.N,GND_Cnv*%
X82410000Y-132599246D03*
%TD*%
D19*
%TO.P,F2,1*%
%TO.N,Net-(Pwr+2-Pin_1)*%
X73329000Y-133361246D03*
X73329000Y-128281246D03*
%TO.P,F2,2*%
%TO.N,Net-(C4-Pad1)*%
X73329000Y-124090246D03*
X73329000Y-119010246D03*
%TD*%
D14*
%TO.P,L1,1,1*%
%TO.N,Net-(D3-K)*%
X139115000Y-106056246D03*
%TO.P,L1,2,2*%
%TO.N,Net-(D5-A)*%
X130735000Y-106056246D03*
%TD*%
%TO.P,TP1,1,1*%
%TO.N,GND_Cnv*%
X89014000Y-127933246D03*
%TD*%
D25*
%TO.P,D4,1,K*%
%TO.N,Net-(D3-A2)*%
X142417000Y-126122246D03*
D26*
%TO.P,D4,2,A*%
%TO.N,/Conversor/Gnd_Inv*%
X142417000Y-121042246D03*
%TD*%
D27*
%TO.P,C12,1*%
%TO.N,Net-(U11-FILTER)*%
X105397000Y-131482746D03*
%TO.P,C12,2*%
%TO.N,GND_HMI*%
X105397000Y-133207746D03*
%TD*%
D28*
%TO.P,R36,1*%
%TO.N,Net-(R36-Pad1)*%
X108191000Y-103897246D03*
%TO.P,R36,2*%
%TO.N,V_HVBus*%
X110016000Y-103897246D03*
%TD*%
D25*
%TO.P,D5,1,K*%
%TO.N,/Conversor/Medici\u00F3n corriente/Current_In*%
X121147000Y-127900246D03*
D26*
%TO.P,D5,2,A*%
%TO.N,Net-(D5-A)*%
X116067000Y-127900246D03*
%TD*%
D29*
%TO.P,R34,1*%
%TO.N,V_HVBus*%
X110016000Y-101865246D03*
%TO.P,R34,2*%
%TO.N,Net-(U13-REF)*%
X108191000Y-101865246D03*
%TD*%
D30*
%TO.P,U11,1,IP+*%
%TO.N,V_HVBus*%
X113017000Y-116281246D03*
%TO.P,U11,2,IP+*%
X114287000Y-116281246D03*
%TO.P,U11,3,IP-*%
%TO.N,/Conversor/Medici\u00F3n corriente/Current_In*%
X115557000Y-116281246D03*
%TO.P,U11,4,IP-*%
X116827000Y-116281246D03*
%TO.P,U11,5,GND*%
%TO.N,GND_HMI*%
X116827000Y-121231246D03*
%TO.P,U11,6,FILTER*%
%TO.N,Net-(U11-FILTER)*%
X115557000Y-121231246D03*
%TO.P,U11,7,VIOUT*%
%TO.N,Net-(U11-VIOUT)*%
X114287000Y-121231246D03*
%TO.P,U11,8,VCC*%
%TO.N,5V_HMI*%
X113017000Y-121231246D03*
%TD*%
D31*
%TO.P,D3,1,A1*%
%TO.N,Net-(D2-K)*%
X142417000Y-101865246D03*
D32*
%TO.P,D3,2,K*%
%TO.N,Net-(D3-K)*%
X142417000Y-99325246D03*
%TO.P,D3,3,A2*%
%TO.N,Net-(D3-A2)*%
X142417000Y-96785246D03*
%TD*%
D28*
%TO.P,R38,1*%
%TO.N,Net-(C17-Pad2)*%
X101055500Y-103897246D03*
%TO.P,R38,2*%
%TO.N,Net-(R37-Pad1)*%
X102880500Y-103897246D03*
%TD*%
D33*
%TO.P,U14,1*%
%TO.N,Net-(C17-Pad2)*%
X98158000Y-103897246D03*
%TO.P,U14,2*%
%TO.N,Net-(U13-K)*%
X98158000Y-106437246D03*
%TO.P,U14,3*%
%TO.N,Net-(R39-Pad1)*%
X90538000Y-106437246D03*
%TO.P,U14,4*%
%TO.N,Vref_5V*%
X90538000Y-103897246D03*
%TD*%
D34*
%TO.P,U13,1,REF*%
%TO.N,Net-(U13-REF)*%
X107212000Y-106612246D03*
D35*
%TO.P,U13,2,A*%
%TO.N,/Conversor/Gnd_Inv*%
X107124500Y-108112246D03*
D34*
%TO.P,U13,3,K*%
%TO.N,Net-(U13-K)*%
X107212000Y-109612246D03*
%TD*%
D25*
%TO.P,D2,1,K*%
%TO.N,Net-(D2-K)*%
X142417000Y-115327246D03*
D26*
%TO.P,D2,2,A*%
%TO.N,/Conversor/Gnd_Inv*%
X142417000Y-110247246D03*
%TD*%
D29*
%TO.P,R46,1*%
%TO.N,Net-(R46-Pad1)*%
X90815500Y-121550246D03*
%TO.P,R46,2*%
%TO.N,GND_Cnv*%
X88990500Y-121550246D03*
%TD*%
D31*
%TO.P,Q18,1,G*%
%TO.N,Net-(Q18-G)*%
X76545000Y-51542746D03*
D32*
%TO.P,Q18,2,D*%
%TO.N,/Conversor/Modulo conmutador pushpull/Load*%
X76545000Y-54082746D03*
%TO.P,Q18,3,S*%
%TO.N,GND_Cnv*%
X76545000Y-56622746D03*
%TD*%
D36*
%TO.P,R47,1*%
%TO.N,Net-(R46-Pad1)*%
X91427000Y-123337746D03*
%TO.P,R47,2*%
%TO.N,Vsens_HV_HMI*%
X91427000Y-125162746D03*
%TD*%
D37*
%TO.P,C18,1*%
%TO.N,Net-(U15-REF)*%
X103084499Y-112533246D03*
%TO.P,C18,2*%
%TO.N,Net-(C18-Pad2)*%
X101359499Y-112533246D03*
%TD*%
D33*
%TO.P,U16,1*%
%TO.N,Net-(C18-Pad2)*%
X98412000Y-114565246D03*
%TO.P,U16,2*%
%TO.N,Net-(U15-K)*%
X98412000Y-117105246D03*
%TO.P,U16,3*%
%TO.N,Net-(R46-Pad1)*%
X90792000Y-117105246D03*
%TO.P,U16,4*%
%TO.N,3V3_HMI*%
X90792000Y-114565246D03*
%TD*%
D31*
%TO.P,Q21,1,G*%
%TO.N,Net-(Q21-G)*%
X85989000Y-89325246D03*
D32*
%TO.P,Q21,2,D*%
%TO.N,/Conversor/Modulo conmutador pushpull1/Load*%
X85989000Y-86785246D03*
%TO.P,Q21,3,S*%
%TO.N,GND_Cnv*%
X85989000Y-84245246D03*
%TD*%
D29*
%TO.P,R27,1*%
%TO.N,Net-(U11-VIOUT)*%
X110119500Y-124598246D03*
%TO.P,R27,2*%
%TO.N,VSens_Corriente*%
X108294500Y-124598246D03*
%TD*%
D31*
%TO.P,Q15,1,G*%
%TO.N,Net-(Q15-G)*%
X85966000Y-67481246D03*
D32*
%TO.P,Q15,2,D*%
%TO.N,/Conversor/Modulo conmutador pushpull/Load*%
X85966000Y-64941246D03*
%TO.P,Q15,3,S*%
%TO.N,GND_Cnv*%
X85966000Y-62401246D03*
%TD*%
D28*
%TO.P,R45,1*%
%TO.N,Net-(C18-Pad2)*%
X101309500Y-114565246D03*
%TO.P,R45,2*%
%TO.N,Net-(R44-Pad1)*%
X103134500Y-114565246D03*
%TD*%
D36*
%TO.P,R35,1*%
%TO.N,Net-(U13-REF)*%
X109588000Y-106413746D03*
%TO.P,R35,2*%
%TO.N,/Conversor/Gnd_Inv*%
X109588000Y-108238746D03*
%TD*%
%TO.P,R39,1*%
%TO.N,Net-(R39-Pad1)*%
X90538000Y-109358246D03*
%TO.P,R39,2*%
%TO.N,GND_Cnv*%
X90538000Y-111183246D03*
%TD*%
%TO.P,R42,1*%
%TO.N,Net-(U15-REF)*%
X109842000Y-117081745D03*
%TO.P,R42,2*%
%TO.N,/Conversor/Gnd_Inv*%
X109842000Y-118906745D03*
%TD*%
D28*
%TO.P,R44,1*%
%TO.N,Net-(R44-Pad1)*%
X104889000Y-114565246D03*
%TO.P,R44,2*%
%TO.N,Net-(R43-Pad1)*%
X106714000Y-114565246D03*
%TD*%
D29*
%TO.P,R41,1*%
%TO.N,V_HVBus*%
X110270000Y-112533246D03*
%TO.P,R41,2*%
%TO.N,Net-(U15-REF)*%
X108445000Y-112533246D03*
%TD*%
D37*
%TO.P,C17,1*%
%TO.N,Net-(U13-REF)*%
X102830500Y-101865246D03*
%TO.P,C17,2*%
%TO.N,Net-(C17-Pad2)*%
X101105500Y-101865246D03*
%TD*%
D38*
%TO.P,D10,1,K*%
%TO.N,VSens_Corriente*%
X103111000Y-139794246D03*
%TO.P,D10,2,A*%
%TO.N,GND_HMI*%
X103111000Y-134294246D03*
%TD*%
D34*
%TO.P,U15,1,REF*%
%TO.N,Net-(U15-REF)*%
X107466000Y-117280245D03*
D35*
%TO.P,U15,2,A*%
%TO.N,/Conversor/Gnd_Inv*%
X107378500Y-118780245D03*
D34*
%TO.P,U15,3,K*%
%TO.N,Net-(U15-K)*%
X107466000Y-120280245D03*
%TD*%
D28*
%TO.P,R37,1*%
%TO.N,Net-(R37-Pad1)*%
X104635000Y-103897246D03*
%TO.P,R37,2*%
%TO.N,Net-(R36-Pad1)*%
X106460000Y-103897246D03*
%TD*%
%TO.P,R43,1*%
%TO.N,Net-(R43-Pad1)*%
X108445000Y-114565246D03*
%TO.P,R43,2*%
%TO.N,V_HVBus*%
X110270000Y-114565246D03*
%TD*%
D39*
%TO.P,C13,1*%
%TO.N,5V_HMI*%
X105397000Y-137044246D03*
%TO.P,C13,2*%
%TO.N,GND_HMI*%
X105397000Y-135319246D03*
%TD*%
D31*
%TO.P,Q24,1,G*%
%TO.N,Net-(Q24-G)*%
X76568000Y-73323246D03*
D32*
%TO.P,Q24,2,D*%
%TO.N,/Conversor/Modulo conmutador pushpull1/Load*%
X76568000Y-75863246D03*
%TO.P,Q24,3,S*%
%TO.N,GND_Cnv*%
X76568000Y-78403246D03*
%TD*%
D40*
%TO.N,GND_Cnv*%
X79108000Y-98469246D03*
X75298000Y-97199246D03*
X72758000Y-95929246D03*
X72758000Y-98469246D03*
X79108000Y-97199246D03*
X79108000Y-95929246D03*
X77838000Y-94659246D03*
X79044000Y-113676246D03*
X78155000Y-112787246D03*
X80378000Y-95929246D03*
X77266000Y-112787246D03*
X74028000Y-94659246D03*
X77838000Y-95929246D03*
X79044000Y-111009246D03*
X77266000Y-111009246D03*
X74028000Y-95929246D03*
X78155000Y-111898246D03*
X74028000Y-98469246D03*
X75298000Y-95929246D03*
X80378000Y-94659246D03*
X76568000Y-98469246D03*
X76568000Y-94659246D03*
X74028000Y-97199246D03*
X81648000Y-94659246D03*
X79933000Y-114565246D03*
X79933000Y-113676246D03*
X79044000Y-112787246D03*
X77838000Y-98469246D03*
X79044000Y-111898246D03*
X81648000Y-95929246D03*
X79933000Y-111898246D03*
X79108000Y-94659246D03*
X75298000Y-98469246D03*
X79933000Y-112787246D03*
X78155000Y-114565246D03*
X71361000Y-97199246D03*
X77266000Y-113676246D03*
X71361000Y-98469246D03*
X76568000Y-95929246D03*
X78155000Y-113676246D03*
X79044000Y-114565246D03*
X78155000Y-111009246D03*
X77838000Y-97199246D03*
X76568000Y-97199246D03*
X79933000Y-111009246D03*
X77266000Y-114565246D03*
X80378000Y-97199246D03*
X75298000Y-94659246D03*
X77266000Y-111898246D03*
X72758000Y-97199246D03*
%TO.N,12V_Cnv*%
X83934000Y-145553246D03*
X92189000Y-139490246D03*
%TO.N,Net-(C4-Pad1)*%
X73583000Y-107072246D03*
X93459000Y-95548246D03*
X88887000Y-100120246D03*
X91554000Y-100120246D03*
X88887000Y-101009246D03*
X96126000Y-98215246D03*
X88887000Y-99231246D03*
X97015000Y-95548246D03*
X81394000Y-109010246D03*
X97015000Y-96437246D03*
X91554000Y-101009246D03*
X95237000Y-95548246D03*
X96126000Y-97326246D03*
X72714044Y-107090868D03*
X93459000Y-96437246D03*
X79597378Y-107252290D03*
X72694000Y-105294246D03*
X94329378Y-95548246D03*
X71805000Y-106183246D03*
X89776000Y-101898246D03*
X87109000Y-104565246D03*
X70916000Y-107072246D03*
X89776000Y-99231246D03*
X80505000Y-108121246D03*
X71805000Y-105294246D03*
X89776000Y-100120246D03*
X89776000Y-98342246D03*
X94348000Y-94659246D03*
X93459000Y-94659246D03*
X82283000Y-105454246D03*
X95237000Y-94659246D03*
X86220000Y-101898246D03*
X87109000Y-102787246D03*
X86220000Y-102787246D03*
X70916000Y-105294246D03*
X97015000Y-98215246D03*
X95237000Y-97326246D03*
X87998000Y-103676246D03*
X94348000Y-97326246D03*
X79616000Y-108121246D03*
X91554000Y-101898246D03*
X90665000Y-100120246D03*
X96126000Y-95548246D03*
X95237000Y-98215246D03*
X79616000Y-105454246D03*
X73583000Y-106183246D03*
X94348000Y-96437246D03*
X87998000Y-104565246D03*
X87998000Y-100120246D03*
X70916000Y-106183246D03*
X79616000Y-109010246D03*
X82283000Y-107232246D03*
X96126000Y-96437246D03*
X71805000Y-107072246D03*
X92443000Y-101009246D03*
X89776000Y-101009246D03*
X96126000Y-99104246D03*
X81394000Y-106343246D03*
X72694000Y-106183246D03*
X92443000Y-101898246D03*
X87998000Y-105454246D03*
X73583000Y-105294246D03*
X86220000Y-103676246D03*
X92570000Y-95548246D03*
X82283000Y-106343246D03*
X80505000Y-107232246D03*
X82283000Y-109010246D03*
X97904000Y-96437246D03*
X81394000Y-105454246D03*
X87109000Y-103676246D03*
X95237000Y-93770246D03*
X94348000Y-93770246D03*
X90665000Y-99231246D03*
X79616000Y-106343246D03*
X81394000Y-108121246D03*
X85331000Y-102787246D03*
X82283000Y-108121246D03*
X80505000Y-109010246D03*
X90665000Y-101009246D03*
X97904000Y-97326246D03*
X81394000Y-107232246D03*
X97015000Y-97326246D03*
X80505000Y-106343246D03*
X96126000Y-94659246D03*
X95237000Y-96437246D03*
X90665000Y-101898246D03*
X80505000Y-105454246D03*
%TO.N,Vref_5V*%
X96761000Y-124471246D03*
%TO.N,/Conversor/Medici\u00F3n corriente/Current_In*%
X119684000Y-116089246D03*
X118922000Y-114565246D03*
X119684000Y-115327246D03*
X118160000Y-116089246D03*
X119684000Y-114565246D03*
X118160000Y-114565246D03*
X118922000Y-116089246D03*
X118160000Y-115327246D03*
X118922000Y-115327246D03*
X119684000Y-116851246D03*
X118922000Y-116851246D03*
X118160000Y-116851246D03*
%TO.N,Net-(R39-Pad1)*%
X102603000Y-129170246D03*
%TO.N,Net-(D3-A2)*%
X133273000Y-122439246D03*
X132511000Y-122439246D03*
X134035000Y-121677246D03*
X133273000Y-123201246D03*
X134035000Y-122439246D03*
X132511000Y-121677246D03*
X133273000Y-121677246D03*
X134035000Y-123201246D03*
X132511000Y-123201246D03*
%TO.N,/Conversor/Gnd_Inv*%
X119938000Y-104913246D03*
X119176000Y-105675246D03*
X119938000Y-106437246D03*
X119176000Y-106437246D03*
X119176000Y-104913246D03*
X119938000Y-105675246D03*
X118414000Y-106437246D03*
X118414000Y-105675246D03*
X118414000Y-104913246D03*
%TD*%
D41*
%TO.N,Net-(D3-K)*%
X142257000Y-99485246D02*
X138988000Y-99485246D01*
X142417000Y-99325246D02*
X142257000Y-99485246D01*
D42*
%TO.N,GND_Cnv*%
X89014000Y-121573746D02*
X89014000Y-127933246D01*
X88125000Y-114311246D02*
X88125000Y-118946746D01*
X87490000Y-129457246D02*
X89014000Y-127933246D01*
X90538000Y-111898246D02*
X88125000Y-114311246D01*
X90538000Y-111183246D02*
X90538000Y-111898246D01*
X88125000Y-119541746D02*
X88990500Y-120407246D01*
D43*
X74028000Y-77575014D02*
X74856232Y-78403246D01*
D42*
X88990500Y-120915246D02*
X88990500Y-120407246D01*
D43*
X74856232Y-78403246D02*
X76568000Y-78403246D01*
X76568000Y-78657246D02*
X78133000Y-80222246D01*
X82791000Y-63671246D02*
X82791000Y-68497246D01*
D42*
X82410000Y-132599246D02*
X87490000Y-132599246D01*
D43*
X82410000Y-62528246D02*
X83934000Y-62528246D01*
X82791000Y-68497246D02*
X81013000Y-70275246D01*
X76568000Y-56686246D02*
X82410000Y-62528246D01*
D42*
X88990500Y-121550246D02*
X88990500Y-120915246D01*
X88125000Y-118946746D02*
X88125000Y-119541746D01*
X89649000Y-139871246D02*
X87490000Y-137712246D01*
D43*
X75552000Y-70275246D02*
X74028000Y-71799246D01*
X83934000Y-62528246D02*
X82791000Y-63671246D01*
X79149000Y-80222246D02*
X83172000Y-84245246D01*
X78133000Y-80222246D02*
X79149000Y-80222246D01*
X83934000Y-62528246D02*
X84061000Y-62401246D01*
X74028000Y-71799246D02*
X74028000Y-77575014D01*
X84061000Y-62401246D02*
X85966000Y-62401246D01*
D42*
X87490000Y-132599246D02*
X87490000Y-129457246D01*
X87490000Y-137712246D02*
X87490000Y-132599246D01*
D43*
X83172000Y-84245246D02*
X85989000Y-84245246D01*
D42*
X88990500Y-121550246D02*
X89014000Y-121573746D01*
X89649000Y-139871246D02*
X89649000Y-144283246D01*
D43*
X76568000Y-78403246D02*
X76568000Y-78657246D01*
X81013000Y-70275246D02*
X75552000Y-70275246D01*
%TO.N,Net-(C3-Pad1)*%
X66916000Y-102627246D02*
X69691000Y-102627246D01*
X63741000Y-105802246D02*
X66916000Y-102627246D01*
X69723000Y-102659246D02*
X69755000Y-102627246D01*
X65836000Y-119010246D02*
X65836000Y-124090246D01*
X69691000Y-102627246D02*
X69723000Y-102659246D01*
X63741000Y-113454396D02*
X63741000Y-105802246D01*
%TO.N,Net-(D5-A)*%
X116067000Y-130785246D02*
X116067000Y-127900246D01*
X118262000Y-132980246D02*
X116067000Y-130785246D01*
X128066000Y-127964246D02*
X128066000Y-135965246D01*
X129209000Y-107582246D02*
X129209000Y-126821246D01*
X130735000Y-106056246D02*
X129209000Y-107582246D01*
X128066000Y-135965246D02*
X128003000Y-136028246D01*
X126893000Y-132980246D02*
X118262000Y-132980246D01*
D42*
X124002000Y-106056246D02*
X130735000Y-106056246D01*
D43*
X129209000Y-126821246D02*
X128066000Y-127964246D01*
D42*
%TO.N,12V_Cnv*%
X92189000Y-144283246D02*
X92189000Y-139203246D01*
X85839000Y-145553246D02*
X86728000Y-146442246D01*
X86728000Y-146442246D02*
X91554000Y-146442246D01*
X92189000Y-145807246D02*
X92189000Y-144283246D01*
X91554000Y-146442246D02*
X92189000Y-145807246D01*
X83934000Y-145553246D02*
X85839000Y-145553246D01*
D43*
%TO.N,Net-(C4-Pad1)*%
X96333000Y-98516246D02*
X102857000Y-91992246D01*
X85839000Y-106353492D02*
X85839000Y-104151246D01*
X85839000Y-104151246D02*
X91474000Y-98516246D01*
X73329000Y-124090246D02*
X73329000Y-119010246D01*
D42*
%TO.N,Net-(U11-FILTER)*%
X115557000Y-122693246D02*
X115557000Y-121231246D01*
X105397000Y-131482746D02*
X112599000Y-124280746D01*
X112599000Y-124280746D02*
X113969500Y-124280746D01*
X113969500Y-124280746D02*
X115557000Y-122693246D01*
%TO.N,GND_HMI*%
X103111000Y-134294246D02*
X105099000Y-134294246D01*
X110096000Y-129551246D02*
X110096000Y-132091246D01*
X106286000Y-146315246D02*
X109334000Y-146315246D01*
X105397000Y-135319246D02*
X105397000Y-134592246D01*
X110096000Y-132091246D02*
X110096000Y-135266246D01*
X105651000Y-145680246D02*
X106286000Y-146315246D01*
X116827000Y-122947246D02*
X116827000Y-121231246D01*
X110096000Y-135266246D02*
X110043000Y-135319246D01*
X113207500Y-125296746D02*
X114477500Y-125296746D01*
X105397000Y-134592246D02*
X105099000Y-134294246D01*
X105651000Y-144410246D02*
X105651000Y-145680246D01*
X110096000Y-128408246D02*
X113207500Y-125296746D01*
X105397000Y-133996246D02*
X105397000Y-133207746D01*
X110096000Y-145553246D02*
X110096000Y-132091246D01*
X105099000Y-134294246D02*
X105397000Y-133996246D01*
X110043000Y-135319246D02*
X105397000Y-135319246D01*
X114477500Y-125296746D02*
X116827000Y-122947246D01*
X109334000Y-146315246D02*
X110096000Y-145553246D01*
X110096000Y-129551246D02*
X110096000Y-128408246D01*
%TO.N,Vref_5V*%
X93078000Y-120915246D02*
X93078000Y-106437246D01*
X96634000Y-124471246D02*
X93078000Y-120915246D01*
X93078000Y-106437246D02*
X90538000Y-103897246D01*
X96761000Y-124471246D02*
X96634000Y-124471246D01*
%TO.N,Net-(U13-REF)*%
X105832800Y-105233046D02*
X107212000Y-106612246D01*
X101988800Y-102706946D02*
X101988800Y-104407128D01*
X102814718Y-105233046D02*
X105832800Y-105233046D01*
X101988800Y-104407128D02*
X102814718Y-105233046D01*
X102830500Y-101865246D02*
X108191000Y-101865246D01*
X107212000Y-106612246D02*
X109389500Y-106612246D01*
X102830500Y-101865246D02*
X101988800Y-102706946D01*
X109389500Y-106612246D02*
X109588000Y-106413746D01*
%TO.N,Net-(C17-Pad2)*%
X98158000Y-103897246D02*
X101055500Y-103897246D01*
X101055500Y-103770246D02*
X101055500Y-103897246D01*
X101132000Y-102145746D02*
X101132000Y-103820746D01*
X101105500Y-101865246D02*
X101105500Y-102119246D01*
X101105500Y-102119246D02*
X101132000Y-102145746D01*
X101132000Y-103820746D02*
X101055500Y-103897246D01*
%TO.N,Net-(C18-Pad2)*%
X101359500Y-112533246D02*
X101359500Y-112787246D01*
X101386000Y-114488746D02*
X101309500Y-114565246D01*
X101359500Y-112787246D02*
X101386000Y-112813746D01*
X98412000Y-114565246D02*
X101309500Y-114565246D01*
X101309500Y-114438246D02*
X101309500Y-114565246D01*
X101386000Y-112813746D02*
X101386000Y-114488746D01*
%TO.N,Net-(U15-REF)*%
X106086800Y-115901046D02*
X107466000Y-117280246D01*
X109643500Y-117280246D02*
X109842000Y-117081746D01*
X103084500Y-112533246D02*
X108445000Y-112533246D01*
X102242800Y-113374946D02*
X102242800Y-115075128D01*
X102242800Y-115075128D02*
X103068718Y-115901046D01*
X107466000Y-117280246D02*
X109643500Y-117280246D01*
X103068718Y-115901046D02*
X106086800Y-115901046D01*
X103084500Y-112533246D02*
X102242800Y-113374946D01*
%TO.N,5V_HMI*%
X102381894Y-132091246D02*
X101460000Y-133013140D01*
X109207000Y-125360246D02*
X102476000Y-132091246D01*
X101460000Y-133013140D02*
X101460000Y-135843252D01*
X102476000Y-132091246D02*
X102381894Y-132091246D01*
X113017000Y-121231246D02*
X111812000Y-121231246D01*
X102660994Y-137044246D02*
X106540000Y-137044246D01*
X106540000Y-137044246D02*
X108191000Y-138695246D01*
X108191000Y-138695246D02*
X108191000Y-144410246D01*
X101460000Y-135843252D02*
X102660994Y-137044246D01*
X111812000Y-121231246D02*
X109207000Y-123836246D01*
X109207000Y-123836246D02*
X109207000Y-125360246D01*
%TO.N,VSens_Corriente*%
X99776000Y-133234246D02*
X94856000Y-128314246D01*
X103111000Y-139794246D02*
X103111000Y-139203246D01*
X103111000Y-144410246D02*
X103111000Y-139794246D01*
X99809000Y-133234246D02*
X99776000Y-133234246D01*
X106921000Y-124598246D02*
X108398000Y-124598246D01*
X105905000Y-127138246D02*
X105905000Y-125614246D01*
X103111000Y-139203246D02*
X99809000Y-135901246D01*
X99809000Y-133234246D02*
X100063000Y-132980246D01*
X105905000Y-125614246D02*
X106921000Y-124598246D01*
X99809000Y-135901246D02*
X99809000Y-133234246D01*
X100063000Y-132980246D02*
X105905000Y-127138246D01*
%TO.N,Net-(U11-VIOUT)*%
X114287000Y-122566246D02*
X113588500Y-123264746D01*
X111453000Y-123264746D02*
X110119500Y-124598246D01*
X113588500Y-123264746D02*
X111453000Y-123264746D01*
X114287000Y-122566246D02*
X114287000Y-121231246D01*
D43*
%TO.N,V_HVBus*%
X113525000Y-114438246D02*
X113525000Y-112533246D01*
D42*
X110016000Y-101865246D02*
X110016000Y-103897246D01*
X110858000Y-99579246D02*
X112128000Y-99579246D01*
X110270000Y-112533246D02*
X110270000Y-113549246D01*
X110016000Y-101865246D02*
X110016000Y-100421246D01*
D43*
X113525000Y-111136246D02*
X114795000Y-109866246D01*
D42*
X110016000Y-100421246D02*
X110858000Y-99579246D01*
D43*
X113525000Y-112533246D02*
X113525000Y-111136246D01*
D42*
X110270000Y-112533246D02*
X113525000Y-112533246D01*
D43*
X114795000Y-102246246D02*
X112128000Y-99579246D01*
D42*
X110270000Y-113549246D02*
X110270000Y-114565246D01*
D43*
X114795000Y-109866246D02*
X114795000Y-102246246D01*
D42*
%TO.N,Net-(R36-Pad1)*%
X106460000Y-103897246D02*
X108191000Y-103897246D01*
%TO.N,Net-(R37-Pad1)*%
X104635000Y-103897246D02*
X102880500Y-103897246D01*
%TO.N,Net-(R39-Pad1)*%
X102603000Y-129170246D02*
X102603000Y-128662246D01*
X102476000Y-128535246D02*
X98666000Y-128535246D01*
X92189000Y-122058246D02*
X92189000Y-109715746D01*
X102603000Y-128662246D02*
X102476000Y-128535246D01*
X90538000Y-108064746D02*
X90538000Y-109358246D01*
X90538000Y-106437246D02*
X90538000Y-108064746D01*
X91831500Y-109358246D02*
X90538000Y-109358246D01*
X92189000Y-109715746D02*
X91831500Y-109358246D01*
X98666000Y-128535246D02*
X92189000Y-122058246D01*
%TO.N,Net-(R44-Pad1)*%
X104889000Y-114565246D02*
X103134500Y-114565246D01*
%TO.N,Net-(R46-Pad1)*%
X90792000Y-122091246D02*
X91427000Y-122726246D01*
X90792000Y-117105246D02*
X90792000Y-122091246D01*
X91427000Y-122726246D02*
X91427000Y-123337746D01*
%TO.N,Net-(R43-Pad1)*%
X106714000Y-114565246D02*
X108445000Y-114565246D01*
%TO.N,Net-(U13-K)*%
X107212000Y-109612246D02*
X101206000Y-109612246D01*
X99555000Y-106437246D02*
X98158000Y-106437246D01*
X100571000Y-107453246D02*
X99555000Y-106437246D01*
X100571000Y-108977246D02*
X100571000Y-107453246D01*
X101206000Y-109612246D02*
X100571000Y-108977246D01*
%TO.N,Net-(U15-K)*%
X100825000Y-118121246D02*
X99809000Y-117105246D01*
X100825000Y-119645246D02*
X100825000Y-118121246D01*
X99809000Y-117105246D02*
X98412000Y-117105246D01*
X101460000Y-120280246D02*
X100825000Y-119645246D01*
X107466000Y-120280246D02*
X101460000Y-120280246D01*
D43*
%TO.N,Net-(Pwr+1-Pin_1)*%
X67551000Y-135076246D02*
X65836000Y-133361246D01*
X65836000Y-133361246D02*
X65836000Y-128281246D01*
X67551000Y-141616246D02*
X67551000Y-135076246D01*
%TO.N,Net-(Pwr+2-Pin_1)*%
X77330000Y-141616246D02*
X77330000Y-137362246D01*
X77330000Y-137362246D02*
X73329000Y-133361246D01*
X73329000Y-133361246D02*
X73329000Y-128281246D01*
%TO.N,Net-(D3-A2)*%
X132067000Y-96120246D02*
X134670000Y-98723246D01*
X139941000Y-74466246D02*
X136258000Y-74466246D01*
X132067000Y-85515246D02*
X132067000Y-96120246D01*
X136258000Y-74466246D02*
X134670000Y-76054246D01*
X134670000Y-114946246D02*
X133273000Y-116343246D01*
X134670000Y-76054246D02*
X134670000Y-82912246D01*
X134670000Y-82912246D02*
X132067000Y-85515246D01*
X133273000Y-116343246D02*
X133273000Y-123201246D01*
X134670000Y-98723246D02*
X134670000Y-114946246D01*
D42*
%TO.N,3V3_HMI*%
X89141000Y-115200246D02*
X89141000Y-119010246D01*
X91380000Y-129283246D02*
X96968000Y-134871246D01*
X96968000Y-137632246D02*
X98031000Y-138695246D01*
X98031000Y-138695246D02*
X98031000Y-144410246D01*
X90792000Y-114565246D02*
X89776000Y-114565246D01*
X96968000Y-134871246D02*
X96968000Y-137632246D01*
X89141000Y-119010246D02*
X89903000Y-119772246D01*
X89776000Y-114565246D02*
X89141000Y-115200246D01*
X89903000Y-119772246D02*
X89903000Y-125647246D01*
X91380000Y-127124246D02*
X91380000Y-129283246D01*
X89903000Y-125647246D02*
X91380000Y-127124246D01*
%TO.N,Vsens_HV_HMI*%
X92332500Y-126790246D02*
X92332500Y-128965746D01*
X100571000Y-138949246D02*
X100571000Y-144410246D01*
X97984000Y-136362246D02*
X100571000Y-138949246D01*
X91427000Y-125162746D02*
X91427000Y-125884746D01*
X97984000Y-134617246D02*
X97984000Y-136362246D01*
X92332500Y-128965746D02*
X97984000Y-134617246D01*
X91427000Y-125884746D02*
X92332500Y-126790246D01*
%TO.N,/Conversor/Gnd_Inv*%
X96699694Y-104659246D02*
X96699694Y-103320858D01*
D43*
X140639000Y-110247246D02*
X142417000Y-110247246D01*
X138988000Y-130123246D02*
X138988000Y-120915246D01*
D42*
X114033000Y-96404246D02*
X117208000Y-99579246D01*
X99679306Y-100341246D02*
X106095000Y-100341246D01*
X101206000Y-122058246D02*
X107734057Y-122058246D01*
X110032000Y-96404246D02*
X114033000Y-96404246D01*
X100636694Y-105233046D02*
X97273494Y-105233046D01*
X123621000Y-145426246D02*
X128605000Y-145426246D01*
X96697000Y-117549246D02*
X101206000Y-122058246D01*
X96699694Y-103320858D02*
X99679306Y-100341246D01*
D43*
X138003000Y-136028246D02*
X138003000Y-131108246D01*
X138988000Y-120915246D02*
X140004000Y-120915246D01*
D42*
X96697000Y-105358246D02*
X96697000Y-117549246D01*
X109842000Y-119950303D02*
X109842000Y-118906745D01*
D43*
X140004000Y-120915246D02*
X140131000Y-121042246D01*
X139115000Y-111771246D02*
X140639000Y-110247246D01*
X138988000Y-120915246D02*
X138988000Y-111771246D01*
D42*
X107378500Y-118780246D02*
X108234000Y-118780246D01*
X107124500Y-108112246D02*
X103515894Y-108112246D01*
X109461000Y-108111746D02*
X109588000Y-108238746D01*
X108234500Y-118779746D02*
X109715000Y-118779746D01*
D43*
X138988000Y-111771246D02*
X139115000Y-111771246D01*
X138003000Y-131108246D02*
X138988000Y-130123246D01*
D42*
X107124500Y-108112246D02*
X107980000Y-108112246D01*
X108234000Y-118780246D02*
X108234500Y-118779746D01*
X123494000Y-145299246D02*
X123621000Y-145426246D01*
X107980500Y-108111746D02*
X109461000Y-108111746D01*
X103515894Y-108112246D02*
X100636694Y-105233046D01*
X107980000Y-108112246D02*
X107980500Y-108111746D01*
X109715000Y-118779746D02*
X109842000Y-118906746D01*
D43*
X140131000Y-121042246D02*
X142417000Y-121042246D01*
X119176000Y-106437246D02*
X119176000Y-101547246D01*
D42*
X97047847Y-105007399D02*
X96697000Y-105358246D01*
X97273494Y-105233046D02*
X97047847Y-105007399D01*
X109945501Y-119010246D02*
X109842000Y-118906745D01*
D43*
X119176000Y-101547246D02*
X117208000Y-99579246D01*
D42*
X107734057Y-122058246D02*
X109842000Y-119950303D01*
X97047847Y-105007399D02*
X96699694Y-104659246D01*
X106095000Y-100341246D02*
X110032000Y-96404246D01*
X128605000Y-145426246D02*
X138003000Y-136028246D01*
%TD*%
%TA.AperFunction,Conductor*%
%TO.N,GND_Cnv*%
G36*
X84996177Y-48735431D02*
G01*
X85016819Y-48752065D01*
X87326681Y-51061927D01*
X87360166Y-51123250D01*
X87363000Y-51149608D01*
X87363000Y-61405900D01*
X87343315Y-61472939D01*
X87290511Y-61518694D01*
X87221353Y-61528638D01*
X87157797Y-61499613D01*
X87138683Y-61478787D01*
X87121405Y-61455006D01*
X86959742Y-61293343D01*
X86774776Y-61158957D01*
X86571068Y-61055163D01*
X86353625Y-60984511D01*
X86353626Y-60984511D01*
X86216000Y-60962713D01*
X86216000Y-61910498D01*
X86178292Y-61888728D01*
X86038409Y-61851246D01*
X85893591Y-61851246D01*
X85753708Y-61888728D01*
X85716000Y-61910498D01*
X85716000Y-60962713D01*
X85578374Y-60984511D01*
X85360931Y-61055163D01*
X85157223Y-61158957D01*
X84972257Y-61293343D01*
X84810597Y-61455003D01*
X84676211Y-61639969D01*
X84572417Y-61843675D01*
X84501765Y-62061117D01*
X84487491Y-62151246D01*
X85475252Y-62151246D01*
X85453482Y-62188954D01*
X85416000Y-62328837D01*
X85416000Y-62473655D01*
X85453482Y-62613538D01*
X85475252Y-62651246D01*
X84487491Y-62651246D01*
X84501765Y-62741374D01*
X84572417Y-62958816D01*
X84676211Y-63162522D01*
X84810597Y-63347488D01*
X84972257Y-63509148D01*
X85157223Y-63643534D01*
X85324623Y-63728829D01*
X85375419Y-63776804D01*
X85392214Y-63844625D01*
X85369677Y-63910759D01*
X85324625Y-63949798D01*
X85314195Y-63955112D01*
X85230426Y-64015974D01*
X85167371Y-64061787D01*
X85167369Y-64061789D01*
X85167368Y-64061789D01*
X85039043Y-64190114D01*
X85039043Y-64190115D01*
X85039041Y-64190117D01*
X84993228Y-64253172D01*
X84932366Y-64336941D01*
X84849971Y-64498650D01*
X84793891Y-64671246D01*
X84793891Y-64671249D01*
X84765500Y-64850503D01*
X84765500Y-65031988D01*
X84793891Y-65211242D01*
X84793891Y-65211245D01*
X84849971Y-65383841D01*
X84849973Y-65383844D01*
X84932366Y-65545550D01*
X85039041Y-65692375D01*
X85167371Y-65820705D01*
X85314196Y-65927380D01*
X85475902Y-66009773D01*
X85475904Y-66009774D01*
X85648501Y-66065854D01*
X85648502Y-66065854D01*
X85648505Y-66065855D01*
X85736371Y-66079771D01*
X85749006Y-66081773D01*
X85812141Y-66111702D01*
X85849072Y-66171014D01*
X85848074Y-66240876D01*
X85809464Y-66299109D01*
X85745501Y-66327223D01*
X85729608Y-66328246D01*
X84946247Y-66328246D01*
X84887770Y-66339877D01*
X84887769Y-66339878D01*
X84821447Y-66384193D01*
X84777132Y-66450515D01*
X84777131Y-66450516D01*
X84765500Y-66508993D01*
X84765500Y-68453498D01*
X84777131Y-68511975D01*
X84777132Y-68511976D01*
X84821447Y-68578298D01*
X84887769Y-68622613D01*
X84887770Y-68622614D01*
X84946247Y-68634245D01*
X84946250Y-68634246D01*
X84946252Y-68634246D01*
X86985750Y-68634246D01*
X86985751Y-68634245D01*
X87000568Y-68631298D01*
X87044229Y-68622614D01*
X87044229Y-68622613D01*
X87044231Y-68622613D01*
X87110552Y-68578298D01*
X87135898Y-68540366D01*
X87189510Y-68495561D01*
X87258835Y-68486854D01*
X87321863Y-68517009D01*
X87358582Y-68576452D01*
X87363000Y-68609257D01*
X87363000Y-83218831D01*
X87343315Y-83285870D01*
X87290511Y-83331625D01*
X87221353Y-83341569D01*
X87157797Y-83312544D01*
X87144716Y-83299370D01*
X87144405Y-83299006D01*
X86982742Y-83137343D01*
X86797776Y-83002957D01*
X86594068Y-82899163D01*
X86376625Y-82828511D01*
X86376626Y-82828511D01*
X86239000Y-82806713D01*
X86239000Y-83754498D01*
X86201292Y-83732728D01*
X86061409Y-83695246D01*
X85916591Y-83695246D01*
X85776708Y-83732728D01*
X85739000Y-83754498D01*
X85739000Y-82806713D01*
X85601374Y-82828511D01*
X85383931Y-82899163D01*
X85180223Y-83002957D01*
X84995257Y-83137343D01*
X84833597Y-83299003D01*
X84699211Y-83483969D01*
X84595417Y-83687675D01*
X84524765Y-83905117D01*
X84510491Y-83995246D01*
X85498252Y-83995246D01*
X85476482Y-84032954D01*
X85439000Y-84172837D01*
X85439000Y-84317655D01*
X85476482Y-84457538D01*
X85498252Y-84495246D01*
X84510491Y-84495246D01*
X84524765Y-84585374D01*
X84595417Y-84802816D01*
X84699211Y-85006522D01*
X84833597Y-85191488D01*
X84995257Y-85353148D01*
X85180223Y-85487534D01*
X85347623Y-85572829D01*
X85398419Y-85620804D01*
X85415214Y-85688625D01*
X85392677Y-85754759D01*
X85347625Y-85793798D01*
X85337195Y-85799112D01*
X85253426Y-85859974D01*
X85190371Y-85905787D01*
X85190369Y-85905789D01*
X85190368Y-85905789D01*
X85062043Y-86034114D01*
X85062043Y-86034115D01*
X85062041Y-86034117D01*
X85016228Y-86097172D01*
X84955366Y-86180941D01*
X84872971Y-86342650D01*
X84816891Y-86515246D01*
X84816891Y-86515249D01*
X84788500Y-86694503D01*
X84788500Y-86875988D01*
X84816891Y-87055242D01*
X84816891Y-87055245D01*
X84872971Y-87227841D01*
X84872973Y-87227844D01*
X84955366Y-87389550D01*
X85062041Y-87536375D01*
X85190371Y-87664705D01*
X85337196Y-87771380D01*
X85498902Y-87853773D01*
X85498904Y-87853774D01*
X85671501Y-87909854D01*
X85671502Y-87909854D01*
X85671505Y-87909855D01*
X85759371Y-87923771D01*
X85772006Y-87925773D01*
X85835141Y-87955702D01*
X85872072Y-88015014D01*
X85871074Y-88084876D01*
X85832464Y-88143109D01*
X85768501Y-88171223D01*
X85752608Y-88172246D01*
X84969247Y-88172246D01*
X84910770Y-88183877D01*
X84910769Y-88183878D01*
X84844447Y-88228193D01*
X84800132Y-88294515D01*
X84800131Y-88294516D01*
X84788500Y-88352993D01*
X84788500Y-90297498D01*
X84800131Y-90355975D01*
X84800132Y-90355976D01*
X84844447Y-90422298D01*
X84910769Y-90466613D01*
X84910770Y-90466614D01*
X84969247Y-90478245D01*
X84969250Y-90478246D01*
X84969252Y-90478246D01*
X87008750Y-90478246D01*
X87008751Y-90478245D01*
X87023568Y-90475298D01*
X87067229Y-90466614D01*
X87067229Y-90466613D01*
X87067231Y-90466613D01*
X87133552Y-90422298D01*
X87135897Y-90418789D01*
X87189508Y-90373983D01*
X87258833Y-90365274D01*
X87321861Y-90395428D01*
X87358581Y-90454870D01*
X87363000Y-90487678D01*
X87363000Y-90543884D01*
X87343315Y-90610923D01*
X87326681Y-90631565D01*
X85204000Y-92754245D01*
X85204000Y-92956884D01*
X85184315Y-93023923D01*
X85167681Y-93044565D01*
X79144319Y-99067927D01*
X79082996Y-99101412D01*
X79056638Y-99104246D01*
X61125362Y-99104246D01*
X61095921Y-99095601D01*
X61065935Y-99089078D01*
X61060919Y-99085323D01*
X61058323Y-99084561D01*
X61037681Y-99067927D01*
X60983319Y-99013565D01*
X60949834Y-98952242D01*
X60947000Y-98925884D01*
X60947000Y-95396582D01*
X62142500Y-95396582D01*
X62142500Y-95699909D01*
X62176457Y-96001294D01*
X62176460Y-96001308D01*
X62243953Y-96297017D01*
X62243957Y-96297029D01*
X62344133Y-96583314D01*
X62475733Y-96856584D01*
X62475735Y-96856587D01*
X62637108Y-97113410D01*
X62826221Y-97350550D01*
X63040696Y-97565025D01*
X63277836Y-97754138D01*
X63534659Y-97915511D01*
X63807935Y-98047114D01*
X63977088Y-98106303D01*
X64094216Y-98147288D01*
X64094228Y-98147292D01*
X64389937Y-98214786D01*
X64389946Y-98214787D01*
X64389951Y-98214788D01*
X64590874Y-98237426D01*
X64691337Y-98248745D01*
X64691340Y-98248746D01*
X64691343Y-98248746D01*
X64994660Y-98248746D01*
X64994661Y-98248745D01*
X65148694Y-98231390D01*
X65296048Y-98214788D01*
X65296051Y-98214787D01*
X65296063Y-98214786D01*
X65591772Y-98147292D01*
X65878065Y-98047114D01*
X66151341Y-97915511D01*
X66408164Y-97754138D01*
X66645304Y-97565025D01*
X66859779Y-97350550D01*
X67048892Y-97113410D01*
X67210265Y-96856587D01*
X67341868Y-96583311D01*
X67442046Y-96297018D01*
X67509540Y-96001309D01*
X67543500Y-95699903D01*
X67543500Y-95396589D01*
X67532180Y-95296120D01*
X67509542Y-95095197D01*
X67509541Y-95095192D01*
X67509540Y-95095183D01*
X67442046Y-94799474D01*
X67341868Y-94513181D01*
X67210265Y-94239905D01*
X67048892Y-93983082D01*
X66859779Y-93745942D01*
X66645304Y-93531467D01*
X66408164Y-93342354D01*
X66151341Y-93180981D01*
X66151338Y-93180979D01*
X65878068Y-93049379D01*
X65591783Y-92949203D01*
X65591771Y-92949199D01*
X65363556Y-92897110D01*
X65296063Y-92881706D01*
X65296060Y-92881705D01*
X65296048Y-92881703D01*
X64994663Y-92847746D01*
X64994657Y-92847746D01*
X64691343Y-92847746D01*
X64691336Y-92847746D01*
X64389951Y-92881703D01*
X64389937Y-92881706D01*
X64094228Y-92949199D01*
X64094216Y-92949203D01*
X63807931Y-93049379D01*
X63534661Y-93180979D01*
X63277837Y-93342353D01*
X63040696Y-93531466D01*
X62826220Y-93745942D01*
X62637107Y-93983083D01*
X62475733Y-94239907D01*
X62344133Y-94513177D01*
X62243957Y-94799462D01*
X62243953Y-94799474D01*
X62176460Y-95095183D01*
X62176457Y-95095197D01*
X62142500Y-95396582D01*
X60947000Y-95396582D01*
X60947000Y-89467795D01*
X63310500Y-89467795D01*
X63310500Y-89690696D01*
X63310501Y-89690712D01*
X63339594Y-89911698D01*
X63339595Y-89911703D01*
X63339596Y-89911709D01*
X63339597Y-89911711D01*
X63397290Y-90127026D01*
X63397293Y-90127036D01*
X63467901Y-90297498D01*
X63482595Y-90332972D01*
X63594052Y-90526020D01*
X63594057Y-90526026D01*
X63594058Y-90526028D01*
X63729751Y-90702868D01*
X63729757Y-90702875D01*
X63887370Y-90860488D01*
X63887376Y-90860493D01*
X64064226Y-90996194D01*
X64257274Y-91107651D01*
X64463219Y-91192956D01*
X64678537Y-91250650D01*
X64899543Y-91279746D01*
X64899550Y-91279746D01*
X65122450Y-91279746D01*
X65122457Y-91279746D01*
X65343463Y-91250650D01*
X65558781Y-91192956D01*
X65764726Y-91107651D01*
X65957774Y-90996194D01*
X66134624Y-90860493D01*
X66292247Y-90702870D01*
X66427948Y-90526020D01*
X66539405Y-90332972D01*
X66624710Y-90127027D01*
X66682404Y-89911709D01*
X66711500Y-89690703D01*
X66711500Y-89467789D01*
X66682404Y-89246783D01*
X66624710Y-89031465D01*
X66539405Y-88825520D01*
X66427948Y-88632472D01*
X66292247Y-88455622D01*
X66292242Y-88455616D01*
X66134629Y-88298003D01*
X66134622Y-88297997D01*
X65957782Y-88162304D01*
X65957780Y-88162303D01*
X65957774Y-88162298D01*
X65764726Y-88050841D01*
X65764722Y-88050839D01*
X65558790Y-87965539D01*
X65558783Y-87965537D01*
X65558781Y-87965536D01*
X65343463Y-87907842D01*
X65343457Y-87907841D01*
X65343452Y-87907840D01*
X65122466Y-87878747D01*
X65122463Y-87878746D01*
X65122457Y-87878746D01*
X64899543Y-87878746D01*
X64899537Y-87878746D01*
X64899533Y-87878747D01*
X64678547Y-87907840D01*
X64678540Y-87907841D01*
X64678537Y-87907842D01*
X64499920Y-87955702D01*
X64463219Y-87965536D01*
X64463209Y-87965539D01*
X64257277Y-88050839D01*
X64257273Y-88050841D01*
X64064226Y-88162298D01*
X64064217Y-88162304D01*
X63887377Y-88297997D01*
X63887370Y-88298003D01*
X63729757Y-88455616D01*
X63729751Y-88455623D01*
X63594058Y-88632463D01*
X63594052Y-88632472D01*
X63482595Y-88825519D01*
X63482593Y-88825523D01*
X63397293Y-89031455D01*
X63397290Y-89031465D01*
X63339597Y-89246780D01*
X63339594Y-89246793D01*
X63310501Y-89467779D01*
X63310500Y-89467795D01*
X60947000Y-89467795D01*
X60947000Y-86654118D01*
X67328500Y-86654118D01*
X67328500Y-86916373D01*
X67346784Y-87055242D01*
X67362730Y-87176362D01*
X67430602Y-87429664D01*
X67430605Y-87429674D01*
X67530953Y-87671936D01*
X67530958Y-87671946D01*
X67662075Y-87899049D01*
X67821718Y-88107097D01*
X67821726Y-88107106D01*
X68007140Y-88292520D01*
X68007148Y-88292527D01*
X68007149Y-88292528D01*
X68014279Y-88297999D01*
X68215196Y-88452170D01*
X68442299Y-88583287D01*
X68442309Y-88583292D01*
X68684571Y-88683640D01*
X68684581Y-88683644D01*
X68937884Y-88751516D01*
X69197880Y-88785746D01*
X69197887Y-88785746D01*
X69460113Y-88785746D01*
X69460120Y-88785746D01*
X69720116Y-88751516D01*
X69973419Y-88683644D01*
X70215697Y-88583289D01*
X70442803Y-88452170D01*
X70650851Y-88292528D01*
X70650855Y-88292523D01*
X70650860Y-88292520D01*
X70836274Y-88107106D01*
X70836277Y-88107101D01*
X70836282Y-88107097D01*
X70995924Y-87899049D01*
X71127043Y-87671943D01*
X71227398Y-87429665D01*
X71295270Y-87176362D01*
X71329500Y-86916366D01*
X71329500Y-86654126D01*
X71295270Y-86394130D01*
X71227398Y-86140827D01*
X71227394Y-86140817D01*
X71127046Y-85898555D01*
X71127041Y-85898545D01*
X70995924Y-85671442D01*
X70836281Y-85463394D01*
X70836274Y-85463386D01*
X70650860Y-85277972D01*
X70650851Y-85277964D01*
X70442803Y-85118321D01*
X70215700Y-84987204D01*
X70215690Y-84987199D01*
X69973428Y-84886851D01*
X69973421Y-84886849D01*
X69973419Y-84886848D01*
X69720116Y-84818976D01*
X69662339Y-84811369D01*
X69460127Y-84784746D01*
X69460120Y-84784746D01*
X69197880Y-84784746D01*
X69197872Y-84784746D01*
X68966772Y-84815172D01*
X68937884Y-84818976D01*
X68684581Y-84886848D01*
X68684571Y-84886851D01*
X68442309Y-84987199D01*
X68442299Y-84987204D01*
X68215196Y-85118321D01*
X68007148Y-85277964D01*
X67821718Y-85463394D01*
X67662075Y-85671442D01*
X67530958Y-85898545D01*
X67530953Y-85898555D01*
X67430605Y-86140817D01*
X67430602Y-86140827D01*
X67376525Y-86342648D01*
X67362730Y-86394131D01*
X67328500Y-86654118D01*
X60947000Y-86654118D01*
X60947000Y-80323795D01*
X70041500Y-80323795D01*
X70041500Y-80546696D01*
X70041501Y-80546712D01*
X70070594Y-80767698D01*
X70070595Y-80767703D01*
X70070596Y-80767709D01*
X70070597Y-80767711D01*
X70128290Y-80983026D01*
X70128293Y-80983036D01*
X70164417Y-81070246D01*
X70213595Y-81188972D01*
X70325052Y-81382020D01*
X70325057Y-81382026D01*
X70325058Y-81382028D01*
X70460751Y-81558868D01*
X70460757Y-81558875D01*
X70618370Y-81716488D01*
X70618376Y-81716493D01*
X70795226Y-81852194D01*
X70988274Y-81963651D01*
X71194219Y-82048956D01*
X71409537Y-82106650D01*
X71630543Y-82135746D01*
X71630550Y-82135746D01*
X71853450Y-82135746D01*
X71853457Y-82135746D01*
X72074463Y-82106650D01*
X72289781Y-82048956D01*
X72495726Y-81963651D01*
X72688774Y-81852194D01*
X72865624Y-81716493D01*
X73023247Y-81558870D01*
X73158948Y-81382020D01*
X73270405Y-81188972D01*
X73355710Y-80983027D01*
X73413404Y-80767709D01*
X73442500Y-80546703D01*
X73442500Y-80323789D01*
X73413404Y-80102783D01*
X73355710Y-79887465D01*
X73336785Y-79841777D01*
X73270406Y-79681523D01*
X73270405Y-79681520D01*
X73158948Y-79488472D01*
X73119515Y-79437082D01*
X73023248Y-79311623D01*
X73023242Y-79311616D01*
X72865629Y-79154003D01*
X72865622Y-79153997D01*
X72688782Y-79018304D01*
X72688780Y-79018303D01*
X72688774Y-79018298D01*
X72495726Y-78906841D01*
X72495722Y-78906839D01*
X72289790Y-78821539D01*
X72289783Y-78821537D01*
X72289781Y-78821536D01*
X72074463Y-78763842D01*
X72074457Y-78763841D01*
X72074452Y-78763840D01*
X71886697Y-78739122D01*
X71886696Y-78739122D01*
X71853464Y-78734746D01*
X71853457Y-78734746D01*
X71630543Y-78734746D01*
X71630537Y-78734746D01*
X71630533Y-78734747D01*
X71409547Y-78763840D01*
X71409540Y-78763841D01*
X71409537Y-78763842D01*
X71194219Y-78821536D01*
X71194209Y-78821539D01*
X70988277Y-78906839D01*
X70988273Y-78906841D01*
X70795226Y-79018298D01*
X70795217Y-79018304D01*
X70618377Y-79153997D01*
X70618370Y-79154003D01*
X70460757Y-79311616D01*
X70460751Y-79311623D01*
X70325058Y-79488463D01*
X70325052Y-79488472D01*
X70213595Y-79681519D01*
X70213593Y-79681523D01*
X70128293Y-79887455D01*
X70128290Y-79887465D01*
X70070597Y-80102780D01*
X70070594Y-80102793D01*
X70041501Y-80323779D01*
X70041500Y-80323795D01*
X60947000Y-80323795D01*
X60947000Y-78153246D01*
X75089491Y-78153246D01*
X76077252Y-78153246D01*
X76055482Y-78190954D01*
X76018000Y-78330837D01*
X76018000Y-78475655D01*
X76055482Y-78615538D01*
X76077252Y-78653246D01*
X75089491Y-78653246D01*
X75103765Y-78743374D01*
X75174417Y-78960816D01*
X75278211Y-79164522D01*
X75412597Y-79349488D01*
X75574257Y-79511148D01*
X75759223Y-79645534D01*
X75962929Y-79749328D01*
X76180371Y-79819980D01*
X76318000Y-79841778D01*
X76318000Y-78893993D01*
X76355708Y-78915764D01*
X76495591Y-78953246D01*
X76640409Y-78953246D01*
X76780292Y-78915764D01*
X76818000Y-78893993D01*
X76818000Y-79841777D01*
X76955628Y-79819980D01*
X77173070Y-79749328D01*
X77376776Y-79645534D01*
X77561742Y-79511148D01*
X77723402Y-79349488D01*
X77857788Y-79164522D01*
X77961582Y-78960816D01*
X78032234Y-78743374D01*
X78046509Y-78653246D01*
X77058748Y-78653246D01*
X77080518Y-78615538D01*
X77118000Y-78475655D01*
X77118000Y-78330837D01*
X77080518Y-78190954D01*
X77058748Y-78153246D01*
X78046509Y-78153246D01*
X78032234Y-78063117D01*
X77961582Y-77845675D01*
X77857788Y-77641969D01*
X77723402Y-77457003D01*
X77561742Y-77295343D01*
X77376776Y-77160957D01*
X77209376Y-77075662D01*
X77158580Y-77027687D01*
X77141785Y-76959866D01*
X77164323Y-76893731D01*
X77209380Y-76854690D01*
X77219804Y-76849380D01*
X77366629Y-76742705D01*
X77494959Y-76614375D01*
X77601634Y-76467550D01*
X77684027Y-76305844D01*
X77740109Y-76133241D01*
X77768500Y-75953989D01*
X77768500Y-75772503D01*
X77740109Y-75593251D01*
X77740108Y-75593247D01*
X77740108Y-75593246D01*
X77684028Y-75420650D01*
X77625972Y-75306709D01*
X77601634Y-75258942D01*
X77494959Y-75112117D01*
X77366629Y-74983787D01*
X77219804Y-74877112D01*
X77191705Y-74862795D01*
X77058095Y-74794717D01*
X76885498Y-74738637D01*
X76784994Y-74722719D01*
X76721859Y-74692790D01*
X76684928Y-74633478D01*
X76685926Y-74563616D01*
X76724536Y-74505383D01*
X76788499Y-74477269D01*
X76804392Y-74476246D01*
X77587750Y-74476246D01*
X77587751Y-74476245D01*
X77602568Y-74473298D01*
X77646229Y-74464614D01*
X77646229Y-74464613D01*
X77646231Y-74464613D01*
X77712552Y-74420298D01*
X77756867Y-74353977D01*
X77756867Y-74353975D01*
X77756868Y-74353975D01*
X77768499Y-74295498D01*
X77768500Y-74295496D01*
X77768500Y-72350995D01*
X77768499Y-72350993D01*
X77756868Y-72292516D01*
X77756867Y-72292515D01*
X77712552Y-72226193D01*
X77646230Y-72181878D01*
X77646229Y-72181877D01*
X77587752Y-72170246D01*
X77587748Y-72170246D01*
X75548252Y-72170246D01*
X75548247Y-72170246D01*
X75489770Y-72181877D01*
X75489769Y-72181878D01*
X75423447Y-72226193D01*
X75379132Y-72292515D01*
X75379131Y-72292516D01*
X75367500Y-72350993D01*
X75367500Y-74295498D01*
X75379131Y-74353975D01*
X75379132Y-74353976D01*
X75423447Y-74420298D01*
X75489769Y-74464613D01*
X75489770Y-74464614D01*
X75548247Y-74476245D01*
X75548250Y-74476246D01*
X76331608Y-74476246D01*
X76398647Y-74495931D01*
X76444402Y-74548735D01*
X76454346Y-74617893D01*
X76425321Y-74681449D01*
X76366543Y-74719223D01*
X76351006Y-74722719D01*
X76250503Y-74738637D01*
X76250500Y-74738637D01*
X76077904Y-74794717D01*
X75916195Y-74877112D01*
X75832426Y-74937974D01*
X75769371Y-74983787D01*
X75769369Y-74983789D01*
X75769368Y-74983789D01*
X75641043Y-75112114D01*
X75641043Y-75112115D01*
X75641041Y-75112117D01*
X75595228Y-75175172D01*
X75534366Y-75258941D01*
X75451971Y-75420650D01*
X75395891Y-75593246D01*
X75395891Y-75593249D01*
X75367500Y-75772503D01*
X75367500Y-75953988D01*
X75395891Y-76133242D01*
X75395891Y-76133245D01*
X75451971Y-76305841D01*
X75451973Y-76305844D01*
X75534366Y-76467550D01*
X75641041Y-76614375D01*
X75769371Y-76742705D01*
X75863953Y-76811423D01*
X75916194Y-76849379D01*
X75916196Y-76849380D01*
X75926620Y-76854691D01*
X75977417Y-76902663D01*
X75994214Y-76970483D01*
X75971679Y-77036619D01*
X75926623Y-77075662D01*
X75759223Y-77160957D01*
X75574257Y-77295343D01*
X75412597Y-77457003D01*
X75278211Y-77641969D01*
X75174417Y-77845675D01*
X75103765Y-78063117D01*
X75089491Y-78153246D01*
X60947000Y-78153246D01*
X60947000Y-74862795D01*
X62294500Y-74862795D01*
X62294500Y-75085696D01*
X62294501Y-75085712D01*
X62323594Y-75306698D01*
X62323595Y-75306703D01*
X62323596Y-75306709D01*
X62381290Y-75522026D01*
X62381293Y-75522036D01*
X62466593Y-75727968D01*
X62466595Y-75727972D01*
X62578052Y-75921020D01*
X62578057Y-75921026D01*
X62578058Y-75921028D01*
X62713751Y-76097868D01*
X62713757Y-76097875D01*
X62871370Y-76255488D01*
X62871376Y-76255493D01*
X63048226Y-76391194D01*
X63241274Y-76502651D01*
X63447219Y-76587956D01*
X63662537Y-76645650D01*
X63883543Y-76674746D01*
X63883550Y-76674746D01*
X64106450Y-76674746D01*
X64106457Y-76674746D01*
X64327463Y-76645650D01*
X64542781Y-76587956D01*
X64748726Y-76502651D01*
X64941774Y-76391194D01*
X65118624Y-76255493D01*
X65276247Y-76097870D01*
X65411948Y-75921020D01*
X65523405Y-75727972D01*
X65608710Y-75522027D01*
X65666404Y-75306709D01*
X65695500Y-75085703D01*
X65695500Y-74862789D01*
X65666404Y-74641783D01*
X65608710Y-74426465D01*
X65523405Y-74220520D01*
X65411948Y-74027472D01*
X65276247Y-73850622D01*
X65276242Y-73850616D01*
X65118629Y-73693003D01*
X65118622Y-73692997D01*
X64941782Y-73557304D01*
X64941780Y-73557303D01*
X64941774Y-73557298D01*
X64748726Y-73445841D01*
X64748722Y-73445839D01*
X64542790Y-73360539D01*
X64542783Y-73360537D01*
X64542781Y-73360536D01*
X64327463Y-73302842D01*
X64327457Y-73302841D01*
X64327452Y-73302840D01*
X64106466Y-73273747D01*
X64106463Y-73273746D01*
X64106457Y-73273746D01*
X63883543Y-73273746D01*
X63883537Y-73273746D01*
X63883533Y-73273747D01*
X63662547Y-73302840D01*
X63662540Y-73302841D01*
X63662537Y-73302842D01*
X63447219Y-73360536D01*
X63447209Y-73360539D01*
X63241277Y-73445839D01*
X63241273Y-73445841D01*
X63048226Y-73557298D01*
X63048217Y-73557304D01*
X62871377Y-73692997D01*
X62871370Y-73693003D01*
X62713757Y-73850616D01*
X62713751Y-73850623D01*
X62578058Y-74027463D01*
X62578052Y-74027472D01*
X62466595Y-74220519D01*
X62466593Y-74220523D01*
X62381293Y-74426455D01*
X62381290Y-74426465D01*
X62323597Y-74641780D01*
X62323594Y-74641793D01*
X62294501Y-74862779D01*
X62294500Y-74862795D01*
X60947000Y-74862795D01*
X60947000Y-64810118D01*
X67305500Y-64810118D01*
X67305500Y-65072373D01*
X67323784Y-65211242D01*
X67339730Y-65332362D01*
X67407602Y-65585664D01*
X67407605Y-65585674D01*
X67507953Y-65827936D01*
X67507958Y-65827946D01*
X67639075Y-66055049D01*
X67798718Y-66263097D01*
X67798726Y-66263106D01*
X67984140Y-66448520D01*
X67984148Y-66448527D01*
X67984149Y-66448528D01*
X68032554Y-66485670D01*
X68192196Y-66608170D01*
X68419299Y-66739287D01*
X68419309Y-66739292D01*
X68661571Y-66839640D01*
X68661581Y-66839644D01*
X68914884Y-66907516D01*
X69174880Y-66941746D01*
X69174887Y-66941746D01*
X69437113Y-66941746D01*
X69437120Y-66941746D01*
X69697116Y-66907516D01*
X69950419Y-66839644D01*
X70192697Y-66739289D01*
X70419803Y-66608170D01*
X70627851Y-66448528D01*
X70627855Y-66448523D01*
X70627860Y-66448520D01*
X70813274Y-66263106D01*
X70813277Y-66263101D01*
X70813282Y-66263097D01*
X70972924Y-66055049D01*
X71104043Y-65827943D01*
X71204398Y-65585665D01*
X71272270Y-65332362D01*
X71306500Y-65072366D01*
X71306500Y-64810126D01*
X71272270Y-64550130D01*
X71204398Y-64296827D01*
X71204394Y-64296817D01*
X71104046Y-64054555D01*
X71104041Y-64054545D01*
X70972924Y-63827442D01*
X70813281Y-63619394D01*
X70813274Y-63619386D01*
X70627860Y-63433972D01*
X70627851Y-63433964D01*
X70419803Y-63274321D01*
X70192700Y-63143204D01*
X70192690Y-63143199D01*
X69950428Y-63042851D01*
X69950421Y-63042849D01*
X69950419Y-63042848D01*
X69697116Y-62974976D01*
X69639339Y-62967369D01*
X69437127Y-62940746D01*
X69437120Y-62940746D01*
X69174880Y-62940746D01*
X69174872Y-62940746D01*
X68943772Y-62971172D01*
X68914884Y-62974976D01*
X68661581Y-63042848D01*
X68661571Y-63042851D01*
X68419309Y-63143199D01*
X68419299Y-63143204D01*
X68192196Y-63274321D01*
X67984148Y-63433964D01*
X67798718Y-63619394D01*
X67639075Y-63827442D01*
X67507958Y-64054545D01*
X67507953Y-64054555D01*
X67407605Y-64296817D01*
X67407602Y-64296827D01*
X67353525Y-64498648D01*
X67339730Y-64550131D01*
X67305500Y-64810118D01*
X60947000Y-64810118D01*
X60947000Y-54923795D01*
X71057500Y-54923795D01*
X71057500Y-55146696D01*
X71057501Y-55146712D01*
X71086594Y-55367698D01*
X71086595Y-55367703D01*
X71086596Y-55367709D01*
X71144290Y-55583026D01*
X71144293Y-55583036D01*
X71229593Y-55788968D01*
X71229595Y-55788972D01*
X71341052Y-55982020D01*
X71341057Y-55982026D01*
X71341058Y-55982028D01*
X71476751Y-56158868D01*
X71476757Y-56158875D01*
X71634370Y-56316488D01*
X71634377Y-56316494D01*
X71707687Y-56372746D01*
X71811226Y-56452194D01*
X72004274Y-56563651D01*
X72210219Y-56648956D01*
X72425537Y-56706650D01*
X72646543Y-56735746D01*
X72646550Y-56735746D01*
X72869450Y-56735746D01*
X72869457Y-56735746D01*
X73090463Y-56706650D01*
X73305781Y-56648956D01*
X73511726Y-56563651D01*
X73704774Y-56452194D01*
X73808313Y-56372746D01*
X75066491Y-56372746D01*
X76054252Y-56372746D01*
X76032482Y-56410454D01*
X75995000Y-56550337D01*
X75995000Y-56695155D01*
X76032482Y-56835038D01*
X76054252Y-56872746D01*
X75066491Y-56872746D01*
X75080765Y-56962874D01*
X75151417Y-57180316D01*
X75255211Y-57384022D01*
X75389597Y-57568988D01*
X75551257Y-57730648D01*
X75736223Y-57865034D01*
X75939929Y-57968828D01*
X76157371Y-58039480D01*
X76295000Y-58061278D01*
X76295000Y-57113493D01*
X76332708Y-57135264D01*
X76472591Y-57172746D01*
X76617409Y-57172746D01*
X76757292Y-57135264D01*
X76795000Y-57113493D01*
X76795000Y-58061277D01*
X76932628Y-58039480D01*
X77150070Y-57968828D01*
X77353776Y-57865034D01*
X77538742Y-57730648D01*
X77700402Y-57568988D01*
X77834788Y-57384022D01*
X77938582Y-57180316D01*
X78009234Y-56962874D01*
X78023509Y-56872746D01*
X77035748Y-56872746D01*
X77057518Y-56835038D01*
X77095000Y-56695155D01*
X77095000Y-56550337D01*
X77057518Y-56410454D01*
X77035748Y-56372746D01*
X78023509Y-56372746D01*
X78009234Y-56282617D01*
X77938582Y-56065175D01*
X77834788Y-55861469D01*
X77700402Y-55676503D01*
X77538742Y-55514843D01*
X77353776Y-55380457D01*
X77186376Y-55295162D01*
X77135580Y-55247187D01*
X77118785Y-55179366D01*
X77141323Y-55113231D01*
X77186380Y-55074190D01*
X77196804Y-55068880D01*
X77343629Y-54962205D01*
X77471959Y-54833875D01*
X77578634Y-54687050D01*
X77661027Y-54525344D01*
X77717109Y-54352741D01*
X77745500Y-54173489D01*
X77745500Y-53992003D01*
X77717109Y-53812751D01*
X77717108Y-53812747D01*
X77717108Y-53812746D01*
X77661028Y-53640150D01*
X77578633Y-53478441D01*
X77537291Y-53421539D01*
X77471959Y-53331617D01*
X77343629Y-53203287D01*
X77196804Y-53096612D01*
X77035095Y-53014217D01*
X76862498Y-52958137D01*
X76761994Y-52942219D01*
X76698859Y-52912290D01*
X76661928Y-52852978D01*
X76662926Y-52783116D01*
X76701536Y-52724883D01*
X76765499Y-52696769D01*
X76781392Y-52695746D01*
X77564750Y-52695746D01*
X77564751Y-52695745D01*
X77579568Y-52692798D01*
X77623229Y-52684114D01*
X77623229Y-52684113D01*
X77623231Y-52684113D01*
X77689552Y-52639798D01*
X77733867Y-52573477D01*
X77733867Y-52573475D01*
X77733868Y-52573475D01*
X77745499Y-52514998D01*
X77745500Y-52514996D01*
X77745500Y-50570495D01*
X77745499Y-50570493D01*
X77733868Y-50512016D01*
X77733867Y-50512015D01*
X77689552Y-50445693D01*
X77623230Y-50401378D01*
X77623229Y-50401377D01*
X77564752Y-50389746D01*
X77564748Y-50389746D01*
X75525252Y-50389746D01*
X75525247Y-50389746D01*
X75466770Y-50401377D01*
X75466769Y-50401378D01*
X75400447Y-50445693D01*
X75356132Y-50512015D01*
X75356131Y-50512016D01*
X75344500Y-50570493D01*
X75344500Y-52514998D01*
X75356131Y-52573475D01*
X75356132Y-52573476D01*
X75400447Y-52639798D01*
X75466769Y-52684113D01*
X75466770Y-52684114D01*
X75525247Y-52695745D01*
X75525250Y-52695746D01*
X76308608Y-52695746D01*
X76375647Y-52715431D01*
X76421402Y-52768235D01*
X76431346Y-52837393D01*
X76402321Y-52900949D01*
X76343543Y-52938723D01*
X76328006Y-52942219D01*
X76227503Y-52958137D01*
X76227500Y-52958137D01*
X76054904Y-53014217D01*
X75893195Y-53096612D01*
X75809426Y-53157474D01*
X75746371Y-53203287D01*
X75746369Y-53203289D01*
X75746368Y-53203289D01*
X75618043Y-53331614D01*
X75618043Y-53331615D01*
X75618041Y-53331617D01*
X75572228Y-53394672D01*
X75511366Y-53478441D01*
X75428971Y-53640150D01*
X75372891Y-53812746D01*
X75372891Y-53812749D01*
X75344500Y-53992003D01*
X75344500Y-54173488D01*
X75372891Y-54352742D01*
X75372891Y-54352745D01*
X75428971Y-54525341D01*
X75428973Y-54525344D01*
X75511366Y-54687050D01*
X75618041Y-54833875D01*
X75746371Y-54962205D01*
X75840953Y-55030923D01*
X75893194Y-55068879D01*
X75893196Y-55068880D01*
X75903620Y-55074191D01*
X75954417Y-55122163D01*
X75971214Y-55189983D01*
X75948679Y-55256119D01*
X75903623Y-55295162D01*
X75736223Y-55380457D01*
X75551257Y-55514843D01*
X75389597Y-55676503D01*
X75255211Y-55861469D01*
X75151417Y-56065175D01*
X75080765Y-56282617D01*
X75066491Y-56372746D01*
X73808313Y-56372746D01*
X73881624Y-56316493D01*
X74039247Y-56158870D01*
X74174948Y-55982020D01*
X74286405Y-55788972D01*
X74371710Y-55583027D01*
X74429404Y-55367709D01*
X74458500Y-55146703D01*
X74458500Y-54923789D01*
X74429404Y-54702783D01*
X74371710Y-54487465D01*
X74286405Y-54281520D01*
X74174948Y-54088472D01*
X74039247Y-53911622D01*
X74039242Y-53911616D01*
X73881629Y-53754003D01*
X73881622Y-53753997D01*
X73704782Y-53618304D01*
X73704780Y-53618303D01*
X73704774Y-53618298D01*
X73511726Y-53506841D01*
X73511722Y-53506839D01*
X73305790Y-53421539D01*
X73305783Y-53421537D01*
X73305781Y-53421536D01*
X73090463Y-53363842D01*
X73090457Y-53363841D01*
X73090452Y-53363840D01*
X72869466Y-53334747D01*
X72869463Y-53334746D01*
X72869457Y-53334746D01*
X72646543Y-53334746D01*
X72646537Y-53334746D01*
X72646533Y-53334747D01*
X72425547Y-53363840D01*
X72425540Y-53363841D01*
X72425537Y-53363842D01*
X72210219Y-53421536D01*
X72210209Y-53421539D01*
X72004277Y-53506839D01*
X72004273Y-53506841D01*
X71811226Y-53618298D01*
X71811217Y-53618304D01*
X71634377Y-53753997D01*
X71634370Y-53754003D01*
X71476757Y-53911616D01*
X71476751Y-53911623D01*
X71341058Y-54088463D01*
X71341052Y-54088472D01*
X71229595Y-54281519D01*
X71229593Y-54281523D01*
X71144293Y-54487455D01*
X71144290Y-54487465D01*
X71086597Y-54702780D01*
X71086594Y-54702793D01*
X71057501Y-54923779D01*
X71057500Y-54923795D01*
X60947000Y-54923795D01*
X60947000Y-48839746D01*
X60966685Y-48772707D01*
X61019489Y-48726952D01*
X61071000Y-48715746D01*
X84929138Y-48715746D01*
X84996177Y-48735431D01*
G37*
%TD.AperFunction*%
%TD*%
%TA.AperFunction,NonConductor*%
G36*
X89072932Y-107292441D02*
G01*
X89101039Y-107291237D01*
X89107315Y-107294900D01*
X89114564Y-107295419D01*
X89137083Y-107312276D01*
X89161381Y-107326460D01*
X89167360Y-107334942D01*
X89170498Y-107337291D01*
X89181716Y-107355307D01*
X89241264Y-107472179D01*
X89241266Y-107472182D01*
X89299211Y-107543737D01*
X89358408Y-107616838D01*
X89443716Y-107685920D01*
X89503063Y-107733979D01*
X89503065Y-107733981D01*
X89631594Y-107799468D01*
X89682390Y-107847442D01*
X89699300Y-107909953D01*
X89699300Y-108419080D01*
X89679615Y-108486119D01*
X89671947Y-108496767D01*
X89560587Y-108635304D01*
X89476218Y-108805418D01*
X89430391Y-108989692D01*
X89427500Y-109032331D01*
X89427500Y-109684161D01*
X89427501Y-109684165D01*
X89430390Y-109726793D01*
X89430390Y-109726794D01*
X89476218Y-109911073D01*
X89560587Y-110081187D01*
X89650512Y-110193059D01*
X89677171Y-110257643D01*
X89664680Y-110326387D01*
X89650512Y-110348433D01*
X89560587Y-110460304D01*
X89476218Y-110630418D01*
X89430391Y-110814692D01*
X89427500Y-110857331D01*
X89427500Y-111509161D01*
X89427501Y-111509165D01*
X89430390Y-111551793D01*
X89430390Y-111551794D01*
X89466838Y-111698352D01*
X89463914Y-111768161D01*
X89434184Y-111815959D01*
X87818717Y-113431426D01*
X87816829Y-113432456D01*
X87815736Y-113434309D01*
X87786301Y-113449125D01*
X87757394Y-113464911D01*
X87755249Y-113464757D01*
X87753328Y-113465725D01*
X87720559Y-113462276D01*
X87687702Y-113459927D01*
X87685980Y-113458637D01*
X87683842Y-113458413D01*
X87658143Y-113437799D01*
X87631769Y-113418055D01*
X87630490Y-113415617D01*
X87629339Y-113414694D01*
X87624103Y-113403441D01*
X87613470Y-113383169D01*
X87612258Y-113379554D01*
X87580819Y-113262224D01*
X87539297Y-113161981D01*
X87537934Y-113157915D01*
X87537601Y-113149166D01*
X87531500Y-113118491D01*
X87531500Y-112406245D01*
X87528682Y-112341707D01*
X87493914Y-112173328D01*
X87493914Y-112173326D01*
X87421255Y-112017507D01*
X87421254Y-112017505D01*
X87421252Y-112017501D01*
X87314613Y-111882633D01*
X87314610Y-111882630D01*
X87314607Y-111882626D01*
X85937108Y-110505128D01*
X85903623Y-110443805D01*
X85908607Y-110374113D01*
X85950479Y-110318180D01*
X85972387Y-110305064D01*
X85973418Y-110304582D01*
X85975745Y-110303498D01*
X86110613Y-110196859D01*
X88983552Y-107323918D01*
X89008241Y-107310437D01*
X89031234Y-107294229D01*
X89038494Y-107293917D01*
X89044873Y-107290435D01*
X89072932Y-107292441D01*
G37*
%TD.AperFunction*%
%TA.AperFunction,NonConductor*%
G36*
X87736703Y-120339996D02*
G01*
X87743181Y-120346028D01*
X88027256Y-120630103D01*
X88060741Y-120691426D01*
X88055757Y-120761118D01*
X88036224Y-120795469D01*
X88000587Y-120839805D01*
X87916218Y-121009918D01*
X87870391Y-121194192D01*
X87867500Y-121236831D01*
X87867500Y-121863661D01*
X87867501Y-121863665D01*
X87870390Y-121906293D01*
X87870390Y-121906294D01*
X87916218Y-122090573D01*
X88000587Y-122260687D01*
X88119549Y-122408683D01*
X88119552Y-122408686D01*
X88119556Y-122408690D01*
X88128986Y-122416270D01*
X88168905Y-122473609D01*
X88175300Y-122512917D01*
X88175300Y-125886344D01*
X88155615Y-125953383D01*
X88102811Y-125999138D01*
X88098755Y-126000904D01*
X88067469Y-126013863D01*
X88067455Y-126013870D01*
X87825034Y-126153832D01*
X87730986Y-126225998D01*
X87665817Y-126251192D01*
X87597372Y-126237154D01*
X87547383Y-126188339D01*
X87531500Y-126127622D01*
X87531500Y-120433709D01*
X87551185Y-120366670D01*
X87603989Y-120320915D01*
X87673147Y-120310971D01*
X87736703Y-120339996D01*
G37*
%TD.AperFunction*%
%TA.AperFunction,NonConductor*%
G36*
X107422374Y-125456631D02*
G01*
X107433022Y-125464299D01*
X107516369Y-125531296D01*
X107571558Y-125575658D01*
X107576939Y-125578327D01*
X107580483Y-125580386D01*
X107601824Y-125602894D01*
X107624591Y-125623936D01*
X107625650Y-125628023D01*
X107628556Y-125631088D01*
X107634339Y-125661555D01*
X107642118Y-125691571D01*
X107640799Y-125695582D01*
X107641587Y-125699732D01*
X107629980Y-125728488D01*
X107620296Y-125757946D01*
X107616017Y-125763084D01*
X107615437Y-125764523D01*
X107613933Y-125765587D01*
X107605863Y-125775280D01*
X106955381Y-126425763D01*
X106894058Y-126459248D01*
X106824367Y-126454264D01*
X106768433Y-126412393D01*
X106744016Y-126346928D01*
X106743700Y-126338082D01*
X106743700Y-126013009D01*
X106763385Y-125945970D01*
X106780019Y-125925328D01*
X107232082Y-125473265D01*
X107259009Y-125458561D01*
X107284828Y-125441969D01*
X107291028Y-125441077D01*
X107293405Y-125439780D01*
X107319763Y-125436946D01*
X107355335Y-125436946D01*
X107422374Y-125456631D01*
G37*
%TD.AperFunction*%
%TA.AperFunction,NonConductor*%
G36*
X92671929Y-123741041D02*
G01*
X92712864Y-123768211D01*
X94911718Y-125967065D01*
X94945203Y-126028388D01*
X94940219Y-126098080D01*
X94898347Y-126154013D01*
X94832883Y-126178430D01*
X94824037Y-126178746D01*
X94716032Y-126178746D01*
X94716026Y-126178746D01*
X94716022Y-126178747D01*
X94438492Y-126215284D01*
X94168094Y-126287737D01*
X93909477Y-126394859D01*
X93909462Y-126394866D01*
X93667034Y-126534832D01*
X93444948Y-126705244D01*
X93380260Y-126769932D01*
X93318936Y-126803416D01*
X93249245Y-126798431D01*
X93193311Y-126756560D01*
X93170962Y-126706442D01*
X93138970Y-126545611D01*
X93138969Y-126545610D01*
X93138969Y-126545606D01*
X93075746Y-126392973D01*
X92983961Y-126255606D01*
X92867140Y-126138785D01*
X92529421Y-125801066D01*
X92495936Y-125739743D01*
X92496766Y-125683463D01*
X92534609Y-125531296D01*
X92537500Y-125488663D01*
X92537499Y-124836830D01*
X92534609Y-124794196D01*
X92488782Y-124609920D01*
X92404412Y-124439804D01*
X92314486Y-124327931D01*
X92287828Y-124263350D01*
X92300318Y-124194605D01*
X92314483Y-124172563D01*
X92404412Y-124060688D01*
X92488782Y-123890572D01*
X92504849Y-123825964D01*
X92540130Y-123765659D01*
X92602415Y-123734000D01*
X92671929Y-123741041D01*
G37*
%TD.AperFunction*%
%TA.AperFunction,NonConductor*%
G36*
X106361123Y-123757538D02*
G01*
X106407444Y-123809846D01*
X106418132Y-123878894D01*
X106389793Y-123942758D01*
X106382892Y-123950251D01*
X105592286Y-124740859D01*
X105370360Y-124962785D01*
X105311949Y-125021195D01*
X105253539Y-125079605D01*
X105161753Y-125216974D01*
X105098531Y-125369605D01*
X105098529Y-125369613D01*
X105066300Y-125531636D01*
X105066300Y-126739482D01*
X105046615Y-126806521D01*
X105029981Y-126827163D01*
X103549500Y-128307643D01*
X103488177Y-128341128D01*
X103418485Y-128336144D01*
X103362552Y-128294272D01*
X103347259Y-128267418D01*
X103346246Y-128264974D01*
X103346246Y-128264973D01*
X103254461Y-128127606D01*
X103137640Y-128010785D01*
X103010640Y-127883785D01*
X102873273Y-127792000D01*
X102720640Y-127728777D01*
X102720632Y-127728775D01*
X102558608Y-127696546D01*
X102558605Y-127696546D01*
X99064763Y-127696546D01*
X98997724Y-127676861D01*
X98977082Y-127660227D01*
X96909132Y-125592277D01*
X96875647Y-125530954D01*
X96880631Y-125461262D01*
X96922503Y-125405329D01*
X96972619Y-125382979D01*
X97033875Y-125370795D01*
X97204125Y-125300275D01*
X97357346Y-125197896D01*
X97487650Y-125067592D01*
X97590029Y-124914371D01*
X97660549Y-124744121D01*
X97696500Y-124563385D01*
X97696500Y-124379107D01*
X97696500Y-124379104D01*
X97660550Y-124198376D01*
X97660549Y-124198375D01*
X97660549Y-124198371D01*
X97590029Y-124028121D01*
X97590024Y-124028113D01*
X97587394Y-124024176D01*
X97566518Y-123957499D01*
X97585004Y-123890119D01*
X97636984Y-123843430D01*
X97689157Y-123831296D01*
X106293877Y-123738577D01*
X106361123Y-123757538D01*
G37*
%TD.AperFunction*%
%TA.AperFunction,NonConductor*%
G36*
X97196703Y-128252496D02*
G01*
X97203181Y-128258528D01*
X98131356Y-129186704D01*
X98131357Y-129186705D01*
X98131360Y-129186707D01*
X98268727Y-129278492D01*
X98421360Y-129341715D01*
X98583390Y-129373945D01*
X98583393Y-129373946D01*
X98583395Y-129373946D01*
X98748605Y-129373946D01*
X101591944Y-129373946D01*
X101658983Y-129393631D01*
X101704738Y-129446435D01*
X101706505Y-129450494D01*
X101773967Y-129613364D01*
X101773974Y-129613377D01*
X101876349Y-129766591D01*
X101876352Y-129766595D01*
X101895769Y-129786012D01*
X101929254Y-129847335D01*
X101924270Y-129917027D01*
X101895769Y-129961374D01*
X99880180Y-131976963D01*
X99818857Y-132010448D01*
X99749165Y-132005464D01*
X99704818Y-131976963D01*
X96896428Y-129168573D01*
X96862943Y-129107250D01*
X96867927Y-129037558D01*
X96869549Y-129033438D01*
X96875021Y-129020227D01*
X96882508Y-129002153D01*
X96954961Y-128731755D01*
X96991500Y-128454214D01*
X96991500Y-128346209D01*
X97011185Y-128279170D01*
X97063989Y-128233415D01*
X97133147Y-128223471D01*
X97196703Y-128252496D01*
G37*
%TD.AperFunction*%
%TA.AperFunction,NonConductor*%
G36*
X95707140Y-130351599D02*
G01*
X95710327Y-130354674D01*
X98933981Y-133578328D01*
X98967466Y-133639651D01*
X98970300Y-133666009D01*
X98970300Y-134183366D01*
X98950615Y-134250405D01*
X98897811Y-134296160D01*
X98828653Y-134306104D01*
X98765097Y-134277079D01*
X98731740Y-134230820D01*
X98727248Y-134219977D01*
X98727247Y-134219975D01*
X98727246Y-134219973D01*
X98635461Y-134082606D01*
X98518640Y-133965785D01*
X95179628Y-130626773D01*
X95146143Y-130565450D01*
X95151127Y-130495758D01*
X95192999Y-130439825D01*
X95251122Y-130416154D01*
X95273509Y-130413207D01*
X95543907Y-130340754D01*
X95575192Y-130327794D01*
X95644661Y-130320325D01*
X95707140Y-130351599D01*
G37*
%TD.AperFunction*%
%TA.AperFunction,NonConductor*%
G36*
X109176634Y-128991726D02*
G01*
X109232567Y-129033598D01*
X109256984Y-129099062D01*
X109257300Y-129107908D01*
X109257300Y-134356546D01*
X109237615Y-134423585D01*
X109184811Y-134469340D01*
X109133300Y-134480546D01*
X106380974Y-134480546D01*
X106349779Y-134471386D01*
X106318233Y-134463502D01*
X106315812Y-134461412D01*
X106313935Y-134460861D01*
X106290642Y-134441494D01*
X106287343Y-134437985D01*
X106255444Y-134398302D01*
X106233241Y-134380454D01*
X106227331Y-134374170D01*
X106215284Y-134350400D01*
X106200058Y-134328528D01*
X106199732Y-134319714D01*
X106195745Y-134311847D01*
X106198461Y-134285336D01*
X106197477Y-134258706D01*
X106202846Y-134242543D01*
X106202867Y-134242342D01*
X106202946Y-134242242D01*
X106203105Y-134241763D01*
X106203469Y-134240886D01*
X106211347Y-134201281D01*
X106243731Y-134139370D01*
X106255282Y-134128821D01*
X106255444Y-134128690D01*
X106276765Y-134102166D01*
X106374412Y-133980688D01*
X106458782Y-133810572D01*
X106504609Y-133626296D01*
X106507500Y-133583663D01*
X106507499Y-132831830D01*
X106504609Y-132789196D01*
X106458782Y-132604920D01*
X106374412Y-132434804D01*
X106364870Y-132422934D01*
X106338212Y-132358352D01*
X106350700Y-132289607D01*
X106364871Y-132267557D01*
X106374412Y-132255688D01*
X106458782Y-132085572D01*
X106504609Y-131901296D01*
X106507500Y-131858663D01*
X106507499Y-131609707D01*
X106527183Y-131542669D01*
X106543813Y-131522032D01*
X109045621Y-129020225D01*
X109106942Y-128986742D01*
X109176634Y-128991726D01*
G37*
%TD.AperFunction*%
%TA.AperFunction,NonConductor*%
G36*
X109200339Y-136177631D02*
G01*
X109246094Y-136230435D01*
X109257300Y-136281946D01*
X109257300Y-138497870D01*
X109252011Y-138515881D01*
X109251719Y-138534652D01*
X109242371Y-138548711D01*
X109237615Y-138564909D01*
X109223429Y-138577200D01*
X109213035Y-138592835D01*
X109197568Y-138599609D01*
X109184811Y-138610664D01*
X109166232Y-138613335D01*
X109149035Y-138620868D01*
X109132362Y-138618205D01*
X109115653Y-138620608D01*
X109098576Y-138612809D01*
X109080040Y-138609849D01*
X109067455Y-138598596D01*
X109052097Y-138591583D01*
X109041947Y-138575789D01*
X109027954Y-138563278D01*
X109015213Y-138534190D01*
X109014323Y-138532805D01*
X109013960Y-138531330D01*
X109013794Y-138530950D01*
X109012573Y-138526540D01*
X108997469Y-138450606D01*
X108982557Y-138414606D01*
X108934247Y-138297973D01*
X108842461Y-138160606D01*
X108842458Y-138160602D01*
X107074642Y-136392786D01*
X107063062Y-136385049D01*
X107018257Y-136331437D01*
X107009549Y-136262112D01*
X107039703Y-136199084D01*
X107099146Y-136162364D01*
X107131952Y-136157946D01*
X109133300Y-136157946D01*
X109200339Y-136177631D01*
G37*
%TD.AperFunction*%
%TA.AperFunction,NonConductor*%
G36*
X106312819Y-138012072D02*
G01*
X106344860Y-138035207D01*
X107315981Y-139006328D01*
X107349466Y-139067651D01*
X107352300Y-139094009D01*
X107352300Y-142611960D01*
X107332615Y-142678999D01*
X107279811Y-142724754D01*
X107260399Y-142731733D01*
X107251922Y-142734004D01*
X107251919Y-142734005D01*
X107086065Y-142818510D01*
X107086063Y-142818512D01*
X106941408Y-142935654D01*
X106844216Y-143055674D01*
X106786729Y-143095385D01*
X106716898Y-143097712D01*
X106660170Y-143065318D01*
X106631769Y-143036917D01*
X106631767Y-143036915D01*
X106440054Y-142897627D01*
X106228911Y-142790045D01*
X106003539Y-142716817D01*
X106003537Y-142716816D01*
X106003535Y-142716816D01*
X105840115Y-142690932D01*
X105769485Y-142679746D01*
X105532515Y-142679746D01*
X105478257Y-142688339D01*
X105298464Y-142716816D01*
X105073086Y-142790046D01*
X104861945Y-142897627D01*
X104778517Y-142958242D01*
X104670233Y-143036915D01*
X104670231Y-143036917D01*
X104670230Y-143036917D01*
X104502668Y-143204479D01*
X104481317Y-143233867D01*
X104425986Y-143276532D01*
X104356373Y-143282510D01*
X104294578Y-143249903D01*
X104280683Y-143233867D01*
X104259331Y-143204479D01*
X104091769Y-143036917D01*
X104091767Y-143036915D01*
X104087120Y-143033539D01*
X104000814Y-142970832D01*
X103958148Y-142915502D01*
X103949700Y-142870515D01*
X103949700Y-142141563D01*
X103969385Y-142074524D01*
X104022189Y-142028769D01*
X104029272Y-142025795D01*
X104030069Y-142025488D01*
X104030083Y-142025485D01*
X104106032Y-141986787D01*
X104195934Y-141940981D01*
X104195936Y-141940979D01*
X104340592Y-141823838D01*
X104457734Y-141679181D01*
X104542239Y-141513329D01*
X104590416Y-141333532D01*
X104596500Y-141256227D01*
X104596499Y-138332266D01*
X104590416Y-138254960D01*
X104590415Y-138254959D01*
X104589970Y-138249292D01*
X104591575Y-138249165D01*
X104598742Y-138187256D01*
X104643025Y-138133212D01*
X104709497Y-138111688D01*
X104768005Y-138124552D01*
X104856674Y-138168528D01*
X105040946Y-138214354D01*
X105040950Y-138214355D01*
X105083583Y-138217246D01*
X105710416Y-138217245D01*
X105753050Y-138214355D01*
X105937326Y-138168528D01*
X106107442Y-138084158D01*
X106179493Y-138026240D01*
X106244074Y-137999582D01*
X106312819Y-138012072D01*
G37*
%TD.AperFunction*%
%TA.AperFunction,NonConductor*%
G36*
X101535133Y-141326915D02*
G01*
X101551347Y-141324584D01*
X101568876Y-141332589D01*
X101587881Y-141335785D01*
X101600002Y-141346804D01*
X101614903Y-141353609D01*
X101625322Y-141369821D01*
X101639581Y-141382784D01*
X101651422Y-141410434D01*
X101652677Y-141412387D01*
X101653466Y-141415198D01*
X101679761Y-141513329D01*
X101701289Y-141555580D01*
X101764264Y-141679180D01*
X101764266Y-141679182D01*
X101822837Y-141751509D01*
X101881408Y-141823838D01*
X101970724Y-141896165D01*
X102026063Y-141940979D01*
X102026065Y-141940981D01*
X102191907Y-142025480D01*
X102191917Y-142025485D01*
X102191927Y-142025487D01*
X102192728Y-142025795D01*
X102193134Y-142026105D01*
X102197707Y-142028435D01*
X102197281Y-142029270D01*
X102248264Y-142068192D01*
X102272062Y-142133884D01*
X102272300Y-142141563D01*
X102272300Y-142870515D01*
X102252615Y-142937554D01*
X102221186Y-142970832D01*
X102130239Y-143036910D01*
X102130230Y-143036917D01*
X101962668Y-143204479D01*
X101941317Y-143233867D01*
X101885986Y-143276532D01*
X101816373Y-143282510D01*
X101754578Y-143249903D01*
X101740683Y-143233867D01*
X101719331Y-143204479D01*
X101551769Y-143036917D01*
X101551767Y-143036915D01*
X101547120Y-143033539D01*
X101460814Y-142970832D01*
X101418148Y-142915502D01*
X101409700Y-142870515D01*
X101409700Y-141447322D01*
X101415129Y-141428832D01*
X101415588Y-141409566D01*
X101424770Y-141395998D01*
X101429385Y-141380283D01*
X101443946Y-141367665D01*
X101454750Y-141351703D01*
X101469811Y-141345253D01*
X101482189Y-141334528D01*
X101501262Y-141331785D01*
X101518979Y-141324199D01*
X101535133Y-141326915D01*
G37*
%TD.AperFunction*%
%TA.AperFunction,NonConductor*%
G36*
X99074903Y-138639696D02*
G01*
X99081381Y-138645728D01*
X99695981Y-139260328D01*
X99729466Y-139321651D01*
X99732300Y-139348009D01*
X99732300Y-142870515D01*
X99712615Y-142937554D01*
X99681186Y-142970832D01*
X99590239Y-143036910D01*
X99590230Y-143036917D01*
X99422668Y-143204479D01*
X99401317Y-143233867D01*
X99345986Y-143276532D01*
X99276373Y-143282510D01*
X99214578Y-143249903D01*
X99200683Y-143233867D01*
X99179331Y-143204479D01*
X99011769Y-143036917D01*
X99011767Y-143036915D01*
X99007120Y-143033539D01*
X98920814Y-142970832D01*
X98878148Y-142915502D01*
X98869700Y-142870515D01*
X98869700Y-138733409D01*
X98889385Y-138666370D01*
X98942189Y-138620615D01*
X99011347Y-138610671D01*
X99074903Y-138639696D01*
G37*
%TD.AperFunction*%
%TA.AperFunction,NonConductor*%
G36*
X86570633Y-136890352D02*
G01*
X86626567Y-136932224D01*
X86650984Y-136997688D01*
X86651300Y-137006534D01*
X86651300Y-137794855D01*
X86683043Y-137954435D01*
X86683531Y-137956886D01*
X86746754Y-138109519D01*
X86785087Y-138166889D01*
X86838540Y-138246888D01*
X86838541Y-138246889D01*
X88773981Y-140182328D01*
X88807466Y-140243651D01*
X88810300Y-140270009D01*
X88810300Y-142484960D01*
X88790615Y-142551999D01*
X88737811Y-142597754D01*
X88718399Y-142604733D01*
X88709922Y-142607004D01*
X88709919Y-142607005D01*
X88544065Y-142691510D01*
X88544063Y-142691512D01*
X88399408Y-142808654D01*
X88282266Y-142953309D01*
X88282264Y-142953311D01*
X88197761Y-143119163D01*
X88149583Y-143298963D01*
X88143500Y-143376259D01*
X88143500Y-145190216D01*
X88143501Y-145190235D01*
X88149583Y-145267528D01*
X88197794Y-145447452D01*
X88196131Y-145517302D01*
X88156969Y-145575165D01*
X88092740Y-145602669D01*
X88078019Y-145603546D01*
X87126763Y-145603546D01*
X87059724Y-145583861D01*
X87039082Y-145567227D01*
X86373643Y-144901787D01*
X86373642Y-144901786D01*
X86261111Y-144826596D01*
X86236273Y-144810000D01*
X86083640Y-144746777D01*
X86083632Y-144746775D01*
X85921608Y-144714546D01*
X85921605Y-144714546D01*
X84378442Y-144714546D01*
X84330989Y-144705107D01*
X84297815Y-144691366D01*
X84206875Y-144653697D01*
X84206869Y-144653695D01*
X84026141Y-144617746D01*
X84026139Y-144617746D01*
X83841861Y-144617746D01*
X83841859Y-144617746D01*
X83661130Y-144653695D01*
X83661124Y-144653697D01*
X83490877Y-144724215D01*
X83490868Y-144724220D01*
X83427891Y-144766301D01*
X83361213Y-144787179D01*
X83293833Y-144768694D01*
X83247143Y-144716716D01*
X83235000Y-144663199D01*
X83235000Y-138162746D01*
X83254685Y-138095707D01*
X83307489Y-138049952D01*
X83359000Y-138038746D01*
X85013001Y-138038746D01*
X85045269Y-138037337D01*
X85077539Y-138035928D01*
X85245920Y-138001160D01*
X85401745Y-137928498D01*
X85536613Y-137821859D01*
X86439619Y-136918853D01*
X86500942Y-136885368D01*
X86570633Y-136890352D01*
G37*
%TD.AperFunction*%
%TA.AperFunction,NonConductor*%
G36*
X90503692Y-129530534D02*
G01*
X90528674Y-129531427D01*
X90537323Y-129537432D01*
X90547643Y-129539549D01*
X90565533Y-129557019D01*
X90586066Y-129571275D01*
X90594239Y-129585050D01*
X90597632Y-129588363D01*
X90604076Y-129601628D01*
X90636753Y-129680517D01*
X90728540Y-129817888D01*
X90728541Y-129817889D01*
X96092981Y-135182328D01*
X96126466Y-135243651D01*
X96129300Y-135270009D01*
X96129300Y-137714855D01*
X96161529Y-137876878D01*
X96161531Y-137876886D01*
X96223396Y-138026242D01*
X96224754Y-138029519D01*
X96238407Y-138049952D01*
X96316540Y-138166888D01*
X96316541Y-138166889D01*
X97155981Y-139006328D01*
X97189466Y-139067651D01*
X97192300Y-139094009D01*
X97192300Y-142870515D01*
X97172615Y-142937554D01*
X97141186Y-142970832D01*
X97050239Y-143036910D01*
X97050230Y-143036917D01*
X96882671Y-143204476D01*
X96882671Y-143204477D01*
X96882669Y-143204479D01*
X96835653Y-143269191D01*
X96743381Y-143396191D01*
X96635800Y-143607332D01*
X96562570Y-143832710D01*
X96549406Y-143915827D01*
X96525500Y-144066761D01*
X96525500Y-144753731D01*
X96562571Y-144987785D01*
X96635799Y-145213157D01*
X96743381Y-145424300D01*
X96882669Y-145616013D01*
X97050233Y-145783577D01*
X97241946Y-145922865D01*
X97453089Y-146030447D01*
X97678461Y-146103675D01*
X97912515Y-146140746D01*
X97912516Y-146140746D01*
X98149484Y-146140746D01*
X98149485Y-146140746D01*
X98383539Y-146103675D01*
X98608911Y-146030447D01*
X98820054Y-145922865D01*
X99011767Y-145783577D01*
X99179331Y-145616013D01*
X99200683Y-145586624D01*
X99256010Y-145543959D01*
X99325624Y-145537979D01*
X99387419Y-145570585D01*
X99401313Y-145586619D01*
X99422669Y-145616013D01*
X99590233Y-145783577D01*
X99781946Y-145922865D01*
X99993089Y-146030447D01*
X100218461Y-146103675D01*
X100452515Y-146140746D01*
X100452516Y-146140746D01*
X100689484Y-146140746D01*
X100689485Y-146140746D01*
X100923539Y-146103675D01*
X101148911Y-146030447D01*
X101360054Y-145922865D01*
X101551767Y-145783577D01*
X101719331Y-145616013D01*
X101740683Y-145586624D01*
X101796010Y-145543959D01*
X101865624Y-145537979D01*
X101927419Y-145570585D01*
X101941313Y-145586619D01*
X101962669Y-145616013D01*
X102130233Y-145783577D01*
X102321946Y-145922865D01*
X102533089Y-146030447D01*
X102758461Y-146103675D01*
X102992515Y-146140746D01*
X102992516Y-146140746D01*
X103229484Y-146140746D01*
X103229485Y-146140746D01*
X103463539Y-146103675D01*
X103688911Y-146030447D01*
X103900054Y-145922865D01*
X104091767Y-145783577D01*
X104259331Y-145616013D01*
X104280683Y-145586624D01*
X104336010Y-145543959D01*
X104405624Y-145537979D01*
X104467419Y-145570585D01*
X104481313Y-145586619D01*
X104502669Y-145616013D01*
X104670233Y-145783577D01*
X104807544Y-145883339D01*
X104849219Y-145936203D01*
X104907753Y-146077517D01*
X104999540Y-146214888D01*
X105650217Y-146865565D01*
X105683702Y-146926888D01*
X105678718Y-146996580D01*
X105636846Y-147052513D01*
X105571382Y-147076930D01*
X105562536Y-147077246D01*
X92404463Y-147077246D01*
X92337424Y-147057561D01*
X92291669Y-147004757D01*
X92281725Y-146935599D01*
X92310750Y-146872043D01*
X92316782Y-146865565D01*
X92840458Y-146341889D01*
X92840461Y-146341886D01*
X92932247Y-146204519D01*
X92995469Y-146051886D01*
X93027700Y-145889851D01*
X93027700Y-145822975D01*
X93047385Y-145755936D01*
X93078816Y-145722656D01*
X93169763Y-145656580D01*
X93169763Y-145656579D01*
X93169767Y-145656577D01*
X93337331Y-145489013D01*
X93476619Y-145297300D01*
X93584201Y-145086157D01*
X93657429Y-144860785D01*
X93694500Y-144626731D01*
X93694500Y-143939761D01*
X93657429Y-143705707D01*
X93584201Y-143480335D01*
X93476619Y-143269192D01*
X93337331Y-143077479D01*
X93169767Y-142909915D01*
X93146929Y-142893322D01*
X93078814Y-142843832D01*
X93036148Y-142788502D01*
X93027700Y-142743515D01*
X93027700Y-139934688D01*
X93037139Y-139887235D01*
X93088549Y-139763121D01*
X93100313Y-139703978D01*
X93124500Y-139582387D01*
X93124500Y-139398104D01*
X93088550Y-139217376D01*
X93088549Y-139217375D01*
X93088549Y-139217371D01*
X93018029Y-139047121D01*
X93018028Y-139047120D01*
X93015698Y-139041494D01*
X93016200Y-139041285D01*
X93006552Y-139014325D01*
X92995469Y-138958606D01*
X92932246Y-138805973D01*
X92840461Y-138668606D01*
X92840459Y-138668603D01*
X92723642Y-138551786D01*
X92642950Y-138497870D01*
X92586273Y-138460000D01*
X92433640Y-138396777D01*
X92433632Y-138396775D01*
X92271608Y-138364546D01*
X92271605Y-138364546D01*
X92106395Y-138364546D01*
X92106392Y-138364546D01*
X91944367Y-138396775D01*
X91944359Y-138396777D01*
X91791728Y-138459999D01*
X91654357Y-138551786D01*
X91537540Y-138668603D01*
X91445753Y-138805974D01*
X91382530Y-138958607D01*
X91382530Y-138958608D01*
X91371446Y-139014326D01*
X91361802Y-139041289D01*
X91362301Y-139041496D01*
X91289451Y-139217370D01*
X91289449Y-139217376D01*
X91253500Y-139398104D01*
X91253500Y-139398107D01*
X91253500Y-139582385D01*
X91253500Y-139582387D01*
X91253499Y-139582387D01*
X91289449Y-139763115D01*
X91289451Y-139763121D01*
X91340861Y-139887235D01*
X91350300Y-139934688D01*
X91350300Y-142743515D01*
X91349572Y-142745990D01*
X91350200Y-142748494D01*
X91339783Y-142779329D01*
X91330615Y-142810554D01*
X91328410Y-142812997D01*
X91327839Y-142814689D01*
X91316235Y-142826490D01*
X91303674Y-142840413D01*
X91301452Y-142842186D01*
X91208233Y-142909915D01*
X91174935Y-142943212D01*
X91169522Y-142947535D01*
X91143340Y-142958242D01*
X91118504Y-142971804D01*
X91111421Y-142971297D01*
X91104852Y-142973984D01*
X91077035Y-142968837D01*
X91048813Y-142966818D01*
X91042818Y-142962506D01*
X91036149Y-142961272D01*
X91019960Y-142946064D01*
X90995782Y-142928673D01*
X90985116Y-142915502D01*
X90898592Y-142808654D01*
X90898591Y-142808653D01*
X90753936Y-142691512D01*
X90753934Y-142691510D01*
X90588080Y-142607005D01*
X90588077Y-142607004D01*
X90579601Y-142604733D01*
X90519942Y-142568366D01*
X90489416Y-142505518D01*
X90487700Y-142484960D01*
X90487700Y-139788638D01*
X90487699Y-139788636D01*
X90482624Y-139763121D01*
X90455469Y-139626606D01*
X90392246Y-139473973D01*
X90300461Y-139336606D01*
X90183640Y-139219785D01*
X88365019Y-137401164D01*
X88331534Y-137339841D01*
X88328700Y-137313483D01*
X88328700Y-134822582D01*
X88853500Y-134822582D01*
X88853500Y-135125909D01*
X88887457Y-135427294D01*
X88887460Y-135427308D01*
X88954953Y-135723017D01*
X88954957Y-135723029D01*
X89055133Y-136009314D01*
X89186733Y-136282584D01*
X89186735Y-136282587D01*
X89348108Y-136539410D01*
X89537221Y-136776550D01*
X89751696Y-136991025D01*
X89988836Y-137180138D01*
X90245659Y-137341511D01*
X90518935Y-137473114D01*
X90733951Y-137548351D01*
X90805216Y-137573288D01*
X90805228Y-137573292D01*
X91100937Y-137640786D01*
X91100946Y-137640787D01*
X91100951Y-137640788D01*
X91301874Y-137663426D01*
X91402337Y-137674745D01*
X91402340Y-137674746D01*
X91402343Y-137674746D01*
X91705660Y-137674746D01*
X91705661Y-137674745D01*
X91859694Y-137657390D01*
X92007048Y-137640788D01*
X92007051Y-137640787D01*
X92007063Y-137640786D01*
X92302772Y-137573292D01*
X92589065Y-137473114D01*
X92862341Y-137341511D01*
X93119164Y-137180138D01*
X93356304Y-136991025D01*
X93570779Y-136776550D01*
X93759892Y-136539410D01*
X93921265Y-136282587D01*
X94052868Y-136009311D01*
X94153046Y-135723018D01*
X94220540Y-135427309D01*
X94254500Y-135125903D01*
X94254500Y-134822589D01*
X94237079Y-134667975D01*
X94220542Y-134521197D01*
X94220541Y-134521192D01*
X94220540Y-134521183D01*
X94153046Y-134225474D01*
X94052868Y-133939181D01*
X93921265Y-133665905D01*
X93759892Y-133409082D01*
X93570779Y-133171942D01*
X93356304Y-132957467D01*
X93119164Y-132768354D01*
X92862341Y-132606981D01*
X92862338Y-132606979D01*
X92589068Y-132475379D01*
X92302783Y-132375203D01*
X92302771Y-132375199D01*
X92074556Y-132323110D01*
X92007063Y-132307706D01*
X92007060Y-132307705D01*
X92007048Y-132307703D01*
X91705663Y-132273746D01*
X91705657Y-132273746D01*
X91402343Y-132273746D01*
X91402336Y-132273746D01*
X91100951Y-132307703D01*
X91100937Y-132307706D01*
X90805228Y-132375199D01*
X90805216Y-132375203D01*
X90518931Y-132475379D01*
X90245661Y-132606979D01*
X89988837Y-132768353D01*
X89751696Y-132957466D01*
X89537220Y-133171942D01*
X89348107Y-133409083D01*
X89186733Y-133665907D01*
X89055133Y-133939177D01*
X88954957Y-134225462D01*
X88954953Y-134225474D01*
X88887460Y-134521183D01*
X88887457Y-134521197D01*
X88853500Y-134822582D01*
X88328700Y-134822582D01*
X88328700Y-130122052D01*
X88348385Y-130055013D01*
X88401189Y-130009258D01*
X88470347Y-129999314D01*
X88484784Y-130002274D01*
X88596491Y-130032207D01*
X88874032Y-130068746D01*
X88874039Y-130068746D01*
X89153961Y-130068746D01*
X89153968Y-130068746D01*
X89431509Y-130032207D01*
X89701907Y-129959754D01*
X89960534Y-129852627D01*
X90202966Y-129712659D01*
X90414029Y-129550705D01*
X90437347Y-129541690D01*
X90458849Y-129528933D01*
X90469373Y-129529308D01*
X90479198Y-129525511D01*
X90503692Y-129530534D01*
G37*
%TD.AperFunction*%
%TA.AperFunction,NonConductor*%
G36*
X83427892Y-146340191D02*
G01*
X83490866Y-146382270D01*
X83490874Y-146382274D01*
X83490875Y-146382275D01*
X83661125Y-146452795D01*
X83661129Y-146452795D01*
X83661130Y-146452796D01*
X83841858Y-146488746D01*
X83841861Y-146488746D01*
X84026141Y-146488746D01*
X84177470Y-146458644D01*
X84206875Y-146452795D01*
X84330989Y-146401384D01*
X84378442Y-146391946D01*
X85440237Y-146391946D01*
X85507276Y-146411631D01*
X85527918Y-146428265D01*
X85965218Y-146865565D01*
X85998703Y-146926888D01*
X85993719Y-146996580D01*
X85951847Y-147052513D01*
X85886383Y-147076930D01*
X85877537Y-147077246D01*
X83359000Y-147077246D01*
X83291961Y-147057561D01*
X83246206Y-147004757D01*
X83235000Y-146953246D01*
X83235000Y-146443292D01*
X83254685Y-146376253D01*
X83307489Y-146330498D01*
X83376647Y-146320554D01*
X83427892Y-146340191D01*
G37*
%TD.AperFunction*%
M02*
