%TF.GenerationSoftware,KiCad,Pcbnew,9.0.3*%
%TF.CreationDate,2025-08-30T18:16:35-03:00*%
%TF.ProjectId,HMI_LVDC-Inverter,484d495f-4c56-4444-932d-496e76657274,rev?*%
%TF.SameCoordinates,Original*%
%TF.FileFunction,Soldermask,Bot*%
%TF.FilePolarity,Negative*%
%FSLAX46Y46*%
G04 Gerber Fmt 4.6, Leading zero omitted, Abs format (unit mm)*
G04 Created by KiCad (PCBNEW 9.0.3) date 2025-08-30 18:16:35*
%MOMM*%
%LPD*%
G01*
G04 APERTURE LIST*
G04 Aperture macros list*
%AMRoundRect*
0 Rectangle with rounded corners*
0 $1 Rounding radius*
0 $2 $3 $4 $5 $6 $7 $8 $9 X,Y pos of 4 corners*
0 Add a 4 corners polygon primitive as box body*
4,1,4,$2,$3,$4,$5,$6,$7,$8,$9,$2,$3,0*
0 Add four circle primitives for the rounded corners*
1,1,$1+$1,$2,$3*
1,1,$1+$1,$4,$5*
1,1,$1+$1,$6,$7*
1,1,$1+$1,$8,$9*
0 Add four rect primitives between the rounded corners*
20,1,$1+$1,$2,$3,$4,$5,0*
20,1,$1+$1,$4,$5,$6,$7,0*
20,1,$1+$1,$6,$7,$8,$9,0*
20,1,$1+$1,$8,$9,$2,$3,0*%
G04 Aperture macros list end*
%ADD10RoundRect,0.250000X-0.600000X-0.725000X0.600000X-0.725000X0.600000X0.725000X-0.600000X0.725000X0*%
%ADD11O,1.700000X1.950000*%
%ADD12RoundRect,0.250000X0.600000X0.750000X-0.600000X0.750000X-0.600000X-0.750000X0.600000X-0.750000X0*%
%ADD13O,1.700000X2.000000*%
%ADD14R,1.700000X1.700000*%
%ADD15C,1.700000*%
%ADD16RoundRect,0.250001X0.499999X0.499999X-0.499999X0.499999X-0.499999X-0.499999X0.499999X-0.499999X0*%
%ADD17C,1.500000*%
%ADD18RoundRect,0.250000X0.725000X-0.600000X0.725000X0.600000X-0.725000X0.600000X-0.725000X-0.600000X0*%
%ADD19O,1.950000X1.700000*%
%ADD20C,2.400000*%
%ADD21RoundRect,0.250000X-1.000000X-1.000000X1.000000X-1.000000X1.000000X1.000000X-1.000000X1.000000X0*%
%ADD22C,0.600000*%
%ADD23R,2.000000X2.000000*%
%ADD24C,2.000000*%
%ADD25RoundRect,0.237500X-0.237500X0.287500X-0.237500X-0.287500X0.237500X-0.287500X0.237500X0.287500X0*%
%ADD26RoundRect,0.250000X0.750000X1.250000X-0.750000X1.250000X-0.750000X-1.250000X0.750000X-1.250000X0*%
%ADD27O,2.000000X3.000000*%
G04 APERTURE END LIST*
D10*
%TO.C,J6*%
X144915000Y-44675000D03*
D11*
X147415000Y-44675000D03*
X149915000Y-44675000D03*
X152415000Y-44675000D03*
X154915000Y-44675000D03*
%TD*%
D12*
%TO.C,J4*%
X172994600Y-104587200D03*
D13*
X170494600Y-104587200D03*
%TD*%
D14*
%TO.C,J8*%
X168405000Y-73010000D03*
D15*
X168405000Y-75550000D03*
X168405000Y-78090000D03*
X168405000Y-80630000D03*
X168405000Y-83170000D03*
%TD*%
D14*
%TO.C,J5*%
X141397000Y-69340000D03*
D15*
X141397000Y-66800000D03*
X141397000Y-64260000D03*
X141397000Y-61720000D03*
%TD*%
D16*
%TO.C,U4*%
X103195400Y-98440400D03*
D17*
X103195400Y-95900400D03*
X103195400Y-90820400D03*
X103195400Y-85740400D03*
%TD*%
D18*
%TO.C,J9*%
X104186000Y-58029000D03*
D19*
X104186000Y-55529000D03*
X104186000Y-53029000D03*
X104186000Y-50529000D03*
%TD*%
D20*
%TO.C,K2*%
X109539800Y-111528000D03*
X115539800Y-125728000D03*
X103539800Y-125728000D03*
D21*
X103539800Y-113528000D03*
D20*
X115539800Y-113528000D03*
%TD*%
D22*
%TO.C,U2*%
X162325000Y-58285000D03*
X160925000Y-58285000D03*
X163025000Y-58985000D03*
X161625000Y-58985000D03*
X160225000Y-58985000D03*
X162325000Y-59685000D03*
X160925000Y-59685000D03*
X163025000Y-60385000D03*
X161625000Y-60385000D03*
X160225000Y-60385000D03*
X162325000Y-61085000D03*
X160925000Y-61085000D03*
%TD*%
D10*
%TO.C,J1*%
X104922600Y-104942800D03*
D11*
X107422600Y-104942800D03*
X109922600Y-104942800D03*
%TD*%
D16*
%TO.C,U6*%
X111729800Y-98440400D03*
D17*
X111729800Y-95900400D03*
X111729800Y-90820400D03*
X111729800Y-85740400D03*
%TD*%
D10*
%TO.C,J7*%
X105786200Y-43068400D03*
D11*
X108286200Y-43068400D03*
X110786200Y-43068400D03*
X113286200Y-43068400D03*
%TD*%
D23*
%TO.C,BZ1*%
X118156000Y-57648000D03*
D24*
X118156000Y-50048000D03*
%TD*%
D25*
%TO.C,D2*%
X125165000Y-41985000D03*
X125165000Y-43735000D03*
%TD*%
%TO.C,D5*%
X109393000Y-61980000D03*
X109393000Y-63730000D03*
%TD*%
%TO.C,D6*%
X120213400Y-41990200D03*
X120213400Y-43740200D03*
%TD*%
D14*
%TO.C,J11*%
X136215400Y-63693200D03*
D15*
X133675400Y-63693200D03*
X131135400Y-63693200D03*
X128595400Y-63693200D03*
X126055400Y-63693200D03*
X123515400Y-63693200D03*
%TD*%
D25*
%TO.C,D7*%
X122601000Y-41990200D03*
X122601000Y-43740200D03*
%TD*%
D14*
%TO.C,J10*%
X151303000Y-77968000D03*
D15*
X148763000Y-77968000D03*
X146223000Y-77968000D03*
X143683000Y-77968000D03*
%TD*%
D26*
%TO.C,J3*%
X158923000Y-117947600D03*
D27*
X155423000Y-122947600D03*
X151923000Y-117947600D03*
X148423000Y-122947600D03*
X144923000Y-117947600D03*
X141423000Y-122947600D03*
X137923000Y-117947600D03*
X134423000Y-122947600D03*
%TD*%
D25*
%TO.C,D3*%
X127681000Y-41990200D03*
X127681000Y-43740200D03*
%TD*%
D26*
%TO.C,J2*%
X128239800Y-117947600D03*
D27*
X124739800Y-122947600D03*
X121239800Y-117947600D03*
%TD*%
M02*
