%TF.GenerationSoftware,KiCad,Pcbnew,9.0.3*%
%TF.CreationDate,2025-08-30T18:16:35-03:00*%
%TF.ProjectId,HMI_LVDC-Inverter,484d495f-4c56-4444-932d-496e76657274,rev?*%
%TF.SameCoordinates,Original*%
%TF.FileFunction,Legend,Bot*%
%TF.FilePolarity,Positive*%
%FSLAX46Y46*%
G04 Gerber Fmt 4.6, Leading zero omitted, Abs format (unit mm)*
G04 Created by KiCad (PCBNEW 9.0.3) date 2025-08-30 18:16:35*
%MOMM*%
%LPD*%
G01*
G04 APERTURE LIST*
%ADD10C,0.150000*%
%ADD11C,0.000000*%
%ADD12C,0.120000*%
G04 APERTURE END LIST*
D10*
X146851420Y-103716587D02*
X146851420Y-102716587D01*
X146851420Y-102716587D02*
X146470468Y-102716587D01*
X146470468Y-102716587D02*
X146375230Y-102764206D01*
X146375230Y-102764206D02*
X146327611Y-102811825D01*
X146327611Y-102811825D02*
X146279992Y-102907063D01*
X146279992Y-102907063D02*
X146279992Y-103049920D01*
X146279992Y-103049920D02*
X146327611Y-103145158D01*
X146327611Y-103145158D02*
X146375230Y-103192777D01*
X146375230Y-103192777D02*
X146470468Y-103240396D01*
X146470468Y-103240396D02*
X146851420Y-103240396D01*
X145851420Y-103716587D02*
X145851420Y-103049920D01*
X145851420Y-103240396D02*
X145803801Y-103145158D01*
X145803801Y-103145158D02*
X145756182Y-103097539D01*
X145756182Y-103097539D02*
X145660944Y-103049920D01*
X145660944Y-103049920D02*
X145565706Y-103049920D01*
X145089515Y-103716587D02*
X145184753Y-103668968D01*
X145184753Y-103668968D02*
X145232372Y-103621348D01*
X145232372Y-103621348D02*
X145279991Y-103526110D01*
X145279991Y-103526110D02*
X145279991Y-103240396D01*
X145279991Y-103240396D02*
X145232372Y-103145158D01*
X145232372Y-103145158D02*
X145184753Y-103097539D01*
X145184753Y-103097539D02*
X145089515Y-103049920D01*
X145089515Y-103049920D02*
X144946658Y-103049920D01*
X144946658Y-103049920D02*
X144851420Y-103097539D01*
X144851420Y-103097539D02*
X144803801Y-103145158D01*
X144803801Y-103145158D02*
X144756182Y-103240396D01*
X144756182Y-103240396D02*
X144756182Y-103526110D01*
X144756182Y-103526110D02*
X144803801Y-103621348D01*
X144803801Y-103621348D02*
X144851420Y-103668968D01*
X144851420Y-103668968D02*
X144946658Y-103716587D01*
X144946658Y-103716587D02*
X145089515Y-103716587D01*
X144422848Y-103049920D02*
X144184753Y-103716587D01*
X143946658Y-103049920D02*
X144184753Y-103716587D01*
X144184753Y-103716587D02*
X144279991Y-103954682D01*
X144279991Y-103954682D02*
X144327610Y-104002301D01*
X144327610Y-104002301D02*
X144422848Y-104049920D01*
X143184753Y-103668968D02*
X143279991Y-103716587D01*
X143279991Y-103716587D02*
X143470467Y-103716587D01*
X143470467Y-103716587D02*
X143565705Y-103668968D01*
X143565705Y-103668968D02*
X143613324Y-103573729D01*
X143613324Y-103573729D02*
X143613324Y-103192777D01*
X143613324Y-103192777D02*
X143565705Y-103097539D01*
X143565705Y-103097539D02*
X143470467Y-103049920D01*
X143470467Y-103049920D02*
X143279991Y-103049920D01*
X143279991Y-103049920D02*
X143184753Y-103097539D01*
X143184753Y-103097539D02*
X143137134Y-103192777D01*
X143137134Y-103192777D02*
X143137134Y-103288015D01*
X143137134Y-103288015D02*
X143613324Y-103383253D01*
X142279991Y-103668968D02*
X142375229Y-103716587D01*
X142375229Y-103716587D02*
X142565705Y-103716587D01*
X142565705Y-103716587D02*
X142660943Y-103668968D01*
X142660943Y-103668968D02*
X142708562Y-103621348D01*
X142708562Y-103621348D02*
X142756181Y-103526110D01*
X142756181Y-103526110D02*
X142756181Y-103240396D01*
X142756181Y-103240396D02*
X142708562Y-103145158D01*
X142708562Y-103145158D02*
X142660943Y-103097539D01*
X142660943Y-103097539D02*
X142565705Y-103049920D01*
X142565705Y-103049920D02*
X142375229Y-103049920D01*
X142375229Y-103049920D02*
X142279991Y-103097539D01*
X141994276Y-103049920D02*
X141613324Y-103049920D01*
X141851419Y-102716587D02*
X141851419Y-103573729D01*
X141851419Y-103573729D02*
X141803800Y-103668968D01*
X141803800Y-103668968D02*
X141708562Y-103716587D01*
X141708562Y-103716587D02*
X141613324Y-103716587D01*
X141137133Y-103716587D02*
X141232371Y-103668968D01*
X141232371Y-103668968D02*
X141279990Y-103621348D01*
X141279990Y-103621348D02*
X141327609Y-103526110D01*
X141327609Y-103526110D02*
X141327609Y-103240396D01*
X141327609Y-103240396D02*
X141279990Y-103145158D01*
X141279990Y-103145158D02*
X141232371Y-103097539D01*
X141232371Y-103097539D02*
X141137133Y-103049920D01*
X141137133Y-103049920D02*
X140994276Y-103049920D01*
X140994276Y-103049920D02*
X140899038Y-103097539D01*
X140899038Y-103097539D02*
X140851419Y-103145158D01*
X140851419Y-103145158D02*
X140803800Y-103240396D01*
X140803800Y-103240396D02*
X140803800Y-103526110D01*
X140803800Y-103526110D02*
X140851419Y-103621348D01*
X140851419Y-103621348D02*
X140899038Y-103668968D01*
X140899038Y-103668968D02*
X140994276Y-103716587D01*
X140994276Y-103716587D02*
X141137133Y-103716587D01*
X139279990Y-103192777D02*
X139613323Y-103192777D01*
X139613323Y-103716587D02*
X139613323Y-102716587D01*
X139613323Y-102716587D02*
X139137133Y-102716587D01*
X138756180Y-103716587D02*
X138756180Y-103049920D01*
X138756180Y-102716587D02*
X138803799Y-102764206D01*
X138803799Y-102764206D02*
X138756180Y-102811825D01*
X138756180Y-102811825D02*
X138708561Y-102764206D01*
X138708561Y-102764206D02*
X138756180Y-102716587D01*
X138756180Y-102716587D02*
X138756180Y-102811825D01*
X138279990Y-103049920D02*
X138279990Y-103716587D01*
X138279990Y-103145158D02*
X138232371Y-103097539D01*
X138232371Y-103097539D02*
X138137133Y-103049920D01*
X138137133Y-103049920D02*
X137994276Y-103049920D01*
X137994276Y-103049920D02*
X137899038Y-103097539D01*
X137899038Y-103097539D02*
X137851419Y-103192777D01*
X137851419Y-103192777D02*
X137851419Y-103716587D01*
X136946657Y-103716587D02*
X136946657Y-103192777D01*
X136946657Y-103192777D02*
X136994276Y-103097539D01*
X136994276Y-103097539D02*
X137089514Y-103049920D01*
X137089514Y-103049920D02*
X137279990Y-103049920D01*
X137279990Y-103049920D02*
X137375228Y-103097539D01*
X136946657Y-103668968D02*
X137041895Y-103716587D01*
X137041895Y-103716587D02*
X137279990Y-103716587D01*
X137279990Y-103716587D02*
X137375228Y-103668968D01*
X137375228Y-103668968D02*
X137422847Y-103573729D01*
X137422847Y-103573729D02*
X137422847Y-103478491D01*
X137422847Y-103478491D02*
X137375228Y-103383253D01*
X137375228Y-103383253D02*
X137279990Y-103335634D01*
X137279990Y-103335634D02*
X137041895Y-103335634D01*
X137041895Y-103335634D02*
X136946657Y-103288015D01*
X136327609Y-103716587D02*
X136422847Y-103668968D01*
X136422847Y-103668968D02*
X136470466Y-103573729D01*
X136470466Y-103573729D02*
X136470466Y-102716587D01*
X146851420Y-104326531D02*
X146851420Y-105136054D01*
X146851420Y-105136054D02*
X146803801Y-105231292D01*
X146803801Y-105231292D02*
X146756182Y-105278912D01*
X146756182Y-105278912D02*
X146660944Y-105326531D01*
X146660944Y-105326531D02*
X146470468Y-105326531D01*
X146470468Y-105326531D02*
X146375230Y-105278912D01*
X146375230Y-105278912D02*
X146327611Y-105231292D01*
X146327611Y-105231292D02*
X146279992Y-105136054D01*
X146279992Y-105136054D02*
X146279992Y-104326531D01*
X145946658Y-104326531D02*
X145375230Y-104326531D01*
X145660944Y-105326531D02*
X145660944Y-104326531D01*
X145041896Y-105326531D02*
X145041896Y-104326531D01*
X145041896Y-104326531D02*
X144470468Y-105326531D01*
X144470468Y-105326531D02*
X144470468Y-104326531D01*
X142899039Y-104802721D02*
X143232372Y-104802721D01*
X143232372Y-105326531D02*
X143232372Y-104326531D01*
X143232372Y-104326531D02*
X142756182Y-104326531D01*
X141803801Y-105326531D02*
X142137134Y-104850340D01*
X142375229Y-105326531D02*
X142375229Y-104326531D01*
X142375229Y-104326531D02*
X141994277Y-104326531D01*
X141994277Y-104326531D02*
X141899039Y-104374150D01*
X141899039Y-104374150D02*
X141851420Y-104421769D01*
X141851420Y-104421769D02*
X141803801Y-104517007D01*
X141803801Y-104517007D02*
X141803801Y-104659864D01*
X141803801Y-104659864D02*
X141851420Y-104755102D01*
X141851420Y-104755102D02*
X141899039Y-104802721D01*
X141899039Y-104802721D02*
X141994277Y-104850340D01*
X141994277Y-104850340D02*
X142375229Y-104850340D01*
X141041896Y-104802721D02*
X140899039Y-104850340D01*
X140899039Y-104850340D02*
X140851420Y-104897959D01*
X140851420Y-104897959D02*
X140803801Y-104993197D01*
X140803801Y-104993197D02*
X140803801Y-105136054D01*
X140803801Y-105136054D02*
X140851420Y-105231292D01*
X140851420Y-105231292D02*
X140899039Y-105278912D01*
X140899039Y-105278912D02*
X140994277Y-105326531D01*
X140994277Y-105326531D02*
X141375229Y-105326531D01*
X141375229Y-105326531D02*
X141375229Y-104326531D01*
X141375229Y-104326531D02*
X141041896Y-104326531D01*
X141041896Y-104326531D02*
X140946658Y-104374150D01*
X140946658Y-104374150D02*
X140899039Y-104421769D01*
X140899039Y-104421769D02*
X140851420Y-104517007D01*
X140851420Y-104517007D02*
X140851420Y-104612245D01*
X140851420Y-104612245D02*
X140899039Y-104707483D01*
X140899039Y-104707483D02*
X140946658Y-104755102D01*
X140946658Y-104755102D02*
X141041896Y-104802721D01*
X141041896Y-104802721D02*
X141375229Y-104802721D01*
X140422848Y-105040816D02*
X139946658Y-105040816D01*
X140518086Y-105326531D02*
X140184753Y-104326531D01*
X140184753Y-104326531D02*
X139851420Y-105326531D01*
X146899039Y-106650760D02*
X146422849Y-106650760D01*
X146994277Y-106936475D02*
X146660944Y-105936475D01*
X146660944Y-105936475D02*
X146327611Y-106936475D01*
X145994277Y-106269808D02*
X145994277Y-106936475D01*
X145994277Y-106365046D02*
X145946658Y-106317427D01*
X145946658Y-106317427D02*
X145851420Y-106269808D01*
X145851420Y-106269808D02*
X145708563Y-106269808D01*
X145708563Y-106269808D02*
X145613325Y-106317427D01*
X145613325Y-106317427D02*
X145565706Y-106412665D01*
X145565706Y-106412665D02*
X145565706Y-106936475D01*
X144660944Y-106936475D02*
X144660944Y-105936475D01*
X144660944Y-106888856D02*
X144756182Y-106936475D01*
X144756182Y-106936475D02*
X144946658Y-106936475D01*
X144946658Y-106936475D02*
X145041896Y-106888856D01*
X145041896Y-106888856D02*
X145089515Y-106841236D01*
X145089515Y-106841236D02*
X145137134Y-106745998D01*
X145137134Y-106745998D02*
X145137134Y-106460284D01*
X145137134Y-106460284D02*
X145089515Y-106365046D01*
X145089515Y-106365046D02*
X145041896Y-106317427D01*
X145041896Y-106317427D02*
X144946658Y-106269808D01*
X144946658Y-106269808D02*
X144756182Y-106269808D01*
X144756182Y-106269808D02*
X144660944Y-106317427D01*
X144184753Y-106936475D02*
X144184753Y-106269808D01*
X144184753Y-106460284D02*
X144137134Y-106365046D01*
X144137134Y-106365046D02*
X144089515Y-106317427D01*
X144089515Y-106317427D02*
X143994277Y-106269808D01*
X143994277Y-106269808D02*
X143899039Y-106269808D01*
X143184753Y-106888856D02*
X143279991Y-106936475D01*
X143279991Y-106936475D02*
X143470467Y-106936475D01*
X143470467Y-106936475D02*
X143565705Y-106888856D01*
X143565705Y-106888856D02*
X143613324Y-106793617D01*
X143613324Y-106793617D02*
X143613324Y-106412665D01*
X143613324Y-106412665D02*
X143565705Y-106317427D01*
X143565705Y-106317427D02*
X143470467Y-106269808D01*
X143470467Y-106269808D02*
X143279991Y-106269808D01*
X143279991Y-106269808D02*
X143184753Y-106317427D01*
X143184753Y-106317427D02*
X143137134Y-106412665D01*
X143137134Y-106412665D02*
X143137134Y-106507903D01*
X143137134Y-106507903D02*
X143613324Y-106603141D01*
X142708562Y-106269808D02*
X142708562Y-106936475D01*
X142708562Y-106365046D02*
X142660943Y-106317427D01*
X142660943Y-106317427D02*
X142565705Y-106269808D01*
X142565705Y-106269808D02*
X142422848Y-106269808D01*
X142422848Y-106269808D02*
X142327610Y-106317427D01*
X142327610Y-106317427D02*
X142279991Y-106412665D01*
X142279991Y-106412665D02*
X142279991Y-106936475D01*
X141375229Y-106936475D02*
X141375229Y-106412665D01*
X141375229Y-106412665D02*
X141422848Y-106317427D01*
X141422848Y-106317427D02*
X141518086Y-106269808D01*
X141518086Y-106269808D02*
X141708562Y-106269808D01*
X141708562Y-106269808D02*
X141803800Y-106317427D01*
X141375229Y-106888856D02*
X141470467Y-106936475D01*
X141470467Y-106936475D02*
X141708562Y-106936475D01*
X141708562Y-106936475D02*
X141803800Y-106888856D01*
X141803800Y-106888856D02*
X141851419Y-106793617D01*
X141851419Y-106793617D02*
X141851419Y-106698379D01*
X141851419Y-106698379D02*
X141803800Y-106603141D01*
X141803800Y-106603141D02*
X141708562Y-106555522D01*
X141708562Y-106555522D02*
X141470467Y-106555522D01*
X141470467Y-106555522D02*
X141375229Y-106507903D01*
X140470467Y-106888856D02*
X140565705Y-106936475D01*
X140565705Y-106936475D02*
X140756181Y-106936475D01*
X140756181Y-106936475D02*
X140851419Y-106888856D01*
X140851419Y-106888856D02*
X140899038Y-106841236D01*
X140899038Y-106841236D02*
X140946657Y-106745998D01*
X140946657Y-106745998D02*
X140946657Y-106460284D01*
X140946657Y-106460284D02*
X140899038Y-106365046D01*
X140899038Y-106365046D02*
X140851419Y-106317427D01*
X140851419Y-106317427D02*
X140756181Y-106269808D01*
X140756181Y-106269808D02*
X140565705Y-106269808D01*
X140565705Y-106269808D02*
X140470467Y-106317427D01*
X139613324Y-106888856D02*
X139708562Y-106936475D01*
X139708562Y-106936475D02*
X139899038Y-106936475D01*
X139899038Y-106936475D02*
X139994276Y-106888856D01*
X139994276Y-106888856D02*
X140041895Y-106841236D01*
X140041895Y-106841236D02*
X140089514Y-106745998D01*
X140089514Y-106745998D02*
X140089514Y-106460284D01*
X140089514Y-106460284D02*
X140041895Y-106365046D01*
X140041895Y-106365046D02*
X139994276Y-106317427D01*
X139994276Y-106317427D02*
X139899038Y-106269808D01*
X139899038Y-106269808D02*
X139708562Y-106269808D01*
X139708562Y-106269808D02*
X139613324Y-106317427D01*
X139184752Y-106936475D02*
X139184752Y-106269808D01*
X139184752Y-105936475D02*
X139232371Y-105984094D01*
X139232371Y-105984094D02*
X139184752Y-106031713D01*
X139184752Y-106031713D02*
X139137133Y-105984094D01*
X139137133Y-105984094D02*
X139184752Y-105936475D01*
X139184752Y-105936475D02*
X139184752Y-106031713D01*
X138660943Y-106888856D02*
X138660943Y-106936475D01*
X138660943Y-106936475D02*
X138708562Y-107031713D01*
X138708562Y-107031713D02*
X138756181Y-107079332D01*
X137470467Y-106412665D02*
X137137134Y-106412665D01*
X136994277Y-106936475D02*
X137470467Y-106936475D01*
X137470467Y-106936475D02*
X137470467Y-105936475D01*
X137470467Y-105936475D02*
X136994277Y-105936475D01*
X136422848Y-106936475D02*
X136518086Y-106888856D01*
X136518086Y-106888856D02*
X136565705Y-106793617D01*
X136565705Y-106793617D02*
X136565705Y-105936475D01*
X136041895Y-106936475D02*
X136041895Y-106269808D01*
X136041895Y-105936475D02*
X136089514Y-105984094D01*
X136089514Y-105984094D02*
X136041895Y-106031713D01*
X136041895Y-106031713D02*
X135994276Y-105984094D01*
X135994276Y-105984094D02*
X136041895Y-105936475D01*
X136041895Y-105936475D02*
X136041895Y-106031713D01*
X135137134Y-106936475D02*
X135137134Y-106412665D01*
X135137134Y-106412665D02*
X135184753Y-106317427D01*
X135184753Y-106317427D02*
X135279991Y-106269808D01*
X135279991Y-106269808D02*
X135470467Y-106269808D01*
X135470467Y-106269808D02*
X135565705Y-106317427D01*
X135137134Y-106888856D02*
X135232372Y-106936475D01*
X135232372Y-106936475D02*
X135470467Y-106936475D01*
X135470467Y-106936475D02*
X135565705Y-106888856D01*
X135565705Y-106888856D02*
X135613324Y-106793617D01*
X135613324Y-106793617D02*
X135613324Y-106698379D01*
X135613324Y-106698379D02*
X135565705Y-106603141D01*
X135565705Y-106603141D02*
X135470467Y-106555522D01*
X135470467Y-106555522D02*
X135232372Y-106555522D01*
X135232372Y-106555522D02*
X135137134Y-106507903D01*
X134660943Y-106269808D02*
X134660943Y-106936475D01*
X134660943Y-106365046D02*
X134613324Y-106317427D01*
X134613324Y-106317427D02*
X134518086Y-106269808D01*
X134518086Y-106269808D02*
X134375229Y-106269808D01*
X134375229Y-106269808D02*
X134279991Y-106317427D01*
X134279991Y-106317427D02*
X134232372Y-106412665D01*
X134232372Y-106412665D02*
X134232372Y-106936475D01*
X146279992Y-108451180D02*
X146327611Y-108498800D01*
X146327611Y-108498800D02*
X146470468Y-108546419D01*
X146470468Y-108546419D02*
X146565706Y-108546419D01*
X146565706Y-108546419D02*
X146708563Y-108498800D01*
X146708563Y-108498800D02*
X146803801Y-108403561D01*
X146803801Y-108403561D02*
X146851420Y-108308323D01*
X146851420Y-108308323D02*
X146899039Y-108117847D01*
X146899039Y-108117847D02*
X146899039Y-107974990D01*
X146899039Y-107974990D02*
X146851420Y-107784514D01*
X146851420Y-107784514D02*
X146803801Y-107689276D01*
X146803801Y-107689276D02*
X146708563Y-107594038D01*
X146708563Y-107594038D02*
X146565706Y-107546419D01*
X146565706Y-107546419D02*
X146470468Y-107546419D01*
X146470468Y-107546419D02*
X146327611Y-107594038D01*
X146327611Y-107594038D02*
X146279992Y-107641657D01*
X145422849Y-108546419D02*
X145422849Y-108022609D01*
X145422849Y-108022609D02*
X145470468Y-107927371D01*
X145470468Y-107927371D02*
X145565706Y-107879752D01*
X145565706Y-107879752D02*
X145756182Y-107879752D01*
X145756182Y-107879752D02*
X145851420Y-107927371D01*
X145422849Y-108498800D02*
X145518087Y-108546419D01*
X145518087Y-108546419D02*
X145756182Y-108546419D01*
X145756182Y-108546419D02*
X145851420Y-108498800D01*
X145851420Y-108498800D02*
X145899039Y-108403561D01*
X145899039Y-108403561D02*
X145899039Y-108308323D01*
X145899039Y-108308323D02*
X145851420Y-108213085D01*
X145851420Y-108213085D02*
X145756182Y-108165466D01*
X145756182Y-108165466D02*
X145518087Y-108165466D01*
X145518087Y-108165466D02*
X145422849Y-108117847D01*
X144946658Y-108546419D02*
X144946658Y-107879752D01*
X144946658Y-108070228D02*
X144899039Y-107974990D01*
X144899039Y-107974990D02*
X144851420Y-107927371D01*
X144851420Y-107927371D02*
X144756182Y-107879752D01*
X144756182Y-107879752D02*
X144660944Y-107879752D01*
X144327610Y-108546419D02*
X144327610Y-107879752D01*
X144327610Y-108070228D02*
X144279991Y-107974990D01*
X144279991Y-107974990D02*
X144232372Y-107927371D01*
X144232372Y-107927371D02*
X144137134Y-107879752D01*
X144137134Y-107879752D02*
X144041896Y-107879752D01*
X143279991Y-108546419D02*
X143279991Y-108022609D01*
X143279991Y-108022609D02*
X143327610Y-107927371D01*
X143327610Y-107927371D02*
X143422848Y-107879752D01*
X143422848Y-107879752D02*
X143613324Y-107879752D01*
X143613324Y-107879752D02*
X143708562Y-107927371D01*
X143279991Y-108498800D02*
X143375229Y-108546419D01*
X143375229Y-108546419D02*
X143613324Y-108546419D01*
X143613324Y-108546419D02*
X143708562Y-108498800D01*
X143708562Y-108498800D02*
X143756181Y-108403561D01*
X143756181Y-108403561D02*
X143756181Y-108308323D01*
X143756181Y-108308323D02*
X143708562Y-108213085D01*
X143708562Y-108213085D02*
X143613324Y-108165466D01*
X143613324Y-108165466D02*
X143375229Y-108165466D01*
X143375229Y-108165466D02*
X143279991Y-108117847D01*
X142756181Y-108498800D02*
X142756181Y-108546419D01*
X142756181Y-108546419D02*
X142803800Y-108641657D01*
X142803800Y-108641657D02*
X142851419Y-108689276D01*
X141089515Y-108546419D02*
X141565705Y-108546419D01*
X141565705Y-108546419D02*
X141565705Y-107546419D01*
X140327610Y-107879752D02*
X140327610Y-108546419D01*
X140756181Y-107879752D02*
X140756181Y-108403561D01*
X140756181Y-108403561D02*
X140708562Y-108498800D01*
X140708562Y-108498800D02*
X140613324Y-108546419D01*
X140613324Y-108546419D02*
X140470467Y-108546419D01*
X140470467Y-108546419D02*
X140375229Y-108498800D01*
X140375229Y-108498800D02*
X140327610Y-108451180D01*
X139422848Y-108498800D02*
X139518086Y-108546419D01*
X139518086Y-108546419D02*
X139708562Y-108546419D01*
X139708562Y-108546419D02*
X139803800Y-108498800D01*
X139803800Y-108498800D02*
X139851419Y-108451180D01*
X139851419Y-108451180D02*
X139899038Y-108355942D01*
X139899038Y-108355942D02*
X139899038Y-108070228D01*
X139899038Y-108070228D02*
X139851419Y-107974990D01*
X139851419Y-107974990D02*
X139803800Y-107927371D01*
X139803800Y-107927371D02*
X139708562Y-107879752D01*
X139708562Y-107879752D02*
X139518086Y-107879752D01*
X139518086Y-107879752D02*
X139422848Y-107927371D01*
X138565705Y-108546419D02*
X138565705Y-108022609D01*
X138565705Y-108022609D02*
X138613324Y-107927371D01*
X138613324Y-107927371D02*
X138708562Y-107879752D01*
X138708562Y-107879752D02*
X138899038Y-107879752D01*
X138899038Y-107879752D02*
X138994276Y-107927371D01*
X138565705Y-108498800D02*
X138660943Y-108546419D01*
X138660943Y-108546419D02*
X138899038Y-108546419D01*
X138899038Y-108546419D02*
X138994276Y-108498800D01*
X138994276Y-108498800D02*
X139041895Y-108403561D01*
X139041895Y-108403561D02*
X139041895Y-108308323D01*
X139041895Y-108308323D02*
X138994276Y-108213085D01*
X138994276Y-108213085D02*
X138899038Y-108165466D01*
X138899038Y-108165466D02*
X138660943Y-108165466D01*
X138660943Y-108165466D02*
X138565705Y-108117847D01*
X138137133Y-108498800D02*
X138041895Y-108546419D01*
X138041895Y-108546419D02*
X137851419Y-108546419D01*
X137851419Y-108546419D02*
X137756181Y-108498800D01*
X137756181Y-108498800D02*
X137708562Y-108403561D01*
X137708562Y-108403561D02*
X137708562Y-108355942D01*
X137708562Y-108355942D02*
X137756181Y-108260704D01*
X137756181Y-108260704D02*
X137851419Y-108213085D01*
X137851419Y-108213085D02*
X137994276Y-108213085D01*
X137994276Y-108213085D02*
X138089514Y-108165466D01*
X138089514Y-108165466D02*
X138137133Y-108070228D01*
X138137133Y-108070228D02*
X138137133Y-108022609D01*
X138137133Y-108022609D02*
X138089514Y-107927371D01*
X138089514Y-107927371D02*
X137994276Y-107879752D01*
X137994276Y-107879752D02*
X137851419Y-107879752D01*
X137851419Y-107879752D02*
X137756181Y-107927371D01*
X125879094Y-45707619D02*
X125879094Y-44707619D01*
X125879094Y-44707619D02*
X125640999Y-44707619D01*
X125640999Y-44707619D02*
X125498142Y-44755238D01*
X125498142Y-44755238D02*
X125402904Y-44850476D01*
X125402904Y-44850476D02*
X125355285Y-44945714D01*
X125355285Y-44945714D02*
X125307666Y-45136190D01*
X125307666Y-45136190D02*
X125307666Y-45279047D01*
X125307666Y-45279047D02*
X125355285Y-45469523D01*
X125355285Y-45469523D02*
X125402904Y-45564761D01*
X125402904Y-45564761D02*
X125498142Y-45660000D01*
X125498142Y-45660000D02*
X125640999Y-45707619D01*
X125640999Y-45707619D02*
X125879094Y-45707619D01*
X124926713Y-44802857D02*
X124879094Y-44755238D01*
X124879094Y-44755238D02*
X124783856Y-44707619D01*
X124783856Y-44707619D02*
X124545761Y-44707619D01*
X124545761Y-44707619D02*
X124450523Y-44755238D01*
X124450523Y-44755238D02*
X124402904Y-44802857D01*
X124402904Y-44802857D02*
X124355285Y-44898095D01*
X124355285Y-44898095D02*
X124355285Y-44993333D01*
X124355285Y-44993333D02*
X124402904Y-45136190D01*
X124402904Y-45136190D02*
X124974332Y-45707619D01*
X124974332Y-45707619D02*
X124355285Y-45707619D01*
X108417819Y-62116905D02*
X107417819Y-62116905D01*
X107417819Y-62116905D02*
X107417819Y-62355000D01*
X107417819Y-62355000D02*
X107465438Y-62497857D01*
X107465438Y-62497857D02*
X107560676Y-62593095D01*
X107560676Y-62593095D02*
X107655914Y-62640714D01*
X107655914Y-62640714D02*
X107846390Y-62688333D01*
X107846390Y-62688333D02*
X107989247Y-62688333D01*
X107989247Y-62688333D02*
X108179723Y-62640714D01*
X108179723Y-62640714D02*
X108274961Y-62593095D01*
X108274961Y-62593095D02*
X108370200Y-62497857D01*
X108370200Y-62497857D02*
X108417819Y-62355000D01*
X108417819Y-62355000D02*
X108417819Y-62116905D01*
X107417819Y-63593095D02*
X107417819Y-63116905D01*
X107417819Y-63116905D02*
X107894009Y-63069286D01*
X107894009Y-63069286D02*
X107846390Y-63116905D01*
X107846390Y-63116905D02*
X107798771Y-63212143D01*
X107798771Y-63212143D02*
X107798771Y-63450238D01*
X107798771Y-63450238D02*
X107846390Y-63545476D01*
X107846390Y-63545476D02*
X107894009Y-63593095D01*
X107894009Y-63593095D02*
X107989247Y-63640714D01*
X107989247Y-63640714D02*
X108227342Y-63640714D01*
X108227342Y-63640714D02*
X108322580Y-63593095D01*
X108322580Y-63593095D02*
X108370200Y-63545476D01*
X108370200Y-63545476D02*
X108417819Y-63450238D01*
X108417819Y-63450238D02*
X108417819Y-63212143D01*
X108417819Y-63212143D02*
X108370200Y-63116905D01*
X108370200Y-63116905D02*
X108322580Y-63069286D01*
X120900694Y-45707619D02*
X120900694Y-44707619D01*
X120900694Y-44707619D02*
X120662599Y-44707619D01*
X120662599Y-44707619D02*
X120519742Y-44755238D01*
X120519742Y-44755238D02*
X120424504Y-44850476D01*
X120424504Y-44850476D02*
X120376885Y-44945714D01*
X120376885Y-44945714D02*
X120329266Y-45136190D01*
X120329266Y-45136190D02*
X120329266Y-45279047D01*
X120329266Y-45279047D02*
X120376885Y-45469523D01*
X120376885Y-45469523D02*
X120424504Y-45564761D01*
X120424504Y-45564761D02*
X120519742Y-45660000D01*
X120519742Y-45660000D02*
X120662599Y-45707619D01*
X120662599Y-45707619D02*
X120900694Y-45707619D01*
X119472123Y-44707619D02*
X119662599Y-44707619D01*
X119662599Y-44707619D02*
X119757837Y-44755238D01*
X119757837Y-44755238D02*
X119805456Y-44802857D01*
X119805456Y-44802857D02*
X119900694Y-44945714D01*
X119900694Y-44945714D02*
X119948313Y-45136190D01*
X119948313Y-45136190D02*
X119948313Y-45517142D01*
X119948313Y-45517142D02*
X119900694Y-45612380D01*
X119900694Y-45612380D02*
X119853075Y-45660000D01*
X119853075Y-45660000D02*
X119757837Y-45707619D01*
X119757837Y-45707619D02*
X119567361Y-45707619D01*
X119567361Y-45707619D02*
X119472123Y-45660000D01*
X119472123Y-45660000D02*
X119424504Y-45612380D01*
X119424504Y-45612380D02*
X119376885Y-45517142D01*
X119376885Y-45517142D02*
X119376885Y-45279047D01*
X119376885Y-45279047D02*
X119424504Y-45183809D01*
X119424504Y-45183809D02*
X119472123Y-45136190D01*
X119472123Y-45136190D02*
X119567361Y-45088571D01*
X119567361Y-45088571D02*
X119757837Y-45088571D01*
X119757837Y-45088571D02*
X119853075Y-45136190D01*
X119853075Y-45136190D02*
X119900694Y-45183809D01*
X119900694Y-45183809D02*
X119948313Y-45279047D01*
X137940219Y-58498676D02*
X138654504Y-58498676D01*
X138654504Y-58498676D02*
X138797361Y-58451057D01*
X138797361Y-58451057D02*
X138892600Y-58355819D01*
X138892600Y-58355819D02*
X138940219Y-58212962D01*
X138940219Y-58212962D02*
X138940219Y-58117724D01*
X138940219Y-59498676D02*
X138940219Y-58927248D01*
X138940219Y-59212962D02*
X137940219Y-59212962D01*
X137940219Y-59212962D02*
X138083076Y-59117724D01*
X138083076Y-59117724D02*
X138178314Y-59022486D01*
X138178314Y-59022486D02*
X138225933Y-58927248D01*
X138940219Y-60451057D02*
X138940219Y-59879629D01*
X138940219Y-60165343D02*
X137940219Y-60165343D01*
X137940219Y-60165343D02*
X138083076Y-60070105D01*
X138083076Y-60070105D02*
X138178314Y-59974867D01*
X138178314Y-59974867D02*
X138225933Y-59879629D01*
X123339094Y-45707619D02*
X123339094Y-44707619D01*
X123339094Y-44707619D02*
X123100999Y-44707619D01*
X123100999Y-44707619D02*
X122958142Y-44755238D01*
X122958142Y-44755238D02*
X122862904Y-44850476D01*
X122862904Y-44850476D02*
X122815285Y-44945714D01*
X122815285Y-44945714D02*
X122767666Y-45136190D01*
X122767666Y-45136190D02*
X122767666Y-45279047D01*
X122767666Y-45279047D02*
X122815285Y-45469523D01*
X122815285Y-45469523D02*
X122862904Y-45564761D01*
X122862904Y-45564761D02*
X122958142Y-45660000D01*
X122958142Y-45660000D02*
X123100999Y-45707619D01*
X123100999Y-45707619D02*
X123339094Y-45707619D01*
X122434332Y-44707619D02*
X121767666Y-44707619D01*
X121767666Y-44707619D02*
X122196237Y-45707619D01*
X153027819Y-72773476D02*
X153742104Y-72773476D01*
X153742104Y-72773476D02*
X153884961Y-72725857D01*
X153884961Y-72725857D02*
X153980200Y-72630619D01*
X153980200Y-72630619D02*
X154027819Y-72487762D01*
X154027819Y-72487762D02*
X154027819Y-72392524D01*
X154027819Y-73773476D02*
X154027819Y-73202048D01*
X154027819Y-73487762D02*
X153027819Y-73487762D01*
X153027819Y-73487762D02*
X153170676Y-73392524D01*
X153170676Y-73392524D02*
X153265914Y-73297286D01*
X153265914Y-73297286D02*
X153313533Y-73202048D01*
X153027819Y-74392524D02*
X153027819Y-74487762D01*
X153027819Y-74487762D02*
X153075438Y-74583000D01*
X153075438Y-74583000D02*
X153123057Y-74630619D01*
X153123057Y-74630619D02*
X153218295Y-74678238D01*
X153218295Y-74678238D02*
X153408771Y-74725857D01*
X153408771Y-74725857D02*
X153646866Y-74725857D01*
X153646866Y-74725857D02*
X153837342Y-74678238D01*
X153837342Y-74678238D02*
X153932580Y-74630619D01*
X153932580Y-74630619D02*
X153980200Y-74583000D01*
X153980200Y-74583000D02*
X154027819Y-74487762D01*
X154027819Y-74487762D02*
X154027819Y-74392524D01*
X154027819Y-74392524D02*
X153980200Y-74297286D01*
X153980200Y-74297286D02*
X153932580Y-74249667D01*
X153932580Y-74249667D02*
X153837342Y-74202048D01*
X153837342Y-74202048D02*
X153646866Y-74154429D01*
X153646866Y-74154429D02*
X153408771Y-74154429D01*
X153408771Y-74154429D02*
X153218295Y-74202048D01*
X153218295Y-74202048D02*
X153123057Y-74249667D01*
X153123057Y-74249667D02*
X153075438Y-74297286D01*
X153075438Y-74297286D02*
X153027819Y-74392524D01*
X147706333Y-113932419D02*
X147706333Y-114646704D01*
X147706333Y-114646704D02*
X147753952Y-114789561D01*
X147753952Y-114789561D02*
X147849190Y-114884800D01*
X147849190Y-114884800D02*
X147992047Y-114932419D01*
X147992047Y-114932419D02*
X148087285Y-114932419D01*
X147325380Y-113932419D02*
X146706333Y-113932419D01*
X146706333Y-113932419D02*
X147039666Y-114313371D01*
X147039666Y-114313371D02*
X146896809Y-114313371D01*
X146896809Y-114313371D02*
X146801571Y-114360990D01*
X146801571Y-114360990D02*
X146753952Y-114408609D01*
X146753952Y-114408609D02*
X146706333Y-114503847D01*
X146706333Y-114503847D02*
X146706333Y-114741942D01*
X146706333Y-114741942D02*
X146753952Y-114837180D01*
X146753952Y-114837180D02*
X146801571Y-114884800D01*
X146801571Y-114884800D02*
X146896809Y-114932419D01*
X146896809Y-114932419D02*
X147182523Y-114932419D01*
X147182523Y-114932419D02*
X147277761Y-114884800D01*
X147277761Y-114884800D02*
X147325380Y-114837180D01*
X128419094Y-45707619D02*
X128419094Y-44707619D01*
X128419094Y-44707619D02*
X128180999Y-44707619D01*
X128180999Y-44707619D02*
X128038142Y-44755238D01*
X128038142Y-44755238D02*
X127942904Y-44850476D01*
X127942904Y-44850476D02*
X127895285Y-44945714D01*
X127895285Y-44945714D02*
X127847666Y-45136190D01*
X127847666Y-45136190D02*
X127847666Y-45279047D01*
X127847666Y-45279047D02*
X127895285Y-45469523D01*
X127895285Y-45469523D02*
X127942904Y-45564761D01*
X127942904Y-45564761D02*
X128038142Y-45660000D01*
X128038142Y-45660000D02*
X128180999Y-45707619D01*
X128180999Y-45707619D02*
X128419094Y-45707619D01*
X127514332Y-44707619D02*
X126895285Y-44707619D01*
X126895285Y-44707619D02*
X127228618Y-45088571D01*
X127228618Y-45088571D02*
X127085761Y-45088571D01*
X127085761Y-45088571D02*
X126990523Y-45136190D01*
X126990523Y-45136190D02*
X126942904Y-45183809D01*
X126942904Y-45183809D02*
X126895285Y-45279047D01*
X126895285Y-45279047D02*
X126895285Y-45517142D01*
X126895285Y-45517142D02*
X126942904Y-45612380D01*
X126942904Y-45612380D02*
X126990523Y-45660000D01*
X126990523Y-45660000D02*
X127085761Y-45707619D01*
X127085761Y-45707619D02*
X127371475Y-45707619D01*
X127371475Y-45707619D02*
X127466713Y-45660000D01*
X127466713Y-45660000D02*
X127514332Y-45612380D01*
X125773133Y-113932419D02*
X125773133Y-114646704D01*
X125773133Y-114646704D02*
X125820752Y-114789561D01*
X125820752Y-114789561D02*
X125915990Y-114884800D01*
X125915990Y-114884800D02*
X126058847Y-114932419D01*
X126058847Y-114932419D02*
X126154085Y-114932419D01*
X125344561Y-114027657D02*
X125296942Y-113980038D01*
X125296942Y-113980038D02*
X125201704Y-113932419D01*
X125201704Y-113932419D02*
X124963609Y-113932419D01*
X124963609Y-113932419D02*
X124868371Y-113980038D01*
X124868371Y-113980038D02*
X124820752Y-114027657D01*
X124820752Y-114027657D02*
X124773133Y-114122895D01*
X124773133Y-114122895D02*
X124773133Y-114218133D01*
X124773133Y-114218133D02*
X124820752Y-114360990D01*
X124820752Y-114360990D02*
X125392180Y-114932419D01*
X125392180Y-114932419D02*
X124773133Y-114932419D01*
D11*
%TO.C,G\u002A\u002A\u002A*%
G36*
X152820309Y-102811300D02*
G01*
X152820453Y-103015837D01*
X152820870Y-103208296D01*
X152821531Y-103385244D01*
X152822412Y-103543246D01*
X152823485Y-103678870D01*
X152824725Y-103788680D01*
X152826104Y-103869244D01*
X152827598Y-103917128D01*
X152828874Y-103929600D01*
X152864919Y-103921549D01*
X152927265Y-103899795D01*
X153007374Y-103867938D01*
X153096709Y-103829576D01*
X153186733Y-103788309D01*
X153268908Y-103747735D01*
X153302033Y-103730126D01*
X153519870Y-103591390D01*
X153726824Y-103422102D01*
X153915194Y-103229803D01*
X154077275Y-103022036D01*
X154161101Y-102888909D01*
X154250413Y-102712681D01*
X154327178Y-102521384D01*
X154388381Y-102325188D01*
X154431007Y-102134259D01*
X154452040Y-101958768D01*
X154453744Y-101902073D01*
X154454000Y-101770794D01*
X155089046Y-101770794D01*
X155724093Y-101770794D01*
X155711093Y-101998413D01*
X155671759Y-102351233D01*
X155595496Y-102696482D01*
X155483965Y-103031478D01*
X155338825Y-103353540D01*
X155161736Y-103659986D01*
X154954359Y-103948133D01*
X154718354Y-104215301D01*
X154455380Y-104458808D01*
X154167099Y-104675971D01*
X153980758Y-104793636D01*
X153741750Y-104920704D01*
X153485434Y-105032544D01*
X153224835Y-105124103D01*
X152972978Y-105190327D01*
X152941863Y-105196751D01*
X152871517Y-105214603D01*
X152829541Y-105233590D01*
X152820309Y-105246278D01*
X152826606Y-105251273D01*
X152847066Y-105255599D01*
X152884041Y-105259299D01*
X152939885Y-105262415D01*
X153016950Y-105264993D01*
X153117590Y-105267073D01*
X153244157Y-105268699D01*
X153399005Y-105269915D01*
X153584485Y-105270764D01*
X153802952Y-105271288D01*
X154056757Y-105271531D01*
X154201166Y-105271560D01*
X155582024Y-105271560D01*
X155582024Y-105884194D01*
X155582024Y-106496828D01*
X154342169Y-106497114D01*
X153102315Y-106497401D01*
X153328233Y-106573425D01*
X153661818Y-106705850D01*
X153980900Y-106872709D01*
X154282096Y-107071324D01*
X154562024Y-107299019D01*
X154817301Y-107553116D01*
X155044545Y-107830939D01*
X155191038Y-108047598D01*
X155341889Y-108318568D01*
X155470502Y-108606664D01*
X155574656Y-108904534D01*
X155652129Y-109204821D01*
X155700699Y-109500170D01*
X155718145Y-109783228D01*
X155718165Y-109792616D01*
X155718165Y-109900350D01*
X155088682Y-109900350D01*
X154459200Y-109900350D01*
X154448811Y-109710725D01*
X154415242Y-109446060D01*
X154345207Y-109185112D01*
X154241135Y-108931983D01*
X154105456Y-108690774D01*
X153940600Y-108465588D01*
X153748996Y-108260526D01*
X153533073Y-108079689D01*
X153446995Y-108019402D01*
X153355081Y-107962856D01*
X153248601Y-107904621D01*
X153137230Y-107849295D01*
X153030643Y-107801482D01*
X152938512Y-107765782D01*
X152875967Y-107747814D01*
X152820309Y-107736683D01*
X152820309Y-108828241D01*
X152820309Y-109919799D01*
X152217399Y-109919799D01*
X151614490Y-109919799D01*
X151614490Y-108828563D01*
X151614490Y-107737328D01*
X151561006Y-107750611D01*
X151480638Y-107775846D01*
X151379244Y-107815297D01*
X151269358Y-107863515D01*
X151163515Y-107915054D01*
X151088641Y-107955909D01*
X150844573Y-108120102D01*
X150628184Y-108311521D01*
X150439201Y-108530461D01*
X150277352Y-108777219D01*
X150203060Y-108918191D01*
X150098326Y-109169563D01*
X150026169Y-109424778D01*
X149988634Y-109676359D01*
X149986267Y-109710725D01*
X149975143Y-109900350D01*
X149345888Y-109900350D01*
X148716634Y-109900350D01*
X148716634Y-109778286D01*
X148721716Y-109652029D01*
X148735953Y-109501402D01*
X148757828Y-109339442D01*
X148785823Y-109179181D01*
X148787073Y-109172867D01*
X148841492Y-108955520D01*
X148919709Y-108722306D01*
X149017070Y-108483877D01*
X149128918Y-108250889D01*
X149250600Y-108033994D01*
X149352988Y-107877686D01*
X149438605Y-107766907D01*
X149547892Y-107640676D01*
X149673213Y-107506629D01*
X149806933Y-107372401D01*
X149941416Y-107245628D01*
X150069027Y-107133945D01*
X150182130Y-107044986D01*
X150194735Y-107035939D01*
X150332617Y-106945912D01*
X150495706Y-106851813D01*
X150672221Y-106759589D01*
X150850376Y-106675183D01*
X151018391Y-106604540D01*
X151128272Y-106564945D01*
X151332483Y-106498125D01*
X150092629Y-106497476D01*
X148852774Y-106496828D01*
X148852774Y-105884194D01*
X148852774Y-105271560D01*
X150233632Y-105271560D01*
X150501158Y-105271486D01*
X150732361Y-105271227D01*
X150929813Y-105270728D01*
X151096089Y-105269936D01*
X151233761Y-105268796D01*
X151345404Y-105267254D01*
X151433591Y-105265255D01*
X151500895Y-105262745D01*
X151549890Y-105259670D01*
X151583149Y-105255975D01*
X151603246Y-105251606D01*
X151612755Y-105246508D01*
X151614490Y-105242387D01*
X151598565Y-105217634D01*
X151580454Y-105213036D01*
X151529275Y-105206524D01*
X151449843Y-105188940D01*
X151350396Y-105162676D01*
X151239174Y-105130124D01*
X151124417Y-105093675D01*
X151014364Y-105055723D01*
X150933785Y-105025305D01*
X150606183Y-104875144D01*
X150298571Y-104693900D01*
X150012758Y-104484049D01*
X149750550Y-104248072D01*
X149513755Y-103988446D01*
X149304180Y-103707650D01*
X149123632Y-103408161D01*
X148973919Y-103092459D01*
X148856847Y-102763022D01*
X148774224Y-102422327D01*
X148727857Y-102072854D01*
X148722589Y-101992953D01*
X148710684Y-101770794D01*
X149345741Y-101770794D01*
X149980799Y-101770794D01*
X149980799Y-101895062D01*
X149988435Y-102020460D01*
X150009553Y-102166142D01*
X150041468Y-102317013D01*
X150080243Y-102454159D01*
X150187143Y-102720943D01*
X150326734Y-102971148D01*
X150495914Y-103201533D01*
X150691580Y-103408860D01*
X150910629Y-103589886D01*
X151149959Y-103741374D01*
X151406467Y-103860083D01*
X151437704Y-103871770D01*
X151510022Y-103897803D01*
X151567327Y-103917754D01*
X151600681Y-103928542D01*
X151605325Y-103929600D01*
X151607001Y-103910723D01*
X151608579Y-103856384D01*
X151610029Y-103770014D01*
X151611323Y-103655048D01*
X151612435Y-103514921D01*
X151613335Y-103353064D01*
X151613995Y-103172914D01*
X151614387Y-102977902D01*
X151614490Y-102811300D01*
X151614490Y-101693000D01*
X152217399Y-101693000D01*
X152820309Y-101693000D01*
X152820309Y-102811300D01*
G37*
D12*
%TO.C,D2*%
X124430000Y-41200000D02*
X125900000Y-41200000D01*
X124430000Y-43660000D02*
X124430000Y-41200000D01*
X125900000Y-41200000D02*
X125900000Y-43660000D01*
%TO.C,D5*%
X108658000Y-61195000D02*
X110128000Y-61195000D01*
X108658000Y-63655000D02*
X108658000Y-61195000D01*
X110128000Y-61195000D02*
X110128000Y-63655000D01*
%TO.C,D6*%
X119478400Y-41205200D02*
X120948400Y-41205200D01*
X119478400Y-43665200D02*
X119478400Y-41205200D01*
X120948400Y-41205200D02*
X120948400Y-43665200D01*
%TO.C,J11*%
X122135400Y-59543200D02*
X137595400Y-59543200D01*
X122135400Y-62303200D02*
X122135400Y-59543200D01*
X123085400Y-53543200D02*
X123085400Y-59543200D01*
X123085400Y-62615842D02*
X123085400Y-62303200D01*
X123945400Y-53543200D02*
X123085400Y-53543200D01*
X123945400Y-59543200D02*
X123945400Y-53543200D01*
X123945400Y-62615842D02*
X123945400Y-62303200D01*
X124785400Y-62303200D02*
X124785400Y-59543200D01*
X125625400Y-53543200D02*
X125625400Y-59543200D01*
X125625400Y-62615842D02*
X125625400Y-62303200D01*
X126485400Y-53543200D02*
X125625400Y-53543200D01*
X126485400Y-59543200D02*
X126485400Y-53543200D01*
X126485400Y-62615842D02*
X126485400Y-62303200D01*
X127325400Y-62303200D02*
X127325400Y-59543200D01*
X128165400Y-53543200D02*
X128165400Y-59543200D01*
X128165400Y-62615842D02*
X128165400Y-62303200D01*
X129025400Y-53543200D02*
X128165400Y-53543200D01*
X129025400Y-59543200D02*
X129025400Y-53543200D01*
X129025400Y-62615842D02*
X129025400Y-62303200D01*
X129865400Y-62303200D02*
X129865400Y-59543200D01*
X130705400Y-53543200D02*
X130705400Y-59543200D01*
X130705400Y-62615842D02*
X130705400Y-62303200D01*
X131565400Y-53543200D02*
X130705400Y-53543200D01*
X131565400Y-59543200D02*
X131565400Y-53543200D01*
X131565400Y-62615842D02*
X131565400Y-62303200D01*
X132405400Y-62303200D02*
X132405400Y-59543200D01*
X133245400Y-53543200D02*
X133245400Y-59543200D01*
X133245400Y-62615842D02*
X133245400Y-62303200D01*
X134105400Y-53543200D02*
X133245400Y-53543200D01*
X134105400Y-59543200D02*
X134105400Y-53543200D01*
X134105400Y-62615842D02*
X134105400Y-62303200D01*
X134945400Y-62303200D02*
X134945400Y-59543200D01*
X135785400Y-62533200D02*
X135785400Y-62303200D01*
X136215400Y-64963200D02*
X137485400Y-64963200D01*
X136645400Y-62533200D02*
X136645400Y-62303200D01*
X137485400Y-64963200D02*
X137485400Y-63693200D01*
X137595400Y-59543200D02*
X137595400Y-62303200D01*
X137595400Y-62303200D02*
X122135400Y-62303200D01*
X136645400Y-59543200D02*
X135785400Y-59543200D01*
X135785400Y-53543200D01*
X136645400Y-53543200D01*
X136645400Y-59543200D01*
G36*
X136645400Y-59543200D02*
G01*
X135785400Y-59543200D01*
X135785400Y-53543200D01*
X136645400Y-53543200D01*
X136645400Y-59543200D01*
G37*
%TO.C,D7*%
X121866000Y-41205200D02*
X123336000Y-41205200D01*
X121866000Y-43665200D02*
X121866000Y-41205200D01*
X123336000Y-41205200D02*
X123336000Y-43665200D01*
%TO.C,J10*%
X142303000Y-73818000D02*
X152683000Y-73818000D01*
X142303000Y-76578000D02*
X142303000Y-73818000D01*
X143253000Y-67818000D02*
X143253000Y-73818000D01*
X143253000Y-76890642D02*
X143253000Y-76578000D01*
X144113000Y-67818000D02*
X143253000Y-67818000D01*
X144113000Y-73818000D02*
X144113000Y-67818000D01*
X144113000Y-76890642D02*
X144113000Y-76578000D01*
X144953000Y-76578000D02*
X144953000Y-73818000D01*
X145793000Y-67818000D02*
X145793000Y-73818000D01*
X145793000Y-76890642D02*
X145793000Y-76578000D01*
X146653000Y-67818000D02*
X145793000Y-67818000D01*
X146653000Y-73818000D02*
X146653000Y-67818000D01*
X146653000Y-76890642D02*
X146653000Y-76578000D01*
X147493000Y-76578000D02*
X147493000Y-73818000D01*
X148333000Y-67818000D02*
X148333000Y-73818000D01*
X148333000Y-76890642D02*
X148333000Y-76578000D01*
X149193000Y-67818000D02*
X148333000Y-67818000D01*
X149193000Y-73818000D02*
X149193000Y-67818000D01*
X149193000Y-76890642D02*
X149193000Y-76578000D01*
X150033000Y-76578000D02*
X150033000Y-73818000D01*
X150873000Y-76808000D02*
X150873000Y-76578000D01*
X151303000Y-79238000D02*
X152573000Y-79238000D01*
X151733000Y-76808000D02*
X151733000Y-76578000D01*
X152573000Y-79238000D02*
X152573000Y-77968000D01*
X152683000Y-73818000D02*
X152683000Y-76578000D01*
X152683000Y-76578000D02*
X142303000Y-76578000D01*
X151733000Y-73818000D02*
X150873000Y-73818000D01*
X150873000Y-67818000D01*
X151733000Y-67818000D01*
X151733000Y-73818000D01*
G36*
X151733000Y-73818000D02*
G01*
X150873000Y-73818000D01*
X150873000Y-67818000D01*
X151733000Y-67818000D01*
X151733000Y-73818000D01*
G37*
%TO.C,J3*%
X132503000Y-115477600D02*
X132503000Y-127717600D01*
X132503000Y-127717600D02*
X158623000Y-127717600D01*
X132943000Y-122897600D02*
X132503000Y-122897600D01*
X136173000Y-115477600D02*
X136173000Y-127717600D01*
X139673000Y-115477600D02*
X139673000Y-127717600D01*
X139943000Y-122897600D02*
X135903000Y-122897600D01*
X143173000Y-115477600D02*
X143173000Y-127717600D01*
X146673000Y-115477600D02*
X146673000Y-127717600D01*
X146943000Y-122897600D02*
X142903000Y-122897600D01*
X150173000Y-115477600D02*
X150173000Y-127717600D01*
X153673000Y-115477600D02*
X153673000Y-127717600D01*
X153943000Y-122897600D02*
X149903000Y-122897600D01*
X157173000Y-115477600D02*
X157173000Y-127717600D01*
X159223000Y-127717600D02*
X162243000Y-127717600D01*
X160673000Y-115477600D02*
X160673000Y-127717600D01*
X162243000Y-115477600D02*
X132503000Y-115477600D01*
X162243000Y-122897600D02*
X156903000Y-122897600D01*
X162243000Y-127717600D02*
X162243000Y-115477600D01*
X132973000Y-125597600D02*
G75*
G02*
X133328006Y-124927606I1446500J-337400D01*
G01*
X135518000Y-124927600D02*
G75*
G02*
X135872990Y-125597602I-1091200J-1007200D01*
G01*
X135873000Y-125597600D02*
G75*
G02*
X132973000Y-125597600I-1450000J339130D01*
G01*
X136473000Y-125597600D02*
G75*
G02*
X139373000Y-125597600I1450000J-339130D01*
G01*
X139373000Y-125597600D02*
G75*
G02*
X136473000Y-125597600I-1450000J339130D01*
G01*
X139973000Y-125597600D02*
G75*
G02*
X140328006Y-124927606I1446500J-337400D01*
G01*
X142518000Y-124927600D02*
G75*
G02*
X142872990Y-125597602I-1091200J-1007200D01*
G01*
X142873000Y-125597600D02*
G75*
G02*
X139973000Y-125597600I-1450000J339130D01*
G01*
X143473000Y-125597600D02*
G75*
G02*
X146373000Y-125597600I1450000J-339130D01*
G01*
X146373000Y-125597600D02*
G75*
G02*
X143473000Y-125597600I-1450000J339130D01*
G01*
X146973000Y-125597600D02*
G75*
G02*
X147328006Y-124927606I1446500J-337400D01*
G01*
X149518000Y-124927600D02*
G75*
G02*
X149872990Y-125597602I-1091200J-1007200D01*
G01*
X149873000Y-125597600D02*
G75*
G02*
X146973000Y-125597600I-1450000J339130D01*
G01*
X150473000Y-125597600D02*
G75*
G02*
X153373000Y-125597600I1450000J-339130D01*
G01*
X153373000Y-125597600D02*
G75*
G02*
X150473000Y-125597600I-1450000J339130D01*
G01*
X153973000Y-125597600D02*
G75*
G02*
X154328000Y-124927600I1446460J-337360D01*
G01*
X156518000Y-124927600D02*
G75*
G02*
X156873000Y-125597600I-1091290J-1007270D01*
G01*
X156873000Y-125597600D02*
G75*
G02*
X153973000Y-125597600I-1450000J339130D01*
G01*
X157473000Y-125597600D02*
G75*
G02*
X160373000Y-125597600I1450000J-339130D01*
G01*
X160373000Y-125597600D02*
G75*
G02*
X157473000Y-125597600I-1450000J339130D01*
G01*
X159363000Y-128327600D02*
X158483000Y-128327600D01*
X158923000Y-127717600D01*
X159363000Y-128327600D01*
G36*
X159363000Y-128327600D02*
G01*
X158483000Y-128327600D01*
X158923000Y-127717600D01*
X159363000Y-128327600D01*
G37*
%TO.C,D3*%
X126946000Y-41205200D02*
X128416000Y-41205200D01*
X126946000Y-43665200D02*
X126946000Y-41205200D01*
X128416000Y-41205200D02*
X128416000Y-43665200D01*
%TO.C,J2*%
X119319800Y-115477600D02*
X119319800Y-127717600D01*
X119319800Y-127717600D02*
X127939800Y-127717600D01*
X122989800Y-115477600D02*
X122989800Y-127717600D01*
X123259800Y-122897600D02*
X119319800Y-122897600D01*
X126489800Y-115477600D02*
X126489800Y-127717600D01*
X128539800Y-127717600D02*
X131559800Y-127717600D01*
X129989800Y-115477600D02*
X129989800Y-127717600D01*
X131559800Y-115477600D02*
X119319800Y-115477600D01*
X131559800Y-122897600D02*
X126219800Y-122897600D01*
X131559800Y-127717600D02*
X131559800Y-115477600D01*
X119789800Y-125597600D02*
G75*
G02*
X122689800Y-125597600I1450000J-339130D01*
G01*
X122689800Y-125597600D02*
G75*
G02*
X119789800Y-125597600I-1450000J339130D01*
G01*
X123289800Y-125597600D02*
G75*
G02*
X123644800Y-124927600I1446460J-337360D01*
G01*
X125834800Y-124927600D02*
G75*
G02*
X126189800Y-125597600I-1091290J-1007270D01*
G01*
X126189800Y-125597600D02*
G75*
G02*
X123289800Y-125597600I-1450000J339130D01*
G01*
X126789800Y-125597600D02*
G75*
G02*
X129689800Y-125597600I1450000J-339130D01*
G01*
X129689800Y-125597600D02*
G75*
G02*
X126789800Y-125597600I-1450000J339130D01*
G01*
X128679800Y-128327600D02*
X127799800Y-128327600D01*
X128239800Y-127717600D01*
X128679800Y-128327600D01*
G36*
X128679800Y-128327600D02*
G01*
X127799800Y-128327600D01*
X128239800Y-127717600D01*
X128679800Y-128327600D01*
G37*
%TD*%
M02*
