%TF.GenerationSoftware,KiCad,Pcbnew,9.0.3*%
%TF.CreationDate,2025-08-30T18:16:35-03:00*%
%TF.ProjectId,HMI_LVDC-Inverter,484d495f-4c56-4444-932d-496e76657274,rev?*%
%TF.SameCoordinates,Original*%
%TF.FileFunction,Soldermask,Top*%
%TF.FilePolarity,Negative*%
%FSLAX46Y46*%
G04 Gerber Fmt 4.6, Leading zero omitted, Abs format (unit mm)*
G04 Created by KiCad (PCBNEW 9.0.3) date 2025-08-30 18:16:35*
%MOMM*%
%LPD*%
G01*
G04 APERTURE LIST*
G04 Aperture macros list*
%AMRoundRect*
0 Rectangle with rounded corners*
0 $1 Rounding radius*
0 $2 $3 $4 $5 $6 $7 $8 $9 X,Y pos of 4 corners*
0 Add a 4 corners polygon primitive as box body*
4,1,4,$2,$3,$4,$5,$6,$7,$8,$9,$2,$3,0*
0 Add four circle primitives for the rounded corners*
1,1,$1+$1,$2,$3*
1,1,$1+$1,$4,$5*
1,1,$1+$1,$6,$7*
1,1,$1+$1,$8,$9*
0 Add four rect primitives between the rounded corners*
20,1,$1+$1,$2,$3,$4,$5,0*
20,1,$1+$1,$4,$5,$6,$7,0*
20,1,$1+$1,$6,$7,$8,$9,0*
20,1,$1+$1,$8,$9,$2,$3,0*%
%AMFreePoly0*
4,1,23,0.500000,-0.750000,0.000000,-0.750000,0.000000,-0.745722,-0.065263,-0.745722,-0.191342,-0.711940,-0.304381,-0.646677,-0.396677,-0.554381,-0.461940,-0.441342,-0.495722,-0.315263,-0.495722,-0.250000,-0.500000,-0.250000,-0.500000,0.250000,-0.495722,0.250000,-0.495722,0.315263,-0.461940,0.441342,-0.396677,0.554381,-0.304381,0.646677,-0.191342,0.711940,-0.065263,0.745722,0.000000,0.745722,
0.000000,0.750000,0.500000,0.750000,0.500000,-0.750000,0.500000,-0.750000,$1*%
%AMFreePoly1*
4,1,23,0.000000,0.745722,0.065263,0.745722,0.191342,0.711940,0.304381,0.646677,0.396677,0.554381,0.461940,0.441342,0.495722,0.315263,0.495722,0.250000,0.500000,0.250000,0.500000,-0.250000,0.495722,-0.250000,0.495722,-0.315263,0.461940,-0.441342,0.396677,-0.554381,0.304381,-0.646677,0.191342,-0.711940,0.065263,-0.745722,0.000000,-0.745722,0.000000,-0.750000,-0.500000,-0.750000,
-0.500000,0.750000,0.000000,0.750000,0.000000,0.745722,0.000000,0.745722,$1*%
G04 Aperture macros list end*
%ADD10RoundRect,0.237500X-0.237500X0.250000X-0.237500X-0.250000X0.237500X-0.250000X0.237500X0.250000X0*%
%ADD11RoundRect,0.225000X0.250000X-0.225000X0.250000X0.225000X-0.250000X0.225000X-0.250000X-0.225000X0*%
%ADD12RoundRect,0.237500X-0.250000X-0.237500X0.250000X-0.237500X0.250000X0.237500X-0.250000X0.237500X0*%
%ADD13RoundRect,0.250000X0.550000X-0.550000X0.550000X0.550000X-0.550000X0.550000X-0.550000X-0.550000X0*%
%ADD14RoundRect,0.225000X0.225000X0.250000X-0.225000X0.250000X-0.225000X-0.250000X0.225000X-0.250000X0*%
%ADD15RoundRect,0.237500X0.250000X0.237500X-0.250000X0.237500X-0.250000X-0.237500X0.250000X-0.237500X0*%
%ADD16R,1.000000X1.800000*%
%ADD17RoundRect,0.225000X-0.250000X0.225000X-0.250000X-0.225000X0.250000X-0.225000X0.250000X0.225000X0*%
%ADD18RoundRect,0.237500X0.300000X0.237500X-0.300000X0.237500X-0.300000X-0.237500X0.300000X-0.237500X0*%
%ADD19RoundRect,0.250000X-0.600000X-0.725000X0.600000X-0.725000X0.600000X0.725000X-0.600000X0.725000X0*%
%ADD20O,1.700000X1.950000*%
%ADD21RoundRect,0.250000X0.600000X0.750000X-0.600000X0.750000X-0.600000X-0.750000X0.600000X-0.750000X0*%
%ADD22O,1.700000X2.000000*%
%ADD23RoundRect,0.250000X-1.050000X-0.550000X1.050000X-0.550000X1.050000X0.550000X-1.050000X0.550000X0*%
%ADD24RoundRect,0.250000X-0.550000X0.550000X-0.550000X-0.550000X0.550000X-0.550000X0.550000X0.550000X0*%
%ADD25R,1.700000X1.700000*%
%ADD26C,1.700000*%
%ADD27RoundRect,0.250000X1.050000X0.550000X-1.050000X0.550000X-1.050000X-0.550000X1.050000X-0.550000X0*%
%ADD28RoundRect,0.225000X-0.375000X0.225000X-0.375000X-0.225000X0.375000X-0.225000X0.375000X0.225000X0*%
%ADD29RoundRect,0.237500X-0.300000X-0.237500X0.300000X-0.237500X0.300000X0.237500X-0.300000X0.237500X0*%
%ADD30RoundRect,0.100000X0.155000X0.100000X-0.155000X0.100000X-0.155000X-0.100000X0.155000X-0.100000X0*%
%ADD31RoundRect,0.250001X0.499999X0.499999X-0.499999X0.499999X-0.499999X-0.499999X0.499999X-0.499999X0*%
%ADD32C,1.500000*%
%ADD33RoundRect,0.250000X0.725000X-0.600000X0.725000X0.600000X-0.725000X0.600000X-0.725000X-0.600000X0*%
%ADD34O,1.950000X1.700000*%
%ADD35C,2.400000*%
%ADD36RoundRect,0.250000X-1.000000X-1.000000X1.000000X-1.000000X1.000000X1.000000X-1.000000X1.000000X0*%
%ADD37RoundRect,0.075000X-0.075000X0.662500X-0.075000X-0.662500X0.075000X-0.662500X0.075000X0.662500X0*%
%ADD38RoundRect,0.075000X-0.662500X0.075000X-0.662500X-0.075000X0.662500X-0.075000X0.662500X0.075000X0*%
%ADD39RoundRect,0.150000X0.587500X0.150000X-0.587500X0.150000X-0.587500X-0.150000X0.587500X-0.150000X0*%
%ADD40RoundRect,0.150000X-0.150000X0.875000X-0.150000X-0.875000X0.150000X-0.875000X0.150000X0.875000X0*%
%ADD41R,0.900000X1.500000*%
%ADD42R,1.500000X0.900000*%
%ADD43R,0.900000X0.900000*%
%ADD44C,0.600000*%
%ADD45RoundRect,0.250000X-0.400000X-1.075000X0.400000X-1.075000X0.400000X1.075000X-0.400000X1.075000X0*%
%ADD46RoundRect,0.237500X0.237500X-0.300000X0.237500X0.300000X-0.237500X0.300000X-0.237500X-0.300000X0*%
%ADD47RoundRect,0.250000X0.550000X-1.250000X0.550000X1.250000X-0.550000X1.250000X-0.550000X-1.250000X0*%
%ADD48RoundRect,0.375000X-0.375000X0.625000X-0.375000X-0.625000X0.375000X-0.625000X0.375000X0.625000X0*%
%ADD49RoundRect,0.500000X-1.400000X0.500000X-1.400000X-0.500000X1.400000X-0.500000X1.400000X0.500000X0*%
%ADD50RoundRect,0.250000X-0.750000X-0.950000X0.750000X-0.950000X0.750000X0.950000X-0.750000X0.950000X0*%
%ADD51R,2.000000X2.000000*%
%ADD52C,2.000000*%
%ADD53FreePoly0,180.000000*%
%ADD54FreePoly1,180.000000*%
%ADD55RoundRect,0.100000X0.100000X-0.155000X0.100000X0.155000X-0.100000X0.155000X-0.100000X-0.155000X0*%
%ADD56RoundRect,0.150000X0.150000X0.200000X-0.150000X0.200000X-0.150000X-0.200000X0.150000X-0.200000X0*%
%ADD57FreePoly0,0.000000*%
%ADD58FreePoly1,0.000000*%
%ADD59RoundRect,0.250000X0.750000X1.250000X-0.750000X1.250000X-0.750000X-1.250000X0.750000X-1.250000X0*%
%ADD60O,2.000000X3.000000*%
G04 APERTURE END LIST*
%TO.C,SW1*%
G36*
X147075000Y-51570000D02*
G01*
X146775000Y-51570000D01*
X146775000Y-50070000D01*
X147075000Y-50070000D01*
X147075000Y-51570000D01*
G37*
%TO.C,JP1*%
G36*
X146775000Y-52815000D02*
G01*
X147075000Y-52815000D01*
X147075000Y-54315000D01*
X146775000Y-54315000D01*
X146775000Y-52815000D01*
G37*
%TD*%
D10*
%TO.C,R24*%
X158640000Y-76345000D03*
X158640000Y-78170000D03*
%TD*%
D11*
%TO.C,C18*%
X117876600Y-100079000D03*
X117876600Y-98529000D03*
%TD*%
D12*
%TO.C,R26*%
X126514500Y-69128800D03*
X128339500Y-69128800D03*
%TD*%
D13*
%TO.C,U20*%
X145185000Y-96610000D03*
X147725000Y-96610000D03*
X147725000Y-88990000D03*
X145185000Y-88990000D03*
%TD*%
D14*
%TO.C,C13*%
X165340000Y-78365000D03*
X163790000Y-78365000D03*
%TD*%
D15*
%TO.C,R6*%
X129712500Y-53825000D03*
X127887500Y-53825000D03*
%TD*%
D16*
%TO.C,Y2*%
X161055000Y-49985000D03*
X158555000Y-49985000D03*
%TD*%
D15*
%TO.C,R5*%
X129712500Y-52175000D03*
X127887500Y-52175000D03*
%TD*%
D17*
%TO.C,C14*%
X160720000Y-44735000D03*
X160720000Y-46285000D03*
%TD*%
D15*
%TO.C,R48*%
X112464500Y-61077000D03*
X110639500Y-61077000D03*
%TD*%
D18*
%TO.C,C9*%
X168112500Y-50390000D03*
X166387500Y-50390000D03*
%TD*%
D19*
%TO.C,J6*%
X144915000Y-44675000D03*
D20*
X147415000Y-44675000D03*
X149915000Y-44675000D03*
X152415000Y-44675000D03*
X154915000Y-44675000D03*
%TD*%
D15*
%TO.C,R41*%
X146167500Y-86510000D03*
X144342500Y-86510000D03*
%TD*%
D12*
%TO.C,R27*%
X126539093Y-67464696D03*
X128364093Y-67464696D03*
%TD*%
D21*
%TO.C,J4*%
X172994600Y-104587200D03*
D22*
X170494600Y-104587200D03*
%TD*%
D23*
%TO.C,C16*%
X104341800Y-77968000D03*
X107941800Y-77968000D03*
%TD*%
%TO.C,C19*%
X111860200Y-77968000D03*
X115460200Y-77968000D03*
%TD*%
D15*
%TO.C,R22*%
X164167500Y-99090000D03*
X162342500Y-99090000D03*
%TD*%
D24*
%TO.C,U11*%
X123725000Y-88990000D03*
X121185000Y-88990000D03*
X121185000Y-96610000D03*
X123725000Y-96610000D03*
%TD*%
D25*
%TO.C,J8*%
X168405000Y-73010000D03*
D26*
X168405000Y-75550000D03*
X168405000Y-78090000D03*
X168405000Y-80630000D03*
X168405000Y-83170000D03*
%TD*%
D12*
%TO.C,R17*%
X147020000Y-69065000D03*
X148845000Y-69065000D03*
%TD*%
D15*
%TO.C,R13*%
X129712500Y-42000000D03*
X127887500Y-42000000D03*
%TD*%
D27*
%TO.C,C20*%
X118097500Y-63794800D03*
X114497500Y-63794800D03*
%TD*%
D15*
%TO.C,R33*%
X129712500Y-43900000D03*
X127887500Y-43900000D03*
%TD*%
D12*
%TO.C,R9*%
X127886100Y-58918000D03*
X129711100Y-58918000D03*
%TD*%
D28*
%TO.C,D4*%
X115793800Y-103140400D03*
X115793800Y-106440400D03*
%TD*%
D25*
%TO.C,J5*%
X141397000Y-69340000D03*
D26*
X141397000Y-66800000D03*
X141397000Y-64260000D03*
X141397000Y-61720000D03*
%TD*%
D15*
%TO.C,R37*%
X134167500Y-86510000D03*
X132342500Y-86510000D03*
%TD*%
D14*
%TO.C,C12*%
X165340000Y-73445000D03*
X163790000Y-73445000D03*
%TD*%
D29*
%TO.C,C21*%
X162392500Y-100790000D03*
X164117500Y-100790000D03*
%TD*%
D23*
%TO.C,C17*%
X104291000Y-63794800D03*
X107891000Y-63794800D03*
%TD*%
D30*
%TO.C,Q1*%
X167662500Y-85740000D03*
X167662500Y-86740000D03*
X168952500Y-86240000D03*
%TD*%
D18*
%TO.C,C7*%
X148795000Y-65815000D03*
X147070000Y-65815000D03*
%TD*%
D12*
%TO.C,R47*%
X120369600Y-99050000D03*
X122194600Y-99050000D03*
%TD*%
%TO.C,R10*%
X142487500Y-55150000D03*
X144312500Y-55150000D03*
%TD*%
%TO.C,R28*%
X120342500Y-86510000D03*
X122167500Y-86510000D03*
%TD*%
D15*
%TO.C,R40*%
X140167500Y-99090000D03*
X138342500Y-99090000D03*
%TD*%
D31*
%TO.C,U4*%
X103195400Y-98440400D03*
D32*
X103195400Y-95900400D03*
X103195400Y-90820400D03*
X103195400Y-85740400D03*
%TD*%
D12*
%TO.C,R29*%
X110639500Y-59426000D03*
X112464500Y-59426000D03*
%TD*%
D15*
%TO.C,R19*%
X148845000Y-67440000D03*
X147020000Y-67440000D03*
%TD*%
D33*
%TO.C,J9*%
X104186000Y-58029000D03*
D34*
X104186000Y-55529000D03*
X104186000Y-53029000D03*
X104186000Y-50529000D03*
%TD*%
D13*
%TO.C,U21*%
X157185000Y-96610000D03*
X159725000Y-96610000D03*
X159725000Y-88990000D03*
X157185000Y-88990000D03*
%TD*%
D15*
%TO.C,R7*%
X134367500Y-42020000D03*
X132542500Y-42020000D03*
%TD*%
D12*
%TO.C,R23*%
X156342500Y-83210000D03*
X158167500Y-83210000D03*
%TD*%
D15*
%TO.C,R12*%
X147427500Y-75410000D03*
X145602500Y-75410000D03*
%TD*%
D18*
%TO.C,C8*%
X148795000Y-62490000D03*
X147070000Y-62490000D03*
%TD*%
D12*
%TO.C,R14*%
X163652500Y-75070000D03*
X165477500Y-75070000D03*
%TD*%
%TO.C,R32*%
X173282500Y-86510000D03*
X175107500Y-86510000D03*
%TD*%
D35*
%TO.C,K2*%
X109539800Y-111528000D03*
X115539800Y-125728000D03*
X103539800Y-125728000D03*
D36*
X103539800Y-113528000D03*
D35*
X115539800Y-113528000D03*
%TD*%
D29*
%TO.C,C23*%
X148232500Y-80940000D03*
X149957500Y-80940000D03*
%TD*%
D13*
%TO.C,U9*%
X171725000Y-96610000D03*
X174265000Y-96610000D03*
X174265000Y-88990000D03*
X171725000Y-88990000D03*
%TD*%
D37*
%TO.C,U1*%
X138875000Y-48562500D03*
X138375000Y-48562500D03*
X137875000Y-48562500D03*
X137375000Y-48562500D03*
X136875000Y-48562500D03*
X136375000Y-48562500D03*
X135875000Y-48562500D03*
X135375000Y-48562500D03*
X134875000Y-48562500D03*
X134375000Y-48562500D03*
X133875000Y-48562500D03*
X133375000Y-48562500D03*
D38*
X131962500Y-49975000D03*
X131962500Y-50475000D03*
X131962500Y-50975000D03*
X131962500Y-51475000D03*
X131962500Y-51975000D03*
X131962500Y-52475000D03*
X131962500Y-52975000D03*
X131962500Y-53475000D03*
X131962500Y-53975000D03*
X131962500Y-54475000D03*
X131962500Y-54975000D03*
X131962500Y-55475000D03*
D37*
X133375000Y-56887500D03*
X133875000Y-56887500D03*
X134375000Y-56887500D03*
X134875000Y-56887500D03*
X135375000Y-56887500D03*
X135875000Y-56887500D03*
X136375000Y-56887500D03*
X136875000Y-56887500D03*
X137375000Y-56887500D03*
X137875000Y-56887500D03*
X138375000Y-56887500D03*
X138875000Y-56887500D03*
D38*
X140287500Y-55475000D03*
X140287500Y-54975000D03*
X140287500Y-54475000D03*
X140287500Y-53975000D03*
X140287500Y-53475000D03*
X140287500Y-52975000D03*
X140287500Y-52475000D03*
X140287500Y-51975000D03*
X140287500Y-51475000D03*
X140287500Y-50975000D03*
X140287500Y-50475000D03*
X140287500Y-49975000D03*
%TD*%
D15*
%TO.C,R44*%
X158167500Y-99090000D03*
X156342500Y-99090000D03*
%TD*%
D11*
%TO.C,C11*%
X158890000Y-46285000D03*
X158890000Y-44735000D03*
%TD*%
D15*
%TO.C,R39*%
X140167500Y-86510000D03*
X138342500Y-86510000D03*
%TD*%
D18*
%TO.C,C25*%
X128362500Y-71522500D03*
X126637500Y-71522500D03*
%TD*%
D15*
%TO.C,R46*%
X152167500Y-99090000D03*
X150342500Y-99090000D03*
%TD*%
D12*
%TO.C,R15*%
X163652500Y-76740000D03*
X165477500Y-76740000D03*
%TD*%
%TO.C,R30*%
X170882500Y-99090000D03*
X172707500Y-99090000D03*
%TD*%
%TO.C,R18*%
X147020000Y-60875000D03*
X148845000Y-60875000D03*
%TD*%
D39*
%TO.C,Q2*%
X156557500Y-78120000D03*
X156557500Y-76220000D03*
X154682500Y-77170000D03*
%TD*%
D29*
%TO.C,C1*%
X142537500Y-56800000D03*
X144262500Y-56800000D03*
%TD*%
D15*
%TO.C,R42*%
X146167500Y-99090000D03*
X144342500Y-99090000D03*
%TD*%
%TO.C,R36*%
X128170000Y-99090000D03*
X126345000Y-99090000D03*
%TD*%
%TO.C,R1*%
X129712500Y-45600000D03*
X127887500Y-45600000D03*
%TD*%
%TO.C,R2*%
X129712500Y-47275000D03*
X127887500Y-47275000D03*
%TD*%
%TO.C,R3*%
X129712500Y-48900000D03*
X127887500Y-48900000D03*
%TD*%
D40*
%TO.C,U10*%
X138325000Y-73952500D03*
X137055000Y-73952500D03*
X135785000Y-73952500D03*
X134515000Y-73952500D03*
X133245000Y-73952500D03*
X131975000Y-73952500D03*
X130705000Y-73952500D03*
X129435000Y-73952500D03*
X128165000Y-73952500D03*
X126895000Y-73952500D03*
X125625000Y-73952500D03*
X124355000Y-73952500D03*
X123085000Y-73952500D03*
X121815000Y-73952500D03*
X121815000Y-83252500D03*
X123085000Y-83252500D03*
X124355000Y-83252500D03*
X125625000Y-83252500D03*
X126895000Y-83252500D03*
X128165000Y-83252500D03*
X129435000Y-83252500D03*
X130705000Y-83252500D03*
X131975000Y-83252500D03*
X133245000Y-83252500D03*
X134515000Y-83252500D03*
X135785000Y-83252500D03*
X137055000Y-83252500D03*
X138325000Y-83252500D03*
%TD*%
D41*
%TO.C,U2*%
X169345000Y-52435000D03*
X168075000Y-52435000D03*
X166805000Y-52435000D03*
X165535000Y-52435000D03*
X164265000Y-52435000D03*
X162995000Y-52435000D03*
X161725000Y-52435000D03*
X160455000Y-52435000D03*
X159185000Y-52435000D03*
X157915000Y-52435000D03*
X156645000Y-52435000D03*
X155375000Y-52435000D03*
X154105000Y-52435000D03*
X152835000Y-52435000D03*
D42*
X151585000Y-55470000D03*
X151585000Y-56740000D03*
X151585000Y-58010000D03*
X151585000Y-59280000D03*
X151585000Y-60550000D03*
X151585000Y-61820000D03*
X151585000Y-63090000D03*
X151585000Y-64360000D03*
X151585000Y-65630000D03*
X151585000Y-66900000D03*
D41*
X152835000Y-69935000D03*
X154105000Y-69935000D03*
X155375000Y-69935000D03*
X156645000Y-69935000D03*
X157915000Y-69935000D03*
X159185000Y-69935000D03*
X160455000Y-69935000D03*
X161725000Y-69935000D03*
X162995000Y-69935000D03*
X164265000Y-69935000D03*
X165535000Y-69935000D03*
X166805000Y-69935000D03*
X168075000Y-69935000D03*
X169345000Y-69935000D03*
D43*
X163025000Y-58285000D03*
D44*
X162325000Y-58285000D03*
D43*
X161625000Y-58285000D03*
D44*
X160925000Y-58285000D03*
D43*
X160225000Y-58285000D03*
D44*
X163025000Y-58985000D03*
X161625000Y-58985000D03*
X160225000Y-58985000D03*
D43*
X163025000Y-59685000D03*
D44*
X162325000Y-59685000D03*
D43*
X161625000Y-59685000D03*
D44*
X160925000Y-59685000D03*
D43*
X160225000Y-59685000D03*
D44*
X163025000Y-60385000D03*
X161625000Y-60385000D03*
X160225000Y-60385000D03*
D43*
X163025000Y-61085000D03*
D44*
X162325000Y-61085000D03*
D43*
X161625000Y-61085000D03*
D44*
X160925000Y-61085000D03*
D43*
X160225000Y-61085000D03*
%TD*%
D19*
%TO.C,J1*%
X104922600Y-104942800D03*
D20*
X107422600Y-104942800D03*
X109922600Y-104942800D03*
%TD*%
D15*
%TO.C,R4*%
X129712500Y-50550000D03*
X127887500Y-50550000D03*
%TD*%
D13*
%TO.C,U17*%
X127185000Y-96610000D03*
X129725000Y-96610000D03*
X129725000Y-88990000D03*
X127185000Y-88990000D03*
%TD*%
D30*
%TO.C,Q4*%
X110526000Y-57021000D03*
X110526000Y-58021000D03*
X111816000Y-57521000D03*
%TD*%
D45*
%TO.C,R21*%
X155007500Y-80710000D03*
X158107500Y-80710000D03*
%TD*%
D31*
%TO.C,U6*%
X111729800Y-98440400D03*
D32*
X111729800Y-95900400D03*
X111729800Y-90820400D03*
X111729800Y-85740400D03*
%TD*%
D19*
%TO.C,J7*%
X105786200Y-43068400D03*
D20*
X108286200Y-43068400D03*
X110786200Y-43068400D03*
X113286200Y-43068400D03*
%TD*%
D46*
%TO.C,C4*%
X140650000Y-45987500D03*
X140650000Y-44262500D03*
%TD*%
D47*
%TO.C,C10*%
X167175000Y-47615000D03*
X167175000Y-43215000D03*
%TD*%
D15*
%TO.C,R8*%
X144312500Y-51900000D03*
X142487500Y-51900000D03*
%TD*%
D48*
%TO.C,U3*%
X108543400Y-67604400D03*
X106243400Y-67604400D03*
D49*
X106243400Y-73904400D03*
D48*
X103943400Y-67604400D03*
%TD*%
D15*
%TO.C,R45*%
X152167500Y-86510000D03*
X150342500Y-86510000D03*
%TD*%
D50*
%TO.C,Y1*%
X134750000Y-45125000D03*
X138450000Y-45125000D03*
%TD*%
D29*
%TO.C,C6*%
X142537500Y-53550000D03*
X144262500Y-53550000D03*
%TD*%
D15*
%TO.C,R31*%
X124107500Y-71522500D03*
X122282500Y-71522500D03*
%TD*%
D47*
%TO.C,C22*%
X163505000Y-85470000D03*
X163505000Y-81070000D03*
%TD*%
D15*
%TO.C,R43*%
X158167500Y-86510000D03*
X156342500Y-86510000D03*
%TD*%
D51*
%TO.C,BZ1*%
X118156000Y-57648000D03*
D52*
X118156000Y-50048000D03*
%TD*%
D13*
%TO.C,U18*%
X133185000Y-96610000D03*
X135725000Y-96610000D03*
X135725000Y-88990000D03*
X133185000Y-88990000D03*
%TD*%
D53*
%TO.C,SW1*%
X147575000Y-50820000D03*
D54*
X146275000Y-50820000D03*
%TD*%
D29*
%TO.C,C3*%
X142537500Y-50300000D03*
X144262500Y-50300000D03*
%TD*%
D15*
%TO.C,R34*%
X139007500Y-42020000D03*
X137182500Y-42020000D03*
%TD*%
D12*
%TO.C,R25*%
X156342500Y-84840000D03*
X158167500Y-84840000D03*
%TD*%
D13*
%TO.C,U22*%
X151185000Y-96610000D03*
X153725000Y-96610000D03*
X153725000Y-88990000D03*
X151185000Y-88990000D03*
%TD*%
D55*
%TO.C,Q3*%
X121932600Y-101757800D03*
X120932600Y-101757800D03*
X121432600Y-103047800D03*
%TD*%
D56*
%TO.C,D1*%
X128251000Y-57075000D03*
X129651000Y-57075000D03*
%TD*%
D46*
%TO.C,C5*%
X132525000Y-45987500D03*
X132525000Y-44262500D03*
%TD*%
D12*
%TO.C,R11*%
X142152500Y-75410000D03*
X143977500Y-75410000D03*
%TD*%
D15*
%TO.C,R35*%
X128167500Y-86510000D03*
X126342500Y-86510000D03*
%TD*%
D57*
%TO.C,JP1*%
X146275000Y-53565000D03*
D58*
X147575000Y-53565000D03*
%TD*%
D18*
%TO.C,C2*%
X129661100Y-55463600D03*
X127936100Y-55463600D03*
%TD*%
D15*
%TO.C,R38*%
X134170000Y-99090000D03*
X132345000Y-99090000D03*
%TD*%
%TO.C,R20*%
X148845000Y-64165000D03*
X147020000Y-64165000D03*
%TD*%
D11*
%TO.C,C15*%
X109393000Y-100066000D03*
X109393000Y-98516000D03*
%TD*%
D13*
%TO.C,U19*%
X139185000Y-96610000D03*
X141725000Y-96610000D03*
X141725000Y-88990000D03*
X139185000Y-88990000D03*
%TD*%
D48*
%TO.C,U5*%
X118597500Y-67590000D03*
X116297500Y-67590000D03*
D49*
X116297500Y-73890000D03*
D48*
X113997500Y-67590000D03*
%TD*%
D12*
%TO.C,R16*%
X158892500Y-47910000D03*
X160717500Y-47910000D03*
%TD*%
D24*
%TO.C,U7*%
X168265000Y-88990000D03*
X165725000Y-88990000D03*
X163185000Y-88990000D03*
X163185000Y-96610000D03*
X165725000Y-96610000D03*
X168265000Y-96610000D03*
%TD*%
D25*
%TO.C,J11*%
X136215400Y-63693200D03*
D26*
X133675400Y-63693200D03*
X131135400Y-63693200D03*
X128595400Y-63693200D03*
X126055400Y-63693200D03*
X123515400Y-63693200D03*
%TD*%
D25*
%TO.C,J10*%
X151303000Y-77968000D03*
D26*
X148763000Y-77968000D03*
X146223000Y-77968000D03*
X143683000Y-77968000D03*
%TD*%
D59*
%TO.C,J3*%
X158923000Y-117947600D03*
D60*
X155423000Y-122947600D03*
X151923000Y-117947600D03*
X148423000Y-122947600D03*
X144923000Y-117947600D03*
X141423000Y-122947600D03*
X137923000Y-117947600D03*
X134423000Y-122947600D03*
%TD*%
D59*
%TO.C,J2*%
X128239800Y-117947600D03*
D60*
X124739800Y-122947600D03*
X121239800Y-117947600D03*
%TD*%
M02*
