M48
; DRILL file {KiCad 9.0.3} date 2025-08-30T18:16:38-0300
; FORMAT={-:-/ absolute / metric / decimal}
; #@! TF.CreationDate,2025-08-30T18:16:38-03:00
; #@! TF.GenerationSoftware,Kicad,Pcbnew,9.0.3
; #@! TF.FileFunction,Plated,1,2,PTH
FMAT,2
METRIC
; #@! TA.AperFunction,Plated,PTH,ViaDrill
T1C0.300
; #@! TA.AperFunction,Plated,PTH,ComponentDrill
T2C0.300
; #@! TA.AperFunction,Plated,PTH,ComponentDrill
T3C0.950
; #@! TA.AperFunction,Plated,PTH,ComponentDrill
T4C1.000
; #@! TA.AperFunction,Plated,PTH,ComponentDrill
T5C1.200
; #@! TA.AperFunction,Plated,PTH,ComponentDrill
T6C1.300
%
G90
G05
T1
X100.452Y-118.1
X104.77Y-90.262
X104.923Y-103.216
X106.396Y-90.262
X107.666Y-90.262
X109.393Y-58.029
X109.393Y-59.426
X112.035Y-67.554
X112.187Y-62.855
X112.746Y-90.78
X113.203Y-55.997
X114.473Y-60.798
X116.295Y-75.27
X116.295Y-86.93
X120.525Y-69.85
X120.775Y-65.5
X121.045Y-72.37
X123.085Y-81.71
X123.085Y-85.88
X125.245Y-86.51
X125.245Y-90.97
X128.565Y-75.92
X128.566Y-77.62
X129.435Y-79.4
X130.765Y-43.9
X130.983Y-41.99
X131.186Y-56.36
X131.186Y-58.918
X131.255Y-86.51
X131.255Y-90.97
X133.4Y-52.275
X133.4Y-53.125
X133.635Y-50.39
X133.865Y-54.07
X133.865Y-55.42
X135.495Y-42.02
X135.695Y-52.43
X135.7Y-50.85
X136.575Y-55.5
X137.285Y-86.51
X137.285Y-90.97
X137.45Y-55.425
X137.45Y-60.137
X137.625Y-51.17
X137.625Y-52.425
X137.638Y-80.477
X137.715Y-47.24
X137.715Y-49.969
X139.822Y-69.34
X139.955Y-56.927
X139.995Y-42.0
X141.275Y-56.075
X142.325Y-84.48
X142.325Y-92.92
X143.085Y-46.64
X143.255Y-84.49
X143.255Y-86.51
X143.255Y-90.96
X144.005Y-57.7
X144.785Y-75.41
X145.505Y-47.539
X145.505Y-69.07
X147.185Y-48.82
X147.185Y-59.61
X148.035Y-52.19
X148.035Y-57.22
X148.405Y-71.534
X148.405Y-75.91
X149.015Y-70.88
X149.015Y-76.6
X149.455Y-89.2
X149.455Y-91.61
X149.685Y-70.261
X149.695Y-75.33
X150.145Y-87.35
X150.145Y-90.97
X150.475Y-68.34
X150.475Y-73.42
X151.075Y-69.06
X151.075Y-72.735
X152.775Y-54.53
X153.355Y-71.381
X153.355Y-74.25
X154.335Y-46.46
X154.335Y-75.07
X154.335Y-86.51
X155.405Y-71.38
X155.405Y-83.98
X155.515Y-86.51
X155.515Y-90.97
X156.675Y-71.38
X156.675Y-87.68
X157.765Y-77.18
X159.765Y-74.24
X159.77Y-76.31
X161.085Y-67.43
X161.085Y-71.48
X161.475Y-80.72
X161.475Y-91.54
X161.885Y-67.442
X161.885Y-71.45
X162.945Y-73.445
X165.205Y-50.4
X165.554Y-79.439
X165.555Y-68.38
X166.835Y-53.64
X166.835Y-75.07
X169.375Y-58.308
X169.375Y-61.102
T2
X160.225Y-58.985
X160.225Y-60.385
X160.925Y-58.285
X160.925Y-59.685
X160.925Y-61.085
X161.625Y-58.985
X161.625Y-60.385
X162.325Y-58.285
X162.325Y-59.685
X162.325Y-61.085
X163.025Y-58.985
X163.025Y-60.385
T3
X104.186Y-50.529
X104.186Y-53.029
X104.186Y-55.529
X104.186Y-58.029
X104.923Y-104.943
X105.786Y-43.068
X107.423Y-104.943
X108.286Y-43.068
X109.923Y-104.943
X110.786Y-43.068
X113.286Y-43.068
X144.915Y-44.675
X147.415Y-44.675
X149.915Y-44.675
X152.415Y-44.675
X154.915Y-44.675
T4
X103.195Y-85.74
X103.195Y-90.82
X103.195Y-95.9
X103.195Y-98.44
X111.73Y-85.74
X111.73Y-90.82
X111.73Y-95.9
X111.73Y-98.44
X118.156Y-50.048
X118.156Y-57.648
X123.515Y-63.693
X126.055Y-63.693
X128.595Y-63.693
X131.135Y-63.693
X133.675Y-63.693
X136.215Y-63.693
X141.397Y-61.72
X141.397Y-64.26
X141.397Y-66.8
X141.397Y-69.34
X143.683Y-77.968
X146.223Y-77.968
X148.763Y-77.968
X151.303Y-77.968
X168.405Y-73.01
X168.405Y-75.55
X168.405Y-78.09
X168.405Y-80.63
X168.405Y-83.17
X170.495Y-104.587
X172.995Y-104.587
T5
X121.24Y-117.948
X124.74Y-122.948
X128.24Y-117.948
X134.423Y-122.948
X137.923Y-117.948
X141.423Y-122.948
X144.923Y-117.948
X148.423Y-122.948
X151.923Y-117.948
X155.423Y-122.948
X158.923Y-117.948
T6
X103.54Y-113.528
X103.54Y-125.728
X109.54Y-111.528
X115.54Y-113.528
X115.54Y-125.728
M30
