%TF.GenerationSoftware,KiCad,Pcbnew,9.0.3*%
%TF.CreationDate,2025-08-21T00:35:25-03:00*%
%TF.ProjectId,PCB_Inversor,5043425f-496e-4766-9572-736f722e6b69,rev?*%
%TF.SameCoordinates,Original*%
%TF.FileFunction,Legend,Top*%
%TF.FilePolarity,Positive*%
%FSLAX46Y46*%
G04 Gerber Fmt 4.6, Leading zero omitted, Abs format (unit mm)*
G04 Created by KiCad (PCBNEW 9.0.3) date 2025-08-21 00:35:25*
%MOMM*%
%LPD*%
G01*
G04 APERTURE LIST*
%ADD10C,0.100000*%
%ADD11C,0.150000*%
%ADD12C,0.120000*%
G04 APERTURE END LIST*
D10*
X180307000Y-130365500D02*
X180307000Y-54292500D01*
X96807000Y-54292500D02*
X96807000Y-130365500D01*
D11*
X128010381Y-56243956D02*
X128010381Y-55243956D01*
X128010381Y-55720146D02*
X128581809Y-55720146D01*
X128581809Y-56243956D02*
X128581809Y-55243956D01*
X128915143Y-55243956D02*
X129248476Y-56243956D01*
X129248476Y-56243956D02*
X129581809Y-55243956D01*
X129915143Y-56243956D02*
X129915143Y-55243956D01*
X129915143Y-55243956D02*
X130153238Y-55243956D01*
X130153238Y-55243956D02*
X130296095Y-55291575D01*
X130296095Y-55291575D02*
X130391333Y-55386813D01*
X130391333Y-55386813D02*
X130438952Y-55482051D01*
X130438952Y-55482051D02*
X130486571Y-55672527D01*
X130486571Y-55672527D02*
X130486571Y-55815384D01*
X130486571Y-55815384D02*
X130438952Y-56005860D01*
X130438952Y-56005860D02*
X130391333Y-56101098D01*
X130391333Y-56101098D02*
X130296095Y-56196337D01*
X130296095Y-56196337D02*
X130153238Y-56243956D01*
X130153238Y-56243956D02*
X129915143Y-56243956D01*
X131486571Y-56148717D02*
X131438952Y-56196337D01*
X131438952Y-56196337D02*
X131296095Y-56243956D01*
X131296095Y-56243956D02*
X131200857Y-56243956D01*
X131200857Y-56243956D02*
X131058000Y-56196337D01*
X131058000Y-56196337D02*
X130962762Y-56101098D01*
X130962762Y-56101098D02*
X130915143Y-56005860D01*
X130915143Y-56005860D02*
X130867524Y-55815384D01*
X130867524Y-55815384D02*
X130867524Y-55672527D01*
X130867524Y-55672527D02*
X130915143Y-55482051D01*
X130915143Y-55482051D02*
X130962762Y-55386813D01*
X130962762Y-55386813D02*
X131058000Y-55291575D01*
X131058000Y-55291575D02*
X131200857Y-55243956D01*
X131200857Y-55243956D02*
X131296095Y-55243956D01*
X131296095Y-55243956D02*
X131438952Y-55291575D01*
X131438952Y-55291575D02*
X131486571Y-55339194D01*
X132248476Y-55720146D02*
X132391333Y-55767765D01*
X132391333Y-55767765D02*
X132438952Y-55815384D01*
X132438952Y-55815384D02*
X132486571Y-55910622D01*
X132486571Y-55910622D02*
X132486571Y-56053479D01*
X132486571Y-56053479D02*
X132438952Y-56148717D01*
X132438952Y-56148717D02*
X132391333Y-56196337D01*
X132391333Y-56196337D02*
X132296095Y-56243956D01*
X132296095Y-56243956D02*
X131915143Y-56243956D01*
X131915143Y-56243956D02*
X131915143Y-55243956D01*
X131915143Y-55243956D02*
X132248476Y-55243956D01*
X132248476Y-55243956D02*
X132343714Y-55291575D01*
X132343714Y-55291575D02*
X132391333Y-55339194D01*
X132391333Y-55339194D02*
X132438952Y-55434432D01*
X132438952Y-55434432D02*
X132438952Y-55529670D01*
X132438952Y-55529670D02*
X132391333Y-55624908D01*
X132391333Y-55624908D02*
X132343714Y-55672527D01*
X132343714Y-55672527D02*
X132248476Y-55720146D01*
X132248476Y-55720146D02*
X131915143Y-55720146D01*
X133343714Y-55577289D02*
X133343714Y-56243956D01*
X132915143Y-55577289D02*
X132915143Y-56101098D01*
X132915143Y-56101098D02*
X132962762Y-56196337D01*
X132962762Y-56196337D02*
X133058000Y-56243956D01*
X133058000Y-56243956D02*
X133200857Y-56243956D01*
X133200857Y-56243956D02*
X133296095Y-56196337D01*
X133296095Y-56196337D02*
X133343714Y-56148717D01*
X133772286Y-56196337D02*
X133867524Y-56243956D01*
X133867524Y-56243956D02*
X134058000Y-56243956D01*
X134058000Y-56243956D02*
X134153238Y-56196337D01*
X134153238Y-56196337D02*
X134200857Y-56101098D01*
X134200857Y-56101098D02*
X134200857Y-56053479D01*
X134200857Y-56053479D02*
X134153238Y-55958241D01*
X134153238Y-55958241D02*
X134058000Y-55910622D01*
X134058000Y-55910622D02*
X133915143Y-55910622D01*
X133915143Y-55910622D02*
X133819905Y-55863003D01*
X133819905Y-55863003D02*
X133772286Y-55767765D01*
X133772286Y-55767765D02*
X133772286Y-55720146D01*
X133772286Y-55720146D02*
X133819905Y-55624908D01*
X133819905Y-55624908D02*
X133915143Y-55577289D01*
X133915143Y-55577289D02*
X134058000Y-55577289D01*
X134058000Y-55577289D02*
X134153238Y-55624908D01*
X135153238Y-56243956D02*
X134581810Y-56243956D01*
X134867524Y-56243956D02*
X134867524Y-55243956D01*
X134867524Y-55243956D02*
X134772286Y-55386813D01*
X134772286Y-55386813D02*
X134677048Y-55482051D01*
X134677048Y-55482051D02*
X134581810Y-55529670D01*
X140248819Y-92717857D02*
X139772628Y-93051190D01*
X140248819Y-93289285D02*
X139248819Y-93289285D01*
X139248819Y-93289285D02*
X139248819Y-92908333D01*
X139248819Y-92908333D02*
X139296438Y-92813095D01*
X139296438Y-92813095D02*
X139344057Y-92765476D01*
X139344057Y-92765476D02*
X139439295Y-92717857D01*
X139439295Y-92717857D02*
X139582152Y-92717857D01*
X139582152Y-92717857D02*
X139677390Y-92765476D01*
X139677390Y-92765476D02*
X139725009Y-92813095D01*
X139725009Y-92813095D02*
X139772628Y-92908333D01*
X139772628Y-92908333D02*
X139772628Y-93289285D01*
X140248819Y-91765476D02*
X140248819Y-92336904D01*
X140248819Y-92051190D02*
X139248819Y-92051190D01*
X139248819Y-92051190D02*
X139391676Y-92146428D01*
X139391676Y-92146428D02*
X139486914Y-92241666D01*
X139486914Y-92241666D02*
X139534533Y-92336904D01*
X139582152Y-90908333D02*
X140248819Y-90908333D01*
X139201200Y-91146428D02*
X139915485Y-91384523D01*
X139915485Y-91384523D02*
X139915485Y-90765476D01*
X165648819Y-92717857D02*
X165172628Y-93051190D01*
X165648819Y-93289285D02*
X164648819Y-93289285D01*
X164648819Y-93289285D02*
X164648819Y-92908333D01*
X164648819Y-92908333D02*
X164696438Y-92813095D01*
X164696438Y-92813095D02*
X164744057Y-92765476D01*
X164744057Y-92765476D02*
X164839295Y-92717857D01*
X164839295Y-92717857D02*
X164982152Y-92717857D01*
X164982152Y-92717857D02*
X165077390Y-92765476D01*
X165077390Y-92765476D02*
X165125009Y-92813095D01*
X165125009Y-92813095D02*
X165172628Y-92908333D01*
X165172628Y-92908333D02*
X165172628Y-93289285D01*
X164744057Y-92336904D02*
X164696438Y-92289285D01*
X164696438Y-92289285D02*
X164648819Y-92194047D01*
X164648819Y-92194047D02*
X164648819Y-91955952D01*
X164648819Y-91955952D02*
X164696438Y-91860714D01*
X164696438Y-91860714D02*
X164744057Y-91813095D01*
X164744057Y-91813095D02*
X164839295Y-91765476D01*
X164839295Y-91765476D02*
X164934533Y-91765476D01*
X164934533Y-91765476D02*
X165077390Y-91813095D01*
X165077390Y-91813095D02*
X165648819Y-92384523D01*
X165648819Y-92384523D02*
X165648819Y-91765476D01*
X164648819Y-91146428D02*
X164648819Y-91051190D01*
X164648819Y-91051190D02*
X164696438Y-90955952D01*
X164696438Y-90955952D02*
X164744057Y-90908333D01*
X164744057Y-90908333D02*
X164839295Y-90860714D01*
X164839295Y-90860714D02*
X165029771Y-90813095D01*
X165029771Y-90813095D02*
X165267866Y-90813095D01*
X165267866Y-90813095D02*
X165458342Y-90860714D01*
X165458342Y-90860714D02*
X165553580Y-90908333D01*
X165553580Y-90908333D02*
X165601200Y-90955952D01*
X165601200Y-90955952D02*
X165648819Y-91051190D01*
X165648819Y-91051190D02*
X165648819Y-91146428D01*
X165648819Y-91146428D02*
X165601200Y-91241666D01*
X165601200Y-91241666D02*
X165553580Y-91289285D01*
X165553580Y-91289285D02*
X165458342Y-91336904D01*
X165458342Y-91336904D02*
X165267866Y-91384523D01*
X165267866Y-91384523D02*
X165029771Y-91384523D01*
X165029771Y-91384523D02*
X164839295Y-91336904D01*
X164839295Y-91336904D02*
X164744057Y-91289285D01*
X164744057Y-91289285D02*
X164696438Y-91241666D01*
X164696438Y-91241666D02*
X164648819Y-91146428D01*
X110007333Y-107910080D02*
X109959714Y-107957700D01*
X109959714Y-107957700D02*
X109816857Y-108005319D01*
X109816857Y-108005319D02*
X109721619Y-108005319D01*
X109721619Y-108005319D02*
X109578762Y-107957700D01*
X109578762Y-107957700D02*
X109483524Y-107862461D01*
X109483524Y-107862461D02*
X109435905Y-107767223D01*
X109435905Y-107767223D02*
X109388286Y-107576747D01*
X109388286Y-107576747D02*
X109388286Y-107433890D01*
X109388286Y-107433890D02*
X109435905Y-107243414D01*
X109435905Y-107243414D02*
X109483524Y-107148176D01*
X109483524Y-107148176D02*
X109578762Y-107052938D01*
X109578762Y-107052938D02*
X109721619Y-107005319D01*
X109721619Y-107005319D02*
X109816857Y-107005319D01*
X109816857Y-107005319D02*
X109959714Y-107052938D01*
X109959714Y-107052938D02*
X110007333Y-107100557D01*
X110864476Y-107005319D02*
X110674000Y-107005319D01*
X110674000Y-107005319D02*
X110578762Y-107052938D01*
X110578762Y-107052938D02*
X110531143Y-107100557D01*
X110531143Y-107100557D02*
X110435905Y-107243414D01*
X110435905Y-107243414D02*
X110388286Y-107433890D01*
X110388286Y-107433890D02*
X110388286Y-107814842D01*
X110388286Y-107814842D02*
X110435905Y-107910080D01*
X110435905Y-107910080D02*
X110483524Y-107957700D01*
X110483524Y-107957700D02*
X110578762Y-108005319D01*
X110578762Y-108005319D02*
X110769238Y-108005319D01*
X110769238Y-108005319D02*
X110864476Y-107957700D01*
X110864476Y-107957700D02*
X110912095Y-107910080D01*
X110912095Y-107910080D02*
X110959714Y-107814842D01*
X110959714Y-107814842D02*
X110959714Y-107576747D01*
X110959714Y-107576747D02*
X110912095Y-107481509D01*
X110912095Y-107481509D02*
X110864476Y-107433890D01*
X110864476Y-107433890D02*
X110769238Y-107386271D01*
X110769238Y-107386271D02*
X110578762Y-107386271D01*
X110578762Y-107386271D02*
X110483524Y-107433890D01*
X110483524Y-107433890D02*
X110435905Y-107481509D01*
X110435905Y-107481509D02*
X110388286Y-107576747D01*
X138392819Y-115840404D02*
X139202342Y-115840404D01*
X139202342Y-115840404D02*
X139297580Y-115792785D01*
X139297580Y-115792785D02*
X139345200Y-115745166D01*
X139345200Y-115745166D02*
X139392819Y-115649928D01*
X139392819Y-115649928D02*
X139392819Y-115459452D01*
X139392819Y-115459452D02*
X139345200Y-115364214D01*
X139345200Y-115364214D02*
X139297580Y-115316595D01*
X139297580Y-115316595D02*
X139202342Y-115268976D01*
X139202342Y-115268976D02*
X138392819Y-115268976D01*
X138392819Y-114364214D02*
X138392819Y-114554690D01*
X138392819Y-114554690D02*
X138440438Y-114649928D01*
X138440438Y-114649928D02*
X138488057Y-114697547D01*
X138488057Y-114697547D02*
X138630914Y-114792785D01*
X138630914Y-114792785D02*
X138821390Y-114840404D01*
X138821390Y-114840404D02*
X139202342Y-114840404D01*
X139202342Y-114840404D02*
X139297580Y-114792785D01*
X139297580Y-114792785D02*
X139345200Y-114745166D01*
X139345200Y-114745166D02*
X139392819Y-114649928D01*
X139392819Y-114649928D02*
X139392819Y-114459452D01*
X139392819Y-114459452D02*
X139345200Y-114364214D01*
X139345200Y-114364214D02*
X139297580Y-114316595D01*
X139297580Y-114316595D02*
X139202342Y-114268976D01*
X139202342Y-114268976D02*
X138964247Y-114268976D01*
X138964247Y-114268976D02*
X138869009Y-114316595D01*
X138869009Y-114316595D02*
X138821390Y-114364214D01*
X138821390Y-114364214D02*
X138773771Y-114459452D01*
X138773771Y-114459452D02*
X138773771Y-114649928D01*
X138773771Y-114649928D02*
X138821390Y-114745166D01*
X138821390Y-114745166D02*
X138869009Y-114792785D01*
X138869009Y-114792785D02*
X138964247Y-114840404D01*
X172412819Y-102877857D02*
X171936628Y-103211190D01*
X172412819Y-103449285D02*
X171412819Y-103449285D01*
X171412819Y-103449285D02*
X171412819Y-103068333D01*
X171412819Y-103068333D02*
X171460438Y-102973095D01*
X171460438Y-102973095D02*
X171508057Y-102925476D01*
X171508057Y-102925476D02*
X171603295Y-102877857D01*
X171603295Y-102877857D02*
X171746152Y-102877857D01*
X171746152Y-102877857D02*
X171841390Y-102925476D01*
X171841390Y-102925476D02*
X171889009Y-102973095D01*
X171889009Y-102973095D02*
X171936628Y-103068333D01*
X171936628Y-103068333D02*
X171936628Y-103449285D01*
X172412819Y-101925476D02*
X172412819Y-102496904D01*
X172412819Y-102211190D02*
X171412819Y-102211190D01*
X171412819Y-102211190D02*
X171555676Y-102306428D01*
X171555676Y-102306428D02*
X171650914Y-102401666D01*
X171650914Y-102401666D02*
X171698533Y-102496904D01*
X171412819Y-101068333D02*
X171412819Y-101258809D01*
X171412819Y-101258809D02*
X171460438Y-101354047D01*
X171460438Y-101354047D02*
X171508057Y-101401666D01*
X171508057Y-101401666D02*
X171650914Y-101496904D01*
X171650914Y-101496904D02*
X171841390Y-101544523D01*
X171841390Y-101544523D02*
X172222342Y-101544523D01*
X172222342Y-101544523D02*
X172317580Y-101496904D01*
X172317580Y-101496904D02*
X172365200Y-101449285D01*
X172365200Y-101449285D02*
X172412819Y-101354047D01*
X172412819Y-101354047D02*
X172412819Y-101163571D01*
X172412819Y-101163571D02*
X172365200Y-101068333D01*
X172365200Y-101068333D02*
X172317580Y-101020714D01*
X172317580Y-101020714D02*
X172222342Y-100973095D01*
X172222342Y-100973095D02*
X171984247Y-100973095D01*
X171984247Y-100973095D02*
X171889009Y-101020714D01*
X171889009Y-101020714D02*
X171841390Y-101068333D01*
X171841390Y-101068333D02*
X171793771Y-101163571D01*
X171793771Y-101163571D02*
X171793771Y-101354047D01*
X171793771Y-101354047D02*
X171841390Y-101449285D01*
X171841390Y-101449285D02*
X171889009Y-101496904D01*
X171889009Y-101496904D02*
X171984247Y-101544523D01*
X134725580Y-97702666D02*
X134773200Y-97750285D01*
X134773200Y-97750285D02*
X134820819Y-97893142D01*
X134820819Y-97893142D02*
X134820819Y-97988380D01*
X134820819Y-97988380D02*
X134773200Y-98131237D01*
X134773200Y-98131237D02*
X134677961Y-98226475D01*
X134677961Y-98226475D02*
X134582723Y-98274094D01*
X134582723Y-98274094D02*
X134392247Y-98321713D01*
X134392247Y-98321713D02*
X134249390Y-98321713D01*
X134249390Y-98321713D02*
X134058914Y-98274094D01*
X134058914Y-98274094D02*
X133963676Y-98226475D01*
X133963676Y-98226475D02*
X133868438Y-98131237D01*
X133868438Y-98131237D02*
X133820819Y-97988380D01*
X133820819Y-97988380D02*
X133820819Y-97893142D01*
X133820819Y-97893142D02*
X133868438Y-97750285D01*
X133868438Y-97750285D02*
X133916057Y-97702666D01*
X134820819Y-97226475D02*
X134820819Y-97035999D01*
X134820819Y-97035999D02*
X134773200Y-96940761D01*
X134773200Y-96940761D02*
X134725580Y-96893142D01*
X134725580Y-96893142D02*
X134582723Y-96797904D01*
X134582723Y-96797904D02*
X134392247Y-96750285D01*
X134392247Y-96750285D02*
X134011295Y-96750285D01*
X134011295Y-96750285D02*
X133916057Y-96797904D01*
X133916057Y-96797904D02*
X133868438Y-96845523D01*
X133868438Y-96845523D02*
X133820819Y-96940761D01*
X133820819Y-96940761D02*
X133820819Y-97131237D01*
X133820819Y-97131237D02*
X133868438Y-97226475D01*
X133868438Y-97226475D02*
X133916057Y-97274094D01*
X133916057Y-97274094D02*
X134011295Y-97321713D01*
X134011295Y-97321713D02*
X134249390Y-97321713D01*
X134249390Y-97321713D02*
X134344628Y-97274094D01*
X134344628Y-97274094D02*
X134392247Y-97226475D01*
X134392247Y-97226475D02*
X134439866Y-97131237D01*
X134439866Y-97131237D02*
X134439866Y-96940761D01*
X134439866Y-96940761D02*
X134392247Y-96845523D01*
X134392247Y-96845523D02*
X134344628Y-96797904D01*
X134344628Y-96797904D02*
X134249390Y-96750285D01*
X139582905Y-124724319D02*
X139582905Y-123724319D01*
X139582905Y-123724319D02*
X139821000Y-123724319D01*
X139821000Y-123724319D02*
X139963857Y-123771938D01*
X139963857Y-123771938D02*
X140059095Y-123867176D01*
X140059095Y-123867176D02*
X140106714Y-123962414D01*
X140106714Y-123962414D02*
X140154333Y-124152890D01*
X140154333Y-124152890D02*
X140154333Y-124295747D01*
X140154333Y-124295747D02*
X140106714Y-124486223D01*
X140106714Y-124486223D02*
X140059095Y-124581461D01*
X140059095Y-124581461D02*
X139963857Y-124676700D01*
X139963857Y-124676700D02*
X139821000Y-124724319D01*
X139821000Y-124724319D02*
X139582905Y-124724319D01*
X141106714Y-124724319D02*
X140535286Y-124724319D01*
X140821000Y-124724319D02*
X140821000Y-123724319D01*
X140821000Y-123724319D02*
X140725762Y-123867176D01*
X140725762Y-123867176D02*
X140630524Y-123962414D01*
X140630524Y-123962414D02*
X140535286Y-124010033D01*
X162379819Y-93860857D02*
X161903628Y-94194190D01*
X162379819Y-94432285D02*
X161379819Y-94432285D01*
X161379819Y-94432285D02*
X161379819Y-94051333D01*
X161379819Y-94051333D02*
X161427438Y-93956095D01*
X161427438Y-93956095D02*
X161475057Y-93908476D01*
X161475057Y-93908476D02*
X161570295Y-93860857D01*
X161570295Y-93860857D02*
X161713152Y-93860857D01*
X161713152Y-93860857D02*
X161808390Y-93908476D01*
X161808390Y-93908476D02*
X161856009Y-93956095D01*
X161856009Y-93956095D02*
X161903628Y-94051333D01*
X161903628Y-94051333D02*
X161903628Y-94432285D01*
X162379819Y-92908476D02*
X162379819Y-93479904D01*
X162379819Y-93194190D02*
X161379819Y-93194190D01*
X161379819Y-93194190D02*
X161522676Y-93289428D01*
X161522676Y-93289428D02*
X161617914Y-93384666D01*
X161617914Y-93384666D02*
X161665533Y-93479904D01*
X162379819Y-92432285D02*
X162379819Y-92241809D01*
X162379819Y-92241809D02*
X162332200Y-92146571D01*
X162332200Y-92146571D02*
X162284580Y-92098952D01*
X162284580Y-92098952D02*
X162141723Y-92003714D01*
X162141723Y-92003714D02*
X161951247Y-91956095D01*
X161951247Y-91956095D02*
X161570295Y-91956095D01*
X161570295Y-91956095D02*
X161475057Y-92003714D01*
X161475057Y-92003714D02*
X161427438Y-92051333D01*
X161427438Y-92051333D02*
X161379819Y-92146571D01*
X161379819Y-92146571D02*
X161379819Y-92337047D01*
X161379819Y-92337047D02*
X161427438Y-92432285D01*
X161427438Y-92432285D02*
X161475057Y-92479904D01*
X161475057Y-92479904D02*
X161570295Y-92527523D01*
X161570295Y-92527523D02*
X161808390Y-92527523D01*
X161808390Y-92527523D02*
X161903628Y-92479904D01*
X161903628Y-92479904D02*
X161951247Y-92432285D01*
X161951247Y-92432285D02*
X161998866Y-92337047D01*
X161998866Y-92337047D02*
X161998866Y-92146571D01*
X161998866Y-92146571D02*
X161951247Y-92051333D01*
X161951247Y-92051333D02*
X161903628Y-92003714D01*
X161903628Y-92003714D02*
X161808390Y-91956095D01*
X101308819Y-115887404D02*
X102118342Y-115887404D01*
X102118342Y-115887404D02*
X102213580Y-115839785D01*
X102213580Y-115839785D02*
X102261200Y-115792166D01*
X102261200Y-115792166D02*
X102308819Y-115696928D01*
X102308819Y-115696928D02*
X102308819Y-115506452D01*
X102308819Y-115506452D02*
X102261200Y-115411214D01*
X102261200Y-115411214D02*
X102213580Y-115363595D01*
X102213580Y-115363595D02*
X102118342Y-115315976D01*
X102118342Y-115315976D02*
X101308819Y-115315976D01*
X101404057Y-114887404D02*
X101356438Y-114839785D01*
X101356438Y-114839785D02*
X101308819Y-114744547D01*
X101308819Y-114744547D02*
X101308819Y-114506452D01*
X101308819Y-114506452D02*
X101356438Y-114411214D01*
X101356438Y-114411214D02*
X101404057Y-114363595D01*
X101404057Y-114363595D02*
X101499295Y-114315976D01*
X101499295Y-114315976D02*
X101594533Y-114315976D01*
X101594533Y-114315976D02*
X101737390Y-114363595D01*
X101737390Y-114363595D02*
X102308819Y-114935023D01*
X102308819Y-114935023D02*
X102308819Y-114315976D01*
X113373819Y-115760404D02*
X114183342Y-115760404D01*
X114183342Y-115760404D02*
X114278580Y-115712785D01*
X114278580Y-115712785D02*
X114326200Y-115665166D01*
X114326200Y-115665166D02*
X114373819Y-115569928D01*
X114373819Y-115569928D02*
X114373819Y-115379452D01*
X114373819Y-115379452D02*
X114326200Y-115284214D01*
X114326200Y-115284214D02*
X114278580Y-115236595D01*
X114278580Y-115236595D02*
X114183342Y-115188976D01*
X114183342Y-115188976D02*
X113373819Y-115188976D01*
X113373819Y-114808023D02*
X113373819Y-114188976D01*
X113373819Y-114188976D02*
X113754771Y-114522309D01*
X113754771Y-114522309D02*
X113754771Y-114379452D01*
X113754771Y-114379452D02*
X113802390Y-114284214D01*
X113802390Y-114284214D02*
X113850009Y-114236595D01*
X113850009Y-114236595D02*
X113945247Y-114188976D01*
X113945247Y-114188976D02*
X114183342Y-114188976D01*
X114183342Y-114188976D02*
X114278580Y-114236595D01*
X114278580Y-114236595D02*
X114326200Y-114284214D01*
X114326200Y-114284214D02*
X114373819Y-114379452D01*
X114373819Y-114379452D02*
X114373819Y-114665166D01*
X114373819Y-114665166D02*
X114326200Y-114760404D01*
X114326200Y-114760404D02*
X114278580Y-114808023D01*
X168094819Y-103004857D02*
X167618628Y-103338190D01*
X168094819Y-103576285D02*
X167094819Y-103576285D01*
X167094819Y-103576285D02*
X167094819Y-103195333D01*
X167094819Y-103195333D02*
X167142438Y-103100095D01*
X167142438Y-103100095D02*
X167190057Y-103052476D01*
X167190057Y-103052476D02*
X167285295Y-103004857D01*
X167285295Y-103004857D02*
X167428152Y-103004857D01*
X167428152Y-103004857D02*
X167523390Y-103052476D01*
X167523390Y-103052476D02*
X167571009Y-103100095D01*
X167571009Y-103100095D02*
X167618628Y-103195333D01*
X167618628Y-103195333D02*
X167618628Y-103576285D01*
X168094819Y-102052476D02*
X168094819Y-102623904D01*
X168094819Y-102338190D02*
X167094819Y-102338190D01*
X167094819Y-102338190D02*
X167237676Y-102433428D01*
X167237676Y-102433428D02*
X167332914Y-102528666D01*
X167332914Y-102528666D02*
X167380533Y-102623904D01*
X167523390Y-101481047D02*
X167475771Y-101576285D01*
X167475771Y-101576285D02*
X167428152Y-101623904D01*
X167428152Y-101623904D02*
X167332914Y-101671523D01*
X167332914Y-101671523D02*
X167285295Y-101671523D01*
X167285295Y-101671523D02*
X167190057Y-101623904D01*
X167190057Y-101623904D02*
X167142438Y-101576285D01*
X167142438Y-101576285D02*
X167094819Y-101481047D01*
X167094819Y-101481047D02*
X167094819Y-101290571D01*
X167094819Y-101290571D02*
X167142438Y-101195333D01*
X167142438Y-101195333D02*
X167190057Y-101147714D01*
X167190057Y-101147714D02*
X167285295Y-101100095D01*
X167285295Y-101100095D02*
X167332914Y-101100095D01*
X167332914Y-101100095D02*
X167428152Y-101147714D01*
X167428152Y-101147714D02*
X167475771Y-101195333D01*
X167475771Y-101195333D02*
X167523390Y-101290571D01*
X167523390Y-101290571D02*
X167523390Y-101481047D01*
X167523390Y-101481047D02*
X167571009Y-101576285D01*
X167571009Y-101576285D02*
X167618628Y-101623904D01*
X167618628Y-101623904D02*
X167713866Y-101671523D01*
X167713866Y-101671523D02*
X167904342Y-101671523D01*
X167904342Y-101671523D02*
X167999580Y-101623904D01*
X167999580Y-101623904D02*
X168047200Y-101576285D01*
X168047200Y-101576285D02*
X168094819Y-101481047D01*
X168094819Y-101481047D02*
X168094819Y-101290571D01*
X168094819Y-101290571D02*
X168047200Y-101195333D01*
X168047200Y-101195333D02*
X167999580Y-101147714D01*
X167999580Y-101147714D02*
X167904342Y-101100095D01*
X167904342Y-101100095D02*
X167713866Y-101100095D01*
X167713866Y-101100095D02*
X167618628Y-101147714D01*
X167618628Y-101147714D02*
X167571009Y-101195333D01*
X167571009Y-101195333D02*
X167523390Y-101290571D01*
X160490819Y-101441094D02*
X161300342Y-101441094D01*
X161300342Y-101441094D02*
X161395580Y-101393475D01*
X161395580Y-101393475D02*
X161443200Y-101345856D01*
X161443200Y-101345856D02*
X161490819Y-101250618D01*
X161490819Y-101250618D02*
X161490819Y-101060142D01*
X161490819Y-101060142D02*
X161443200Y-100964904D01*
X161443200Y-100964904D02*
X161395580Y-100917285D01*
X161395580Y-100917285D02*
X161300342Y-100869666D01*
X161300342Y-100869666D02*
X160490819Y-100869666D01*
X161490819Y-99869666D02*
X161490819Y-100441094D01*
X161490819Y-100155380D02*
X160490819Y-100155380D01*
X160490819Y-100155380D02*
X160633676Y-100250618D01*
X160633676Y-100250618D02*
X160728914Y-100345856D01*
X160728914Y-100345856D02*
X160776533Y-100441094D01*
X160490819Y-99250618D02*
X160490819Y-99155380D01*
X160490819Y-99155380D02*
X160538438Y-99060142D01*
X160538438Y-99060142D02*
X160586057Y-99012523D01*
X160586057Y-99012523D02*
X160681295Y-98964904D01*
X160681295Y-98964904D02*
X160871771Y-98917285D01*
X160871771Y-98917285D02*
X161109866Y-98917285D01*
X161109866Y-98917285D02*
X161300342Y-98964904D01*
X161300342Y-98964904D02*
X161395580Y-99012523D01*
X161395580Y-99012523D02*
X161443200Y-99060142D01*
X161443200Y-99060142D02*
X161490819Y-99155380D01*
X161490819Y-99155380D02*
X161490819Y-99250618D01*
X161490819Y-99250618D02*
X161443200Y-99345856D01*
X161443200Y-99345856D02*
X161395580Y-99393475D01*
X161395580Y-99393475D02*
X161300342Y-99441094D01*
X161300342Y-99441094D02*
X161109866Y-99488713D01*
X161109866Y-99488713D02*
X160871771Y-99488713D01*
X160871771Y-99488713D02*
X160681295Y-99441094D01*
X160681295Y-99441094D02*
X160586057Y-99393475D01*
X160586057Y-99393475D02*
X160538438Y-99345856D01*
X160538438Y-99345856D02*
X160490819Y-99250618D01*
X150457819Y-115887404D02*
X151267342Y-115887404D01*
X151267342Y-115887404D02*
X151362580Y-115839785D01*
X151362580Y-115839785D02*
X151410200Y-115792166D01*
X151410200Y-115792166D02*
X151457819Y-115696928D01*
X151457819Y-115696928D02*
X151457819Y-115506452D01*
X151457819Y-115506452D02*
X151410200Y-115411214D01*
X151410200Y-115411214D02*
X151362580Y-115363595D01*
X151362580Y-115363595D02*
X151267342Y-115315976D01*
X151267342Y-115315976D02*
X150457819Y-115315976D01*
X150886390Y-114696928D02*
X150838771Y-114792166D01*
X150838771Y-114792166D02*
X150791152Y-114839785D01*
X150791152Y-114839785D02*
X150695914Y-114887404D01*
X150695914Y-114887404D02*
X150648295Y-114887404D01*
X150648295Y-114887404D02*
X150553057Y-114839785D01*
X150553057Y-114839785D02*
X150505438Y-114792166D01*
X150505438Y-114792166D02*
X150457819Y-114696928D01*
X150457819Y-114696928D02*
X150457819Y-114506452D01*
X150457819Y-114506452D02*
X150505438Y-114411214D01*
X150505438Y-114411214D02*
X150553057Y-114363595D01*
X150553057Y-114363595D02*
X150648295Y-114315976D01*
X150648295Y-114315976D02*
X150695914Y-114315976D01*
X150695914Y-114315976D02*
X150791152Y-114363595D01*
X150791152Y-114363595D02*
X150838771Y-114411214D01*
X150838771Y-114411214D02*
X150886390Y-114506452D01*
X150886390Y-114506452D02*
X150886390Y-114696928D01*
X150886390Y-114696928D02*
X150934009Y-114792166D01*
X150934009Y-114792166D02*
X150981628Y-114839785D01*
X150981628Y-114839785D02*
X151076866Y-114887404D01*
X151076866Y-114887404D02*
X151267342Y-114887404D01*
X151267342Y-114887404D02*
X151362580Y-114839785D01*
X151362580Y-114839785D02*
X151410200Y-114792166D01*
X151410200Y-114792166D02*
X151457819Y-114696928D01*
X151457819Y-114696928D02*
X151457819Y-114506452D01*
X151457819Y-114506452D02*
X151410200Y-114411214D01*
X151410200Y-114411214D02*
X151362580Y-114363595D01*
X151362580Y-114363595D02*
X151267342Y-114315976D01*
X151267342Y-114315976D02*
X151076866Y-114315976D01*
X151076866Y-114315976D02*
X150981628Y-114363595D01*
X150981628Y-114363595D02*
X150934009Y-114411214D01*
X150934009Y-114411214D02*
X150886390Y-114506452D01*
X103282761Y-108055557D02*
X103187523Y-108007938D01*
X103187523Y-108007938D02*
X103092285Y-107912700D01*
X103092285Y-107912700D02*
X102949428Y-107769842D01*
X102949428Y-107769842D02*
X102854190Y-107722223D01*
X102854190Y-107722223D02*
X102758952Y-107722223D01*
X102806571Y-107960319D02*
X102711333Y-107912700D01*
X102711333Y-107912700D02*
X102616095Y-107817461D01*
X102616095Y-107817461D02*
X102568476Y-107626985D01*
X102568476Y-107626985D02*
X102568476Y-107293652D01*
X102568476Y-107293652D02*
X102616095Y-107103176D01*
X102616095Y-107103176D02*
X102711333Y-107007938D01*
X102711333Y-107007938D02*
X102806571Y-106960319D01*
X102806571Y-106960319D02*
X102997047Y-106960319D01*
X102997047Y-106960319D02*
X103092285Y-107007938D01*
X103092285Y-107007938D02*
X103187523Y-107103176D01*
X103187523Y-107103176D02*
X103235142Y-107293652D01*
X103235142Y-107293652D02*
X103235142Y-107626985D01*
X103235142Y-107626985D02*
X103187523Y-107817461D01*
X103187523Y-107817461D02*
X103092285Y-107912700D01*
X103092285Y-107912700D02*
X102997047Y-107960319D01*
X102997047Y-107960319D02*
X102806571Y-107960319D01*
X103568476Y-106960319D02*
X104235142Y-106960319D01*
X104235142Y-106960319D02*
X103806571Y-107960319D01*
X109452580Y-97702666D02*
X109500200Y-97750285D01*
X109500200Y-97750285D02*
X109547819Y-97893142D01*
X109547819Y-97893142D02*
X109547819Y-97988380D01*
X109547819Y-97988380D02*
X109500200Y-98131237D01*
X109500200Y-98131237D02*
X109404961Y-98226475D01*
X109404961Y-98226475D02*
X109309723Y-98274094D01*
X109309723Y-98274094D02*
X109119247Y-98321713D01*
X109119247Y-98321713D02*
X108976390Y-98321713D01*
X108976390Y-98321713D02*
X108785914Y-98274094D01*
X108785914Y-98274094D02*
X108690676Y-98226475D01*
X108690676Y-98226475D02*
X108595438Y-98131237D01*
X108595438Y-98131237D02*
X108547819Y-97988380D01*
X108547819Y-97988380D02*
X108547819Y-97893142D01*
X108547819Y-97893142D02*
X108595438Y-97750285D01*
X108595438Y-97750285D02*
X108643057Y-97702666D01*
X108547819Y-97369332D02*
X108547819Y-96702666D01*
X108547819Y-96702666D02*
X109547819Y-97131237D01*
X115737819Y-92622666D02*
X115261628Y-92955999D01*
X115737819Y-93194094D02*
X114737819Y-93194094D01*
X114737819Y-93194094D02*
X114737819Y-92813142D01*
X114737819Y-92813142D02*
X114785438Y-92717904D01*
X114785438Y-92717904D02*
X114833057Y-92670285D01*
X114833057Y-92670285D02*
X114928295Y-92622666D01*
X114928295Y-92622666D02*
X115071152Y-92622666D01*
X115071152Y-92622666D02*
X115166390Y-92670285D01*
X115166390Y-92670285D02*
X115214009Y-92717904D01*
X115214009Y-92717904D02*
X115261628Y-92813142D01*
X115261628Y-92813142D02*
X115261628Y-93194094D01*
X115166390Y-92051237D02*
X115118771Y-92146475D01*
X115118771Y-92146475D02*
X115071152Y-92194094D01*
X115071152Y-92194094D02*
X114975914Y-92241713D01*
X114975914Y-92241713D02*
X114928295Y-92241713D01*
X114928295Y-92241713D02*
X114833057Y-92194094D01*
X114833057Y-92194094D02*
X114785438Y-92146475D01*
X114785438Y-92146475D02*
X114737819Y-92051237D01*
X114737819Y-92051237D02*
X114737819Y-91860761D01*
X114737819Y-91860761D02*
X114785438Y-91765523D01*
X114785438Y-91765523D02*
X114833057Y-91717904D01*
X114833057Y-91717904D02*
X114928295Y-91670285D01*
X114928295Y-91670285D02*
X114975914Y-91670285D01*
X114975914Y-91670285D02*
X115071152Y-91717904D01*
X115071152Y-91717904D02*
X115118771Y-91765523D01*
X115118771Y-91765523D02*
X115166390Y-91860761D01*
X115166390Y-91860761D02*
X115166390Y-92051237D01*
X115166390Y-92051237D02*
X115214009Y-92146475D01*
X115214009Y-92146475D02*
X115261628Y-92194094D01*
X115261628Y-92194094D02*
X115356866Y-92241713D01*
X115356866Y-92241713D02*
X115547342Y-92241713D01*
X115547342Y-92241713D02*
X115642580Y-92194094D01*
X115642580Y-92194094D02*
X115690200Y-92146475D01*
X115690200Y-92146475D02*
X115737819Y-92051237D01*
X115737819Y-92051237D02*
X115737819Y-91860761D01*
X115737819Y-91860761D02*
X115690200Y-91765523D01*
X115690200Y-91765523D02*
X115642580Y-91717904D01*
X115642580Y-91717904D02*
X115547342Y-91670285D01*
X115547342Y-91670285D02*
X115356866Y-91670285D01*
X115356866Y-91670285D02*
X115261628Y-91717904D01*
X115261628Y-91717904D02*
X115214009Y-91765523D01*
X115214009Y-91765523D02*
X115166390Y-91860761D01*
X159999819Y-104378357D02*
X159523628Y-104711690D01*
X159999819Y-104949785D02*
X158999819Y-104949785D01*
X158999819Y-104949785D02*
X158999819Y-104568833D01*
X158999819Y-104568833D02*
X159047438Y-104473595D01*
X159047438Y-104473595D02*
X159095057Y-104425976D01*
X159095057Y-104425976D02*
X159190295Y-104378357D01*
X159190295Y-104378357D02*
X159333152Y-104378357D01*
X159333152Y-104378357D02*
X159428390Y-104425976D01*
X159428390Y-104425976D02*
X159476009Y-104473595D01*
X159476009Y-104473595D02*
X159523628Y-104568833D01*
X159523628Y-104568833D02*
X159523628Y-104949785D01*
X159999819Y-103425976D02*
X159999819Y-103997404D01*
X159999819Y-103711690D02*
X158999819Y-103711690D01*
X158999819Y-103711690D02*
X159142676Y-103806928D01*
X159142676Y-103806928D02*
X159237914Y-103902166D01*
X159237914Y-103902166D02*
X159285533Y-103997404D01*
X158999819Y-102521214D02*
X158999819Y-102997404D01*
X158999819Y-102997404D02*
X159476009Y-103045023D01*
X159476009Y-103045023D02*
X159428390Y-102997404D01*
X159428390Y-102997404D02*
X159380771Y-102902166D01*
X159380771Y-102902166D02*
X159380771Y-102664071D01*
X159380771Y-102664071D02*
X159428390Y-102568833D01*
X159428390Y-102568833D02*
X159476009Y-102521214D01*
X159476009Y-102521214D02*
X159571247Y-102473595D01*
X159571247Y-102473595D02*
X159809342Y-102473595D01*
X159809342Y-102473595D02*
X159904580Y-102521214D01*
X159904580Y-102521214D02*
X159952200Y-102568833D01*
X159952200Y-102568833D02*
X159999819Y-102664071D01*
X159999819Y-102664071D02*
X159999819Y-102902166D01*
X159999819Y-102902166D02*
X159952200Y-102997404D01*
X159952200Y-102997404D02*
X159904580Y-103045023D01*
X143188819Y-102774357D02*
X142712628Y-103107690D01*
X143188819Y-103345785D02*
X142188819Y-103345785D01*
X142188819Y-103345785D02*
X142188819Y-102964833D01*
X142188819Y-102964833D02*
X142236438Y-102869595D01*
X142236438Y-102869595D02*
X142284057Y-102821976D01*
X142284057Y-102821976D02*
X142379295Y-102774357D01*
X142379295Y-102774357D02*
X142522152Y-102774357D01*
X142522152Y-102774357D02*
X142617390Y-102821976D01*
X142617390Y-102821976D02*
X142665009Y-102869595D01*
X142665009Y-102869595D02*
X142712628Y-102964833D01*
X142712628Y-102964833D02*
X142712628Y-103345785D01*
X143188819Y-101821976D02*
X143188819Y-102393404D01*
X143188819Y-102107690D02*
X142188819Y-102107690D01*
X142188819Y-102107690D02*
X142331676Y-102202928D01*
X142331676Y-102202928D02*
X142426914Y-102298166D01*
X142426914Y-102298166D02*
X142474533Y-102393404D01*
X142284057Y-101441023D02*
X142236438Y-101393404D01*
X142236438Y-101393404D02*
X142188819Y-101298166D01*
X142188819Y-101298166D02*
X142188819Y-101060071D01*
X142188819Y-101060071D02*
X142236438Y-100964833D01*
X142236438Y-100964833D02*
X142284057Y-100917214D01*
X142284057Y-100917214D02*
X142379295Y-100869595D01*
X142379295Y-100869595D02*
X142474533Y-100869595D01*
X142474533Y-100869595D02*
X142617390Y-100917214D01*
X142617390Y-100917214D02*
X143188819Y-101488642D01*
X143188819Y-101488642D02*
X143188819Y-100869595D01*
X159931142Y-107860080D02*
X159883523Y-107907700D01*
X159883523Y-107907700D02*
X159740666Y-107955319D01*
X159740666Y-107955319D02*
X159645428Y-107955319D01*
X159645428Y-107955319D02*
X159502571Y-107907700D01*
X159502571Y-107907700D02*
X159407333Y-107812461D01*
X159407333Y-107812461D02*
X159359714Y-107717223D01*
X159359714Y-107717223D02*
X159312095Y-107526747D01*
X159312095Y-107526747D02*
X159312095Y-107383890D01*
X159312095Y-107383890D02*
X159359714Y-107193414D01*
X159359714Y-107193414D02*
X159407333Y-107098176D01*
X159407333Y-107098176D02*
X159502571Y-107002938D01*
X159502571Y-107002938D02*
X159645428Y-106955319D01*
X159645428Y-106955319D02*
X159740666Y-106955319D01*
X159740666Y-106955319D02*
X159883523Y-107002938D01*
X159883523Y-107002938D02*
X159931142Y-107050557D01*
X160883523Y-107955319D02*
X160312095Y-107955319D01*
X160597809Y-107955319D02*
X160597809Y-106955319D01*
X160597809Y-106955319D02*
X160502571Y-107098176D01*
X160502571Y-107098176D02*
X160407333Y-107193414D01*
X160407333Y-107193414D02*
X160312095Y-107241033D01*
X161502571Y-106955319D02*
X161597809Y-106955319D01*
X161597809Y-106955319D02*
X161693047Y-107002938D01*
X161693047Y-107002938D02*
X161740666Y-107050557D01*
X161740666Y-107050557D02*
X161788285Y-107145795D01*
X161788285Y-107145795D02*
X161835904Y-107336271D01*
X161835904Y-107336271D02*
X161835904Y-107574366D01*
X161835904Y-107574366D02*
X161788285Y-107764842D01*
X161788285Y-107764842D02*
X161740666Y-107860080D01*
X161740666Y-107860080D02*
X161693047Y-107907700D01*
X161693047Y-107907700D02*
X161597809Y-107955319D01*
X161597809Y-107955319D02*
X161502571Y-107955319D01*
X161502571Y-107955319D02*
X161407333Y-107907700D01*
X161407333Y-107907700D02*
X161359714Y-107860080D01*
X161359714Y-107860080D02*
X161312095Y-107764842D01*
X161312095Y-107764842D02*
X161264476Y-107574366D01*
X161264476Y-107574366D02*
X161264476Y-107336271D01*
X161264476Y-107336271D02*
X161312095Y-107145795D01*
X161312095Y-107145795D02*
X161359714Y-107050557D01*
X161359714Y-107050557D02*
X161407333Y-107002938D01*
X161407333Y-107002938D02*
X161502571Y-106955319D01*
X162522819Y-115887404D02*
X163332342Y-115887404D01*
X163332342Y-115887404D02*
X163427580Y-115839785D01*
X163427580Y-115839785D02*
X163475200Y-115792166D01*
X163475200Y-115792166D02*
X163522819Y-115696928D01*
X163522819Y-115696928D02*
X163522819Y-115506452D01*
X163522819Y-115506452D02*
X163475200Y-115411214D01*
X163475200Y-115411214D02*
X163427580Y-115363595D01*
X163427580Y-115363595D02*
X163332342Y-115315976D01*
X163332342Y-115315976D02*
X162522819Y-115315976D01*
X163522819Y-114792166D02*
X163522819Y-114601690D01*
X163522819Y-114601690D02*
X163475200Y-114506452D01*
X163475200Y-114506452D02*
X163427580Y-114458833D01*
X163427580Y-114458833D02*
X163284723Y-114363595D01*
X163284723Y-114363595D02*
X163094247Y-114315976D01*
X163094247Y-114315976D02*
X162713295Y-114315976D01*
X162713295Y-114315976D02*
X162618057Y-114363595D01*
X162618057Y-114363595D02*
X162570438Y-114411214D01*
X162570438Y-114411214D02*
X162522819Y-114506452D01*
X162522819Y-114506452D02*
X162522819Y-114696928D01*
X162522819Y-114696928D02*
X162570438Y-114792166D01*
X162570438Y-114792166D02*
X162618057Y-114839785D01*
X162618057Y-114839785D02*
X162713295Y-114887404D01*
X162713295Y-114887404D02*
X162951390Y-114887404D01*
X162951390Y-114887404D02*
X163046628Y-114839785D01*
X163046628Y-114839785D02*
X163094247Y-114792166D01*
X163094247Y-114792166D02*
X163141866Y-114696928D01*
X163141866Y-114696928D02*
X163141866Y-114506452D01*
X163141866Y-114506452D02*
X163094247Y-114411214D01*
X163094247Y-114411214D02*
X163046628Y-114363595D01*
X163046628Y-114363595D02*
X162951390Y-114315976D01*
X117929819Y-102719166D02*
X117453628Y-103052499D01*
X117929819Y-103290594D02*
X116929819Y-103290594D01*
X116929819Y-103290594D02*
X116929819Y-102909642D01*
X116929819Y-102909642D02*
X116977438Y-102814404D01*
X116977438Y-102814404D02*
X117025057Y-102766785D01*
X117025057Y-102766785D02*
X117120295Y-102719166D01*
X117120295Y-102719166D02*
X117263152Y-102719166D01*
X117263152Y-102719166D02*
X117358390Y-102766785D01*
X117358390Y-102766785D02*
X117406009Y-102814404D01*
X117406009Y-102814404D02*
X117453628Y-102909642D01*
X117453628Y-102909642D02*
X117453628Y-103290594D01*
X116929819Y-101862023D02*
X116929819Y-102052499D01*
X116929819Y-102052499D02*
X116977438Y-102147737D01*
X116977438Y-102147737D02*
X117025057Y-102195356D01*
X117025057Y-102195356D02*
X117167914Y-102290594D01*
X117167914Y-102290594D02*
X117358390Y-102338213D01*
X117358390Y-102338213D02*
X117739342Y-102338213D01*
X117739342Y-102338213D02*
X117834580Y-102290594D01*
X117834580Y-102290594D02*
X117882200Y-102242975D01*
X117882200Y-102242975D02*
X117929819Y-102147737D01*
X117929819Y-102147737D02*
X117929819Y-101957261D01*
X117929819Y-101957261D02*
X117882200Y-101862023D01*
X117882200Y-101862023D02*
X117834580Y-101814404D01*
X117834580Y-101814404D02*
X117739342Y-101766785D01*
X117739342Y-101766785D02*
X117501247Y-101766785D01*
X117501247Y-101766785D02*
X117406009Y-101814404D01*
X117406009Y-101814404D02*
X117358390Y-101862023D01*
X117358390Y-101862023D02*
X117310771Y-101957261D01*
X117310771Y-101957261D02*
X117310771Y-102147737D01*
X117310771Y-102147737D02*
X117358390Y-102242975D01*
X117358390Y-102242975D02*
X117406009Y-102290594D01*
X117406009Y-102290594D02*
X117501247Y-102338213D01*
X173079380Y-122283956D02*
X172507952Y-122283956D01*
X172793666Y-122283956D02*
X172793666Y-121283956D01*
X172793666Y-121283956D02*
X172698428Y-121426813D01*
X172698428Y-121426813D02*
X172603190Y-121522051D01*
X172603190Y-121522051D02*
X172507952Y-121569670D01*
X173460333Y-121379194D02*
X173507952Y-121331575D01*
X173507952Y-121331575D02*
X173603190Y-121283956D01*
X173603190Y-121283956D02*
X173841285Y-121283956D01*
X173841285Y-121283956D02*
X173936523Y-121331575D01*
X173936523Y-121331575D02*
X173984142Y-121379194D01*
X173984142Y-121379194D02*
X174031761Y-121474432D01*
X174031761Y-121474432D02*
X174031761Y-121569670D01*
X174031761Y-121569670D02*
X173984142Y-121712527D01*
X173984142Y-121712527D02*
X173412714Y-122283956D01*
X173412714Y-122283956D02*
X174031761Y-122283956D01*
X174317476Y-121283956D02*
X174650809Y-122283956D01*
X174650809Y-122283956D02*
X174984142Y-121283956D01*
X175079381Y-122379194D02*
X175841285Y-122379194D01*
X176079381Y-122283956D02*
X176079381Y-121283956D01*
X176555571Y-121617289D02*
X176555571Y-122283956D01*
X176555571Y-121712527D02*
X176603190Y-121664908D01*
X176603190Y-121664908D02*
X176698428Y-121617289D01*
X176698428Y-121617289D02*
X176841285Y-121617289D01*
X176841285Y-121617289D02*
X176936523Y-121664908D01*
X176936523Y-121664908D02*
X176984142Y-121760146D01*
X176984142Y-121760146D02*
X176984142Y-122283956D01*
X177365095Y-121617289D02*
X177603190Y-122283956D01*
X177603190Y-122283956D02*
X177841285Y-121617289D01*
X178746047Y-122283956D02*
X178174619Y-122283956D01*
X178460333Y-122283956D02*
X178460333Y-121283956D01*
X178460333Y-121283956D02*
X178365095Y-121426813D01*
X178365095Y-121426813D02*
X178269857Y-121522051D01*
X178269857Y-121522051D02*
X178174619Y-121569670D01*
X122247819Y-102719166D02*
X121771628Y-103052499D01*
X122247819Y-103290594D02*
X121247819Y-103290594D01*
X121247819Y-103290594D02*
X121247819Y-102909642D01*
X121247819Y-102909642D02*
X121295438Y-102814404D01*
X121295438Y-102814404D02*
X121343057Y-102766785D01*
X121343057Y-102766785D02*
X121438295Y-102719166D01*
X121438295Y-102719166D02*
X121581152Y-102719166D01*
X121581152Y-102719166D02*
X121676390Y-102766785D01*
X121676390Y-102766785D02*
X121724009Y-102814404D01*
X121724009Y-102814404D02*
X121771628Y-102909642D01*
X121771628Y-102909642D02*
X121771628Y-103290594D01*
X121581152Y-101862023D02*
X122247819Y-101862023D01*
X121200200Y-102100118D02*
X121914485Y-102338213D01*
X121914485Y-102338213D02*
X121914485Y-101719166D01*
X170243571Y-95292057D02*
X170148333Y-95244438D01*
X170148333Y-95244438D02*
X170053095Y-95149200D01*
X170053095Y-95149200D02*
X169910238Y-95006342D01*
X169910238Y-95006342D02*
X169815000Y-94958723D01*
X169815000Y-94958723D02*
X169719762Y-94958723D01*
X169767381Y-95196819D02*
X169672143Y-95149200D01*
X169672143Y-95149200D02*
X169576905Y-95053961D01*
X169576905Y-95053961D02*
X169529286Y-94863485D01*
X169529286Y-94863485D02*
X169529286Y-94530152D01*
X169529286Y-94530152D02*
X169576905Y-94339676D01*
X169576905Y-94339676D02*
X169672143Y-94244438D01*
X169672143Y-94244438D02*
X169767381Y-94196819D01*
X169767381Y-94196819D02*
X169957857Y-94196819D01*
X169957857Y-94196819D02*
X170053095Y-94244438D01*
X170053095Y-94244438D02*
X170148333Y-94339676D01*
X170148333Y-94339676D02*
X170195952Y-94530152D01*
X170195952Y-94530152D02*
X170195952Y-94863485D01*
X170195952Y-94863485D02*
X170148333Y-95053961D01*
X170148333Y-95053961D02*
X170053095Y-95149200D01*
X170053095Y-95149200D02*
X169957857Y-95196819D01*
X169957857Y-95196819D02*
X169767381Y-95196819D01*
X171148333Y-95196819D02*
X170576905Y-95196819D01*
X170862619Y-95196819D02*
X170862619Y-94196819D01*
X170862619Y-94196819D02*
X170767381Y-94339676D01*
X170767381Y-94339676D02*
X170672143Y-94434914D01*
X170672143Y-94434914D02*
X170576905Y-94482533D01*
X171529286Y-94292057D02*
X171576905Y-94244438D01*
X171576905Y-94244438D02*
X171672143Y-94196819D01*
X171672143Y-94196819D02*
X171910238Y-94196819D01*
X171910238Y-94196819D02*
X172005476Y-94244438D01*
X172005476Y-94244438D02*
X172053095Y-94292057D01*
X172053095Y-94292057D02*
X172100714Y-94387295D01*
X172100714Y-94387295D02*
X172100714Y-94482533D01*
X172100714Y-94482533D02*
X172053095Y-94625390D01*
X172053095Y-94625390D02*
X171481667Y-95196819D01*
X171481667Y-95196819D02*
X172100714Y-95196819D01*
X125946819Y-115840404D02*
X126756342Y-115840404D01*
X126756342Y-115840404D02*
X126851580Y-115792785D01*
X126851580Y-115792785D02*
X126899200Y-115745166D01*
X126899200Y-115745166D02*
X126946819Y-115649928D01*
X126946819Y-115649928D02*
X126946819Y-115459452D01*
X126946819Y-115459452D02*
X126899200Y-115364214D01*
X126899200Y-115364214D02*
X126851580Y-115316595D01*
X126851580Y-115316595D02*
X126756342Y-115268976D01*
X126756342Y-115268976D02*
X125946819Y-115268976D01*
X125946819Y-114316595D02*
X125946819Y-114792785D01*
X125946819Y-114792785D02*
X126423009Y-114840404D01*
X126423009Y-114840404D02*
X126375390Y-114792785D01*
X126375390Y-114792785D02*
X126327771Y-114697547D01*
X126327771Y-114697547D02*
X126327771Y-114459452D01*
X126327771Y-114459452D02*
X126375390Y-114364214D01*
X126375390Y-114364214D02*
X126423009Y-114316595D01*
X126423009Y-114316595D02*
X126518247Y-114268976D01*
X126518247Y-114268976D02*
X126756342Y-114268976D01*
X126756342Y-114268976D02*
X126851580Y-114316595D01*
X126851580Y-114316595D02*
X126899200Y-114364214D01*
X126899200Y-114364214D02*
X126946819Y-114459452D01*
X126946819Y-114459452D02*
X126946819Y-114697547D01*
X126946819Y-114697547D02*
X126899200Y-114792785D01*
X126899200Y-114792785D02*
X126851580Y-114840404D01*
X129635642Y-101229319D02*
X129302309Y-100753128D01*
X129064214Y-101229319D02*
X129064214Y-100229319D01*
X129064214Y-100229319D02*
X129445166Y-100229319D01*
X129445166Y-100229319D02*
X129540404Y-100276938D01*
X129540404Y-100276938D02*
X129588023Y-100324557D01*
X129588023Y-100324557D02*
X129635642Y-100419795D01*
X129635642Y-100419795D02*
X129635642Y-100562652D01*
X129635642Y-100562652D02*
X129588023Y-100657890D01*
X129588023Y-100657890D02*
X129540404Y-100705509D01*
X129540404Y-100705509D02*
X129445166Y-100753128D01*
X129445166Y-100753128D02*
X129064214Y-100753128D01*
X130588023Y-101229319D02*
X130016595Y-101229319D01*
X130302309Y-101229319D02*
X130302309Y-100229319D01*
X130302309Y-100229319D02*
X130207071Y-100372176D01*
X130207071Y-100372176D02*
X130111833Y-100467414D01*
X130111833Y-100467414D02*
X130016595Y-100515033D01*
X131540404Y-101229319D02*
X130968976Y-101229319D01*
X131254690Y-101229319D02*
X131254690Y-100229319D01*
X131254690Y-100229319D02*
X131159452Y-100372176D01*
X131159452Y-100372176D02*
X131064214Y-100467414D01*
X131064214Y-100467414D02*
X130968976Y-100515033D01*
X134439333Y-123712717D02*
X134391714Y-123760337D01*
X134391714Y-123760337D02*
X134248857Y-123807956D01*
X134248857Y-123807956D02*
X134153619Y-123807956D01*
X134153619Y-123807956D02*
X134010762Y-123760337D01*
X134010762Y-123760337D02*
X133915524Y-123665098D01*
X133915524Y-123665098D02*
X133867905Y-123569860D01*
X133867905Y-123569860D02*
X133820286Y-123379384D01*
X133820286Y-123379384D02*
X133820286Y-123236527D01*
X133820286Y-123236527D02*
X133867905Y-123046051D01*
X133867905Y-123046051D02*
X133915524Y-122950813D01*
X133915524Y-122950813D02*
X134010762Y-122855575D01*
X134010762Y-122855575D02*
X134153619Y-122807956D01*
X134153619Y-122807956D02*
X134248857Y-122807956D01*
X134248857Y-122807956D02*
X134391714Y-122855575D01*
X134391714Y-122855575D02*
X134439333Y-122903194D01*
X134820286Y-122903194D02*
X134867905Y-122855575D01*
X134867905Y-122855575D02*
X134963143Y-122807956D01*
X134963143Y-122807956D02*
X135201238Y-122807956D01*
X135201238Y-122807956D02*
X135296476Y-122855575D01*
X135296476Y-122855575D02*
X135344095Y-122903194D01*
X135344095Y-122903194D02*
X135391714Y-122998432D01*
X135391714Y-122998432D02*
X135391714Y-123093670D01*
X135391714Y-123093670D02*
X135344095Y-123236527D01*
X135344095Y-123236527D02*
X134772667Y-123807956D01*
X134772667Y-123807956D02*
X135391714Y-123807956D01*
X102261190Y-123073319D02*
X102261190Y-122073319D01*
X102737380Y-122406652D02*
X102737380Y-123073319D01*
X102737380Y-122501890D02*
X102784999Y-122454271D01*
X102784999Y-122454271D02*
X102880237Y-122406652D01*
X102880237Y-122406652D02*
X103023094Y-122406652D01*
X103023094Y-122406652D02*
X103118332Y-122454271D01*
X103118332Y-122454271D02*
X103165951Y-122549509D01*
X103165951Y-122549509D02*
X103165951Y-123073319D01*
X103546904Y-122406652D02*
X103784999Y-123073319D01*
X103784999Y-123073319D02*
X104023094Y-122406652D01*
X104165952Y-123168557D02*
X104927856Y-123168557D01*
X105118333Y-123025700D02*
X105261190Y-123073319D01*
X105261190Y-123073319D02*
X105499285Y-123073319D01*
X105499285Y-123073319D02*
X105594523Y-123025700D01*
X105594523Y-123025700D02*
X105642142Y-122978080D01*
X105642142Y-122978080D02*
X105689761Y-122882842D01*
X105689761Y-122882842D02*
X105689761Y-122787604D01*
X105689761Y-122787604D02*
X105642142Y-122692366D01*
X105642142Y-122692366D02*
X105594523Y-122644747D01*
X105594523Y-122644747D02*
X105499285Y-122597128D01*
X105499285Y-122597128D02*
X105308809Y-122549509D01*
X105308809Y-122549509D02*
X105213571Y-122501890D01*
X105213571Y-122501890D02*
X105165952Y-122454271D01*
X105165952Y-122454271D02*
X105118333Y-122359033D01*
X105118333Y-122359033D02*
X105118333Y-122263795D01*
X105118333Y-122263795D02*
X105165952Y-122168557D01*
X105165952Y-122168557D02*
X105213571Y-122120938D01*
X105213571Y-122120938D02*
X105308809Y-122073319D01*
X105308809Y-122073319D02*
X105546904Y-122073319D01*
X105546904Y-122073319D02*
X105689761Y-122120938D01*
X106118333Y-123073319D02*
X106118333Y-122406652D01*
X106118333Y-122073319D02*
X106070714Y-122120938D01*
X106070714Y-122120938D02*
X106118333Y-122168557D01*
X106118333Y-122168557D02*
X106165952Y-122120938D01*
X106165952Y-122120938D02*
X106118333Y-122073319D01*
X106118333Y-122073319D02*
X106118333Y-122168557D01*
X107023094Y-122406652D02*
X107023094Y-123216176D01*
X107023094Y-123216176D02*
X106975475Y-123311414D01*
X106975475Y-123311414D02*
X106927856Y-123359033D01*
X106927856Y-123359033D02*
X106832618Y-123406652D01*
X106832618Y-123406652D02*
X106689761Y-123406652D01*
X106689761Y-123406652D02*
X106594523Y-123359033D01*
X107023094Y-123025700D02*
X106927856Y-123073319D01*
X106927856Y-123073319D02*
X106737380Y-123073319D01*
X106737380Y-123073319D02*
X106642142Y-123025700D01*
X106642142Y-123025700D02*
X106594523Y-122978080D01*
X106594523Y-122978080D02*
X106546904Y-122882842D01*
X106546904Y-122882842D02*
X106546904Y-122597128D01*
X106546904Y-122597128D02*
X106594523Y-122501890D01*
X106594523Y-122501890D02*
X106642142Y-122454271D01*
X106642142Y-122454271D02*
X106737380Y-122406652D01*
X106737380Y-122406652D02*
X106927856Y-122406652D01*
X106927856Y-122406652D02*
X107023094Y-122454271D01*
X107499285Y-122406652D02*
X107499285Y-123073319D01*
X107499285Y-122501890D02*
X107546904Y-122454271D01*
X107546904Y-122454271D02*
X107642142Y-122406652D01*
X107642142Y-122406652D02*
X107784999Y-122406652D01*
X107784999Y-122406652D02*
X107880237Y-122454271D01*
X107880237Y-122454271D02*
X107927856Y-122549509D01*
X107927856Y-122549509D02*
X107927856Y-123073319D01*
X108832618Y-123073319D02*
X108832618Y-122549509D01*
X108832618Y-122549509D02*
X108784999Y-122454271D01*
X108784999Y-122454271D02*
X108689761Y-122406652D01*
X108689761Y-122406652D02*
X108499285Y-122406652D01*
X108499285Y-122406652D02*
X108404047Y-122454271D01*
X108832618Y-123025700D02*
X108737380Y-123073319D01*
X108737380Y-123073319D02*
X108499285Y-123073319D01*
X108499285Y-123073319D02*
X108404047Y-123025700D01*
X108404047Y-123025700D02*
X108356428Y-122930461D01*
X108356428Y-122930461D02*
X108356428Y-122835223D01*
X108356428Y-122835223D02*
X108404047Y-122739985D01*
X108404047Y-122739985D02*
X108499285Y-122692366D01*
X108499285Y-122692366D02*
X108737380Y-122692366D01*
X108737380Y-122692366D02*
X108832618Y-122644747D01*
X109451666Y-123073319D02*
X109356428Y-123025700D01*
X109356428Y-123025700D02*
X109308809Y-122930461D01*
X109308809Y-122930461D02*
X109308809Y-122073319D01*
X110356428Y-123073319D02*
X109785000Y-123073319D01*
X110070714Y-123073319D02*
X110070714Y-122073319D01*
X110070714Y-122073319D02*
X109975476Y-122216176D01*
X109975476Y-122216176D02*
X109880238Y-122311414D01*
X109880238Y-122311414D02*
X109785000Y-122359033D01*
X147520819Y-102877857D02*
X147044628Y-103211190D01*
X147520819Y-103449285D02*
X146520819Y-103449285D01*
X146520819Y-103449285D02*
X146520819Y-103068333D01*
X146520819Y-103068333D02*
X146568438Y-102973095D01*
X146568438Y-102973095D02*
X146616057Y-102925476D01*
X146616057Y-102925476D02*
X146711295Y-102877857D01*
X146711295Y-102877857D02*
X146854152Y-102877857D01*
X146854152Y-102877857D02*
X146949390Y-102925476D01*
X146949390Y-102925476D02*
X146997009Y-102973095D01*
X146997009Y-102973095D02*
X147044628Y-103068333D01*
X147044628Y-103068333D02*
X147044628Y-103449285D01*
X147520819Y-101925476D02*
X147520819Y-102496904D01*
X147520819Y-102211190D02*
X146520819Y-102211190D01*
X146520819Y-102211190D02*
X146663676Y-102306428D01*
X146663676Y-102306428D02*
X146758914Y-102401666D01*
X146758914Y-102401666D02*
X146806533Y-102496904D01*
X146520819Y-101306428D02*
X146520819Y-101211190D01*
X146520819Y-101211190D02*
X146568438Y-101115952D01*
X146568438Y-101115952D02*
X146616057Y-101068333D01*
X146616057Y-101068333D02*
X146711295Y-101020714D01*
X146711295Y-101020714D02*
X146901771Y-100973095D01*
X146901771Y-100973095D02*
X147139866Y-100973095D01*
X147139866Y-100973095D02*
X147330342Y-101020714D01*
X147330342Y-101020714D02*
X147425580Y-101068333D01*
X147425580Y-101068333D02*
X147473200Y-101115952D01*
X147473200Y-101115952D02*
X147520819Y-101211190D01*
X147520819Y-101211190D02*
X147520819Y-101306428D01*
X147520819Y-101306428D02*
X147473200Y-101401666D01*
X147473200Y-101401666D02*
X147425580Y-101449285D01*
X147425580Y-101449285D02*
X147330342Y-101496904D01*
X147330342Y-101496904D02*
X147139866Y-101544523D01*
X147139866Y-101544523D02*
X146901771Y-101544523D01*
X146901771Y-101544523D02*
X146711295Y-101496904D01*
X146711295Y-101496904D02*
X146616057Y-101449285D01*
X146616057Y-101449285D02*
X146568438Y-101401666D01*
X146568438Y-101401666D02*
X146520819Y-101306428D01*
X104838833Y-101229319D02*
X104505500Y-100753128D01*
X104267405Y-101229319D02*
X104267405Y-100229319D01*
X104267405Y-100229319D02*
X104648357Y-100229319D01*
X104648357Y-100229319D02*
X104743595Y-100276938D01*
X104743595Y-100276938D02*
X104791214Y-100324557D01*
X104791214Y-100324557D02*
X104838833Y-100419795D01*
X104838833Y-100419795D02*
X104838833Y-100562652D01*
X104838833Y-100562652D02*
X104791214Y-100657890D01*
X104791214Y-100657890D02*
X104743595Y-100705509D01*
X104743595Y-100705509D02*
X104648357Y-100753128D01*
X104648357Y-100753128D02*
X104267405Y-100753128D01*
X105743595Y-100229319D02*
X105267405Y-100229319D01*
X105267405Y-100229319D02*
X105219786Y-100705509D01*
X105219786Y-100705509D02*
X105267405Y-100657890D01*
X105267405Y-100657890D02*
X105362643Y-100610271D01*
X105362643Y-100610271D02*
X105600738Y-100610271D01*
X105600738Y-100610271D02*
X105695976Y-100657890D01*
X105695976Y-100657890D02*
X105743595Y-100705509D01*
X105743595Y-100705509D02*
X105791214Y-100800747D01*
X105791214Y-100800747D02*
X105791214Y-101038842D01*
X105791214Y-101038842D02*
X105743595Y-101134080D01*
X105743595Y-101134080D02*
X105695976Y-101181700D01*
X105695976Y-101181700D02*
X105600738Y-101229319D01*
X105600738Y-101229319D02*
X105362643Y-101229319D01*
X105362643Y-101229319D02*
X105267405Y-101181700D01*
X105267405Y-101181700D02*
X105219786Y-101134080D01*
X159617580Y-98178857D02*
X159665200Y-98226476D01*
X159665200Y-98226476D02*
X159712819Y-98369333D01*
X159712819Y-98369333D02*
X159712819Y-98464571D01*
X159712819Y-98464571D02*
X159665200Y-98607428D01*
X159665200Y-98607428D02*
X159569961Y-98702666D01*
X159569961Y-98702666D02*
X159474723Y-98750285D01*
X159474723Y-98750285D02*
X159284247Y-98797904D01*
X159284247Y-98797904D02*
X159141390Y-98797904D01*
X159141390Y-98797904D02*
X158950914Y-98750285D01*
X158950914Y-98750285D02*
X158855676Y-98702666D01*
X158855676Y-98702666D02*
X158760438Y-98607428D01*
X158760438Y-98607428D02*
X158712819Y-98464571D01*
X158712819Y-98464571D02*
X158712819Y-98369333D01*
X158712819Y-98369333D02*
X158760438Y-98226476D01*
X158760438Y-98226476D02*
X158808057Y-98178857D01*
X159712819Y-97226476D02*
X159712819Y-97797904D01*
X159712819Y-97512190D02*
X158712819Y-97512190D01*
X158712819Y-97512190D02*
X158855676Y-97607428D01*
X158855676Y-97607428D02*
X158950914Y-97702666D01*
X158950914Y-97702666D02*
X158998533Y-97797904D01*
X159712819Y-96274095D02*
X159712819Y-96845523D01*
X159712819Y-96559809D02*
X158712819Y-96559809D01*
X158712819Y-96559809D02*
X158855676Y-96655047D01*
X158855676Y-96655047D02*
X158950914Y-96750285D01*
X158950914Y-96750285D02*
X158998533Y-96845523D01*
X148701618Y-66304319D02*
X148701618Y-65304319D01*
X148701618Y-65304319D02*
X149034951Y-66018604D01*
X149034951Y-66018604D02*
X149368284Y-65304319D01*
X149368284Y-65304319D02*
X149368284Y-66304319D01*
X149987332Y-66304319D02*
X149892094Y-66256700D01*
X149892094Y-66256700D02*
X149844475Y-66209080D01*
X149844475Y-66209080D02*
X149796856Y-66113842D01*
X149796856Y-66113842D02*
X149796856Y-65828128D01*
X149796856Y-65828128D02*
X149844475Y-65732890D01*
X149844475Y-65732890D02*
X149892094Y-65685271D01*
X149892094Y-65685271D02*
X149987332Y-65637652D01*
X149987332Y-65637652D02*
X150130189Y-65637652D01*
X150130189Y-65637652D02*
X150225427Y-65685271D01*
X150225427Y-65685271D02*
X150273046Y-65732890D01*
X150273046Y-65732890D02*
X150320665Y-65828128D01*
X150320665Y-65828128D02*
X150320665Y-66113842D01*
X150320665Y-66113842D02*
X150273046Y-66209080D01*
X150273046Y-66209080D02*
X150225427Y-66256700D01*
X150225427Y-66256700D02*
X150130189Y-66304319D01*
X150130189Y-66304319D02*
X149987332Y-66304319D01*
X150606380Y-65637652D02*
X150987332Y-65637652D01*
X150749237Y-65304319D02*
X150749237Y-66161461D01*
X150749237Y-66161461D02*
X150796856Y-66256700D01*
X150796856Y-66256700D02*
X150892094Y-66304319D01*
X150892094Y-66304319D02*
X150987332Y-66304319D01*
X151463523Y-66304319D02*
X151368285Y-66256700D01*
X151368285Y-66256700D02*
X151320666Y-66209080D01*
X151320666Y-66209080D02*
X151273047Y-66113842D01*
X151273047Y-66113842D02*
X151273047Y-65828128D01*
X151273047Y-65828128D02*
X151320666Y-65732890D01*
X151320666Y-65732890D02*
X151368285Y-65685271D01*
X151368285Y-65685271D02*
X151463523Y-65637652D01*
X151463523Y-65637652D02*
X151606380Y-65637652D01*
X151606380Y-65637652D02*
X151701618Y-65685271D01*
X151701618Y-65685271D02*
X151749237Y-65732890D01*
X151749237Y-65732890D02*
X151796856Y-65828128D01*
X151796856Y-65828128D02*
X151796856Y-66113842D01*
X151796856Y-66113842D02*
X151749237Y-66209080D01*
X151749237Y-66209080D02*
X151701618Y-66256700D01*
X151701618Y-66256700D02*
X151606380Y-66304319D01*
X151606380Y-66304319D02*
X151463523Y-66304319D01*
X152225428Y-66304319D02*
X152225428Y-65637652D01*
X152225428Y-65828128D02*
X152273047Y-65732890D01*
X152273047Y-65732890D02*
X152320666Y-65685271D01*
X152320666Y-65685271D02*
X152415904Y-65637652D01*
X152415904Y-65637652D02*
X152511142Y-65637652D01*
X152606381Y-66399557D02*
X153368285Y-66399557D01*
X153796857Y-65304319D02*
X153987333Y-65304319D01*
X153987333Y-65304319D02*
X154082571Y-65351938D01*
X154082571Y-65351938D02*
X154177809Y-65447176D01*
X154177809Y-65447176D02*
X154225428Y-65637652D01*
X154225428Y-65637652D02*
X154225428Y-65970985D01*
X154225428Y-65970985D02*
X154177809Y-66161461D01*
X154177809Y-66161461D02*
X154082571Y-66256700D01*
X154082571Y-66256700D02*
X153987333Y-66304319D01*
X153987333Y-66304319D02*
X153796857Y-66304319D01*
X153796857Y-66304319D02*
X153701619Y-66256700D01*
X153701619Y-66256700D02*
X153606381Y-66161461D01*
X153606381Y-66161461D02*
X153558762Y-65970985D01*
X153558762Y-65970985D02*
X153558762Y-65637652D01*
X153558762Y-65637652D02*
X153606381Y-65447176D01*
X153606381Y-65447176D02*
X153701619Y-65351938D01*
X153701619Y-65351938D02*
X153796857Y-65304319D01*
X155082571Y-65637652D02*
X155082571Y-66304319D01*
X154654000Y-65637652D02*
X154654000Y-66161461D01*
X154654000Y-66161461D02*
X154701619Y-66256700D01*
X154701619Y-66256700D02*
X154796857Y-66304319D01*
X154796857Y-66304319D02*
X154939714Y-66304319D01*
X154939714Y-66304319D02*
X155034952Y-66256700D01*
X155034952Y-66256700D02*
X155082571Y-66209080D01*
X155415905Y-65637652D02*
X155796857Y-65637652D01*
X155558762Y-65304319D02*
X155558762Y-66161461D01*
X155558762Y-66161461D02*
X155606381Y-66256700D01*
X155606381Y-66256700D02*
X155701619Y-66304319D01*
X155701619Y-66304319D02*
X155796857Y-66304319D01*
X156654000Y-66304319D02*
X156082572Y-66304319D01*
X156368286Y-66304319D02*
X156368286Y-65304319D01*
X156368286Y-65304319D02*
X156273048Y-65447176D01*
X156273048Y-65447176D02*
X156177810Y-65542414D01*
X156177810Y-65542414D02*
X156082572Y-65590033D01*
X164324095Y-122327319D02*
X164324095Y-123136842D01*
X164324095Y-123136842D02*
X164371714Y-123232080D01*
X164371714Y-123232080D02*
X164419333Y-123279700D01*
X164419333Y-123279700D02*
X164514571Y-123327319D01*
X164514571Y-123327319D02*
X164705047Y-123327319D01*
X164705047Y-123327319D02*
X164800285Y-123279700D01*
X164800285Y-123279700D02*
X164847904Y-123232080D01*
X164847904Y-123232080D02*
X164895523Y-123136842D01*
X164895523Y-123136842D02*
X164895523Y-122327319D01*
X165895523Y-123327319D02*
X165324095Y-123327319D01*
X165609809Y-123327319D02*
X165609809Y-122327319D01*
X165609809Y-122327319D02*
X165514571Y-122470176D01*
X165514571Y-122470176D02*
X165419333Y-122565414D01*
X165419333Y-122565414D02*
X165324095Y-122613033D01*
X135215333Y-107738080D02*
X135167714Y-107785700D01*
X135167714Y-107785700D02*
X135024857Y-107833319D01*
X135024857Y-107833319D02*
X134929619Y-107833319D01*
X134929619Y-107833319D02*
X134786762Y-107785700D01*
X134786762Y-107785700D02*
X134691524Y-107690461D01*
X134691524Y-107690461D02*
X134643905Y-107595223D01*
X134643905Y-107595223D02*
X134596286Y-107404747D01*
X134596286Y-107404747D02*
X134596286Y-107261890D01*
X134596286Y-107261890D02*
X134643905Y-107071414D01*
X134643905Y-107071414D02*
X134691524Y-106976176D01*
X134691524Y-106976176D02*
X134786762Y-106880938D01*
X134786762Y-106880938D02*
X134929619Y-106833319D01*
X134929619Y-106833319D02*
X135024857Y-106833319D01*
X135024857Y-106833319D02*
X135167714Y-106880938D01*
X135167714Y-106880938D02*
X135215333Y-106928557D01*
X135786762Y-107261890D02*
X135691524Y-107214271D01*
X135691524Y-107214271D02*
X135643905Y-107166652D01*
X135643905Y-107166652D02*
X135596286Y-107071414D01*
X135596286Y-107071414D02*
X135596286Y-107023795D01*
X135596286Y-107023795D02*
X135643905Y-106928557D01*
X135643905Y-106928557D02*
X135691524Y-106880938D01*
X135691524Y-106880938D02*
X135786762Y-106833319D01*
X135786762Y-106833319D02*
X135977238Y-106833319D01*
X135977238Y-106833319D02*
X136072476Y-106880938D01*
X136072476Y-106880938D02*
X136120095Y-106928557D01*
X136120095Y-106928557D02*
X136167714Y-107023795D01*
X136167714Y-107023795D02*
X136167714Y-107071414D01*
X136167714Y-107071414D02*
X136120095Y-107166652D01*
X136120095Y-107166652D02*
X136072476Y-107214271D01*
X136072476Y-107214271D02*
X135977238Y-107261890D01*
X135977238Y-107261890D02*
X135786762Y-107261890D01*
X135786762Y-107261890D02*
X135691524Y-107309509D01*
X135691524Y-107309509D02*
X135643905Y-107357128D01*
X135643905Y-107357128D02*
X135596286Y-107452366D01*
X135596286Y-107452366D02*
X135596286Y-107642842D01*
X135596286Y-107642842D02*
X135643905Y-107738080D01*
X135643905Y-107738080D02*
X135691524Y-107785700D01*
X135691524Y-107785700D02*
X135786762Y-107833319D01*
X135786762Y-107833319D02*
X135977238Y-107833319D01*
X135977238Y-107833319D02*
X136072476Y-107785700D01*
X136072476Y-107785700D02*
X136120095Y-107738080D01*
X136120095Y-107738080D02*
X136167714Y-107642842D01*
X136167714Y-107642842D02*
X136167714Y-107452366D01*
X136167714Y-107452366D02*
X136120095Y-107357128D01*
X136120095Y-107357128D02*
X136072476Y-107309509D01*
X136072476Y-107309509D02*
X135977238Y-107261890D01*
X137487819Y-93860857D02*
X137011628Y-94194190D01*
X137487819Y-94432285D02*
X136487819Y-94432285D01*
X136487819Y-94432285D02*
X136487819Y-94051333D01*
X136487819Y-94051333D02*
X136535438Y-93956095D01*
X136535438Y-93956095D02*
X136583057Y-93908476D01*
X136583057Y-93908476D02*
X136678295Y-93860857D01*
X136678295Y-93860857D02*
X136821152Y-93860857D01*
X136821152Y-93860857D02*
X136916390Y-93908476D01*
X136916390Y-93908476D02*
X136964009Y-93956095D01*
X136964009Y-93956095D02*
X137011628Y-94051333D01*
X137011628Y-94051333D02*
X137011628Y-94432285D01*
X137487819Y-92908476D02*
X137487819Y-93479904D01*
X137487819Y-93194190D02*
X136487819Y-93194190D01*
X136487819Y-93194190D02*
X136630676Y-93289428D01*
X136630676Y-93289428D02*
X136725914Y-93384666D01*
X136725914Y-93384666D02*
X136773533Y-93479904D01*
X136487819Y-92575142D02*
X136487819Y-91956095D01*
X136487819Y-91956095D02*
X136868771Y-92289428D01*
X136868771Y-92289428D02*
X136868771Y-92146571D01*
X136868771Y-92146571D02*
X136916390Y-92051333D01*
X136916390Y-92051333D02*
X136964009Y-92003714D01*
X136964009Y-92003714D02*
X137059247Y-91956095D01*
X137059247Y-91956095D02*
X137297342Y-91956095D01*
X137297342Y-91956095D02*
X137392580Y-92003714D01*
X137392580Y-92003714D02*
X137440200Y-92051333D01*
X137440200Y-92051333D02*
X137487819Y-92146571D01*
X137487819Y-92146571D02*
X137487819Y-92432285D01*
X137487819Y-92432285D02*
X137440200Y-92527523D01*
X137440200Y-92527523D02*
X137392580Y-92575142D01*
X110325819Y-100964904D02*
X111135342Y-100964904D01*
X111135342Y-100964904D02*
X111230580Y-100917285D01*
X111230580Y-100917285D02*
X111278200Y-100869666D01*
X111278200Y-100869666D02*
X111325819Y-100774428D01*
X111325819Y-100774428D02*
X111325819Y-100583952D01*
X111325819Y-100583952D02*
X111278200Y-100488714D01*
X111278200Y-100488714D02*
X111230580Y-100441095D01*
X111230580Y-100441095D02*
X111135342Y-100393476D01*
X111135342Y-100393476D02*
X110325819Y-100393476D01*
X110659152Y-99488714D02*
X111325819Y-99488714D01*
X110278200Y-99726809D02*
X110992485Y-99964904D01*
X110992485Y-99964904D02*
X110992485Y-99345857D01*
X120554761Y-95292057D02*
X120459523Y-95244438D01*
X120459523Y-95244438D02*
X120364285Y-95149200D01*
X120364285Y-95149200D02*
X120221428Y-95006342D01*
X120221428Y-95006342D02*
X120126190Y-94958723D01*
X120126190Y-94958723D02*
X120030952Y-94958723D01*
X120078571Y-95196819D02*
X119983333Y-95149200D01*
X119983333Y-95149200D02*
X119888095Y-95053961D01*
X119888095Y-95053961D02*
X119840476Y-94863485D01*
X119840476Y-94863485D02*
X119840476Y-94530152D01*
X119840476Y-94530152D02*
X119888095Y-94339676D01*
X119888095Y-94339676D02*
X119983333Y-94244438D01*
X119983333Y-94244438D02*
X120078571Y-94196819D01*
X120078571Y-94196819D02*
X120269047Y-94196819D01*
X120269047Y-94196819D02*
X120364285Y-94244438D01*
X120364285Y-94244438D02*
X120459523Y-94339676D01*
X120459523Y-94339676D02*
X120507142Y-94530152D01*
X120507142Y-94530152D02*
X120507142Y-94863485D01*
X120507142Y-94863485D02*
X120459523Y-95053961D01*
X120459523Y-95053961D02*
X120364285Y-95149200D01*
X120364285Y-95149200D02*
X120269047Y-95196819D01*
X120269047Y-95196819D02*
X120078571Y-95196819D01*
X121078571Y-94625390D02*
X120983333Y-94577771D01*
X120983333Y-94577771D02*
X120935714Y-94530152D01*
X120935714Y-94530152D02*
X120888095Y-94434914D01*
X120888095Y-94434914D02*
X120888095Y-94387295D01*
X120888095Y-94387295D02*
X120935714Y-94292057D01*
X120935714Y-94292057D02*
X120983333Y-94244438D01*
X120983333Y-94244438D02*
X121078571Y-94196819D01*
X121078571Y-94196819D02*
X121269047Y-94196819D01*
X121269047Y-94196819D02*
X121364285Y-94244438D01*
X121364285Y-94244438D02*
X121411904Y-94292057D01*
X121411904Y-94292057D02*
X121459523Y-94387295D01*
X121459523Y-94387295D02*
X121459523Y-94434914D01*
X121459523Y-94434914D02*
X121411904Y-94530152D01*
X121411904Y-94530152D02*
X121364285Y-94577771D01*
X121364285Y-94577771D02*
X121269047Y-94625390D01*
X121269047Y-94625390D02*
X121078571Y-94625390D01*
X121078571Y-94625390D02*
X120983333Y-94673009D01*
X120983333Y-94673009D02*
X120935714Y-94720628D01*
X120935714Y-94720628D02*
X120888095Y-94815866D01*
X120888095Y-94815866D02*
X120888095Y-95006342D01*
X120888095Y-95006342D02*
X120935714Y-95101580D01*
X120935714Y-95101580D02*
X120983333Y-95149200D01*
X120983333Y-95149200D02*
X121078571Y-95196819D01*
X121078571Y-95196819D02*
X121269047Y-95196819D01*
X121269047Y-95196819D02*
X121364285Y-95149200D01*
X121364285Y-95149200D02*
X121411904Y-95101580D01*
X121411904Y-95101580D02*
X121459523Y-95006342D01*
X121459523Y-95006342D02*
X121459523Y-94815866D01*
X121459523Y-94815866D02*
X121411904Y-94720628D01*
X121411904Y-94720628D02*
X121364285Y-94673009D01*
X121364285Y-94673009D02*
X121269047Y-94625390D01*
X109834819Y-103902166D02*
X109358628Y-104235499D01*
X109834819Y-104473594D02*
X108834819Y-104473594D01*
X108834819Y-104473594D02*
X108834819Y-104092642D01*
X108834819Y-104092642D02*
X108882438Y-103997404D01*
X108882438Y-103997404D02*
X108930057Y-103949785D01*
X108930057Y-103949785D02*
X109025295Y-103902166D01*
X109025295Y-103902166D02*
X109168152Y-103902166D01*
X109168152Y-103902166D02*
X109263390Y-103949785D01*
X109263390Y-103949785D02*
X109311009Y-103997404D01*
X109311009Y-103997404D02*
X109358628Y-104092642D01*
X109358628Y-104092642D02*
X109358628Y-104473594D01*
X108834819Y-103568832D02*
X108834819Y-102949785D01*
X108834819Y-102949785D02*
X109215771Y-103283118D01*
X109215771Y-103283118D02*
X109215771Y-103140261D01*
X109215771Y-103140261D02*
X109263390Y-103045023D01*
X109263390Y-103045023D02*
X109311009Y-102997404D01*
X109311009Y-102997404D02*
X109406247Y-102949785D01*
X109406247Y-102949785D02*
X109644342Y-102949785D01*
X109644342Y-102949785D02*
X109739580Y-102997404D01*
X109739580Y-102997404D02*
X109787200Y-103045023D01*
X109787200Y-103045023D02*
X109834819Y-103140261D01*
X109834819Y-103140261D02*
X109834819Y-103425975D01*
X109834819Y-103425975D02*
X109787200Y-103521213D01*
X109787200Y-103521213D02*
X109739580Y-103568832D01*
X158091819Y-96844094D02*
X157091819Y-96844094D01*
X157091819Y-96844094D02*
X157091819Y-96605999D01*
X157091819Y-96605999D02*
X157139438Y-96463142D01*
X157139438Y-96463142D02*
X157234676Y-96367904D01*
X157234676Y-96367904D02*
X157329914Y-96320285D01*
X157329914Y-96320285D02*
X157520390Y-96272666D01*
X157520390Y-96272666D02*
X157663247Y-96272666D01*
X157663247Y-96272666D02*
X157853723Y-96320285D01*
X157853723Y-96320285D02*
X157948961Y-96367904D01*
X157948961Y-96367904D02*
X158044200Y-96463142D01*
X158044200Y-96463142D02*
X158091819Y-96605999D01*
X158091819Y-96605999D02*
X158091819Y-96844094D01*
X158091819Y-95796475D02*
X158091819Y-95605999D01*
X158091819Y-95605999D02*
X158044200Y-95510761D01*
X158044200Y-95510761D02*
X157996580Y-95463142D01*
X157996580Y-95463142D02*
X157853723Y-95367904D01*
X157853723Y-95367904D02*
X157663247Y-95320285D01*
X157663247Y-95320285D02*
X157282295Y-95320285D01*
X157282295Y-95320285D02*
X157187057Y-95367904D01*
X157187057Y-95367904D02*
X157139438Y-95415523D01*
X157139438Y-95415523D02*
X157091819Y-95510761D01*
X157091819Y-95510761D02*
X157091819Y-95701237D01*
X157091819Y-95701237D02*
X157139438Y-95796475D01*
X157139438Y-95796475D02*
X157187057Y-95844094D01*
X157187057Y-95844094D02*
X157282295Y-95891713D01*
X157282295Y-95891713D02*
X157520390Y-95891713D01*
X157520390Y-95891713D02*
X157615628Y-95844094D01*
X157615628Y-95844094D02*
X157663247Y-95796475D01*
X157663247Y-95796475D02*
X157710866Y-95701237D01*
X157710866Y-95701237D02*
X157710866Y-95510761D01*
X157710866Y-95510761D02*
X157663247Y-95415523D01*
X157663247Y-95415523D02*
X157615628Y-95367904D01*
X157615628Y-95367904D02*
X157520390Y-95320285D01*
X135598819Y-100964904D02*
X136408342Y-100964904D01*
X136408342Y-100964904D02*
X136503580Y-100917285D01*
X136503580Y-100917285D02*
X136551200Y-100869666D01*
X136551200Y-100869666D02*
X136598819Y-100774428D01*
X136598819Y-100774428D02*
X136598819Y-100583952D01*
X136598819Y-100583952D02*
X136551200Y-100488714D01*
X136551200Y-100488714D02*
X136503580Y-100441095D01*
X136503580Y-100441095D02*
X136408342Y-100393476D01*
X136408342Y-100393476D02*
X135598819Y-100393476D01*
X135598819Y-100012523D02*
X135598819Y-99345857D01*
X135598819Y-99345857D02*
X136598819Y-99774428D01*
X107926819Y-96844094D02*
X106926819Y-96844094D01*
X106926819Y-96844094D02*
X106926819Y-96605999D01*
X106926819Y-96605999D02*
X106974438Y-96463142D01*
X106974438Y-96463142D02*
X107069676Y-96367904D01*
X107069676Y-96367904D02*
X107164914Y-96320285D01*
X107164914Y-96320285D02*
X107355390Y-96272666D01*
X107355390Y-96272666D02*
X107498247Y-96272666D01*
X107498247Y-96272666D02*
X107688723Y-96320285D01*
X107688723Y-96320285D02*
X107783961Y-96367904D01*
X107783961Y-96367904D02*
X107879200Y-96463142D01*
X107879200Y-96463142D02*
X107926819Y-96605999D01*
X107926819Y-96605999D02*
X107926819Y-96844094D01*
X106926819Y-95939332D02*
X106926819Y-95272666D01*
X106926819Y-95272666D02*
X107926819Y-95701237D01*
X154527642Y-101229319D02*
X154194309Y-100753128D01*
X153956214Y-101229319D02*
X153956214Y-100229319D01*
X153956214Y-100229319D02*
X154337166Y-100229319D01*
X154337166Y-100229319D02*
X154432404Y-100276938D01*
X154432404Y-100276938D02*
X154480023Y-100324557D01*
X154480023Y-100324557D02*
X154527642Y-100419795D01*
X154527642Y-100419795D02*
X154527642Y-100562652D01*
X154527642Y-100562652D02*
X154480023Y-100657890D01*
X154480023Y-100657890D02*
X154432404Y-100705509D01*
X154432404Y-100705509D02*
X154337166Y-100753128D01*
X154337166Y-100753128D02*
X153956214Y-100753128D01*
X155480023Y-101229319D02*
X154908595Y-101229319D01*
X155194309Y-101229319D02*
X155194309Y-100229319D01*
X155194309Y-100229319D02*
X155099071Y-100372176D01*
X155099071Y-100372176D02*
X155003833Y-100467414D01*
X155003833Y-100467414D02*
X154908595Y-100515033D01*
X155813357Y-100229319D02*
X156480023Y-100229319D01*
X156480023Y-100229319D02*
X156051452Y-101229319D01*
X140130833Y-129550319D02*
X139797500Y-129074128D01*
X139559405Y-129550319D02*
X139559405Y-128550319D01*
X139559405Y-128550319D02*
X139940357Y-128550319D01*
X139940357Y-128550319D02*
X140035595Y-128597938D01*
X140035595Y-128597938D02*
X140083214Y-128645557D01*
X140083214Y-128645557D02*
X140130833Y-128740795D01*
X140130833Y-128740795D02*
X140130833Y-128883652D01*
X140130833Y-128883652D02*
X140083214Y-128978890D01*
X140083214Y-128978890D02*
X140035595Y-129026509D01*
X140035595Y-129026509D02*
X139940357Y-129074128D01*
X139940357Y-129074128D02*
X139559405Y-129074128D01*
X141083214Y-129550319D02*
X140511786Y-129550319D01*
X140797500Y-129550319D02*
X140797500Y-128550319D01*
X140797500Y-128550319D02*
X140702262Y-128693176D01*
X140702262Y-128693176D02*
X140607024Y-128788414D01*
X140607024Y-128788414D02*
X140511786Y-128836033D01*
X145351571Y-95292057D02*
X145256333Y-95244438D01*
X145256333Y-95244438D02*
X145161095Y-95149200D01*
X145161095Y-95149200D02*
X145018238Y-95006342D01*
X145018238Y-95006342D02*
X144923000Y-94958723D01*
X144923000Y-94958723D02*
X144827762Y-94958723D01*
X144875381Y-95196819D02*
X144780143Y-95149200D01*
X144780143Y-95149200D02*
X144684905Y-95053961D01*
X144684905Y-95053961D02*
X144637286Y-94863485D01*
X144637286Y-94863485D02*
X144637286Y-94530152D01*
X144637286Y-94530152D02*
X144684905Y-94339676D01*
X144684905Y-94339676D02*
X144780143Y-94244438D01*
X144780143Y-94244438D02*
X144875381Y-94196819D01*
X144875381Y-94196819D02*
X145065857Y-94196819D01*
X145065857Y-94196819D02*
X145161095Y-94244438D01*
X145161095Y-94244438D02*
X145256333Y-94339676D01*
X145256333Y-94339676D02*
X145303952Y-94530152D01*
X145303952Y-94530152D02*
X145303952Y-94863485D01*
X145303952Y-94863485D02*
X145256333Y-95053961D01*
X145256333Y-95053961D02*
X145161095Y-95149200D01*
X145161095Y-95149200D02*
X145065857Y-95196819D01*
X145065857Y-95196819D02*
X144875381Y-95196819D01*
X146256333Y-95196819D02*
X145684905Y-95196819D01*
X145970619Y-95196819D02*
X145970619Y-94196819D01*
X145970619Y-94196819D02*
X145875381Y-94339676D01*
X145875381Y-94339676D02*
X145780143Y-94434914D01*
X145780143Y-94434914D02*
X145684905Y-94482533D01*
X146875381Y-94196819D02*
X146970619Y-94196819D01*
X146970619Y-94196819D02*
X147065857Y-94244438D01*
X147065857Y-94244438D02*
X147113476Y-94292057D01*
X147113476Y-94292057D02*
X147161095Y-94387295D01*
X147161095Y-94387295D02*
X147208714Y-94577771D01*
X147208714Y-94577771D02*
X147208714Y-94815866D01*
X147208714Y-94815866D02*
X147161095Y-95006342D01*
X147161095Y-95006342D02*
X147113476Y-95101580D01*
X147113476Y-95101580D02*
X147065857Y-95149200D01*
X147065857Y-95149200D02*
X146970619Y-95196819D01*
X146970619Y-95196819D02*
X146875381Y-95196819D01*
X146875381Y-95196819D02*
X146780143Y-95149200D01*
X146780143Y-95149200D02*
X146732524Y-95101580D01*
X146732524Y-95101580D02*
X146684905Y-95006342D01*
X146684905Y-95006342D02*
X146637286Y-94815866D01*
X146637286Y-94815866D02*
X146637286Y-94577771D01*
X146637286Y-94577771D02*
X146684905Y-94387295D01*
X146684905Y-94387295D02*
X146732524Y-94292057D01*
X146732524Y-94292057D02*
X146780143Y-94244438D01*
X146780143Y-94244438D02*
X146875381Y-94196819D01*
X128555761Y-108055557D02*
X128460523Y-108007938D01*
X128460523Y-108007938D02*
X128365285Y-107912700D01*
X128365285Y-107912700D02*
X128222428Y-107769842D01*
X128222428Y-107769842D02*
X128127190Y-107722223D01*
X128127190Y-107722223D02*
X128031952Y-107722223D01*
X128079571Y-107960319D02*
X127984333Y-107912700D01*
X127984333Y-107912700D02*
X127889095Y-107817461D01*
X127889095Y-107817461D02*
X127841476Y-107626985D01*
X127841476Y-107626985D02*
X127841476Y-107293652D01*
X127841476Y-107293652D02*
X127889095Y-107103176D01*
X127889095Y-107103176D02*
X127984333Y-107007938D01*
X127984333Y-107007938D02*
X128079571Y-106960319D01*
X128079571Y-106960319D02*
X128270047Y-106960319D01*
X128270047Y-106960319D02*
X128365285Y-107007938D01*
X128365285Y-107007938D02*
X128460523Y-107103176D01*
X128460523Y-107103176D02*
X128508142Y-107293652D01*
X128508142Y-107293652D02*
X128508142Y-107626985D01*
X128508142Y-107626985D02*
X128460523Y-107817461D01*
X128460523Y-107817461D02*
X128365285Y-107912700D01*
X128365285Y-107912700D02*
X128270047Y-107960319D01*
X128270047Y-107960319D02*
X128079571Y-107960319D01*
X128984333Y-107960319D02*
X129174809Y-107960319D01*
X129174809Y-107960319D02*
X129270047Y-107912700D01*
X129270047Y-107912700D02*
X129317666Y-107865080D01*
X129317666Y-107865080D02*
X129412904Y-107722223D01*
X129412904Y-107722223D02*
X129460523Y-107531747D01*
X129460523Y-107531747D02*
X129460523Y-107150795D01*
X129460523Y-107150795D02*
X129412904Y-107055557D01*
X129412904Y-107055557D02*
X129365285Y-107007938D01*
X129365285Y-107007938D02*
X129270047Y-106960319D01*
X129270047Y-106960319D02*
X129079571Y-106960319D01*
X129079571Y-106960319D02*
X128984333Y-107007938D01*
X128984333Y-107007938D02*
X128936714Y-107055557D01*
X128936714Y-107055557D02*
X128889095Y-107150795D01*
X128889095Y-107150795D02*
X128889095Y-107388890D01*
X128889095Y-107388890D02*
X128936714Y-107484128D01*
X128936714Y-107484128D02*
X128984333Y-107531747D01*
X128984333Y-107531747D02*
X129079571Y-107579366D01*
X129079571Y-107579366D02*
X129270047Y-107579366D01*
X129270047Y-107579366D02*
X129365285Y-107531747D01*
X129365285Y-107531747D02*
X129412904Y-107484128D01*
X129412904Y-107484128D02*
X129460523Y-107388890D01*
X133199819Y-96844094D02*
X132199819Y-96844094D01*
X132199819Y-96844094D02*
X132199819Y-96605999D01*
X132199819Y-96605999D02*
X132247438Y-96463142D01*
X132247438Y-96463142D02*
X132342676Y-96367904D01*
X132342676Y-96367904D02*
X132437914Y-96320285D01*
X132437914Y-96320285D02*
X132628390Y-96272666D01*
X132628390Y-96272666D02*
X132771247Y-96272666D01*
X132771247Y-96272666D02*
X132961723Y-96320285D01*
X132961723Y-96320285D02*
X133056961Y-96367904D01*
X133056961Y-96367904D02*
X133152200Y-96463142D01*
X133152200Y-96463142D02*
X133199819Y-96605999D01*
X133199819Y-96605999D02*
X133199819Y-96844094D01*
X132628390Y-95701237D02*
X132580771Y-95796475D01*
X132580771Y-95796475D02*
X132533152Y-95844094D01*
X132533152Y-95844094D02*
X132437914Y-95891713D01*
X132437914Y-95891713D02*
X132390295Y-95891713D01*
X132390295Y-95891713D02*
X132295057Y-95844094D01*
X132295057Y-95844094D02*
X132247438Y-95796475D01*
X132247438Y-95796475D02*
X132199819Y-95701237D01*
X132199819Y-95701237D02*
X132199819Y-95510761D01*
X132199819Y-95510761D02*
X132247438Y-95415523D01*
X132247438Y-95415523D02*
X132295057Y-95367904D01*
X132295057Y-95367904D02*
X132390295Y-95320285D01*
X132390295Y-95320285D02*
X132437914Y-95320285D01*
X132437914Y-95320285D02*
X132533152Y-95367904D01*
X132533152Y-95367904D02*
X132580771Y-95415523D01*
X132580771Y-95415523D02*
X132628390Y-95510761D01*
X132628390Y-95510761D02*
X132628390Y-95701237D01*
X132628390Y-95701237D02*
X132676009Y-95796475D01*
X132676009Y-95796475D02*
X132723628Y-95844094D01*
X132723628Y-95844094D02*
X132818866Y-95891713D01*
X132818866Y-95891713D02*
X133009342Y-95891713D01*
X133009342Y-95891713D02*
X133104580Y-95844094D01*
X133104580Y-95844094D02*
X133152200Y-95796475D01*
X133152200Y-95796475D02*
X133199819Y-95701237D01*
X133199819Y-95701237D02*
X133199819Y-95510761D01*
X133199819Y-95510761D02*
X133152200Y-95415523D01*
X133152200Y-95415523D02*
X133104580Y-95367904D01*
X133104580Y-95367904D02*
X133009342Y-95320285D01*
X133009342Y-95320285D02*
X132818866Y-95320285D01*
X132818866Y-95320285D02*
X132723628Y-95367904D01*
X132723628Y-95367904D02*
X132676009Y-95415523D01*
X132676009Y-95415523D02*
X132628390Y-95510761D01*
X112214819Y-93384666D02*
X111738628Y-93717999D01*
X112214819Y-93956094D02*
X111214819Y-93956094D01*
X111214819Y-93956094D02*
X111214819Y-93575142D01*
X111214819Y-93575142D02*
X111262438Y-93479904D01*
X111262438Y-93479904D02*
X111310057Y-93432285D01*
X111310057Y-93432285D02*
X111405295Y-93384666D01*
X111405295Y-93384666D02*
X111548152Y-93384666D01*
X111548152Y-93384666D02*
X111643390Y-93432285D01*
X111643390Y-93432285D02*
X111691009Y-93479904D01*
X111691009Y-93479904D02*
X111738628Y-93575142D01*
X111738628Y-93575142D02*
X111738628Y-93956094D01*
X111214819Y-93051332D02*
X111214819Y-92384666D01*
X111214819Y-92384666D02*
X112214819Y-92813237D01*
X118771190Y-123073319D02*
X118771190Y-122073319D01*
X119247380Y-122406652D02*
X119247380Y-123073319D01*
X119247380Y-122501890D02*
X119294999Y-122454271D01*
X119294999Y-122454271D02*
X119390237Y-122406652D01*
X119390237Y-122406652D02*
X119533094Y-122406652D01*
X119533094Y-122406652D02*
X119628332Y-122454271D01*
X119628332Y-122454271D02*
X119675951Y-122549509D01*
X119675951Y-122549509D02*
X119675951Y-123073319D01*
X120056904Y-122406652D02*
X120294999Y-123073319D01*
X120294999Y-123073319D02*
X120533094Y-122406652D01*
X120675952Y-123168557D02*
X121437856Y-123168557D01*
X121628333Y-123025700D02*
X121771190Y-123073319D01*
X121771190Y-123073319D02*
X122009285Y-123073319D01*
X122009285Y-123073319D02*
X122104523Y-123025700D01*
X122104523Y-123025700D02*
X122152142Y-122978080D01*
X122152142Y-122978080D02*
X122199761Y-122882842D01*
X122199761Y-122882842D02*
X122199761Y-122787604D01*
X122199761Y-122787604D02*
X122152142Y-122692366D01*
X122152142Y-122692366D02*
X122104523Y-122644747D01*
X122104523Y-122644747D02*
X122009285Y-122597128D01*
X122009285Y-122597128D02*
X121818809Y-122549509D01*
X121818809Y-122549509D02*
X121723571Y-122501890D01*
X121723571Y-122501890D02*
X121675952Y-122454271D01*
X121675952Y-122454271D02*
X121628333Y-122359033D01*
X121628333Y-122359033D02*
X121628333Y-122263795D01*
X121628333Y-122263795D02*
X121675952Y-122168557D01*
X121675952Y-122168557D02*
X121723571Y-122120938D01*
X121723571Y-122120938D02*
X121818809Y-122073319D01*
X121818809Y-122073319D02*
X122056904Y-122073319D01*
X122056904Y-122073319D02*
X122199761Y-122120938D01*
X122628333Y-123073319D02*
X122628333Y-122406652D01*
X122628333Y-122073319D02*
X122580714Y-122120938D01*
X122580714Y-122120938D02*
X122628333Y-122168557D01*
X122628333Y-122168557D02*
X122675952Y-122120938D01*
X122675952Y-122120938D02*
X122628333Y-122073319D01*
X122628333Y-122073319D02*
X122628333Y-122168557D01*
X123533094Y-122406652D02*
X123533094Y-123216176D01*
X123533094Y-123216176D02*
X123485475Y-123311414D01*
X123485475Y-123311414D02*
X123437856Y-123359033D01*
X123437856Y-123359033D02*
X123342618Y-123406652D01*
X123342618Y-123406652D02*
X123199761Y-123406652D01*
X123199761Y-123406652D02*
X123104523Y-123359033D01*
X123533094Y-123025700D02*
X123437856Y-123073319D01*
X123437856Y-123073319D02*
X123247380Y-123073319D01*
X123247380Y-123073319D02*
X123152142Y-123025700D01*
X123152142Y-123025700D02*
X123104523Y-122978080D01*
X123104523Y-122978080D02*
X123056904Y-122882842D01*
X123056904Y-122882842D02*
X123056904Y-122597128D01*
X123056904Y-122597128D02*
X123104523Y-122501890D01*
X123104523Y-122501890D02*
X123152142Y-122454271D01*
X123152142Y-122454271D02*
X123247380Y-122406652D01*
X123247380Y-122406652D02*
X123437856Y-122406652D01*
X123437856Y-122406652D02*
X123533094Y-122454271D01*
X124009285Y-122406652D02*
X124009285Y-123073319D01*
X124009285Y-122501890D02*
X124056904Y-122454271D01*
X124056904Y-122454271D02*
X124152142Y-122406652D01*
X124152142Y-122406652D02*
X124294999Y-122406652D01*
X124294999Y-122406652D02*
X124390237Y-122454271D01*
X124390237Y-122454271D02*
X124437856Y-122549509D01*
X124437856Y-122549509D02*
X124437856Y-123073319D01*
X125342618Y-123073319D02*
X125342618Y-122549509D01*
X125342618Y-122549509D02*
X125294999Y-122454271D01*
X125294999Y-122454271D02*
X125199761Y-122406652D01*
X125199761Y-122406652D02*
X125009285Y-122406652D01*
X125009285Y-122406652D02*
X124914047Y-122454271D01*
X125342618Y-123025700D02*
X125247380Y-123073319D01*
X125247380Y-123073319D02*
X125009285Y-123073319D01*
X125009285Y-123073319D02*
X124914047Y-123025700D01*
X124914047Y-123025700D02*
X124866428Y-122930461D01*
X124866428Y-122930461D02*
X124866428Y-122835223D01*
X124866428Y-122835223D02*
X124914047Y-122739985D01*
X124914047Y-122739985D02*
X125009285Y-122692366D01*
X125009285Y-122692366D02*
X125247380Y-122692366D01*
X125247380Y-122692366D02*
X125342618Y-122644747D01*
X125961666Y-123073319D02*
X125866428Y-123025700D01*
X125866428Y-123025700D02*
X125818809Y-122930461D01*
X125818809Y-122930461D02*
X125818809Y-122073319D01*
X126295000Y-122168557D02*
X126342619Y-122120938D01*
X126342619Y-122120938D02*
X126437857Y-122073319D01*
X126437857Y-122073319D02*
X126675952Y-122073319D01*
X126675952Y-122073319D02*
X126771190Y-122120938D01*
X126771190Y-122120938D02*
X126818809Y-122168557D01*
X126818809Y-122168557D02*
X126866428Y-122263795D01*
X126866428Y-122263795D02*
X126866428Y-122359033D01*
X126866428Y-122359033D02*
X126818809Y-122501890D01*
X126818809Y-122501890D02*
X126247381Y-123073319D01*
X126247381Y-123073319D02*
X126866428Y-123073319D01*
X152463571Y-108055557D02*
X152368333Y-108007938D01*
X152368333Y-108007938D02*
X152273095Y-107912700D01*
X152273095Y-107912700D02*
X152130238Y-107769842D01*
X152130238Y-107769842D02*
X152035000Y-107722223D01*
X152035000Y-107722223D02*
X151939762Y-107722223D01*
X151987381Y-107960319D02*
X151892143Y-107912700D01*
X151892143Y-107912700D02*
X151796905Y-107817461D01*
X151796905Y-107817461D02*
X151749286Y-107626985D01*
X151749286Y-107626985D02*
X151749286Y-107293652D01*
X151749286Y-107293652D02*
X151796905Y-107103176D01*
X151796905Y-107103176D02*
X151892143Y-107007938D01*
X151892143Y-107007938D02*
X151987381Y-106960319D01*
X151987381Y-106960319D02*
X152177857Y-106960319D01*
X152177857Y-106960319D02*
X152273095Y-107007938D01*
X152273095Y-107007938D02*
X152368333Y-107103176D01*
X152368333Y-107103176D02*
X152415952Y-107293652D01*
X152415952Y-107293652D02*
X152415952Y-107626985D01*
X152415952Y-107626985D02*
X152368333Y-107817461D01*
X152368333Y-107817461D02*
X152273095Y-107912700D01*
X152273095Y-107912700D02*
X152177857Y-107960319D01*
X152177857Y-107960319D02*
X151987381Y-107960319D01*
X153368333Y-107960319D02*
X152796905Y-107960319D01*
X153082619Y-107960319D02*
X153082619Y-106960319D01*
X153082619Y-106960319D02*
X152987381Y-107103176D01*
X152987381Y-107103176D02*
X152892143Y-107198414D01*
X152892143Y-107198414D02*
X152796905Y-107246033D01*
X154320714Y-107960319D02*
X153749286Y-107960319D01*
X154035000Y-107960319D02*
X154035000Y-106960319D01*
X154035000Y-106960319D02*
X153939762Y-107103176D01*
X153939762Y-107103176D02*
X153844524Y-107198414D01*
X153844524Y-107198414D02*
X153749286Y-107246033D01*
X135107819Y-103902166D02*
X134631628Y-104235499D01*
X135107819Y-104473594D02*
X134107819Y-104473594D01*
X134107819Y-104473594D02*
X134107819Y-104092642D01*
X134107819Y-104092642D02*
X134155438Y-103997404D01*
X134155438Y-103997404D02*
X134203057Y-103949785D01*
X134203057Y-103949785D02*
X134298295Y-103902166D01*
X134298295Y-103902166D02*
X134441152Y-103902166D01*
X134441152Y-103902166D02*
X134536390Y-103949785D01*
X134536390Y-103949785D02*
X134584009Y-103997404D01*
X134584009Y-103997404D02*
X134631628Y-104092642D01*
X134631628Y-104092642D02*
X134631628Y-104473594D01*
X135107819Y-103425975D02*
X135107819Y-103235499D01*
X135107819Y-103235499D02*
X135060200Y-103140261D01*
X135060200Y-103140261D02*
X135012580Y-103092642D01*
X135012580Y-103092642D02*
X134869723Y-102997404D01*
X134869723Y-102997404D02*
X134679247Y-102949785D01*
X134679247Y-102949785D02*
X134298295Y-102949785D01*
X134298295Y-102949785D02*
X134203057Y-102997404D01*
X134203057Y-102997404D02*
X134155438Y-103045023D01*
X134155438Y-103045023D02*
X134107819Y-103140261D01*
X134107819Y-103140261D02*
X134107819Y-103330737D01*
X134107819Y-103330737D02*
X134155438Y-103425975D01*
X134155438Y-103425975D02*
X134203057Y-103473594D01*
X134203057Y-103473594D02*
X134298295Y-103521213D01*
X134298295Y-103521213D02*
X134536390Y-103521213D01*
X134536390Y-103521213D02*
X134631628Y-103473594D01*
X134631628Y-103473594D02*
X134679247Y-103425975D01*
X134679247Y-103425975D02*
X134726866Y-103330737D01*
X134726866Y-103330737D02*
X134726866Y-103140261D01*
X134726866Y-103140261D02*
X134679247Y-103045023D01*
X134679247Y-103045023D02*
X134631628Y-102997404D01*
X134631628Y-102997404D02*
X134536390Y-102949785D01*
X169745333Y-123486080D02*
X169697714Y-123533700D01*
X169697714Y-123533700D02*
X169554857Y-123581319D01*
X169554857Y-123581319D02*
X169459619Y-123581319D01*
X169459619Y-123581319D02*
X169316762Y-123533700D01*
X169316762Y-123533700D02*
X169221524Y-123438461D01*
X169221524Y-123438461D02*
X169173905Y-123343223D01*
X169173905Y-123343223D02*
X169126286Y-123152747D01*
X169126286Y-123152747D02*
X169126286Y-123009890D01*
X169126286Y-123009890D02*
X169173905Y-122819414D01*
X169173905Y-122819414D02*
X169221524Y-122724176D01*
X169221524Y-122724176D02*
X169316762Y-122628938D01*
X169316762Y-122628938D02*
X169459619Y-122581319D01*
X169459619Y-122581319D02*
X169554857Y-122581319D01*
X169554857Y-122581319D02*
X169697714Y-122628938D01*
X169697714Y-122628938D02*
X169745333Y-122676557D01*
X170697714Y-123581319D02*
X170126286Y-123581319D01*
X170412000Y-123581319D02*
X170412000Y-122581319D01*
X170412000Y-122581319D02*
X170316762Y-122724176D01*
X170316762Y-122724176D02*
X170221524Y-122819414D01*
X170221524Y-122819414D02*
X170126286Y-122867033D01*
X169068761Y-90384057D02*
X168973523Y-90336438D01*
X168973523Y-90336438D02*
X168878285Y-90241200D01*
X168878285Y-90241200D02*
X168735428Y-90098342D01*
X168735428Y-90098342D02*
X168640190Y-90050723D01*
X168640190Y-90050723D02*
X168544952Y-90050723D01*
X168592571Y-90288819D02*
X168497333Y-90241200D01*
X168497333Y-90241200D02*
X168402095Y-90145961D01*
X168402095Y-90145961D02*
X168354476Y-89955485D01*
X168354476Y-89955485D02*
X168354476Y-89622152D01*
X168354476Y-89622152D02*
X168402095Y-89431676D01*
X168402095Y-89431676D02*
X168497333Y-89336438D01*
X168497333Y-89336438D02*
X168592571Y-89288819D01*
X168592571Y-89288819D02*
X168783047Y-89288819D01*
X168783047Y-89288819D02*
X168878285Y-89336438D01*
X168878285Y-89336438D02*
X168973523Y-89431676D01*
X168973523Y-89431676D02*
X169021142Y-89622152D01*
X169021142Y-89622152D02*
X169021142Y-89955485D01*
X169021142Y-89955485D02*
X168973523Y-90145961D01*
X168973523Y-90145961D02*
X168878285Y-90241200D01*
X168878285Y-90241200D02*
X168783047Y-90288819D01*
X168783047Y-90288819D02*
X168592571Y-90288819D01*
X169878285Y-89288819D02*
X169687809Y-89288819D01*
X169687809Y-89288819D02*
X169592571Y-89336438D01*
X169592571Y-89336438D02*
X169544952Y-89384057D01*
X169544952Y-89384057D02*
X169449714Y-89526914D01*
X169449714Y-89526914D02*
X169402095Y-89717390D01*
X169402095Y-89717390D02*
X169402095Y-90098342D01*
X169402095Y-90098342D02*
X169449714Y-90193580D01*
X169449714Y-90193580D02*
X169497333Y-90241200D01*
X169497333Y-90241200D02*
X169592571Y-90288819D01*
X169592571Y-90288819D02*
X169783047Y-90288819D01*
X169783047Y-90288819D02*
X169878285Y-90241200D01*
X169878285Y-90241200D02*
X169925904Y-90193580D01*
X169925904Y-90193580D02*
X169973523Y-90098342D01*
X169973523Y-90098342D02*
X169973523Y-89860247D01*
X169973523Y-89860247D02*
X169925904Y-89765009D01*
X169925904Y-89765009D02*
X169878285Y-89717390D01*
X169878285Y-89717390D02*
X169783047Y-89669771D01*
X169783047Y-89669771D02*
X169592571Y-89669771D01*
X169592571Y-89669771D02*
X169497333Y-89717390D01*
X169497333Y-89717390D02*
X169449714Y-89765009D01*
X169449714Y-89765009D02*
X169402095Y-89860247D01*
X143668761Y-90511057D02*
X143573523Y-90463438D01*
X143573523Y-90463438D02*
X143478285Y-90368200D01*
X143478285Y-90368200D02*
X143335428Y-90225342D01*
X143335428Y-90225342D02*
X143240190Y-90177723D01*
X143240190Y-90177723D02*
X143144952Y-90177723D01*
X143192571Y-90415819D02*
X143097333Y-90368200D01*
X143097333Y-90368200D02*
X143002095Y-90272961D01*
X143002095Y-90272961D02*
X142954476Y-90082485D01*
X142954476Y-90082485D02*
X142954476Y-89749152D01*
X142954476Y-89749152D02*
X143002095Y-89558676D01*
X143002095Y-89558676D02*
X143097333Y-89463438D01*
X143097333Y-89463438D02*
X143192571Y-89415819D01*
X143192571Y-89415819D02*
X143383047Y-89415819D01*
X143383047Y-89415819D02*
X143478285Y-89463438D01*
X143478285Y-89463438D02*
X143573523Y-89558676D01*
X143573523Y-89558676D02*
X143621142Y-89749152D01*
X143621142Y-89749152D02*
X143621142Y-90082485D01*
X143621142Y-90082485D02*
X143573523Y-90272961D01*
X143573523Y-90272961D02*
X143478285Y-90368200D01*
X143478285Y-90368200D02*
X143383047Y-90415819D01*
X143383047Y-90415819D02*
X143192571Y-90415819D01*
X144478285Y-89749152D02*
X144478285Y-90415819D01*
X144240190Y-89368200D02*
X144002095Y-90082485D01*
X144002095Y-90082485D02*
X144621142Y-90082485D01*
X107219761Y-90529557D02*
X107124523Y-90481938D01*
X107124523Y-90481938D02*
X107029285Y-90386700D01*
X107029285Y-90386700D02*
X106886428Y-90243842D01*
X106886428Y-90243842D02*
X106791190Y-90196223D01*
X106791190Y-90196223D02*
X106695952Y-90196223D01*
X106743571Y-90434319D02*
X106648333Y-90386700D01*
X106648333Y-90386700D02*
X106553095Y-90291461D01*
X106553095Y-90291461D02*
X106505476Y-90100985D01*
X106505476Y-90100985D02*
X106505476Y-89767652D01*
X106505476Y-89767652D02*
X106553095Y-89577176D01*
X106553095Y-89577176D02*
X106648333Y-89481938D01*
X106648333Y-89481938D02*
X106743571Y-89434319D01*
X106743571Y-89434319D02*
X106934047Y-89434319D01*
X106934047Y-89434319D02*
X107029285Y-89481938D01*
X107029285Y-89481938D02*
X107124523Y-89577176D01*
X107124523Y-89577176D02*
X107172142Y-89767652D01*
X107172142Y-89767652D02*
X107172142Y-90100985D01*
X107172142Y-90100985D02*
X107124523Y-90291461D01*
X107124523Y-90291461D02*
X107029285Y-90386700D01*
X107029285Y-90386700D02*
X106934047Y-90434319D01*
X106934047Y-90434319D02*
X106743571Y-90434319D01*
X108124523Y-90434319D02*
X107553095Y-90434319D01*
X107838809Y-90434319D02*
X107838809Y-89434319D01*
X107838809Y-89434319D02*
X107743571Y-89577176D01*
X107743571Y-89577176D02*
X107648333Y-89672414D01*
X107648333Y-89672414D02*
X107553095Y-89720033D01*
X131984761Y-90529557D02*
X131889523Y-90481938D01*
X131889523Y-90481938D02*
X131794285Y-90386700D01*
X131794285Y-90386700D02*
X131651428Y-90243842D01*
X131651428Y-90243842D02*
X131556190Y-90196223D01*
X131556190Y-90196223D02*
X131460952Y-90196223D01*
X131508571Y-90434319D02*
X131413333Y-90386700D01*
X131413333Y-90386700D02*
X131318095Y-90291461D01*
X131318095Y-90291461D02*
X131270476Y-90100985D01*
X131270476Y-90100985D02*
X131270476Y-89767652D01*
X131270476Y-89767652D02*
X131318095Y-89577176D01*
X131318095Y-89577176D02*
X131413333Y-89481938D01*
X131413333Y-89481938D02*
X131508571Y-89434319D01*
X131508571Y-89434319D02*
X131699047Y-89434319D01*
X131699047Y-89434319D02*
X131794285Y-89481938D01*
X131794285Y-89481938D02*
X131889523Y-89577176D01*
X131889523Y-89577176D02*
X131937142Y-89767652D01*
X131937142Y-89767652D02*
X131937142Y-90100985D01*
X131937142Y-90100985D02*
X131889523Y-90291461D01*
X131889523Y-90291461D02*
X131794285Y-90386700D01*
X131794285Y-90386700D02*
X131699047Y-90434319D01*
X131699047Y-90434319D02*
X131508571Y-90434319D01*
X132270476Y-89434319D02*
X132889523Y-89434319D01*
X132889523Y-89434319D02*
X132556190Y-89815271D01*
X132556190Y-89815271D02*
X132699047Y-89815271D01*
X132699047Y-89815271D02*
X132794285Y-89862890D01*
X132794285Y-89862890D02*
X132841904Y-89910509D01*
X132841904Y-89910509D02*
X132889523Y-90005747D01*
X132889523Y-90005747D02*
X132889523Y-90243842D01*
X132889523Y-90243842D02*
X132841904Y-90339080D01*
X132841904Y-90339080D02*
X132794285Y-90386700D01*
X132794285Y-90386700D02*
X132699047Y-90434319D01*
X132699047Y-90434319D02*
X132413333Y-90434319D01*
X132413333Y-90434319D02*
X132318095Y-90386700D01*
X132318095Y-90386700D02*
X132270476Y-90339080D01*
X119157761Y-90402557D02*
X119062523Y-90354938D01*
X119062523Y-90354938D02*
X118967285Y-90259700D01*
X118967285Y-90259700D02*
X118824428Y-90116842D01*
X118824428Y-90116842D02*
X118729190Y-90069223D01*
X118729190Y-90069223D02*
X118633952Y-90069223D01*
X118681571Y-90307319D02*
X118586333Y-90259700D01*
X118586333Y-90259700D02*
X118491095Y-90164461D01*
X118491095Y-90164461D02*
X118443476Y-89973985D01*
X118443476Y-89973985D02*
X118443476Y-89640652D01*
X118443476Y-89640652D02*
X118491095Y-89450176D01*
X118491095Y-89450176D02*
X118586333Y-89354938D01*
X118586333Y-89354938D02*
X118681571Y-89307319D01*
X118681571Y-89307319D02*
X118872047Y-89307319D01*
X118872047Y-89307319D02*
X118967285Y-89354938D01*
X118967285Y-89354938D02*
X119062523Y-89450176D01*
X119062523Y-89450176D02*
X119110142Y-89640652D01*
X119110142Y-89640652D02*
X119110142Y-89973985D01*
X119110142Y-89973985D02*
X119062523Y-90164461D01*
X119062523Y-90164461D02*
X118967285Y-90259700D01*
X118967285Y-90259700D02*
X118872047Y-90307319D01*
X118872047Y-90307319D02*
X118681571Y-90307319D01*
X119491095Y-89402557D02*
X119538714Y-89354938D01*
X119538714Y-89354938D02*
X119633952Y-89307319D01*
X119633952Y-89307319D02*
X119872047Y-89307319D01*
X119872047Y-89307319D02*
X119967285Y-89354938D01*
X119967285Y-89354938D02*
X120014904Y-89402557D01*
X120014904Y-89402557D02*
X120062523Y-89497795D01*
X120062523Y-89497795D02*
X120062523Y-89593033D01*
X120062523Y-89593033D02*
X120014904Y-89735890D01*
X120014904Y-89735890D02*
X119443476Y-90307319D01*
X119443476Y-90307319D02*
X120062523Y-90307319D01*
X157257761Y-90275557D02*
X157162523Y-90227938D01*
X157162523Y-90227938D02*
X157067285Y-90132700D01*
X157067285Y-90132700D02*
X156924428Y-89989842D01*
X156924428Y-89989842D02*
X156829190Y-89942223D01*
X156829190Y-89942223D02*
X156733952Y-89942223D01*
X156781571Y-90180319D02*
X156686333Y-90132700D01*
X156686333Y-90132700D02*
X156591095Y-90037461D01*
X156591095Y-90037461D02*
X156543476Y-89846985D01*
X156543476Y-89846985D02*
X156543476Y-89513652D01*
X156543476Y-89513652D02*
X156591095Y-89323176D01*
X156591095Y-89323176D02*
X156686333Y-89227938D01*
X156686333Y-89227938D02*
X156781571Y-89180319D01*
X156781571Y-89180319D02*
X156972047Y-89180319D01*
X156972047Y-89180319D02*
X157067285Y-89227938D01*
X157067285Y-89227938D02*
X157162523Y-89323176D01*
X157162523Y-89323176D02*
X157210142Y-89513652D01*
X157210142Y-89513652D02*
X157210142Y-89846985D01*
X157210142Y-89846985D02*
X157162523Y-90037461D01*
X157162523Y-90037461D02*
X157067285Y-90132700D01*
X157067285Y-90132700D02*
X156972047Y-90180319D01*
X156972047Y-90180319D02*
X156781571Y-90180319D01*
X158114904Y-89180319D02*
X157638714Y-89180319D01*
X157638714Y-89180319D02*
X157591095Y-89656509D01*
X157591095Y-89656509D02*
X157638714Y-89608890D01*
X157638714Y-89608890D02*
X157733952Y-89561271D01*
X157733952Y-89561271D02*
X157972047Y-89561271D01*
X157972047Y-89561271D02*
X158067285Y-89608890D01*
X158067285Y-89608890D02*
X158114904Y-89656509D01*
X158114904Y-89656509D02*
X158162523Y-89751747D01*
X158162523Y-89751747D02*
X158162523Y-89989842D01*
X158162523Y-89989842D02*
X158114904Y-90085080D01*
X158114904Y-90085080D02*
X158067285Y-90132700D01*
X158067285Y-90132700D02*
X157972047Y-90180319D01*
X157972047Y-90180319D02*
X157733952Y-90180319D01*
X157733952Y-90180319D02*
X157638714Y-90132700D01*
X157638714Y-90132700D02*
X157591095Y-90085080D01*
D12*
%TO.C,HVDCBus1*%
X114587000Y-55288000D02*
X114587000Y-64108000D01*
X114587000Y-56098000D02*
X117127000Y-56098000D01*
X114587000Y-64108000D02*
X126967000Y-64108000D01*
X115497000Y-57098000D02*
X126057000Y-57098000D01*
X115497000Y-62398000D02*
X115497000Y-57098000D01*
X116237000Y-62398000D02*
X115497000Y-62398000D01*
X117237000Y-55288000D02*
X119237000Y-55288000D01*
X117237000Y-57098000D02*
X117237000Y-55288000D01*
X117937000Y-54488000D02*
X118537000Y-54488000D01*
X118237000Y-55088000D02*
X117937000Y-54488000D01*
X118537000Y-54488000D02*
X118237000Y-55088000D01*
X119237000Y-55288000D02*
X119237000Y-57098000D01*
X119237000Y-56098000D02*
X122317000Y-56098000D01*
X119237000Y-57098000D02*
X117237000Y-57098000D01*
X120237000Y-62398000D02*
X121317000Y-62398000D01*
X122317000Y-55288000D02*
X124317000Y-55288000D01*
X122317000Y-57098000D02*
X122317000Y-55288000D01*
X124317000Y-55288000D02*
X124317000Y-57098000D01*
X124317000Y-57098000D02*
X122317000Y-57098000D01*
X126057000Y-57098000D02*
X126057000Y-62398000D01*
X126057000Y-62398000D02*
X125317000Y-62398000D01*
X126967000Y-55288000D02*
X114587000Y-55288000D01*
X126967000Y-56098000D02*
X124427000Y-56098000D01*
X126967000Y-64108000D02*
X126967000Y-55288000D01*
X120223842Y-62413821D02*
G75*
G02*
X116237000Y-62398000I-1986842J1665821D01*
G01*
X125303842Y-62413821D02*
G75*
G02*
X121317000Y-62398000I-1986842J1665821D01*
G01*
%TO.C,R14*%
X140701500Y-92329724D02*
X140701500Y-91820276D01*
X141746500Y-92329724D02*
X141746500Y-91820276D01*
%TO.C,R20*%
X166101500Y-92329724D02*
X166101500Y-91820276D01*
X167146500Y-92329724D02*
X167146500Y-91820276D01*
%TO.C,C6*%
X110643000Y-103723000D02*
X111143000Y-103723000D01*
X110893000Y-103473000D02*
X110893000Y-103973000D01*
X111383000Y-104087437D02*
X111383000Y-104223000D01*
X111383000Y-104087437D02*
X112447437Y-103023000D01*
X111383000Y-106478563D02*
X111383000Y-106343000D01*
X111383000Y-106478563D02*
X112447437Y-107543000D01*
X112447437Y-103023000D02*
X115903000Y-103023000D01*
X112447437Y-107543000D02*
X115903000Y-107543000D01*
X115903000Y-103023000D02*
X115903000Y-104223000D01*
X115903000Y-107543000D02*
X115903000Y-106343000D01*
%TO.C,U6*%
X140222000Y-111658500D02*
X140512000Y-111658500D01*
X140222000Y-115078500D02*
X140222000Y-111658500D01*
X140222000Y-115078500D02*
X140222000Y-118498500D01*
X140222000Y-118498500D02*
X140512000Y-118498500D01*
X149592000Y-111658500D02*
X149302000Y-111658500D01*
X149592000Y-115078500D02*
X149592000Y-111658500D01*
X149592000Y-115078500D02*
X149592000Y-118498500D01*
X149592000Y-118498500D02*
X149302000Y-118498500D01*
X140512000Y-119583500D02*
X140042000Y-119923500D01*
X140042000Y-119243500D01*
X140512000Y-119583500D01*
G36*
X140512000Y-119583500D02*
G01*
X140042000Y-119923500D01*
X140042000Y-119243500D01*
X140512000Y-119583500D01*
G37*
%TO.C,R16*%
X170038500Y-102386224D02*
X170038500Y-101876776D01*
X171083500Y-102386224D02*
X171083500Y-101876776D01*
%TO.C,C9*%
X134999000Y-97162233D02*
X134999000Y-97454767D01*
X136019000Y-97162233D02*
X136019000Y-97454767D01*
%TO.C,D1*%
X139521000Y-126401500D02*
X141981000Y-126401500D01*
X141981000Y-124931500D02*
X139521000Y-124931500D01*
X141981000Y-126401500D02*
X141981000Y-124931500D01*
%TO.C,R19*%
X159878500Y-93496224D02*
X159878500Y-92986776D01*
X160923500Y-93496224D02*
X160923500Y-92986776D01*
%TO.C,U2*%
X103138000Y-111625500D02*
X103428000Y-111625500D01*
X103138000Y-115045500D02*
X103138000Y-111625500D01*
X103138000Y-115045500D02*
X103138000Y-118465500D01*
X103138000Y-118465500D02*
X103428000Y-118465500D01*
X112508000Y-111625500D02*
X112218000Y-111625500D01*
X112508000Y-115045500D02*
X112508000Y-111625500D01*
X112508000Y-115045500D02*
X112508000Y-118465500D01*
X112508000Y-118465500D02*
X112218000Y-118465500D01*
X103428000Y-119550500D02*
X102958000Y-119890500D01*
X102958000Y-119210500D01*
X103428000Y-119550500D01*
G36*
X103428000Y-119550500D02*
G01*
X102958000Y-119890500D01*
X102958000Y-119210500D01*
X103428000Y-119550500D01*
G37*
%TO.C,U3*%
X115076000Y-111625500D02*
X115366000Y-111625500D01*
X115076000Y-115045500D02*
X115076000Y-111625500D01*
X115076000Y-115045500D02*
X115076000Y-118465500D01*
X115076000Y-118465500D02*
X115366000Y-118465500D01*
X124446000Y-111625500D02*
X124156000Y-111625500D01*
X124446000Y-115045500D02*
X124446000Y-111625500D01*
X124446000Y-115045500D02*
X124446000Y-118465500D01*
X124446000Y-118465500D02*
X124156000Y-118465500D01*
X115366000Y-119550500D02*
X114896000Y-119890500D01*
X114896000Y-119210500D01*
X115366000Y-119550500D01*
G36*
X115366000Y-119550500D02*
G01*
X114896000Y-119890500D01*
X114896000Y-119210500D01*
X115366000Y-119550500D01*
G37*
%TO.C,R18*%
X168387500Y-102386224D02*
X168387500Y-101876776D01*
X169432500Y-102386224D02*
X169432500Y-101876776D01*
%TO.C,U10*%
X161905000Y-98868000D02*
X161905000Y-96918000D01*
X161905000Y-98868000D02*
X161905000Y-100818000D01*
X167025000Y-98868000D02*
X167025000Y-96918000D01*
X167025000Y-98868000D02*
X167025000Y-100818000D01*
X162000000Y-101568000D02*
X161670000Y-101808000D01*
X161670000Y-101328000D01*
X162000000Y-101568000D01*
G36*
X162000000Y-101568000D02*
G01*
X161670000Y-101808000D01*
X161670000Y-101328000D01*
X162000000Y-101568000D01*
G37*
%TO.C,U8*%
X152160000Y-111705500D02*
X152450000Y-111705500D01*
X152160000Y-115125500D02*
X152160000Y-111705500D01*
X152160000Y-115125500D02*
X152160000Y-118545500D01*
X152160000Y-118545500D02*
X152450000Y-118545500D01*
X161530000Y-111705500D02*
X161240000Y-111705500D01*
X161530000Y-115125500D02*
X161530000Y-111705500D01*
X161530000Y-115125500D02*
X161530000Y-118545500D01*
X161530000Y-118545500D02*
X161240000Y-118545500D01*
X152450000Y-119630500D02*
X151980000Y-119970500D01*
X151980000Y-119290500D01*
X152450000Y-119630500D01*
G36*
X152450000Y-119630500D02*
G01*
X151980000Y-119970500D01*
X151980000Y-119290500D01*
X152450000Y-119630500D01*
G37*
%TO.C,Q7*%
X103469000Y-105869500D02*
X103469000Y-105219500D01*
X103469000Y-105869500D02*
X103469000Y-106519500D01*
X106589000Y-105869500D02*
X106589000Y-105219500D01*
X106589000Y-105869500D02*
X106589000Y-106519500D01*
X106869000Y-104947000D02*
X106539000Y-104707000D01*
X106869000Y-104467000D01*
X106869000Y-104947000D01*
G36*
X106869000Y-104947000D02*
G01*
X106539000Y-104707000D01*
X106869000Y-104467000D01*
X106869000Y-104947000D01*
G37*
%TO.C,C7*%
X109726000Y-97162233D02*
X109726000Y-97454767D01*
X110746000Y-97162233D02*
X110746000Y-97454767D01*
%TO.C,R8*%
X116190500Y-92710724D02*
X116190500Y-92201276D01*
X117235500Y-92710724D02*
X117235500Y-92201276D01*
%TO.C,R15*%
X157592500Y-103480776D02*
X157592500Y-103990224D01*
X158637500Y-103480776D02*
X158637500Y-103990224D01*
%TO.C,R12*%
X143495500Y-102386224D02*
X143495500Y-101876776D01*
X144540500Y-102386224D02*
X144540500Y-101876776D01*
%TO.C,C10*%
X160808000Y-103723000D02*
X161308000Y-103723000D01*
X161058000Y-103473000D02*
X161058000Y-103973000D01*
X161548000Y-104087437D02*
X161548000Y-104223000D01*
X161548000Y-104087437D02*
X162612437Y-103023000D01*
X161548000Y-106478563D02*
X161548000Y-106343000D01*
X161548000Y-106478563D02*
X162612437Y-107543000D01*
X162612437Y-103023000D02*
X166068000Y-103023000D01*
X162612437Y-107543000D02*
X166068000Y-107543000D01*
X166068000Y-103023000D02*
X166068000Y-104223000D01*
X166068000Y-107543000D02*
X166068000Y-106343000D01*
%TO.C,U9*%
X164352000Y-111705500D02*
X164642000Y-111705500D01*
X164352000Y-115125500D02*
X164352000Y-111705500D01*
X164352000Y-115125500D02*
X164352000Y-118545500D01*
X164352000Y-118545500D02*
X164642000Y-118545500D01*
X173722000Y-111705500D02*
X173432000Y-111705500D01*
X173722000Y-115125500D02*
X173722000Y-111705500D01*
X173722000Y-115125500D02*
X173722000Y-118545500D01*
X173722000Y-118545500D02*
X173432000Y-118545500D01*
X164642000Y-119630500D02*
X164172000Y-119970500D01*
X164172000Y-119290500D01*
X164642000Y-119630500D01*
G36*
X164642000Y-119630500D02*
G01*
X164172000Y-119970500D01*
X164172000Y-119290500D01*
X164642000Y-119630500D01*
G37*
%TO.C,R6*%
X118222500Y-102386224D02*
X118222500Y-101876776D01*
X119267500Y-102386224D02*
X119267500Y-101876776D01*
%TO.C,12V_Inv1*%
X173104000Y-123411137D02*
X173104000Y-129431137D01*
X173104000Y-129431137D02*
X178404000Y-129431137D01*
X173684000Y-128831137D02*
X173684000Y-129431137D01*
X174484000Y-124411137D02*
X174484000Y-123411137D01*
X174734000Y-123411137D02*
X174734000Y-124411137D01*
X174734000Y-124941137D02*
X174484000Y-124411137D01*
X175284000Y-128831137D02*
X173684000Y-128831137D01*
X175284000Y-129431137D02*
X175284000Y-128831137D01*
X176224000Y-128831137D02*
X176224000Y-129431137D01*
X176774000Y-123411137D02*
X176774000Y-124411137D01*
X176774000Y-124941137D02*
X174734000Y-124941137D01*
X177024000Y-123411137D02*
X177024000Y-124411137D01*
X177024000Y-124411137D02*
X174484000Y-124411137D01*
X177024000Y-124411137D02*
X176774000Y-124941137D01*
X177824000Y-128831137D02*
X176224000Y-128831137D01*
X177824000Y-129431137D02*
X177824000Y-128831137D01*
X178404000Y-123411137D02*
X173104000Y-123411137D01*
X178404000Y-129431137D02*
X178404000Y-123411137D01*
X178694000Y-128401137D02*
X178694000Y-124401137D01*
%TO.C,R4*%
X119873500Y-102386224D02*
X119873500Y-101876776D01*
X120918500Y-102386224D02*
X120918500Y-101876776D01*
%TO.C,Q12*%
X170942000Y-95722000D02*
X170292000Y-95722000D01*
X170942000Y-95722000D02*
X171592000Y-95722000D01*
X170942000Y-98842000D02*
X170292000Y-98842000D01*
X170942000Y-98842000D02*
X171592000Y-98842000D01*
X172344500Y-99122000D02*
X171864500Y-99122000D01*
X172104500Y-98792000D01*
X172344500Y-99122000D01*
G36*
X172344500Y-99122000D02*
G01*
X171864500Y-99122000D01*
X172104500Y-98792000D01*
X172344500Y-99122000D01*
G37*
%TO.C,U5*%
X127776000Y-111658500D02*
X128066000Y-111658500D01*
X127776000Y-115078500D02*
X127776000Y-111658500D01*
X127776000Y-115078500D02*
X127776000Y-118498500D01*
X127776000Y-118498500D02*
X128066000Y-118498500D01*
X137146000Y-111658500D02*
X136856000Y-111658500D01*
X137146000Y-115078500D02*
X137146000Y-111658500D01*
X137146000Y-115078500D02*
X137146000Y-118498500D01*
X137146000Y-118498500D02*
X136856000Y-118498500D01*
X128066000Y-119583500D02*
X127596000Y-119923500D01*
X127596000Y-119243500D01*
X128066000Y-119583500D01*
G36*
X128066000Y-119583500D02*
G01*
X127596000Y-119923500D01*
X127596000Y-119243500D01*
X128066000Y-119583500D01*
G37*
%TO.C,R11*%
X130533224Y-101585500D02*
X130023776Y-101585500D01*
X130533224Y-102630500D02*
X130023776Y-102630500D01*
%TO.C,C2*%
X132346000Y-124268137D02*
X132346000Y-125468137D01*
X132346000Y-128788137D02*
X132346000Y-127588137D01*
X135801563Y-124268137D02*
X132346000Y-124268137D01*
X135801563Y-128788137D02*
X132346000Y-128788137D01*
X136866000Y-125332574D02*
X135801563Y-124268137D01*
X136866000Y-125332574D02*
X136866000Y-125468137D01*
X136866000Y-127723700D02*
X135801563Y-128788137D01*
X136866000Y-127723700D02*
X136866000Y-127588137D01*
X137356000Y-128338137D02*
X137356000Y-127838137D01*
X137606000Y-128088137D02*
X137106000Y-128088137D01*
%TO.C,Inv_Signal1*%
X101095000Y-123946500D02*
X101095000Y-129966500D01*
X101095000Y-129966500D02*
X111475000Y-129966500D01*
X101675000Y-129366500D02*
X101675000Y-129966500D01*
X102475000Y-124946500D02*
X102475000Y-123946500D01*
X102725000Y-123946500D02*
X102725000Y-124946500D01*
X102725000Y-125476500D02*
X102475000Y-124946500D01*
X103275000Y-129366500D02*
X101675000Y-129366500D01*
X103275000Y-129966500D02*
X103275000Y-129366500D01*
X104215000Y-129366500D02*
X104215000Y-129966500D01*
X105815000Y-129366500D02*
X104215000Y-129366500D01*
X105815000Y-129966500D02*
X105815000Y-129366500D01*
X106755000Y-129366500D02*
X106755000Y-129966500D01*
X108355000Y-129366500D02*
X106755000Y-129366500D01*
X108355000Y-129966500D02*
X108355000Y-129366500D01*
X109295000Y-129366500D02*
X109295000Y-129966500D01*
X109845000Y-123946500D02*
X109845000Y-124946500D01*
X109845000Y-125476500D02*
X102725000Y-125476500D01*
X110095000Y-123946500D02*
X110095000Y-124946500D01*
X110095000Y-124946500D02*
X102475000Y-124946500D01*
X110095000Y-124946500D02*
X109845000Y-125476500D01*
X110895000Y-129366500D02*
X109295000Y-129366500D01*
X110895000Y-129966500D02*
X110895000Y-129366500D01*
X111475000Y-123946500D02*
X101095000Y-123946500D01*
X111475000Y-129966500D02*
X111475000Y-123946500D01*
X111765000Y-128936500D02*
X111765000Y-124936500D01*
%TO.C,R10*%
X145146500Y-102386224D02*
X145146500Y-101876776D01*
X146191500Y-102386224D02*
X146191500Y-101876776D01*
%TO.C,R5*%
X105260224Y-101585500D02*
X104750776Y-101585500D01*
X105260224Y-102630500D02*
X104750776Y-102630500D01*
%TO.C,C11*%
X159891000Y-97162233D02*
X159891000Y-97454767D01*
X160911000Y-97162233D02*
X160911000Y-97454767D01*
%TO.C,Motor_Out1*%
X144924000Y-56680000D02*
X144924000Y-64150000D01*
X144924000Y-64150000D02*
X160384000Y-64150000D01*
X146074000Y-57540000D02*
X146824000Y-57540000D01*
X146074000Y-61840000D02*
X146074000Y-57540000D01*
X146074000Y-63190000D02*
X146324000Y-62190000D01*
X146324000Y-62190000D02*
X146824000Y-62190000D01*
X146824000Y-61840000D02*
X146074000Y-61840000D01*
X146824000Y-62190000D02*
X146824000Y-61840000D01*
X148324000Y-57540000D02*
X149074000Y-57540000D01*
X148324000Y-61840000D02*
X148324000Y-62190000D01*
X148324000Y-62190000D02*
X148824000Y-62190000D01*
X148824000Y-62190000D02*
X149074000Y-63190000D01*
X149074000Y-57540000D02*
X149074000Y-61840000D01*
X149074000Y-61840000D02*
X148324000Y-61840000D01*
X149074000Y-63190000D02*
X146074000Y-63190000D01*
X151154000Y-57540000D02*
X151904000Y-57540000D01*
X151154000Y-61840000D02*
X151154000Y-57540000D01*
X151154000Y-63190000D02*
X151404000Y-62190000D01*
X151404000Y-62190000D02*
X151904000Y-62190000D01*
X151904000Y-61840000D02*
X151154000Y-61840000D01*
X151904000Y-62190000D02*
X151904000Y-61840000D01*
X153404000Y-57540000D02*
X154154000Y-57540000D01*
X153404000Y-61840000D02*
X153404000Y-62190000D01*
X153404000Y-62190000D02*
X153904000Y-62190000D01*
X153904000Y-62190000D02*
X154154000Y-63190000D01*
X154154000Y-57540000D02*
X154154000Y-61840000D01*
X154154000Y-61840000D02*
X153404000Y-61840000D01*
X154154000Y-63190000D02*
X151154000Y-63190000D01*
X156234000Y-57540000D02*
X156984000Y-57540000D01*
X156234000Y-61840000D02*
X156234000Y-57540000D01*
X156234000Y-63190000D02*
X156484000Y-62190000D01*
X156484000Y-62190000D02*
X156984000Y-62190000D01*
X156984000Y-61840000D02*
X156234000Y-61840000D01*
X156984000Y-62190000D02*
X156984000Y-61840000D01*
X158484000Y-57540000D02*
X159234000Y-57540000D01*
X158484000Y-61840000D02*
X158484000Y-62190000D01*
X158484000Y-62190000D02*
X158984000Y-62190000D01*
X158984000Y-62190000D02*
X159234000Y-63190000D01*
X159234000Y-57540000D02*
X159234000Y-61840000D01*
X159234000Y-61840000D02*
X158484000Y-61840000D01*
X159234000Y-63190000D02*
X156234000Y-63190000D01*
X160384000Y-56680000D02*
X144924000Y-56680000D01*
X160384000Y-64150000D02*
X160384000Y-56680000D01*
X160774000Y-63290000D02*
X160774000Y-64540000D01*
X160774000Y-64540000D02*
X158774000Y-64540000D01*
X148324000Y-57540000D02*
G75*
G02*
X146824353Y-57540156I-750000J1700000D01*
G01*
X153404000Y-57540000D02*
G75*
G02*
X151904353Y-57540156I-750000J1700000D01*
G01*
X158484000Y-57540000D02*
G75*
G02*
X156984353Y-57540156I-750000J1700000D01*
G01*
%TO.C,U1*%
X144274000Y-123044500D02*
X161488000Y-123044500D01*
X144274000Y-129364500D02*
X144274000Y-123044500D01*
X162080000Y-123044500D02*
X163994000Y-123044500D01*
X163994000Y-123044500D02*
X163994000Y-129364500D01*
X163994000Y-129364500D02*
X144274000Y-129364500D01*
X161784000Y-123044500D02*
X161444000Y-122574500D01*
X162124000Y-122574500D01*
X161784000Y-123044500D01*
G36*
X161784000Y-123044500D02*
G01*
X161444000Y-122574500D01*
X162124000Y-122574500D01*
X161784000Y-123044500D01*
G37*
%TO.C,C8*%
X135916000Y-103723000D02*
X136416000Y-103723000D01*
X136166000Y-103473000D02*
X136166000Y-103973000D01*
X136656000Y-104087437D02*
X136656000Y-104223000D01*
X136656000Y-104087437D02*
X137720437Y-103023000D01*
X136656000Y-106478563D02*
X136656000Y-106343000D01*
X136656000Y-106478563D02*
X137720437Y-107543000D01*
X137720437Y-103023000D02*
X141176000Y-103023000D01*
X137720437Y-107543000D02*
X141176000Y-107543000D01*
X141176000Y-103023000D02*
X141176000Y-104223000D01*
X141176000Y-107543000D02*
X141176000Y-106343000D01*
%TO.C,R13*%
X134986500Y-93496224D02*
X134986500Y-92986776D01*
X136031500Y-93496224D02*
X136031500Y-92986776D01*
%TO.C,U4*%
X111740000Y-98868000D02*
X111740000Y-96918000D01*
X111740000Y-98868000D02*
X111740000Y-100818000D01*
X116860000Y-98868000D02*
X116860000Y-96918000D01*
X116860000Y-98868000D02*
X116860000Y-100818000D01*
X111835000Y-101568000D02*
X111505000Y-101808000D01*
X111505000Y-101328000D01*
X111835000Y-101568000D01*
G36*
X111835000Y-101568000D02*
G01*
X111505000Y-101808000D01*
X111505000Y-101328000D01*
X111835000Y-101568000D01*
G37*
%TO.C,Q8*%
X120777000Y-95722000D02*
X120127000Y-95722000D01*
X120777000Y-95722000D02*
X121427000Y-95722000D01*
X120777000Y-98842000D02*
X120127000Y-98842000D01*
X120777000Y-98842000D02*
X121427000Y-98842000D01*
X122179500Y-99122000D02*
X121699500Y-99122000D01*
X121939500Y-98792000D01*
X122179500Y-99122000D01*
G36*
X122179500Y-99122000D02*
G01*
X121699500Y-99122000D01*
X121939500Y-98792000D01*
X122179500Y-99122000D01*
G37*
%TO.C,R3*%
X107427500Y-103480776D02*
X107427500Y-103990224D01*
X108472500Y-103480776D02*
X108472500Y-103990224D01*
%TO.C,D9*%
X155737000Y-96806000D02*
X155737000Y-94846000D01*
X156937000Y-94846000D02*
X155737000Y-94846000D01*
X156937000Y-96806000D02*
X156937000Y-94846000D01*
%TO.C,U7*%
X137013000Y-98868000D02*
X137013000Y-96918000D01*
X137013000Y-98868000D02*
X137013000Y-100818000D01*
X142133000Y-98868000D02*
X142133000Y-96918000D01*
X142133000Y-98868000D02*
X142133000Y-100818000D01*
X137108000Y-101568000D02*
X136778000Y-101808000D01*
X136778000Y-101328000D01*
X137108000Y-101568000D01*
G36*
X137108000Y-101568000D02*
G01*
X136778000Y-101808000D01*
X136778000Y-101328000D01*
X137108000Y-101568000D01*
G37*
%TO.C,D7*%
X105572000Y-96806000D02*
X105572000Y-94846000D01*
X106772000Y-94846000D02*
X105572000Y-94846000D01*
X106772000Y-96806000D02*
X106772000Y-94846000D01*
%TO.C,R17*%
X155425224Y-101585500D02*
X154915776Y-101585500D01*
X155425224Y-102630500D02*
X154915776Y-102630500D01*
%TO.C,R1*%
X140575724Y-127049000D02*
X140066276Y-127049000D01*
X140575724Y-128094000D02*
X140066276Y-128094000D01*
%TO.C,Q10*%
X146050000Y-95722000D02*
X145400000Y-95722000D01*
X146050000Y-95722000D02*
X146700000Y-95722000D01*
X146050000Y-98842000D02*
X145400000Y-98842000D01*
X146050000Y-98842000D02*
X146700000Y-98842000D01*
X147452500Y-99122000D02*
X146972500Y-99122000D01*
X147212500Y-98792000D01*
X147452500Y-99122000D01*
G36*
X147452500Y-99122000D02*
G01*
X146972500Y-99122000D01*
X147212500Y-98792000D01*
X147452500Y-99122000D01*
G37*
%TO.C,Q9*%
X128742000Y-105869500D02*
X128742000Y-105219500D01*
X128742000Y-105869500D02*
X128742000Y-106519500D01*
X131862000Y-105869500D02*
X131862000Y-105219500D01*
X131862000Y-105869500D02*
X131862000Y-106519500D01*
X132142000Y-104947000D02*
X131812000Y-104707000D01*
X132142000Y-104467000D01*
X132142000Y-104947000D01*
G36*
X132142000Y-104947000D02*
G01*
X131812000Y-104707000D01*
X132142000Y-104467000D01*
X132142000Y-104947000D01*
G37*
%TO.C,D8*%
X130845000Y-96806000D02*
X130845000Y-94846000D01*
X132045000Y-94846000D02*
X130845000Y-94846000D01*
X132045000Y-96806000D02*
X132045000Y-94846000D01*
%TO.C,R7*%
X109713500Y-93496224D02*
X109713500Y-92986776D01*
X110758500Y-93496224D02*
X110758500Y-92986776D01*
%TO.C,Inv_Signal2*%
X117605000Y-123946500D02*
X117605000Y-129966500D01*
X117605000Y-129966500D02*
X127985000Y-129966500D01*
X118185000Y-129366500D02*
X118185000Y-129966500D01*
X118985000Y-124946500D02*
X118985000Y-123946500D01*
X119235000Y-123946500D02*
X119235000Y-124946500D01*
X119235000Y-125476500D02*
X118985000Y-124946500D01*
X119785000Y-129366500D02*
X118185000Y-129366500D01*
X119785000Y-129966500D02*
X119785000Y-129366500D01*
X120725000Y-129366500D02*
X120725000Y-129966500D01*
X122325000Y-129366500D02*
X120725000Y-129366500D01*
X122325000Y-129966500D02*
X122325000Y-129366500D01*
X123265000Y-129366500D02*
X123265000Y-129966500D01*
X124865000Y-129366500D02*
X123265000Y-129366500D01*
X124865000Y-129966500D02*
X124865000Y-129366500D01*
X125805000Y-129366500D02*
X125805000Y-129966500D01*
X126355000Y-123946500D02*
X126355000Y-124946500D01*
X126355000Y-125476500D02*
X119235000Y-125476500D01*
X126605000Y-123946500D02*
X126605000Y-124946500D01*
X126605000Y-124946500D02*
X118985000Y-124946500D01*
X126605000Y-124946500D02*
X126355000Y-125476500D01*
X127405000Y-129366500D02*
X125805000Y-129366500D01*
X127405000Y-129966500D02*
X127405000Y-129366500D01*
X127985000Y-123946500D02*
X117605000Y-123946500D01*
X127985000Y-129966500D02*
X127985000Y-123946500D01*
X128275000Y-128936500D02*
X128275000Y-124936500D01*
%TO.C,Q11*%
X153634000Y-105869500D02*
X153634000Y-105219500D01*
X153634000Y-105869500D02*
X153634000Y-106519500D01*
X156754000Y-105869500D02*
X156754000Y-105219500D01*
X156754000Y-105869500D02*
X156754000Y-106519500D01*
X157034000Y-104947000D02*
X156704000Y-104707000D01*
X157034000Y-104467000D01*
X157034000Y-104947000D01*
G36*
X157034000Y-104947000D02*
G01*
X156704000Y-104707000D01*
X157034000Y-104467000D01*
X157034000Y-104947000D01*
G37*
%TO.C,R9*%
X132700500Y-103480776D02*
X132700500Y-103990224D01*
X133745500Y-103480776D02*
X133745500Y-103990224D01*
%TO.C,C1*%
X165747000Y-124295500D02*
X166947000Y-124295500D01*
X165747000Y-127751063D02*
X165747000Y-124295500D01*
X166197000Y-129305500D02*
X166697000Y-129305500D01*
X166447000Y-129555500D02*
X166447000Y-129055500D01*
X166811437Y-128815500D02*
X165747000Y-127751063D01*
X166811437Y-128815500D02*
X166947000Y-128815500D01*
X169202563Y-128815500D02*
X169067000Y-128815500D01*
X169202563Y-128815500D02*
X170267000Y-127751063D01*
X170267000Y-124295500D02*
X169067000Y-124295500D01*
X170267000Y-127751063D02*
X170267000Y-124295500D01*
%TD*%
M02*
