%TF.GenerationSoftware,KiCad,Pcbnew,9.0.3*%
%TF.CreationDate,2025-08-21T00:35:24-03:00*%
%TF.ProjectId,PCB_Inversor,5043425f-496e-4766-9572-736f722e6b69,rev?*%
%TF.SameCoordinates,Original*%
%TF.FileFunction,Paste,Top*%
%TF.FilePolarity,Positive*%
%FSLAX46Y46*%
G04 Gerber Fmt 4.6, Leading zero omitted, Abs format (unit mm)*
G04 Created by KiCad (PCBNEW 9.0.3) date 2025-08-21 00:35:24*
%MOMM*%
%LPD*%
G01*
G04 APERTURE LIST*
G04 Aperture macros list*
%AMRoundRect*
0 Rectangle with rounded corners*
0 $1 Rounding radius*
0 $2 $3 $4 $5 $6 $7 $8 $9 X,Y pos of 4 corners*
0 Add a 4 corners polygon primitive as box body*
4,1,4,$2,$3,$4,$5,$6,$7,$8,$9,$2,$3,0*
0 Add four circle primitives for the rounded corners*
1,1,$1+$1,$2,$3*
1,1,$1+$1,$4,$5*
1,1,$1+$1,$6,$7*
1,1,$1+$1,$8,$9*
0 Add four rect primitives between the rounded corners*
20,1,$1+$1,$2,$3,$4,$5,0*
20,1,$1+$1,$4,$5,$6,$7,0*
20,1,$1+$1,$6,$7,$8,$9,0*
20,1,$1+$1,$8,$9,$2,$3,0*%
G04 Aperture macros list end*
%ADD10RoundRect,0.237500X0.237500X-0.250000X0.237500X0.250000X-0.237500X0.250000X-0.237500X-0.250000X0*%
%ADD11RoundRect,0.250000X-1.050000X-0.550000X1.050000X-0.550000X1.050000X0.550000X-1.050000X0.550000X0*%
%ADD12RoundRect,0.162500X0.162500X-1.012500X0.162500X1.012500X-0.162500X1.012500X-0.162500X-1.012500X0*%
%ADD13RoundRect,0.237500X-0.237500X0.300000X-0.237500X-0.300000X0.237500X-0.300000X0.237500X0.300000X0*%
%ADD14RoundRect,0.237500X0.287500X0.237500X-0.287500X0.237500X-0.287500X-0.237500X0.287500X-0.237500X0*%
%ADD15RoundRect,0.150000X0.150000X-0.825000X0.150000X0.825000X-0.150000X0.825000X-0.150000X-0.825000X0*%
%ADD16RoundRect,0.150000X-0.150000X0.587500X-0.150000X-0.587500X0.150000X-0.587500X0.150000X0.587500X0*%
%ADD17RoundRect,0.237500X-0.237500X0.250000X-0.237500X-0.250000X0.237500X-0.250000X0.237500X0.250000X0*%
%ADD18RoundRect,0.150000X0.587500X0.150000X-0.587500X0.150000X-0.587500X-0.150000X0.587500X-0.150000X0*%
%ADD19RoundRect,0.237500X0.250000X0.237500X-0.250000X0.237500X-0.250000X-0.237500X0.250000X-0.237500X0*%
%ADD20RoundRect,0.250000X1.050000X0.550000X-1.050000X0.550000X-1.050000X-0.550000X1.050000X-0.550000X0*%
%ADD21RoundRect,0.150000X0.200000X-0.150000X0.200000X0.150000X-0.200000X0.150000X-0.200000X-0.150000X0*%
%ADD22RoundRect,0.250000X0.550000X-1.050000X0.550000X1.050000X-0.550000X1.050000X-0.550000X-1.050000X0*%
G04 APERTURE END LIST*
D10*
%TO.C,R14*%
X141224000Y-92987500D03*
X141224000Y-91162500D03*
%TD*%
%TO.C,R20*%
X166624000Y-92987500D03*
X166624000Y-91162500D03*
%TD*%
D11*
%TO.C,C6*%
X111843000Y-105283000D03*
X115443000Y-105283000D03*
%TD*%
D12*
%TO.C,U6*%
X141097000Y-119603500D03*
X143637000Y-119603500D03*
X146177000Y-119603500D03*
X148717000Y-119603500D03*
X148717000Y-110553500D03*
X146177000Y-110553500D03*
X143637000Y-110553500D03*
X141097000Y-110553500D03*
%TD*%
D10*
%TO.C,R16*%
X170561000Y-103044000D03*
X170561000Y-101219000D03*
%TD*%
D13*
%TO.C,C9*%
X135509000Y-96446000D03*
X135509000Y-98171000D03*
%TD*%
D14*
%TO.C,D1*%
X141196000Y-125666500D03*
X139446000Y-125666500D03*
%TD*%
D10*
%TO.C,R19*%
X160401000Y-94154000D03*
X160401000Y-92329000D03*
%TD*%
D12*
%TO.C,U2*%
X104013000Y-119570500D03*
X106553000Y-119570500D03*
X109093000Y-119570500D03*
X111633000Y-119570500D03*
X111633000Y-110520500D03*
X109093000Y-110520500D03*
X106553000Y-110520500D03*
X104013000Y-110520500D03*
%TD*%
%TO.C,U3*%
X115951000Y-119570500D03*
X118491000Y-119570500D03*
X121031000Y-119570500D03*
X123571000Y-119570500D03*
X123571000Y-110520500D03*
X121031000Y-110520500D03*
X118491000Y-110520500D03*
X115951000Y-110520500D03*
%TD*%
D10*
%TO.C,R18*%
X168910000Y-103044000D03*
X168910000Y-101219000D03*
%TD*%
D15*
%TO.C,U10*%
X162560000Y-101343000D03*
X163830000Y-101343000D03*
X165100000Y-101343000D03*
X166370000Y-101343000D03*
X166370000Y-96393000D03*
X165100000Y-96393000D03*
X163830000Y-96393000D03*
X162560000Y-96393000D03*
%TD*%
D12*
%TO.C,U8*%
X153035000Y-119650500D03*
X155575000Y-119650500D03*
X158115000Y-119650500D03*
X160655000Y-119650500D03*
X160655000Y-110600500D03*
X158115000Y-110600500D03*
X155575000Y-110600500D03*
X153035000Y-110600500D03*
%TD*%
D16*
%TO.C,Q7*%
X105979000Y-104932000D03*
X104079000Y-104932000D03*
X105029000Y-106807000D03*
%TD*%
D13*
%TO.C,C7*%
X110236000Y-96446000D03*
X110236000Y-98171000D03*
%TD*%
D10*
%TO.C,R8*%
X116713000Y-93368500D03*
X116713000Y-91543500D03*
%TD*%
D17*
%TO.C,R15*%
X158115000Y-102823000D03*
X158115000Y-104648000D03*
%TD*%
D10*
%TO.C,R12*%
X144018000Y-103044000D03*
X144018000Y-101219000D03*
%TD*%
D11*
%TO.C,C10*%
X162008000Y-105283000D03*
X165608000Y-105283000D03*
%TD*%
D12*
%TO.C,U9*%
X165227000Y-119650500D03*
X167767000Y-119650500D03*
X170307000Y-119650500D03*
X172847000Y-119650500D03*
X172847000Y-110600500D03*
X170307000Y-110600500D03*
X167767000Y-110600500D03*
X165227000Y-110600500D03*
%TD*%
D10*
%TO.C,R6*%
X118745000Y-103044000D03*
X118745000Y-101219000D03*
%TD*%
%TO.C,R4*%
X120396000Y-103044000D03*
X120396000Y-101219000D03*
%TD*%
D18*
%TO.C,Q12*%
X171879500Y-98232000D03*
X171879500Y-96332000D03*
X170004500Y-97282000D03*
%TD*%
D12*
%TO.C,U5*%
X128651000Y-119603500D03*
X131191000Y-119603500D03*
X133731000Y-119603500D03*
X136271000Y-119603500D03*
X136271000Y-110553500D03*
X133731000Y-110553500D03*
X131191000Y-110553500D03*
X128651000Y-110553500D03*
%TD*%
D19*
%TO.C,R11*%
X131191000Y-102108000D03*
X129366000Y-102108000D03*
%TD*%
D20*
%TO.C,C2*%
X136406000Y-126528137D03*
X132806000Y-126528137D03*
%TD*%
D10*
%TO.C,R10*%
X145669000Y-103044000D03*
X145669000Y-101219000D03*
%TD*%
D19*
%TO.C,R5*%
X105918000Y-102108000D03*
X104093000Y-102108000D03*
%TD*%
D13*
%TO.C,C11*%
X160401000Y-96446000D03*
X160401000Y-98171000D03*
%TD*%
D11*
%TO.C,C8*%
X137116000Y-105283000D03*
X140716000Y-105283000D03*
%TD*%
D10*
%TO.C,R13*%
X135509000Y-94154000D03*
X135509000Y-92329000D03*
%TD*%
D15*
%TO.C,U4*%
X112395000Y-101343000D03*
X113665000Y-101343000D03*
X114935000Y-101343000D03*
X116205000Y-101343000D03*
X116205000Y-96393000D03*
X114935000Y-96393000D03*
X113665000Y-96393000D03*
X112395000Y-96393000D03*
%TD*%
D18*
%TO.C,Q8*%
X121714500Y-98232000D03*
X121714500Y-96332000D03*
X119839500Y-97282000D03*
%TD*%
D17*
%TO.C,R3*%
X107950000Y-102823000D03*
X107950000Y-104648000D03*
%TD*%
D21*
%TO.C,D9*%
X156337000Y-95406000D03*
X156337000Y-96806000D03*
%TD*%
D15*
%TO.C,U7*%
X137668000Y-101343000D03*
X138938000Y-101343000D03*
X140208000Y-101343000D03*
X141478000Y-101343000D03*
X141478000Y-96393000D03*
X140208000Y-96393000D03*
X138938000Y-96393000D03*
X137668000Y-96393000D03*
%TD*%
D21*
%TO.C,D7*%
X106172000Y-95406000D03*
X106172000Y-96806000D03*
%TD*%
D19*
%TO.C,R17*%
X156083000Y-102108000D03*
X154258000Y-102108000D03*
%TD*%
%TO.C,R1*%
X141233500Y-127571500D03*
X139408500Y-127571500D03*
%TD*%
D18*
%TO.C,Q10*%
X146987500Y-98232000D03*
X146987500Y-96332000D03*
X145112500Y-97282000D03*
%TD*%
D16*
%TO.C,Q9*%
X131252000Y-104932000D03*
X129352000Y-104932000D03*
X130302000Y-106807000D03*
%TD*%
D21*
%TO.C,D8*%
X131445000Y-95406000D03*
X131445000Y-96806000D03*
%TD*%
D10*
%TO.C,R7*%
X110236000Y-94154000D03*
X110236000Y-92329000D03*
%TD*%
D16*
%TO.C,Q11*%
X156144000Y-104932000D03*
X154244000Y-104932000D03*
X155194000Y-106807000D03*
%TD*%
D17*
%TO.C,R9*%
X133223000Y-102823000D03*
X133223000Y-104648000D03*
%TD*%
D22*
%TO.C,C1*%
X168007000Y-128355500D03*
X168007000Y-124755500D03*
%TD*%
M02*
