M48
; DRILL file {KiCad 9.0.3} date 2025-08-30T18:14:37-0300
; FORMAT={-:-/ absolute / metric / decimal}
; #@! TF.CreationDate,2025-08-30T18:14:37-03:00
; #@! TF.GenerationSoftware,Kicad,Pcbnew,9.0.3
; #@! TF.FileFunction,Plated,1,2,PTH
FMAT,2
METRIC
; #@! TA.AperFunction,Plated,PTH,ViaDrill
T1C0.300
; #@! TA.AperFunction,Plated,PTH,ViaDrill
T2C0.305
; #@! TA.AperFunction,Plated,PTH,ComponentDrill
T3C0.950
; #@! TA.AperFunction,Plated,PTH,ComponentDrill
T4C1.000
; #@! TA.AperFunction,Plated,PTH,ComponentDrill
T5C1.100
; #@! TA.AperFunction,Plated,PTH,ComponentDrill
T6C1.200
; #@! TA.AperFunction,Plated,PTH,ComponentDrill
T7C1.400
%
G90
G05
T1
X113.792Y-110.998
X138.684Y-110.998
X162.941Y-110.998
X175.768Y-113.221
T2
X112.141Y-56.197
X112.141Y-57.213
X112.141Y-58.229
X112.141Y-59.245
X112.141Y-60.261
X112.141Y-61.277
X113.157Y-56.197
X113.157Y-57.213
X113.157Y-58.229
X113.157Y-59.245
X113.157Y-60.261
X113.157Y-61.277
X114.173Y-56.197
X114.173Y-57.213
X114.173Y-58.229
X114.173Y-59.245
X114.173Y-60.261
X114.173Y-61.277
X115.189Y-56.197
X115.189Y-57.213
X115.189Y-58.229
X115.189Y-59.245
X115.189Y-60.261
X115.189Y-61.277
X124.206Y-70.548
X124.206Y-71.564
X124.206Y-72.581
X125.222Y-70.548
X125.222Y-71.564
X125.222Y-72.581
X126.238Y-70.548
X126.238Y-71.564
X126.238Y-72.581
X127.254Y-70.548
X127.254Y-71.564
X127.254Y-72.581
X141.097Y-58.356
X141.097Y-59.372
X141.097Y-60.389
X142.113Y-58.356
X142.113Y-59.372
X142.113Y-60.389
X142.113Y-61.404
X143.129Y-58.356
X143.129Y-59.372
X143.129Y-60.389
X143.129Y-61.404
X144.145Y-58.356
X144.145Y-59.372
X144.145Y-60.389
X144.145Y-61.404
X150.368Y-66.484
X150.368Y-67.501
X150.368Y-68.516
X150.368Y-69.532
X151.384Y-66.484
X151.384Y-67.501
X151.384Y-68.516
X151.384Y-69.532
X152.4Y-66.484
X152.4Y-67.501
X152.4Y-68.516
X152.4Y-69.532
X153.416Y-66.484
X153.416Y-67.501
X153.416Y-68.516
X153.416Y-69.532
T3
X102.595Y-126.936
X105.095Y-126.936
X107.595Y-126.936
X110.095Y-126.936
X119.105Y-126.936
X121.605Y-126.936
X124.105Y-126.936
X126.605Y-126.936
T4
X149.084Y-128.079
X154.164Y-128.079
X159.244Y-128.079
X161.784Y-128.079
X174.524Y-126.401
X177.024Y-126.401
T5
X104.775Y-88.011
X107.315Y-88.011
X109.855Y-88.011
X116.713Y-88.011
X119.253Y-88.011
X121.793Y-88.011
X129.54Y-88.011
X132.08Y-88.011
X134.62Y-88.011
X141.224Y-88.011
X143.764Y-88.011
X146.304Y-88.011
X154.813Y-87.884
X157.353Y-87.884
X159.893Y-87.884
X166.624Y-87.884
X169.164Y-87.884
X171.704Y-87.884
T6
X147.574Y-59.69
X152.654Y-59.69
X157.734Y-59.69
T7
X118.237Y-60.198
X123.317Y-60.198
M30
