%TF.GenerationSoftware,KiCad,Pcbnew,9.0.3*%
%TF.CreationDate,2025-08-21T00:35:25-03:00*%
%TF.ProjectId,PCB_Inversor,5043425f-496e-4766-9572-736f722e6b69,rev?*%
%TF.SameCoordinates,Original*%
%TF.FileFunction,Legend,Bot*%
%TF.FilePolarity,Positive*%
%FSLAX46Y46*%
G04 Gerber Fmt 4.6, Leading zero omitted, Abs format (unit mm)*
G04 Created by KiCad (PCBNEW 9.0.3) date 2025-08-21 00:35:25*
%MOMM*%
%LPD*%
G01*
G04 APERTURE LIST*
%ADD10C,0.120000*%
G04 APERTURE END LIST*
D10*
%TO.C,Q6*%
X164054000Y-68314000D02*
X164414000Y-68314000D01*
X164054000Y-68714000D02*
X164054000Y-68354000D01*
X164054000Y-69434000D02*
X164054000Y-69074000D01*
X164054000Y-70154000D02*
X164054000Y-69794000D01*
X164054000Y-70874000D02*
X164054000Y-70514000D01*
X164054000Y-71594000D02*
X164054000Y-71234000D01*
X164054000Y-72314000D02*
X164054000Y-71954000D01*
X164054000Y-73034000D02*
X164054000Y-72674000D01*
X164054000Y-73754000D02*
X164054000Y-73394000D01*
X164054000Y-74474000D02*
X164054000Y-74114000D01*
X164054000Y-74714000D02*
X174274000Y-74714000D01*
X164054000Y-84184000D02*
X164054000Y-74714000D01*
X164054000Y-84184000D02*
X174274000Y-84184000D01*
X164774000Y-68314000D02*
X165134000Y-68314000D01*
X165494000Y-68314000D02*
X165854000Y-68314000D01*
X166139000Y-84184000D02*
X166139000Y-86624000D01*
X166214000Y-68314000D02*
X166574000Y-68314000D01*
X166934000Y-68314000D02*
X167294000Y-68314000D01*
X167109000Y-84184000D02*
X167109000Y-86624000D01*
X167654000Y-68314000D02*
X168014000Y-68314000D01*
X168374000Y-68314000D02*
X168734000Y-68314000D01*
X168679000Y-84184000D02*
X168679000Y-86624000D01*
X169094000Y-68314000D02*
X169454000Y-68314000D01*
X169649000Y-84184000D02*
X169649000Y-86624000D01*
X169814000Y-68314000D02*
X170174000Y-68314000D01*
X170534000Y-68314000D02*
X170894000Y-68314000D01*
X171219000Y-84184000D02*
X171219000Y-86624000D01*
X171254000Y-68314000D02*
X171614000Y-68314000D01*
X171974000Y-68314000D02*
X172334000Y-68314000D01*
X172189000Y-84184000D02*
X172189000Y-86624000D01*
X172694000Y-68314000D02*
X173054000Y-68314000D01*
X173414000Y-68314000D02*
X173774000Y-68314000D01*
X174134000Y-68314000D02*
X174274000Y-68314000D01*
X174274000Y-68714000D02*
X174274000Y-68354000D01*
X174274000Y-69434000D02*
X174274000Y-69074000D01*
X174274000Y-70154000D02*
X174274000Y-69794000D01*
X174274000Y-70874000D02*
X174274000Y-70514000D01*
X174274000Y-71594000D02*
X174274000Y-71234000D01*
X174274000Y-72314000D02*
X174274000Y-71954000D01*
X174274000Y-73034000D02*
X174274000Y-72674000D01*
X174274000Y-73754000D02*
X174274000Y-73394000D01*
X174274000Y-74474000D02*
X174274000Y-74114000D01*
X174274000Y-84184000D02*
X174274000Y-74714000D01*
%TO.C,Q4*%
X138654000Y-68441000D02*
X139014000Y-68441000D01*
X138654000Y-68841000D02*
X138654000Y-68481000D01*
X138654000Y-69561000D02*
X138654000Y-69201000D01*
X138654000Y-70281000D02*
X138654000Y-69921000D01*
X138654000Y-71001000D02*
X138654000Y-70641000D01*
X138654000Y-71721000D02*
X138654000Y-71361000D01*
X138654000Y-72441000D02*
X138654000Y-72081000D01*
X138654000Y-73161000D02*
X138654000Y-72801000D01*
X138654000Y-73881000D02*
X138654000Y-73521000D01*
X138654000Y-74601000D02*
X138654000Y-74241000D01*
X138654000Y-74841000D02*
X148874000Y-74841000D01*
X138654000Y-84311000D02*
X138654000Y-74841000D01*
X138654000Y-84311000D02*
X148874000Y-84311000D01*
X139374000Y-68441000D02*
X139734000Y-68441000D01*
X140094000Y-68441000D02*
X140454000Y-68441000D01*
X140739000Y-84311000D02*
X140739000Y-86751000D01*
X140814000Y-68441000D02*
X141174000Y-68441000D01*
X141534000Y-68441000D02*
X141894000Y-68441000D01*
X141709000Y-84311000D02*
X141709000Y-86751000D01*
X142254000Y-68441000D02*
X142614000Y-68441000D01*
X142974000Y-68441000D02*
X143334000Y-68441000D01*
X143279000Y-84311000D02*
X143279000Y-86751000D01*
X143694000Y-68441000D02*
X144054000Y-68441000D01*
X144249000Y-84311000D02*
X144249000Y-86751000D01*
X144414000Y-68441000D02*
X144774000Y-68441000D01*
X145134000Y-68441000D02*
X145494000Y-68441000D01*
X145819000Y-84311000D02*
X145819000Y-86751000D01*
X145854000Y-68441000D02*
X146214000Y-68441000D01*
X146574000Y-68441000D02*
X146934000Y-68441000D01*
X146789000Y-84311000D02*
X146789000Y-86751000D01*
X147294000Y-68441000D02*
X147654000Y-68441000D01*
X148014000Y-68441000D02*
X148374000Y-68441000D01*
X148734000Y-68441000D02*
X148874000Y-68441000D01*
X148874000Y-68841000D02*
X148874000Y-68481000D01*
X148874000Y-69561000D02*
X148874000Y-69201000D01*
X148874000Y-70281000D02*
X148874000Y-69921000D01*
X148874000Y-71001000D02*
X148874000Y-70641000D01*
X148874000Y-71721000D02*
X148874000Y-71361000D01*
X148874000Y-72441000D02*
X148874000Y-72081000D01*
X148874000Y-73161000D02*
X148874000Y-72801000D01*
X148874000Y-73881000D02*
X148874000Y-73521000D01*
X148874000Y-74601000D02*
X148874000Y-74241000D01*
X148874000Y-84311000D02*
X148874000Y-74841000D01*
%TO.C,Q1*%
X102205000Y-68441000D02*
X102565000Y-68441000D01*
X102205000Y-68841000D02*
X102205000Y-68481000D01*
X102205000Y-69561000D02*
X102205000Y-69201000D01*
X102205000Y-70281000D02*
X102205000Y-69921000D01*
X102205000Y-71001000D02*
X102205000Y-70641000D01*
X102205000Y-71721000D02*
X102205000Y-71361000D01*
X102205000Y-72441000D02*
X102205000Y-72081000D01*
X102205000Y-73161000D02*
X102205000Y-72801000D01*
X102205000Y-73881000D02*
X102205000Y-73521000D01*
X102205000Y-74601000D02*
X102205000Y-74241000D01*
X102205000Y-74841000D02*
X112425000Y-74841000D01*
X102205000Y-84311000D02*
X102205000Y-74841000D01*
X102205000Y-84311000D02*
X112425000Y-84311000D01*
X102925000Y-68441000D02*
X103285000Y-68441000D01*
X103645000Y-68441000D02*
X104005000Y-68441000D01*
X104290000Y-84311000D02*
X104290000Y-86751000D01*
X104365000Y-68441000D02*
X104725000Y-68441000D01*
X105085000Y-68441000D02*
X105445000Y-68441000D01*
X105260000Y-84311000D02*
X105260000Y-86751000D01*
X105805000Y-68441000D02*
X106165000Y-68441000D01*
X106525000Y-68441000D02*
X106885000Y-68441000D01*
X106830000Y-84311000D02*
X106830000Y-86751000D01*
X107245000Y-68441000D02*
X107605000Y-68441000D01*
X107800000Y-84311000D02*
X107800000Y-86751000D01*
X107965000Y-68441000D02*
X108325000Y-68441000D01*
X108685000Y-68441000D02*
X109045000Y-68441000D01*
X109370000Y-84311000D02*
X109370000Y-86751000D01*
X109405000Y-68441000D02*
X109765000Y-68441000D01*
X110125000Y-68441000D02*
X110485000Y-68441000D01*
X110340000Y-84311000D02*
X110340000Y-86751000D01*
X110845000Y-68441000D02*
X111205000Y-68441000D01*
X111565000Y-68441000D02*
X111925000Y-68441000D01*
X112285000Y-68441000D02*
X112425000Y-68441000D01*
X112425000Y-68841000D02*
X112425000Y-68481000D01*
X112425000Y-69561000D02*
X112425000Y-69201000D01*
X112425000Y-70281000D02*
X112425000Y-69921000D01*
X112425000Y-71001000D02*
X112425000Y-70641000D01*
X112425000Y-71721000D02*
X112425000Y-71361000D01*
X112425000Y-72441000D02*
X112425000Y-72081000D01*
X112425000Y-73161000D02*
X112425000Y-72801000D01*
X112425000Y-73881000D02*
X112425000Y-73521000D01*
X112425000Y-74601000D02*
X112425000Y-74241000D01*
X112425000Y-84311000D02*
X112425000Y-74841000D01*
%TO.C,Q3*%
X126970000Y-68441000D02*
X127330000Y-68441000D01*
X126970000Y-68841000D02*
X126970000Y-68481000D01*
X126970000Y-69561000D02*
X126970000Y-69201000D01*
X126970000Y-70281000D02*
X126970000Y-69921000D01*
X126970000Y-71001000D02*
X126970000Y-70641000D01*
X126970000Y-71721000D02*
X126970000Y-71361000D01*
X126970000Y-72441000D02*
X126970000Y-72081000D01*
X126970000Y-73161000D02*
X126970000Y-72801000D01*
X126970000Y-73881000D02*
X126970000Y-73521000D01*
X126970000Y-74601000D02*
X126970000Y-74241000D01*
X126970000Y-74841000D02*
X137190000Y-74841000D01*
X126970000Y-84311000D02*
X126970000Y-74841000D01*
X126970000Y-84311000D02*
X137190000Y-84311000D01*
X127690000Y-68441000D02*
X128050000Y-68441000D01*
X128410000Y-68441000D02*
X128770000Y-68441000D01*
X129055000Y-84311000D02*
X129055000Y-86751000D01*
X129130000Y-68441000D02*
X129490000Y-68441000D01*
X129850000Y-68441000D02*
X130210000Y-68441000D01*
X130025000Y-84311000D02*
X130025000Y-86751000D01*
X130570000Y-68441000D02*
X130930000Y-68441000D01*
X131290000Y-68441000D02*
X131650000Y-68441000D01*
X131595000Y-84311000D02*
X131595000Y-86751000D01*
X132010000Y-68441000D02*
X132370000Y-68441000D01*
X132565000Y-84311000D02*
X132565000Y-86751000D01*
X132730000Y-68441000D02*
X133090000Y-68441000D01*
X133450000Y-68441000D02*
X133810000Y-68441000D01*
X134135000Y-84311000D02*
X134135000Y-86751000D01*
X134170000Y-68441000D02*
X134530000Y-68441000D01*
X134890000Y-68441000D02*
X135250000Y-68441000D01*
X135105000Y-84311000D02*
X135105000Y-86751000D01*
X135610000Y-68441000D02*
X135970000Y-68441000D01*
X136330000Y-68441000D02*
X136690000Y-68441000D01*
X137050000Y-68441000D02*
X137190000Y-68441000D01*
X137190000Y-68841000D02*
X137190000Y-68481000D01*
X137190000Y-69561000D02*
X137190000Y-69201000D01*
X137190000Y-70281000D02*
X137190000Y-69921000D01*
X137190000Y-71001000D02*
X137190000Y-70641000D01*
X137190000Y-71721000D02*
X137190000Y-71361000D01*
X137190000Y-72441000D02*
X137190000Y-72081000D01*
X137190000Y-73161000D02*
X137190000Y-72801000D01*
X137190000Y-73881000D02*
X137190000Y-73521000D01*
X137190000Y-74601000D02*
X137190000Y-74241000D01*
X137190000Y-84311000D02*
X137190000Y-74841000D01*
%TO.C,Q2*%
X114143000Y-68441000D02*
X114503000Y-68441000D01*
X114143000Y-68841000D02*
X114143000Y-68481000D01*
X114143000Y-69561000D02*
X114143000Y-69201000D01*
X114143000Y-70281000D02*
X114143000Y-69921000D01*
X114143000Y-71001000D02*
X114143000Y-70641000D01*
X114143000Y-71721000D02*
X114143000Y-71361000D01*
X114143000Y-72441000D02*
X114143000Y-72081000D01*
X114143000Y-73161000D02*
X114143000Y-72801000D01*
X114143000Y-73881000D02*
X114143000Y-73521000D01*
X114143000Y-74601000D02*
X114143000Y-74241000D01*
X114143000Y-74841000D02*
X124363000Y-74841000D01*
X114143000Y-84311000D02*
X114143000Y-74841000D01*
X114143000Y-84311000D02*
X124363000Y-84311000D01*
X114863000Y-68441000D02*
X115223000Y-68441000D01*
X115583000Y-68441000D02*
X115943000Y-68441000D01*
X116228000Y-84311000D02*
X116228000Y-86751000D01*
X116303000Y-68441000D02*
X116663000Y-68441000D01*
X117023000Y-68441000D02*
X117383000Y-68441000D01*
X117198000Y-84311000D02*
X117198000Y-86751000D01*
X117743000Y-68441000D02*
X118103000Y-68441000D01*
X118463000Y-68441000D02*
X118823000Y-68441000D01*
X118768000Y-84311000D02*
X118768000Y-86751000D01*
X119183000Y-68441000D02*
X119543000Y-68441000D01*
X119738000Y-84311000D02*
X119738000Y-86751000D01*
X119903000Y-68441000D02*
X120263000Y-68441000D01*
X120623000Y-68441000D02*
X120983000Y-68441000D01*
X121308000Y-84311000D02*
X121308000Y-86751000D01*
X121343000Y-68441000D02*
X121703000Y-68441000D01*
X122063000Y-68441000D02*
X122423000Y-68441000D01*
X122278000Y-84311000D02*
X122278000Y-86751000D01*
X122783000Y-68441000D02*
X123143000Y-68441000D01*
X123503000Y-68441000D02*
X123863000Y-68441000D01*
X124223000Y-68441000D02*
X124363000Y-68441000D01*
X124363000Y-68841000D02*
X124363000Y-68481000D01*
X124363000Y-69561000D02*
X124363000Y-69201000D01*
X124363000Y-70281000D02*
X124363000Y-69921000D01*
X124363000Y-71001000D02*
X124363000Y-70641000D01*
X124363000Y-71721000D02*
X124363000Y-71361000D01*
X124363000Y-72441000D02*
X124363000Y-72081000D01*
X124363000Y-73161000D02*
X124363000Y-72801000D01*
X124363000Y-73881000D02*
X124363000Y-73521000D01*
X124363000Y-74601000D02*
X124363000Y-74241000D01*
X124363000Y-84311000D02*
X124363000Y-74841000D01*
%TO.C,Q5*%
X152243000Y-68314000D02*
X152603000Y-68314000D01*
X152243000Y-68714000D02*
X152243000Y-68354000D01*
X152243000Y-69434000D02*
X152243000Y-69074000D01*
X152243000Y-70154000D02*
X152243000Y-69794000D01*
X152243000Y-70874000D02*
X152243000Y-70514000D01*
X152243000Y-71594000D02*
X152243000Y-71234000D01*
X152243000Y-72314000D02*
X152243000Y-71954000D01*
X152243000Y-73034000D02*
X152243000Y-72674000D01*
X152243000Y-73754000D02*
X152243000Y-73394000D01*
X152243000Y-74474000D02*
X152243000Y-74114000D01*
X152243000Y-74714000D02*
X162463000Y-74714000D01*
X152243000Y-84184000D02*
X152243000Y-74714000D01*
X152243000Y-84184000D02*
X162463000Y-84184000D01*
X152963000Y-68314000D02*
X153323000Y-68314000D01*
X153683000Y-68314000D02*
X154043000Y-68314000D01*
X154328000Y-84184000D02*
X154328000Y-86624000D01*
X154403000Y-68314000D02*
X154763000Y-68314000D01*
X155123000Y-68314000D02*
X155483000Y-68314000D01*
X155298000Y-84184000D02*
X155298000Y-86624000D01*
X155843000Y-68314000D02*
X156203000Y-68314000D01*
X156563000Y-68314000D02*
X156923000Y-68314000D01*
X156868000Y-84184000D02*
X156868000Y-86624000D01*
X157283000Y-68314000D02*
X157643000Y-68314000D01*
X157838000Y-84184000D02*
X157838000Y-86624000D01*
X158003000Y-68314000D02*
X158363000Y-68314000D01*
X158723000Y-68314000D02*
X159083000Y-68314000D01*
X159408000Y-84184000D02*
X159408000Y-86624000D01*
X159443000Y-68314000D02*
X159803000Y-68314000D01*
X160163000Y-68314000D02*
X160523000Y-68314000D01*
X160378000Y-84184000D02*
X160378000Y-86624000D01*
X160883000Y-68314000D02*
X161243000Y-68314000D01*
X161603000Y-68314000D02*
X161963000Y-68314000D01*
X162323000Y-68314000D02*
X162463000Y-68314000D01*
X162463000Y-68714000D02*
X162463000Y-68354000D01*
X162463000Y-69434000D02*
X162463000Y-69074000D01*
X162463000Y-70154000D02*
X162463000Y-69794000D01*
X162463000Y-70874000D02*
X162463000Y-70514000D01*
X162463000Y-71594000D02*
X162463000Y-71234000D01*
X162463000Y-72314000D02*
X162463000Y-71954000D01*
X162463000Y-73034000D02*
X162463000Y-72674000D01*
X162463000Y-73754000D02*
X162463000Y-73394000D01*
X162463000Y-74474000D02*
X162463000Y-74114000D01*
X162463000Y-84184000D02*
X162463000Y-74714000D01*
%TD*%
M02*
