%TF.GenerationSoftware,KiCad,Pcbnew,9.0.3*%
%TF.CreationDate,2025-08-30T18:14:31-03:00*%
%TF.ProjectId,PCB_Inversor,5043425f-496e-4766-9572-736f722e6b69,rev?*%
%TF.SameCoordinates,Original*%
%TF.FileFunction,Soldermask,Bot*%
%TF.FilePolarity,Negative*%
%FSLAX46Y46*%
G04 Gerber Fmt 4.6, Leading zero omitted, Abs format (unit mm)*
G04 Created by KiCad (PCBNEW 9.0.3) date 2025-08-30 18:14:31*
%MOMM*%
%LPD*%
G01*
G04 APERTURE LIST*
G04 Aperture macros list*
%AMRoundRect*
0 Rectangle with rounded corners*
0 $1 Rounding radius*
0 $2 $3 $4 $5 $6 $7 $8 $9 X,Y pos of 4 corners*
0 Add a 4 corners polygon primitive as box body*
4,1,4,$2,$3,$4,$5,$6,$7,$8,$9,$2,$3,0*
0 Add four circle primitives for the rounded corners*
1,1,$1+$1,$2,$3*
1,1,$1+$1,$4,$5*
1,1,$1+$1,$6,$7*
1,1,$1+$1,$8,$9*
0 Add four rect primitives between the rounded corners*
20,1,$1+$1,$2,$3,$4,$5,0*
20,1,$1+$1,$4,$5,$6,$7,0*
20,1,$1+$1,$6,$7,$8,$9,0*
20,1,$1+$1,$8,$9,$2,$3,0*%
G04 Aperture macros list end*
%ADD10C,1.200000*%
%ADD11RoundRect,0.249999X-0.790001X-1.550001X0.790001X-1.550001X0.790001X1.550001X-0.790001X1.550001X0*%
%ADD12O,2.080000X3.600000*%
%ADD13RoundRect,0.250000X0.600000X0.750000X-0.600000X0.750000X-0.600000X-0.750000X0.600000X-0.750000X0*%
%ADD14O,1.700000X2.000000*%
%ADD15RoundRect,0.250000X0.600000X0.725000X-0.600000X0.725000X-0.600000X-0.725000X0.600000X-0.725000X0*%
%ADD16O,1.700000X1.950000*%
%ADD17RoundRect,0.250000X0.650000X1.550000X-0.650000X1.550000X-0.650000X-1.550000X0.650000X-1.550000X0*%
%ADD18O,1.800000X3.600000*%
%ADD19RoundRect,0.250001X-0.499999X0.499999X-0.499999X-0.499999X0.499999X-0.499999X0.499999X0.499999X0*%
%ADD20C,1.500000*%
%ADD21C,3.500000*%
%ADD22R,1.905000X2.000000*%
%ADD23O,1.905000X2.000000*%
G04 APERTURE END LIST*
D10*
X139573000Y-64008000D02*
X139573000Y-73025000D01*
X142367000Y-75819000D01*
X157226000Y-75819000D01*
X158369000Y-76962000D01*
X158369000Y-82423000D01*
X158143222Y-82677000D01*
X146812000Y-82677000D01*
X145288000Y-81153000D01*
X145288000Y-81026000D01*
X137033000Y-81026000D01*
X135890000Y-79883000D01*
X135890000Y-69723000D01*
X134239000Y-68072000D01*
X116713000Y-68072000D01*
X114808000Y-69977000D01*
X114808000Y-79121000D01*
X109728000Y-84201000D01*
X105410000Y-84201000D01*
X104013000Y-82931000D01*
X104013000Y-78105000D01*
X106553000Y-75565000D01*
X108585000Y-75565000D01*
X110642400Y-73507600D01*
X110642400Y-68300600D01*
X114681000Y-64262000D01*
X121412000Y-64262000D01*
X122301000Y-63373000D01*
X122301000Y-58928000D01*
X122682000Y-58547000D01*
X134112000Y-58547000D01*
X139573000Y-64008000D01*
G36*
X139573000Y-64008000D02*
G01*
X139573000Y-73025000D01*
X142367000Y-75819000D01*
X157226000Y-75819000D01*
X158369000Y-76962000D01*
X158369000Y-82423000D01*
X158143222Y-82677000D01*
X146812000Y-82677000D01*
X145288000Y-81153000D01*
X145288000Y-81026000D01*
X137033000Y-81026000D01*
X135890000Y-79883000D01*
X135890000Y-69723000D01*
X134239000Y-68072000D01*
X116713000Y-68072000D01*
X114808000Y-69977000D01*
X114808000Y-79121000D01*
X109728000Y-84201000D01*
X105410000Y-84201000D01*
X104013000Y-82931000D01*
X104013000Y-78105000D01*
X106553000Y-75565000D01*
X108585000Y-75565000D01*
X110642400Y-73507600D01*
X110642400Y-68300600D01*
X114681000Y-64262000D01*
X121412000Y-64262000D01*
X122301000Y-63373000D01*
X122301000Y-58928000D01*
X122682000Y-58547000D01*
X134112000Y-58547000D01*
X139573000Y-64008000D01*
G37*
X153924000Y-59118500D02*
X153924000Y-70040500D01*
X153035000Y-70929500D01*
X148717000Y-70929500D01*
X147828000Y-70040500D01*
X147828000Y-67881500D01*
X151384000Y-64325500D01*
X151384000Y-58991500D01*
X152019000Y-58356500D01*
X153162000Y-58356500D01*
X153924000Y-59118500D01*
G36*
X153924000Y-59118500D02*
G01*
X153924000Y-70040500D01*
X153035000Y-70929500D01*
X148717000Y-70929500D01*
X147828000Y-70040500D01*
X147828000Y-67881500D01*
X151384000Y-64325500D01*
X151384000Y-58991500D01*
X152019000Y-58356500D01*
X153162000Y-58356500D01*
X153924000Y-59118500D01*
G37*
X128016000Y-79946500D02*
X123952000Y-84010500D01*
X120904000Y-84010500D01*
X120015000Y-84899500D01*
X120015000Y-88455500D01*
X119634000Y-88836500D01*
X118872000Y-88836500D01*
X118491000Y-88455500D01*
X118491000Y-85026500D01*
X117856000Y-84391500D01*
X117856000Y-78041500D01*
X123317000Y-72580500D01*
X123317000Y-70040500D01*
X128016000Y-70040500D01*
X128016000Y-79946500D01*
G36*
X128016000Y-79946500D02*
G01*
X123952000Y-84010500D01*
X120904000Y-84010500D01*
X120015000Y-84899500D01*
X120015000Y-88455500D01*
X119634000Y-88836500D01*
X118872000Y-88836500D01*
X118491000Y-88455500D01*
X118491000Y-85026500D01*
X117856000Y-84391500D01*
X117856000Y-78041500D01*
X123317000Y-72580500D01*
X123317000Y-70040500D01*
X128016000Y-70040500D01*
X128016000Y-79946500D01*
G37*
X171436000Y-55662137D02*
X171436000Y-60742137D01*
X173749214Y-62901137D01*
X177835054Y-62901137D01*
X179197000Y-64263083D01*
X179181571Y-87254154D01*
X177752630Y-88682137D01*
X171436000Y-88682137D01*
X170942000Y-88201500D01*
X170942000Y-82402433D01*
X168021000Y-79518525D01*
X168021000Y-74676000D01*
X171069000Y-74676000D01*
X172974000Y-72771000D01*
X172974000Y-69342000D01*
X170942000Y-67310000D01*
X167513000Y-67310000D01*
X161036000Y-60833000D01*
X161036000Y-57150000D01*
X160909000Y-57023000D01*
X120205500Y-57023000D01*
X119507000Y-57721500D01*
X119507000Y-61468000D01*
X118999000Y-61976000D01*
X105777000Y-61976000D01*
X105777000Y-54900137D01*
X170674000Y-54900137D01*
X171436000Y-55662137D01*
G36*
X171436000Y-55662137D02*
G01*
X171436000Y-60742137D01*
X173749214Y-62901137D01*
X177835054Y-62901137D01*
X179197000Y-64263083D01*
X179181571Y-87254154D01*
X177752630Y-88682137D01*
X171436000Y-88682137D01*
X170942000Y-88201500D01*
X170942000Y-82402433D01*
X168021000Y-79518525D01*
X168021000Y-74676000D01*
X171069000Y-74676000D01*
X172974000Y-72771000D01*
X172974000Y-69342000D01*
X170942000Y-67310000D01*
X167513000Y-67310000D01*
X161036000Y-60833000D01*
X161036000Y-57150000D01*
X160909000Y-57023000D01*
X120205500Y-57023000D01*
X119507000Y-57721500D01*
X119507000Y-61468000D01*
X118999000Y-61976000D01*
X105777000Y-61976000D01*
X105777000Y-54900137D01*
X170674000Y-54900137D01*
X171436000Y-55662137D01*
G37*
X148971000Y-58737500D02*
X148971000Y-61277500D01*
X148082000Y-62166500D01*
X141986000Y-62166500D01*
X137668000Y-57848500D01*
X148082000Y-57848500D01*
X148971000Y-58737500D01*
G36*
X148971000Y-58737500D02*
G01*
X148971000Y-61277500D01*
X148082000Y-62166500D01*
X141986000Y-62166500D01*
X137668000Y-57848500D01*
X148082000Y-57848500D01*
X148971000Y-58737500D01*
G37*
X158736000Y-59218137D02*
X158736000Y-62647137D01*
X165481000Y-69215000D01*
X165481000Y-80264000D01*
X170053000Y-84884777D01*
X170053000Y-88265000D01*
X169545000Y-88773000D01*
X168910000Y-88773000D01*
X168402000Y-88265000D01*
X168402000Y-86360000D01*
X167513000Y-85471000D01*
X162636200Y-85471000D01*
X162052000Y-85957834D01*
X162052000Y-88773000D01*
X159512001Y-88773000D01*
X159131000Y-88328499D01*
X159131000Y-84074000D01*
X160782000Y-82423000D01*
X160782000Y-69215000D01*
X156718000Y-65087500D01*
X156718000Y-62484000D01*
X156704000Y-59345137D01*
X157212000Y-58710137D01*
X158228000Y-58710137D01*
X158736000Y-59218137D01*
G36*
X158736000Y-59218137D02*
G01*
X158736000Y-62647137D01*
X165481000Y-69215000D01*
X165481000Y-80264000D01*
X170053000Y-84884777D01*
X170053000Y-88265000D01*
X169545000Y-88773000D01*
X168910000Y-88773000D01*
X168402000Y-88265000D01*
X168402000Y-86360000D01*
X167513000Y-85471000D01*
X162636200Y-85471000D01*
X162052000Y-85957834D01*
X162052000Y-88773000D01*
X159512001Y-88773000D01*
X159131000Y-88328499D01*
X159131000Y-84074000D01*
X160782000Y-82423000D01*
X160782000Y-69215000D01*
X156718000Y-65087500D01*
X156718000Y-62484000D01*
X156704000Y-59345137D01*
X157212000Y-58710137D01*
X158228000Y-58710137D01*
X158736000Y-59218137D01*
G37*
D11*
%TO.C,HVDCBus1*%
X118237000Y-60198000D03*
D12*
X123317000Y-60198000D03*
%TD*%
D13*
%TO.C,12V_Inv1*%
X177024000Y-126401137D03*
D14*
X174524000Y-126401137D03*
%TD*%
D15*
%TO.C,Inv_Signal1*%
X110095000Y-126936500D03*
D16*
X107595000Y-126936500D03*
X105095000Y-126936500D03*
X102595000Y-126936500D03*
%TD*%
D17*
%TO.C,Motor_Out1*%
X157734000Y-59690000D03*
D18*
X152654000Y-59690000D03*
X147574000Y-59690000D03*
%TD*%
D19*
%TO.C,U1*%
X161784000Y-128079500D03*
D20*
X159244000Y-128079500D03*
X154164000Y-128079500D03*
X149084000Y-128079500D03*
%TD*%
D15*
%TO.C,Inv_Signal2*%
X126605000Y-126936500D03*
D16*
X124105000Y-126936500D03*
X121605000Y-126936500D03*
X119105000Y-126936500D03*
%TD*%
D21*
%TO.C,Q6*%
X169164000Y-71224000D03*
D22*
X166624000Y-87884000D03*
D23*
X169164000Y-87884000D03*
X171704000Y-87884000D03*
%TD*%
D21*
%TO.C,Q4*%
X143764000Y-71351000D03*
D22*
X141224000Y-88011000D03*
D23*
X143764000Y-88011000D03*
X146304000Y-88011000D03*
%TD*%
D21*
%TO.C,Q1*%
X107315000Y-71351000D03*
D22*
X104775000Y-88011000D03*
D23*
X107315000Y-88011000D03*
X109855000Y-88011000D03*
%TD*%
D21*
%TO.C,Q3*%
X132080000Y-71351000D03*
D22*
X129540000Y-88011000D03*
D23*
X132080000Y-88011000D03*
X134620000Y-88011000D03*
%TD*%
D21*
%TO.C,Q2*%
X119253000Y-71351000D03*
D22*
X116713000Y-88011000D03*
D23*
X119253000Y-88011000D03*
X121793000Y-88011000D03*
%TD*%
D21*
%TO.C,Q5*%
X157353000Y-71224000D03*
D22*
X154813000Y-87884000D03*
D23*
X157353000Y-87884000D03*
X159893000Y-87884000D03*
%TD*%
M02*
