%TF.GenerationSoftware,KiCad,Pcbnew,9.0.3*%
%TF.CreationDate,2025-08-30T18:14:31-03:00*%
%TF.ProjectId,PCB_Inversor,5043425f-496e-4766-9572-736f722e6b69,rev?*%
%TF.SameCoordinates,Original*%
%TF.FileFunction,Soldermask,Top*%
%TF.FilePolarity,Negative*%
%FSLAX46Y46*%
G04 Gerber Fmt 4.6, Leading zero omitted, Abs format (unit mm)*
G04 Created by KiCad (PCBNEW 9.0.3) date 2025-08-30 18:14:31*
%MOMM*%
%LPD*%
G01*
G04 APERTURE LIST*
G04 Aperture macros list*
%AMRoundRect*
0 Rectangle with rounded corners*
0 $1 Rounding radius*
0 $2 $3 $4 $5 $6 $7 $8 $9 X,Y pos of 4 corners*
0 Add a 4 corners polygon primitive as box body*
4,1,4,$2,$3,$4,$5,$6,$7,$8,$9,$2,$3,0*
0 Add four circle primitives for the rounded corners*
1,1,$1+$1,$2,$3*
1,1,$1+$1,$4,$5*
1,1,$1+$1,$6,$7*
1,1,$1+$1,$8,$9*
0 Add four rect primitives between the rounded corners*
20,1,$1+$1,$2,$3,$4,$5,0*
20,1,$1+$1,$4,$5,$6,$7,0*
20,1,$1+$1,$6,$7,$8,$9,0*
20,1,$1+$1,$8,$9,$2,$3,0*%
G04 Aperture macros list end*
%ADD10C,1.200000*%
%ADD11RoundRect,0.249999X-0.790001X-1.550001X0.790001X-1.550001X0.790001X1.550001X-0.790001X1.550001X0*%
%ADD12O,2.080000X3.600000*%
%ADD13RoundRect,0.237500X0.237500X-0.250000X0.237500X0.250000X-0.237500X0.250000X-0.237500X-0.250000X0*%
%ADD14RoundRect,0.250000X-1.050000X-0.550000X1.050000X-0.550000X1.050000X0.550000X-1.050000X0.550000X0*%
%ADD15RoundRect,0.162500X0.162500X-1.012500X0.162500X1.012500X-0.162500X1.012500X-0.162500X-1.012500X0*%
%ADD16RoundRect,0.237500X-0.237500X0.300000X-0.237500X-0.300000X0.237500X-0.300000X0.237500X0.300000X0*%
%ADD17RoundRect,0.237500X0.287500X0.237500X-0.287500X0.237500X-0.287500X-0.237500X0.287500X-0.237500X0*%
%ADD18RoundRect,0.150000X0.150000X-0.825000X0.150000X0.825000X-0.150000X0.825000X-0.150000X-0.825000X0*%
%ADD19RoundRect,0.150000X-0.150000X0.587500X-0.150000X-0.587500X0.150000X-0.587500X0.150000X0.587500X0*%
%ADD20RoundRect,0.237500X-0.237500X0.250000X-0.237500X-0.250000X0.237500X-0.250000X0.237500X0.250000X0*%
%ADD21RoundRect,0.250000X0.600000X0.750000X-0.600000X0.750000X-0.600000X-0.750000X0.600000X-0.750000X0*%
%ADD22O,1.700000X2.000000*%
%ADD23RoundRect,0.150000X0.587500X0.150000X-0.587500X0.150000X-0.587500X-0.150000X0.587500X-0.150000X0*%
%ADD24RoundRect,0.237500X0.250000X0.237500X-0.250000X0.237500X-0.250000X-0.237500X0.250000X-0.237500X0*%
%ADD25RoundRect,0.250000X1.050000X0.550000X-1.050000X0.550000X-1.050000X-0.550000X1.050000X-0.550000X0*%
%ADD26RoundRect,0.250000X0.600000X0.725000X-0.600000X0.725000X-0.600000X-0.725000X0.600000X-0.725000X0*%
%ADD27O,1.700000X1.950000*%
%ADD28RoundRect,0.250000X0.650000X1.550000X-0.650000X1.550000X-0.650000X-1.550000X0.650000X-1.550000X0*%
%ADD29O,1.800000X3.600000*%
%ADD30RoundRect,0.250001X-0.499999X0.499999X-0.499999X-0.499999X0.499999X-0.499999X0.499999X0.499999X0*%
%ADD31C,1.500000*%
%ADD32RoundRect,0.150000X0.200000X-0.150000X0.200000X0.150000X-0.200000X0.150000X-0.200000X-0.150000X0*%
%ADD33RoundRect,0.250000X0.550000X-1.050000X0.550000X1.050000X-0.550000X1.050000X-0.550000X-1.050000X0*%
%ADD34C,3.500000*%
%ADD35R,1.905000X2.000000*%
%ADD36O,1.905000X2.000000*%
G04 APERTURE END LIST*
D10*
X148971000Y-58737500D02*
X148971000Y-61277500D01*
X148082000Y-62166500D01*
X144907000Y-62166500D01*
X142367000Y-64706500D01*
X133985000Y-64706500D01*
X128016000Y-70675500D01*
X128016000Y-73596500D01*
X123952000Y-73596500D01*
X123317000Y-72961500D01*
X123317000Y-67881500D01*
X133350000Y-57848500D01*
X148082000Y-57848500D01*
X148971000Y-58737500D01*
G36*
X148971000Y-58737500D02*
G01*
X148971000Y-61277500D01*
X148082000Y-62166500D01*
X144907000Y-62166500D01*
X142367000Y-64706500D01*
X133985000Y-64706500D01*
X128016000Y-70675500D01*
X128016000Y-73596500D01*
X123952000Y-73596500D01*
X123317000Y-72961500D01*
X123317000Y-67881500D01*
X133350000Y-57848500D01*
X148082000Y-57848500D01*
X148971000Y-58737500D01*
G37*
X176149000Y-76200000D02*
X176149000Y-84963000D01*
X174117000Y-84963000D01*
X173863000Y-85217000D01*
X173863000Y-88582500D01*
X173679753Y-88773000D01*
X171475400Y-88773000D01*
X170942000Y-88239600D01*
X170942000Y-85191600D01*
X169418000Y-83820000D01*
X153924000Y-83820000D01*
X151511000Y-86836250D01*
X151511000Y-88201500D01*
X151511000Y-88709500D01*
X151213177Y-88950800D01*
X145903577Y-88950800D01*
X145542000Y-88566622D01*
X145542000Y-87524165D01*
X145941143Y-87058500D01*
X147209623Y-87058500D01*
X148570774Y-85492356D01*
X148543282Y-82025218D01*
X155829000Y-74739500D01*
X174752000Y-74739500D01*
X176149000Y-76200000D01*
G36*
X176149000Y-76200000D02*
G01*
X176149000Y-84963000D01*
X174117000Y-84963000D01*
X173863000Y-85217000D01*
X173863000Y-88582500D01*
X173679753Y-88773000D01*
X171475400Y-88773000D01*
X170942000Y-88239600D01*
X170942000Y-85191600D01*
X169418000Y-83820000D01*
X153924000Y-83820000D01*
X151511000Y-86836250D01*
X151511000Y-88201500D01*
X151511000Y-88709500D01*
X151213177Y-88950800D01*
X145903577Y-88950800D01*
X145542000Y-88566622D01*
X145542000Y-87524165D01*
X145941143Y-87058500D01*
X147209623Y-87058500D01*
X148570774Y-85492356D01*
X148543282Y-82025218D01*
X155829000Y-74739500D01*
X174752000Y-74739500D01*
X176149000Y-76200000D01*
G37*
X119507000Y-62166500D02*
X115062000Y-66611500D01*
X115062000Y-73596500D01*
X116103400Y-74637900D01*
X122326400Y-74637900D01*
X124206000Y-76517500D01*
X124206000Y-88328500D01*
X123698000Y-88836500D01*
X121412000Y-88836500D01*
X121031000Y-88455500D01*
X121031000Y-82486500D01*
X117094000Y-78549500D01*
X111760000Y-78549500D01*
X110998000Y-77787500D01*
X110998000Y-67945000D01*
X110998000Y-54927500D01*
X119507000Y-54927500D01*
X119507000Y-62166500D01*
G36*
X119507000Y-62166500D02*
G01*
X115062000Y-66611500D01*
X115062000Y-73596500D01*
X116103400Y-74637900D01*
X122326400Y-74637900D01*
X124206000Y-76517500D01*
X124206000Y-88328500D01*
X123698000Y-88836500D01*
X121412000Y-88836500D01*
X121031000Y-88455500D01*
X121031000Y-82486500D01*
X117094000Y-78549500D01*
X111760000Y-78549500D01*
X110998000Y-77787500D01*
X110998000Y-67945000D01*
X110998000Y-54927500D01*
X119507000Y-54927500D01*
X119507000Y-62166500D01*
G37*
X120015000Y-84709000D02*
X120015000Y-88455500D01*
X119634000Y-88836500D01*
X118872000Y-88836500D01*
X118491000Y-88455500D01*
X118491000Y-86423500D01*
X117729000Y-85661500D01*
X111633000Y-85661500D01*
X111379000Y-85915500D01*
X111379000Y-88479314D01*
X110930268Y-88900000D01*
X109448600Y-88900000D01*
X108966000Y-88447562D01*
X108966000Y-81153000D01*
X109728000Y-80391000D01*
X115697000Y-80391000D01*
X120015000Y-84709000D01*
G36*
X120015000Y-84709000D02*
G01*
X120015000Y-88455500D01*
X119634000Y-88836500D01*
X118872000Y-88836500D01*
X118491000Y-88455500D01*
X118491000Y-86423500D01*
X117729000Y-85661500D01*
X111633000Y-85661500D01*
X111379000Y-85915500D01*
X111379000Y-88479314D01*
X110930268Y-88900000D01*
X109448600Y-88900000D01*
X108966000Y-88447562D01*
X108966000Y-81153000D01*
X109728000Y-80391000D01*
X115697000Y-80391000D01*
X120015000Y-84709000D01*
G37*
X153797000Y-59118500D02*
X153797000Y-71945500D01*
X152654000Y-73088500D01*
X144145000Y-81597500D01*
X144145000Y-85534500D01*
X144526000Y-85915500D01*
X144526000Y-88455500D01*
X144145000Y-88836500D01*
X143383000Y-88836500D01*
X143002000Y-88455500D01*
X143002000Y-86677500D01*
X141859000Y-85534500D01*
X136652000Y-85534500D01*
X135509000Y-86677500D01*
X135509000Y-88328500D01*
X135001000Y-88836500D01*
X134239000Y-88836500D01*
X133731000Y-88328500D01*
X133731000Y-82613500D01*
X140843000Y-75501500D01*
X144907000Y-75501500D01*
X147955000Y-72453500D01*
X147955000Y-68008500D01*
X151511000Y-64452500D01*
X151511000Y-59118500D01*
X152146000Y-58483500D01*
X153162000Y-58483500D01*
X153797000Y-59118500D01*
G36*
X153797000Y-59118500D02*
G01*
X153797000Y-71945500D01*
X152654000Y-73088500D01*
X144145000Y-81597500D01*
X144145000Y-85534500D01*
X144526000Y-85915500D01*
X144526000Y-88455500D01*
X144145000Y-88836500D01*
X143383000Y-88836500D01*
X143002000Y-88455500D01*
X143002000Y-86677500D01*
X141859000Y-85534500D01*
X136652000Y-85534500D01*
X135509000Y-86677500D01*
X135509000Y-88328500D01*
X135001000Y-88836500D01*
X134239000Y-88836500D01*
X133731000Y-88328500D01*
X133731000Y-82613500D01*
X140843000Y-75501500D01*
X144907000Y-75501500D01*
X147955000Y-72453500D01*
X147955000Y-68008500D01*
X151511000Y-64452500D01*
X151511000Y-59118500D01*
X152146000Y-58483500D01*
X153162000Y-58483500D01*
X153797000Y-59118500D01*
G37*
D11*
%TO.C,HVDCBus1*%
X118237000Y-60198000D03*
D12*
X123317000Y-60198000D03*
%TD*%
D13*
%TO.C,R14*%
X141224000Y-92987500D03*
X141224000Y-91162500D03*
%TD*%
%TO.C,R20*%
X166624000Y-92987500D03*
X166624000Y-91162500D03*
%TD*%
D14*
%TO.C,C6*%
X111843000Y-105283000D03*
X115443000Y-105283000D03*
%TD*%
D15*
%TO.C,U6*%
X141097000Y-119603500D03*
X143637000Y-119603500D03*
X146177000Y-119603500D03*
X148717000Y-119603500D03*
X148717000Y-110553500D03*
X146177000Y-110553500D03*
X143637000Y-110553500D03*
X141097000Y-110553500D03*
%TD*%
D13*
%TO.C,R16*%
X170561000Y-103044000D03*
X170561000Y-101219000D03*
%TD*%
D16*
%TO.C,C9*%
X135509000Y-96446000D03*
X135509000Y-98171000D03*
%TD*%
D17*
%TO.C,D1*%
X141196000Y-125666500D03*
X139446000Y-125666500D03*
%TD*%
D13*
%TO.C,R19*%
X160401000Y-94154000D03*
X160401000Y-92329000D03*
%TD*%
D15*
%TO.C,U2*%
X104013000Y-119570500D03*
X106553000Y-119570500D03*
X109093000Y-119570500D03*
X111633000Y-119570500D03*
X111633000Y-110520500D03*
X109093000Y-110520500D03*
X106553000Y-110520500D03*
X104013000Y-110520500D03*
%TD*%
%TO.C,U3*%
X115951000Y-119570500D03*
X118491000Y-119570500D03*
X121031000Y-119570500D03*
X123571000Y-119570500D03*
X123571000Y-110520500D03*
X121031000Y-110520500D03*
X118491000Y-110520500D03*
X115951000Y-110520500D03*
%TD*%
D13*
%TO.C,R18*%
X168910000Y-103044000D03*
X168910000Y-101219000D03*
%TD*%
D18*
%TO.C,U10*%
X162560000Y-101343000D03*
X163830000Y-101343000D03*
X165100000Y-101343000D03*
X166370000Y-101343000D03*
X166370000Y-96393000D03*
X165100000Y-96393000D03*
X163830000Y-96393000D03*
X162560000Y-96393000D03*
%TD*%
D15*
%TO.C,U8*%
X153035000Y-119650500D03*
X155575000Y-119650500D03*
X158115000Y-119650500D03*
X160655000Y-119650500D03*
X160655000Y-110600500D03*
X158115000Y-110600500D03*
X155575000Y-110600500D03*
X153035000Y-110600500D03*
%TD*%
D19*
%TO.C,Q7*%
X105979000Y-104932000D03*
X104079000Y-104932000D03*
X105029000Y-106807000D03*
%TD*%
D16*
%TO.C,C7*%
X110236000Y-96446000D03*
X110236000Y-98171000D03*
%TD*%
D13*
%TO.C,R8*%
X116713000Y-93368500D03*
X116713000Y-91543500D03*
%TD*%
D20*
%TO.C,R15*%
X158115000Y-102823000D03*
X158115000Y-104648000D03*
%TD*%
D13*
%TO.C,R12*%
X144018000Y-103044000D03*
X144018000Y-101219000D03*
%TD*%
D14*
%TO.C,C10*%
X162008000Y-105283000D03*
X165608000Y-105283000D03*
%TD*%
D15*
%TO.C,U9*%
X165227000Y-119650500D03*
X167767000Y-119650500D03*
X170307000Y-119650500D03*
X172847000Y-119650500D03*
X172847000Y-110600500D03*
X170307000Y-110600500D03*
X167767000Y-110600500D03*
X165227000Y-110600500D03*
%TD*%
D13*
%TO.C,R6*%
X118745000Y-103044000D03*
X118745000Y-101219000D03*
%TD*%
D21*
%TO.C,12V_Inv1*%
X177024000Y-126401137D03*
D22*
X174524000Y-126401137D03*
%TD*%
D13*
%TO.C,R4*%
X120396000Y-103044000D03*
X120396000Y-101219000D03*
%TD*%
D23*
%TO.C,Q12*%
X171879500Y-98232000D03*
X171879500Y-96332000D03*
X170004500Y-97282000D03*
%TD*%
D15*
%TO.C,U5*%
X128651000Y-119603500D03*
X131191000Y-119603500D03*
X133731000Y-119603500D03*
X136271000Y-119603500D03*
X136271000Y-110553500D03*
X133731000Y-110553500D03*
X131191000Y-110553500D03*
X128651000Y-110553500D03*
%TD*%
D24*
%TO.C,R11*%
X131191000Y-102108000D03*
X129366000Y-102108000D03*
%TD*%
D25*
%TO.C,C2*%
X136406000Y-126528137D03*
X132806000Y-126528137D03*
%TD*%
D26*
%TO.C,Inv_Signal1*%
X110095000Y-126936500D03*
D27*
X107595000Y-126936500D03*
X105095000Y-126936500D03*
X102595000Y-126936500D03*
%TD*%
D13*
%TO.C,R10*%
X145669000Y-103044000D03*
X145669000Y-101219000D03*
%TD*%
D24*
%TO.C,R5*%
X105918000Y-102108000D03*
X104093000Y-102108000D03*
%TD*%
D16*
%TO.C,C11*%
X160401000Y-96446000D03*
X160401000Y-98171000D03*
%TD*%
D28*
%TO.C,Motor_Out1*%
X157734000Y-59690000D03*
D29*
X152654000Y-59690000D03*
X147574000Y-59690000D03*
%TD*%
D30*
%TO.C,U1*%
X161784000Y-128079500D03*
D31*
X159244000Y-128079500D03*
X154164000Y-128079500D03*
X149084000Y-128079500D03*
%TD*%
D14*
%TO.C,C8*%
X137116000Y-105283000D03*
X140716000Y-105283000D03*
%TD*%
D13*
%TO.C,R13*%
X135509000Y-94154000D03*
X135509000Y-92329000D03*
%TD*%
D18*
%TO.C,U4*%
X112395000Y-101343000D03*
X113665000Y-101343000D03*
X114935000Y-101343000D03*
X116205000Y-101343000D03*
X116205000Y-96393000D03*
X114935000Y-96393000D03*
X113665000Y-96393000D03*
X112395000Y-96393000D03*
%TD*%
D23*
%TO.C,Q8*%
X121714500Y-98232000D03*
X121714500Y-96332000D03*
X119839500Y-97282000D03*
%TD*%
D20*
%TO.C,R3*%
X107950000Y-102823000D03*
X107950000Y-104648000D03*
%TD*%
D32*
%TO.C,D9*%
X156337000Y-95406000D03*
X156337000Y-96806000D03*
%TD*%
D18*
%TO.C,U7*%
X137668000Y-101343000D03*
X138938000Y-101343000D03*
X140208000Y-101343000D03*
X141478000Y-101343000D03*
X141478000Y-96393000D03*
X140208000Y-96393000D03*
X138938000Y-96393000D03*
X137668000Y-96393000D03*
%TD*%
D32*
%TO.C,D7*%
X106172000Y-95406000D03*
X106172000Y-96806000D03*
%TD*%
D24*
%TO.C,R17*%
X156083000Y-102108000D03*
X154258000Y-102108000D03*
%TD*%
%TO.C,R1*%
X141233500Y-127571500D03*
X139408500Y-127571500D03*
%TD*%
D23*
%TO.C,Q10*%
X146987500Y-98232000D03*
X146987500Y-96332000D03*
X145112500Y-97282000D03*
%TD*%
D19*
%TO.C,Q9*%
X131252000Y-104932000D03*
X129352000Y-104932000D03*
X130302000Y-106807000D03*
%TD*%
D32*
%TO.C,D8*%
X131445000Y-95406000D03*
X131445000Y-96806000D03*
%TD*%
D13*
%TO.C,R7*%
X110236000Y-94154000D03*
X110236000Y-92329000D03*
%TD*%
D26*
%TO.C,Inv_Signal2*%
X126605000Y-126936500D03*
D27*
X124105000Y-126936500D03*
X121605000Y-126936500D03*
X119105000Y-126936500D03*
%TD*%
D19*
%TO.C,Q11*%
X156144000Y-104932000D03*
X154244000Y-104932000D03*
X155194000Y-106807000D03*
%TD*%
D20*
%TO.C,R9*%
X133223000Y-102823000D03*
X133223000Y-104648000D03*
%TD*%
D33*
%TO.C,C1*%
X168007000Y-128355500D03*
X168007000Y-124755500D03*
%TD*%
D34*
%TO.C,Q6*%
X169164000Y-71224000D03*
D35*
X166624000Y-87884000D03*
D36*
X169164000Y-87884000D03*
X171704000Y-87884000D03*
%TD*%
D34*
%TO.C,Q4*%
X143764000Y-71351000D03*
D35*
X141224000Y-88011000D03*
D36*
X143764000Y-88011000D03*
X146304000Y-88011000D03*
%TD*%
D34*
%TO.C,Q1*%
X107315000Y-71351000D03*
D35*
X104775000Y-88011000D03*
D36*
X107315000Y-88011000D03*
X109855000Y-88011000D03*
%TD*%
D34*
%TO.C,Q3*%
X132080000Y-71351000D03*
D35*
X129540000Y-88011000D03*
D36*
X132080000Y-88011000D03*
X134620000Y-88011000D03*
%TD*%
D34*
%TO.C,Q2*%
X119253000Y-71351000D03*
D35*
X116713000Y-88011000D03*
D36*
X119253000Y-88011000D03*
X121793000Y-88011000D03*
%TD*%
D34*
%TO.C,Q5*%
X157353000Y-71224000D03*
D35*
X154813000Y-87884000D03*
D36*
X157353000Y-87884000D03*
X159893000Y-87884000D03*
%TD*%
M02*
