%TF.GenerationSoftware,KiCad,Pcbnew,9.0.3*%
%TF.CreationDate,2025-08-21T00:35:24-03:00*%
%TF.ProjectId,PCB_Inversor,5043425f-496e-4766-9572-736f722e6b69,rev?*%
%TF.SameCoordinates,Original*%
%TF.FileFunction,Copper,L2,Bot*%
%TF.FilePolarity,Positive*%
%FSLAX46Y46*%
G04 Gerber Fmt 4.6, Leading zero omitted, Abs format (unit mm)*
G04 Created by KiCad (PCBNEW 9.0.3) date 2025-08-21 00:35:24*
%MOMM*%
%LPD*%
G01*
G04 APERTURE LIST*
G04 Aperture macros list*
%AMRoundRect*
0 Rectangle with rounded corners*
0 $1 Rounding radius*
0 $2 $3 $4 $5 $6 $7 $8 $9 X,Y pos of 4 corners*
0 Add a 4 corners polygon primitive as box body*
4,1,4,$2,$3,$4,$5,$6,$7,$8,$9,$2,$3,0*
0 Add four circle primitives for the rounded corners*
1,1,$1+$1,$2,$3*
1,1,$1+$1,$4,$5*
1,1,$1+$1,$6,$7*
1,1,$1+$1,$8,$9*
0 Add four rect primitives between the rounded corners*
20,1,$1+$1,$2,$3,$4,$5,0*
20,1,$1+$1,$4,$5,$6,$7,0*
20,1,$1+$1,$6,$7,$8,$9,0*
20,1,$1+$1,$8,$9,$2,$3,0*%
G04 Aperture macros list end*
%TA.AperFunction,Conductor*%
%ADD10C,0.200000*%
%TD*%
%TA.AperFunction,ComponentPad*%
%ADD11RoundRect,0.249999X-0.790001X-1.550001X0.790001X-1.550001X0.790001X1.550001X-0.790001X1.550001X0*%
%TD*%
%TA.AperFunction,ComponentPad*%
%ADD12O,2.080000X3.600000*%
%TD*%
%TA.AperFunction,ComponentPad*%
%ADD13RoundRect,0.250000X0.620000X0.845000X-0.620000X0.845000X-0.620000X-0.845000X0.620000X-0.845000X0*%
%TD*%
%TA.AperFunction,ComponentPad*%
%ADD14O,1.740000X2.190000*%
%TD*%
%TA.AperFunction,ComponentPad*%
%ADD15RoundRect,0.250000X0.650000X1.550000X-0.650000X1.550000X-0.650000X-1.550000X0.650000X-1.550000X0*%
%TD*%
%TA.AperFunction,ComponentPad*%
%ADD16O,1.800000X3.600000*%
%TD*%
%TA.AperFunction,ComponentPad*%
%ADD17RoundRect,0.250001X-0.499999X0.499999X-0.499999X-0.499999X0.499999X-0.499999X0.499999X0.499999X0*%
%TD*%
%TA.AperFunction,ComponentPad*%
%ADD18C,1.500000*%
%TD*%
%TA.AperFunction,ComponentPad*%
%ADD19R,1.905000X2.000000*%
%TD*%
%TA.AperFunction,ComponentPad*%
%ADD20O,1.905000X2.000000*%
%TD*%
%TA.AperFunction,ViaPad*%
%ADD21C,0.508000*%
%TD*%
%TA.AperFunction,ViaPad*%
%ADD22C,0.600000*%
%TD*%
%TA.AperFunction,Conductor*%
%ADD23C,0.406400*%
%TD*%
%TA.AperFunction,Conductor*%
%ADD24C,2.286000*%
%TD*%
%TA.AperFunction,Conductor*%
%ADD25C,1.778000*%
%TD*%
G04 APERTURE END LIST*
D10*
%TO.N,/Inversor/HVDC_Bus*%
X139573000Y-64008000D02*
X139573000Y-73025000D01*
X142367000Y-75819000D01*
X157226000Y-75819000D01*
X158369000Y-76962000D01*
X158369000Y-82423000D01*
X158143222Y-82677000D01*
X146812000Y-82677000D01*
X145288000Y-81153000D01*
X145288000Y-81026000D01*
X137033000Y-81026000D01*
X135890000Y-79883000D01*
X135890000Y-69723000D01*
X134239000Y-68072000D01*
X116713000Y-68072000D01*
X114808000Y-69977000D01*
X114808000Y-79121000D01*
X109728000Y-84201000D01*
X105410000Y-84201000D01*
X104013000Y-82931000D01*
X104013000Y-78105000D01*
X106553000Y-75565000D01*
X108585000Y-75565000D01*
X110490000Y-73660000D01*
X110490000Y-68453000D01*
X114681000Y-64262000D01*
X121412000Y-64262000D01*
X122301000Y-63373000D01*
X122301000Y-58928000D01*
X122682000Y-58547000D01*
X134112000Y-58547000D01*
X139573000Y-64008000D01*
%TA.AperFunction,Conductor*%
G36*
X139573000Y-64008000D02*
G01*
X139573000Y-73025000D01*
X142367000Y-75819000D01*
X157226000Y-75819000D01*
X158369000Y-76962000D01*
X158369000Y-82423000D01*
X158143222Y-82677000D01*
X146812000Y-82677000D01*
X145288000Y-81153000D01*
X145288000Y-81026000D01*
X137033000Y-81026000D01*
X135890000Y-79883000D01*
X135890000Y-69723000D01*
X134239000Y-68072000D01*
X116713000Y-68072000D01*
X114808000Y-69977000D01*
X114808000Y-79121000D01*
X109728000Y-84201000D01*
X105410000Y-84201000D01*
X104013000Y-82931000D01*
X104013000Y-78105000D01*
X106553000Y-75565000D01*
X108585000Y-75565000D01*
X110490000Y-73660000D01*
X110490000Y-68453000D01*
X114681000Y-64262000D01*
X121412000Y-64262000D01*
X122301000Y-63373000D01*
X122301000Y-58928000D01*
X122682000Y-58547000D01*
X134112000Y-58547000D01*
X139573000Y-64008000D01*
G37*
%TD.AperFunction*%
%TO.N,Mid_V*%
X153924000Y-59118500D02*
X153924000Y-70040500D01*
X153035000Y-70929500D01*
X148717000Y-70929500D01*
X147828000Y-70040500D01*
X147828000Y-67881500D01*
X151384000Y-64325500D01*
X151384000Y-58991500D01*
X152019000Y-58356500D01*
X153162000Y-58356500D01*
X153924000Y-59118500D01*
%TA.AperFunction,Conductor*%
G36*
X153924000Y-59118500D02*
G01*
X153924000Y-70040500D01*
X153035000Y-70929500D01*
X148717000Y-70929500D01*
X147828000Y-70040500D01*
X147828000Y-67881500D01*
X151384000Y-64325500D01*
X151384000Y-58991500D01*
X152019000Y-58356500D01*
X153162000Y-58356500D01*
X153924000Y-59118500D01*
G37*
%TD.AperFunction*%
%TO.N,Mid_U*%
X128016000Y-79946500D02*
X123952000Y-84010500D01*
X120904000Y-84010500D01*
X120015000Y-84899500D01*
X120015000Y-88455500D01*
X119634000Y-88836500D01*
X118872000Y-88836500D01*
X118491000Y-88455500D01*
X118491000Y-85026500D01*
X117856000Y-84391500D01*
X117856000Y-78041500D01*
X123317000Y-72580500D01*
X123317000Y-70040500D01*
X128016000Y-70040500D01*
X128016000Y-79946500D01*
%TA.AperFunction,Conductor*%
G36*
X128016000Y-79946500D02*
G01*
X123952000Y-84010500D01*
X120904000Y-84010500D01*
X120015000Y-84899500D01*
X120015000Y-88455500D01*
X119634000Y-88836500D01*
X118872000Y-88836500D01*
X118491000Y-88455500D01*
X118491000Y-85026500D01*
X117856000Y-84391500D01*
X117856000Y-78041500D01*
X123317000Y-72580500D01*
X123317000Y-70040500D01*
X128016000Y-70040500D01*
X128016000Y-79946500D01*
G37*
%TD.AperFunction*%
%TO.N,GND_Inv*%
X171436000Y-55662137D02*
X171436000Y-60742137D01*
X173749214Y-62901137D01*
X177835054Y-62901137D01*
X179197000Y-64263083D01*
X179181571Y-87254154D01*
X177752630Y-88682137D01*
X171436000Y-88682137D01*
X170942000Y-88201500D01*
X170942000Y-82402433D01*
X168021000Y-79518525D01*
X168021000Y-74676000D01*
X171069000Y-74676000D01*
X172974000Y-72771000D01*
X172974000Y-69342000D01*
X170942000Y-67310000D01*
X167513000Y-67310000D01*
X161036000Y-60833000D01*
X161036000Y-57150000D01*
X160909000Y-57023000D01*
X120205500Y-57023000D01*
X119507000Y-57721500D01*
X119507000Y-61468000D01*
X118999000Y-61976000D01*
X105777000Y-61976000D01*
X105777000Y-54900137D01*
X170674000Y-54900137D01*
X171436000Y-55662137D01*
%TA.AperFunction,Conductor*%
G36*
X171436000Y-55662137D02*
G01*
X171436000Y-60742137D01*
X173749214Y-62901137D01*
X177835054Y-62901137D01*
X179197000Y-64263083D01*
X179181571Y-87254154D01*
X177752630Y-88682137D01*
X171436000Y-88682137D01*
X170942000Y-88201500D01*
X170942000Y-82402433D01*
X168021000Y-79518525D01*
X168021000Y-74676000D01*
X171069000Y-74676000D01*
X172974000Y-72771000D01*
X172974000Y-69342000D01*
X170942000Y-67310000D01*
X167513000Y-67310000D01*
X161036000Y-60833000D01*
X161036000Y-57150000D01*
X160909000Y-57023000D01*
X120205500Y-57023000D01*
X119507000Y-57721500D01*
X119507000Y-61468000D01*
X118999000Y-61976000D01*
X105777000Y-61976000D01*
X105777000Y-54900137D01*
X170674000Y-54900137D01*
X171436000Y-55662137D01*
G37*
%TD.AperFunction*%
%TO.N,Mid_U*%
X148971000Y-58737500D02*
X148971000Y-61277500D01*
X148082000Y-62166500D01*
X141986000Y-62166500D01*
X137668000Y-57848500D01*
X148082000Y-57848500D01*
X148971000Y-58737500D01*
%TA.AperFunction,Conductor*%
G36*
X148971000Y-58737500D02*
G01*
X148971000Y-61277500D01*
X148082000Y-62166500D01*
X141986000Y-62166500D01*
X137668000Y-57848500D01*
X148082000Y-57848500D01*
X148971000Y-58737500D01*
G37*
%TD.AperFunction*%
%TO.N,Mid_W*%
X158736000Y-59218137D02*
X158736000Y-62647137D01*
X165481000Y-69215000D01*
X165481000Y-80264000D01*
X170053000Y-84884777D01*
X170053000Y-88265000D01*
X169545000Y-88773000D01*
X168910000Y-88773000D01*
X168402000Y-88265000D01*
X168402000Y-86360000D01*
X167513000Y-85471000D01*
X162636200Y-85471000D01*
X162052000Y-85957834D01*
X162052000Y-88773000D01*
X159512001Y-88773000D01*
X159131000Y-88328499D01*
X159131000Y-84074000D01*
X160782000Y-82423000D01*
X160782000Y-69215000D01*
X156718000Y-65087500D01*
X156718000Y-62484000D01*
X156704000Y-59345137D01*
X157212000Y-58710137D01*
X158228000Y-58710137D01*
X158736000Y-59218137D01*
%TA.AperFunction,Conductor*%
G36*
X158736000Y-59218137D02*
G01*
X158736000Y-62647137D01*
X165481000Y-69215000D01*
X165481000Y-80264000D01*
X170053000Y-84884777D01*
X170053000Y-88265000D01*
X169545000Y-88773000D01*
X168910000Y-88773000D01*
X168402000Y-88265000D01*
X168402000Y-86360000D01*
X167513000Y-85471000D01*
X162636200Y-85471000D01*
X162052000Y-85957834D01*
X162052000Y-88773000D01*
X159512001Y-88773000D01*
X159131000Y-88328499D01*
X159131000Y-84074000D01*
X160782000Y-82423000D01*
X160782000Y-69215000D01*
X156718000Y-65087500D01*
X156718000Y-62484000D01*
X156704000Y-59345137D01*
X157212000Y-58710137D01*
X158228000Y-58710137D01*
X158736000Y-59218137D01*
G37*
%TD.AperFunction*%
%TD*%
D11*
%TO.P,HVDCBus1,1,Pin_1*%
%TO.N,GND_Inv*%
X118237000Y-60198000D03*
D12*
%TO.P,HVDCBus1,2,Pin_2*%
%TO.N,/Inversor/HVDC_Bus*%
X123317000Y-60198000D03*
%TD*%
D13*
%TO.P,12V_Inv1,1,Pin_1*%
%TO.N,Net-(12V_Inv1-Pin_1)*%
X177024000Y-126401137D03*
D14*
%TO.P,12V_Inv1,2,Pin_2*%
%TO.N,Net-(12V_Inv1-Pin_2)*%
X174484000Y-126401137D03*
%TD*%
D13*
%TO.P,Inv_Signal1,1,Pin_1*%
%TO.N,Signal_V_In*%
X110095000Y-126936500D03*
D14*
%TO.P,Inv_Signal1,2,Pin_2*%
%TO.N,/Inversor/Gnd_Micro*%
X107555000Y-126936500D03*
%TO.P,Inv_Signal1,3,Pin_3*%
%TO.N,Signal_U_Sd*%
X105015000Y-126936500D03*
%TO.P,Inv_Signal1,4,Pin_4*%
%TO.N,Signal_U_In*%
X102475000Y-126936500D03*
%TD*%
D15*
%TO.P,Motor_Out1,1,Pin_1*%
%TO.N,Mid_W*%
X157734000Y-59690000D03*
D16*
%TO.P,Motor_Out1,2,Pin_2*%
%TO.N,Mid_V*%
X152654000Y-59690000D03*
%TO.P,Motor_Out1,3,Pin_3*%
%TO.N,Mid_U*%
X147574000Y-59690000D03*
%TD*%
D17*
%TO.P,U1,1,+Vin*%
%TO.N,Net-(12V_Inv1-Pin_2)*%
X161784000Y-128079500D03*
D18*
%TO.P,U1,2,-Vin*%
%TO.N,Net-(12V_Inv1-Pin_1)*%
X159244000Y-128079500D03*
%TO.P,U1,4,-Vout*%
%TO.N,GND_Inv*%
X154164000Y-128079500D03*
%TO.P,U1,6,+Vout*%
%TO.N,/Inversor/12V_Inv*%
X149084000Y-128079500D03*
%TD*%
D13*
%TO.P,Inv_Signal2,1,Pin_1*%
%TO.N,Signal_W_Sd*%
X126605000Y-126936500D03*
D14*
%TO.P,Inv_Signal2,2,Pin_2*%
%TO.N,/Inversor/Gnd_Micro*%
X124065000Y-126936500D03*
%TO.P,Inv_Signal2,3,Pin_3*%
%TO.N,Signal_W_In*%
X121525000Y-126936500D03*
%TO.P,Inv_Signal2,4,Pin_4*%
%TO.N,Signal_V_Sd*%
X118985000Y-126936500D03*
%TD*%
D19*
%TO.P,Q6,1,G*%
%TO.N,Gate_W_Low*%
X166624000Y-87884000D03*
D20*
%TO.P,Q6,2,D*%
%TO.N,Mid_W*%
X169164000Y-87884000D03*
%TO.P,Q6,3,S*%
%TO.N,GND_Inv*%
X171704000Y-87884000D03*
%TD*%
D19*
%TO.P,Q4,1,G*%
%TO.N,Gate_V_Low*%
X141224000Y-88011000D03*
D20*
%TO.P,Q4,2,D*%
%TO.N,Mid_V*%
X143764000Y-88011000D03*
%TO.P,Q4,3,S*%
%TO.N,GND_Inv*%
X146304000Y-88011000D03*
%TD*%
D19*
%TO.P,Q1,1,G*%
%TO.N,Gate_U_High*%
X104775000Y-88011000D03*
D20*
%TO.P,Q1,2,D*%
%TO.N,/Inversor/HVDC_Bus*%
X107315000Y-88011000D03*
%TO.P,Q1,3,S*%
%TO.N,Mid_U*%
X109855000Y-88011000D03*
%TD*%
D19*
%TO.P,Q3,1,G*%
%TO.N,Gate_V_High*%
X129540000Y-88011000D03*
D20*
%TO.P,Q3,2,D*%
%TO.N,/Inversor/HVDC_Bus*%
X132080000Y-88011000D03*
%TO.P,Q3,3,S*%
%TO.N,Mid_V*%
X134620000Y-88011000D03*
%TD*%
D19*
%TO.P,Q2,1,G*%
%TO.N,Gate_U_Low*%
X116713000Y-88011000D03*
D20*
%TO.P,Q2,2,D*%
%TO.N,Mid_U*%
X119253000Y-88011000D03*
%TO.P,Q2,3,S*%
%TO.N,GND_Inv*%
X121793000Y-88011000D03*
%TD*%
D19*
%TO.P,Q5,1,G*%
%TO.N,Gate_W_High*%
X154813000Y-87884000D03*
D20*
%TO.P,Q5,2,D*%
%TO.N,/Inversor/HVDC_Bus*%
X157353000Y-87884000D03*
%TO.P,Q5,3,S*%
%TO.N,Mid_W*%
X159893000Y-87884000D03*
%TD*%
D21*
%TO.N,GND_Inv*%
X115189000Y-58229500D03*
X113157000Y-59245500D03*
X112141000Y-57213500D03*
X112141000Y-59245500D03*
X112141000Y-58229500D03*
X115189000Y-61277500D03*
X115189000Y-60261500D03*
X115189000Y-59245500D03*
X115189000Y-57213500D03*
X115189000Y-56197500D03*
X113157000Y-61277500D03*
X114173000Y-59245500D03*
X114173000Y-61277500D03*
X113157000Y-60261500D03*
X113157000Y-58229500D03*
X113157000Y-57213500D03*
X114173000Y-56197500D03*
D22*
X175768000Y-113220500D03*
D21*
X114173000Y-57213500D03*
X112141000Y-56197500D03*
X112141000Y-61277500D03*
X112141000Y-60261500D03*
X114173000Y-60261500D03*
X114173000Y-58229500D03*
X113157000Y-56197500D03*
D22*
%TO.N,/Inversor/12V_Inv*%
X162941000Y-110998000D03*
X138684000Y-110998000D03*
X113792000Y-110998000D03*
D21*
%TO.N,Mid_U*%
X127254000Y-70548500D03*
X127254000Y-71564500D03*
X144145000Y-58356500D03*
X142113000Y-59372500D03*
X126238000Y-70548500D03*
X144145000Y-61404500D03*
X141097000Y-58356500D03*
X127254000Y-72580500D03*
X126238000Y-72580500D03*
X125222000Y-72580500D03*
X124206000Y-70548500D03*
X142113000Y-60388500D03*
X141097000Y-59372500D03*
X142113000Y-61404500D03*
X144145000Y-60388500D03*
X142113000Y-58356500D03*
X126238000Y-71564500D03*
X124206000Y-71564500D03*
X144145000Y-59372500D03*
X141097000Y-60388500D03*
X143129000Y-59372500D03*
X125222000Y-70548500D03*
X143129000Y-60388500D03*
X125222000Y-71564500D03*
X124206000Y-72580500D03*
X143129000Y-61404500D03*
X143129000Y-58356500D03*
%TO.N,Mid_V*%
X153416000Y-68516500D03*
X150368000Y-69532500D03*
X153416000Y-67500500D03*
X151384000Y-66484500D03*
X151384000Y-68516500D03*
X152400000Y-69532500D03*
X152400000Y-66484500D03*
X150368000Y-66484500D03*
X153416000Y-69532500D03*
X151384000Y-69532500D03*
X150368000Y-68516500D03*
X152400000Y-67500500D03*
X150368000Y-67500500D03*
X153416000Y-66484500D03*
X151384000Y-67500500D03*
X152400000Y-68516500D03*
%TD*%
D23*
%TO.N,GND_Inv*%
X152894028Y-128079500D02*
X154164000Y-128079500D01*
X152774014Y-127959486D02*
X152894028Y-128079500D01*
D24*
X118237000Y-60198000D02*
X118237000Y-58039000D01*
D23*
X175768000Y-118046500D02*
X173736000Y-120078500D01*
X173736000Y-120078500D02*
X156972000Y-120078500D01*
X156972000Y-120078500D02*
X152774014Y-124276486D01*
X152774014Y-124276486D02*
X152774014Y-127959486D01*
X175768000Y-113220500D02*
X175768000Y-118046500D01*
D24*
%TO.N,/Inversor/HVDC_Bus*%
X151257000Y-78359000D02*
X154051000Y-78359000D01*
D25*
X137160000Y-78359000D02*
X132080000Y-83439000D01*
X132080000Y-88011000D02*
X132080000Y-84709000D01*
D24*
X136772000Y-78359000D02*
X136772000Y-68199000D01*
X130136509Y-66682000D02*
X131699000Y-66682000D01*
X123317000Y-60198000D02*
X123317000Y-61856000D01*
X107315000Y-79375000D02*
X107315000Y-88011000D01*
D25*
X154051000Y-78359000D02*
X157353000Y-81661000D01*
D24*
X131699000Y-66682000D02*
X133036032Y-66682000D01*
X107315000Y-79375000D02*
X112776000Y-73914000D01*
X154051000Y-78359000D02*
X137160000Y-78359000D01*
D25*
X157353000Y-81661000D02*
X157353000Y-87884000D01*
X132080000Y-84709000D02*
X132080000Y-83439000D01*
D24*
X129787000Y-66682000D02*
X131699000Y-66682000D01*
X136772000Y-68199000D02*
X135255000Y-66682000D01*
D23*
%TO.N,/Inversor/12V_Inv*%
X142240000Y-114300000D02*
X142240000Y-122442713D01*
X162941000Y-113411000D02*
X162306000Y-114046000D01*
X138684000Y-113919000D02*
X138684000Y-110998000D01*
X162941000Y-110998000D02*
X162941000Y-113411000D01*
X147701000Y-127903713D02*
X147701000Y-127952500D01*
X147701000Y-127952500D02*
X147828000Y-128079500D01*
X141986000Y-114046000D02*
X160782000Y-114046000D01*
X113792000Y-113538000D02*
X114300000Y-114046000D01*
X141986000Y-114046000D02*
X142240000Y-114300000D01*
X147828000Y-128079500D02*
X149084000Y-128079500D01*
X160782000Y-114046000D02*
X162306000Y-114046000D01*
X114300000Y-114046000D02*
X141986000Y-114046000D01*
X113792000Y-110998000D02*
X113792000Y-113538000D01*
X142240000Y-122442713D02*
X147701000Y-127903713D01*
D24*
%TO.N,Mid_U*%
X119253000Y-81534000D02*
X119253000Y-84201000D01*
X119253000Y-82296000D02*
X119253000Y-81534000D01*
X119253000Y-84201000D02*
X119253000Y-82296000D01*
D25*
X119253000Y-88011000D02*
X119253000Y-84201000D01*
D24*
X141351000Y-59690000D02*
X147574000Y-59690000D01*
X119253000Y-78994000D02*
X119253000Y-81534000D01*
X125590000Y-72657000D02*
X119253000Y-78994000D01*
D25*
%TO.N,Mid_V*%
X143764000Y-85979000D02*
X143764000Y-88011000D01*
X134620000Y-85979000D02*
X136144000Y-84455000D01*
X136144000Y-84455000D02*
X142240000Y-84455000D01*
X134620000Y-88011000D02*
X134620000Y-85979000D01*
X142240000Y-84455000D02*
X143764000Y-85979000D01*
D24*
%TO.N,Mid_W*%
X163449000Y-70231000D02*
X157734000Y-64516000D01*
X163449000Y-84074000D02*
X163449000Y-70231000D01*
X157734000Y-64516000D02*
X157734000Y-59690000D01*
X161544000Y-84074000D02*
X163449000Y-84074000D01*
%TD*%
%TA.AperFunction,Conductor*%
%TO.N,GND_Inv*%
G36*
X179900474Y-90685889D02*
G01*
X179946317Y-90738616D01*
X179957609Y-90790316D01*
X179957609Y-113500431D01*
X179937924Y-113567470D01*
X179885120Y-113613225D01*
X179834024Y-113624430D01*
X163894582Y-113677739D01*
X163827477Y-113658279D01*
X163781546Y-113605628D01*
X163771371Y-113536504D01*
X163772545Y-113529574D01*
X163779700Y-113493605D01*
X163779700Y-113328395D01*
X163779700Y-111442442D01*
X163789139Y-111394989D01*
X163840549Y-111270875D01*
X163876500Y-111090139D01*
X163876500Y-110905861D01*
X163876500Y-110905858D01*
X163840550Y-110725130D01*
X163840549Y-110725129D01*
X163840549Y-110725125D01*
X163770029Y-110554875D01*
X163770028Y-110554874D01*
X163770025Y-110554868D01*
X163667650Y-110401654D01*
X163667647Y-110401650D01*
X163537349Y-110271352D01*
X163537345Y-110271349D01*
X163384131Y-110168974D01*
X163384122Y-110168969D01*
X163213875Y-110098451D01*
X163213869Y-110098449D01*
X163033141Y-110062500D01*
X163033139Y-110062500D01*
X162848861Y-110062500D01*
X162848859Y-110062500D01*
X162668130Y-110098449D01*
X162668124Y-110098451D01*
X162497877Y-110168969D01*
X162497868Y-110168974D01*
X162344654Y-110271349D01*
X162344650Y-110271352D01*
X162214352Y-110401650D01*
X162214349Y-110401654D01*
X162111974Y-110554868D01*
X162111969Y-110554877D01*
X162041451Y-110725124D01*
X162041449Y-110725130D01*
X162005500Y-110905858D01*
X162005500Y-110905861D01*
X162005500Y-111090139D01*
X162005500Y-111090141D01*
X162005499Y-111090141D01*
X162041449Y-111270869D01*
X162041451Y-111270875D01*
X162092861Y-111394989D01*
X162102300Y-111442442D01*
X162102300Y-113012237D01*
X162093655Y-113041677D01*
X162087132Y-113071664D01*
X162083377Y-113076679D01*
X162082615Y-113079276D01*
X162065981Y-113099918D01*
X161994918Y-113170981D01*
X161933595Y-113204466D01*
X161907237Y-113207300D01*
X139646700Y-113207300D01*
X139579661Y-113187615D01*
X139533906Y-113134811D01*
X139522700Y-113083300D01*
X139522700Y-111442442D01*
X139532139Y-111394989D01*
X139583549Y-111270875D01*
X139619500Y-111090139D01*
X139619500Y-110905861D01*
X139619500Y-110905858D01*
X139583550Y-110725130D01*
X139583549Y-110725129D01*
X139583549Y-110725125D01*
X139513029Y-110554875D01*
X139513028Y-110554874D01*
X139513025Y-110554868D01*
X139410650Y-110401654D01*
X139410647Y-110401650D01*
X139280349Y-110271352D01*
X139280345Y-110271349D01*
X139127131Y-110168974D01*
X139127122Y-110168969D01*
X138956875Y-110098451D01*
X138956869Y-110098449D01*
X138776141Y-110062500D01*
X138776139Y-110062500D01*
X138591861Y-110062500D01*
X138591859Y-110062500D01*
X138411130Y-110098449D01*
X138411124Y-110098451D01*
X138240877Y-110168969D01*
X138240868Y-110168974D01*
X138087654Y-110271349D01*
X138087650Y-110271352D01*
X137957352Y-110401650D01*
X137957349Y-110401654D01*
X137854974Y-110554868D01*
X137854969Y-110554877D01*
X137784451Y-110725124D01*
X137784449Y-110725130D01*
X137748500Y-110905858D01*
X137748500Y-110905861D01*
X137748500Y-111090139D01*
X137748500Y-111090141D01*
X137748499Y-111090141D01*
X137784449Y-111270869D01*
X137784451Y-111270875D01*
X137835861Y-111394989D01*
X137845300Y-111442442D01*
X137845300Y-113083300D01*
X137825615Y-113150339D01*
X137772811Y-113196094D01*
X137721300Y-113207300D01*
X114754700Y-113207300D01*
X114687661Y-113187615D01*
X114641906Y-113134811D01*
X114630700Y-113083300D01*
X114630700Y-111442442D01*
X114640139Y-111394989D01*
X114691549Y-111270875D01*
X114727500Y-111090139D01*
X114727500Y-110905861D01*
X114727500Y-110905858D01*
X114691550Y-110725130D01*
X114691549Y-110725129D01*
X114691549Y-110725125D01*
X114621029Y-110554875D01*
X114621028Y-110554874D01*
X114621025Y-110554868D01*
X114518650Y-110401654D01*
X114518647Y-110401650D01*
X114388349Y-110271352D01*
X114388345Y-110271349D01*
X114235131Y-110168974D01*
X114235122Y-110168969D01*
X114064875Y-110098451D01*
X114064869Y-110098449D01*
X113884141Y-110062500D01*
X113884139Y-110062500D01*
X113699861Y-110062500D01*
X113699859Y-110062500D01*
X113519130Y-110098449D01*
X113519124Y-110098451D01*
X113348877Y-110168969D01*
X113348868Y-110168974D01*
X113195654Y-110271349D01*
X113195650Y-110271352D01*
X113065352Y-110401650D01*
X113065349Y-110401654D01*
X112962974Y-110554868D01*
X112962969Y-110554877D01*
X112892451Y-110725124D01*
X112892449Y-110725130D01*
X112856500Y-110905858D01*
X112856500Y-110905861D01*
X112856500Y-111090139D01*
X112856500Y-111090141D01*
X112856499Y-111090141D01*
X112892449Y-111270869D01*
X112892451Y-111270875D01*
X112943861Y-111394989D01*
X112953300Y-111442442D01*
X112953300Y-113620609D01*
X112969147Y-113700276D01*
X112962920Y-113769867D01*
X112920057Y-113825045D01*
X112854167Y-113848289D01*
X112847945Y-113848466D01*
X96898715Y-113901809D01*
X96831610Y-113882349D01*
X96785679Y-113829698D01*
X96774300Y-113777824D01*
X96772015Y-90929017D01*
X96791693Y-90861978D01*
X96844492Y-90816218D01*
X96895803Y-90805007D01*
X149609739Y-90716857D01*
X149676809Y-90736430D01*
X149722652Y-90789157D01*
X149732711Y-90858299D01*
X149703793Y-90921903D01*
X149675916Y-90945851D01*
X149423837Y-91104244D01*
X149186696Y-91293357D01*
X148972220Y-91507833D01*
X148783107Y-91744974D01*
X148621733Y-92001798D01*
X148490133Y-92275068D01*
X148389957Y-92561353D01*
X148389953Y-92561365D01*
X148322460Y-92857074D01*
X148322457Y-92857088D01*
X148288500Y-93158473D01*
X148288500Y-93461800D01*
X148322457Y-93763185D01*
X148322460Y-93763199D01*
X148389953Y-94058908D01*
X148389957Y-94058920D01*
X148490133Y-94345205D01*
X148621733Y-94618475D01*
X148621735Y-94618478D01*
X148783108Y-94875301D01*
X148972221Y-95112441D01*
X149186696Y-95326916D01*
X149423836Y-95516029D01*
X149680659Y-95677402D01*
X149953935Y-95809005D01*
X150168951Y-95884242D01*
X150240216Y-95909179D01*
X150240228Y-95909183D01*
X150535937Y-95976677D01*
X150535946Y-95976678D01*
X150535951Y-95976679D01*
X150736874Y-95999317D01*
X150837337Y-96010636D01*
X150837340Y-96010637D01*
X150837343Y-96010637D01*
X151140660Y-96010637D01*
X151140661Y-96010636D01*
X151294694Y-95993281D01*
X151442048Y-95976679D01*
X151442051Y-95976678D01*
X151442063Y-95976677D01*
X151737772Y-95909183D01*
X152024065Y-95809005D01*
X152297341Y-95677402D01*
X152554164Y-95516029D01*
X152791304Y-95326916D01*
X153005779Y-95112441D01*
X153194892Y-94875301D01*
X153356265Y-94618478D01*
X153487868Y-94345202D01*
X153588046Y-94058909D01*
X153655540Y-93763200D01*
X153689500Y-93461794D01*
X153689500Y-93158480D01*
X153678180Y-93058011D01*
X153655542Y-92857088D01*
X153655541Y-92857083D01*
X153655540Y-92857074D01*
X153588046Y-92561365D01*
X153487868Y-92275072D01*
X153356265Y-92001796D01*
X153194892Y-91744973D01*
X153005779Y-91507833D01*
X152791304Y-91293358D01*
X152554164Y-91104245D01*
X152297341Y-90942872D01*
X152297340Y-90942871D01*
X152294761Y-90941251D01*
X152248470Y-90888916D01*
X152237822Y-90819863D01*
X152266197Y-90756014D01*
X152324587Y-90717642D01*
X152360520Y-90712257D01*
X179833404Y-90666316D01*
X179900474Y-90685889D01*
G37*
%TD.AperFunction*%
%TD*%
%TA.AperFunction,Conductor*%
%TO.N,/Inversor/Gnd_Micro*%
G36*
X174872165Y-116544955D02*
G01*
X174918008Y-116597682D01*
X174929300Y-116649382D01*
X174929300Y-117647737D01*
X174909615Y-117714776D01*
X174892981Y-117735418D01*
X173424918Y-119203481D01*
X173363595Y-119236966D01*
X173337237Y-119239800D01*
X156889392Y-119239800D01*
X156727367Y-119272029D01*
X156727359Y-119272031D01*
X156574728Y-119335253D01*
X156437357Y-119427040D01*
X156437356Y-119427041D01*
X153177054Y-122687345D01*
X152239374Y-123625025D01*
X152180963Y-123683435D01*
X152122553Y-123741845D01*
X152030767Y-123879214D01*
X151967545Y-124031845D01*
X151967543Y-124031853D01*
X151935314Y-124193876D01*
X151935314Y-128042095D01*
X151967543Y-128204118D01*
X151967545Y-128204126D01*
X152030768Y-128356759D01*
X152122553Y-128494126D01*
X152242567Y-128614140D01*
X152359388Y-128730961D01*
X152496755Y-128822746D01*
X152649388Y-128885969D01*
X152681192Y-128892295D01*
X152743101Y-128924679D01*
X152777676Y-128985394D01*
X152781000Y-129013912D01*
X152781000Y-129804500D01*
X152761315Y-129871539D01*
X152708511Y-129917294D01*
X152657000Y-129928500D01*
X97025000Y-129928500D01*
X96957961Y-129908815D01*
X96912206Y-129856011D01*
X96901000Y-129804500D01*
X96901000Y-126593015D01*
X100969500Y-126593015D01*
X100969500Y-127279985D01*
X101006571Y-127514039D01*
X101077089Y-127731072D01*
X101079800Y-127739413D01*
X101149256Y-127875729D01*
X101187381Y-127950554D01*
X101326669Y-128142267D01*
X101494233Y-128309831D01*
X101685946Y-128449119D01*
X101897089Y-128556701D01*
X102122461Y-128629929D01*
X102356515Y-128667000D01*
X102356516Y-128667000D01*
X102593484Y-128667000D01*
X102593485Y-128667000D01*
X102827539Y-128629929D01*
X103052911Y-128556701D01*
X103264054Y-128449119D01*
X103455767Y-128309831D01*
X103623331Y-128142267D01*
X103644683Y-128112878D01*
X103700010Y-128070213D01*
X103769624Y-128064233D01*
X103831419Y-128096839D01*
X103845313Y-128112873D01*
X103866669Y-128142267D01*
X104034233Y-128309831D01*
X104225946Y-128449119D01*
X104437089Y-128556701D01*
X104662461Y-128629929D01*
X104896515Y-128667000D01*
X104896516Y-128667000D01*
X105133484Y-128667000D01*
X105133485Y-128667000D01*
X105367539Y-128629929D01*
X105592911Y-128556701D01*
X105804054Y-128449119D01*
X105995767Y-128309831D01*
X106163331Y-128142267D01*
X106268426Y-127997615D01*
X106323755Y-127954951D01*
X106393368Y-127948972D01*
X106455163Y-127981578D01*
X106469060Y-127997616D01*
X106510018Y-128053988D01*
X106510025Y-128053997D01*
X106662502Y-128206474D01*
X106836963Y-128333228D01*
X107029098Y-128431127D01*
X107234190Y-128497766D01*
X107305000Y-128508981D01*
X107305000Y-127479209D01*
X107325339Y-127490952D01*
X107476667Y-127531500D01*
X107633333Y-127531500D01*
X107784661Y-127490952D01*
X107805000Y-127479209D01*
X107805000Y-128508980D01*
X107875809Y-128497766D01*
X108080901Y-128431127D01*
X108273036Y-128333228D01*
X108447496Y-128206474D01*
X108447497Y-128206474D01*
X108492572Y-128161399D01*
X108553895Y-128127913D01*
X108623586Y-128132897D01*
X108679520Y-128174768D01*
X108690739Y-128192784D01*
X108728266Y-128266436D01*
X108780936Y-128331476D01*
X108845408Y-128411092D01*
X108934724Y-128483419D01*
X108990063Y-128528233D01*
X108990065Y-128528235D01*
X109045931Y-128556699D01*
X109155917Y-128612739D01*
X109335714Y-128660916D01*
X109413019Y-128667000D01*
X110776980Y-128666999D01*
X110854286Y-128660916D01*
X111034083Y-128612739D01*
X111159260Y-128548958D01*
X111199934Y-128528235D01*
X111199936Y-128528233D01*
X111223711Y-128508980D01*
X111344592Y-128411092D01*
X111461734Y-128266435D01*
X111546239Y-128100583D01*
X111594416Y-127920786D01*
X111600500Y-127843481D01*
X111600499Y-126593015D01*
X117479500Y-126593015D01*
X117479500Y-127279985D01*
X117516571Y-127514039D01*
X117587089Y-127731072D01*
X117589800Y-127739413D01*
X117659256Y-127875729D01*
X117697381Y-127950554D01*
X117836669Y-128142267D01*
X118004233Y-128309831D01*
X118195946Y-128449119D01*
X118407089Y-128556701D01*
X118632461Y-128629929D01*
X118866515Y-128667000D01*
X118866516Y-128667000D01*
X119103484Y-128667000D01*
X119103485Y-128667000D01*
X119337539Y-128629929D01*
X119562911Y-128556701D01*
X119774054Y-128449119D01*
X119965767Y-128309831D01*
X120133331Y-128142267D01*
X120154683Y-128112878D01*
X120210010Y-128070213D01*
X120279624Y-128064233D01*
X120341419Y-128096839D01*
X120355313Y-128112873D01*
X120376669Y-128142267D01*
X120544233Y-128309831D01*
X120735946Y-128449119D01*
X120947089Y-128556701D01*
X121172461Y-128629929D01*
X121406515Y-128667000D01*
X121406516Y-128667000D01*
X121643484Y-128667000D01*
X121643485Y-128667000D01*
X121877539Y-128629929D01*
X122102911Y-128556701D01*
X122314054Y-128449119D01*
X122505767Y-128309831D01*
X122673331Y-128142267D01*
X122778426Y-127997615D01*
X122833755Y-127954951D01*
X122903368Y-127948972D01*
X122965163Y-127981578D01*
X122979060Y-127997616D01*
X123020018Y-128053988D01*
X123020025Y-128053997D01*
X123172502Y-128206474D01*
X123346963Y-128333228D01*
X123539098Y-128431127D01*
X123744190Y-128497766D01*
X123815000Y-128508981D01*
X123815000Y-127479209D01*
X123835339Y-127490952D01*
X123986667Y-127531500D01*
X124143333Y-127531500D01*
X124294661Y-127490952D01*
X124315000Y-127479209D01*
X124315000Y-128508980D01*
X124385809Y-128497766D01*
X124590901Y-128431127D01*
X124783036Y-128333228D01*
X124957496Y-128206474D01*
X124957497Y-128206474D01*
X125002572Y-128161399D01*
X125063895Y-128127913D01*
X125133586Y-128132897D01*
X125189520Y-128174768D01*
X125200739Y-128192784D01*
X125238266Y-128266436D01*
X125290936Y-128331476D01*
X125355408Y-128411092D01*
X125444724Y-128483419D01*
X125500063Y-128528233D01*
X125500065Y-128528235D01*
X125555931Y-128556699D01*
X125665917Y-128612739D01*
X125845714Y-128660916D01*
X125923019Y-128667000D01*
X127286980Y-128666999D01*
X127364286Y-128660916D01*
X127544083Y-128612739D01*
X127669260Y-128548958D01*
X127709934Y-128528235D01*
X127709936Y-128528233D01*
X127733711Y-128508980D01*
X127854592Y-128411092D01*
X127971734Y-128266435D01*
X128056239Y-128100583D01*
X128104416Y-127920786D01*
X128110500Y-127843481D01*
X128110499Y-126029520D01*
X128104416Y-125952214D01*
X128056239Y-125772417D01*
X128002285Y-125666525D01*
X127971735Y-125606565D01*
X127971733Y-125606563D01*
X127917645Y-125539771D01*
X127854592Y-125461908D01*
X127762192Y-125387083D01*
X127709936Y-125344766D01*
X127709934Y-125344764D01*
X127586334Y-125281789D01*
X127544083Y-125260261D01*
X127364286Y-125212084D01*
X127364285Y-125212083D01*
X127364282Y-125212083D01*
X127301419Y-125207136D01*
X127286981Y-125206000D01*
X127286979Y-125206000D01*
X125923029Y-125206000D01*
X125923010Y-125206001D01*
X125845717Y-125212083D01*
X125665917Y-125260261D01*
X125500065Y-125344764D01*
X125500063Y-125344766D01*
X125355408Y-125461908D01*
X125238266Y-125606563D01*
X125200739Y-125680215D01*
X125152764Y-125731011D01*
X125084943Y-125747806D01*
X125018808Y-125725268D01*
X125002573Y-125711601D01*
X124957497Y-125666525D01*
X124783036Y-125539771D01*
X124590899Y-125441872D01*
X124385805Y-125375233D01*
X124315000Y-125364018D01*
X124315000Y-126393790D01*
X124294661Y-126382048D01*
X124143333Y-126341500D01*
X123986667Y-126341500D01*
X123835339Y-126382048D01*
X123815000Y-126393790D01*
X123815000Y-125364018D01*
X123814999Y-125364018D01*
X123744194Y-125375233D01*
X123539100Y-125441872D01*
X123346963Y-125539771D01*
X123172503Y-125666525D01*
X123172502Y-125666525D01*
X123020024Y-125819003D01*
X122979062Y-125875383D01*
X122923731Y-125918048D01*
X122854118Y-125924027D01*
X122792323Y-125891421D01*
X122778426Y-125875383D01*
X122725681Y-125802786D01*
X122673331Y-125730733D01*
X122505767Y-125563169D01*
X122314054Y-125423881D01*
X122102911Y-125316299D01*
X121877539Y-125243071D01*
X121877537Y-125243070D01*
X121877535Y-125243070D01*
X121681891Y-125212083D01*
X121643485Y-125206000D01*
X121406515Y-125206000D01*
X121368109Y-125212083D01*
X121172464Y-125243070D01*
X120947086Y-125316300D01*
X120735945Y-125423881D01*
X120683606Y-125461908D01*
X120544233Y-125563169D01*
X120544231Y-125563171D01*
X120544230Y-125563171D01*
X120376668Y-125730733D01*
X120355317Y-125760121D01*
X120299986Y-125802786D01*
X120230373Y-125808764D01*
X120168578Y-125776157D01*
X120154683Y-125760121D01*
X120133331Y-125730733D01*
X119965769Y-125563171D01*
X119965767Y-125563169D01*
X119774054Y-125423881D01*
X119562911Y-125316299D01*
X119337539Y-125243071D01*
X119337537Y-125243070D01*
X119337535Y-125243070D01*
X119141891Y-125212083D01*
X119103485Y-125206000D01*
X118866515Y-125206000D01*
X118828109Y-125212083D01*
X118632464Y-125243070D01*
X118407086Y-125316300D01*
X118195945Y-125423881D01*
X118143606Y-125461908D01*
X118004233Y-125563169D01*
X118004231Y-125563171D01*
X118004230Y-125563171D01*
X117836671Y-125730730D01*
X117836671Y-125730731D01*
X117836669Y-125730733D01*
X117784319Y-125802786D01*
X117697381Y-125922445D01*
X117589800Y-126133586D01*
X117516570Y-126358964D01*
X117512914Y-126382048D01*
X117479500Y-126593015D01*
X111600499Y-126593015D01*
X111600499Y-126029520D01*
X111594416Y-125952214D01*
X111546239Y-125772417D01*
X111492285Y-125666525D01*
X111461735Y-125606565D01*
X111461733Y-125606563D01*
X111407645Y-125539771D01*
X111344592Y-125461908D01*
X111252192Y-125387083D01*
X111199936Y-125344766D01*
X111199934Y-125344764D01*
X111076334Y-125281789D01*
X111034083Y-125260261D01*
X110854286Y-125212084D01*
X110854285Y-125212083D01*
X110854282Y-125212083D01*
X110791419Y-125207136D01*
X110776981Y-125206000D01*
X110776979Y-125206000D01*
X109413029Y-125206000D01*
X109413010Y-125206001D01*
X109335717Y-125212083D01*
X109155917Y-125260261D01*
X108990065Y-125344764D01*
X108990063Y-125344766D01*
X108845408Y-125461908D01*
X108728266Y-125606563D01*
X108690739Y-125680215D01*
X108642764Y-125731011D01*
X108574943Y-125747806D01*
X108508808Y-125725268D01*
X108492573Y-125711601D01*
X108447497Y-125666525D01*
X108273036Y-125539771D01*
X108080899Y-125441872D01*
X107875805Y-125375233D01*
X107805000Y-125364018D01*
X107805000Y-126393790D01*
X107784661Y-126382048D01*
X107633333Y-126341500D01*
X107476667Y-126341500D01*
X107325339Y-126382048D01*
X107305000Y-126393790D01*
X107305000Y-125364018D01*
X107304999Y-125364018D01*
X107234194Y-125375233D01*
X107029100Y-125441872D01*
X106836963Y-125539771D01*
X106662503Y-125666525D01*
X106662502Y-125666525D01*
X106510024Y-125819003D01*
X106469062Y-125875383D01*
X106413731Y-125918048D01*
X106344118Y-125924027D01*
X106282323Y-125891421D01*
X106268426Y-125875383D01*
X106215681Y-125802786D01*
X106163331Y-125730733D01*
X105995767Y-125563169D01*
X105804054Y-125423881D01*
X105592911Y-125316299D01*
X105367539Y-125243071D01*
X105367537Y-125243070D01*
X105367535Y-125243070D01*
X105171891Y-125212083D01*
X105133485Y-125206000D01*
X104896515Y-125206000D01*
X104858109Y-125212083D01*
X104662464Y-125243070D01*
X104437086Y-125316300D01*
X104225945Y-125423881D01*
X104173606Y-125461908D01*
X104034233Y-125563169D01*
X104034231Y-125563171D01*
X104034230Y-125563171D01*
X103866668Y-125730733D01*
X103845317Y-125760121D01*
X103789986Y-125802786D01*
X103720373Y-125808764D01*
X103658578Y-125776157D01*
X103644683Y-125760121D01*
X103623331Y-125730733D01*
X103455769Y-125563171D01*
X103455767Y-125563169D01*
X103264054Y-125423881D01*
X103052911Y-125316299D01*
X102827539Y-125243071D01*
X102827537Y-125243070D01*
X102827535Y-125243070D01*
X102631891Y-125212083D01*
X102593485Y-125206000D01*
X102356515Y-125206000D01*
X102318109Y-125212083D01*
X102122464Y-125243070D01*
X101897086Y-125316300D01*
X101685945Y-125423881D01*
X101633606Y-125461908D01*
X101494233Y-125563169D01*
X101494231Y-125563171D01*
X101494230Y-125563171D01*
X101326671Y-125730730D01*
X101326671Y-125730731D01*
X101326669Y-125730733D01*
X101274319Y-125802786D01*
X101187381Y-125922445D01*
X101079800Y-126133586D01*
X101006570Y-126358964D01*
X101002914Y-126382048D01*
X100969500Y-126593015D01*
X96901000Y-126593015D01*
X96901000Y-116921432D01*
X96903376Y-116897276D01*
X96915493Y-116836290D01*
X96933968Y-116791638D01*
X96961571Y-116750271D01*
X96995711Y-116716073D01*
X97037035Y-116688398D01*
X97081659Y-116669849D01*
X97142618Y-116657631D01*
X97166767Y-116655214D01*
X103810901Y-116644103D01*
X141277097Y-116581450D01*
X141344165Y-116601022D01*
X141390008Y-116653749D01*
X141401300Y-116705449D01*
X141401300Y-122525322D01*
X141433529Y-122687345D01*
X141433531Y-122687353D01*
X141496753Y-122839984D01*
X141588540Y-122977355D01*
X141588541Y-122977356D01*
X146942662Y-128331476D01*
X146958083Y-128350267D01*
X147049535Y-128487135D01*
X147049537Y-128487138D01*
X147049538Y-128487139D01*
X147049539Y-128487140D01*
X147176539Y-128614140D01*
X147293360Y-128730961D01*
X147430727Y-128822746D01*
X147583360Y-128885969D01*
X147745390Y-128918199D01*
X147745393Y-128918200D01*
X147745395Y-128918200D01*
X147917598Y-128918200D01*
X147984637Y-128937885D01*
X148017914Y-128969312D01*
X148027200Y-128982093D01*
X148181407Y-129136300D01*
X148357840Y-129264486D01*
X148449645Y-129311263D01*
X148552148Y-129363491D01*
X148552150Y-129363491D01*
X148552153Y-129363493D01*
X148759561Y-129430884D01*
X148974959Y-129465000D01*
X148974960Y-129465000D01*
X149193040Y-129465000D01*
X149193041Y-129465000D01*
X149408439Y-129430884D01*
X149615847Y-129363493D01*
X149810160Y-129264486D01*
X149986593Y-129136300D01*
X150140800Y-128982093D01*
X150268986Y-128805660D01*
X150367993Y-128611347D01*
X150435384Y-128403939D01*
X150469500Y-128188541D01*
X150469500Y-127970459D01*
X150435384Y-127755061D01*
X150367993Y-127547653D01*
X150367991Y-127547650D01*
X150367991Y-127547648D01*
X150313251Y-127440215D01*
X150268986Y-127353340D01*
X150140800Y-127176907D01*
X149986593Y-127022700D01*
X149810160Y-126894514D01*
X149738825Y-126858167D01*
X149615851Y-126795508D01*
X149408439Y-126728116D01*
X149193041Y-126694000D01*
X148974959Y-126694000D01*
X148867260Y-126711058D01*
X148759560Y-126728116D01*
X148552148Y-126795508D01*
X148357836Y-126894516D01*
X148181410Y-127022696D01*
X148177703Y-127025863D01*
X148177037Y-127025084D01*
X148120069Y-127056170D01*
X148050379Y-127051165D01*
X148006065Y-127022677D01*
X143115019Y-122131631D01*
X143081534Y-122070308D01*
X143078700Y-122043950D01*
X143078700Y-116702229D01*
X143098385Y-116635190D01*
X143151189Y-116589435D01*
X143202485Y-116578230D01*
X174805098Y-116525383D01*
X174872165Y-116544955D01*
G37*
%TD.AperFunction*%
%TD*%
%TA.AperFunction,NonConductor*%
G36*
X179843560Y-116519343D02*
G01*
X179904689Y-116531410D01*
X179912414Y-116534599D01*
X179917595Y-116534686D01*
X179949445Y-116549883D01*
X179990911Y-116577527D01*
X180025186Y-116611745D01*
X180052895Y-116653159D01*
X180071447Y-116697895D01*
X180083612Y-116758988D01*
X180086000Y-116783201D01*
X180086000Y-120193287D01*
X180083617Y-120217480D01*
X180071476Y-120278512D01*
X180052962Y-120323208D01*
X180025309Y-120364595D01*
X179991095Y-120398809D01*
X179949708Y-120426462D01*
X179905012Y-120444976D01*
X179856989Y-120454529D01*
X179843978Y-120457117D01*
X179819788Y-120459500D01*
X174840463Y-120459500D01*
X174773424Y-120439815D01*
X174727669Y-120387011D01*
X174717725Y-120317853D01*
X174746750Y-120254297D01*
X174752782Y-120247819D01*
X176419459Y-118581142D01*
X176419461Y-118581140D01*
X176511246Y-118443773D01*
X176574469Y-118291140D01*
X176606700Y-118129105D01*
X176606700Y-117963895D01*
X176606700Y-116646163D01*
X176626385Y-116579124D01*
X176679189Y-116533369D01*
X176730489Y-116522163D01*
X179819358Y-116516998D01*
X179843560Y-116519343D01*
G37*
%TD.AperFunction*%
M02*
