%TF.GenerationSoftware,KiCad,Pcbnew,9.0.3*%
%TF.CreationDate,2025-08-21T00:35:24-03:00*%
%TF.ProjectId,PCB_Inversor,5043425f-496e-4766-9572-736f722e6b69,rev?*%
%TF.SameCoordinates,Original*%
%TF.FileFunction,Copper,L1,Top*%
%TF.FilePolarity,Positive*%
%FSLAX46Y46*%
G04 Gerber Fmt 4.6, Leading zero omitted, Abs format (unit mm)*
G04 Created by KiCad (PCBNEW 9.0.3) date 2025-08-21 00:35:24*
%MOMM*%
%LPD*%
G01*
G04 APERTURE LIST*
G04 Aperture macros list*
%AMRoundRect*
0 Rectangle with rounded corners*
0 $1 Rounding radius*
0 $2 $3 $4 $5 $6 $7 $8 $9 X,Y pos of 4 corners*
0 Add a 4 corners polygon primitive as box body*
4,1,4,$2,$3,$4,$5,$6,$7,$8,$9,$2,$3,0*
0 Add four circle primitives for the rounded corners*
1,1,$1+$1,$2,$3*
1,1,$1+$1,$4,$5*
1,1,$1+$1,$6,$7*
1,1,$1+$1,$8,$9*
0 Add four rect primitives between the rounded corners*
20,1,$1+$1,$2,$3,$4,$5,0*
20,1,$1+$1,$4,$5,$6,$7,0*
20,1,$1+$1,$6,$7,$8,$9,0*
20,1,$1+$1,$8,$9,$2,$3,0*%
G04 Aperture macros list end*
%TA.AperFunction,Conductor*%
%ADD10C,0.200000*%
%TD*%
%TA.AperFunction,ComponentPad*%
%ADD11RoundRect,0.249999X-0.790001X-1.550001X0.790001X-1.550001X0.790001X1.550001X-0.790001X1.550001X0*%
%TD*%
%TA.AperFunction,ComponentPad*%
%ADD12O,2.080000X3.600000*%
%TD*%
%TA.AperFunction,SMDPad,CuDef*%
%ADD13RoundRect,0.237500X0.237500X-0.250000X0.237500X0.250000X-0.237500X0.250000X-0.237500X-0.250000X0*%
%TD*%
%TA.AperFunction,SMDPad,CuDef*%
%ADD14RoundRect,0.250000X-1.050000X-0.550000X1.050000X-0.550000X1.050000X0.550000X-1.050000X0.550000X0*%
%TD*%
%TA.AperFunction,SMDPad,CuDef*%
%ADD15RoundRect,0.162500X0.162500X-1.012500X0.162500X1.012500X-0.162500X1.012500X-0.162500X-1.012500X0*%
%TD*%
%TA.AperFunction,SMDPad,CuDef*%
%ADD16RoundRect,0.237500X-0.237500X0.300000X-0.237500X-0.300000X0.237500X-0.300000X0.237500X0.300000X0*%
%TD*%
%TA.AperFunction,SMDPad,CuDef*%
%ADD17RoundRect,0.237500X0.287500X0.237500X-0.287500X0.237500X-0.287500X-0.237500X0.287500X-0.237500X0*%
%TD*%
%TA.AperFunction,SMDPad,CuDef*%
%ADD18RoundRect,0.150000X0.150000X-0.825000X0.150000X0.825000X-0.150000X0.825000X-0.150000X-0.825000X0*%
%TD*%
%TA.AperFunction,SMDPad,CuDef*%
%ADD19RoundRect,0.150000X-0.150000X0.587500X-0.150000X-0.587500X0.150000X-0.587500X0.150000X0.587500X0*%
%TD*%
%TA.AperFunction,SMDPad,CuDef*%
%ADD20RoundRect,0.237500X-0.237500X0.250000X-0.237500X-0.250000X0.237500X-0.250000X0.237500X0.250000X0*%
%TD*%
%TA.AperFunction,ComponentPad*%
%ADD21RoundRect,0.250000X0.620000X0.845000X-0.620000X0.845000X-0.620000X-0.845000X0.620000X-0.845000X0*%
%TD*%
%TA.AperFunction,ComponentPad*%
%ADD22O,1.740000X2.190000*%
%TD*%
%TA.AperFunction,SMDPad,CuDef*%
%ADD23RoundRect,0.150000X0.587500X0.150000X-0.587500X0.150000X-0.587500X-0.150000X0.587500X-0.150000X0*%
%TD*%
%TA.AperFunction,SMDPad,CuDef*%
%ADD24RoundRect,0.237500X0.250000X0.237500X-0.250000X0.237500X-0.250000X-0.237500X0.250000X-0.237500X0*%
%TD*%
%TA.AperFunction,SMDPad,CuDef*%
%ADD25RoundRect,0.250000X1.050000X0.550000X-1.050000X0.550000X-1.050000X-0.550000X1.050000X-0.550000X0*%
%TD*%
%TA.AperFunction,ComponentPad*%
%ADD26RoundRect,0.250000X0.650000X1.550000X-0.650000X1.550000X-0.650000X-1.550000X0.650000X-1.550000X0*%
%TD*%
%TA.AperFunction,ComponentPad*%
%ADD27O,1.800000X3.600000*%
%TD*%
%TA.AperFunction,ComponentPad*%
%ADD28RoundRect,0.250001X-0.499999X0.499999X-0.499999X-0.499999X0.499999X-0.499999X0.499999X0.499999X0*%
%TD*%
%TA.AperFunction,ComponentPad*%
%ADD29C,1.500000*%
%TD*%
%TA.AperFunction,SMDPad,CuDef*%
%ADD30RoundRect,0.150000X0.200000X-0.150000X0.200000X0.150000X-0.200000X0.150000X-0.200000X-0.150000X0*%
%TD*%
%TA.AperFunction,SMDPad,CuDef*%
%ADD31RoundRect,0.250000X0.550000X-1.050000X0.550000X1.050000X-0.550000X1.050000X-0.550000X-1.050000X0*%
%TD*%
%TA.AperFunction,ComponentPad*%
%ADD32R,1.905000X2.000000*%
%TD*%
%TA.AperFunction,ComponentPad*%
%ADD33O,1.905000X2.000000*%
%TD*%
%TA.AperFunction,ViaPad*%
%ADD34C,0.508000*%
%TD*%
%TA.AperFunction,ViaPad*%
%ADD35C,0.600000*%
%TD*%
%TA.AperFunction,Conductor*%
%ADD36C,0.406400*%
%TD*%
%TA.AperFunction,Conductor*%
%ADD37C,0.381000*%
%TD*%
%TA.AperFunction,Conductor*%
%ADD38C,2.286000*%
%TD*%
G04 APERTURE END LIST*
D10*
%TO.N,Mid_U*%
X148971000Y-58737500D02*
X148971000Y-61277500D01*
X148082000Y-62166500D01*
X144907000Y-62166500D01*
X142367000Y-64706500D01*
X133985000Y-64706500D01*
X128016000Y-70675500D01*
X128016000Y-73596500D01*
X123952000Y-73596500D01*
X123317000Y-72961500D01*
X123317000Y-67881500D01*
X133350000Y-57848500D01*
X148082000Y-57848500D01*
X148971000Y-58737500D01*
%TA.AperFunction,Conductor*%
G36*
X148971000Y-58737500D02*
G01*
X148971000Y-61277500D01*
X148082000Y-62166500D01*
X144907000Y-62166500D01*
X142367000Y-64706500D01*
X133985000Y-64706500D01*
X128016000Y-70675500D01*
X128016000Y-73596500D01*
X123952000Y-73596500D01*
X123317000Y-72961500D01*
X123317000Y-67881500D01*
X133350000Y-57848500D01*
X148082000Y-57848500D01*
X148971000Y-58737500D01*
G37*
%TD.AperFunction*%
%TO.N,GND_Inv*%
X176149000Y-76200000D02*
X176149000Y-84963000D01*
X174117000Y-84963000D01*
X173863000Y-85217000D01*
X173863000Y-88582500D01*
X173679753Y-88773000D01*
X171475400Y-88773000D01*
X170942000Y-88239600D01*
X170942000Y-85191600D01*
X169418000Y-83820000D01*
X153924000Y-83820000D01*
X151511000Y-86836250D01*
X151511000Y-88201500D01*
X151511000Y-88709500D01*
X151213177Y-88950800D01*
X145903577Y-88950800D01*
X145542000Y-88566622D01*
X145542000Y-87524165D01*
X145941143Y-87058500D01*
X147209623Y-87058500D01*
X148570774Y-85492356D01*
X148543282Y-82025218D01*
X155829000Y-74739500D01*
X174752000Y-74739500D01*
X176149000Y-76200000D01*
%TA.AperFunction,Conductor*%
G36*
X176149000Y-76200000D02*
G01*
X176149000Y-84963000D01*
X174117000Y-84963000D01*
X173863000Y-85217000D01*
X173863000Y-88582500D01*
X173679753Y-88773000D01*
X171475400Y-88773000D01*
X170942000Y-88239600D01*
X170942000Y-85191600D01*
X169418000Y-83820000D01*
X153924000Y-83820000D01*
X151511000Y-86836250D01*
X151511000Y-88201500D01*
X151511000Y-88709500D01*
X151213177Y-88950800D01*
X145903577Y-88950800D01*
X145542000Y-88566622D01*
X145542000Y-87524165D01*
X145941143Y-87058500D01*
X147209623Y-87058500D01*
X148570774Y-85492356D01*
X148543282Y-82025218D01*
X155829000Y-74739500D01*
X174752000Y-74739500D01*
X176149000Y-76200000D01*
G37*
%TD.AperFunction*%
X119507000Y-62166500D02*
X115062000Y-66611500D01*
X115062000Y-73596500D01*
X115951000Y-74485500D01*
X122174000Y-74485500D01*
X124206000Y-76517500D01*
X124206000Y-88328500D01*
X123698000Y-88836500D01*
X121412000Y-88836500D01*
X121031000Y-88455500D01*
X121031000Y-82486500D01*
X117094000Y-78549500D01*
X111760000Y-78549500D01*
X110998000Y-77787500D01*
X110998000Y-67945000D01*
X110998000Y-54927500D01*
X119507000Y-54927500D01*
X119507000Y-62166500D01*
%TA.AperFunction,Conductor*%
G36*
X119507000Y-62166500D02*
G01*
X115062000Y-66611500D01*
X115062000Y-73596500D01*
X115951000Y-74485500D01*
X122174000Y-74485500D01*
X124206000Y-76517500D01*
X124206000Y-88328500D01*
X123698000Y-88836500D01*
X121412000Y-88836500D01*
X121031000Y-88455500D01*
X121031000Y-82486500D01*
X117094000Y-78549500D01*
X111760000Y-78549500D01*
X110998000Y-77787500D01*
X110998000Y-67945000D01*
X110998000Y-54927500D01*
X119507000Y-54927500D01*
X119507000Y-62166500D01*
G37*
%TD.AperFunction*%
%TO.N,Mid_U*%
X120015000Y-84709000D02*
X120015000Y-88455500D01*
X119634000Y-88836500D01*
X118872000Y-88836500D01*
X118491000Y-88455500D01*
X118491000Y-86423500D01*
X117729000Y-85661500D01*
X111633000Y-85661500D01*
X111379000Y-85915500D01*
X111379000Y-88479314D01*
X110930268Y-88900000D01*
X109448600Y-88900000D01*
X108966000Y-88447562D01*
X108966000Y-81153000D01*
X109728000Y-80391000D01*
X115697000Y-80391000D01*
X120015000Y-84709000D01*
%TA.AperFunction,Conductor*%
G36*
X120015000Y-84709000D02*
G01*
X120015000Y-88455500D01*
X119634000Y-88836500D01*
X118872000Y-88836500D01*
X118491000Y-88455500D01*
X118491000Y-86423500D01*
X117729000Y-85661500D01*
X111633000Y-85661500D01*
X111379000Y-85915500D01*
X111379000Y-88479314D01*
X110930268Y-88900000D01*
X109448600Y-88900000D01*
X108966000Y-88447562D01*
X108966000Y-81153000D01*
X109728000Y-80391000D01*
X115697000Y-80391000D01*
X120015000Y-84709000D01*
G37*
%TD.AperFunction*%
%TO.N,Mid_V*%
X153797000Y-59118500D02*
X153797000Y-71945500D01*
X152654000Y-73088500D01*
X144145000Y-81597500D01*
X144145000Y-85534500D01*
X144526000Y-85915500D01*
X144526000Y-88455500D01*
X144145000Y-88836500D01*
X143383000Y-88836500D01*
X143002000Y-88455500D01*
X143002000Y-86677500D01*
X141859000Y-85534500D01*
X136652000Y-85534500D01*
X135509000Y-86677500D01*
X135509000Y-88328500D01*
X135001000Y-88836500D01*
X134239000Y-88836500D01*
X133731000Y-88328500D01*
X133731000Y-82613500D01*
X140843000Y-75501500D01*
X144907000Y-75501500D01*
X147955000Y-72453500D01*
X147955000Y-68008500D01*
X151511000Y-64452500D01*
X151511000Y-59118500D01*
X152146000Y-58483500D01*
X153162000Y-58483500D01*
X153797000Y-59118500D01*
%TA.AperFunction,Conductor*%
G36*
X153797000Y-59118500D02*
G01*
X153797000Y-71945500D01*
X152654000Y-73088500D01*
X144145000Y-81597500D01*
X144145000Y-85534500D01*
X144526000Y-85915500D01*
X144526000Y-88455500D01*
X144145000Y-88836500D01*
X143383000Y-88836500D01*
X143002000Y-88455500D01*
X143002000Y-86677500D01*
X141859000Y-85534500D01*
X136652000Y-85534500D01*
X135509000Y-86677500D01*
X135509000Y-88328500D01*
X135001000Y-88836500D01*
X134239000Y-88836500D01*
X133731000Y-88328500D01*
X133731000Y-82613500D01*
X140843000Y-75501500D01*
X144907000Y-75501500D01*
X147955000Y-72453500D01*
X147955000Y-68008500D01*
X151511000Y-64452500D01*
X151511000Y-59118500D01*
X152146000Y-58483500D01*
X153162000Y-58483500D01*
X153797000Y-59118500D01*
G37*
%TD.AperFunction*%
%TD*%
D11*
%TO.P,HVDCBus1,1,Pin_1*%
%TO.N,GND_Inv*%
X118237000Y-60198000D03*
D12*
%TO.P,HVDCBus1,2,Pin_2*%
%TO.N,/Inversor/HVDC_Bus*%
X123317000Y-60198000D03*
%TD*%
D13*
%TO.P,R14,1*%
%TO.N,Net-(U7-LO)*%
X141224000Y-92987500D03*
%TO.P,R14,2*%
%TO.N,Gate_V_Low*%
X141224000Y-91162500D03*
%TD*%
%TO.P,R20,1*%
%TO.N,Net-(U10-LO)*%
X166624000Y-92987500D03*
%TO.P,R20,2*%
%TO.N,Gate_W_Low*%
X166624000Y-91162500D03*
%TD*%
D14*
%TO.P,C6,1*%
%TO.N,/Inversor/12V_Inv*%
X111843000Y-105283000D03*
%TO.P,C6,2*%
%TO.N,GND_Inv*%
X115443000Y-105283000D03*
%TD*%
D15*
%TO.P,U6,1,NC*%
%TO.N,unconnected-(U6-NC-Pad1)*%
X141097000Y-119603500D03*
%TO.P,U6,2*%
%TO.N,Signal_V_Sd*%
X143637000Y-119603500D03*
%TO.P,U6,3*%
%TO.N,/Inversor/Gnd_Micro*%
X146177000Y-119603500D03*
%TO.P,U6,4,NC*%
%TO.N,unconnected-(U6-NC-Pad4)*%
X148717000Y-119603500D03*
%TO.P,U6,5*%
%TO.N,GND_Inv*%
X148717000Y-110553500D03*
%TO.P,U6,6*%
%TO.N,Net-(Q10-B)*%
X146177000Y-110553500D03*
%TO.P,U6,7*%
%TO.N,unconnected-(U6-Pad7)*%
X143637000Y-110553500D03*
%TO.P,U6,8*%
%TO.N,/Inversor/12V_Inv*%
X141097000Y-110553500D03*
%TD*%
D13*
%TO.P,R16,1*%
%TO.N,/Inversor/12V_Inv*%
X170561000Y-103044000D03*
%TO.P,R16,2*%
%TO.N,Net-(Q12-B)*%
X170561000Y-101219000D03*
%TD*%
D16*
%TO.P,C9,1*%
%TO.N,Net-(D8-K)*%
X135509000Y-96446000D03*
%TO.P,C9,2*%
%TO.N,Mid_V*%
X135509000Y-98171000D03*
%TD*%
D17*
%TO.P,D1,1,K*%
%TO.N,Net-(D1-K)*%
X141196000Y-125666500D03*
%TO.P,D1,2,A*%
%TO.N,/Inversor/12V_Inv*%
X139446000Y-125666500D03*
%TD*%
D13*
%TO.P,R19,1*%
%TO.N,Net-(U10-HO)*%
X160401000Y-94154000D03*
%TO.P,R19,2*%
%TO.N,Gate_W_High*%
X160401000Y-92329000D03*
%TD*%
D15*
%TO.P,U2,1,NC*%
%TO.N,unconnected-(U2-NC-Pad1)*%
X104013000Y-119570500D03*
%TO.P,U2,2*%
%TO.N,Signal_U_In*%
X106553000Y-119570500D03*
%TO.P,U2,3*%
%TO.N,/Inversor/Gnd_Micro*%
X109093000Y-119570500D03*
%TO.P,U2,4,NC*%
%TO.N,unconnected-(U2-NC-Pad4)*%
X111633000Y-119570500D03*
%TO.P,U2,5*%
%TO.N,GND_Inv*%
X111633000Y-110520500D03*
%TO.P,U2,6*%
%TO.N,Net-(Q7-B)*%
X109093000Y-110520500D03*
%TO.P,U2,7*%
%TO.N,unconnected-(U2-Pad7)*%
X106553000Y-110520500D03*
%TO.P,U2,8*%
%TO.N,/Inversor/12V_Inv*%
X104013000Y-110520500D03*
%TD*%
%TO.P,U3,1,NC*%
%TO.N,unconnected-(U3-NC-Pad1)*%
X115951000Y-119570500D03*
%TO.P,U3,2*%
%TO.N,Signal_U_Sd*%
X118491000Y-119570500D03*
%TO.P,U3,3*%
%TO.N,/Inversor/Gnd_Micro*%
X121031000Y-119570500D03*
%TO.P,U3,4,NC*%
%TO.N,unconnected-(U3-NC-Pad4)*%
X123571000Y-119570500D03*
%TO.P,U3,5*%
%TO.N,GND_Inv*%
X123571000Y-110520500D03*
%TO.P,U3,6*%
%TO.N,Net-(Q8-B)*%
X121031000Y-110520500D03*
%TO.P,U3,7*%
%TO.N,unconnected-(U3-Pad7)*%
X118491000Y-110520500D03*
%TO.P,U3,8*%
%TO.N,/Inversor/12V_Inv*%
X115951000Y-110520500D03*
%TD*%
D13*
%TO.P,R18,1*%
%TO.N,/Inversor/12V_Inv*%
X168910000Y-103044000D03*
%TO.P,R18,2*%
%TO.N,Net-(Q12-C)*%
X168910000Y-101219000D03*
%TD*%
D18*
%TO.P,U10,1,VCC*%
%TO.N,/Inversor/12V_Inv*%
X162560000Y-101343000D03*
%TO.P,U10,2,IN*%
%TO.N,Net-(Q11-C)*%
X163830000Y-101343000D03*
%TO.P,U10,3,~{SD}*%
%TO.N,Net-(Q12-C)*%
X165100000Y-101343000D03*
%TO.P,U10,4,COM*%
%TO.N,GND_Inv*%
X166370000Y-101343000D03*
%TO.P,U10,5,LO*%
%TO.N,Net-(U10-LO)*%
X166370000Y-96393000D03*
%TO.P,U10,6,VS*%
%TO.N,Mid_W*%
X165100000Y-96393000D03*
%TO.P,U10,7,HO*%
%TO.N,Net-(U10-HO)*%
X163830000Y-96393000D03*
%TO.P,U10,8,VB*%
%TO.N,Net-(D9-K)*%
X162560000Y-96393000D03*
%TD*%
D15*
%TO.P,U8,1,NC*%
%TO.N,unconnected-(U8-NC-Pad1)*%
X153035000Y-119650500D03*
%TO.P,U8,2*%
%TO.N,Signal_W_In*%
X155575000Y-119650500D03*
%TO.P,U8,3*%
%TO.N,/Inversor/Gnd_Micro*%
X158115000Y-119650500D03*
%TO.P,U8,4,NC*%
%TO.N,unconnected-(U8-NC-Pad4)*%
X160655000Y-119650500D03*
%TO.P,U8,5*%
%TO.N,GND_Inv*%
X160655000Y-110600500D03*
%TO.P,U8,6*%
%TO.N,Net-(Q11-B)*%
X158115000Y-110600500D03*
%TO.P,U8,7*%
%TO.N,unconnected-(U8-Pad7)*%
X155575000Y-110600500D03*
%TO.P,U8,8*%
%TO.N,/Inversor/12V_Inv*%
X153035000Y-110600500D03*
%TD*%
D19*
%TO.P,Q7,1,B*%
%TO.N,Net-(Q7-B)*%
X105979000Y-104932000D03*
%TO.P,Q7,2,E*%
%TO.N,GND_Inv*%
X104079000Y-104932000D03*
%TO.P,Q7,3,C*%
%TO.N,Net-(Q7-C)*%
X105029000Y-106807000D03*
%TD*%
D16*
%TO.P,C7,1*%
%TO.N,Net-(D7-K)*%
X110236000Y-96446000D03*
%TO.P,C7,2*%
%TO.N,Mid_U*%
X110236000Y-98171000D03*
%TD*%
D13*
%TO.P,R8,1*%
%TO.N,Net-(U4-LO)*%
X116713000Y-93368500D03*
%TO.P,R8,2*%
%TO.N,Gate_U_Low*%
X116713000Y-91543500D03*
%TD*%
D20*
%TO.P,R15,1*%
%TO.N,/Inversor/12V_Inv*%
X158115000Y-102823000D03*
%TO.P,R15,2*%
%TO.N,Net-(Q11-B)*%
X158115000Y-104648000D03*
%TD*%
D13*
%TO.P,R12,1*%
%TO.N,/Inversor/12V_Inv*%
X144018000Y-103044000D03*
%TO.P,R12,2*%
%TO.N,Net-(Q10-C)*%
X144018000Y-101219000D03*
%TD*%
D14*
%TO.P,C10,1*%
%TO.N,/Inversor/12V_Inv*%
X162008000Y-105283000D03*
%TO.P,C10,2*%
%TO.N,GND_Inv*%
X165608000Y-105283000D03*
%TD*%
D15*
%TO.P,U9,1,NC*%
%TO.N,unconnected-(U9-NC-Pad1)*%
X165227000Y-119650500D03*
%TO.P,U9,2*%
%TO.N,Signal_W_Sd*%
X167767000Y-119650500D03*
%TO.P,U9,3*%
%TO.N,/Inversor/Gnd_Micro*%
X170307000Y-119650500D03*
%TO.P,U9,4,NC*%
%TO.N,unconnected-(U9-NC-Pad4)*%
X172847000Y-119650500D03*
%TO.P,U9,5*%
%TO.N,GND_Inv*%
X172847000Y-110600500D03*
%TO.P,U9,6*%
%TO.N,Net-(Q12-B)*%
X170307000Y-110600500D03*
%TO.P,U9,7*%
%TO.N,unconnected-(U9-Pad7)*%
X167767000Y-110600500D03*
%TO.P,U9,8*%
%TO.N,/Inversor/12V_Inv*%
X165227000Y-110600500D03*
%TD*%
D13*
%TO.P,R6,1*%
%TO.N,/Inversor/12V_Inv*%
X118745000Y-103044000D03*
%TO.P,R6,2*%
%TO.N,Net-(Q8-C)*%
X118745000Y-101219000D03*
%TD*%
D21*
%TO.P,12V_Inv1,1,Pin_1*%
%TO.N,Net-(12V_Inv1-Pin_1)*%
X177024000Y-126401137D03*
D22*
%TO.P,12V_Inv1,2,Pin_2*%
%TO.N,Net-(12V_Inv1-Pin_2)*%
X174484000Y-126401137D03*
%TD*%
D13*
%TO.P,R4,1*%
%TO.N,/Inversor/12V_Inv*%
X120396000Y-103044000D03*
%TO.P,R4,2*%
%TO.N,Net-(Q8-B)*%
X120396000Y-101219000D03*
%TD*%
D23*
%TO.P,Q12,1,B*%
%TO.N,Net-(Q12-B)*%
X171879500Y-98232000D03*
%TO.P,Q12,2,E*%
%TO.N,GND_Inv*%
X171879500Y-96332000D03*
%TO.P,Q12,3,C*%
%TO.N,Net-(Q12-C)*%
X170004500Y-97282000D03*
%TD*%
D15*
%TO.P,U5,1,NC*%
%TO.N,unconnected-(U5-NC-Pad1)*%
X128651000Y-119603500D03*
%TO.P,U5,2*%
%TO.N,Signal_V_In*%
X131191000Y-119603500D03*
%TO.P,U5,3*%
%TO.N,/Inversor/Gnd_Micro*%
X133731000Y-119603500D03*
%TO.P,U5,4,NC*%
%TO.N,unconnected-(U5-NC-Pad4)*%
X136271000Y-119603500D03*
%TO.P,U5,5*%
%TO.N,GND_Inv*%
X136271000Y-110553500D03*
%TO.P,U5,6*%
%TO.N,Net-(Q9-B)*%
X133731000Y-110553500D03*
%TO.P,U5,7*%
%TO.N,unconnected-(U5-Pad7)*%
X131191000Y-110553500D03*
%TO.P,U5,8*%
%TO.N,/Inversor/12V_Inv*%
X128651000Y-110553500D03*
%TD*%
D24*
%TO.P,R11,1*%
%TO.N,/Inversor/12V_Inv*%
X131191000Y-102108000D03*
%TO.P,R11,2*%
%TO.N,Net-(Q9-C)*%
X129366000Y-102108000D03*
%TD*%
D25*
%TO.P,C2,1*%
%TO.N,/Inversor/12V_Inv*%
X136406000Y-126528137D03*
%TO.P,C2,2*%
%TO.N,GND_Inv*%
X132806000Y-126528137D03*
%TD*%
D21*
%TO.P,Inv_Signal1,1,Pin_1*%
%TO.N,Signal_V_In*%
X110095000Y-126936500D03*
D22*
%TO.P,Inv_Signal1,2,Pin_2*%
%TO.N,/Inversor/Gnd_Micro*%
X107555000Y-126936500D03*
%TO.P,Inv_Signal1,3,Pin_3*%
%TO.N,Signal_U_Sd*%
X105015000Y-126936500D03*
%TO.P,Inv_Signal1,4,Pin_4*%
%TO.N,Signal_U_In*%
X102475000Y-126936500D03*
%TD*%
D13*
%TO.P,R10,1*%
%TO.N,/Inversor/12V_Inv*%
X145669000Y-103044000D03*
%TO.P,R10,2*%
%TO.N,Net-(Q10-B)*%
X145669000Y-101219000D03*
%TD*%
D24*
%TO.P,R5,1*%
%TO.N,/Inversor/12V_Inv*%
X105918000Y-102108000D03*
%TO.P,R5,2*%
%TO.N,Net-(Q7-C)*%
X104093000Y-102108000D03*
%TD*%
D16*
%TO.P,C11,1*%
%TO.N,Net-(D9-K)*%
X160401000Y-96446000D03*
%TO.P,C11,2*%
%TO.N,Mid_W*%
X160401000Y-98171000D03*
%TD*%
D26*
%TO.P,Motor_Out1,1,Pin_1*%
%TO.N,Mid_W*%
X157734000Y-59690000D03*
D27*
%TO.P,Motor_Out1,2,Pin_2*%
%TO.N,Mid_V*%
X152654000Y-59690000D03*
%TO.P,Motor_Out1,3,Pin_3*%
%TO.N,Mid_U*%
X147574000Y-59690000D03*
%TD*%
D28*
%TO.P,U1,1,+Vin*%
%TO.N,Net-(12V_Inv1-Pin_2)*%
X161784000Y-128079500D03*
D29*
%TO.P,U1,2,-Vin*%
%TO.N,Net-(12V_Inv1-Pin_1)*%
X159244000Y-128079500D03*
%TO.P,U1,4,-Vout*%
%TO.N,GND_Inv*%
X154164000Y-128079500D03*
%TO.P,U1,6,+Vout*%
%TO.N,/Inversor/12V_Inv*%
X149084000Y-128079500D03*
%TD*%
D14*
%TO.P,C8,1*%
%TO.N,/Inversor/12V_Inv*%
X137116000Y-105283000D03*
%TO.P,C8,2*%
%TO.N,GND_Inv*%
X140716000Y-105283000D03*
%TD*%
D13*
%TO.P,R13,1*%
%TO.N,Net-(U7-HO)*%
X135509000Y-94154000D03*
%TO.P,R13,2*%
%TO.N,Gate_V_High*%
X135509000Y-92329000D03*
%TD*%
D18*
%TO.P,U4,1,VCC*%
%TO.N,/Inversor/12V_Inv*%
X112395000Y-101343000D03*
%TO.P,U4,2,IN*%
%TO.N,Net-(Q7-C)*%
X113665000Y-101343000D03*
%TO.P,U4,3,~{SD}*%
%TO.N,Net-(Q8-C)*%
X114935000Y-101343000D03*
%TO.P,U4,4,COM*%
%TO.N,GND_Inv*%
X116205000Y-101343000D03*
%TO.P,U4,5,LO*%
%TO.N,Net-(U4-LO)*%
X116205000Y-96393000D03*
%TO.P,U4,6,VS*%
%TO.N,Mid_U*%
X114935000Y-96393000D03*
%TO.P,U4,7,HO*%
%TO.N,Net-(U4-HO)*%
X113665000Y-96393000D03*
%TO.P,U4,8,VB*%
%TO.N,Net-(D7-K)*%
X112395000Y-96393000D03*
%TD*%
D23*
%TO.P,Q8,1,B*%
%TO.N,Net-(Q8-B)*%
X121714500Y-98232000D03*
%TO.P,Q8,2,E*%
%TO.N,GND_Inv*%
X121714500Y-96332000D03*
%TO.P,Q8,3,C*%
%TO.N,Net-(Q8-C)*%
X119839500Y-97282000D03*
%TD*%
D20*
%TO.P,R3,1*%
%TO.N,/Inversor/12V_Inv*%
X107950000Y-102823000D03*
%TO.P,R3,2*%
%TO.N,Net-(Q7-B)*%
X107950000Y-104648000D03*
%TD*%
D30*
%TO.P,D9,1,K*%
%TO.N,Net-(D9-K)*%
X156337000Y-95406000D03*
%TO.P,D9,2,A*%
%TO.N,/Inversor/12V_Inv*%
X156337000Y-96806000D03*
%TD*%
D18*
%TO.P,U7,1,VCC*%
%TO.N,/Inversor/12V_Inv*%
X137668000Y-101343000D03*
%TO.P,U7,2,IN*%
%TO.N,Net-(Q9-C)*%
X138938000Y-101343000D03*
%TO.P,U7,3,~{SD}*%
%TO.N,Net-(Q10-C)*%
X140208000Y-101343000D03*
%TO.P,U7,4,COM*%
%TO.N,GND_Inv*%
X141478000Y-101343000D03*
%TO.P,U7,5,LO*%
%TO.N,Net-(U7-LO)*%
X141478000Y-96393000D03*
%TO.P,U7,6,VS*%
%TO.N,Mid_V*%
X140208000Y-96393000D03*
%TO.P,U7,7,HO*%
%TO.N,Net-(U7-HO)*%
X138938000Y-96393000D03*
%TO.P,U7,8,VB*%
%TO.N,Net-(D8-K)*%
X137668000Y-96393000D03*
%TD*%
D30*
%TO.P,D7,1,K*%
%TO.N,Net-(D7-K)*%
X106172000Y-95406000D03*
%TO.P,D7,2,A*%
%TO.N,/Inversor/12V_Inv*%
X106172000Y-96806000D03*
%TD*%
D24*
%TO.P,R17,1*%
%TO.N,/Inversor/12V_Inv*%
X156083000Y-102108000D03*
%TO.P,R17,2*%
%TO.N,Net-(Q11-C)*%
X154258000Y-102108000D03*
%TD*%
%TO.P,R1,1*%
%TO.N,Net-(D1-K)*%
X141233500Y-127571500D03*
%TO.P,R1,2*%
%TO.N,GND_Inv*%
X139408500Y-127571500D03*
%TD*%
D23*
%TO.P,Q10,1,B*%
%TO.N,Net-(Q10-B)*%
X146987500Y-98232000D03*
%TO.P,Q10,2,E*%
%TO.N,GND_Inv*%
X146987500Y-96332000D03*
%TO.P,Q10,3,C*%
%TO.N,Net-(Q10-C)*%
X145112500Y-97282000D03*
%TD*%
D19*
%TO.P,Q9,1,B*%
%TO.N,Net-(Q9-B)*%
X131252000Y-104932000D03*
%TO.P,Q9,2,E*%
%TO.N,GND_Inv*%
X129352000Y-104932000D03*
%TO.P,Q9,3,C*%
%TO.N,Net-(Q9-C)*%
X130302000Y-106807000D03*
%TD*%
D30*
%TO.P,D8,1,K*%
%TO.N,Net-(D8-K)*%
X131445000Y-95406000D03*
%TO.P,D8,2,A*%
%TO.N,/Inversor/12V_Inv*%
X131445000Y-96806000D03*
%TD*%
D13*
%TO.P,R7,1*%
%TO.N,Net-(U4-HO)*%
X110236000Y-94154000D03*
%TO.P,R7,2*%
%TO.N,Gate_U_High*%
X110236000Y-92329000D03*
%TD*%
D21*
%TO.P,Inv_Signal2,1,Pin_1*%
%TO.N,Signal_W_Sd*%
X126605000Y-126936500D03*
D22*
%TO.P,Inv_Signal2,2,Pin_2*%
%TO.N,/Inversor/Gnd_Micro*%
X124065000Y-126936500D03*
%TO.P,Inv_Signal2,3,Pin_3*%
%TO.N,Signal_W_In*%
X121525000Y-126936500D03*
%TO.P,Inv_Signal2,4,Pin_4*%
%TO.N,Signal_V_Sd*%
X118985000Y-126936500D03*
%TD*%
D19*
%TO.P,Q11,1,B*%
%TO.N,Net-(Q11-B)*%
X156144000Y-104932000D03*
%TO.P,Q11,2,E*%
%TO.N,GND_Inv*%
X154244000Y-104932000D03*
%TO.P,Q11,3,C*%
%TO.N,Net-(Q11-C)*%
X155194000Y-106807000D03*
%TD*%
D20*
%TO.P,R9,1*%
%TO.N,/Inversor/12V_Inv*%
X133223000Y-102823000D03*
%TO.P,R9,2*%
%TO.N,Net-(Q9-B)*%
X133223000Y-104648000D03*
%TD*%
D31*
%TO.P,C1,1*%
%TO.N,Net-(12V_Inv1-Pin_2)*%
X168007000Y-128355500D03*
%TO.P,C1,2*%
%TO.N,Net-(12V_Inv1-Pin_1)*%
X168007000Y-124755500D03*
%TD*%
D32*
%TO.P,Q6,1,G*%
%TO.N,Gate_W_Low*%
X166624000Y-87884000D03*
D33*
%TO.P,Q6,2,D*%
%TO.N,Mid_W*%
X169164000Y-87884000D03*
%TO.P,Q6,3,S*%
%TO.N,GND_Inv*%
X171704000Y-87884000D03*
%TD*%
D32*
%TO.P,Q4,1,G*%
%TO.N,Gate_V_Low*%
X141224000Y-88011000D03*
D33*
%TO.P,Q4,2,D*%
%TO.N,Mid_V*%
X143764000Y-88011000D03*
%TO.P,Q4,3,S*%
%TO.N,GND_Inv*%
X146304000Y-88011000D03*
%TD*%
D32*
%TO.P,Q1,1,G*%
%TO.N,Gate_U_High*%
X104775000Y-88011000D03*
D33*
%TO.P,Q1,2,D*%
%TO.N,/Inversor/HVDC_Bus*%
X107315000Y-88011000D03*
%TO.P,Q1,3,S*%
%TO.N,Mid_U*%
X109855000Y-88011000D03*
%TD*%
D32*
%TO.P,Q3,1,G*%
%TO.N,Gate_V_High*%
X129540000Y-88011000D03*
D33*
%TO.P,Q3,2,D*%
%TO.N,/Inversor/HVDC_Bus*%
X132080000Y-88011000D03*
%TO.P,Q3,3,S*%
%TO.N,Mid_V*%
X134620000Y-88011000D03*
%TD*%
D32*
%TO.P,Q2,1,G*%
%TO.N,Gate_U_Low*%
X116713000Y-88011000D03*
D33*
%TO.P,Q2,2,D*%
%TO.N,Mid_U*%
X119253000Y-88011000D03*
%TO.P,Q2,3,S*%
%TO.N,GND_Inv*%
X121793000Y-88011000D03*
%TD*%
D32*
%TO.P,Q5,1,G*%
%TO.N,Gate_W_High*%
X154813000Y-87884000D03*
D33*
%TO.P,Q5,2,D*%
%TO.N,/Inversor/HVDC_Bus*%
X157353000Y-87884000D03*
%TO.P,Q5,3,S*%
%TO.N,Mid_W*%
X159893000Y-87884000D03*
%TD*%
D34*
%TO.N,GND_Inv*%
X115189000Y-58229500D03*
X113157000Y-59245500D03*
X112141000Y-57213500D03*
X112141000Y-59245500D03*
X112141000Y-58229500D03*
X115189000Y-61277500D03*
X115189000Y-60261500D03*
X115189000Y-59245500D03*
X115189000Y-57213500D03*
X115189000Y-56197500D03*
X113157000Y-61277500D03*
X114173000Y-59245500D03*
X114173000Y-61277500D03*
X113157000Y-60261500D03*
X113157000Y-58229500D03*
X113157000Y-57213500D03*
X114173000Y-56197500D03*
D35*
X175768000Y-113220500D03*
D34*
X114173000Y-57213500D03*
X112141000Y-56197500D03*
X112141000Y-61277500D03*
X112141000Y-60261500D03*
X114173000Y-60261500D03*
X114173000Y-58229500D03*
X113157000Y-56197500D03*
D35*
%TO.N,/Inversor/12V_Inv*%
X162941000Y-110998000D03*
X138684000Y-110998000D03*
X113792000Y-110998000D03*
D34*
%TO.N,Mid_U*%
X127254000Y-70548500D03*
X127254000Y-71564500D03*
X144145000Y-58356500D03*
X142113000Y-59372500D03*
X126238000Y-70548500D03*
X144145000Y-61404500D03*
X141097000Y-58356500D03*
X127254000Y-72580500D03*
X126238000Y-72580500D03*
X125222000Y-72580500D03*
X124206000Y-70548500D03*
X142113000Y-60388500D03*
X141097000Y-59372500D03*
X142113000Y-61404500D03*
X144145000Y-60388500D03*
X142113000Y-58356500D03*
X126238000Y-71564500D03*
X124206000Y-71564500D03*
X144145000Y-59372500D03*
X141097000Y-60388500D03*
X143129000Y-59372500D03*
X125222000Y-70548500D03*
X143129000Y-60388500D03*
X125222000Y-71564500D03*
X124206000Y-72580500D03*
X143129000Y-61404500D03*
X143129000Y-58356500D03*
%TO.N,Mid_V*%
X153416000Y-68516500D03*
X150368000Y-69532500D03*
X153416000Y-67500500D03*
X151384000Y-66484500D03*
X151384000Y-68516500D03*
X152400000Y-69532500D03*
X152400000Y-66484500D03*
X150368000Y-66484500D03*
X153416000Y-69532500D03*
X151384000Y-69532500D03*
X150368000Y-68516500D03*
X152400000Y-67500500D03*
X150368000Y-67500500D03*
X153416000Y-66484500D03*
X151384000Y-67500500D03*
X152400000Y-68516500D03*
%TD*%
D36*
%TO.N,GND_Inv*%
X148717000Y-111569500D02*
X148717000Y-113220500D01*
X144968200Y-113220500D02*
X143954500Y-113220500D01*
X116205000Y-101343000D02*
X117091000Y-101343000D01*
X115465000Y-105283000D02*
X115443000Y-105305000D01*
X123571000Y-113220500D02*
X123571000Y-107630000D01*
X144968200Y-106999800D02*
X144968200Y-113220500D01*
X151067241Y-129603500D02*
X144780000Y-129603500D01*
X174244000Y-87884000D02*
X171704000Y-87884000D01*
X149542500Y-113220500D02*
X143954500Y-113220500D01*
X141986000Y-105283000D02*
X142748000Y-104521000D01*
X132842000Y-129349500D02*
X139305000Y-129349500D01*
X123444000Y-113220500D02*
X122650250Y-113220500D01*
X123571000Y-107630000D02*
X123632000Y-107569000D01*
X153132000Y-104932000D02*
X151003000Y-107061000D01*
X152971500Y-113220500D02*
X151003000Y-113220500D01*
X147828000Y-96329500D02*
X148717000Y-97218500D01*
X104079000Y-104932000D02*
X101884000Y-104932000D01*
X148717000Y-97218500D02*
X148717000Y-110553500D01*
X119826800Y-106868200D02*
X119826800Y-113159300D01*
X152400000Y-128333500D02*
X152337241Y-128333500D01*
X142748000Y-104521000D02*
X142748000Y-102494400D01*
X129352000Y-104932000D02*
X128367000Y-104932000D01*
X152654000Y-128079500D02*
X152400000Y-128333500D01*
X139432000Y-127548000D02*
X139432000Y-129222500D01*
X151003000Y-107061000D02*
X151003000Y-113220500D01*
X119826800Y-113159300D02*
X119888000Y-113220500D01*
X171029282Y-102110700D02*
X171625500Y-102706918D01*
X132080000Y-128587500D02*
X132842000Y-129349500D01*
X123632000Y-97089000D02*
X122875000Y-96332000D01*
X144780000Y-129603500D02*
X144526000Y-129349500D01*
X146733500Y-102706918D02*
X146733500Y-105234500D01*
X142748000Y-102494400D02*
X143131700Y-102110700D01*
X117091000Y-101343000D02*
X117858700Y-102110700D01*
X140716000Y-105283000D02*
X141986000Y-105283000D01*
X141478000Y-101343000D02*
X142364000Y-101343000D01*
X154164000Y-128079500D02*
X152654000Y-128079500D01*
X136271000Y-113220500D02*
X136271000Y-110998000D01*
X101854000Y-65278000D02*
X104140000Y-62992000D01*
X169037000Y-107823000D02*
X169037000Y-113220500D01*
X117475000Y-104521000D02*
X117475000Y-102494400D01*
X102997000Y-113220500D02*
X101854000Y-112077500D01*
X146137282Y-102110700D02*
X146733500Y-102706918D01*
X132080000Y-126577500D02*
X132080000Y-128587500D01*
X121460500Y-102706918D02*
X121460500Y-105234500D01*
X132806000Y-126528137D02*
X132129363Y-126528137D01*
X143131700Y-102110700D02*
X146137282Y-102110700D01*
X139408500Y-127571500D02*
X139432000Y-127548000D01*
X167640000Y-104521000D02*
X167640000Y-102494400D01*
X159956500Y-113220500D02*
X152971500Y-113220500D01*
X168023700Y-102110700D02*
X171029282Y-102110700D01*
X171879500Y-96332000D02*
X175702000Y-96332000D01*
X121460500Y-105234500D02*
X119826800Y-106868200D01*
X111633000Y-113220500D02*
X123444000Y-113220500D01*
X167256000Y-101343000D02*
X168023700Y-102110700D01*
X166878000Y-105283000D02*
X167640000Y-104521000D01*
X146939000Y-96329500D02*
X147828000Y-96329500D01*
X165630000Y-105283000D02*
X165608000Y-105305000D01*
X120864282Y-102110700D02*
X121460500Y-102706918D01*
X111633000Y-113220500D02*
X102997000Y-113220500D01*
X175768000Y-107442000D02*
X175768000Y-96266000D01*
X117858700Y-102110700D02*
X120864282Y-102110700D01*
X160655000Y-110998000D02*
X160655000Y-113220500D01*
X148717000Y-110553500D02*
X148717000Y-111569500D01*
X146733500Y-105234500D02*
X144968200Y-106999800D01*
X117475000Y-102494400D02*
X117858700Y-102110700D01*
X175768000Y-113220500D02*
X175768000Y-107442000D01*
X122875000Y-96332000D02*
X121714500Y-96332000D01*
X132129363Y-126528137D02*
X132080000Y-126577500D01*
X175702000Y-96332000D02*
X175768000Y-96266000D01*
X128367000Y-104932000D02*
X126365000Y-106934000D01*
X144526000Y-129349500D02*
X139305000Y-129349500D01*
X175768000Y-89408000D02*
X174244000Y-87884000D01*
X151003000Y-113220500D02*
X149542500Y-113220500D01*
X148717000Y-111125000D02*
X148717000Y-111569500D01*
X152337241Y-128333500D02*
X151067241Y-129603500D01*
X138811000Y-113220500D02*
X143954500Y-113220500D01*
X123632000Y-107569000D02*
X123632000Y-97089000D01*
X111633000Y-110520500D02*
X111633000Y-113220500D01*
X167640000Y-102494400D02*
X168023700Y-102110700D01*
X138811000Y-113220500D02*
X126365000Y-113220500D01*
X171625500Y-105234500D02*
X169037000Y-107823000D01*
X166370000Y-101343000D02*
X167256000Y-101343000D01*
X171625500Y-102706918D02*
X171625500Y-105234500D01*
X154244000Y-104932000D02*
X153132000Y-104932000D01*
X165608000Y-105283000D02*
X166878000Y-105283000D01*
X126365000Y-106934000D02*
X126365000Y-113220500D01*
X142364000Y-101343000D02*
X143131700Y-102110700D01*
X115443000Y-105283000D02*
X116713000Y-105283000D01*
X159956500Y-113220500D02*
X168719500Y-113220500D01*
X101854000Y-112077500D02*
X101854000Y-65278000D01*
X104140000Y-62992000D02*
X113411000Y-62992000D01*
X122650250Y-113220500D02*
X126365000Y-113220500D01*
X168719500Y-113220500D02*
X175768000Y-113220500D01*
X172847000Y-110998000D02*
X172847000Y-113220500D01*
X139432000Y-129222500D02*
X139305000Y-129349500D01*
X175768000Y-96266000D02*
X175768000Y-89408000D01*
X140738000Y-105283000D02*
X140716000Y-105305000D01*
X116713000Y-105283000D02*
X117475000Y-104521000D01*
%TO.N,Net-(D1-K)*%
X141196000Y-125666500D02*
X141196000Y-127534000D01*
X141196000Y-127534000D02*
X141233500Y-127571500D01*
%TO.N,Signal_U_In*%
X106553000Y-121688137D02*
X106553000Y-118618000D01*
X103745000Y-123226137D02*
X105015000Y-123226137D01*
X102475000Y-124496137D02*
X103745000Y-123226137D01*
X102475000Y-126936500D02*
X102475000Y-124496137D01*
X105015000Y-123226137D02*
X106553000Y-121688137D01*
%TO.N,Signal_U_Sd*%
X118491000Y-120269000D02*
X118491000Y-118618000D01*
X116649500Y-122110500D02*
X118491000Y-120269000D01*
X105015000Y-126936500D02*
X105015000Y-125512137D01*
X105015000Y-125512137D02*
X108416637Y-122110500D01*
X108416637Y-122110500D02*
X116649500Y-122110500D01*
%TO.N,Signal_V_In*%
X110095000Y-126936500D02*
X110095000Y-125258137D01*
X118618000Y-121983500D02*
X130683000Y-121983500D01*
X116529182Y-124072319D02*
X118618000Y-121983500D01*
X111280818Y-124072319D02*
X116529182Y-124072319D01*
X130683000Y-121983500D02*
X131191000Y-121475500D01*
X131191000Y-121475500D02*
X131191000Y-119984500D01*
X110095000Y-125258137D02*
X111280818Y-124072319D01*
%TO.N,Signal_W_In*%
X122894637Y-123888500D02*
X121525000Y-125258137D01*
X155575000Y-118618000D02*
X155575000Y-121793000D01*
X155130500Y-122237500D02*
X133096000Y-122237500D01*
X133096000Y-122237500D02*
X131445000Y-123888500D01*
X131445000Y-123888500D02*
X122894637Y-123888500D01*
X155575000Y-121793000D02*
X155130500Y-122237500D01*
X121525000Y-125258137D02*
X121525000Y-126936500D01*
%TO.N,Signal_V_Sd*%
X142875000Y-121412000D02*
X143764000Y-120523000D01*
X130937000Y-122999500D02*
X132524500Y-121412000D01*
X118985000Y-126936500D02*
X118985000Y-124750137D01*
X132524500Y-121412000D02*
X142875000Y-121412000D01*
X118985000Y-124750137D02*
X120735637Y-122999500D01*
X143764000Y-120523000D02*
X143764000Y-118618000D01*
X120735637Y-122999500D02*
X130937000Y-122999500D01*
%TO.N,Signal_W_Sd*%
X126605000Y-125766137D02*
X126605000Y-126936500D01*
X167767000Y-118651000D02*
X167767000Y-120523000D01*
X166814500Y-121475500D02*
X157607000Y-121475500D01*
X155956000Y-123126500D02*
X133858000Y-123126500D01*
X133858000Y-123126500D02*
X132334000Y-124650500D01*
X127720637Y-124650500D02*
X126605000Y-125766137D01*
X157607000Y-121475500D02*
X155956000Y-123126500D01*
X132334000Y-124650500D02*
X127720637Y-124650500D01*
X167767000Y-120523000D02*
X166814500Y-121475500D01*
%TO.N,Gate_U_High*%
X104775000Y-88138000D02*
X104775000Y-90170000D01*
X104775000Y-90170000D02*
X105664000Y-91059000D01*
X104775000Y-88011000D02*
X104902000Y-88011000D01*
X104902000Y-88011000D02*
X104775000Y-88138000D01*
X105664000Y-91059000D02*
X107823000Y-91059000D01*
X107823000Y-91059000D02*
X109093000Y-92329000D01*
X109093000Y-92329000D02*
X110236000Y-92329000D01*
%TO.N,Gate_U_Low*%
X116713000Y-91543500D02*
X116713000Y-88011000D01*
%TO.N,Gate_V_High*%
X134366000Y-92329000D02*
X135509000Y-92329000D01*
X133096000Y-91059000D02*
X134366000Y-92329000D01*
X129540000Y-90424000D02*
X130175000Y-91059000D01*
X129540000Y-88011000D02*
X129540000Y-90424000D01*
X130175000Y-91059000D02*
X133096000Y-91059000D01*
%TO.N,Gate_V_Low*%
X141224000Y-88011000D02*
X141224000Y-91162500D01*
%TO.N,Net-(12V_Inv1-Pin_1)*%
X175400363Y-124777500D02*
X177024000Y-126401137D01*
X172974000Y-124142500D02*
X173609000Y-124777500D01*
X157988000Y-128079500D02*
X157861000Y-127952500D01*
X157861000Y-127952500D02*
X157861000Y-127889741D01*
X171309000Y-124142500D02*
X172974000Y-124142500D01*
X160973241Y-124777500D02*
X170674000Y-124777500D01*
X157861000Y-127889741D02*
X160973241Y-124777500D01*
X170674000Y-124777500D02*
X171309000Y-124142500D01*
X159244000Y-128079500D02*
X157988000Y-128079500D01*
X173609000Y-124777500D02*
X175400363Y-124777500D01*
%TO.N,Gate_W_High*%
X154813000Y-87884000D02*
X154813000Y-88773000D01*
X154813000Y-87884000D02*
X154813000Y-90043000D01*
X157607000Y-90678000D02*
X159258000Y-92329000D01*
X159258000Y-92329000D02*
X160401000Y-92329000D01*
X154813000Y-90043000D02*
X155448000Y-90678000D01*
X155448000Y-90678000D02*
X157607000Y-90678000D01*
%TO.N,Gate_W_Low*%
X166624000Y-91162500D02*
X166624000Y-87884000D01*
%TO.N,Net-(Q9-C)*%
X129286000Y-96393000D02*
X129286000Y-101600000D01*
X137971914Y-99822000D02*
X134747000Y-99822000D01*
X134747000Y-99822000D02*
X133985000Y-99060000D01*
X133985000Y-96647000D02*
X133477000Y-96139000D01*
X129516500Y-102108000D02*
X129286000Y-101877500D01*
X138938000Y-100788086D02*
X137971914Y-99822000D01*
X133985000Y-99060000D02*
X133985000Y-96647000D01*
D37*
X129578500Y-96100500D02*
X129540000Y-96139000D01*
D36*
X129516500Y-102910000D02*
X129516500Y-102108000D01*
X129366000Y-102108000D02*
X129286000Y-102028000D01*
X129286000Y-101600000D02*
X129286000Y-102028000D01*
X130302000Y-106807000D02*
X130302000Y-103695500D01*
X138938000Y-101343000D02*
X138938000Y-100788086D01*
X129286000Y-101877500D02*
X129286000Y-101600000D01*
X130302000Y-103695500D02*
X129516500Y-102910000D01*
D37*
X133477000Y-96139000D02*
X133438500Y-96100500D01*
X133438500Y-96100500D02*
X129578500Y-96100500D01*
D36*
X129540000Y-96139000D02*
X129286000Y-96393000D01*
%TO.N,Net-(Q9-B)*%
X132356000Y-104853500D02*
X132561500Y-104648000D01*
X133223000Y-107696000D02*
X133731000Y-108204000D01*
X132561500Y-104648000D02*
X133223000Y-104648000D01*
X131252000Y-104853500D02*
X132356000Y-104853500D01*
X133731000Y-108204000D02*
X133731000Y-110998000D01*
X133223000Y-104648000D02*
X133223000Y-107696000D01*
%TO.N,Net-(Q10-B)*%
X147701000Y-106426000D02*
X147701000Y-101995000D01*
X147005000Y-101092000D02*
X146901500Y-101195500D01*
X147005000Y-98618000D02*
X147005000Y-101092000D01*
X147701000Y-106553000D02*
X146304000Y-107950000D01*
X147701000Y-101995000D02*
X147005000Y-101299000D01*
X147005000Y-101299000D02*
X146925000Y-101219000D01*
X147701000Y-106426000D02*
X147701000Y-106553000D01*
X146304000Y-107950000D02*
X146304000Y-110998000D01*
X146987500Y-98600500D02*
X147005000Y-98618000D01*
X146987500Y-98232000D02*
X146987500Y-98600500D01*
X147005000Y-101299000D02*
X147005000Y-101092000D01*
X146925000Y-101219000D02*
X145669000Y-101219000D01*
%TO.N,Net-(Q10-C)*%
X144018000Y-98376500D02*
X145112500Y-97282000D01*
X144018000Y-100330000D02*
X144018000Y-99441000D01*
X144018000Y-99441000D02*
X144018000Y-98376500D01*
X140589000Y-99568000D02*
X140208000Y-99949000D01*
X140208000Y-99949000D02*
X140208000Y-101343000D01*
X140716000Y-99441000D02*
X144018000Y-99441000D01*
X140589000Y-99568000D02*
X140716000Y-99441000D01*
X144018000Y-100330000D02*
X144018000Y-101219000D01*
D37*
%TO.N,Net-(Q11-C)*%
X158369000Y-96139000D02*
X158340500Y-96110500D01*
D36*
X162863914Y-99822000D02*
X159639000Y-99822000D01*
D37*
X154460500Y-96110500D02*
X154432000Y-96139000D01*
D36*
X158877000Y-96647000D02*
X158369000Y-96139000D01*
X154408500Y-102910000D02*
X154408500Y-102108000D01*
X158877000Y-99060000D02*
X158877000Y-96647000D01*
X155194000Y-103695500D02*
X154408500Y-102910000D01*
X154258000Y-102108000D02*
X154178000Y-102028000D01*
X155194000Y-106807000D02*
X155194000Y-103695500D01*
X159639000Y-99822000D02*
X158877000Y-99060000D01*
D37*
X158340500Y-96110500D02*
X154460500Y-96110500D01*
D36*
X154432000Y-96139000D02*
X154178000Y-96393000D01*
X154178000Y-101877500D02*
X154178000Y-101600000D01*
X163830000Y-101343000D02*
X163830000Y-100788086D01*
X154178000Y-96393000D02*
X154178000Y-101600000D01*
X154178000Y-101600000D02*
X154178000Y-102028000D01*
X163830000Y-100788086D02*
X162863914Y-99822000D01*
X154408500Y-102108000D02*
X154178000Y-101877500D01*
%TO.N,Net-(Q11-B)*%
X158115000Y-110998000D02*
X158115000Y-104648000D01*
X157453500Y-104648000D02*
X158115000Y-104648000D01*
X156144000Y-104853500D02*
X157248000Y-104853500D01*
X157248000Y-104853500D02*
X157453500Y-104648000D01*
%TO.N,Net-(Q12-B)*%
X171897000Y-101092000D02*
X171793500Y-101195500D01*
X171897000Y-101299000D02*
X171897000Y-101092000D01*
X171879500Y-98600500D02*
X171897000Y-98618000D01*
X171879500Y-98232000D02*
X171879500Y-98600500D01*
X171897000Y-98618000D02*
X171897000Y-101092000D01*
X172593000Y-106426000D02*
X172593000Y-101995000D01*
X171817000Y-101219000D02*
X170561000Y-101219000D01*
X172593000Y-101995000D02*
X171897000Y-101299000D01*
X171897000Y-101299000D02*
X171817000Y-101219000D01*
X170307000Y-110998000D02*
X170307000Y-108712000D01*
X170307000Y-108712000D02*
X172593000Y-106426000D01*
%TO.N,Net-(Q12-C)*%
X168910000Y-98376500D02*
X168910000Y-101219000D01*
X165608000Y-99441000D02*
X165100000Y-99949000D01*
X165100000Y-99949000D02*
X165100000Y-101343000D01*
X168910000Y-99441000D02*
X165608000Y-99441000D01*
X168910000Y-98376500D02*
X170004500Y-97282000D01*
%TO.N,/Inversor/12V_Inv*%
X145936363Y-128079500D02*
X149084000Y-128079500D01*
X115951000Y-110520500D02*
X114269500Y-110520500D01*
X112395000Y-101343000D02*
X110239000Y-101343000D01*
X131191000Y-102108000D02*
X131191000Y-101219000D01*
X160210500Y-108204000D02*
X159385000Y-109029500D01*
X135066800Y-112075200D02*
X135066800Y-109281200D01*
X106172000Y-100965000D02*
X106148500Y-100988500D01*
X131849500Y-102108000D02*
X132564500Y-102823000D01*
X131445000Y-100965000D02*
X131421500Y-100988500D01*
X166370000Y-108204000D02*
X164846000Y-108204000D01*
X144018000Y-104267000D02*
X144018000Y-103044000D01*
X135512000Y-101343000D02*
X134366000Y-102489000D01*
X109982000Y-112331500D02*
X110363000Y-111950500D01*
X136406000Y-126528137D02*
X136433363Y-126555500D01*
X138557000Y-108204000D02*
X139954000Y-108204000D01*
X168910000Y-103020500D02*
X170561000Y-103020500D01*
X109093000Y-102489000D02*
X109093000Y-105283000D01*
X158940500Y-112331500D02*
X153479500Y-112331500D01*
X167386000Y-107188000D02*
X168910000Y-105664000D01*
X138684000Y-108331000D02*
X138557000Y-108204000D01*
X168910000Y-105664000D02*
X168910000Y-104267000D01*
X134366000Y-102489000D02*
X134366000Y-105283000D01*
X165227000Y-110600500D02*
X165227000Y-108204000D01*
X128651000Y-110553500D02*
X128651000Y-112077500D01*
X132564500Y-102823000D02*
X133223000Y-102823000D01*
X156083000Y-102108000D02*
X156083000Y-101219000D01*
X118745000Y-105664000D02*
X118745000Y-104267000D01*
X104394000Y-112331500D02*
X109982000Y-112331500D01*
X110239000Y-101343000D02*
X109093000Y-102489000D01*
X131445000Y-96806000D02*
X131445000Y-100965000D01*
X107950000Y-102823000D02*
X108919000Y-102823000D01*
X144018000Y-104267000D02*
X144018000Y-103020500D01*
X160404000Y-101343000D02*
X159258000Y-102489000D01*
X109093000Y-106426000D02*
X110871000Y-108204000D01*
X167386000Y-107188000D02*
X166370000Y-108204000D01*
X159385000Y-109029500D02*
X159385000Y-111887000D01*
X131191000Y-101219000D02*
X131445000Y-100965000D01*
X133223000Y-102823000D02*
X134192000Y-102823000D01*
X159258000Y-107251500D02*
X160210500Y-108204000D01*
X137668000Y-101343000D02*
X135512000Y-101343000D01*
X161036000Y-108204000D02*
X164846000Y-108204000D01*
X110871000Y-108204000D02*
X115951000Y-108204000D01*
X118745000Y-103020500D02*
X120396000Y-103020500D01*
X131191000Y-102108000D02*
X131849500Y-102108000D01*
X156741500Y-102108000D02*
X157456500Y-102823000D01*
X104013000Y-111950500D02*
X104394000Y-112331500D01*
X159385000Y-111887000D02*
X158940500Y-112331500D01*
X110363000Y-111950500D02*
X110363000Y-108712000D01*
X156083000Y-102108000D02*
X156741500Y-102108000D01*
X161036000Y-108204000D02*
X160210500Y-108204000D01*
X168910000Y-104267000D02*
X168910000Y-103020500D01*
X128905000Y-112331500D02*
X134810500Y-112331500D01*
X156083000Y-101219000D02*
X156337000Y-100965000D01*
X159258000Y-105283000D02*
X159258000Y-107251500D01*
X134366000Y-106426000D02*
X136144000Y-108204000D01*
X144018000Y-105664000D02*
X144018000Y-104267000D01*
X137795000Y-125666500D02*
X139446000Y-125666500D01*
X157456500Y-102823000D02*
X158115000Y-102823000D01*
X165227000Y-108204000D02*
X164846000Y-108204000D01*
X156337000Y-96806000D02*
X156337000Y-100965000D01*
X120396000Y-103044000D02*
X118745000Y-103044000D01*
X115951000Y-110473500D02*
X115951000Y-108204000D01*
X134366000Y-105283000D02*
X134366000Y-106426000D01*
X114269500Y-110520500D02*
X113792000Y-110998000D01*
X128651000Y-112077500D02*
X128905000Y-112331500D01*
X106172000Y-100965000D02*
X106172000Y-96806000D01*
X140716000Y-124396500D02*
X142253363Y-124396500D01*
X111843000Y-105283000D02*
X109093000Y-105283000D01*
X153035000Y-111887000D02*
X153035000Y-110998000D01*
X118745000Y-104267000D02*
X118745000Y-103044000D01*
X145669000Y-103044000D02*
X144018000Y-103044000D01*
X134810500Y-112331500D02*
X135066800Y-112075200D01*
X165227000Y-110600500D02*
X163338500Y-110600500D01*
X142253363Y-124396500D02*
X145936363Y-128079500D01*
X139446000Y-125666500D02*
X140716000Y-124396500D01*
X141224000Y-110998000D02*
X141224000Y-108458000D01*
X135066800Y-109281200D02*
X136144000Y-108204000D01*
X109093000Y-105283000D02*
X109093000Y-106426000D01*
X104013000Y-110553500D02*
X104013000Y-111950500D01*
X105918000Y-102108000D02*
X106576500Y-102108000D01*
X106576500Y-102108000D02*
X107291500Y-102823000D01*
X170561000Y-103044000D02*
X168910000Y-103044000D01*
X105918000Y-101219000D02*
X106172000Y-100965000D01*
X110363000Y-108712000D02*
X110871000Y-108204000D01*
X117221000Y-107188000D02*
X116205000Y-108204000D01*
X159258000Y-102489000D02*
X159258000Y-105283000D01*
X142494000Y-107188000D02*
X141478000Y-108204000D01*
X137116000Y-105283000D02*
X134366000Y-105283000D01*
X156337000Y-100965000D02*
X156313500Y-100988500D01*
X138684000Y-110998000D02*
X138684000Y-108331000D01*
X136906000Y-126555500D02*
X137795000Y-125666500D01*
X153479500Y-112331500D02*
X153035000Y-111887000D01*
X144018000Y-103020500D02*
X145669000Y-103020500D01*
X107291500Y-102823000D02*
X107950000Y-102823000D01*
X136144000Y-108204000D02*
X138557000Y-108204000D01*
X136433363Y-126555500D02*
X136906000Y-126555500D01*
X117221000Y-107188000D02*
X118745000Y-105664000D01*
X158115000Y-102823000D02*
X159084000Y-102823000D01*
X163338500Y-110600500D02*
X162941000Y-110998000D01*
X118745000Y-104267000D02*
X118745000Y-103020500D01*
X162560000Y-101343000D02*
X160404000Y-101343000D01*
X141478000Y-108204000D02*
X139954000Y-108204000D01*
X162008000Y-105283000D02*
X159258000Y-105283000D01*
X116205000Y-108204000D02*
X115951000Y-108204000D01*
X168910000Y-104267000D02*
X168910000Y-103044000D01*
X141224000Y-108458000D02*
X141478000Y-108204000D01*
X105918000Y-102108000D02*
X105918000Y-101219000D01*
X142494000Y-107188000D02*
X144018000Y-105664000D01*
%TO.N,Net-(12V_Inv1-Pin_2)*%
X162504227Y-127896727D02*
X162963000Y-128355500D01*
X161966773Y-127896727D02*
X162504227Y-127896727D01*
X162963000Y-128355500D02*
X168007000Y-128355500D01*
X168007000Y-128355500D02*
X169904000Y-128355500D01*
X173694637Y-127190500D02*
X174484000Y-126401137D01*
X171069000Y-127190500D02*
X173694637Y-127190500D01*
X169904000Y-128355500D02*
X171069000Y-127190500D01*
X161784000Y-128079500D02*
X161966773Y-127896727D01*
%TO.N,Net-(D7-K)*%
X106172000Y-95406000D02*
X106172000Y-94678500D01*
X110289000Y-96393000D02*
X110236000Y-96446000D01*
X111379000Y-96419500D02*
X111633000Y-96419500D01*
X107886500Y-94424500D02*
X109251750Y-95789750D01*
X112306500Y-96419500D02*
X112395000Y-96331000D01*
X109881500Y-96419500D02*
X109251750Y-95789750D01*
X111633000Y-96419500D02*
X111659500Y-96393000D01*
X112395000Y-96393000D02*
X110289000Y-96393000D01*
X106426000Y-94424500D02*
X107886500Y-94424500D01*
X111379000Y-96419500D02*
X109881500Y-96419500D01*
X111659500Y-96393000D02*
X112395000Y-96393000D01*
X106172000Y-94678500D02*
X106426000Y-94424500D01*
X111379000Y-96419500D02*
X112306500Y-96419500D01*
%TO.N,Net-(U4-HO)*%
X113204000Y-94154000D02*
X113665000Y-94615000D01*
X110236000Y-94154000D02*
X113204000Y-94154000D01*
X113665000Y-94615000D02*
X113665000Y-96393000D01*
%TO.N,Net-(U4-LO)*%
X116205000Y-94615000D02*
X116689500Y-94130500D01*
X116689500Y-93392000D02*
X116713000Y-93368500D01*
X116689500Y-94130500D02*
X116689500Y-93392000D01*
X116205000Y-96393000D02*
X116205000Y-94615000D01*
%TO.N,Net-(U7-HO)*%
X138938000Y-94742000D02*
X138938000Y-96393000D01*
X135509000Y-94154000D02*
X138350000Y-94154000D01*
X138350000Y-94154000D02*
X138938000Y-94742000D01*
%TO.N,Net-(U7-LO)*%
X141224000Y-94361000D02*
X141224000Y-92987500D01*
X141478000Y-96393000D02*
X141478000Y-94615000D01*
X141478000Y-94615000D02*
X141224000Y-94361000D01*
%TO.N,Net-(U10-HO)*%
X160401000Y-94130500D02*
X160424500Y-94154000D01*
X160424500Y-94154000D02*
X163623000Y-94154000D01*
X163830000Y-94361000D02*
X163830000Y-96393000D01*
X163623000Y-94154000D02*
X163830000Y-94361000D01*
%TO.N,Net-(U10-LO)*%
X166370000Y-96393000D02*
X166370000Y-94615000D01*
X166624000Y-94361000D02*
X166624000Y-92987500D01*
X166370000Y-94615000D02*
X166624000Y-94361000D01*
%TO.N,Net-(Q7-B)*%
X107950000Y-107315000D02*
X109093000Y-108458000D01*
X109093000Y-108458000D02*
X109093000Y-110553500D01*
X107950000Y-104648000D02*
X107950000Y-107315000D01*
X107288500Y-104648000D02*
X107950000Y-104648000D01*
X107083000Y-104853500D02*
X107288500Y-104648000D01*
X105979000Y-104853500D02*
X107083000Y-104853500D01*
%TO.N,Net-(Q7-C)*%
X104267000Y-96139000D02*
X104013000Y-96393000D01*
X112698914Y-99822000D02*
X109474000Y-99822000D01*
X104243500Y-102910000D02*
X104243500Y-102108000D01*
X109474000Y-99822000D02*
X108712000Y-99060000D01*
X108712000Y-96647000D02*
X108204000Y-96139000D01*
D37*
X108175500Y-96110500D02*
X104295500Y-96110500D01*
D36*
X108712000Y-99060000D02*
X108712000Y-96647000D01*
X105029000Y-106807000D02*
X105029000Y-103695500D01*
X104013000Y-101877500D02*
X104013000Y-101600000D01*
X113665000Y-100788086D02*
X112698914Y-99822000D01*
D37*
X104295500Y-96110500D02*
X104267000Y-96139000D01*
D36*
X104093000Y-102108000D02*
X104013000Y-102028000D01*
X104243500Y-102108000D02*
X104013000Y-101877500D01*
D37*
X108204000Y-96139000D02*
X108175500Y-96110500D01*
D36*
X104013000Y-101600000D02*
X104013000Y-102028000D01*
X105029000Y-103695500D02*
X104243500Y-102910000D01*
X113665000Y-101343000D02*
X113665000Y-100788086D01*
X104013000Y-96393000D02*
X104013000Y-101600000D01*
%TO.N,Net-(Q8-B)*%
X121732000Y-98618000D02*
X121732000Y-101092000D01*
X121652000Y-101219000D02*
X120396000Y-101219000D01*
X121714500Y-98232000D02*
X121714500Y-98600500D01*
X121732000Y-101092000D02*
X121628500Y-101195500D01*
X121714500Y-98600500D02*
X121732000Y-98618000D01*
X122428000Y-101995000D02*
X122428000Y-106426000D01*
X121732000Y-101299000D02*
X122428000Y-101995000D01*
X122428000Y-106426000D02*
X121031000Y-107823000D01*
X121732000Y-101299000D02*
X121652000Y-101219000D01*
X121732000Y-101299000D02*
X121732000Y-101092000D01*
X121031000Y-107823000D02*
X121031000Y-110998000D01*
%TO.N,Net-(Q8-C)*%
X118745000Y-100330000D02*
X118745000Y-101219000D01*
X118745000Y-98376500D02*
X119839500Y-97282000D01*
X114935000Y-101343000D02*
X114935000Y-99949000D01*
X114935000Y-99949000D02*
X115316000Y-99568000D01*
X118745000Y-99314000D02*
X118745000Y-98376500D01*
X115316000Y-99568000D02*
X118745000Y-99568000D01*
X118745000Y-100330000D02*
X118745000Y-99314000D01*
%TO.N,Net-(D8-K)*%
X136932500Y-96393000D02*
X137668000Y-96393000D01*
X133159500Y-94424500D02*
X133985000Y-95250000D01*
X137668000Y-96393000D02*
X135562000Y-96393000D01*
X131445000Y-95406000D02*
X131445000Y-94805500D01*
X135562000Y-96393000D02*
X135509000Y-96446000D01*
X136652000Y-96419500D02*
X137579500Y-96419500D01*
X135154500Y-96419500D02*
X133985000Y-95250000D01*
X136906000Y-96419500D02*
X136932500Y-96393000D01*
X137579500Y-96419500D02*
X137668000Y-96331000D01*
X131445000Y-94805500D02*
X131826000Y-94424500D01*
X136652000Y-96419500D02*
X136906000Y-96419500D01*
X136652000Y-96419500D02*
X135154500Y-96419500D01*
X131826000Y-94424500D02*
X133159500Y-94424500D01*
%TO.N,Net-(D9-K)*%
X162471500Y-96419500D02*
X162560000Y-96331000D01*
X156337000Y-95406000D02*
X156337000Y-94805500D01*
X161544000Y-96419500D02*
X161798000Y-96419500D01*
X160454000Y-96393000D02*
X160401000Y-96446000D01*
X161544000Y-96419500D02*
X160046500Y-96419500D01*
X158051500Y-94424500D02*
X159924750Y-96297750D01*
X161824500Y-96393000D02*
X162560000Y-96393000D01*
X162560000Y-96393000D02*
X160454000Y-96393000D01*
X160046500Y-96419500D02*
X159924750Y-96297750D01*
X161544000Y-96419500D02*
X162471500Y-96419500D01*
X156337000Y-94805500D02*
X156718000Y-94424500D01*
X156718000Y-94424500D02*
X158051500Y-94424500D01*
X161798000Y-96419500D02*
X161824500Y-96393000D01*
%TO.N,/Inversor/Gnd_Micro*%
X110102124Y-128968500D02*
X110109000Y-128961624D01*
X108648500Y-117284500D02*
X100415637Y-117284500D01*
X170307000Y-117792500D02*
X170307000Y-119650500D01*
X157861000Y-117284500D02*
X169799000Y-117284500D01*
X133350000Y-117284500D02*
X146050000Y-117284500D01*
X121031000Y-118618000D02*
X121031000Y-117284500D01*
X107555000Y-126936500D02*
X107555000Y-128961624D01*
X98665000Y-119035137D02*
X98665000Y-127417137D01*
X157861000Y-117284500D02*
X158115000Y-117284500D01*
X124065000Y-126936500D02*
X124065000Y-128079500D01*
X121031000Y-117284500D02*
X121031000Y-119570500D01*
X169799000Y-117284500D02*
X170307000Y-117792500D01*
X110115876Y-128968500D02*
X111626124Y-128968500D01*
X111633000Y-128968500D02*
X123176000Y-128968500D01*
X146050000Y-117284500D02*
X146177000Y-117284500D01*
X158115000Y-117284500D02*
X158115000Y-118618000D01*
X133350000Y-117284500D02*
X133731000Y-117284500D01*
X146177000Y-117284500D02*
X146177000Y-119603500D01*
X108648500Y-117284500D02*
X121031000Y-117284500D01*
X133731000Y-117284500D02*
X133731000Y-119603500D01*
X100216363Y-128968500D02*
X110102124Y-128968500D01*
X124065000Y-128079500D02*
X123176000Y-128968500D01*
X146050000Y-117284500D02*
X157861000Y-117284500D01*
X121031000Y-117284500D02*
X133350000Y-117284500D01*
X109093000Y-117729000D02*
X108648500Y-117284500D01*
X98665000Y-127417137D02*
X100216363Y-128968500D01*
X110109000Y-128961624D02*
X110115876Y-128968500D01*
X100415637Y-117284500D02*
X98665000Y-119035137D01*
X107555000Y-128961624D02*
X110109000Y-128961624D01*
X109093000Y-119570500D02*
X109093000Y-117729000D01*
D38*
%TO.N,Mid_U*%
X147574000Y-59690000D02*
X143446500Y-59690000D01*
D36*
X114131999Y-98171000D02*
X114935000Y-97367999D01*
X109982000Y-87884000D02*
X109855000Y-88011000D01*
X114935000Y-96393000D02*
X114935000Y-92138500D01*
X114935000Y-92138500D02*
X110807500Y-88011000D01*
X110807500Y-88011000D02*
X109855000Y-88011000D01*
X114935000Y-97367999D02*
X114935000Y-96393000D01*
D38*
X139954000Y-59690000D02*
X135255000Y-59690000D01*
D36*
X110236000Y-98171000D02*
X114131999Y-98171000D01*
D38*
X135255000Y-59690000D02*
X125537000Y-69408000D01*
D36*
%TO.N,Mid_V*%
X142266500Y-98144500D02*
X143256000Y-97155000D01*
X143256000Y-94869000D02*
X143764000Y-94361000D01*
X139980500Y-98144500D02*
X139192000Y-98144500D01*
X143764000Y-94361000D02*
X143764000Y-88011000D01*
X143256000Y-97155000D02*
X143256000Y-94869000D01*
X139192000Y-98144500D02*
X142266500Y-98144500D01*
X139192000Y-98144500D02*
X135509000Y-98144500D01*
X140208000Y-97917000D02*
X139980500Y-98144500D01*
X140208000Y-97917000D02*
X140208000Y-96393000D01*
%TO.N,Mid_W*%
X167894000Y-95504000D02*
X169164000Y-94234000D01*
X169164000Y-94234000D02*
X169164000Y-87884000D01*
X167894000Y-97282000D02*
X167894000Y-95504000D01*
X165100000Y-94488000D02*
X165100000Y-97917000D01*
X167031500Y-98144500D02*
X167894000Y-97282000D01*
X164872500Y-98144500D02*
X163703000Y-98144500D01*
X165100000Y-97917000D02*
X164872500Y-98144500D01*
X165100000Y-94488000D02*
X165100000Y-96393000D01*
X163703000Y-98144500D02*
X167031500Y-98144500D01*
X163703000Y-98144500D02*
X160401000Y-98144500D01*
%TD*%
%TA.AperFunction,Conductor*%
%TO.N,GND_Inv*%
G36*
X179900474Y-90685889D02*
G01*
X179946317Y-90738616D01*
X179957609Y-90790316D01*
X179957609Y-113500431D01*
X179937924Y-113567470D01*
X179885120Y-113613225D01*
X179834024Y-113624430D01*
X96898715Y-113901809D01*
X96831610Y-113882349D01*
X96785679Y-113829698D01*
X96774300Y-113777824D01*
X96773481Y-105585149D01*
X103279000Y-105585149D01*
X103281899Y-105621989D01*
X103281900Y-105621995D01*
X103327716Y-105779693D01*
X103327717Y-105779696D01*
X103411314Y-105921052D01*
X103411321Y-105921061D01*
X103527438Y-106037178D01*
X103527447Y-106037185D01*
X103668801Y-106120781D01*
X103826514Y-106166600D01*
X103826511Y-106166600D01*
X103828998Y-106166795D01*
X103829000Y-106166795D01*
X103829000Y-105182000D01*
X103279000Y-105182000D01*
X103279000Y-105585149D01*
X96773481Y-105585149D01*
X96772015Y-90929017D01*
X96791693Y-90861978D01*
X96844492Y-90816218D01*
X96895803Y-90805007D01*
X104160190Y-90792860D01*
X104227262Y-90812433D01*
X104248078Y-90829179D01*
X105012539Y-91593640D01*
X105129360Y-91710461D01*
X105266727Y-91802246D01*
X105419360Y-91865469D01*
X105578147Y-91897054D01*
X105581390Y-91897699D01*
X105581393Y-91897700D01*
X105581395Y-91897700D01*
X107424237Y-91897700D01*
X107491276Y-91917385D01*
X107511918Y-91934019D01*
X108441539Y-92863640D01*
X108558360Y-92980461D01*
X108695727Y-93072246D01*
X108848360Y-93135469D01*
X109010390Y-93167699D01*
X109010393Y-93167700D01*
X109010395Y-93167700D01*
X109211514Y-93167700D01*
X109278553Y-93187385D01*
X109324308Y-93240189D01*
X109334252Y-93309347D01*
X109308162Y-93369385D01*
X109266440Y-93421290D01*
X109258586Y-93431061D01*
X109174218Y-93601172D01*
X109128391Y-93785446D01*
X109125500Y-93828085D01*
X109125500Y-94178036D01*
X109105815Y-94245075D01*
X109053011Y-94290830D01*
X108983853Y-94300774D01*
X108920297Y-94271749D01*
X108913819Y-94265717D01*
X108421142Y-93773040D01*
X108284189Y-93681532D01*
X108283773Y-93681254D01*
X108253105Y-93668551D01*
X108131140Y-93618031D01*
X108131132Y-93618029D01*
X107969108Y-93585800D01*
X107969105Y-93585800D01*
X106508605Y-93585800D01*
X106343395Y-93585800D01*
X106343392Y-93585800D01*
X106181367Y-93618029D01*
X106181359Y-93618031D01*
X106028728Y-93681253D01*
X105891357Y-93773040D01*
X105891356Y-93773041D01*
X105675805Y-93988594D01*
X105637360Y-94027039D01*
X105605491Y-94058908D01*
X105520539Y-94143859D01*
X105428753Y-94281228D01*
X105365531Y-94433859D01*
X105365529Y-94433867D01*
X105333300Y-94595890D01*
X105333300Y-94760346D01*
X105314294Y-94826318D01*
X105259812Y-94913025D01*
X105201347Y-95080107D01*
X105190726Y-95174383D01*
X105163660Y-95238797D01*
X105106065Y-95278352D01*
X105067506Y-95284500D01*
X104214141Y-95284500D01*
X104054573Y-95316240D01*
X104054561Y-95316243D01*
X103904244Y-95378505D01*
X103904235Y-95378510D01*
X103902757Y-95379498D01*
X103881354Y-95390936D01*
X103869731Y-95395751D01*
X103732357Y-95487540D01*
X103732356Y-95487541D01*
X103478360Y-95741539D01*
X103439461Y-95780438D01*
X103361539Y-95858359D01*
X103269753Y-95995728D01*
X103206531Y-96148359D01*
X103206529Y-96148367D01*
X103174300Y-96310390D01*
X103174300Y-101265307D01*
X103154615Y-101332346D01*
X103146948Y-101342993D01*
X103103087Y-101397558D01*
X103018718Y-101567672D01*
X102972891Y-101751946D01*
X102970000Y-101794585D01*
X102970000Y-102421415D01*
X102970001Y-102421419D01*
X102972890Y-102464047D01*
X102972890Y-102464048D01*
X103018718Y-102648327D01*
X103103087Y-102818441D01*
X103211650Y-102953498D01*
X103222056Y-102966444D01*
X103370058Y-103085412D01*
X103373668Y-103087202D01*
X103376592Y-103088653D01*
X103427904Y-103136075D01*
X103436056Y-103152287D01*
X103500252Y-103307271D01*
X103592040Y-103444642D01*
X103695147Y-103547749D01*
X103728632Y-103609072D01*
X103723648Y-103678764D01*
X103681776Y-103734697D01*
X103670587Y-103742162D01*
X103527447Y-103826814D01*
X103527438Y-103826821D01*
X103411321Y-103942938D01*
X103411314Y-103942947D01*
X103327717Y-104084303D01*
X103327716Y-104084306D01*
X103281900Y-104242004D01*
X103281899Y-104242010D01*
X103279000Y-104278850D01*
X103279000Y-104682000D01*
X103955000Y-104682000D01*
X104022039Y-104701685D01*
X104067794Y-104754489D01*
X104079000Y-104806000D01*
X104079000Y-104932000D01*
X104084279Y-104937279D01*
X104133339Y-104951685D01*
X104179094Y-105004489D01*
X104190300Y-105056000D01*
X104190300Y-105803421D01*
X104171296Y-105869390D01*
X104166811Y-105876527D01*
X104108347Y-106043607D01*
X104093500Y-106175384D01*
X104093500Y-107438610D01*
X104093501Y-107438614D01*
X104108348Y-107570393D01*
X104166811Y-107737473D01*
X104192659Y-107778609D01*
X104260986Y-107887350D01*
X104386150Y-108012514D01*
X104536028Y-108106689D01*
X104703104Y-108165151D01*
X104703107Y-108165152D01*
X104782511Y-108174098D01*
X104834891Y-108180000D01*
X105223108Y-108179999D01*
X105223110Y-108179999D01*
X105223111Y-108179998D01*
X105354896Y-108165151D01*
X105521972Y-108106689D01*
X105671850Y-108012514D01*
X105797014Y-107887350D01*
X105891189Y-107737472D01*
X105949651Y-107570396D01*
X105949651Y-107570394D01*
X105949652Y-107570392D01*
X105964499Y-107438615D01*
X105964499Y-107438614D01*
X105964500Y-107438609D01*
X105964499Y-106428998D01*
X105984183Y-106361960D01*
X106036987Y-106316205D01*
X106088499Y-106304999D01*
X106173111Y-106304999D01*
X106173112Y-106304998D01*
X106304896Y-106290151D01*
X106471972Y-106231689D01*
X106621850Y-106137514D01*
X106747014Y-106012350D01*
X106841189Y-105862472D01*
X106870258Y-105779395D01*
X106910980Y-105722620D01*
X106975932Y-105696872D01*
X107044494Y-105710328D01*
X107094897Y-105758715D01*
X107111300Y-105820350D01*
X107111300Y-107397609D01*
X107143529Y-107559632D01*
X107143531Y-107559640D01*
X107203890Y-107705360D01*
X107206754Y-107712273D01*
X107251075Y-107778605D01*
X107298540Y-107849642D01*
X107298541Y-107849643D01*
X108217981Y-108769082D01*
X108232684Y-108796009D01*
X108249277Y-108821828D01*
X108250168Y-108828028D01*
X108251466Y-108830405D01*
X108254300Y-108856763D01*
X108254300Y-109048533D01*
X108235294Y-109114504D01*
X108206979Y-109159566D01*
X108206976Y-109159573D01*
X108147584Y-109329307D01*
X108147583Y-109329313D01*
X108132500Y-109463182D01*
X108132500Y-109463186D01*
X108132500Y-109463189D01*
X108132500Y-110474500D01*
X108132501Y-111368800D01*
X108112816Y-111435839D01*
X108060013Y-111481594D01*
X108008501Y-111492800D01*
X107637500Y-111492800D01*
X107570461Y-111473115D01*
X107524706Y-111420311D01*
X107513500Y-111368800D01*
X107513499Y-109463187D01*
X107513498Y-109463181D01*
X107498416Y-109329310D01*
X107498413Y-109329297D01*
X107439023Y-109159572D01*
X107412435Y-109117257D01*
X107343349Y-109007307D01*
X107216193Y-108880151D01*
X107133240Y-108828028D01*
X107063929Y-108784477D01*
X106894192Y-108725084D01*
X106894186Y-108725083D01*
X106760315Y-108710000D01*
X106345687Y-108710000D01*
X106345681Y-108710001D01*
X106211810Y-108725083D01*
X106211797Y-108725086D01*
X106042072Y-108784476D01*
X105889806Y-108880151D01*
X105762651Y-109007306D01*
X105666977Y-109159570D01*
X105607584Y-109329307D01*
X105607583Y-109329313D01*
X105592500Y-109463182D01*
X105592500Y-109463186D01*
X105592500Y-109463189D01*
X105592500Y-110474500D01*
X105592501Y-111368800D01*
X105572816Y-111435839D01*
X105520013Y-111481594D01*
X105468501Y-111492800D01*
X105097500Y-111492800D01*
X105030461Y-111473115D01*
X104984706Y-111420311D01*
X104973500Y-111368800D01*
X104973499Y-109463187D01*
X104973498Y-109463181D01*
X104958416Y-109329310D01*
X104958413Y-109329297D01*
X104899023Y-109159572D01*
X104872435Y-109117257D01*
X104803349Y-109007307D01*
X104676193Y-108880151D01*
X104593240Y-108828028D01*
X104523929Y-108784477D01*
X104354192Y-108725084D01*
X104354186Y-108725083D01*
X104220315Y-108710000D01*
X103805687Y-108710000D01*
X103805681Y-108710001D01*
X103671810Y-108725083D01*
X103671797Y-108725086D01*
X103502072Y-108784476D01*
X103349806Y-108880151D01*
X103222651Y-109007306D01*
X103126977Y-109159570D01*
X103067584Y-109329307D01*
X103067583Y-109329313D01*
X103052500Y-109463182D01*
X103052500Y-111577812D01*
X103052501Y-111577818D01*
X103067583Y-111711689D01*
X103067586Y-111711702D01*
X103126976Y-111881428D01*
X103155293Y-111926493D01*
X103174300Y-111992466D01*
X103174300Y-112033109D01*
X103206529Y-112195132D01*
X103206531Y-112195140D01*
X103265093Y-112336522D01*
X103269754Y-112347773D01*
X103301920Y-112395913D01*
X103361540Y-112485142D01*
X103361541Y-112485143D01*
X103742539Y-112866140D01*
X103859360Y-112982961D01*
X103996727Y-113074746D01*
X104149360Y-113137969D01*
X104311390Y-113170199D01*
X104311393Y-113170200D01*
X104311395Y-113170200D01*
X110064607Y-113170200D01*
X110064608Y-113170199D01*
X110226640Y-113137969D01*
X110379273Y-113074746D01*
X110516640Y-112982961D01*
X111014461Y-112485140D01*
X111106246Y-112347773D01*
X111113194Y-112330999D01*
X111148887Y-112244826D01*
X111192728Y-112190425D01*
X111259022Y-112168360D01*
X111300339Y-112173896D01*
X111350200Y-112189433D01*
X111350207Y-112189435D01*
X111382999Y-112192414D01*
X111383000Y-112192414D01*
X111883000Y-112192414D01*
X111915792Y-112189435D01*
X111915802Y-112189432D01*
X112069392Y-112141572D01*
X112207080Y-112058336D01*
X112320836Y-111944580D01*
X112404070Y-111806896D01*
X112451934Y-111653292D01*
X112458000Y-111586543D01*
X112458000Y-110770500D01*
X111883000Y-110770500D01*
X111883000Y-112192414D01*
X111383000Y-112192414D01*
X111383000Y-110644500D01*
X111402685Y-110577461D01*
X111455489Y-110531706D01*
X111507000Y-110520500D01*
X111633000Y-110520500D01*
X111633000Y-110394500D01*
X111652685Y-110327461D01*
X111705489Y-110281706D01*
X111757000Y-110270500D01*
X112458000Y-110270500D01*
X112458000Y-109454456D01*
X112451934Y-109387707D01*
X112404071Y-109234105D01*
X112402105Y-109230854D01*
X112401390Y-109228148D01*
X112400993Y-109227265D01*
X112401139Y-109227198D01*
X112384267Y-109163300D01*
X112405782Y-109096825D01*
X112459821Y-109052535D01*
X112508220Y-109042700D01*
X114931111Y-109042700D01*
X114998150Y-109062385D01*
X115043905Y-109115189D01*
X115053849Y-109184347D01*
X115048153Y-109207650D01*
X115005588Y-109329297D01*
X115005584Y-109329308D01*
X115005583Y-109329313D01*
X114990500Y-109463182D01*
X114990500Y-109557800D01*
X114970815Y-109624839D01*
X114918011Y-109670594D01*
X114866500Y-109681800D01*
X114186892Y-109681800D01*
X114024867Y-109714029D01*
X114024859Y-109714031D01*
X113872227Y-109777253D01*
X113734857Y-109869040D01*
X113513217Y-110090680D01*
X113472990Y-110117560D01*
X113348874Y-110168971D01*
X113348868Y-110168974D01*
X113195654Y-110271349D01*
X113195650Y-110271352D01*
X113065352Y-110401650D01*
X113065349Y-110401654D01*
X112962974Y-110554868D01*
X112962969Y-110554877D01*
X112892451Y-110725124D01*
X112892449Y-110725130D01*
X112856500Y-110905858D01*
X112856500Y-110905861D01*
X112856500Y-111090139D01*
X112856500Y-111090141D01*
X112856499Y-111090141D01*
X112892449Y-111270869D01*
X112892451Y-111270875D01*
X112962969Y-111441122D01*
X112962974Y-111441131D01*
X113065349Y-111594345D01*
X113065352Y-111594349D01*
X113195650Y-111724647D01*
X113195654Y-111724650D01*
X113348868Y-111827025D01*
X113348874Y-111827028D01*
X113348875Y-111827029D01*
X113519125Y-111897549D01*
X113519129Y-111897549D01*
X113519130Y-111897550D01*
X113699858Y-111933500D01*
X113699861Y-111933500D01*
X113884141Y-111933500D01*
X114005732Y-111909313D01*
X114064875Y-111897549D01*
X114235125Y-111827029D01*
X114388346Y-111724650D01*
X114518650Y-111594346D01*
X114621029Y-111441125D01*
X114621033Y-111441116D01*
X114623258Y-111435746D01*
X114635800Y-111420182D01*
X114644105Y-111401997D01*
X114657275Y-111393532D01*
X114667099Y-111381343D01*
X114686066Y-111375030D01*
X114702883Y-111364223D01*
X114730446Y-111360259D01*
X114733394Y-111359279D01*
X114737818Y-111359200D01*
X114866501Y-111359200D01*
X114933540Y-111378885D01*
X114979295Y-111431689D01*
X114990501Y-111483200D01*
X114990501Y-111577818D01*
X115005583Y-111711689D01*
X115005586Y-111711702D01*
X115064976Y-111881427D01*
X115075106Y-111897549D01*
X115160651Y-112033693D01*
X115287807Y-112160849D01*
X115440070Y-112256522D01*
X115609805Y-112315915D01*
X115609811Y-112315915D01*
X115609813Y-112315916D01*
X115634478Y-112318695D01*
X115743689Y-112331000D01*
X116158310Y-112330999D01*
X116158312Y-112330999D01*
X116158316Y-112330998D01*
X116189572Y-112327476D01*
X116292189Y-112315916D01*
X116292191Y-112315915D01*
X116292195Y-112315915D01*
X116292198Y-112315913D01*
X116292202Y-112315913D01*
X116461927Y-112256523D01*
X116461926Y-112256523D01*
X116461930Y-112256522D01*
X116614193Y-112160849D01*
X116741349Y-112033693D01*
X116837022Y-111881430D01*
X116896415Y-111711695D01*
X116911500Y-111577811D01*
X116911499Y-109463190D01*
X116911498Y-109463182D01*
X117530500Y-109463182D01*
X117530500Y-111577812D01*
X117530501Y-111577818D01*
X117545583Y-111711689D01*
X117545586Y-111711702D01*
X117604976Y-111881427D01*
X117615106Y-111897549D01*
X117700651Y-112033693D01*
X117827807Y-112160849D01*
X117980070Y-112256522D01*
X118149805Y-112315915D01*
X118149811Y-112315915D01*
X118149813Y-112315916D01*
X118174478Y-112318695D01*
X118283689Y-112331000D01*
X118698310Y-112330999D01*
X118698312Y-112330999D01*
X118698316Y-112330998D01*
X118729572Y-112327476D01*
X118832189Y-112315916D01*
X118832191Y-112315915D01*
X118832195Y-112315915D01*
X118832198Y-112315913D01*
X118832202Y-112315913D01*
X119001927Y-112256523D01*
X119001926Y-112256523D01*
X119001930Y-112256522D01*
X119154193Y-112160849D01*
X119281349Y-112033693D01*
X119377022Y-111881430D01*
X119436415Y-111711695D01*
X119451500Y-111577811D01*
X119451499Y-109463190D01*
X119445429Y-109409309D01*
X119436416Y-109329310D01*
X119436413Y-109329297D01*
X119377023Y-109159572D01*
X119350435Y-109117257D01*
X119281349Y-109007307D01*
X119154193Y-108880151D01*
X119071240Y-108828028D01*
X119001929Y-108784477D01*
X118832192Y-108725084D01*
X118832186Y-108725083D01*
X118698315Y-108710000D01*
X118283687Y-108710000D01*
X118283681Y-108710001D01*
X118149810Y-108725083D01*
X118149797Y-108725086D01*
X117980072Y-108784476D01*
X117827806Y-108880151D01*
X117700651Y-109007306D01*
X117604977Y-109159570D01*
X117545584Y-109329307D01*
X117545583Y-109329313D01*
X117530500Y-109463182D01*
X116911498Y-109463182D01*
X116905429Y-109409309D01*
X116896416Y-109329310D01*
X116896413Y-109329297D01*
X116837026Y-109159578D01*
X116837020Y-109159566D01*
X116808706Y-109114504D01*
X116803861Y-109097687D01*
X116794723Y-109083468D01*
X116789700Y-109048533D01*
X116789700Y-108856763D01*
X116809385Y-108789724D01*
X116826019Y-108769082D01*
X119396459Y-106198642D01*
X119396461Y-106198640D01*
X119488246Y-106061273D01*
X119506021Y-106018360D01*
X119551469Y-105908640D01*
X119583700Y-105746605D01*
X119583700Y-104184395D01*
X119583700Y-104183306D01*
X119603385Y-104116267D01*
X119656189Y-104070512D01*
X119725347Y-104060568D01*
X119762794Y-104072217D01*
X119855674Y-104118282D01*
X120039946Y-104164108D01*
X120039950Y-104164109D01*
X120082583Y-104167000D01*
X120709416Y-104166999D01*
X120752050Y-104164109D01*
X120936326Y-104118282D01*
X121106442Y-104033912D01*
X121254444Y-103914944D01*
X121368653Y-103772861D01*
X121425996Y-103732943D01*
X121495818Y-103730363D01*
X121555951Y-103765942D01*
X121587303Y-103828382D01*
X121589300Y-103850549D01*
X121589300Y-106027237D01*
X121569615Y-106094276D01*
X121552981Y-106114918D01*
X120496360Y-107171539D01*
X120437949Y-107229949D01*
X120379539Y-107288359D01*
X120287753Y-107425728D01*
X120224531Y-107578359D01*
X120224529Y-107578367D01*
X120192300Y-107740390D01*
X120192300Y-109048533D01*
X120173294Y-109114504D01*
X120144979Y-109159566D01*
X120144976Y-109159573D01*
X120085584Y-109329307D01*
X120085583Y-109329313D01*
X120070500Y-109463182D01*
X120070500Y-111577812D01*
X120070501Y-111577818D01*
X120085583Y-111711689D01*
X120085586Y-111711702D01*
X120144976Y-111881427D01*
X120155106Y-111897549D01*
X120240651Y-112033693D01*
X120367807Y-112160849D01*
X120520070Y-112256522D01*
X120689805Y-112315915D01*
X120689811Y-112315915D01*
X120689813Y-112315916D01*
X120714478Y-112318695D01*
X120823689Y-112331000D01*
X121238310Y-112330999D01*
X121238312Y-112330999D01*
X121238316Y-112330998D01*
X121269572Y-112327476D01*
X121372189Y-112315916D01*
X121372191Y-112315915D01*
X121372195Y-112315915D01*
X121372198Y-112315913D01*
X121372202Y-112315913D01*
X121541927Y-112256523D01*
X121541926Y-112256523D01*
X121541930Y-112256522D01*
X121694193Y-112160849D01*
X121821349Y-112033693D01*
X121917022Y-111881430D01*
X121976415Y-111711695D01*
X121990516Y-111586543D01*
X122746000Y-111586543D01*
X122752065Y-111653292D01*
X122799929Y-111806896D01*
X122883163Y-111944580D01*
X122996919Y-112058336D01*
X123134607Y-112141572D01*
X123134606Y-112141572D01*
X123288197Y-112189432D01*
X123288207Y-112189435D01*
X123320999Y-112192414D01*
X123321000Y-112192414D01*
X123821000Y-112192414D01*
X123853792Y-112189435D01*
X123853802Y-112189432D01*
X124007392Y-112141572D01*
X124145080Y-112058336D01*
X124258836Y-111944580D01*
X124342070Y-111806896D01*
X124389934Y-111653292D01*
X124396000Y-111586543D01*
X124396000Y-110770500D01*
X123821000Y-110770500D01*
X123821000Y-112192414D01*
X123321000Y-112192414D01*
X123321000Y-110770500D01*
X122746000Y-110770500D01*
X122746000Y-111586543D01*
X121990516Y-111586543D01*
X121991500Y-111577811D01*
X121991499Y-110520500D01*
X121991499Y-109463187D01*
X121991498Y-109463180D01*
X121990515Y-109454456D01*
X122746000Y-109454456D01*
X122746000Y-110270500D01*
X123321000Y-110270500D01*
X123821000Y-110270500D01*
X124396000Y-110270500D01*
X124396000Y-109454456D01*
X124389934Y-109387707D01*
X124342070Y-109234103D01*
X124258836Y-109096419D01*
X124145080Y-108982663D01*
X124007396Y-108899429D01*
X123853794Y-108851566D01*
X123821000Y-108848585D01*
X123821000Y-110270500D01*
X123321000Y-110270500D01*
X123321000Y-108848585D01*
X123320999Y-108848585D01*
X123288205Y-108851566D01*
X123134603Y-108899429D01*
X122996919Y-108982663D01*
X122883163Y-109096419D01*
X122799929Y-109234103D01*
X122752065Y-109387707D01*
X122746000Y-109454456D01*
X121990515Y-109454456D01*
X121976416Y-109329309D01*
X121976413Y-109329297D01*
X121917026Y-109159578D01*
X121917020Y-109159566D01*
X121888706Y-109114504D01*
X121869700Y-109048533D01*
X121869700Y-108221763D01*
X121889385Y-108154724D01*
X121906019Y-108134082D01*
X123079459Y-106960642D01*
X123079461Y-106960640D01*
X123171246Y-106823273D01*
X123234469Y-106670640D01*
X123266700Y-106508605D01*
X123266700Y-105585149D01*
X128552000Y-105585149D01*
X128554899Y-105621989D01*
X128554900Y-105621995D01*
X128600716Y-105779693D01*
X128600717Y-105779696D01*
X128684314Y-105921052D01*
X128684321Y-105921061D01*
X128800438Y-106037178D01*
X128800447Y-106037185D01*
X128941801Y-106120781D01*
X129099514Y-106166600D01*
X129099511Y-106166600D01*
X129101998Y-106166795D01*
X129102000Y-106166795D01*
X129102000Y-105182000D01*
X128552000Y-105182000D01*
X128552000Y-105585149D01*
X123266700Y-105585149D01*
X123266700Y-101912395D01*
X123266700Y-101912392D01*
X123243266Y-101794585D01*
X123234469Y-101750360D01*
X123226094Y-101730140D01*
X123226093Y-101730137D01*
X123226093Y-101730136D01*
X123171248Y-101597730D01*
X123171247Y-101597727D01*
X123171245Y-101597724D01*
X123171243Y-101597720D01*
X123079461Y-101460360D01*
X123079458Y-101460356D01*
X122607019Y-100987917D01*
X122573534Y-100926594D01*
X122570700Y-100900236D01*
X122570700Y-99207871D01*
X122590385Y-99140832D01*
X122640901Y-99096149D01*
X122644963Y-99094191D01*
X122644972Y-99094189D01*
X122794850Y-99000014D01*
X122920014Y-98874850D01*
X123014189Y-98724972D01*
X123072651Y-98557896D01*
X123072651Y-98557894D01*
X123072652Y-98557892D01*
X123087499Y-98426115D01*
X123087499Y-98426114D01*
X123087500Y-98426109D01*
X123087499Y-98037892D01*
X123072651Y-97906104D01*
X123014189Y-97739028D01*
X122920014Y-97589150D01*
X122794850Y-97463986D01*
X122720926Y-97417536D01*
X122644974Y-97369812D01*
X122644973Y-97369811D01*
X122644972Y-97369811D01*
X122525824Y-97328119D01*
X122469049Y-97287398D01*
X122443302Y-97222445D01*
X122456758Y-97153883D01*
X122505145Y-97103481D01*
X122532186Y-97092001D01*
X122562197Y-97083281D01*
X122703552Y-96999685D01*
X122703561Y-96999678D01*
X122819678Y-96883561D01*
X122819685Y-96883552D01*
X122903281Y-96742198D01*
X122949100Y-96584486D01*
X122949295Y-96582001D01*
X122949295Y-96582000D01*
X121039226Y-96582000D01*
X120972187Y-96562315D01*
X120951545Y-96545681D01*
X120919850Y-96513986D01*
X120769974Y-96419812D01*
X120769973Y-96419811D01*
X120769972Y-96419811D01*
X120702521Y-96396209D01*
X120602892Y-96361347D01*
X120471113Y-96346500D01*
X119207889Y-96346500D01*
X119207885Y-96346501D01*
X119076106Y-96361348D01*
X118909026Y-96419811D01*
X118759149Y-96513986D01*
X118633986Y-96639149D01*
X118539812Y-96789025D01*
X118481347Y-96956107D01*
X118466500Y-97087884D01*
X118466500Y-97417536D01*
X118446815Y-97484575D01*
X118430180Y-97505217D01*
X118210360Y-97725039D01*
X118151949Y-97783449D01*
X118093539Y-97841859D01*
X118001753Y-97979228D01*
X117938531Y-98131859D01*
X117938529Y-98131867D01*
X117906300Y-98293890D01*
X117906300Y-98605300D01*
X117886615Y-98672339D01*
X117833811Y-98718094D01*
X117782300Y-98729300D01*
X115233392Y-98729300D01*
X115071367Y-98761529D01*
X115071352Y-98761533D01*
X115060401Y-98766069D01*
X114990932Y-98773533D01*
X114928454Y-98742254D01*
X114892806Y-98682163D01*
X114895304Y-98612338D01*
X114925273Y-98563826D01*
X115548073Y-97941026D01*
X115609394Y-97907543D01*
X115679086Y-97912527D01*
X115701723Y-97923715D01*
X115712022Y-97930186D01*
X115712023Y-97930187D01*
X115712027Y-97930188D01*
X115712028Y-97930189D01*
X115879104Y-97988651D01*
X115879107Y-97988652D01*
X115958511Y-97997598D01*
X116010891Y-98003500D01*
X116399108Y-98003499D01*
X116399110Y-98003499D01*
X116399111Y-98003498D01*
X116530896Y-97988651D01*
X116697972Y-97930189D01*
X116847850Y-97836014D01*
X116973014Y-97710850D01*
X117067189Y-97560972D01*
X117125651Y-97393896D01*
X117125651Y-97393894D01*
X117125652Y-97393892D01*
X117136625Y-97296500D01*
X117140500Y-97262109D01*
X117140499Y-96081998D01*
X120479704Y-96081998D01*
X120479705Y-96082000D01*
X121464500Y-96082000D01*
X121964500Y-96082000D01*
X122949295Y-96082000D01*
X122949295Y-96081998D01*
X122949100Y-96079513D01*
X122903281Y-95921801D01*
X122819685Y-95780447D01*
X122819678Y-95780438D01*
X122703561Y-95664321D01*
X122703552Y-95664314D01*
X122562196Y-95580717D01*
X122562193Y-95580716D01*
X122404495Y-95534900D01*
X122404489Y-95534899D01*
X122367649Y-95532000D01*
X121964500Y-95532000D01*
X121964500Y-96082000D01*
X121464500Y-96082000D01*
X121464500Y-95532000D01*
X121061350Y-95532000D01*
X121024510Y-95534899D01*
X121024504Y-95534900D01*
X120866806Y-95580716D01*
X120866803Y-95580717D01*
X120725447Y-95664314D01*
X120725438Y-95664321D01*
X120609321Y-95780438D01*
X120609314Y-95780447D01*
X120525718Y-95921801D01*
X120479899Y-96079513D01*
X120479704Y-96081998D01*
X117140499Y-96081998D01*
X117140499Y-95523892D01*
X117125651Y-95392104D01*
X117067189Y-95225028D01*
X117062704Y-95217890D01*
X117057859Y-95201072D01*
X117048723Y-95186856D01*
X117043700Y-95151921D01*
X117043700Y-95013763D01*
X117063385Y-94946724D01*
X117080019Y-94926082D01*
X117340959Y-94665142D01*
X117340961Y-94665140D01*
X117432746Y-94527773D01*
X117441452Y-94506754D01*
X117495969Y-94375140D01*
X117506669Y-94321341D01*
X117509618Y-94312985D01*
X117525073Y-94291551D01*
X117537321Y-94268137D01*
X117548857Y-94257599D01*
X117571444Y-94239444D01*
X117690412Y-94091442D01*
X117774782Y-93921326D01*
X117820609Y-93737050D01*
X117823500Y-93694417D01*
X117823499Y-93042584D01*
X117820609Y-92999950D01*
X117774782Y-92815674D01*
X117690412Y-92645558D01*
X117600486Y-92533685D01*
X117573828Y-92469104D01*
X117586318Y-92400359D01*
X117600483Y-92378317D01*
X117690412Y-92266442D01*
X117774782Y-92096326D01*
X117820609Y-91912050D01*
X117823500Y-91869417D01*
X117823499Y-91217584D01*
X117820609Y-91174950D01*
X117774782Y-90990674D01*
X117774780Y-90990669D01*
X117754132Y-90949036D01*
X117741980Y-90880231D01*
X117768957Y-90815780D01*
X117826496Y-90776144D01*
X117865009Y-90769942D01*
X128685117Y-90751848D01*
X128752187Y-90771421D01*
X128794676Y-90817388D01*
X128796747Y-90821262D01*
X128796753Y-90821271D01*
X128796754Y-90821273D01*
X128815296Y-90849023D01*
X128888540Y-90958642D01*
X129640356Y-91710458D01*
X129640360Y-91710461D01*
X129777723Y-91802245D01*
X129777725Y-91802245D01*
X129777727Y-91802247D01*
X129928021Y-91864500D01*
X129930360Y-91865469D01*
X129930364Y-91865469D01*
X129930365Y-91865470D01*
X129930368Y-91865471D01*
X130092390Y-91897699D01*
X130092393Y-91897700D01*
X130092395Y-91897700D01*
X132697237Y-91897700D01*
X132764276Y-91917385D01*
X132784918Y-91934019D01*
X133831356Y-92980458D01*
X133831357Y-92980459D01*
X133831360Y-92980461D01*
X133968727Y-93072246D01*
X134121360Y-93135469D01*
X134283390Y-93167699D01*
X134283393Y-93167700D01*
X134283395Y-93167700D01*
X134448605Y-93167700D01*
X134484514Y-93167700D01*
X134551553Y-93187385D01*
X134597308Y-93240189D01*
X134607252Y-93309347D01*
X134581162Y-93369385D01*
X134539440Y-93421290D01*
X134531586Y-93431061D01*
X134447218Y-93601172D01*
X134401391Y-93785446D01*
X134398500Y-93828085D01*
X134398500Y-94178036D01*
X134378815Y-94245075D01*
X134326011Y-94290830D01*
X134256853Y-94300774D01*
X134193297Y-94271749D01*
X134186819Y-94265717D01*
X133694142Y-93773040D01*
X133557189Y-93681532D01*
X133556773Y-93681254D01*
X133526105Y-93668551D01*
X133404140Y-93618031D01*
X133404132Y-93618029D01*
X133242108Y-93585800D01*
X133242105Y-93585800D01*
X131743395Y-93585800D01*
X131743392Y-93585800D01*
X131581367Y-93618029D01*
X131581359Y-93618031D01*
X131428728Y-93681253D01*
X131291357Y-93773040D01*
X131291356Y-93773041D01*
X131005491Y-94058908D01*
X130910360Y-94154039D01*
X130857043Y-94207356D01*
X130793539Y-94270859D01*
X130701753Y-94408228D01*
X130638531Y-94560859D01*
X130638529Y-94560867D01*
X130606300Y-94722890D01*
X130606300Y-94760346D01*
X130587294Y-94826318D01*
X130532812Y-94913025D01*
X130474347Y-95080106D01*
X130464852Y-95164384D01*
X130437785Y-95228798D01*
X130380190Y-95268353D01*
X130341632Y-95274500D01*
X129497145Y-95274500D01*
X129477780Y-95278352D01*
X129446872Y-95284500D01*
X129337565Y-95306242D01*
X129337561Y-95306243D01*
X129187248Y-95368504D01*
X129187235Y-95368511D01*
X129162708Y-95384899D01*
X129148025Y-95392748D01*
X129148097Y-95392883D01*
X129142723Y-95395755D01*
X129005364Y-95487535D01*
X129005356Y-95487541D01*
X128751360Y-95741539D01*
X128712461Y-95780438D01*
X128634539Y-95858359D01*
X128542753Y-95995728D01*
X128479531Y-96148359D01*
X128479529Y-96148367D01*
X128447300Y-96310390D01*
X128447300Y-101265307D01*
X128427615Y-101332346D01*
X128419948Y-101342993D01*
X128376087Y-101397558D01*
X128291718Y-101567672D01*
X128245891Y-101751946D01*
X128243000Y-101794585D01*
X128243000Y-102421415D01*
X128243001Y-102421419D01*
X128245890Y-102464047D01*
X128245890Y-102464048D01*
X128291718Y-102648327D01*
X128376087Y-102818441D01*
X128484650Y-102953498D01*
X128495056Y-102966444D01*
X128643058Y-103085412D01*
X128646668Y-103087202D01*
X128649592Y-103088653D01*
X128700904Y-103136075D01*
X128709056Y-103152287D01*
X128773252Y-103307271D01*
X128865040Y-103444642D01*
X128968147Y-103547749D01*
X129001632Y-103609072D01*
X128996648Y-103678764D01*
X128954776Y-103734697D01*
X128943587Y-103742162D01*
X128800447Y-103826814D01*
X128800438Y-103826821D01*
X128684321Y-103942938D01*
X128684314Y-103942947D01*
X128600717Y-104084303D01*
X128600716Y-104084306D01*
X128554900Y-104242004D01*
X128554899Y-104242010D01*
X128552000Y-104278850D01*
X128552000Y-104682000D01*
X129228000Y-104682000D01*
X129295039Y-104701685D01*
X129340794Y-104754489D01*
X129352000Y-104806000D01*
X129352000Y-104932000D01*
X129357279Y-104937279D01*
X129406339Y-104951685D01*
X129452094Y-105004489D01*
X129463300Y-105056000D01*
X129463300Y-105803421D01*
X129444296Y-105869390D01*
X129439811Y-105876527D01*
X129381347Y-106043607D01*
X129366500Y-106175384D01*
X129366500Y-107438610D01*
X129366501Y-107438614D01*
X129381348Y-107570393D01*
X129439811Y-107737473D01*
X129465659Y-107778609D01*
X129533986Y-107887350D01*
X129659150Y-108012514D01*
X129809028Y-108106689D01*
X129976104Y-108165151D01*
X129976107Y-108165152D01*
X130055511Y-108174098D01*
X130107891Y-108180000D01*
X130496108Y-108179999D01*
X130496110Y-108179999D01*
X130496111Y-108179998D01*
X130627896Y-108165151D01*
X130794972Y-108106689D01*
X130944850Y-108012514D01*
X131070014Y-107887350D01*
X131164189Y-107737472D01*
X131222651Y-107570396D01*
X131222651Y-107570394D01*
X131222652Y-107570392D01*
X131237499Y-107438615D01*
X131237499Y-107438614D01*
X131237500Y-107438609D01*
X131237499Y-106428998D01*
X131257183Y-106361960D01*
X131309987Y-106316205D01*
X131361499Y-106304999D01*
X131446111Y-106304999D01*
X131446112Y-106304998D01*
X131577896Y-106290151D01*
X131744972Y-106231689D01*
X131894850Y-106137514D01*
X132020014Y-106012350D01*
X132114189Y-105862472D01*
X132143258Y-105779395D01*
X132183980Y-105722620D01*
X132248932Y-105696872D01*
X132317494Y-105710328D01*
X132367897Y-105758715D01*
X132384300Y-105820350D01*
X132384300Y-107778609D01*
X132416529Y-107940632D01*
X132416531Y-107940640D01*
X132479754Y-108093273D01*
X132520814Y-108154724D01*
X132571540Y-108230642D01*
X132571541Y-108230643D01*
X132855981Y-108515082D01*
X132889466Y-108576405D01*
X132892300Y-108602763D01*
X132892300Y-109081533D01*
X132873294Y-109147504D01*
X132844979Y-109192566D01*
X132844976Y-109192573D01*
X132785584Y-109362307D01*
X132785583Y-109362313D01*
X132770500Y-109496182D01*
X132770500Y-109496186D01*
X132770500Y-109496189D01*
X132770500Y-110474500D01*
X132770501Y-111368800D01*
X132750816Y-111435839D01*
X132698013Y-111481594D01*
X132646501Y-111492800D01*
X132275500Y-111492800D01*
X132208461Y-111473115D01*
X132162706Y-111420311D01*
X132151500Y-111368800D01*
X132151499Y-109496187D01*
X132151498Y-109496181D01*
X132136416Y-109362310D01*
X132136413Y-109362297D01*
X132077023Y-109192572D01*
X132067670Y-109177687D01*
X131981349Y-109040307D01*
X131854193Y-108913151D01*
X131801674Y-108880151D01*
X131701929Y-108817477D01*
X131532192Y-108758084D01*
X131532186Y-108758083D01*
X131398315Y-108743000D01*
X130983687Y-108743000D01*
X130983681Y-108743001D01*
X130849810Y-108758083D01*
X130849797Y-108758086D01*
X130680072Y-108817476D01*
X130527806Y-108913151D01*
X130400651Y-109040306D01*
X130304977Y-109192570D01*
X130245584Y-109362307D01*
X130245583Y-109362313D01*
X130230500Y-109496182D01*
X130230500Y-109496186D01*
X130230500Y-109496189D01*
X130230500Y-110474500D01*
X130230501Y-111368800D01*
X130210816Y-111435839D01*
X130158013Y-111481594D01*
X130106501Y-111492800D01*
X129735500Y-111492800D01*
X129668461Y-111473115D01*
X129622706Y-111420311D01*
X129611500Y-111368800D01*
X129611499Y-109496187D01*
X129611498Y-109496181D01*
X129596416Y-109362310D01*
X129596413Y-109362297D01*
X129537023Y-109192572D01*
X129527670Y-109177687D01*
X129441349Y-109040307D01*
X129314193Y-108913151D01*
X129261674Y-108880151D01*
X129161929Y-108817477D01*
X128992192Y-108758084D01*
X128992186Y-108758083D01*
X128858315Y-108743000D01*
X128443687Y-108743000D01*
X128443681Y-108743001D01*
X128309810Y-108758083D01*
X128309797Y-108758086D01*
X128140072Y-108817476D01*
X127987806Y-108913151D01*
X127860651Y-109040306D01*
X127764977Y-109192570D01*
X127705584Y-109362307D01*
X127705583Y-109362313D01*
X127690500Y-109496182D01*
X127690500Y-111610812D01*
X127690501Y-111610818D01*
X127705583Y-111744689D01*
X127705586Y-111744702D01*
X127764976Y-111914428D01*
X127793293Y-111959493D01*
X127812300Y-112025466D01*
X127812300Y-112160109D01*
X127844529Y-112322132D01*
X127844531Y-112322140D01*
X127907754Y-112474773D01*
X127914683Y-112485143D01*
X127999540Y-112612142D01*
X128370357Y-112982959D01*
X128370360Y-112982961D01*
X128507727Y-113074746D01*
X128660360Y-113137969D01*
X128822390Y-113170199D01*
X128822393Y-113170200D01*
X128822395Y-113170200D01*
X134893107Y-113170200D01*
X134893108Y-113170199D01*
X135055140Y-113137969D01*
X135207773Y-113074746D01*
X135345140Y-112982961D01*
X135718261Y-112609840D01*
X135810046Y-112472473D01*
X135873269Y-112319840D01*
X135873271Y-112319826D01*
X135875037Y-112314010D01*
X135877113Y-112314640D01*
X135904950Y-112261403D01*
X135965660Y-112226818D01*
X135985455Y-112225414D01*
X136521000Y-112225414D01*
X136553792Y-112222435D01*
X136553802Y-112222432D01*
X136707392Y-112174572D01*
X136845080Y-112091336D01*
X136958836Y-111977580D01*
X137042070Y-111839896D01*
X137089934Y-111686292D01*
X137096000Y-111619543D01*
X137096000Y-110803500D01*
X136521000Y-110803500D01*
X136521000Y-112225414D01*
X135985455Y-112225414D01*
X136005420Y-112223998D01*
X136021000Y-112225413D01*
X136021000Y-110677500D01*
X136040685Y-110610461D01*
X136093489Y-110564706D01*
X136145000Y-110553500D01*
X136271000Y-110553500D01*
X136271000Y-110427500D01*
X136290685Y-110360461D01*
X136343489Y-110314706D01*
X136395000Y-110303500D01*
X137096000Y-110303500D01*
X137096000Y-109487456D01*
X137089934Y-109420707D01*
X137042070Y-109267103D01*
X137020154Y-109230850D01*
X137002318Y-109163296D01*
X137023835Y-109096822D01*
X137077876Y-109052534D01*
X137126271Y-109042700D01*
X137721300Y-109042700D01*
X137788339Y-109062385D01*
X137834094Y-109115189D01*
X137845300Y-109166700D01*
X137845300Y-110553556D01*
X137835861Y-110601008D01*
X137784452Y-110725120D01*
X137784449Y-110725130D01*
X137748500Y-110905858D01*
X137748500Y-110905861D01*
X137748500Y-111090139D01*
X137748500Y-111090141D01*
X137748499Y-111090141D01*
X137784449Y-111270869D01*
X137784451Y-111270875D01*
X137854969Y-111441122D01*
X137854974Y-111441131D01*
X137957349Y-111594345D01*
X137957352Y-111594349D01*
X138087650Y-111724647D01*
X138087654Y-111724650D01*
X138240868Y-111827025D01*
X138240874Y-111827028D01*
X138240875Y-111827029D01*
X138411125Y-111897549D01*
X138411129Y-111897549D01*
X138411130Y-111897550D01*
X138591858Y-111933500D01*
X138591861Y-111933500D01*
X138776141Y-111933500D01*
X138897732Y-111909313D01*
X138956875Y-111897549D01*
X139127125Y-111827029D01*
X139280346Y-111724650D01*
X139410650Y-111594346D01*
X139513029Y-111441125D01*
X139583549Y-111270875D01*
X139613767Y-111118962D01*
X139619500Y-111090141D01*
X139619500Y-110905858D01*
X139583550Y-110725130D01*
X139583549Y-110725129D01*
X139583549Y-110725125D01*
X139555522Y-110657461D01*
X139532139Y-110601008D01*
X139522700Y-110553556D01*
X139522700Y-109166700D01*
X139542385Y-109099661D01*
X139595189Y-109053906D01*
X139646700Y-109042700D01*
X139871395Y-109042700D01*
X140088658Y-109042700D01*
X140155697Y-109062385D01*
X140201452Y-109115189D01*
X140211396Y-109184347D01*
X140205700Y-109207652D01*
X140163129Y-109329313D01*
X140151584Y-109362308D01*
X140151583Y-109362313D01*
X140136500Y-109496182D01*
X140136500Y-111610812D01*
X140136501Y-111610818D01*
X140151583Y-111744689D01*
X140151586Y-111744702D01*
X140210976Y-111914427D01*
X140210978Y-111914430D01*
X140306651Y-112066693D01*
X140433807Y-112193849D01*
X140586070Y-112289522D01*
X140755805Y-112348915D01*
X140755811Y-112348915D01*
X140755813Y-112348916D01*
X140780478Y-112351695D01*
X140889689Y-112364000D01*
X141304310Y-112363999D01*
X141304312Y-112363999D01*
X141304316Y-112363998D01*
X141335572Y-112360476D01*
X141438189Y-112348916D01*
X141438191Y-112348915D01*
X141438195Y-112348915D01*
X141438198Y-112348913D01*
X141438202Y-112348913D01*
X141607927Y-112289523D01*
X141607926Y-112289523D01*
X141607930Y-112289522D01*
X141760193Y-112193849D01*
X141887349Y-112066693D01*
X141983022Y-111914430D01*
X142042415Y-111744695D01*
X142057500Y-111610811D01*
X142057499Y-111118961D01*
X142059882Y-111094769D01*
X142062700Y-111080603D01*
X142062700Y-109496182D01*
X142676500Y-109496182D01*
X142676500Y-111610812D01*
X142676501Y-111610818D01*
X142691583Y-111744689D01*
X142691586Y-111744702D01*
X142750976Y-111914427D01*
X142750978Y-111914430D01*
X142846651Y-112066693D01*
X142973807Y-112193849D01*
X143126070Y-112289522D01*
X143295805Y-112348915D01*
X143295811Y-112348915D01*
X143295813Y-112348916D01*
X143320478Y-112351695D01*
X143429689Y-112364000D01*
X143844310Y-112363999D01*
X143844312Y-112363999D01*
X143844316Y-112363998D01*
X143875572Y-112360476D01*
X143978189Y-112348916D01*
X143978191Y-112348915D01*
X143978195Y-112348915D01*
X143978198Y-112348913D01*
X143978202Y-112348913D01*
X144147927Y-112289523D01*
X144147926Y-112289523D01*
X144147930Y-112289522D01*
X144300193Y-112193849D01*
X144427349Y-112066693D01*
X144523022Y-111914430D01*
X144582415Y-111744695D01*
X144597500Y-111610811D01*
X144597499Y-109496190D01*
X144587711Y-109409309D01*
X144582416Y-109362310D01*
X144582413Y-109362297D01*
X144523023Y-109192572D01*
X144513670Y-109177687D01*
X144427349Y-109040307D01*
X144300193Y-108913151D01*
X144247674Y-108880151D01*
X144147929Y-108817477D01*
X143978192Y-108758084D01*
X143978186Y-108758083D01*
X143844315Y-108743000D01*
X143429687Y-108743000D01*
X143429681Y-108743001D01*
X143295810Y-108758083D01*
X143295797Y-108758086D01*
X143126072Y-108817476D01*
X142973806Y-108913151D01*
X142846651Y-109040306D01*
X142750977Y-109192570D01*
X142691584Y-109362307D01*
X142691583Y-109362313D01*
X142676500Y-109496182D01*
X142062700Y-109496182D01*
X142062700Y-108856763D01*
X142082385Y-108789724D01*
X142099019Y-108769082D01*
X144669459Y-106198642D01*
X144669461Y-106198640D01*
X144761246Y-106061273D01*
X144779021Y-106018360D01*
X144824469Y-105908640D01*
X144856700Y-105746605D01*
X144856700Y-104184395D01*
X144856700Y-104183306D01*
X144876385Y-104116267D01*
X144929189Y-104070512D01*
X144998347Y-104060568D01*
X145035794Y-104072217D01*
X145128674Y-104118282D01*
X145312946Y-104164108D01*
X145312950Y-104164109D01*
X145355583Y-104167000D01*
X145982416Y-104166999D01*
X146025050Y-104164109D01*
X146209326Y-104118282D01*
X146379442Y-104033912D01*
X146527444Y-103914944D01*
X146641653Y-103772861D01*
X146698996Y-103732943D01*
X146768818Y-103730363D01*
X146828951Y-103765942D01*
X146860303Y-103828382D01*
X146862300Y-103850549D01*
X146862300Y-106154237D01*
X146842615Y-106221276D01*
X146825981Y-106241918D01*
X145769360Y-107298539D01*
X145738918Y-107328981D01*
X145652539Y-107415359D01*
X145560753Y-107552728D01*
X145497531Y-107705359D01*
X145497529Y-107705367D01*
X145465300Y-107867390D01*
X145465300Y-108910296D01*
X145445615Y-108977335D01*
X145428981Y-108997977D01*
X145386651Y-109040306D01*
X145290977Y-109192570D01*
X145231584Y-109362307D01*
X145231583Y-109362313D01*
X145216500Y-109496182D01*
X145216500Y-111610812D01*
X145216501Y-111610818D01*
X145231583Y-111744689D01*
X145231586Y-111744702D01*
X145290976Y-111914427D01*
X145290978Y-111914430D01*
X145386651Y-112066693D01*
X145513807Y-112193849D01*
X145666070Y-112289522D01*
X145835805Y-112348915D01*
X145835811Y-112348915D01*
X145835813Y-112348916D01*
X145860478Y-112351695D01*
X145969689Y-112364000D01*
X146384310Y-112363999D01*
X146384312Y-112363999D01*
X146384316Y-112363998D01*
X146415572Y-112360476D01*
X146518189Y-112348916D01*
X146518191Y-112348915D01*
X146518195Y-112348915D01*
X146518198Y-112348913D01*
X146518202Y-112348913D01*
X146687927Y-112289523D01*
X146687926Y-112289523D01*
X146687930Y-112289522D01*
X146840193Y-112193849D01*
X146967349Y-112066693D01*
X147063022Y-111914430D01*
X147122415Y-111744695D01*
X147136516Y-111619543D01*
X147892000Y-111619543D01*
X147898065Y-111686292D01*
X147945929Y-111839896D01*
X148029163Y-111977580D01*
X148142919Y-112091336D01*
X148280607Y-112174572D01*
X148280606Y-112174572D01*
X148434197Y-112222432D01*
X148434207Y-112222435D01*
X148466999Y-112225414D01*
X148467000Y-112225414D01*
X148967000Y-112225414D01*
X148999792Y-112222435D01*
X148999802Y-112222432D01*
X149153392Y-112174572D01*
X149291080Y-112091336D01*
X149404836Y-111977580D01*
X149488070Y-111839896D01*
X149535934Y-111686292D01*
X149542000Y-111619543D01*
X149542000Y-110803500D01*
X148967000Y-110803500D01*
X148967000Y-112225414D01*
X148467000Y-112225414D01*
X148467000Y-110803500D01*
X147892000Y-110803500D01*
X147892000Y-111619543D01*
X147136516Y-111619543D01*
X147137500Y-111610811D01*
X147137499Y-111118961D01*
X147139882Y-111094769D01*
X147142700Y-111080603D01*
X147142700Y-109487456D01*
X147892000Y-109487456D01*
X147892000Y-110303500D01*
X148467000Y-110303500D01*
X148967000Y-110303500D01*
X149542000Y-110303500D01*
X149542000Y-109487456D01*
X149535934Y-109420707D01*
X149488070Y-109267103D01*
X149404836Y-109129419D01*
X149291080Y-109015663D01*
X149153396Y-108932429D01*
X148999794Y-108884566D01*
X148967000Y-108881585D01*
X148967000Y-110303500D01*
X148467000Y-110303500D01*
X148467000Y-108881585D01*
X148466999Y-108881585D01*
X148434205Y-108884566D01*
X148280603Y-108932429D01*
X148142919Y-109015663D01*
X148029163Y-109129419D01*
X147945929Y-109267103D01*
X147898065Y-109420707D01*
X147892000Y-109487456D01*
X147142700Y-109487456D01*
X147142700Y-108348763D01*
X147162385Y-108281724D01*
X147179019Y-108261082D01*
X148352459Y-107087642D01*
X148352461Y-107087640D01*
X148444246Y-106950273D01*
X148457727Y-106917727D01*
X148507469Y-106797640D01*
X148539700Y-106635605D01*
X148539700Y-106343395D01*
X148539700Y-105585149D01*
X153444000Y-105585149D01*
X153446899Y-105621989D01*
X153446900Y-105621995D01*
X153492716Y-105779693D01*
X153492717Y-105779696D01*
X153576314Y-105921052D01*
X153576321Y-105921061D01*
X153692438Y-106037178D01*
X153692447Y-106037185D01*
X153833801Y-106120781D01*
X153991514Y-106166600D01*
X153991511Y-106166600D01*
X153993998Y-106166795D01*
X153994000Y-106166795D01*
X153994000Y-105182000D01*
X153444000Y-105182000D01*
X153444000Y-105585149D01*
X148539700Y-105585149D01*
X148539700Y-101912395D01*
X148539700Y-101912392D01*
X148516266Y-101794585D01*
X148507469Y-101750360D01*
X148499094Y-101730140D01*
X148499093Y-101730137D01*
X148499093Y-101730136D01*
X148444248Y-101597730D01*
X148444247Y-101597727D01*
X148444245Y-101597724D01*
X148444243Y-101597720D01*
X148352461Y-101460360D01*
X148352458Y-101460356D01*
X147880019Y-100987917D01*
X147846534Y-100926594D01*
X147843700Y-100900236D01*
X147843700Y-99207871D01*
X147863385Y-99140832D01*
X147913901Y-99096149D01*
X147917963Y-99094191D01*
X147917972Y-99094189D01*
X148067850Y-99000014D01*
X148193014Y-98874850D01*
X148287189Y-98724972D01*
X148345651Y-98557896D01*
X148345651Y-98557894D01*
X148345652Y-98557892D01*
X148360499Y-98426115D01*
X148360499Y-98426114D01*
X148360500Y-98426109D01*
X148360499Y-98037892D01*
X148345651Y-97906104D01*
X148287189Y-97739028D01*
X148193014Y-97589150D01*
X148067850Y-97463986D01*
X147993926Y-97417536D01*
X147917974Y-97369812D01*
X147917973Y-97369811D01*
X147917972Y-97369811D01*
X147798824Y-97328119D01*
X147742049Y-97287398D01*
X147716302Y-97222445D01*
X147729758Y-97153883D01*
X147778145Y-97103481D01*
X147805186Y-97092001D01*
X147835197Y-97083281D01*
X147976552Y-96999685D01*
X147976561Y-96999678D01*
X148092678Y-96883561D01*
X148092685Y-96883552D01*
X148176281Y-96742198D01*
X148222100Y-96584486D01*
X148222295Y-96582001D01*
X148222295Y-96582000D01*
X146312226Y-96582000D01*
X146245187Y-96562315D01*
X146224545Y-96545681D01*
X146192850Y-96513986D01*
X146042974Y-96419812D01*
X146042973Y-96419811D01*
X146042972Y-96419811D01*
X145975521Y-96396209D01*
X145875892Y-96361347D01*
X145744113Y-96346500D01*
X144480889Y-96346500D01*
X144480885Y-96346501D01*
X144349106Y-96361348D01*
X144259654Y-96392648D01*
X144230220Y-96394150D01*
X144201053Y-96398344D01*
X144195724Y-96395910D01*
X144189875Y-96396209D01*
X144164305Y-96381562D01*
X144137497Y-96369319D01*
X144134330Y-96364391D01*
X144129248Y-96361480D01*
X144115655Y-96335333D01*
X144099723Y-96310541D01*
X144098558Y-96302444D01*
X144097021Y-96299486D01*
X144094700Y-96275606D01*
X144094700Y-96081998D01*
X145752704Y-96081998D01*
X145752705Y-96082000D01*
X146737500Y-96082000D01*
X147237500Y-96082000D01*
X148222295Y-96082000D01*
X148222295Y-96081998D01*
X148222100Y-96079513D01*
X148176281Y-95921801D01*
X148092685Y-95780447D01*
X148092678Y-95780438D01*
X147976561Y-95664321D01*
X147976552Y-95664314D01*
X147835196Y-95580717D01*
X147835193Y-95580716D01*
X147677495Y-95534900D01*
X147677489Y-95534899D01*
X147640649Y-95532000D01*
X147237500Y-95532000D01*
X147237500Y-96082000D01*
X146737500Y-96082000D01*
X146737500Y-95532000D01*
X146334350Y-95532000D01*
X146297510Y-95534899D01*
X146297504Y-95534900D01*
X146139806Y-95580716D01*
X146139803Y-95580717D01*
X145998447Y-95664314D01*
X145998438Y-95664321D01*
X145882321Y-95780438D01*
X145882314Y-95780447D01*
X145798718Y-95921801D01*
X145752899Y-96079513D01*
X145752704Y-96081998D01*
X144094700Y-96081998D01*
X144094700Y-95267763D01*
X144114385Y-95200724D01*
X144131019Y-95180082D01*
X144415459Y-94895642D01*
X144415461Y-94895640D01*
X144507246Y-94758273D01*
X144570469Y-94605640D01*
X144602700Y-94443605D01*
X144602700Y-90849023D01*
X144622385Y-90781984D01*
X144675189Y-90736229D01*
X144726489Y-90725023D01*
X149609740Y-90716857D01*
X149676810Y-90736430D01*
X149722653Y-90789157D01*
X149732712Y-90858299D01*
X149703794Y-90921903D01*
X149675917Y-90945851D01*
X149423837Y-91104244D01*
X149186696Y-91293357D01*
X148972220Y-91507833D01*
X148783107Y-91744974D01*
X148621733Y-92001798D01*
X148490133Y-92275068D01*
X148389957Y-92561353D01*
X148389953Y-92561365D01*
X148322460Y-92857074D01*
X148322457Y-92857088D01*
X148288500Y-93158473D01*
X148288500Y-93461800D01*
X148322457Y-93763185D01*
X148322459Y-93763197D01*
X148322460Y-93763200D01*
X148335883Y-93822008D01*
X148389953Y-94058908D01*
X148389957Y-94058920D01*
X148490133Y-94345205D01*
X148621733Y-94618475D01*
X148621735Y-94618478D01*
X148783108Y-94875301D01*
X148972221Y-95112441D01*
X149186696Y-95326916D01*
X149423836Y-95516029D01*
X149680659Y-95677402D01*
X149953935Y-95809005D01*
X150094984Y-95858360D01*
X150240216Y-95909179D01*
X150240228Y-95909183D01*
X150535937Y-95976677D01*
X150535946Y-95976678D01*
X150535951Y-95976679D01*
X150736874Y-95999317D01*
X150837337Y-96010636D01*
X150837340Y-96010637D01*
X150837343Y-96010637D01*
X151140660Y-96010637D01*
X151140661Y-96010636D01*
X151294694Y-95993281D01*
X151442048Y-95976679D01*
X151442051Y-95976678D01*
X151442063Y-95976677D01*
X151737772Y-95909183D01*
X152024065Y-95809005D01*
X152297341Y-95677402D01*
X152554164Y-95516029D01*
X152791304Y-95326916D01*
X153005779Y-95112441D01*
X153194892Y-94875301D01*
X153356265Y-94618478D01*
X153487868Y-94345202D01*
X153588046Y-94058909D01*
X153655540Y-93763200D01*
X153657619Y-93744754D01*
X153680651Y-93540329D01*
X153689500Y-93461794D01*
X153689500Y-93158480D01*
X153669442Y-92980458D01*
X153655542Y-92857088D01*
X153655541Y-92857083D01*
X153655540Y-92857074D01*
X153588046Y-92561365D01*
X153578361Y-92533688D01*
X153551177Y-92456000D01*
X153487868Y-92275072D01*
X153356265Y-92001796D01*
X153194892Y-91744973D01*
X153005779Y-91507833D01*
X152791304Y-91293358D01*
X152554164Y-91104245D01*
X152297341Y-90942872D01*
X152297340Y-90942871D01*
X152294761Y-90941251D01*
X152248470Y-90888916D01*
X152237822Y-90819863D01*
X152266197Y-90756014D01*
X152324587Y-90717642D01*
X152360520Y-90712257D01*
X154241443Y-90709112D01*
X154308514Y-90728685D01*
X154329330Y-90745431D01*
X154913356Y-91329458D01*
X154913360Y-91329461D01*
X155050720Y-91421243D01*
X155050733Y-91421250D01*
X155165201Y-91468663D01*
X155203360Y-91484469D01*
X155203363Y-91484469D01*
X155203368Y-91484471D01*
X155365390Y-91516699D01*
X155365393Y-91516700D01*
X155365395Y-91516700D01*
X157208237Y-91516700D01*
X157275276Y-91536385D01*
X157295918Y-91553019D01*
X158723356Y-92980458D01*
X158723360Y-92980461D01*
X158860720Y-93072243D01*
X158860733Y-93072250D01*
X158960592Y-93113612D01*
X159013360Y-93135469D01*
X159013363Y-93135469D01*
X159013368Y-93135471D01*
X159175390Y-93167699D01*
X159175393Y-93167700D01*
X159175395Y-93167700D01*
X159376514Y-93167700D01*
X159443553Y-93187385D01*
X159489308Y-93240189D01*
X159499252Y-93309347D01*
X159473162Y-93369385D01*
X159431440Y-93421290D01*
X159423586Y-93431061D01*
X159339218Y-93601172D01*
X159293391Y-93785446D01*
X159290500Y-93828085D01*
X159290500Y-94178036D01*
X159270815Y-94245075D01*
X159218011Y-94290830D01*
X159148853Y-94300774D01*
X159085297Y-94271749D01*
X159078819Y-94265717D01*
X158586142Y-93773040D01*
X158449189Y-93681532D01*
X158448773Y-93681254D01*
X158418105Y-93668551D01*
X158296140Y-93618031D01*
X158296132Y-93618029D01*
X158134108Y-93585800D01*
X158134105Y-93585800D01*
X156635395Y-93585800D01*
X156635392Y-93585800D01*
X156473367Y-93618029D01*
X156473359Y-93618031D01*
X156320728Y-93681253D01*
X156183357Y-93773040D01*
X156183356Y-93773041D01*
X155897491Y-94058908D01*
X155802360Y-94154039D01*
X155749043Y-94207356D01*
X155685539Y-94270859D01*
X155593753Y-94408228D01*
X155530531Y-94560859D01*
X155530529Y-94560867D01*
X155498300Y-94722890D01*
X155498300Y-94760346D01*
X155479294Y-94826318D01*
X155424812Y-94913025D01*
X155366347Y-95080107D01*
X155355726Y-95174383D01*
X155328660Y-95238797D01*
X155271065Y-95278352D01*
X155232506Y-95284500D01*
X154379141Y-95284500D01*
X154219573Y-95316240D01*
X154219561Y-95316243D01*
X154069244Y-95378505D01*
X154069235Y-95378510D01*
X154067757Y-95379498D01*
X154046354Y-95390936D01*
X154034731Y-95395751D01*
X153897357Y-95487540D01*
X153897356Y-95487541D01*
X153643360Y-95741539D01*
X153604461Y-95780438D01*
X153526539Y-95858359D01*
X153434753Y-95995728D01*
X153371531Y-96148359D01*
X153371529Y-96148367D01*
X153339300Y-96310390D01*
X153339300Y-101265307D01*
X153319615Y-101332346D01*
X153311948Y-101342993D01*
X153268087Y-101397558D01*
X153183718Y-101567672D01*
X153137891Y-101751946D01*
X153135000Y-101794585D01*
X153135000Y-102421415D01*
X153135001Y-102421419D01*
X153137890Y-102464047D01*
X153137890Y-102464048D01*
X153183718Y-102648327D01*
X153268087Y-102818441D01*
X153376650Y-102953498D01*
X153387056Y-102966444D01*
X153535058Y-103085412D01*
X153538668Y-103087202D01*
X153541592Y-103088653D01*
X153592904Y-103136075D01*
X153601056Y-103152287D01*
X153665252Y-103307271D01*
X153757040Y-103444642D01*
X153860147Y-103547749D01*
X153893632Y-103609072D01*
X153888648Y-103678764D01*
X153846776Y-103734697D01*
X153835587Y-103742162D01*
X153692447Y-103826814D01*
X153692438Y-103826821D01*
X153576321Y-103942938D01*
X153576314Y-103942947D01*
X153492717Y-104084303D01*
X153492716Y-104084306D01*
X153446900Y-104242004D01*
X153446899Y-104242010D01*
X153444000Y-104278850D01*
X153444000Y-104682000D01*
X154120000Y-104682000D01*
X154187039Y-104701685D01*
X154232794Y-104754489D01*
X154244000Y-104806000D01*
X154244000Y-104932000D01*
X154249279Y-104937279D01*
X154298339Y-104951685D01*
X154344094Y-105004489D01*
X154355300Y-105056000D01*
X154355300Y-105803421D01*
X154336296Y-105869390D01*
X154331811Y-105876527D01*
X154273347Y-106043607D01*
X154258500Y-106175384D01*
X154258500Y-107438610D01*
X154258501Y-107438614D01*
X154273348Y-107570393D01*
X154331811Y-107737473D01*
X154357659Y-107778609D01*
X154425986Y-107887350D01*
X154551150Y-108012514D01*
X154701028Y-108106689D01*
X154868104Y-108165151D01*
X154868107Y-108165152D01*
X154947511Y-108174098D01*
X154999891Y-108180000D01*
X155388108Y-108179999D01*
X155388110Y-108179999D01*
X155388111Y-108179998D01*
X155519896Y-108165151D01*
X155686972Y-108106689D01*
X155836850Y-108012514D01*
X155962014Y-107887350D01*
X156056189Y-107737472D01*
X156114651Y-107570396D01*
X156114651Y-107570394D01*
X156114652Y-107570392D01*
X156129499Y-107438615D01*
X156129499Y-107438614D01*
X156129500Y-107438609D01*
X156129499Y-106428998D01*
X156149183Y-106361960D01*
X156201987Y-106316205D01*
X156253499Y-106304999D01*
X156338111Y-106304999D01*
X156338112Y-106304998D01*
X156469896Y-106290151D01*
X156636972Y-106231689D01*
X156786850Y-106137514D01*
X156912014Y-106012350D01*
X157006189Y-105862472D01*
X157035258Y-105779395D01*
X157075980Y-105722620D01*
X157140932Y-105696872D01*
X157209494Y-105710328D01*
X157259897Y-105758715D01*
X157276300Y-105820350D01*
X157276300Y-109128533D01*
X157257294Y-109194504D01*
X157228979Y-109239566D01*
X157228976Y-109239573D01*
X157169584Y-109409307D01*
X157169583Y-109409313D01*
X157154500Y-109543182D01*
X157154500Y-109543186D01*
X157154500Y-109543189D01*
X157154500Y-110474500D01*
X157154501Y-111368800D01*
X157134816Y-111435839D01*
X157082013Y-111481594D01*
X157030501Y-111492800D01*
X156659500Y-111492800D01*
X156592461Y-111473115D01*
X156546706Y-111420311D01*
X156535500Y-111368800D01*
X156535499Y-109543187D01*
X156535498Y-109543181D01*
X156520416Y-109409310D01*
X156520413Y-109409297D01*
X156461023Y-109239572D01*
X156422138Y-109177687D01*
X156365349Y-109087307D01*
X156238193Y-108960151D01*
X156154154Y-108907346D01*
X156085929Y-108864477D01*
X155916192Y-108805084D01*
X155916186Y-108805083D01*
X155782315Y-108790000D01*
X155367687Y-108790000D01*
X155367681Y-108790001D01*
X155233810Y-108805083D01*
X155233797Y-108805086D01*
X155064072Y-108864476D01*
X154911806Y-108960151D01*
X154784651Y-109087306D01*
X154688977Y-109239570D01*
X154629584Y-109409307D01*
X154629583Y-109409313D01*
X154614500Y-109543182D01*
X154614500Y-109543186D01*
X154614500Y-109543189D01*
X154614500Y-110474500D01*
X154614501Y-111368800D01*
X154594816Y-111435839D01*
X154542013Y-111481594D01*
X154490501Y-111492800D01*
X154119500Y-111492800D01*
X154052461Y-111473115D01*
X154006706Y-111420311D01*
X153995500Y-111368800D01*
X153995499Y-109543187D01*
X153995498Y-109543181D01*
X153980416Y-109409310D01*
X153980413Y-109409297D01*
X153921023Y-109239572D01*
X153882138Y-109177687D01*
X153825349Y-109087307D01*
X153698193Y-108960151D01*
X153614154Y-108907346D01*
X153545929Y-108864477D01*
X153376192Y-108805084D01*
X153376186Y-108805083D01*
X153242315Y-108790000D01*
X152827687Y-108790000D01*
X152827681Y-108790001D01*
X152693810Y-108805083D01*
X152693797Y-108805086D01*
X152524072Y-108864476D01*
X152371806Y-108960151D01*
X152244651Y-109087306D01*
X152148977Y-109239570D01*
X152089584Y-109409307D01*
X152089583Y-109409313D01*
X152074500Y-109543182D01*
X152074500Y-111657812D01*
X152074501Y-111657818D01*
X152089583Y-111791689D01*
X152089586Y-111791702D01*
X152148976Y-111961426D01*
X152148977Y-111961427D01*
X152148978Y-111961430D01*
X152194014Y-112033105D01*
X152203677Y-112048483D01*
X152220300Y-112090264D01*
X152228528Y-112131633D01*
X152228530Y-112131638D01*
X152285607Y-112269432D01*
X152291754Y-112284273D01*
X152322975Y-112330999D01*
X152383540Y-112421642D01*
X152944857Y-112982959D01*
X152944860Y-112982961D01*
X153082227Y-113074746D01*
X153234860Y-113137969D01*
X153396890Y-113170199D01*
X153396893Y-113170200D01*
X153396895Y-113170200D01*
X159023107Y-113170200D01*
X159023108Y-113170199D01*
X159185140Y-113137969D01*
X159337773Y-113074746D01*
X159475140Y-112982961D01*
X160036461Y-112421640D01*
X160126998Y-112286140D01*
X160180607Y-112241338D01*
X160249932Y-112232629D01*
X160266989Y-112236648D01*
X160372200Y-112269433D01*
X160372207Y-112269435D01*
X160404999Y-112272414D01*
X160405000Y-112272414D01*
X160905000Y-112272414D01*
X160937792Y-112269435D01*
X160937802Y-112269432D01*
X161091392Y-112221572D01*
X161229080Y-112138336D01*
X161342836Y-112024580D01*
X161426070Y-111886896D01*
X161473934Y-111733292D01*
X161480000Y-111666543D01*
X161480000Y-110850500D01*
X160905000Y-110850500D01*
X160905000Y-112272414D01*
X160405000Y-112272414D01*
X160405000Y-110724500D01*
X160424685Y-110657461D01*
X160477489Y-110611706D01*
X160529000Y-110600500D01*
X160655000Y-110600500D01*
X160655000Y-110474500D01*
X160674685Y-110407461D01*
X160727489Y-110361706D01*
X160779000Y-110350500D01*
X161480000Y-110350500D01*
X161480000Y-109534456D01*
X161473934Y-109467707D01*
X161426069Y-109314102D01*
X161375742Y-109230851D01*
X161357905Y-109163296D01*
X161379422Y-109096822D01*
X161433462Y-109052534D01*
X161481858Y-109042700D01*
X164240319Y-109042700D01*
X164307358Y-109062385D01*
X164353113Y-109115189D01*
X164363057Y-109184347D01*
X164345311Y-109232674D01*
X164340979Y-109239567D01*
X164340976Y-109239573D01*
X164281584Y-109409307D01*
X164281583Y-109409313D01*
X164266500Y-109543182D01*
X164266500Y-109637800D01*
X164246815Y-109704839D01*
X164194011Y-109750594D01*
X164142500Y-109761800D01*
X163255892Y-109761800D01*
X163093867Y-109794029D01*
X163093859Y-109794031D01*
X162941227Y-109857253D01*
X162803861Y-109949038D01*
X162662216Y-110090682D01*
X162621988Y-110117561D01*
X162497878Y-110168969D01*
X162497868Y-110168974D01*
X162344654Y-110271349D01*
X162344650Y-110271352D01*
X162214352Y-110401650D01*
X162214349Y-110401654D01*
X162111974Y-110554868D01*
X162111969Y-110554877D01*
X162041451Y-110725124D01*
X162041449Y-110725130D01*
X162005500Y-110905858D01*
X162005500Y-110905861D01*
X162005500Y-111090139D01*
X162005500Y-111090141D01*
X162005499Y-111090141D01*
X162041449Y-111270869D01*
X162041451Y-111270875D01*
X162111969Y-111441122D01*
X162111974Y-111441131D01*
X162214349Y-111594345D01*
X162214352Y-111594349D01*
X162344650Y-111724647D01*
X162344654Y-111724650D01*
X162497868Y-111827025D01*
X162497874Y-111827028D01*
X162497875Y-111827029D01*
X162668125Y-111897549D01*
X162668129Y-111897549D01*
X162668130Y-111897550D01*
X162848858Y-111933500D01*
X162848861Y-111933500D01*
X163033141Y-111933500D01*
X163154732Y-111909313D01*
X163213875Y-111897549D01*
X163384125Y-111827029D01*
X163537346Y-111724650D01*
X163667650Y-111594346D01*
X163734493Y-111494308D01*
X163788103Y-111449504D01*
X163837594Y-111439200D01*
X164142501Y-111439200D01*
X164209540Y-111458885D01*
X164255295Y-111511689D01*
X164266501Y-111563200D01*
X164266501Y-111657818D01*
X164281583Y-111791689D01*
X164281586Y-111791702D01*
X164340976Y-111961427D01*
X164360479Y-111992466D01*
X164436651Y-112113693D01*
X164563807Y-112240849D01*
X164716070Y-112336522D01*
X164885805Y-112395915D01*
X164885811Y-112395915D01*
X164885813Y-112395916D01*
X164910478Y-112398695D01*
X165019689Y-112411000D01*
X165434310Y-112410999D01*
X165434312Y-112410999D01*
X165434316Y-112410998D01*
X165465572Y-112407476D01*
X165568189Y-112395916D01*
X165568191Y-112395915D01*
X165568195Y-112395915D01*
X165568198Y-112395913D01*
X165568202Y-112395913D01*
X165737927Y-112336523D01*
X165737926Y-112336523D01*
X165737930Y-112336522D01*
X165890193Y-112240849D01*
X166017349Y-112113693D01*
X166113022Y-111961430D01*
X166172415Y-111791695D01*
X166187500Y-111657811D01*
X166187499Y-109543190D01*
X166182204Y-109496189D01*
X166172416Y-109409310D01*
X166172413Y-109409297D01*
X166113026Y-109239578D01*
X166113020Y-109239567D01*
X166108689Y-109232674D01*
X166089687Y-109165438D01*
X166110053Y-109098602D01*
X166163320Y-109053387D01*
X166213681Y-109042700D01*
X166452607Y-109042700D01*
X166452608Y-109042699D01*
X166614640Y-109010469D01*
X166767273Y-108947246D01*
X166797029Y-108927363D01*
X166863705Y-108906486D01*
X166931085Y-108924970D01*
X166977776Y-108976949D01*
X166988952Y-109045919D01*
X166970913Y-109096438D01*
X166880977Y-109239569D01*
X166821584Y-109409307D01*
X166821583Y-109409313D01*
X166806500Y-109543182D01*
X166806500Y-111657812D01*
X166806501Y-111657818D01*
X166821583Y-111791689D01*
X166821586Y-111791702D01*
X166880976Y-111961427D01*
X166900479Y-111992466D01*
X166976651Y-112113693D01*
X167103807Y-112240849D01*
X167256070Y-112336522D01*
X167425805Y-112395915D01*
X167425811Y-112395915D01*
X167425813Y-112395916D01*
X167450478Y-112398695D01*
X167559689Y-112411000D01*
X167974310Y-112410999D01*
X167974312Y-112410999D01*
X167974316Y-112410998D01*
X168005572Y-112407476D01*
X168108189Y-112395916D01*
X168108191Y-112395915D01*
X168108195Y-112395915D01*
X168108198Y-112395913D01*
X168108202Y-112395913D01*
X168277927Y-112336523D01*
X168277926Y-112336523D01*
X168277930Y-112336522D01*
X168430193Y-112240849D01*
X168557349Y-112113693D01*
X168653022Y-111961430D01*
X168712415Y-111791695D01*
X168727500Y-111657811D01*
X168727499Y-109543190D01*
X168722204Y-109496189D01*
X168712416Y-109409310D01*
X168712413Y-109409297D01*
X168653023Y-109239572D01*
X168614138Y-109177687D01*
X168557349Y-109087307D01*
X168430193Y-108960151D01*
X168346154Y-108907346D01*
X168277929Y-108864477D01*
X168108192Y-108805084D01*
X168108186Y-108805083D01*
X167974315Y-108790000D01*
X167559687Y-108790000D01*
X167559681Y-108790001D01*
X167425810Y-108805083D01*
X167425797Y-108805086D01*
X167256070Y-108864476D01*
X167218082Y-108888346D01*
X167150845Y-108907346D01*
X167084010Y-108886978D01*
X167038797Y-108833709D01*
X167029560Y-108764453D01*
X167059232Y-108701197D01*
X167064430Y-108695671D01*
X169561459Y-106198642D01*
X169561461Y-106198640D01*
X169653246Y-106061273D01*
X169671021Y-106018360D01*
X169716469Y-105908640D01*
X169748700Y-105746605D01*
X169748700Y-104184395D01*
X169748700Y-104183306D01*
X169768385Y-104116267D01*
X169821189Y-104070512D01*
X169890347Y-104060568D01*
X169927794Y-104072217D01*
X170020674Y-104118282D01*
X170204946Y-104164108D01*
X170204950Y-104164109D01*
X170247583Y-104167000D01*
X170874416Y-104166999D01*
X170917050Y-104164109D01*
X171101326Y-104118282D01*
X171271442Y-104033912D01*
X171419444Y-103914944D01*
X171533653Y-103772861D01*
X171590996Y-103732943D01*
X171660818Y-103730363D01*
X171720951Y-103765942D01*
X171752303Y-103828382D01*
X171754300Y-103850549D01*
X171754300Y-106027237D01*
X171734615Y-106094276D01*
X171717981Y-106114918D01*
X169772360Y-108060539D01*
X169739628Y-108093271D01*
X169655539Y-108177359D01*
X169563753Y-108314728D01*
X169500531Y-108467359D01*
X169500529Y-108467367D01*
X169468300Y-108629390D01*
X169468300Y-109128533D01*
X169449294Y-109194504D01*
X169420979Y-109239566D01*
X169420976Y-109239573D01*
X169361584Y-109409307D01*
X169361583Y-109409313D01*
X169346500Y-109543182D01*
X169346500Y-111657812D01*
X169346501Y-111657818D01*
X169361583Y-111791689D01*
X169361586Y-111791702D01*
X169420976Y-111961427D01*
X169440479Y-111992466D01*
X169516651Y-112113693D01*
X169643807Y-112240849D01*
X169796070Y-112336522D01*
X169965805Y-112395915D01*
X169965811Y-112395915D01*
X169965813Y-112395916D01*
X169990478Y-112398695D01*
X170099689Y-112411000D01*
X170514310Y-112410999D01*
X170514312Y-112410999D01*
X170514316Y-112410998D01*
X170545572Y-112407476D01*
X170648189Y-112395916D01*
X170648191Y-112395915D01*
X170648195Y-112395915D01*
X170648198Y-112395913D01*
X170648202Y-112395913D01*
X170817927Y-112336523D01*
X170817926Y-112336523D01*
X170817930Y-112336522D01*
X170970193Y-112240849D01*
X171097349Y-112113693D01*
X171193022Y-111961430D01*
X171252415Y-111791695D01*
X171266516Y-111666543D01*
X172022000Y-111666543D01*
X172028065Y-111733292D01*
X172075929Y-111886896D01*
X172159163Y-112024580D01*
X172272919Y-112138336D01*
X172410607Y-112221572D01*
X172410606Y-112221572D01*
X172564197Y-112269432D01*
X172564207Y-112269435D01*
X172596999Y-112272414D01*
X172597000Y-112272414D01*
X173097000Y-112272414D01*
X173129792Y-112269435D01*
X173129802Y-112269432D01*
X173283392Y-112221572D01*
X173421080Y-112138336D01*
X173534836Y-112024580D01*
X173618070Y-111886896D01*
X173665934Y-111733292D01*
X173672000Y-111666543D01*
X173672000Y-110850500D01*
X173097000Y-110850500D01*
X173097000Y-112272414D01*
X172597000Y-112272414D01*
X172597000Y-110850500D01*
X172022000Y-110850500D01*
X172022000Y-111666543D01*
X171266516Y-111666543D01*
X171267500Y-111657811D01*
X171267499Y-110600500D01*
X171267499Y-109543187D01*
X171267498Y-109543180D01*
X171266515Y-109534456D01*
X172022000Y-109534456D01*
X172022000Y-110350500D01*
X172597000Y-110350500D01*
X173097000Y-110350500D01*
X173672000Y-110350500D01*
X173672000Y-109534456D01*
X173665934Y-109467707D01*
X173618070Y-109314103D01*
X173534836Y-109176419D01*
X173421080Y-109062663D01*
X173283396Y-108979429D01*
X173129794Y-108931566D01*
X173097000Y-108928585D01*
X173097000Y-110350500D01*
X172597000Y-110350500D01*
X172597000Y-108928585D01*
X172596999Y-108928585D01*
X172564205Y-108931566D01*
X172410603Y-108979429D01*
X172272919Y-109062663D01*
X172159163Y-109176419D01*
X172075929Y-109314103D01*
X172028065Y-109467707D01*
X172022000Y-109534456D01*
X171266515Y-109534456D01*
X171252416Y-109409309D01*
X171252413Y-109409297D01*
X171193026Y-109239578D01*
X171193020Y-109239566D01*
X171164706Y-109194504D01*
X171159861Y-109177687D01*
X171150723Y-109163468D01*
X171145700Y-109128533D01*
X171145700Y-109110763D01*
X171165385Y-109043724D01*
X171182019Y-109023082D01*
X173244459Y-106960642D01*
X173244461Y-106960640D01*
X173336246Y-106823273D01*
X173399469Y-106670640D01*
X173431700Y-106508605D01*
X173431700Y-106343395D01*
X173431700Y-101912395D01*
X173431700Y-101912392D01*
X173408266Y-101794585D01*
X173399469Y-101750360D01*
X173391094Y-101730140D01*
X173391093Y-101730137D01*
X173391093Y-101730136D01*
X173336248Y-101597730D01*
X173336247Y-101597727D01*
X173336245Y-101597724D01*
X173336243Y-101597720D01*
X173244461Y-101460360D01*
X173244458Y-101460356D01*
X172772019Y-100987917D01*
X172738534Y-100926594D01*
X172735700Y-100900236D01*
X172735700Y-99207871D01*
X172755385Y-99140832D01*
X172805901Y-99096149D01*
X172809963Y-99094191D01*
X172809972Y-99094189D01*
X172959850Y-99000014D01*
X173085014Y-98874850D01*
X173179189Y-98724972D01*
X173237651Y-98557896D01*
X173237651Y-98557894D01*
X173237652Y-98557892D01*
X173252499Y-98426115D01*
X173252499Y-98426114D01*
X173252500Y-98426109D01*
X173252499Y-98037892D01*
X173237651Y-97906104D01*
X173179189Y-97739028D01*
X173085014Y-97589150D01*
X172959850Y-97463986D01*
X172885926Y-97417536D01*
X172809974Y-97369812D01*
X172809973Y-97369811D01*
X172809972Y-97369811D01*
X172690824Y-97328119D01*
X172634049Y-97287398D01*
X172608302Y-97222445D01*
X172621758Y-97153883D01*
X172670145Y-97103481D01*
X172697186Y-97092001D01*
X172727197Y-97083281D01*
X172868552Y-96999685D01*
X172868561Y-96999678D01*
X172984678Y-96883561D01*
X172984685Y-96883552D01*
X173068281Y-96742198D01*
X173114100Y-96584486D01*
X173114295Y-96582001D01*
X173114295Y-96582000D01*
X171204226Y-96582000D01*
X171137187Y-96562315D01*
X171116545Y-96545681D01*
X171084850Y-96513986D01*
X170934974Y-96419812D01*
X170934973Y-96419811D01*
X170934972Y-96419811D01*
X170867521Y-96396209D01*
X170767892Y-96361347D01*
X170636113Y-96346500D01*
X169372889Y-96346500D01*
X169372885Y-96346501D01*
X169241106Y-96361348D01*
X169074026Y-96419811D01*
X168922672Y-96514914D01*
X168855435Y-96533914D01*
X168788600Y-96513546D01*
X168743386Y-96460278D01*
X168732700Y-96409920D01*
X168732700Y-96081998D01*
X170644704Y-96081998D01*
X170644705Y-96082000D01*
X171629500Y-96082000D01*
X172129500Y-96082000D01*
X173114295Y-96082000D01*
X173114295Y-96081998D01*
X173114100Y-96079513D01*
X173068281Y-95921801D01*
X172984685Y-95780447D01*
X172984678Y-95780438D01*
X172868561Y-95664321D01*
X172868552Y-95664314D01*
X172727196Y-95580717D01*
X172727193Y-95580716D01*
X172569495Y-95534900D01*
X172569489Y-95534899D01*
X172532649Y-95532000D01*
X172129500Y-95532000D01*
X172129500Y-96082000D01*
X171629500Y-96082000D01*
X171629500Y-95532000D01*
X171226350Y-95532000D01*
X171189510Y-95534899D01*
X171189504Y-95534900D01*
X171031806Y-95580716D01*
X171031803Y-95580717D01*
X170890447Y-95664314D01*
X170890438Y-95664321D01*
X170774321Y-95780438D01*
X170774314Y-95780447D01*
X170690718Y-95921801D01*
X170644899Y-96079513D01*
X170644704Y-96081998D01*
X168732700Y-96081998D01*
X168732700Y-95902763D01*
X168752385Y-95835724D01*
X168769019Y-95815082D01*
X169815459Y-94768642D01*
X169815461Y-94768640D01*
X169907246Y-94631273D01*
X169970469Y-94478640D01*
X170002700Y-94316605D01*
X170002700Y-94151395D01*
X170002700Y-90806548D01*
X170022385Y-90739509D01*
X170075189Y-90693754D01*
X170126488Y-90682548D01*
X179833404Y-90666316D01*
X179900474Y-90685889D01*
G37*
%TD.AperFunction*%
%TA.AperFunction,Conductor*%
G36*
X117679033Y-100426385D02*
G01*
X117724788Y-100479189D01*
X117734732Y-100548347D01*
X117723082Y-100585794D01*
X117683219Y-100666169D01*
X117683219Y-100666170D01*
X117637391Y-100850446D01*
X117634500Y-100893085D01*
X117634500Y-101544915D01*
X117634501Y-101544919D01*
X117637390Y-101587547D01*
X117637390Y-101587548D01*
X117683218Y-101771827D01*
X117767587Y-101941941D01*
X117857512Y-102053813D01*
X117884171Y-102118397D01*
X117871680Y-102187141D01*
X117857512Y-102209187D01*
X117767587Y-102321058D01*
X117683218Y-102491172D01*
X117637391Y-102675446D01*
X117634500Y-102718085D01*
X117634500Y-103369915D01*
X117634501Y-103369919D01*
X117637390Y-103412547D01*
X117637390Y-103412548D01*
X117683218Y-103596827D01*
X117767587Y-103766941D01*
X117878947Y-103905478D01*
X117905606Y-103970061D01*
X117906300Y-103983165D01*
X117906300Y-105265236D01*
X117886615Y-105332275D01*
X117869981Y-105352917D01*
X117454681Y-105768217D01*
X117393358Y-105801702D01*
X117323666Y-105796718D01*
X117267733Y-105754846D01*
X117243316Y-105689382D01*
X117243000Y-105680536D01*
X117243000Y-105533000D01*
X115693000Y-105533000D01*
X115693000Y-106582999D01*
X116340537Y-106582999D01*
X116407576Y-106602684D01*
X116453331Y-106655488D01*
X116463275Y-106724646D01*
X116434250Y-106788202D01*
X116428218Y-106794680D01*
X115893918Y-107328981D01*
X115832595Y-107362466D01*
X115806237Y-107365300D01*
X111269763Y-107365300D01*
X111202724Y-107345615D01*
X111182082Y-107328981D01*
X110783281Y-106930180D01*
X110749796Y-106868857D01*
X110754780Y-106799165D01*
X110796652Y-106743232D01*
X110862116Y-106718815D01*
X110870935Y-106718499D01*
X112954980Y-106718499D01*
X113032286Y-106712416D01*
X113212083Y-106664239D01*
X113337260Y-106600458D01*
X113377934Y-106579735D01*
X113377936Y-106579733D01*
X113522592Y-106462592D01*
X113619117Y-106343395D01*
X113632508Y-106326859D01*
X113689995Y-106287148D01*
X113759826Y-106284821D01*
X113816554Y-106317215D01*
X113924654Y-106425315D01*
X114073875Y-106517356D01*
X114073880Y-106517358D01*
X114240302Y-106572505D01*
X114240309Y-106572506D01*
X114343019Y-106582999D01*
X115192999Y-106582999D01*
X115193000Y-106582998D01*
X115193000Y-105033000D01*
X115693000Y-105033000D01*
X117242999Y-105033000D01*
X117242999Y-104683028D01*
X117242998Y-104683013D01*
X117232505Y-104580302D01*
X117177358Y-104413880D01*
X117177356Y-104413875D01*
X117085315Y-104264654D01*
X116961345Y-104140684D01*
X116812124Y-104048643D01*
X116812119Y-104048641D01*
X116645697Y-103993494D01*
X116645690Y-103993493D01*
X116542986Y-103983000D01*
X115693000Y-103983000D01*
X115693000Y-105033000D01*
X115193000Y-105033000D01*
X115193000Y-103983000D01*
X114343028Y-103983000D01*
X114343012Y-103983001D01*
X114240302Y-103993494D01*
X114073880Y-104048641D01*
X114073875Y-104048643D01*
X113924657Y-104140682D01*
X113816554Y-104248785D01*
X113755231Y-104282269D01*
X113685539Y-104277285D01*
X113632508Y-104239140D01*
X113566092Y-104157126D01*
X113522592Y-104103408D01*
X113443522Y-104039378D01*
X113377936Y-103986266D01*
X113377934Y-103986264D01*
X113237954Y-103914943D01*
X113212083Y-103901761D01*
X113032286Y-103853584D01*
X113032285Y-103853583D01*
X113032282Y-103853583D01*
X112969419Y-103848636D01*
X112954981Y-103847500D01*
X112954979Y-103847500D01*
X110731029Y-103847500D01*
X110731010Y-103847501D01*
X110653717Y-103853583D01*
X110473917Y-103901761D01*
X110308065Y-103986264D01*
X110308063Y-103986266D01*
X110163407Y-104103408D01*
X110152064Y-104117416D01*
X110094576Y-104157126D01*
X110024745Y-104159452D01*
X109964742Y-104123655D01*
X109933618Y-104061101D01*
X109931700Y-104039378D01*
X109931700Y-102887763D01*
X109951385Y-102820724D01*
X109968019Y-102800082D01*
X110550082Y-102218019D01*
X110611405Y-102184534D01*
X110637763Y-102181700D01*
X111345261Y-102181700D01*
X111412300Y-102201385D01*
X111458055Y-102254189D01*
X111468481Y-102291818D01*
X111474347Y-102343892D01*
X111532811Y-102510973D01*
X111569619Y-102569552D01*
X111626986Y-102660850D01*
X111752150Y-102786014D01*
X111902028Y-102880189D01*
X112069104Y-102938651D01*
X112069107Y-102938652D01*
X112148511Y-102947598D01*
X112200891Y-102953500D01*
X112589108Y-102953499D01*
X112589110Y-102953499D01*
X112589111Y-102953498D01*
X112720896Y-102938651D01*
X112887972Y-102880189D01*
X112887976Y-102880187D01*
X112964027Y-102832400D01*
X113031264Y-102813399D01*
X113095973Y-102832400D01*
X113172024Y-102880187D01*
X113172025Y-102880187D01*
X113172028Y-102880189D01*
X113339104Y-102938651D01*
X113339107Y-102938652D01*
X113418511Y-102947598D01*
X113470891Y-102953500D01*
X113859108Y-102953499D01*
X113859110Y-102953499D01*
X113859111Y-102953498D01*
X113990896Y-102938651D01*
X114157972Y-102880189D01*
X114157976Y-102880187D01*
X114234027Y-102832400D01*
X114301264Y-102813399D01*
X114365973Y-102832400D01*
X114442024Y-102880187D01*
X114442025Y-102880187D01*
X114442028Y-102880189D01*
X114609104Y-102938651D01*
X114609107Y-102938652D01*
X114688511Y-102947598D01*
X114740891Y-102953500D01*
X115129108Y-102953499D01*
X115129110Y-102953499D01*
X115129111Y-102953498D01*
X115260896Y-102938651D01*
X115427972Y-102880189D01*
X115577850Y-102786014D01*
X115600974Y-102762889D01*
X115662294Y-102729404D01*
X115731985Y-102734386D01*
X115751778Y-102743837D01*
X115794801Y-102769281D01*
X115952514Y-102815100D01*
X115952511Y-102815100D01*
X115954998Y-102815295D01*
X115955000Y-102815295D01*
X116455000Y-102815295D01*
X116455001Y-102815295D01*
X116457486Y-102815100D01*
X116615198Y-102769281D01*
X116756552Y-102685685D01*
X116756561Y-102685678D01*
X116872678Y-102569561D01*
X116872685Y-102569552D01*
X116956282Y-102428196D01*
X116956283Y-102428193D01*
X117002099Y-102270495D01*
X117002100Y-102270489D01*
X117004999Y-102233649D01*
X117005000Y-102233634D01*
X117005000Y-101593000D01*
X116455000Y-101593000D01*
X116455000Y-102815295D01*
X115955000Y-102815295D01*
X115955000Y-101467000D01*
X115974685Y-101399961D01*
X116027489Y-101354206D01*
X116079000Y-101343000D01*
X116205000Y-101343000D01*
X116205000Y-101217000D01*
X116224685Y-101149961D01*
X116277489Y-101104206D01*
X116329000Y-101093000D01*
X117005000Y-101093000D01*
X117005000Y-100530700D01*
X117024685Y-100463661D01*
X117077489Y-100417906D01*
X117129000Y-100406700D01*
X117611994Y-100406700D01*
X117679033Y-100426385D01*
G37*
%TD.AperFunction*%
%TA.AperFunction,Conductor*%
G36*
X142970682Y-100284089D02*
G01*
X142986252Y-100283514D01*
X143003522Y-100293732D01*
X143022773Y-100299385D01*
X143032974Y-100311158D01*
X143046385Y-100319093D01*
X143055389Y-100337026D01*
X143068528Y-100352189D01*
X143070745Y-100367609D01*
X143077737Y-100381534D01*
X143075616Y-100401487D01*
X143078472Y-100421347D01*
X143071897Y-100436475D01*
X143070353Y-100451012D01*
X143052383Y-100481383D01*
X143040588Y-100496058D01*
X143040586Y-100496061D01*
X142956218Y-100666172D01*
X142910391Y-100850446D01*
X142907500Y-100893085D01*
X142907500Y-101544915D01*
X142907501Y-101544919D01*
X142910390Y-101587547D01*
X142910390Y-101587548D01*
X142956218Y-101771827D01*
X143040587Y-101941941D01*
X143130512Y-102053813D01*
X143157171Y-102118397D01*
X143144680Y-102187141D01*
X143130512Y-102209187D01*
X143040587Y-102321058D01*
X142956218Y-102491172D01*
X142910391Y-102675446D01*
X142907500Y-102718085D01*
X142907500Y-103369915D01*
X142907501Y-103369919D01*
X142910390Y-103412547D01*
X142910390Y-103412548D01*
X142956218Y-103596827D01*
X143040587Y-103766941D01*
X143151947Y-103905478D01*
X143178606Y-103970061D01*
X143179300Y-103983165D01*
X143179300Y-105265236D01*
X143159615Y-105332275D01*
X143142981Y-105352917D01*
X142727681Y-105768217D01*
X142666358Y-105801702D01*
X142596666Y-105796718D01*
X142540733Y-105754846D01*
X142516316Y-105689382D01*
X142516000Y-105680536D01*
X142516000Y-105533000D01*
X140966000Y-105533000D01*
X140966000Y-106582999D01*
X141613537Y-106582999D01*
X141680576Y-106602684D01*
X141726331Y-106655488D01*
X141736275Y-106724646D01*
X141707250Y-106788202D01*
X141701218Y-106794680D01*
X141166918Y-107328981D01*
X141105595Y-107362466D01*
X141079237Y-107365300D01*
X136542763Y-107365300D01*
X136475724Y-107345615D01*
X136455082Y-107328981D01*
X136056281Y-106930180D01*
X136022796Y-106868857D01*
X136027780Y-106799165D01*
X136069652Y-106743232D01*
X136135116Y-106718815D01*
X136143935Y-106718499D01*
X138227980Y-106718499D01*
X138305286Y-106712416D01*
X138485083Y-106664239D01*
X138610260Y-106600458D01*
X138650934Y-106579735D01*
X138650936Y-106579733D01*
X138795592Y-106462592D01*
X138892117Y-106343395D01*
X138905508Y-106326859D01*
X138962995Y-106287148D01*
X139032826Y-106284821D01*
X139089554Y-106317215D01*
X139197654Y-106425315D01*
X139346875Y-106517356D01*
X139346880Y-106517358D01*
X139513302Y-106572505D01*
X139513309Y-106572506D01*
X139616019Y-106582999D01*
X140465999Y-106582999D01*
X140466000Y-106582998D01*
X140466000Y-105033000D01*
X140966000Y-105033000D01*
X142515999Y-105033000D01*
X142515999Y-104683028D01*
X142515998Y-104683013D01*
X142505505Y-104580302D01*
X142450358Y-104413880D01*
X142450356Y-104413875D01*
X142358315Y-104264654D01*
X142234345Y-104140684D01*
X142085124Y-104048643D01*
X142085119Y-104048641D01*
X141918697Y-103993494D01*
X141918690Y-103993493D01*
X141815986Y-103983000D01*
X140966000Y-103983000D01*
X140966000Y-105033000D01*
X140466000Y-105033000D01*
X140466000Y-103983000D01*
X139616028Y-103983000D01*
X139616012Y-103983001D01*
X139513302Y-103993494D01*
X139346880Y-104048641D01*
X139346875Y-104048643D01*
X139197657Y-104140682D01*
X139089554Y-104248785D01*
X139028231Y-104282269D01*
X138958539Y-104277285D01*
X138905508Y-104239140D01*
X138839092Y-104157126D01*
X138795592Y-104103408D01*
X138716522Y-104039378D01*
X138650936Y-103986266D01*
X138650934Y-103986264D01*
X138510954Y-103914943D01*
X138485083Y-103901761D01*
X138305286Y-103853584D01*
X138305285Y-103853583D01*
X138305282Y-103853583D01*
X138242419Y-103848636D01*
X138227981Y-103847500D01*
X138227979Y-103847500D01*
X136004029Y-103847500D01*
X136004010Y-103847501D01*
X135926717Y-103853583D01*
X135746917Y-103901761D01*
X135581065Y-103986264D01*
X135581063Y-103986266D01*
X135436407Y-104103408D01*
X135425064Y-104117416D01*
X135367576Y-104157126D01*
X135297745Y-104159452D01*
X135237742Y-104123655D01*
X135206618Y-104061101D01*
X135204700Y-104039378D01*
X135204700Y-102887763D01*
X135224385Y-102820724D01*
X135241019Y-102800082D01*
X135823082Y-102218019D01*
X135884405Y-102184534D01*
X135910763Y-102181700D01*
X136618261Y-102181700D01*
X136685300Y-102201385D01*
X136731055Y-102254189D01*
X136741481Y-102291818D01*
X136747347Y-102343892D01*
X136805811Y-102510973D01*
X136842619Y-102569552D01*
X136899986Y-102660850D01*
X137025150Y-102786014D01*
X137175028Y-102880189D01*
X137342104Y-102938651D01*
X137342107Y-102938652D01*
X137421511Y-102947598D01*
X137473891Y-102953500D01*
X137862108Y-102953499D01*
X137862110Y-102953499D01*
X137862111Y-102953498D01*
X137993896Y-102938651D01*
X138160972Y-102880189D01*
X138160976Y-102880187D01*
X138237027Y-102832400D01*
X138304264Y-102813399D01*
X138368973Y-102832400D01*
X138445024Y-102880187D01*
X138445025Y-102880187D01*
X138445028Y-102880189D01*
X138612104Y-102938651D01*
X138612107Y-102938652D01*
X138691511Y-102947598D01*
X138743891Y-102953500D01*
X139132108Y-102953499D01*
X139132110Y-102953499D01*
X139132111Y-102953498D01*
X139263896Y-102938651D01*
X139430972Y-102880189D01*
X139430976Y-102880187D01*
X139507027Y-102832400D01*
X139574264Y-102813399D01*
X139638973Y-102832400D01*
X139715024Y-102880187D01*
X139715025Y-102880187D01*
X139715028Y-102880189D01*
X139882104Y-102938651D01*
X139882107Y-102938652D01*
X139961511Y-102947598D01*
X140013891Y-102953500D01*
X140402108Y-102953499D01*
X140402110Y-102953499D01*
X140402111Y-102953498D01*
X140533896Y-102938651D01*
X140700972Y-102880189D01*
X140850850Y-102786014D01*
X140873974Y-102762889D01*
X140935294Y-102729404D01*
X141004985Y-102734386D01*
X141024778Y-102743837D01*
X141067801Y-102769281D01*
X141225514Y-102815100D01*
X141225511Y-102815100D01*
X141227998Y-102815295D01*
X141228000Y-102815295D01*
X141728000Y-102815295D01*
X141728001Y-102815295D01*
X141730486Y-102815100D01*
X141888198Y-102769281D01*
X142029552Y-102685685D01*
X142029561Y-102685678D01*
X142145678Y-102569561D01*
X142145685Y-102569552D01*
X142229282Y-102428196D01*
X142229283Y-102428193D01*
X142275099Y-102270495D01*
X142275100Y-102270489D01*
X142277999Y-102233649D01*
X142278000Y-102233634D01*
X142278000Y-101593000D01*
X141728000Y-101593000D01*
X141728000Y-102815295D01*
X141228000Y-102815295D01*
X141228000Y-101467000D01*
X141247685Y-101399961D01*
X141300489Y-101354206D01*
X141352000Y-101343000D01*
X141478000Y-101343000D01*
X141478000Y-101217000D01*
X141497685Y-101149961D01*
X141550489Y-101104206D01*
X141602000Y-101093000D01*
X142278000Y-101093000D01*
X142278000Y-100452365D01*
X142277999Y-100452352D01*
X142274936Y-100413429D01*
X142289300Y-100345052D01*
X142338351Y-100295295D01*
X142398554Y-100279700D01*
X142955734Y-100279700D01*
X142970682Y-100284089D01*
G37*
%TD.AperFunction*%
%TA.AperFunction,Conductor*%
G36*
X167914773Y-100299385D02*
G01*
X167960528Y-100352189D01*
X167970472Y-100421347D01*
X167944382Y-100481385D01*
X167932588Y-100496058D01*
X167932586Y-100496061D01*
X167848218Y-100666172D01*
X167802391Y-100850446D01*
X167799500Y-100893085D01*
X167799500Y-101544915D01*
X167799501Y-101544919D01*
X167802390Y-101587547D01*
X167802390Y-101587548D01*
X167848218Y-101771827D01*
X167932587Y-101941941D01*
X168022512Y-102053813D01*
X168049171Y-102118397D01*
X168036680Y-102187141D01*
X168022512Y-102209187D01*
X167932587Y-102321058D01*
X167848218Y-102491172D01*
X167802391Y-102675446D01*
X167799500Y-102718085D01*
X167799500Y-103369915D01*
X167799501Y-103369919D01*
X167802390Y-103412547D01*
X167802390Y-103412548D01*
X167848218Y-103596827D01*
X167932587Y-103766941D01*
X168043947Y-103905478D01*
X168070606Y-103970061D01*
X168071300Y-103983165D01*
X168071300Y-105265236D01*
X168051615Y-105332275D01*
X168034981Y-105352917D01*
X167619681Y-105768217D01*
X167558358Y-105801702D01*
X167488666Y-105796718D01*
X167432733Y-105754846D01*
X167408316Y-105689382D01*
X167408000Y-105680536D01*
X167408000Y-105533000D01*
X165858000Y-105533000D01*
X165858000Y-106582999D01*
X166505537Y-106582999D01*
X166572576Y-106602684D01*
X166618331Y-106655488D01*
X166628275Y-106724646D01*
X166599250Y-106788202D01*
X166593218Y-106794680D01*
X166058918Y-107328981D01*
X165997595Y-107362466D01*
X165971237Y-107365300D01*
X160609263Y-107365300D01*
X160542224Y-107345615D01*
X160521582Y-107328981D01*
X160133019Y-106940418D01*
X160099534Y-106879095D01*
X160096700Y-106852737D01*
X160096700Y-106526621D01*
X160116385Y-106459582D01*
X160169189Y-106413827D01*
X160238347Y-106403883D01*
X160301903Y-106432908D01*
X160317061Y-106448580D01*
X160325971Y-106459582D01*
X160328408Y-106462592D01*
X160473063Y-106579733D01*
X160473065Y-106579735D01*
X160555991Y-106621986D01*
X160638917Y-106664239D01*
X160818714Y-106712416D01*
X160896019Y-106718500D01*
X163119980Y-106718499D01*
X163197286Y-106712416D01*
X163377083Y-106664239D01*
X163502260Y-106600458D01*
X163542934Y-106579735D01*
X163542936Y-106579733D01*
X163687592Y-106462592D01*
X163784117Y-106343395D01*
X163797508Y-106326859D01*
X163854995Y-106287148D01*
X163924826Y-106284821D01*
X163981554Y-106317215D01*
X164089654Y-106425315D01*
X164238875Y-106517356D01*
X164238880Y-106517358D01*
X164405302Y-106572505D01*
X164405309Y-106572506D01*
X164508019Y-106582999D01*
X165357999Y-106582999D01*
X165358000Y-106582998D01*
X165358000Y-105033000D01*
X165858000Y-105033000D01*
X167407999Y-105033000D01*
X167407999Y-104683028D01*
X167407998Y-104683013D01*
X167397505Y-104580302D01*
X167342358Y-104413880D01*
X167342356Y-104413875D01*
X167250315Y-104264654D01*
X167126345Y-104140684D01*
X166977124Y-104048643D01*
X166977119Y-104048641D01*
X166810697Y-103993494D01*
X166810690Y-103993493D01*
X166707986Y-103983000D01*
X165858000Y-103983000D01*
X165858000Y-105033000D01*
X165358000Y-105033000D01*
X165358000Y-103983000D01*
X164508028Y-103983000D01*
X164508012Y-103983001D01*
X164405302Y-103993494D01*
X164238880Y-104048641D01*
X164238875Y-104048643D01*
X164089657Y-104140682D01*
X163981554Y-104248785D01*
X163920231Y-104282269D01*
X163850539Y-104277285D01*
X163797508Y-104239140D01*
X163731092Y-104157126D01*
X163687592Y-104103408D01*
X163608522Y-104039378D01*
X163542936Y-103986266D01*
X163542934Y-103986264D01*
X163402954Y-103914943D01*
X163377083Y-103901761D01*
X163197286Y-103853584D01*
X163197285Y-103853583D01*
X163197282Y-103853583D01*
X163134419Y-103848636D01*
X163119981Y-103847500D01*
X163119979Y-103847500D01*
X160896029Y-103847500D01*
X160896010Y-103847501D01*
X160818717Y-103853583D01*
X160638917Y-103901761D01*
X160473065Y-103986264D01*
X160473063Y-103986266D01*
X160328407Y-104103408D01*
X160317064Y-104117416D01*
X160259576Y-104157126D01*
X160189745Y-104159452D01*
X160129742Y-104123655D01*
X160098618Y-104061101D01*
X160096700Y-104039378D01*
X160096700Y-102887763D01*
X160116385Y-102820724D01*
X160133019Y-102800082D01*
X160715082Y-102218019D01*
X160776405Y-102184534D01*
X160802763Y-102181700D01*
X161510261Y-102181700D01*
X161577300Y-102201385D01*
X161623055Y-102254189D01*
X161633481Y-102291818D01*
X161639347Y-102343892D01*
X161697811Y-102510973D01*
X161734619Y-102569552D01*
X161791986Y-102660850D01*
X161917150Y-102786014D01*
X162067028Y-102880189D01*
X162234104Y-102938651D01*
X162234107Y-102938652D01*
X162313511Y-102947598D01*
X162365891Y-102953500D01*
X162754108Y-102953499D01*
X162754110Y-102953499D01*
X162754111Y-102953498D01*
X162885896Y-102938651D01*
X163052972Y-102880189D01*
X163052976Y-102880187D01*
X163129027Y-102832400D01*
X163196264Y-102813399D01*
X163260973Y-102832400D01*
X163337024Y-102880187D01*
X163337025Y-102880187D01*
X163337028Y-102880189D01*
X163504104Y-102938651D01*
X163504107Y-102938652D01*
X163583511Y-102947598D01*
X163635891Y-102953500D01*
X164024108Y-102953499D01*
X164024110Y-102953499D01*
X164024111Y-102953498D01*
X164155896Y-102938651D01*
X164322972Y-102880189D01*
X164322976Y-102880187D01*
X164399027Y-102832400D01*
X164466264Y-102813399D01*
X164530973Y-102832400D01*
X164607024Y-102880187D01*
X164607025Y-102880187D01*
X164607028Y-102880189D01*
X164774104Y-102938651D01*
X164774107Y-102938652D01*
X164853511Y-102947598D01*
X164905891Y-102953500D01*
X165294108Y-102953499D01*
X165294110Y-102953499D01*
X165294111Y-102953498D01*
X165425896Y-102938651D01*
X165592972Y-102880189D01*
X165742850Y-102786014D01*
X165765974Y-102762889D01*
X165827294Y-102729404D01*
X165896985Y-102734386D01*
X165916778Y-102743837D01*
X165959801Y-102769281D01*
X166117514Y-102815100D01*
X166117511Y-102815100D01*
X166119998Y-102815295D01*
X166120000Y-102815295D01*
X166620000Y-102815295D01*
X166620001Y-102815295D01*
X166622486Y-102815100D01*
X166780198Y-102769281D01*
X166921552Y-102685685D01*
X166921561Y-102685678D01*
X167037678Y-102569561D01*
X167037685Y-102569552D01*
X167121282Y-102428196D01*
X167121283Y-102428193D01*
X167167099Y-102270495D01*
X167167100Y-102270489D01*
X167169999Y-102233649D01*
X167170000Y-102233634D01*
X167170000Y-101593000D01*
X166620000Y-101593000D01*
X166620000Y-102815295D01*
X166120000Y-102815295D01*
X166120000Y-101467000D01*
X166139685Y-101399961D01*
X166192489Y-101354206D01*
X166244000Y-101343000D01*
X166370000Y-101343000D01*
X166370000Y-101217000D01*
X166389685Y-101149961D01*
X166442489Y-101104206D01*
X166494000Y-101093000D01*
X167170000Y-101093000D01*
X167170000Y-100452365D01*
X167169999Y-100452352D01*
X167166936Y-100413429D01*
X167181300Y-100345052D01*
X167230351Y-100295295D01*
X167290554Y-100279700D01*
X167847734Y-100279700D01*
X167914773Y-100299385D01*
G37*
%TD.AperFunction*%
%TA.AperFunction,Conductor*%
G36*
X140056365Y-90752518D02*
G01*
X140102208Y-90805245D01*
X140113500Y-90856945D01*
X140113500Y-91488415D01*
X140113501Y-91488419D01*
X140116390Y-91531047D01*
X140116390Y-91531048D01*
X140162218Y-91715327D01*
X140246587Y-91885441D01*
X140336512Y-91997313D01*
X140363171Y-92061897D01*
X140350680Y-92130641D01*
X140336512Y-92152687D01*
X140246587Y-92264558D01*
X140162218Y-92434672D01*
X140116391Y-92618946D01*
X140113500Y-92661585D01*
X140113500Y-93313415D01*
X140113501Y-93313419D01*
X140116390Y-93356047D01*
X140116390Y-93356048D01*
X140162218Y-93540327D01*
X140246587Y-93710441D01*
X140357947Y-93848978D01*
X140384606Y-93913561D01*
X140385300Y-93926665D01*
X140385300Y-94443609D01*
X140417529Y-94605632D01*
X140417533Y-94605647D01*
X140419773Y-94611055D01*
X140427237Y-94680525D01*
X140395958Y-94743002D01*
X140335867Y-94778650D01*
X140305209Y-94782500D01*
X140013889Y-94782500D01*
X140013883Y-94782501D01*
X139914582Y-94793689D01*
X139845761Y-94781634D01*
X139794382Y-94734285D01*
X139776700Y-94670469D01*
X139776700Y-94659392D01*
X139776699Y-94659390D01*
X139744471Y-94497368D01*
X139744470Y-94497365D01*
X139744469Y-94497360D01*
X139737244Y-94479917D01*
X139707550Y-94408228D01*
X139681250Y-94344733D01*
X139681243Y-94344720D01*
X139589461Y-94207360D01*
X139589458Y-94207356D01*
X138884642Y-93502540D01*
X138763041Y-93421290D01*
X138747273Y-93410754D01*
X138594640Y-93347531D01*
X138594632Y-93347529D01*
X138432608Y-93315300D01*
X138432605Y-93315300D01*
X136533486Y-93315300D01*
X136466447Y-93295615D01*
X136420692Y-93242811D01*
X136410748Y-93173653D01*
X136436837Y-93113614D01*
X136486412Y-93051942D01*
X136570782Y-92881826D01*
X136616609Y-92697550D01*
X136619500Y-92654917D01*
X136619499Y-92003084D01*
X136616609Y-91960450D01*
X136570782Y-91776174D01*
X136486412Y-91606058D01*
X136367444Y-91458056D01*
X136219442Y-91339088D01*
X136219440Y-91339087D01*
X136219441Y-91339087D01*
X136049327Y-91254718D01*
X135865051Y-91208891D01*
X135865055Y-91208891D01*
X135838404Y-91207084D01*
X135822417Y-91206000D01*
X135822414Y-91206000D01*
X135195584Y-91206000D01*
X135195580Y-91206001D01*
X135152952Y-91208890D01*
X135152951Y-91208890D01*
X134968672Y-91254718D01*
X134798559Y-91339087D01*
X134754223Y-91374724D01*
X134689638Y-91401381D01*
X134620894Y-91388889D01*
X134588857Y-91365756D01*
X134177299Y-90954198D01*
X134143814Y-90892875D01*
X134148798Y-90823183D01*
X134190670Y-90767250D01*
X134256134Y-90742833D01*
X134264737Y-90742518D01*
X139989294Y-90732945D01*
X140056365Y-90752518D01*
G37*
%TD.AperFunction*%
%TA.AperFunction,Conductor*%
G36*
X165403314Y-90694204D02*
G01*
X165416618Y-90693203D01*
X165436202Y-90703801D01*
X165457579Y-90710040D01*
X165466332Y-90720107D01*
X165478066Y-90726458D01*
X165488811Y-90745962D01*
X165503422Y-90762767D01*
X165506088Y-90777323D01*
X165511781Y-90787655D01*
X165514430Y-90822850D01*
X165513500Y-90836570D01*
X165513500Y-91488415D01*
X165513501Y-91488419D01*
X165516390Y-91531047D01*
X165516390Y-91531048D01*
X165562218Y-91715327D01*
X165646587Y-91885441D01*
X165736512Y-91997313D01*
X165763171Y-92061897D01*
X165750680Y-92130641D01*
X165736512Y-92152687D01*
X165646587Y-92264558D01*
X165562218Y-92434672D01*
X165516391Y-92618946D01*
X165513500Y-92661585D01*
X165513500Y-93313415D01*
X165513501Y-93313419D01*
X165516390Y-93356047D01*
X165516390Y-93356048D01*
X165519708Y-93369388D01*
X165562218Y-93540326D01*
X165562218Y-93540327D01*
X165562219Y-93540329D01*
X165564537Y-93546638D01*
X165561897Y-93547607D01*
X165571875Y-93604099D01*
X165544899Y-93668551D01*
X165487361Y-93708188D01*
X165417527Y-93710424D01*
X165401183Y-93704951D01*
X165344644Y-93681532D01*
X165344632Y-93681529D01*
X165182608Y-93649300D01*
X165182605Y-93649300D01*
X165017395Y-93649300D01*
X165017392Y-93649300D01*
X164855367Y-93681529D01*
X164855359Y-93681531D01*
X164702728Y-93744753D01*
X164605781Y-93809530D01*
X164575487Y-93819015D01*
X164545738Y-93830111D01*
X164542380Y-93829380D01*
X164539103Y-93830407D01*
X164508490Y-93822008D01*
X164477465Y-93815260D01*
X164473747Y-93812477D01*
X164471723Y-93811922D01*
X164449210Y-93794109D01*
X164418286Y-93763185D01*
X164364640Y-93709539D01*
X164273130Y-93618029D01*
X164157643Y-93502541D01*
X164157642Y-93502540D01*
X164036041Y-93421290D01*
X164020273Y-93410754D01*
X163867640Y-93347531D01*
X163867632Y-93347529D01*
X163705608Y-93315300D01*
X163705605Y-93315300D01*
X161425486Y-93315300D01*
X161358447Y-93295615D01*
X161312692Y-93242811D01*
X161302748Y-93173653D01*
X161328837Y-93113614D01*
X161378412Y-93051942D01*
X161462782Y-92881826D01*
X161508609Y-92697550D01*
X161511500Y-92654917D01*
X161511499Y-92003084D01*
X161508609Y-91960450D01*
X161462782Y-91776174D01*
X161378412Y-91606058D01*
X161259444Y-91458056D01*
X161111442Y-91339088D01*
X161111440Y-91339087D01*
X161111441Y-91339087D01*
X160941327Y-91254718D01*
X160757051Y-91208891D01*
X160757055Y-91208891D01*
X160730404Y-91207084D01*
X160714417Y-91206000D01*
X160714414Y-91206000D01*
X160087584Y-91206000D01*
X160087580Y-91206001D01*
X160044952Y-91208890D01*
X160044951Y-91208890D01*
X159860672Y-91254718D01*
X159690559Y-91339087D01*
X159646223Y-91374724D01*
X159581638Y-91401381D01*
X159512894Y-91388889D01*
X159480857Y-91365756D01*
X159027743Y-90912642D01*
X158994258Y-90851319D01*
X158999242Y-90781627D01*
X159041114Y-90725694D01*
X159106578Y-90701277D01*
X159115176Y-90700962D01*
X165390512Y-90690468D01*
X165403314Y-90694204D01*
G37*
%TD.AperFunction*%
%TD*%
%TA.AperFunction,Conductor*%
%TO.N,/Inversor/Gnd_Micro*%
G36*
X179843560Y-116519343D02*
G01*
X179904689Y-116531410D01*
X179912414Y-116534599D01*
X179917595Y-116534686D01*
X179949445Y-116549883D01*
X179990911Y-116577527D01*
X180025186Y-116611745D01*
X180052895Y-116653159D01*
X180071447Y-116697895D01*
X180083612Y-116758988D01*
X180086000Y-116783201D01*
X180086000Y-120193287D01*
X180083617Y-120217480D01*
X180071476Y-120278512D01*
X180052962Y-120323208D01*
X180025309Y-120364595D01*
X179991095Y-120398809D01*
X179949708Y-120426462D01*
X179905012Y-120444976D01*
X179856989Y-120454529D01*
X179843978Y-120457117D01*
X179819788Y-120459500D01*
X173931500Y-120459500D01*
X173864461Y-120439815D01*
X173818706Y-120387011D01*
X173807500Y-120335500D01*
X173807499Y-118593187D01*
X173807498Y-118593181D01*
X173792416Y-118459310D01*
X173792413Y-118459297D01*
X173733023Y-118289572D01*
X173703490Y-118242570D01*
X173637349Y-118137307D01*
X173510193Y-118010151D01*
X173435393Y-117963151D01*
X173357929Y-117914477D01*
X173188192Y-117855084D01*
X173188186Y-117855083D01*
X173054315Y-117840000D01*
X172639687Y-117840000D01*
X172639681Y-117840001D01*
X172505810Y-117855083D01*
X172505797Y-117855086D01*
X172336072Y-117914476D01*
X172183806Y-118010151D01*
X172056651Y-118137306D01*
X171960977Y-118289570D01*
X171901584Y-118459307D01*
X171901583Y-118459313D01*
X171886500Y-118593182D01*
X171886500Y-118593186D01*
X171886501Y-120335500D01*
X171866816Y-120402539D01*
X171814013Y-120448294D01*
X171762501Y-120459500D01*
X171256000Y-120459500D01*
X171188961Y-120439815D01*
X171143206Y-120387011D01*
X171132000Y-120335500D01*
X171132000Y-119900500D01*
X169482000Y-119900500D01*
X169482000Y-120335500D01*
X169462315Y-120402539D01*
X169409511Y-120448294D01*
X169358000Y-120459500D01*
X168851500Y-120459500D01*
X168784461Y-120439815D01*
X168738706Y-120387011D01*
X168727500Y-120335500D01*
X168727499Y-118593187D01*
X168727498Y-118593180D01*
X168726515Y-118584456D01*
X169482000Y-118584456D01*
X169482000Y-119400500D01*
X170057000Y-119400500D01*
X170557000Y-119400500D01*
X171132000Y-119400500D01*
X171132000Y-118584456D01*
X171125934Y-118517707D01*
X171078070Y-118364103D01*
X170994836Y-118226419D01*
X170881080Y-118112663D01*
X170743396Y-118029429D01*
X170589794Y-117981566D01*
X170557000Y-117978585D01*
X170557000Y-119400500D01*
X170057000Y-119400500D01*
X170057000Y-117978585D01*
X170056999Y-117978585D01*
X170024205Y-117981566D01*
X169870603Y-118029429D01*
X169732919Y-118112663D01*
X169619163Y-118226419D01*
X169535929Y-118364103D01*
X169488065Y-118517707D01*
X169482000Y-118584456D01*
X168726515Y-118584456D01*
X168712416Y-118459309D01*
X168712413Y-118459297D01*
X168653023Y-118289572D01*
X168623490Y-118242570D01*
X168557349Y-118137307D01*
X168430193Y-118010151D01*
X168355393Y-117963151D01*
X168277929Y-117914477D01*
X168116408Y-117857959D01*
X168108195Y-117855085D01*
X168108194Y-117855084D01*
X168108189Y-117855083D01*
X168013056Y-117844365D01*
X168002747Y-117842762D01*
X167849607Y-117812300D01*
X167849605Y-117812300D01*
X167684395Y-117812300D01*
X167684390Y-117812300D01*
X167531239Y-117842764D01*
X167520931Y-117844367D01*
X167425809Y-117855083D01*
X167425797Y-117855086D01*
X167256072Y-117914476D01*
X167103806Y-118010151D01*
X166976651Y-118137306D01*
X166880977Y-118289570D01*
X166821584Y-118459307D01*
X166821583Y-118459313D01*
X166806500Y-118593182D01*
X166806500Y-120246036D01*
X166797855Y-120275476D01*
X166791332Y-120305463D01*
X166787577Y-120310478D01*
X166786815Y-120313075D01*
X166770181Y-120333717D01*
X166680717Y-120423181D01*
X166619394Y-120456666D01*
X166593036Y-120459500D01*
X166311500Y-120459500D01*
X166244461Y-120439815D01*
X166198706Y-120387011D01*
X166187500Y-120335500D01*
X166187499Y-118593187D01*
X166187498Y-118593181D01*
X166172416Y-118459310D01*
X166172413Y-118459297D01*
X166113023Y-118289572D01*
X166083490Y-118242570D01*
X166017349Y-118137307D01*
X165890193Y-118010151D01*
X165815393Y-117963151D01*
X165737929Y-117914477D01*
X165568192Y-117855084D01*
X165568186Y-117855083D01*
X165434315Y-117840000D01*
X165019687Y-117840000D01*
X165019681Y-117840001D01*
X164885810Y-117855083D01*
X164885797Y-117855086D01*
X164716072Y-117914476D01*
X164563806Y-118010151D01*
X164436651Y-118137306D01*
X164340977Y-118289570D01*
X164281584Y-118459307D01*
X164281583Y-118459313D01*
X164266500Y-118593182D01*
X164266500Y-118593186D01*
X164266501Y-120335500D01*
X164246816Y-120402539D01*
X164194013Y-120448294D01*
X164142501Y-120459500D01*
X161739500Y-120459500D01*
X161672461Y-120439815D01*
X161626706Y-120387011D01*
X161615500Y-120335500D01*
X161615499Y-118593187D01*
X161615498Y-118593181D01*
X161600416Y-118459310D01*
X161600413Y-118459297D01*
X161541023Y-118289572D01*
X161511490Y-118242570D01*
X161445349Y-118137307D01*
X161318193Y-118010151D01*
X161243393Y-117963151D01*
X161165929Y-117914477D01*
X160996192Y-117855084D01*
X160996186Y-117855083D01*
X160862315Y-117840000D01*
X160447687Y-117840000D01*
X160447681Y-117840001D01*
X160313810Y-117855083D01*
X160313797Y-117855086D01*
X160144072Y-117914476D01*
X159991806Y-118010151D01*
X159864651Y-118137306D01*
X159768977Y-118289570D01*
X159709584Y-118459307D01*
X159709583Y-118459313D01*
X159694500Y-118593182D01*
X159694500Y-118593186D01*
X159694501Y-120335500D01*
X159674816Y-120402539D01*
X159622013Y-120448294D01*
X159570501Y-120459500D01*
X159064000Y-120459500D01*
X158996961Y-120439815D01*
X158951206Y-120387011D01*
X158940000Y-120335500D01*
X158940000Y-119900500D01*
X157290000Y-119900500D01*
X157290000Y-120335500D01*
X157270315Y-120402539D01*
X157217511Y-120448294D01*
X157166000Y-120459500D01*
X156844999Y-120459500D01*
X156747179Y-120557319D01*
X156685856Y-120590803D01*
X156616164Y-120585818D01*
X156560231Y-120543947D01*
X156535815Y-120478482D01*
X156535499Y-120469661D01*
X156535499Y-118593190D01*
X156534515Y-118584456D01*
X157290000Y-118584456D01*
X157290000Y-119400500D01*
X157865000Y-119400500D01*
X158365000Y-119400500D01*
X158940000Y-119400500D01*
X158940000Y-118584456D01*
X158933934Y-118517707D01*
X158886070Y-118364103D01*
X158802836Y-118226419D01*
X158689080Y-118112663D01*
X158551396Y-118029429D01*
X158397794Y-117981566D01*
X158365000Y-117978585D01*
X158365000Y-119400500D01*
X157865000Y-119400500D01*
X157865000Y-117978585D01*
X157864999Y-117978585D01*
X157832205Y-117981566D01*
X157678603Y-118029429D01*
X157540919Y-118112663D01*
X157427163Y-118226419D01*
X157343929Y-118364103D01*
X157296065Y-118517707D01*
X157290000Y-118584456D01*
X156534515Y-118584456D01*
X156530204Y-118546189D01*
X156520416Y-118459309D01*
X156520413Y-118459297D01*
X156461023Y-118289572D01*
X156431490Y-118242570D01*
X156365349Y-118137307D01*
X156238193Y-118010151D01*
X156113156Y-117931585D01*
X156085927Y-117914476D01*
X155974825Y-117875599D01*
X155968327Y-117873119D01*
X155819640Y-117811531D01*
X155819632Y-117811529D01*
X155657608Y-117779300D01*
X155657605Y-117779300D01*
X155492395Y-117779300D01*
X155492392Y-117779300D01*
X155330367Y-117811529D01*
X155330355Y-117811532D01*
X155181654Y-117873126D01*
X155175157Y-117875606D01*
X155064071Y-117914477D01*
X155064067Y-117914479D01*
X154911806Y-118010151D01*
X154784651Y-118137306D01*
X154688977Y-118289570D01*
X154629584Y-118459307D01*
X154629583Y-118459313D01*
X154614500Y-118593182D01*
X154614500Y-120707812D01*
X154614501Y-120707818D01*
X154629583Y-120841689D01*
X154629586Y-120841702D01*
X154688976Y-121011428D01*
X154717293Y-121056493D01*
X154722138Y-121073310D01*
X154731277Y-121087531D01*
X154736300Y-121122466D01*
X154736300Y-121274800D01*
X154716615Y-121341839D01*
X154663811Y-121387594D01*
X154612300Y-121398800D01*
X153889604Y-121398800D01*
X153822565Y-121379115D01*
X153776810Y-121326311D01*
X153766866Y-121257153D01*
X153795891Y-121193597D01*
X153801923Y-121187119D01*
X153825349Y-121163693D01*
X153921022Y-121011430D01*
X153980415Y-120841695D01*
X153995500Y-120707811D01*
X153995499Y-118593190D01*
X153990204Y-118546189D01*
X153980416Y-118459310D01*
X153980413Y-118459297D01*
X153921023Y-118289572D01*
X153891490Y-118242570D01*
X153825349Y-118137307D01*
X153698193Y-118010151D01*
X153623393Y-117963151D01*
X153545929Y-117914477D01*
X153376192Y-117855084D01*
X153376186Y-117855083D01*
X153242315Y-117840000D01*
X152827687Y-117840000D01*
X152827681Y-117840001D01*
X152693810Y-117855083D01*
X152693797Y-117855086D01*
X152524072Y-117914476D01*
X152371806Y-118010151D01*
X152244651Y-118137306D01*
X152148977Y-118289570D01*
X152089584Y-118459307D01*
X152089583Y-118459313D01*
X152074500Y-118593182D01*
X152074500Y-120707812D01*
X152074501Y-120707818D01*
X152089583Y-120841689D01*
X152089586Y-120841702D01*
X152148976Y-121011427D01*
X152244651Y-121163693D01*
X152268077Y-121187119D01*
X152301562Y-121248442D01*
X152296578Y-121318134D01*
X152254706Y-121374067D01*
X152189242Y-121398484D01*
X152180396Y-121398800D01*
X149524604Y-121398800D01*
X149457565Y-121379115D01*
X149411810Y-121326311D01*
X149401866Y-121257153D01*
X149430891Y-121193597D01*
X149436923Y-121187119D01*
X149460349Y-121163693D01*
X149507349Y-121116693D01*
X149603022Y-120964430D01*
X149662415Y-120794695D01*
X149677500Y-120660811D01*
X149677499Y-118546190D01*
X149668114Y-118462889D01*
X149662416Y-118412310D01*
X149662413Y-118412297D01*
X149603023Y-118242572D01*
X149603022Y-118242570D01*
X149507349Y-118090307D01*
X149380193Y-117963151D01*
X149302732Y-117914479D01*
X149227929Y-117867477D01*
X149058192Y-117808084D01*
X149058186Y-117808083D01*
X148924315Y-117793000D01*
X148509687Y-117793000D01*
X148509681Y-117793001D01*
X148375810Y-117808083D01*
X148375797Y-117808086D01*
X148206072Y-117867476D01*
X148053806Y-117963151D01*
X147926651Y-118090306D01*
X147830977Y-118242570D01*
X147771584Y-118412307D01*
X147771583Y-118412313D01*
X147756500Y-118546182D01*
X147756500Y-120660812D01*
X147756501Y-120660818D01*
X147771583Y-120794689D01*
X147771586Y-120794702D01*
X147830976Y-120964427D01*
X147926651Y-121116693D01*
X147997077Y-121187119D01*
X148030562Y-121248442D01*
X148025578Y-121318134D01*
X147983706Y-121374067D01*
X147918242Y-121398484D01*
X147909396Y-121398800D01*
X146769994Y-121398800D01*
X146702955Y-121379115D01*
X146657200Y-121326311D01*
X146647256Y-121257153D01*
X146676281Y-121193597D01*
X146705844Y-121168683D01*
X146751080Y-121141336D01*
X146864836Y-121027580D01*
X146948070Y-120889896D01*
X146995934Y-120736292D01*
X147002000Y-120669543D01*
X147002000Y-119853500D01*
X145352000Y-119853500D01*
X145352000Y-120669543D01*
X145358065Y-120736292D01*
X145405929Y-120889896D01*
X145489163Y-121027580D01*
X145602919Y-121141336D01*
X145648156Y-121168683D01*
X145695344Y-121220211D01*
X145707182Y-121289071D01*
X145679913Y-121353399D01*
X145622194Y-121392773D01*
X145584006Y-121398800D01*
X144444604Y-121398800D01*
X144377565Y-121379115D01*
X144331810Y-121326311D01*
X144321866Y-121257153D01*
X144350891Y-121193597D01*
X144356923Y-121187119D01*
X144380349Y-121163693D01*
X144427349Y-121116693D01*
X144523022Y-120964430D01*
X144582415Y-120794695D01*
X144597500Y-120660811D01*
X144597499Y-120643959D01*
X144599881Y-120619769D01*
X144602700Y-120605605D01*
X144602700Y-120440395D01*
X144602700Y-118537456D01*
X145352000Y-118537456D01*
X145352000Y-119353500D01*
X145927000Y-119353500D01*
X146427000Y-119353500D01*
X147002000Y-119353500D01*
X147002000Y-118537456D01*
X146995934Y-118470707D01*
X146948070Y-118317103D01*
X146864836Y-118179419D01*
X146751080Y-118065663D01*
X146613396Y-117982429D01*
X146459794Y-117934566D01*
X146427000Y-117931585D01*
X146427000Y-119353500D01*
X145927000Y-119353500D01*
X145927000Y-117931585D01*
X145926999Y-117931585D01*
X145894205Y-117934566D01*
X145740603Y-117982429D01*
X145602919Y-118065663D01*
X145489163Y-118179419D01*
X145405929Y-118317103D01*
X145358065Y-118470707D01*
X145352000Y-118537456D01*
X144602700Y-118537456D01*
X144602700Y-118535395D01*
X144588625Y-118464641D01*
X144588379Y-118463225D01*
X144588417Y-118462889D01*
X144587316Y-118455811D01*
X144582415Y-118412305D01*
X144572683Y-118384495D01*
X144570469Y-118373360D01*
X144559636Y-118347209D01*
X144523022Y-118242570D01*
X144427349Y-118090307D01*
X144300193Y-117963151D01*
X144249956Y-117931585D01*
X144190553Y-117894260D01*
X144190552Y-117894259D01*
X144189073Y-117893329D01*
X144161273Y-117874754D01*
X144156100Y-117872610D01*
X144147933Y-117867479D01*
X144145757Y-117866717D01*
X144123996Y-117859103D01*
X144117521Y-117856631D01*
X144008640Y-117811531D01*
X144008632Y-117811529D01*
X143846608Y-117779300D01*
X143846605Y-117779300D01*
X143681395Y-117779300D01*
X143644648Y-117786609D01*
X143624493Y-117790618D01*
X143600304Y-117793000D01*
X143429687Y-117793000D01*
X143429681Y-117793001D01*
X143295810Y-117808083D01*
X143295797Y-117808086D01*
X143126072Y-117867476D01*
X142973806Y-117963151D01*
X142846651Y-118090306D01*
X142750977Y-118242570D01*
X142691584Y-118412307D01*
X142691583Y-118412313D01*
X142676500Y-118546182D01*
X142676500Y-120373035D01*
X142667856Y-120402471D01*
X142661333Y-120432461D01*
X142657577Y-120437478D01*
X142656815Y-120440074D01*
X142640182Y-120460716D01*
X142563918Y-120536981D01*
X142502595Y-120570466D01*
X142476236Y-120573300D01*
X142181500Y-120573300D01*
X142114461Y-120553615D01*
X142068706Y-120500811D01*
X142057500Y-120449300D01*
X142057499Y-118546187D01*
X142057498Y-118546181D01*
X142042416Y-118412310D01*
X142042413Y-118412297D01*
X141983023Y-118242572D01*
X141983022Y-118242570D01*
X141887349Y-118090307D01*
X141760193Y-117963151D01*
X141682732Y-117914479D01*
X141607929Y-117867477D01*
X141438192Y-117808084D01*
X141438186Y-117808083D01*
X141304315Y-117793000D01*
X140889687Y-117793000D01*
X140889681Y-117793001D01*
X140755810Y-117808083D01*
X140755797Y-117808086D01*
X140586072Y-117867476D01*
X140433806Y-117963151D01*
X140306651Y-118090306D01*
X140210977Y-118242570D01*
X140151584Y-118412307D01*
X140151583Y-118412313D01*
X140136500Y-118546182D01*
X140136500Y-118546186D01*
X140136501Y-120449300D01*
X140116816Y-120516339D01*
X140064013Y-120562094D01*
X140012501Y-120573300D01*
X137355500Y-120573300D01*
X137288461Y-120553615D01*
X137242706Y-120500811D01*
X137231500Y-120449300D01*
X137231499Y-118546187D01*
X137231498Y-118546181D01*
X137216416Y-118412310D01*
X137216413Y-118412297D01*
X137157023Y-118242572D01*
X137157022Y-118242570D01*
X137061349Y-118090307D01*
X136934193Y-117963151D01*
X136856732Y-117914479D01*
X136781929Y-117867477D01*
X136612192Y-117808084D01*
X136612186Y-117808083D01*
X136478315Y-117793000D01*
X136063687Y-117793000D01*
X136063681Y-117793001D01*
X135929810Y-117808083D01*
X135929797Y-117808086D01*
X135760072Y-117867476D01*
X135607806Y-117963151D01*
X135480651Y-118090306D01*
X135384977Y-118242570D01*
X135325584Y-118412307D01*
X135325583Y-118412313D01*
X135310500Y-118546182D01*
X135310500Y-118546186D01*
X135310501Y-120449300D01*
X135290816Y-120516339D01*
X135238013Y-120562094D01*
X135186501Y-120573300D01*
X134680000Y-120573300D01*
X134612961Y-120553615D01*
X134567206Y-120500811D01*
X134556000Y-120449300D01*
X134556000Y-119853500D01*
X132906000Y-119853500D01*
X132906000Y-120449300D01*
X132886315Y-120516339D01*
X132833511Y-120562094D01*
X132782000Y-120573300D01*
X132441892Y-120573300D01*
X132299690Y-120601586D01*
X132230099Y-120595359D01*
X132174922Y-120552496D01*
X132151677Y-120486606D01*
X132151499Y-120479969D01*
X132151499Y-118546187D01*
X132151498Y-118546180D01*
X132150515Y-118537456D01*
X132906000Y-118537456D01*
X132906000Y-119353500D01*
X133481000Y-119353500D01*
X133981000Y-119353500D01*
X134556000Y-119353500D01*
X134556000Y-118537456D01*
X134549934Y-118470707D01*
X134502070Y-118317103D01*
X134418836Y-118179419D01*
X134305080Y-118065663D01*
X134167396Y-117982429D01*
X134013794Y-117934566D01*
X133981000Y-117931585D01*
X133981000Y-119353500D01*
X133481000Y-119353500D01*
X133481000Y-117931585D01*
X133480999Y-117931585D01*
X133448205Y-117934566D01*
X133294603Y-117982429D01*
X133156919Y-118065663D01*
X133043163Y-118179419D01*
X132959929Y-118317103D01*
X132912065Y-118470707D01*
X132906000Y-118537456D01*
X132150515Y-118537456D01*
X132136416Y-118412309D01*
X132136413Y-118412297D01*
X132077023Y-118242572D01*
X132077022Y-118242570D01*
X131981349Y-118090307D01*
X131854193Y-117963151D01*
X131776732Y-117914479D01*
X131701929Y-117867477D01*
X131532192Y-117808084D01*
X131532186Y-117808083D01*
X131398315Y-117793000D01*
X130983687Y-117793000D01*
X130983681Y-117793001D01*
X130849810Y-117808083D01*
X130849797Y-117808086D01*
X130680072Y-117867476D01*
X130527806Y-117963151D01*
X130400651Y-118090306D01*
X130304977Y-118242570D01*
X130245584Y-118412307D01*
X130245583Y-118412313D01*
X130230500Y-118546182D01*
X130230500Y-120660812D01*
X130230501Y-120660818D01*
X130245583Y-120794689D01*
X130245586Y-120794702D01*
X130304974Y-120964423D01*
X130306215Y-120966999D01*
X130306516Y-120968829D01*
X130307277Y-120971003D01*
X130306896Y-120971136D01*
X130317566Y-121035941D01*
X130289843Y-121100075D01*
X130231848Y-121139040D01*
X130194494Y-121144800D01*
X129647506Y-121144800D01*
X129580467Y-121125115D01*
X129534712Y-121072311D01*
X129524768Y-121003153D01*
X129535785Y-120966999D01*
X129537017Y-120964436D01*
X129537022Y-120964430D01*
X129596415Y-120794695D01*
X129611500Y-120660811D01*
X129611499Y-118546190D01*
X129602114Y-118462889D01*
X129596416Y-118412310D01*
X129596413Y-118412297D01*
X129537023Y-118242572D01*
X129537022Y-118242570D01*
X129441349Y-118090307D01*
X129314193Y-117963151D01*
X129236732Y-117914479D01*
X129161929Y-117867477D01*
X128992192Y-117808084D01*
X128992186Y-117808083D01*
X128858315Y-117793000D01*
X128443687Y-117793000D01*
X128443681Y-117793001D01*
X128309810Y-117808083D01*
X128309797Y-117808086D01*
X128140072Y-117867476D01*
X127987806Y-117963151D01*
X127860651Y-118090306D01*
X127764977Y-118242570D01*
X127705584Y-118412307D01*
X127705583Y-118412313D01*
X127690500Y-118546182D01*
X127690500Y-120660812D01*
X127690501Y-120660818D01*
X127705583Y-120794689D01*
X127705586Y-120794702D01*
X127764974Y-120964423D01*
X127766215Y-120966999D01*
X127766516Y-120968829D01*
X127767277Y-120971003D01*
X127766896Y-120971136D01*
X127777566Y-121035941D01*
X127749843Y-121100075D01*
X127691848Y-121139040D01*
X127654494Y-121144800D01*
X124547314Y-121144800D01*
X124480275Y-121125115D01*
X124434520Y-121072311D01*
X124424576Y-121003153D01*
X124442321Y-120954827D01*
X124457021Y-120931431D01*
X124457022Y-120931430D01*
X124516415Y-120761695D01*
X124531500Y-120627811D01*
X124531499Y-118513190D01*
X124525429Y-118459309D01*
X124516416Y-118379310D01*
X124516413Y-118379297D01*
X124457023Y-118209572D01*
X124438077Y-118179419D01*
X124361349Y-118057307D01*
X124234193Y-117930151D01*
X124134451Y-117867479D01*
X124081929Y-117834477D01*
X123912192Y-117775084D01*
X123912186Y-117775083D01*
X123778315Y-117760000D01*
X123363687Y-117760000D01*
X123363681Y-117760001D01*
X123229810Y-117775083D01*
X123229797Y-117775086D01*
X123060072Y-117834476D01*
X122907806Y-117930151D01*
X122780651Y-118057306D01*
X122684977Y-118209570D01*
X122625584Y-118379307D01*
X122625583Y-118379313D01*
X122610500Y-118513182D01*
X122610500Y-120627812D01*
X122610501Y-120627818D01*
X122625583Y-120761689D01*
X122625586Y-120761702D01*
X122684976Y-120931428D01*
X122699679Y-120954827D01*
X122718680Y-121022064D01*
X122698313Y-121088899D01*
X122645045Y-121134113D01*
X122594686Y-121144800D01*
X121847883Y-121144800D01*
X121780844Y-121125115D01*
X121735089Y-121072311D01*
X121725145Y-121003153D01*
X121741767Y-120956649D01*
X121802069Y-120856897D01*
X121849934Y-120703292D01*
X121856000Y-120636543D01*
X121856000Y-119820500D01*
X120206000Y-119820500D01*
X120206000Y-120636543D01*
X120212065Y-120703292D01*
X120259930Y-120856897D01*
X120320233Y-120956649D01*
X120338070Y-121024204D01*
X120316553Y-121090678D01*
X120262513Y-121134966D01*
X120214117Y-121144800D01*
X119467314Y-121144800D01*
X119400275Y-121125115D01*
X119354520Y-121072311D01*
X119344576Y-121003153D01*
X119362321Y-120954827D01*
X119377021Y-120931431D01*
X119377022Y-120931430D01*
X119436415Y-120761695D01*
X119451500Y-120627811D01*
X119451499Y-118513190D01*
X119450515Y-118504456D01*
X120206000Y-118504456D01*
X120206000Y-119320500D01*
X120781000Y-119320500D01*
X121281000Y-119320500D01*
X121856000Y-119320500D01*
X121856000Y-118504456D01*
X121849934Y-118437707D01*
X121802070Y-118284103D01*
X121718836Y-118146419D01*
X121605080Y-118032663D01*
X121467396Y-117949429D01*
X121313794Y-117901566D01*
X121281000Y-117898585D01*
X121281000Y-119320500D01*
X120781000Y-119320500D01*
X120781000Y-117898585D01*
X120780999Y-117898585D01*
X120748205Y-117901566D01*
X120594603Y-117949429D01*
X120456919Y-118032663D01*
X120343163Y-118146419D01*
X120259929Y-118284103D01*
X120212065Y-118437707D01*
X120206000Y-118504456D01*
X119450515Y-118504456D01*
X119445429Y-118459309D01*
X119436416Y-118379309D01*
X119436413Y-118379297D01*
X119377023Y-118209572D01*
X119358077Y-118179419D01*
X119281349Y-118057307D01*
X119154193Y-117930151D01*
X119054451Y-117867479D01*
X119001929Y-117834477D01*
X118832192Y-117775084D01*
X118832186Y-117775083D01*
X118698315Y-117760000D01*
X118283687Y-117760000D01*
X118283681Y-117760001D01*
X118149810Y-117775083D01*
X118149797Y-117775086D01*
X117980072Y-117834476D01*
X117827806Y-117930151D01*
X117700651Y-118057306D01*
X117604977Y-118209570D01*
X117545584Y-118379307D01*
X117545583Y-118379313D01*
X117530500Y-118513182D01*
X117530500Y-119992036D01*
X117510815Y-120059075D01*
X117494181Y-120079717D01*
X117123180Y-120450717D01*
X117061857Y-120484202D01*
X116992165Y-120479218D01*
X116936232Y-120437346D01*
X116911815Y-120371882D01*
X116911499Y-120363060D01*
X116911499Y-118513190D01*
X116905429Y-118459309D01*
X116896416Y-118379310D01*
X116896413Y-118379297D01*
X116837023Y-118209572D01*
X116818077Y-118179419D01*
X116741349Y-118057307D01*
X116614193Y-117930151D01*
X116514451Y-117867479D01*
X116461929Y-117834477D01*
X116292192Y-117775084D01*
X116292186Y-117775083D01*
X116158315Y-117760000D01*
X115743687Y-117760000D01*
X115743681Y-117760001D01*
X115609810Y-117775083D01*
X115609797Y-117775086D01*
X115440072Y-117834476D01*
X115287806Y-117930151D01*
X115160651Y-118057306D01*
X115064977Y-118209570D01*
X115005584Y-118379307D01*
X115005583Y-118379313D01*
X114990500Y-118513182D01*
X114990500Y-120627812D01*
X114990501Y-120627818D01*
X115005583Y-120761689D01*
X115005586Y-120761702D01*
X115064976Y-120931427D01*
X115159479Y-121081828D01*
X115178479Y-121149065D01*
X115158111Y-121215900D01*
X115104843Y-121261114D01*
X115054485Y-121271800D01*
X112529515Y-121271800D01*
X112462476Y-121252115D01*
X112416721Y-121199311D01*
X112406777Y-121130153D01*
X112424521Y-121081828D01*
X112450965Y-121039742D01*
X112519022Y-120931430D01*
X112578415Y-120761695D01*
X112593500Y-120627811D01*
X112593499Y-118513190D01*
X112587429Y-118459309D01*
X112578416Y-118379310D01*
X112578413Y-118379297D01*
X112519023Y-118209572D01*
X112500077Y-118179419D01*
X112423349Y-118057307D01*
X112296193Y-117930151D01*
X112196451Y-117867479D01*
X112143929Y-117834477D01*
X111974192Y-117775084D01*
X111974186Y-117775083D01*
X111840315Y-117760000D01*
X111425687Y-117760000D01*
X111425681Y-117760001D01*
X111291810Y-117775083D01*
X111291797Y-117775086D01*
X111122072Y-117834476D01*
X110969806Y-117930151D01*
X110842651Y-118057306D01*
X110746977Y-118209570D01*
X110687584Y-118379307D01*
X110687583Y-118379313D01*
X110672500Y-118513182D01*
X110672500Y-120627812D01*
X110672501Y-120627818D01*
X110687583Y-120761689D01*
X110687586Y-120761702D01*
X110746976Y-120931427D01*
X110841479Y-121081828D01*
X110860479Y-121149065D01*
X110840111Y-121215900D01*
X110786843Y-121261114D01*
X110736485Y-121271800D01*
X109802979Y-121271800D01*
X109735940Y-121252115D01*
X109690185Y-121199311D01*
X109680241Y-121130153D01*
X109709266Y-121066597D01*
X109715298Y-121060119D01*
X109780835Y-120994581D01*
X109780836Y-120994580D01*
X109864070Y-120856896D01*
X109911934Y-120703292D01*
X109918000Y-120636543D01*
X109918000Y-119820500D01*
X108268000Y-119820500D01*
X108268000Y-120636543D01*
X108274065Y-120703292D01*
X108321929Y-120856896D01*
X108405163Y-120994580D01*
X108470702Y-121060119D01*
X108504187Y-121121442D01*
X108499203Y-121191134D01*
X108457331Y-121247067D01*
X108391867Y-121271484D01*
X108383021Y-121271800D01*
X108334029Y-121271800D01*
X108172004Y-121304029D01*
X108171996Y-121304031D01*
X108019365Y-121367253D01*
X107881994Y-121459040D01*
X107881993Y-121459041D01*
X107603381Y-121737654D01*
X107542058Y-121771139D01*
X107472366Y-121766155D01*
X107416433Y-121724283D01*
X107392016Y-121658819D01*
X107391700Y-121649973D01*
X107391700Y-121042466D01*
X107410707Y-120976493D01*
X107416672Y-120966999D01*
X107439022Y-120931430D01*
X107498415Y-120761695D01*
X107513500Y-120627811D01*
X107513499Y-118513190D01*
X107512515Y-118504456D01*
X108268000Y-118504456D01*
X108268000Y-119320500D01*
X108843000Y-119320500D01*
X109343000Y-119320500D01*
X109918000Y-119320500D01*
X109918000Y-118504456D01*
X109911934Y-118437707D01*
X109864070Y-118284103D01*
X109780836Y-118146419D01*
X109667080Y-118032663D01*
X109529396Y-117949429D01*
X109375794Y-117901566D01*
X109343000Y-117898585D01*
X109343000Y-119320500D01*
X108843000Y-119320500D01*
X108843000Y-117898585D01*
X108842999Y-117898585D01*
X108810205Y-117901566D01*
X108656603Y-117949429D01*
X108518919Y-118032663D01*
X108405163Y-118146419D01*
X108321929Y-118284103D01*
X108274065Y-118437707D01*
X108268000Y-118504456D01*
X107512515Y-118504456D01*
X107507429Y-118459309D01*
X107498416Y-118379309D01*
X107498413Y-118379297D01*
X107439023Y-118209572D01*
X107420077Y-118179419D01*
X107343349Y-118057307D01*
X107216193Y-117930151D01*
X107116451Y-117867479D01*
X107063929Y-117834477D01*
X106894192Y-117775084D01*
X106894186Y-117775083D01*
X106760315Y-117760000D01*
X106345687Y-117760000D01*
X106345681Y-117760001D01*
X106211810Y-117775083D01*
X106211797Y-117775086D01*
X106042072Y-117834476D01*
X105889806Y-117930151D01*
X105762651Y-118057306D01*
X105666977Y-118209570D01*
X105607584Y-118379307D01*
X105607583Y-118379313D01*
X105592500Y-118513182D01*
X105592500Y-120627812D01*
X105592501Y-120627818D01*
X105607583Y-120761689D01*
X105607586Y-120761702D01*
X105666976Y-120931428D01*
X105695293Y-120976493D01*
X105700138Y-120993310D01*
X105709277Y-121007531D01*
X105714300Y-121042466D01*
X105714300Y-121289374D01*
X105694615Y-121356413D01*
X105677981Y-121377055D01*
X104703918Y-122351118D01*
X104642595Y-122384603D01*
X104616237Y-122387437D01*
X103662392Y-122387437D01*
X103500367Y-122419666D01*
X103500359Y-122419668D01*
X103347728Y-122482890D01*
X103210357Y-122574677D01*
X103210356Y-122574678D01*
X102218822Y-123566214D01*
X101940360Y-123844676D01*
X101910517Y-123874519D01*
X101823539Y-123961496D01*
X101731753Y-124098865D01*
X101668531Y-124251496D01*
X101668529Y-124251504D01*
X101636300Y-124413527D01*
X101636300Y-125396769D01*
X101616615Y-125463808D01*
X101585186Y-125497086D01*
X101494239Y-125563164D01*
X101494230Y-125563171D01*
X101326671Y-125730730D01*
X101326671Y-125730731D01*
X101326669Y-125730733D01*
X101274319Y-125802786D01*
X101187381Y-125922445D01*
X101079800Y-126133586D01*
X101006570Y-126358964D01*
X100969500Y-126593015D01*
X100969500Y-127279984D01*
X100992949Y-127428038D01*
X101006571Y-127514039D01*
X101077089Y-127731072D01*
X101079800Y-127739413D01*
X101153939Y-127884919D01*
X101187381Y-127950554D01*
X101326669Y-128142267D01*
X101494233Y-128309831D01*
X101685946Y-128449119D01*
X101897089Y-128556701D01*
X102122461Y-128629929D01*
X102356515Y-128667000D01*
X102356516Y-128667000D01*
X102593484Y-128667000D01*
X102593485Y-128667000D01*
X102827539Y-128629929D01*
X103052911Y-128556701D01*
X103264054Y-128449119D01*
X103455767Y-128309831D01*
X103623331Y-128142267D01*
X103644683Y-128112878D01*
X103700010Y-128070213D01*
X103769624Y-128064233D01*
X103831419Y-128096839D01*
X103845313Y-128112873D01*
X103866669Y-128142267D01*
X104034233Y-128309831D01*
X104225946Y-128449119D01*
X104437089Y-128556701D01*
X104662461Y-128629929D01*
X104896515Y-128667000D01*
X104896516Y-128667000D01*
X105133484Y-128667000D01*
X105133485Y-128667000D01*
X105367539Y-128629929D01*
X105592911Y-128556701D01*
X105804054Y-128449119D01*
X105995767Y-128309831D01*
X106163331Y-128142267D01*
X106268426Y-127997615D01*
X106323755Y-127954951D01*
X106393368Y-127948972D01*
X106455163Y-127981578D01*
X106469060Y-127997616D01*
X106510018Y-128053988D01*
X106510025Y-128053997D01*
X106662502Y-128206474D01*
X106836963Y-128333228D01*
X107029098Y-128431127D01*
X107234190Y-128497766D01*
X107305000Y-128508981D01*
X107305000Y-127479209D01*
X107325339Y-127490952D01*
X107476667Y-127531500D01*
X107633333Y-127531500D01*
X107784661Y-127490952D01*
X107805000Y-127479209D01*
X107805000Y-128508980D01*
X107875809Y-128497766D01*
X108080901Y-128431127D01*
X108273036Y-128333228D01*
X108447496Y-128206474D01*
X108447497Y-128206474D01*
X108492572Y-128161399D01*
X108553895Y-128127913D01*
X108623586Y-128132897D01*
X108679520Y-128174768D01*
X108690739Y-128192784D01*
X108728266Y-128266436D01*
X108782354Y-128333228D01*
X108845408Y-128411092D01*
X108923686Y-128474481D01*
X108990063Y-128528233D01*
X108990065Y-128528235D01*
X109045931Y-128556699D01*
X109155917Y-128612739D01*
X109335714Y-128660916D01*
X109413019Y-128667000D01*
X110776980Y-128666999D01*
X110854286Y-128660916D01*
X111034083Y-128612739D01*
X111170898Y-128543029D01*
X111199934Y-128528235D01*
X111199936Y-128528233D01*
X111344592Y-128411092D01*
X111461734Y-128266435D01*
X111546239Y-128100583D01*
X111594416Y-127920786D01*
X111600500Y-127843481D01*
X111600499Y-126029520D01*
X111594416Y-125952214D01*
X111546239Y-125772417D01*
X111492285Y-125666525D01*
X111461735Y-125606565D01*
X111461733Y-125606563D01*
X111347404Y-125465381D01*
X111344592Y-125461908D01*
X111344591Y-125461907D01*
X111303939Y-125428987D01*
X111264228Y-125371499D01*
X111261902Y-125301668D01*
X111294292Y-125244945D01*
X111591902Y-124947335D01*
X111653223Y-124913853D01*
X111679581Y-124911019D01*
X116611789Y-124911019D01*
X116611790Y-124911018D01*
X116773822Y-124878788D01*
X116926455Y-124815565D01*
X117063822Y-124723780D01*
X118929082Y-122858518D01*
X118990405Y-122825034D01*
X119016763Y-122822200D01*
X119427474Y-122822200D01*
X119494513Y-122841885D01*
X119540268Y-122894689D01*
X119550212Y-122963847D01*
X119521187Y-123027403D01*
X119515155Y-123033881D01*
X118450360Y-124098676D01*
X118411710Y-124137326D01*
X118333539Y-124215496D01*
X118241753Y-124352865D01*
X118178531Y-124505496D01*
X118178529Y-124505504D01*
X118146300Y-124667527D01*
X118146300Y-125396769D01*
X118126615Y-125463808D01*
X118095186Y-125497086D01*
X118004239Y-125563164D01*
X118004230Y-125563171D01*
X117836671Y-125730730D01*
X117836671Y-125730731D01*
X117836669Y-125730733D01*
X117784319Y-125802786D01*
X117697381Y-125922445D01*
X117589800Y-126133586D01*
X117516570Y-126358964D01*
X117479500Y-126593015D01*
X117479500Y-127279984D01*
X117502949Y-127428038D01*
X117516571Y-127514039D01*
X117587089Y-127731072D01*
X117589800Y-127739413D01*
X117663939Y-127884919D01*
X117697381Y-127950554D01*
X117836669Y-128142267D01*
X118004233Y-128309831D01*
X118195946Y-128449119D01*
X118407089Y-128556701D01*
X118632461Y-128629929D01*
X118866515Y-128667000D01*
X118866516Y-128667000D01*
X119103484Y-128667000D01*
X119103485Y-128667000D01*
X119337539Y-128629929D01*
X119562911Y-128556701D01*
X119774054Y-128449119D01*
X119965767Y-128309831D01*
X120133331Y-128142267D01*
X120154683Y-128112878D01*
X120210010Y-128070213D01*
X120279624Y-128064233D01*
X120341419Y-128096839D01*
X120355313Y-128112873D01*
X120376669Y-128142267D01*
X120544233Y-128309831D01*
X120735946Y-128449119D01*
X120947089Y-128556701D01*
X121172461Y-128629929D01*
X121406515Y-128667000D01*
X121406516Y-128667000D01*
X121643484Y-128667000D01*
X121643485Y-128667000D01*
X121877539Y-128629929D01*
X122102911Y-128556701D01*
X122314054Y-128449119D01*
X122505767Y-128309831D01*
X122673331Y-128142267D01*
X122778426Y-127997615D01*
X122833755Y-127954951D01*
X122903368Y-127948972D01*
X122965163Y-127981578D01*
X122979060Y-127997616D01*
X123020018Y-128053988D01*
X123020025Y-128053997D01*
X123172502Y-128206474D01*
X123346963Y-128333228D01*
X123539098Y-128431127D01*
X123744190Y-128497766D01*
X123815000Y-128508981D01*
X123815000Y-127479209D01*
X123835339Y-127490952D01*
X123986667Y-127531500D01*
X124143333Y-127531500D01*
X124294661Y-127490952D01*
X124315000Y-127479209D01*
X124315000Y-128508980D01*
X124385809Y-128497766D01*
X124590901Y-128431127D01*
X124783036Y-128333228D01*
X124957496Y-128206474D01*
X124957497Y-128206474D01*
X125002572Y-128161399D01*
X125063895Y-128127913D01*
X125133586Y-128132897D01*
X125189520Y-128174768D01*
X125200739Y-128192784D01*
X125238266Y-128266436D01*
X125292354Y-128333228D01*
X125355408Y-128411092D01*
X125433686Y-128474481D01*
X125500063Y-128528233D01*
X125500065Y-128528235D01*
X125555931Y-128556699D01*
X125665917Y-128612739D01*
X125845714Y-128660916D01*
X125923019Y-128667000D01*
X127286980Y-128666999D01*
X127364286Y-128660916D01*
X127544083Y-128612739D01*
X127680898Y-128543029D01*
X127709934Y-128528235D01*
X127709936Y-128528233D01*
X127854592Y-128411092D01*
X127971734Y-128266435D01*
X128056239Y-128100583D01*
X128104416Y-127920786D01*
X128110500Y-127843481D01*
X128110499Y-126029520D01*
X128104416Y-125952214D01*
X128056239Y-125772417D01*
X128005525Y-125672884D01*
X128000961Y-125648584D01*
X127992325Y-125625418D01*
X127994625Y-125614848D01*
X127992629Y-125604215D01*
X128001928Y-125581304D01*
X128007187Y-125557147D01*
X128017113Y-125543890D01*
X128018906Y-125539475D01*
X128028342Y-125528896D01*
X128031733Y-125525506D01*
X128093061Y-125492030D01*
X128119401Y-125489200D01*
X130809541Y-125489200D01*
X130876580Y-125508885D01*
X130922335Y-125561689D01*
X130932279Y-125630847D01*
X130925302Y-125657645D01*
X130924761Y-125659053D01*
X130876583Y-125838854D01*
X130870500Y-125916150D01*
X130870500Y-127140107D01*
X130870501Y-127140126D01*
X130876583Y-127217419D01*
X130876583Y-127217422D01*
X130876584Y-127217423D01*
X130924761Y-127397220D01*
X130946289Y-127439471D01*
X131009264Y-127563071D01*
X131009266Y-127563073D01*
X131102365Y-127678039D01*
X131126408Y-127707729D01*
X131195337Y-127763547D01*
X131235047Y-127821032D01*
X131241300Y-127859911D01*
X131241300Y-128670109D01*
X131268488Y-128806789D01*
X131273531Y-128832140D01*
X131336754Y-128984773D01*
X131382646Y-129053456D01*
X131428540Y-129122142D01*
X131428541Y-129122143D01*
X132023218Y-129716819D01*
X132056703Y-129778142D01*
X132051719Y-129847833D01*
X132009848Y-129903767D01*
X131944383Y-129928184D01*
X131935537Y-129928500D01*
X97025000Y-129928500D01*
X96957961Y-129908815D01*
X96912206Y-129856011D01*
X96901000Y-129804500D01*
X96901000Y-118513182D01*
X103052500Y-118513182D01*
X103052500Y-120627812D01*
X103052501Y-120627818D01*
X103067583Y-120761689D01*
X103067586Y-120761702D01*
X103126976Y-120931427D01*
X103211909Y-121066597D01*
X103222651Y-121083693D01*
X103349807Y-121210849D01*
X103502070Y-121306522D01*
X103671805Y-121365915D01*
X103671811Y-121365915D01*
X103671813Y-121365916D01*
X103683680Y-121367253D01*
X103805689Y-121381000D01*
X104220310Y-121380999D01*
X104220312Y-121380999D01*
X104220316Y-121380998D01*
X104255317Y-121377055D01*
X104354189Y-121365916D01*
X104354191Y-121365915D01*
X104354195Y-121365915D01*
X104354198Y-121365913D01*
X104354202Y-121365913D01*
X104523927Y-121306523D01*
X104523926Y-121306523D01*
X104523930Y-121306522D01*
X104676193Y-121210849D01*
X104803349Y-121083693D01*
X104899022Y-120931430D01*
X104958415Y-120761695D01*
X104973500Y-120627811D01*
X104973499Y-118513190D01*
X104967429Y-118459309D01*
X104958416Y-118379310D01*
X104958413Y-118379297D01*
X104899023Y-118209572D01*
X104880077Y-118179419D01*
X104803349Y-118057307D01*
X104676193Y-117930151D01*
X104576451Y-117867479D01*
X104523929Y-117834477D01*
X104354192Y-117775084D01*
X104354186Y-117775083D01*
X104220315Y-117760000D01*
X103805687Y-117760000D01*
X103805681Y-117760001D01*
X103671810Y-117775083D01*
X103671797Y-117775086D01*
X103502072Y-117834476D01*
X103349806Y-117930151D01*
X103222651Y-118057306D01*
X103126977Y-118209570D01*
X103067584Y-118379307D01*
X103067583Y-118379313D01*
X103052500Y-118513182D01*
X96901000Y-118513182D01*
X96901000Y-116921432D01*
X96903376Y-116897276D01*
X96915493Y-116836290D01*
X96933968Y-116791638D01*
X96961571Y-116750271D01*
X96995711Y-116716073D01*
X97037035Y-116688398D01*
X97081659Y-116669849D01*
X97142618Y-116657631D01*
X97166767Y-116655214D01*
X103810901Y-116644103D01*
X179819358Y-116516998D01*
X179843560Y-116519343D01*
G37*
%TD.AperFunction*%
%TA.AperFunction,Conductor*%
G36*
X153106977Y-123984885D02*
G01*
X153152732Y-124037689D01*
X153162676Y-124106847D01*
X153133651Y-124170403D01*
X153127619Y-124176881D01*
X152781000Y-124523499D01*
X152781000Y-127116800D01*
X152761315Y-127183839D01*
X152708511Y-127229594D01*
X152657000Y-127240800D01*
X152571392Y-127240800D01*
X152409367Y-127273029D01*
X152409359Y-127273031D01*
X152256727Y-127336253D01*
X152119360Y-127428038D01*
X152119356Y-127428042D01*
X151986729Y-127560667D01*
X151946514Y-127587541D01*
X151939973Y-127590251D01*
X151939969Y-127590253D01*
X151939968Y-127590254D01*
X151905167Y-127613506D01*
X151802598Y-127682040D01*
X151802597Y-127682041D01*
X150756159Y-128728481D01*
X150729231Y-128743184D01*
X150703413Y-128759777D01*
X150697212Y-128760668D01*
X150694836Y-128761966D01*
X150668478Y-128764800D01*
X150488804Y-128764800D01*
X150421765Y-128745115D01*
X150376010Y-128692311D01*
X150366066Y-128623153D01*
X150370871Y-128602489D01*
X150435384Y-128403939D01*
X150469500Y-128188541D01*
X150469500Y-127970459D01*
X150435384Y-127755061D01*
X150367993Y-127547653D01*
X150367991Y-127547650D01*
X150367991Y-127547648D01*
X150307046Y-127428038D01*
X150268986Y-127353340D01*
X150140800Y-127176907D01*
X149986593Y-127022700D01*
X149810160Y-126894514D01*
X149738825Y-126858167D01*
X149615851Y-126795508D01*
X149408439Y-126728116D01*
X149193041Y-126694000D01*
X148974959Y-126694000D01*
X148884686Y-126708298D01*
X148759560Y-126728116D01*
X148552148Y-126795508D01*
X148357839Y-126894514D01*
X148181404Y-127022702D01*
X148027201Y-127176905D01*
X148017916Y-127189686D01*
X147962585Y-127232352D01*
X147917598Y-127240800D01*
X146335126Y-127240800D01*
X146268087Y-127221115D01*
X146247445Y-127204481D01*
X143219845Y-124176881D01*
X143186360Y-124115558D01*
X143191344Y-124045866D01*
X143233216Y-123989933D01*
X143298680Y-123965516D01*
X143307526Y-123965200D01*
X153039938Y-123965200D01*
X153106977Y-123984885D01*
G37*
%TD.AperFunction*%
%TA.AperFunction,Conductor*%
G36*
X126179719Y-124733438D02*
G01*
X126201808Y-124735018D01*
X126212591Y-124743090D01*
X126225513Y-124746885D01*
X126240012Y-124763618D01*
X126257741Y-124776890D01*
X126262448Y-124789510D01*
X126271268Y-124799689D01*
X126274419Y-124821606D01*
X126282158Y-124842354D01*
X126279295Y-124855514D01*
X126281212Y-124868847D01*
X126272012Y-124888990D01*
X126267306Y-124910627D01*
X126254037Y-124928352D01*
X126252187Y-124932403D01*
X126246155Y-124938881D01*
X126070360Y-125114675D01*
X126070359Y-125114677D01*
X126015351Y-125169683D01*
X125954027Y-125203167D01*
X125927688Y-125206000D01*
X125923036Y-125206000D01*
X125923009Y-125206001D01*
X125845717Y-125212083D01*
X125665917Y-125260261D01*
X125500065Y-125344764D01*
X125500063Y-125344766D01*
X125355408Y-125461908D01*
X125238266Y-125606563D01*
X125200739Y-125680215D01*
X125152764Y-125731011D01*
X125084943Y-125747806D01*
X125018808Y-125725268D01*
X125002573Y-125711601D01*
X124957497Y-125666525D01*
X124783036Y-125539771D01*
X124590899Y-125441872D01*
X124385805Y-125375233D01*
X124315000Y-125364018D01*
X124315000Y-126393790D01*
X124294661Y-126382048D01*
X124143333Y-126341500D01*
X123986667Y-126341500D01*
X123835339Y-126382048D01*
X123815000Y-126393790D01*
X123815000Y-125364018D01*
X123814999Y-125364018D01*
X123744194Y-125375233D01*
X123539100Y-125441872D01*
X123346963Y-125539771D01*
X123172503Y-125666525D01*
X123172502Y-125666525D01*
X123020024Y-125819003D01*
X122979062Y-125875383D01*
X122923731Y-125918048D01*
X122854118Y-125924027D01*
X122792323Y-125891421D01*
X122778426Y-125875383D01*
X122725681Y-125802786D01*
X122673331Y-125730733D01*
X122543598Y-125601000D01*
X122510113Y-125539677D01*
X122515097Y-125469985D01*
X122543595Y-125425641D01*
X123205719Y-124763519D01*
X123267042Y-124730034D01*
X123293400Y-124727200D01*
X126158474Y-124727200D01*
X126179719Y-124733438D01*
G37*
%TD.AperFunction*%
%TD*%
%TA.AperFunction,NonConductor*%
G36*
X116233877Y-122968885D02*
G01*
X116279632Y-123021689D01*
X116289576Y-123090847D01*
X116260551Y-123154403D01*
X116254519Y-123160881D01*
X116218100Y-123197300D01*
X116156777Y-123230785D01*
X116130419Y-123233619D01*
X111198210Y-123233619D01*
X111036185Y-123265848D01*
X111036177Y-123265850D01*
X110883546Y-123329072D01*
X110746175Y-123420859D01*
X110746174Y-123420860D01*
X109814172Y-124352864D01*
X109560360Y-124606676D01*
X109501949Y-124665086D01*
X109443539Y-124723496D01*
X109351753Y-124860865D01*
X109288531Y-125013496D01*
X109288529Y-125013502D01*
X109259191Y-125160993D01*
X109226806Y-125222904D01*
X109169670Y-125256575D01*
X109155919Y-125260259D01*
X108990065Y-125344764D01*
X108990063Y-125344766D01*
X108845408Y-125461908D01*
X108728266Y-125606563D01*
X108690739Y-125680215D01*
X108642764Y-125731011D01*
X108574943Y-125747806D01*
X108508808Y-125725268D01*
X108492573Y-125711601D01*
X108447497Y-125666525D01*
X108273036Y-125539771D01*
X108080899Y-125441872D01*
X107875805Y-125375233D01*
X107805000Y-125364018D01*
X107805000Y-126393790D01*
X107784661Y-126382048D01*
X107633333Y-126341500D01*
X107476667Y-126341500D01*
X107325339Y-126382048D01*
X107305000Y-126393790D01*
X107305000Y-125364018D01*
X107304999Y-125364018D01*
X107234194Y-125375233D01*
X107029100Y-125441872D01*
X106836963Y-125539771D01*
X106662503Y-125666525D01*
X106662502Y-125666525D01*
X106510024Y-125819003D01*
X106469062Y-125875383D01*
X106447284Y-125892175D01*
X106427765Y-125911550D01*
X106420009Y-125913206D01*
X106413731Y-125918048D01*
X106386332Y-125920401D01*
X106359437Y-125926147D01*
X106352018Y-125923348D01*
X106344118Y-125924027D01*
X106319796Y-125911193D01*
X106294064Y-125901487D01*
X106286172Y-125893452D01*
X106282323Y-125891421D01*
X106269201Y-125876437D01*
X106268763Y-125875847D01*
X106163331Y-125730733D01*
X106154163Y-125721565D01*
X106148737Y-125714260D01*
X106139671Y-125689675D01*
X106127114Y-125666678D01*
X106127776Y-125657416D01*
X106124564Y-125648705D01*
X106130228Y-125623123D01*
X106132098Y-125596986D01*
X106138076Y-125587683D01*
X106139670Y-125580488D01*
X106148040Y-125572179D01*
X106160599Y-125552639D01*
X108727719Y-122985519D01*
X108789042Y-122952034D01*
X108815400Y-122949200D01*
X116166838Y-122949200D01*
X116233877Y-122968885D01*
G37*
%TD.AperFunction*%
M02*
